%TF.GenerationSoftware,KiCad,Pcbnew,8.0.5*%
%TF.CreationDate,2025-02-18T12:58:12+00:00*%
%TF.ProjectId,practice-keyring,70726163-7469-4636-952d-6b657972696e,rev?*%
%TF.SameCoordinates,Original*%
%TF.FileFunction,Profile,NP*%
%FSLAX46Y46*%
G04 Gerber Fmt 4.6, Leading zero omitted, Abs format (unit mm)*
G04 Created by KiCad (PCBNEW 8.0.5) date 2025-02-18 12:58:12*
%MOMM*%
%LPD*%
G01*
G04 APERTURE LIST*
%TA.AperFunction,Profile*%
%ADD10C,0.100000*%
%TD*%
G04 APERTURE END LIST*
D10*
X211048894Y-102260362D02*
X210431894Y-104661762D01*
X233979594Y-79762662D02*
X234213794Y-79676962D01*
X236587394Y-84083162D02*
X236386094Y-84232162D01*
X238942294Y-82904962D02*
X239001194Y-82511762D01*
X229923694Y-85169462D02*
X227522794Y-85786462D01*
X232396394Y-78986862D02*
X232109094Y-79248362D01*
X234558094Y-78083562D02*
X234155994Y-78144562D01*
X238846094Y-83288962D02*
X238942294Y-82904962D01*
X231411494Y-80181662D02*
X231240894Y-80535662D01*
X210409094Y-114618262D02*
X211006494Y-116994362D01*
X231240894Y-80535662D02*
X231104994Y-80907162D01*
X236902094Y-78551262D02*
X236548094Y-78380762D01*
X234971794Y-84660462D02*
X234719894Y-84647862D01*
X238543794Y-84018062D02*
X238712794Y-83661062D01*
X231999494Y-84853162D02*
X229923694Y-85169462D01*
X242256794Y-133674462D02*
X244558994Y-132850762D01*
X231231094Y-83661062D02*
X231400094Y-84018062D01*
X240020194Y-85169462D02*
X237944894Y-84852662D01*
X232496094Y-134634662D02*
X234971394Y-134758162D01*
X233557594Y-84232162D02*
X233356394Y-84083162D01*
X238702994Y-80535662D02*
X238532494Y-80181662D01*
X236186994Y-79870062D02*
X236397194Y-79997762D01*
X232730394Y-80896362D02*
X232858094Y-80686262D01*
X233395794Y-78380762D02*
X233041894Y-78551262D01*
X231400094Y-84018062D02*
X231603194Y-84357562D01*
X231005294Y-81295762D02*
X230943794Y-81697262D01*
X237406494Y-81353362D02*
X237469294Y-81597762D01*
X231104994Y-80907162D02*
X231005294Y-81295762D01*
X234472294Y-84611062D02*
X234230394Y-84550162D01*
X234711294Y-79575562D02*
X234971794Y-79562362D01*
X237213394Y-80896362D02*
X237320794Y-81119262D01*
X232422694Y-82111462D02*
X232435894Y-81850762D01*
X210052594Y-107147962D02*
X209922794Y-109710062D01*
X234971994Y-78062362D02*
X234558094Y-78083562D01*
X233771594Y-84360062D02*
X233557594Y-84232162D01*
X258115294Y-119295062D02*
X258938994Y-116994362D01*
X237944894Y-84852662D02*
X238104094Y-84676962D01*
X233546594Y-79997762D02*
X233756794Y-79870062D01*
X237834794Y-79248362D02*
X237547494Y-78986862D01*
X235223794Y-84647862D02*
X234971794Y-84660462D01*
X237520994Y-82111462D02*
X237520994Y-82111462D01*
X252684594Y-91996962D02*
X250905894Y-90380462D01*
X232109094Y-79248362D02*
X231847594Y-79535662D01*
X235729894Y-79676962D02*
X235964094Y-79762662D01*
X212946394Y-97769162D02*
X211891194Y-99959762D01*
X246912294Y-87684062D02*
X244722294Y-86628762D01*
X232472194Y-82610962D02*
X232435194Y-82363362D01*
X239001194Y-82511762D02*
X239020794Y-82111262D01*
X244558994Y-132850762D02*
X246767094Y-131806362D01*
X257069794Y-121504162D02*
X258115294Y-119295062D01*
X232537294Y-81353362D02*
X232622994Y-81119262D01*
X234971394Y-134758162D02*
X237447294Y-134634662D01*
X230943794Y-81697262D02*
X230922594Y-82111262D01*
X230063194Y-134272862D02*
X232496094Y-134634662D01*
X242420594Y-85786462D02*
X240020194Y-85169462D01*
X220966594Y-88939262D02*
X219038594Y-90380462D01*
X236774394Y-80308962D02*
X236938994Y-80489962D01*
X230942794Y-82511762D02*
X231001694Y-82904962D01*
X210045794Y-112185362D02*
X210409094Y-114618262D01*
X258895594Y-102260362D02*
X258053794Y-99959762D01*
X236774494Y-83913762D02*
X236587394Y-84083162D01*
X237320794Y-81119262D02*
X237406494Y-81353362D01*
X237447294Y-134634662D02*
X239881694Y-134272862D01*
X232616794Y-83086862D02*
X232532994Y-82852762D01*
X239881694Y-134272862D02*
X242256794Y-133674462D01*
X236397194Y-79997762D02*
X236593394Y-80144462D01*
X237520994Y-82111462D02*
X237520994Y-82111462D01*
X232707994Y-78754362D02*
X232396394Y-78986862D01*
X259535294Y-114618262D02*
X259899094Y-112185362D01*
X236548094Y-78380762D02*
X236175994Y-78244762D01*
X233356394Y-84083162D02*
X233169394Y-83913762D01*
X248977794Y-88939262D02*
X246912294Y-87684062D01*
X258053794Y-99959762D02*
X256997994Y-97769162D01*
X238329394Y-79847762D02*
X238096294Y-79535662D01*
X234155994Y-78144562D02*
X233767894Y-78244762D01*
X233350394Y-80144462D02*
X233546594Y-79997762D01*
X235485594Y-79614162D02*
X235729894Y-79676962D01*
X237547494Y-78986862D02*
X237235894Y-78754362D01*
X225386494Y-132850762D02*
X227686094Y-133674462D01*
X227522794Y-85786462D02*
X225221694Y-86628762D01*
X237471594Y-82610962D02*
X237410894Y-82852762D01*
X260020594Y-109710062D02*
X259891894Y-107147962D01*
X231097794Y-83288962D02*
X231231094Y-83661062D01*
X209922794Y-109710062D02*
X210045794Y-112185362D01*
X237092894Y-83525662D02*
X236943794Y-83726762D01*
X225221694Y-86628762D02*
X223032094Y-87684062D01*
X237410894Y-82852762D02*
X237327094Y-83086862D01*
X235232494Y-79575562D02*
X235485594Y-79614162D01*
X219038594Y-90380462D02*
X217260394Y-91996962D01*
X238104094Y-84676962D02*
X238340694Y-84357562D01*
X219097494Y-129085662D02*
X221074594Y-130549662D01*
X237520994Y-82111462D02*
X237508594Y-82363362D01*
X232532994Y-82852762D02*
X232472194Y-82610962D01*
X232435894Y-81850762D02*
X232474494Y-81597762D01*
X234971994Y-78062362D02*
X234971994Y-78062362D01*
X232622994Y-81119262D02*
X232730394Y-80896362D01*
X235713194Y-84550162D02*
X235471494Y-84611062D01*
X236943794Y-83726762D02*
X236774494Y-83913762D01*
X234213794Y-79676962D02*
X234458094Y-79614162D01*
X237235894Y-78754362D02*
X236902094Y-78551262D01*
X235787894Y-78144562D02*
X235385894Y-78083562D01*
X255814094Y-123606862D02*
X257069794Y-121504162D01*
X236172194Y-84360062D02*
X235947494Y-84466362D01*
X232723094Y-83311662D02*
X232616794Y-83086862D01*
X250846994Y-129085662D02*
X252685094Y-127420662D01*
X234458094Y-79614162D02*
X234711294Y-79575562D01*
X210431894Y-104661762D02*
X210052594Y-107147962D01*
X238938594Y-81295762D02*
X238838894Y-80907162D01*
X252685094Y-127420662D02*
X254349094Y-125582962D01*
X235385894Y-78083562D02*
X234971994Y-78062362D01*
X233756794Y-79870062D02*
X233979594Y-79762662D01*
X254349094Y-125582962D02*
X255814094Y-123606862D01*
X244722294Y-86628762D02*
X242420594Y-85786462D01*
X230922594Y-82111262D02*
X230942794Y-82511762D01*
X236938994Y-80489962D02*
X237085694Y-80686262D01*
X237469294Y-81597762D02*
X237507894Y-81850762D01*
X231614594Y-79847762D02*
X231411494Y-80181662D01*
X236593394Y-80144462D02*
X236774394Y-80308962D01*
X231001694Y-82904962D02*
X231097794Y-83288962D01*
X215642894Y-93775662D02*
X214201094Y-95704762D01*
X238340694Y-84357562D02*
X238543794Y-84018062D01*
X221074594Y-130549662D02*
X223177894Y-131806362D01*
X254302094Y-93775662D02*
X252684594Y-91996962D01*
X233169394Y-80308962D02*
X233350394Y-80144462D01*
X233767894Y-78244762D02*
X233395794Y-78380762D01*
X232474494Y-81597762D02*
X232537294Y-81353362D01*
X238096294Y-79535662D02*
X237834794Y-79248362D01*
X212874594Y-121504162D02*
X214131394Y-123606862D01*
X211891194Y-99959762D02*
X211048894Y-102260362D01*
X227686094Y-133674462D02*
X230063194Y-134272862D01*
X250905894Y-90380462D02*
X248977794Y-88939262D01*
X223032094Y-87684062D02*
X220966594Y-88939262D01*
X236386094Y-84232162D02*
X236172194Y-84360062D01*
X238712794Y-83661062D02*
X238846094Y-83288962D01*
X259512594Y-104661762D02*
X258895594Y-102260362D01*
X238838894Y-80907162D02*
X238702994Y-80535662D01*
X237327094Y-83086862D02*
X237220694Y-83311662D01*
X256997994Y-97769162D02*
X255743294Y-95704762D01*
X211830194Y-119295062D02*
X212874594Y-121504162D01*
X255743294Y-95704762D02*
X254302094Y-93775662D01*
X235947494Y-84466362D02*
X235713194Y-84550162D01*
X223177894Y-131806362D02*
X225386494Y-132850762D01*
X237507894Y-81850762D02*
X237520994Y-82111462D01*
X232999994Y-83726762D02*
X232850994Y-83525662D01*
X237085694Y-80686262D02*
X237213394Y-80896362D01*
X217260394Y-91996962D02*
X215642894Y-93775662D01*
X236175994Y-78244762D02*
X235787894Y-78144562D01*
X232850994Y-83525662D02*
X232723094Y-83311662D01*
X211006494Y-116994362D02*
X211830194Y-119295062D01*
X233041894Y-78551262D02*
X232707994Y-78754362D01*
X214201094Y-95704762D02*
X212946394Y-97769162D01*
X233169394Y-83913762D02*
X232999994Y-83726762D01*
X234230394Y-84550162D02*
X233996394Y-84466362D01*
X232858094Y-80686262D02*
X233004794Y-80489962D01*
X214131394Y-123606862D02*
X215595394Y-125582962D01*
X239020794Y-82111262D02*
X239000094Y-81697262D01*
X237508594Y-82363362D02*
X237471594Y-82610962D01*
X235471494Y-84611062D02*
X235223794Y-84647862D01*
X215595394Y-125582962D02*
X217260394Y-127420662D01*
X259891894Y-107147962D02*
X259512594Y-104661762D01*
X237220694Y-83311662D02*
X237092894Y-83525662D01*
X258938994Y-116994362D02*
X259535294Y-114618262D01*
X238532494Y-80181662D02*
X238329394Y-79847762D01*
X259899094Y-112185362D02*
X260020594Y-109710062D01*
X233996394Y-84466362D02*
X233771594Y-84360062D01*
X234971794Y-79562362D02*
X235232494Y-79575562D01*
X246767094Y-131806362D02*
X248868794Y-130549662D01*
X231847594Y-79535662D02*
X231614594Y-79847762D01*
X231603194Y-84357562D02*
X231839894Y-84676962D01*
X233004794Y-80489962D02*
X233169394Y-80308962D01*
X248868794Y-130549662D02*
X250846994Y-129085662D01*
X232435194Y-82363362D02*
X232422694Y-82111462D01*
X239000094Y-81697262D02*
X238938594Y-81295762D01*
X217260394Y-127420662D02*
X219097494Y-129085662D01*
X231839894Y-84676962D02*
X231999494Y-84853162D01*
X235964094Y-79762662D02*
X236186994Y-79870062D01*
X234719894Y-84647862D02*
X234472294Y-84611062D01*
M02*
