%TF.GenerationSoftware,KiCad,Pcbnew,8.0.5*%
%TF.CreationDate,2025-02-18T12:58:11+00:00*%
%TF.ProjectId,practice-keyring,70726163-7469-4636-952d-6b657972696e,rev?*%
%TF.SameCoordinates,Original*%
%TF.FileFunction,Copper,L2,Bot*%
%TF.FilePolarity,Positive*%
%FSLAX46Y46*%
G04 Gerber Fmt 4.6, Leading zero omitted, Abs format (unit mm)*
G04 Created by KiCad (PCBNEW 8.0.5) date 2025-02-18 12:58:11*
%MOMM*%
%LPD*%
G01*
G04 APERTURE LIST*
%ADD10C,0.150000*%
%TA.AperFunction,NonConductor*%
%ADD11C,0.150000*%
%TD*%
%TA.AperFunction,ComponentPad*%
%ADD12R,2.000000X2.000000*%
%TD*%
%TA.AperFunction,ComponentPad*%
%ADD13C,2.000000*%
%TD*%
%TA.AperFunction,ComponentPad*%
%ADD14C,1.600000*%
%TD*%
%TA.AperFunction,ComponentPad*%
%ADD15O,1.600000X1.600000*%
%TD*%
%TA.AperFunction,ComponentPad*%
%ADD16O,2.000000X3.500000*%
%TD*%
%TA.AperFunction,SMDPad,CuDef*%
%ADD17C,5.000000*%
%TD*%
%TA.AperFunction,ComponentPad*%
%ADD18C,1.524000*%
%TD*%
%TA.AperFunction,Conductor*%
%ADD19C,0.250000*%
%TD*%
G04 APERTURE END LIST*
D10*
D11*
X254816828Y-107299428D02*
X254769209Y-107251809D01*
X254769209Y-107251809D02*
X254721590Y-107156571D01*
X254721590Y-107156571D02*
X254721590Y-107061333D01*
X254721590Y-107061333D02*
X254769209Y-106966095D01*
X254769209Y-106966095D02*
X254816828Y-106918476D01*
X254816828Y-106918476D02*
X254912066Y-106870857D01*
X254912066Y-106870857D02*
X255007304Y-106870857D01*
X255007304Y-106870857D02*
X255102542Y-106918476D01*
X255102542Y-106918476D02*
X255150161Y-106966095D01*
X255150161Y-106966095D02*
X255197780Y-107061333D01*
X255197780Y-107061333D02*
X255197780Y-107156571D01*
X255197780Y-107156571D02*
X255150161Y-107251809D01*
X255150161Y-107251809D02*
X255102542Y-107299428D01*
X254721590Y-107299428D02*
X255102542Y-107299428D01*
X255102542Y-107299428D02*
X255150161Y-107347047D01*
X255150161Y-107347047D02*
X255150161Y-107394666D01*
X255150161Y-107394666D02*
X255102542Y-107489905D01*
X255102542Y-107489905D02*
X255007304Y-107537524D01*
X255007304Y-107537524D02*
X254769209Y-107537524D01*
X254769209Y-107537524D02*
X254626352Y-107442286D01*
X254626352Y-107442286D02*
X254531114Y-107299428D01*
X254531114Y-107299428D02*
X254483495Y-107108952D01*
X254483495Y-107108952D02*
X254531114Y-106918476D01*
X254531114Y-106918476D02*
X254626352Y-106775619D01*
X254626352Y-106775619D02*
X254769209Y-106680381D01*
X254769209Y-106680381D02*
X254959685Y-106632762D01*
X254959685Y-106632762D02*
X255150161Y-106680381D01*
X255150161Y-106680381D02*
X255293019Y-106775619D01*
X255293019Y-106775619D02*
X255388257Y-106918476D01*
X255388257Y-106918476D02*
X255435876Y-107108952D01*
X255435876Y-107108952D02*
X255388257Y-107299428D01*
X255388257Y-107299428D02*
X255293019Y-107442286D01*
X255293019Y-107966095D02*
X254626352Y-107966095D01*
X254293019Y-107966095D02*
X254340638Y-107918476D01*
X254340638Y-107918476D02*
X254388257Y-107966095D01*
X254388257Y-107966095D02*
X254340638Y-108013714D01*
X254340638Y-108013714D02*
X254293019Y-107966095D01*
X254293019Y-107966095D02*
X254388257Y-107966095D01*
X255245400Y-108394666D02*
X255293019Y-108489904D01*
X255293019Y-108489904D02*
X255293019Y-108680380D01*
X255293019Y-108680380D02*
X255245400Y-108775618D01*
X255245400Y-108775618D02*
X255150161Y-108823237D01*
X255150161Y-108823237D02*
X255102542Y-108823237D01*
X255102542Y-108823237D02*
X255007304Y-108775618D01*
X255007304Y-108775618D02*
X254959685Y-108680380D01*
X254959685Y-108680380D02*
X254959685Y-108537523D01*
X254959685Y-108537523D02*
X254912066Y-108442285D01*
X254912066Y-108442285D02*
X254816828Y-108394666D01*
X254816828Y-108394666D02*
X254769209Y-108394666D01*
X254769209Y-108394666D02*
X254673971Y-108442285D01*
X254673971Y-108442285D02*
X254626352Y-108537523D01*
X254626352Y-108537523D02*
X254626352Y-108680380D01*
X254626352Y-108680380D02*
X254673971Y-108775618D01*
X255293019Y-109251809D02*
X254626352Y-109251809D01*
X254293019Y-109251809D02*
X254340638Y-109204190D01*
X254340638Y-109204190D02*
X254388257Y-109251809D01*
X254388257Y-109251809D02*
X254340638Y-109299428D01*
X254340638Y-109299428D02*
X254293019Y-109251809D01*
X254293019Y-109251809D02*
X254388257Y-109251809D01*
X255293019Y-109870856D02*
X255245400Y-109775618D01*
X255245400Y-109775618D02*
X255197780Y-109727999D01*
X255197780Y-109727999D02*
X255102542Y-109680380D01*
X255102542Y-109680380D02*
X254816828Y-109680380D01*
X254816828Y-109680380D02*
X254721590Y-109727999D01*
X254721590Y-109727999D02*
X254673971Y-109775618D01*
X254673971Y-109775618D02*
X254626352Y-109870856D01*
X254626352Y-109870856D02*
X254626352Y-110013713D01*
X254626352Y-110013713D02*
X254673971Y-110108951D01*
X254673971Y-110108951D02*
X254721590Y-110156570D01*
X254721590Y-110156570D02*
X254816828Y-110204189D01*
X254816828Y-110204189D02*
X255102542Y-110204189D01*
X255102542Y-110204189D02*
X255197780Y-110156570D01*
X255197780Y-110156570D02*
X255245400Y-110108951D01*
X255245400Y-110108951D02*
X255293019Y-110013713D01*
X255293019Y-110013713D02*
X255293019Y-109870856D01*
X254626352Y-110537523D02*
X255293019Y-110775618D01*
X255293019Y-110775618D02*
X254626352Y-111013713D01*
X255293019Y-111394666D02*
X254626352Y-111394666D01*
X254293019Y-111394666D02*
X254340638Y-111347047D01*
X254340638Y-111347047D02*
X254388257Y-111394666D01*
X254388257Y-111394666D02*
X254340638Y-111442285D01*
X254340638Y-111442285D02*
X254293019Y-111394666D01*
X254293019Y-111394666D02*
X254388257Y-111394666D01*
X255245400Y-112251808D02*
X255293019Y-112156570D01*
X255293019Y-112156570D02*
X255293019Y-111966094D01*
X255293019Y-111966094D02*
X255245400Y-111870856D01*
X255245400Y-111870856D02*
X255150161Y-111823237D01*
X255150161Y-111823237D02*
X254769209Y-111823237D01*
X254769209Y-111823237D02*
X254673971Y-111870856D01*
X254673971Y-111870856D02*
X254626352Y-111966094D01*
X254626352Y-111966094D02*
X254626352Y-112156570D01*
X254626352Y-112156570D02*
X254673971Y-112251808D01*
X254673971Y-112251808D02*
X254769209Y-112299427D01*
X254769209Y-112299427D02*
X254864447Y-112299427D01*
X254864447Y-112299427D02*
X254959685Y-111823237D01*
X255293019Y-112870856D02*
X255245400Y-112775618D01*
X255245400Y-112775618D02*
X255150161Y-112727999D01*
X255150161Y-112727999D02*
X254293019Y-112727999D01*
D10*
D11*
X215316600Y-102966095D02*
X215364219Y-103061333D01*
X215364219Y-103061333D02*
X215364219Y-103251809D01*
X215364219Y-103251809D02*
X215316600Y-103347047D01*
X215316600Y-103347047D02*
X215221361Y-103394666D01*
X215221361Y-103394666D02*
X215173742Y-103394666D01*
X215173742Y-103394666D02*
X215078504Y-103347047D01*
X215078504Y-103347047D02*
X215030885Y-103251809D01*
X215030885Y-103251809D02*
X215030885Y-103108952D01*
X215030885Y-103108952D02*
X214983266Y-103013714D01*
X214983266Y-103013714D02*
X214888028Y-102966095D01*
X214888028Y-102966095D02*
X214840409Y-102966095D01*
X214840409Y-102966095D02*
X214745171Y-103013714D01*
X214745171Y-103013714D02*
X214697552Y-103108952D01*
X214697552Y-103108952D02*
X214697552Y-103251809D01*
X214697552Y-103251809D02*
X214745171Y-103347047D01*
X215316600Y-104251809D02*
X215364219Y-104156571D01*
X215364219Y-104156571D02*
X215364219Y-103966095D01*
X215364219Y-103966095D02*
X215316600Y-103870857D01*
X215316600Y-103870857D02*
X215268980Y-103823238D01*
X215268980Y-103823238D02*
X215173742Y-103775619D01*
X215173742Y-103775619D02*
X214888028Y-103775619D01*
X214888028Y-103775619D02*
X214792790Y-103823238D01*
X214792790Y-103823238D02*
X214745171Y-103870857D01*
X214745171Y-103870857D02*
X214697552Y-103966095D01*
X214697552Y-103966095D02*
X214697552Y-104156571D01*
X214697552Y-104156571D02*
X214745171Y-104251809D01*
X215364219Y-104680381D02*
X214697552Y-104680381D01*
X214364219Y-104680381D02*
X214411838Y-104632762D01*
X214411838Y-104632762D02*
X214459457Y-104680381D01*
X214459457Y-104680381D02*
X214411838Y-104728000D01*
X214411838Y-104728000D02*
X214364219Y-104680381D01*
X214364219Y-104680381D02*
X214459457Y-104680381D01*
X215316600Y-105537523D02*
X215364219Y-105442285D01*
X215364219Y-105442285D02*
X215364219Y-105251809D01*
X215364219Y-105251809D02*
X215316600Y-105156571D01*
X215316600Y-105156571D02*
X215221361Y-105108952D01*
X215221361Y-105108952D02*
X214840409Y-105108952D01*
X214840409Y-105108952D02*
X214745171Y-105156571D01*
X214745171Y-105156571D02*
X214697552Y-105251809D01*
X214697552Y-105251809D02*
X214697552Y-105442285D01*
X214697552Y-105442285D02*
X214745171Y-105537523D01*
X214745171Y-105537523D02*
X214840409Y-105585142D01*
X214840409Y-105585142D02*
X214935647Y-105585142D01*
X214935647Y-105585142D02*
X215030885Y-105108952D01*
X214697552Y-106013714D02*
X215364219Y-106013714D01*
X214792790Y-106013714D02*
X214745171Y-106061333D01*
X214745171Y-106061333D02*
X214697552Y-106156571D01*
X214697552Y-106156571D02*
X214697552Y-106299428D01*
X214697552Y-106299428D02*
X214745171Y-106394666D01*
X214745171Y-106394666D02*
X214840409Y-106442285D01*
X214840409Y-106442285D02*
X215364219Y-106442285D01*
X215316600Y-107347047D02*
X215364219Y-107251809D01*
X215364219Y-107251809D02*
X215364219Y-107061333D01*
X215364219Y-107061333D02*
X215316600Y-106966095D01*
X215316600Y-106966095D02*
X215268980Y-106918476D01*
X215268980Y-106918476D02*
X215173742Y-106870857D01*
X215173742Y-106870857D02*
X214888028Y-106870857D01*
X214888028Y-106870857D02*
X214792790Y-106918476D01*
X214792790Y-106918476D02*
X214745171Y-106966095D01*
X214745171Y-106966095D02*
X214697552Y-107061333D01*
X214697552Y-107061333D02*
X214697552Y-107251809D01*
X214697552Y-107251809D02*
X214745171Y-107347047D01*
X215316600Y-108156571D02*
X215364219Y-108061333D01*
X215364219Y-108061333D02*
X215364219Y-107870857D01*
X215364219Y-107870857D02*
X215316600Y-107775619D01*
X215316600Y-107775619D02*
X215221361Y-107728000D01*
X215221361Y-107728000D02*
X214840409Y-107728000D01*
X214840409Y-107728000D02*
X214745171Y-107775619D01*
X214745171Y-107775619D02*
X214697552Y-107870857D01*
X214697552Y-107870857D02*
X214697552Y-108061333D01*
X214697552Y-108061333D02*
X214745171Y-108156571D01*
X214745171Y-108156571D02*
X214840409Y-108204190D01*
X214840409Y-108204190D02*
X214935647Y-108204190D01*
X214935647Y-108204190D02*
X215030885Y-107728000D01*
X215364219Y-108775619D02*
X215316600Y-108680381D01*
X215316600Y-108680381D02*
X215268980Y-108632762D01*
X215268980Y-108632762D02*
X215173742Y-108585143D01*
X215173742Y-108585143D02*
X214888028Y-108585143D01*
X214888028Y-108585143D02*
X214792790Y-108632762D01*
X214792790Y-108632762D02*
X214745171Y-108680381D01*
X214745171Y-108680381D02*
X214697552Y-108775619D01*
X214697552Y-108775619D02*
X214697552Y-108918476D01*
X214697552Y-108918476D02*
X214745171Y-109013714D01*
X214745171Y-109013714D02*
X214792790Y-109061333D01*
X214792790Y-109061333D02*
X214888028Y-109108952D01*
X214888028Y-109108952D02*
X215173742Y-109108952D01*
X215173742Y-109108952D02*
X215268980Y-109061333D01*
X215268980Y-109061333D02*
X215316600Y-109013714D01*
X215316600Y-109013714D02*
X215364219Y-108918476D01*
X215364219Y-108918476D02*
X215364219Y-108775619D01*
X215364219Y-109442286D02*
X214697552Y-109966095D01*
X214697552Y-109442286D02*
X215364219Y-109966095D01*
X214697552Y-110204191D02*
X214697552Y-110585143D01*
X215364219Y-110347048D02*
X214507076Y-110347048D01*
X214507076Y-110347048D02*
X214411838Y-110394667D01*
X214411838Y-110394667D02*
X214364219Y-110489905D01*
X214364219Y-110489905D02*
X214364219Y-110585143D01*
X215364219Y-111061334D02*
X215316600Y-110966096D01*
X215316600Y-110966096D02*
X215268980Y-110918477D01*
X215268980Y-110918477D02*
X215173742Y-110870858D01*
X215173742Y-110870858D02*
X214888028Y-110870858D01*
X214888028Y-110870858D02*
X214792790Y-110918477D01*
X214792790Y-110918477D02*
X214745171Y-110966096D01*
X214745171Y-110966096D02*
X214697552Y-111061334D01*
X214697552Y-111061334D02*
X214697552Y-111204191D01*
X214697552Y-111204191D02*
X214745171Y-111299429D01*
X214745171Y-111299429D02*
X214792790Y-111347048D01*
X214792790Y-111347048D02*
X214888028Y-111394667D01*
X214888028Y-111394667D02*
X215173742Y-111394667D01*
X215173742Y-111394667D02*
X215268980Y-111347048D01*
X215268980Y-111347048D02*
X215316600Y-111299429D01*
X215316600Y-111299429D02*
X215364219Y-111204191D01*
X215364219Y-111204191D02*
X215364219Y-111061334D01*
X215364219Y-111823239D02*
X214697552Y-111823239D01*
X214888028Y-111823239D02*
X214792790Y-111870858D01*
X214792790Y-111870858D02*
X214745171Y-111918477D01*
X214745171Y-111918477D02*
X214697552Y-112013715D01*
X214697552Y-112013715D02*
X214697552Y-112108953D01*
X215364219Y-112870858D02*
X214364219Y-112870858D01*
X215316600Y-112870858D02*
X215364219Y-112775620D01*
X215364219Y-112775620D02*
X215364219Y-112585144D01*
X215364219Y-112585144D02*
X215316600Y-112489906D01*
X215316600Y-112489906D02*
X215268980Y-112442287D01*
X215268980Y-112442287D02*
X215173742Y-112394668D01*
X215173742Y-112394668D02*
X214888028Y-112394668D01*
X214888028Y-112394668D02*
X214792790Y-112442287D01*
X214792790Y-112442287D02*
X214745171Y-112489906D01*
X214745171Y-112489906D02*
X214697552Y-112585144D01*
X214697552Y-112585144D02*
X214697552Y-112775620D01*
X214697552Y-112775620D02*
X214745171Y-112870858D01*
X215268980Y-113347049D02*
X215316600Y-113394668D01*
X215316600Y-113394668D02*
X215364219Y-113347049D01*
X215364219Y-113347049D02*
X215316600Y-113299430D01*
X215316600Y-113299430D02*
X215268980Y-113347049D01*
X215268980Y-113347049D02*
X215364219Y-113347049D01*
X215316600Y-114251810D02*
X215364219Y-114156572D01*
X215364219Y-114156572D02*
X215364219Y-113966096D01*
X215364219Y-113966096D02*
X215316600Y-113870858D01*
X215316600Y-113870858D02*
X215268980Y-113823239D01*
X215268980Y-113823239D02*
X215173742Y-113775620D01*
X215173742Y-113775620D02*
X214888028Y-113775620D01*
X214888028Y-113775620D02*
X214792790Y-113823239D01*
X214792790Y-113823239D02*
X214745171Y-113870858D01*
X214745171Y-113870858D02*
X214697552Y-113966096D01*
X214697552Y-113966096D02*
X214697552Y-114156572D01*
X214697552Y-114156572D02*
X214745171Y-114251810D01*
X215364219Y-114823239D02*
X215316600Y-114728001D01*
X215316600Y-114728001D02*
X215268980Y-114680382D01*
X215268980Y-114680382D02*
X215173742Y-114632763D01*
X215173742Y-114632763D02*
X214888028Y-114632763D01*
X214888028Y-114632763D02*
X214792790Y-114680382D01*
X214792790Y-114680382D02*
X214745171Y-114728001D01*
X214745171Y-114728001D02*
X214697552Y-114823239D01*
X214697552Y-114823239D02*
X214697552Y-114966096D01*
X214697552Y-114966096D02*
X214745171Y-115061334D01*
X214745171Y-115061334D02*
X214792790Y-115108953D01*
X214792790Y-115108953D02*
X214888028Y-115156572D01*
X214888028Y-115156572D02*
X215173742Y-115156572D01*
X215173742Y-115156572D02*
X215268980Y-115108953D01*
X215268980Y-115108953D02*
X215316600Y-115061334D01*
X215316600Y-115061334D02*
X215364219Y-114966096D01*
X215364219Y-114966096D02*
X215364219Y-114823239D01*
X215364219Y-115585144D02*
X214697552Y-115585144D01*
X214792790Y-115585144D02*
X214745171Y-115632763D01*
X214745171Y-115632763D02*
X214697552Y-115728001D01*
X214697552Y-115728001D02*
X214697552Y-115870858D01*
X214697552Y-115870858D02*
X214745171Y-115966096D01*
X214745171Y-115966096D02*
X214840409Y-116013715D01*
X214840409Y-116013715D02*
X215364219Y-116013715D01*
X214840409Y-116013715D02*
X214745171Y-116061334D01*
X214745171Y-116061334D02*
X214697552Y-116156572D01*
X214697552Y-116156572D02*
X214697552Y-116299429D01*
X214697552Y-116299429D02*
X214745171Y-116394668D01*
X214745171Y-116394668D02*
X214840409Y-116442287D01*
X214840409Y-116442287D02*
X215364219Y-116442287D01*
D12*
%TO.P,D2,1*%
%TO.N,GND*%
X247142000Y-98145600D03*
D13*
%TO.P,D2,2*%
%TO.N,Net-(D1-Pad2)*%
X249682000Y-98145600D03*
%TD*%
D12*
%TO.P,D1,1*%
%TO.N,GND*%
X220294200Y-98221800D03*
D13*
%TO.P,D1,2*%
%TO.N,Net-(D2-Pad2)*%
X222834200Y-98221800D03*
%TD*%
D14*
%TO.P,R2,1*%
%TO.N,Net-(R1-Pad1)*%
X250215400Y-124510800D03*
D15*
%TO.P,R2,2*%
%TO.N,Net-(D1-Pad2)*%
X250215400Y-116890800D03*
%TD*%
D14*
%TO.P,R1,1*%
%TO.N,Net-(R1-Pad1)*%
X219506800Y-124663200D03*
D15*
%TO.P,R1,2*%
%TO.N,Net-(D2-Pad2)*%
X219506800Y-117043200D03*
%TD*%
D16*
%TO.P,CR2032,1*%
%TO.N,Net-(BAT1-Pad1)*%
X245699200Y-109651800D03*
%TO.P,CR2032,2*%
X224099200Y-109651800D03*
D17*
%TO.P,CR2032,3*%
%TO.N,GND*%
X234899200Y-108381800D03*
%TD*%
D18*
%TO.P,switch,1*%
%TO.N,Net-(BAT1-Pad1)*%
X232460800Y-124587000D03*
%TO.P,switch,2*%
%TO.N,Net-(R1-Pad1)*%
X235000800Y-124587000D03*
%TO.P,switch,3*%
%TO.N,N/C*%
X237540800Y-124587000D03*
%TD*%
D19*
%TO.N,Net-(BAT1-Pad1)*%
X224099200Y-111651800D02*
X224104200Y-111656800D01*
X245694200Y-111656800D02*
X245694200Y-116001800D01*
X224104200Y-116230400D02*
X232460800Y-124587000D01*
X224099200Y-109651800D02*
X224099200Y-111651800D01*
X245699200Y-111651800D02*
X245694200Y-111656800D01*
X245699200Y-109651800D02*
X245699200Y-111651800D01*
X245694200Y-116001800D02*
X239420400Y-122275600D01*
X239420400Y-122275600D02*
X234772200Y-122275600D01*
X224104200Y-111656800D02*
X224104200Y-116230400D01*
X234772200Y-122275600D02*
X232460800Y-124587000D01*
%TO.N,Net-(D1-Pad2)*%
X250215400Y-116890800D02*
X250215400Y-98679000D01*
X250215400Y-98679000D02*
X249682000Y-98145600D01*
%TO.N,Net-(D2-Pad2)*%
X219506800Y-105029000D02*
X222834200Y-101701600D01*
X222834200Y-101701600D02*
X222834200Y-98221800D01*
X219506800Y-117043200D02*
X219506800Y-105029000D01*
%TO.N,Net-(R1-Pad1)*%
X240538000Y-128600200D02*
X244627400Y-124510800D01*
X244627400Y-124510800D02*
X250215400Y-124510800D01*
X229336600Y-128498600D02*
X231089200Y-128498600D01*
X231089200Y-128498600D02*
X235000800Y-124587000D01*
X235000800Y-124587000D02*
X239014000Y-128600200D01*
X225501200Y-124663200D02*
X229336600Y-128498600D01*
X219506800Y-124663200D02*
X225501200Y-124663200D01*
X239014000Y-128600200D02*
X240538000Y-128600200D01*
%TD*%
%TA.AperFunction,Conductor*%
%TO.N,GND*%
G36*
X235374548Y-78133546D02*
G01*
X235386997Y-78134806D01*
X235759592Y-78191345D01*
X235771415Y-78193139D01*
X235784009Y-78195713D01*
X236155019Y-78291502D01*
X236166760Y-78295153D01*
X236297954Y-78343104D01*
X236522594Y-78425209D01*
X236534015Y-78430033D01*
X236872400Y-78593013D01*
X236883218Y-78598891D01*
X237085705Y-78722093D01*
X237202522Y-78793169D01*
X237212380Y-78799824D01*
X237510400Y-79022193D01*
X237519862Y-79029998D01*
X237794664Y-79280122D01*
X237803028Y-79288486D01*
X238053181Y-79563319D01*
X238060951Y-79572734D01*
X238283910Y-79871255D01*
X238290609Y-79881174D01*
X238484870Y-80200544D01*
X238490739Y-80211348D01*
X238653731Y-80549759D01*
X238658543Y-80561147D01*
X238788447Y-80916256D01*
X238792163Y-80928230D01*
X238887502Y-81299829D01*
X238890002Y-81312065D01*
X238948809Y-81695993D01*
X238950105Y-81708777D01*
X238969921Y-82105066D01*
X238969927Y-82117518D01*
X238951184Y-82500480D01*
X238949945Y-82512987D01*
X238893615Y-82889033D01*
X238891228Y-82900986D01*
X238799223Y-83268245D01*
X238795618Y-83280120D01*
X238668176Y-83635867D01*
X238663442Y-83647284D01*
X238501812Y-83988717D01*
X238496056Y-83999492D01*
X238301818Y-84324176D01*
X238294937Y-84334490D01*
X238068701Y-84639899D01*
X238060826Y-84649501D01*
X237919404Y-84805583D01*
X237900667Y-84822496D01*
X237899974Y-84823007D01*
X237898126Y-84824365D01*
X237895831Y-84828158D01*
X237895183Y-84829026D01*
X237894918Y-84830079D01*
X237893425Y-84834252D01*
X237893581Y-84837410D01*
X237892292Y-84862598D01*
X237891816Y-84865720D01*
X237891816Y-84865723D01*
X237892870Y-84870008D01*
X237893029Y-84871099D01*
X237893595Y-84872047D01*
X237895483Y-84876038D01*
X237897815Y-84878151D01*
X237914731Y-84896892D01*
X237916593Y-84899425D01*
X237916595Y-84899427D01*
X237916596Y-84899427D01*
X237920367Y-84901709D01*
X237921258Y-84902372D01*
X237922340Y-84902646D01*
X237926484Y-84904127D01*
X237926487Y-84904130D01*
X237929629Y-84903975D01*
X237954838Y-84905264D01*
X240003838Y-85218049D01*
X240016169Y-85220568D01*
X242399539Y-85833191D01*
X242411454Y-85836892D01*
X244370105Y-86553654D01*
X244696793Y-86673205D01*
X244708189Y-86678022D01*
X246882649Y-87725834D01*
X246893387Y-87731666D01*
X248811607Y-88897364D01*
X248944340Y-88978025D01*
X248954338Y-88984777D01*
X250868863Y-90415831D01*
X250868891Y-90415852D01*
X250878196Y-90423529D01*
X252644407Y-92028679D01*
X252652883Y-92037152D01*
X254219551Y-93759955D01*
X254259001Y-93803336D01*
X254266721Y-93812692D01*
X255672246Y-95694039D01*
X255697788Y-95728227D01*
X255704518Y-95738195D01*
X255926418Y-96103295D01*
X256950386Y-97788066D01*
X256956218Y-97798801D01*
X258004528Y-99973859D01*
X258009351Y-99985268D01*
X258843611Y-102265259D01*
X258845158Y-102269485D01*
X258848865Y-102281424D01*
X259457854Y-104651647D01*
X259461481Y-104665761D01*
X259464004Y-104678113D01*
X259840623Y-107146749D01*
X259841905Y-107159431D01*
X259969717Y-109703840D01*
X259969724Y-109716338D01*
X259849084Y-112174120D01*
X259847850Y-112186577D01*
X259486621Y-114602281D01*
X259484217Y-114614317D01*
X258892117Y-116973681D01*
X258888533Y-116985482D01*
X258070673Y-119269870D01*
X258065936Y-119281299D01*
X257027789Y-121474864D01*
X257022078Y-121485566D01*
X255775248Y-123573413D01*
X255768288Y-123583850D01*
X254313679Y-125545934D01*
X254305861Y-125555467D01*
X252653529Y-127380283D01*
X252644719Y-127389095D01*
X250819568Y-129042366D01*
X250809933Y-129050263D01*
X248845718Y-130503913D01*
X248835426Y-130510774D01*
X246748536Y-131758617D01*
X246737747Y-131764377D01*
X244545238Y-132801404D01*
X244533810Y-132806137D01*
X242247835Y-133624031D01*
X242236172Y-133627578D01*
X239877853Y-134221751D01*
X239865593Y-134224200D01*
X237448408Y-134583441D01*
X237436162Y-134584654D01*
X234977665Y-134707286D01*
X234965109Y-134707285D01*
X232507234Y-134584654D01*
X232494979Y-134583440D01*
X230079272Y-134224196D01*
X230067047Y-134221755D01*
X227706751Y-133627586D01*
X227695021Y-133624018D01*
X225411648Y-132806129D01*
X225400273Y-132801415D01*
X223207222Y-131764368D01*
X223196459Y-131758626D01*
X221261103Y-130602272D01*
X221107988Y-130510787D01*
X221097637Y-130503887D01*
X219134564Y-129050273D01*
X219124931Y-129042373D01*
X218587483Y-128555273D01*
X217300736Y-127389069D01*
X217291990Y-127380322D01*
X216106425Y-126071786D01*
X215638661Y-125555503D01*
X215630793Y-125545909D01*
X214976834Y-124663200D01*
X218193302Y-124663200D01*
X218213257Y-124891287D01*
X218231680Y-124960043D01*
X218272515Y-125112440D01*
X218272517Y-125112446D01*
X218296698Y-125164302D01*
X218369277Y-125319949D01*
X218500602Y-125507500D01*
X218662500Y-125669398D01*
X218850051Y-125800723D01*
X219057557Y-125897484D01*
X219278713Y-125956743D01*
X219506800Y-125976698D01*
X219734887Y-125956743D01*
X219956043Y-125897484D01*
X220163549Y-125800723D01*
X220351100Y-125669398D01*
X220512998Y-125507500D01*
X220622981Y-125350429D01*
X220678438Y-125306101D01*
X220726194Y-125296700D01*
X225186606Y-125296700D01*
X225254727Y-125316702D01*
X225275701Y-125333605D01*
X228932761Y-128990667D01*
X228932766Y-128990671D01*
X228932767Y-128990672D01*
X229036525Y-129060001D01*
X229118047Y-129093768D01*
X229151815Y-129107755D01*
X229274206Y-129132100D01*
X229274207Y-129132100D01*
X231151593Y-129132100D01*
X231151594Y-129132100D01*
X231273985Y-129107755D01*
X231389275Y-129060000D01*
X231493033Y-128990671D01*
X234618580Y-125865123D01*
X234680890Y-125831099D01*
X234740280Y-125832512D01*
X234779337Y-125842978D01*
X235000800Y-125862353D01*
X235222263Y-125842978D01*
X235261313Y-125832514D01*
X235332286Y-125834201D01*
X235383020Y-125865124D01*
X238521929Y-129004033D01*
X238610167Y-129092271D01*
X238713925Y-129161600D01*
X238829215Y-129209355D01*
X238951606Y-129233700D01*
X238951607Y-129233700D01*
X240600393Y-129233700D01*
X240600394Y-129233700D01*
X240722785Y-129209355D01*
X240838075Y-129161600D01*
X240941833Y-129092271D01*
X244852899Y-125181205D01*
X244915211Y-125147179D01*
X244941994Y-125144300D01*
X248996006Y-125144300D01*
X249064127Y-125164302D01*
X249099219Y-125198029D01*
X249174892Y-125306101D01*
X249209202Y-125355100D01*
X249371100Y-125516998D01*
X249558651Y-125648323D01*
X249766157Y-125745084D01*
X249987313Y-125804343D01*
X250215400Y-125824298D01*
X250443487Y-125804343D01*
X250664643Y-125745084D01*
X250872149Y-125648323D01*
X251059700Y-125516998D01*
X251221598Y-125355100D01*
X251352923Y-125167549D01*
X251449684Y-124960043D01*
X251508943Y-124738887D01*
X251528898Y-124510800D01*
X251508943Y-124282713D01*
X251449684Y-124061557D01*
X251352923Y-123854051D01*
X251221598Y-123666500D01*
X251059700Y-123504602D01*
X251028152Y-123482512D01*
X250872149Y-123373277D01*
X250664646Y-123276517D01*
X250664640Y-123276515D01*
X250571171Y-123251470D01*
X250443487Y-123217257D01*
X250215400Y-123197302D01*
X249987313Y-123217257D01*
X249766159Y-123276515D01*
X249766153Y-123276517D01*
X249558650Y-123373277D01*
X249371103Y-123504599D01*
X249371097Y-123504604D01*
X249209204Y-123666497D01*
X249209199Y-123666503D01*
X249099219Y-123823571D01*
X249043762Y-123867899D01*
X248996006Y-123877300D01*
X244565003Y-123877300D01*
X244491968Y-123891828D01*
X244442615Y-123901645D01*
X244442613Y-123901645D01*
X244442612Y-123901646D01*
X244375075Y-123929621D01*
X244327509Y-123949324D01*
X244327323Y-123949401D01*
X244223571Y-124018726D01*
X244223564Y-124018731D01*
X240312501Y-127929795D01*
X240250189Y-127963821D01*
X240223406Y-127966700D01*
X239328594Y-127966700D01*
X239260473Y-127946698D01*
X239239499Y-127929795D01*
X237381490Y-126071786D01*
X237347464Y-126009474D01*
X237352529Y-125938659D01*
X237395076Y-125881823D01*
X237461596Y-125857012D01*
X237481567Y-125857171D01*
X237540794Y-125862353D01*
X237540796Y-125862352D01*
X237540800Y-125862353D01*
X237762263Y-125842978D01*
X237976996Y-125785440D01*
X238178477Y-125691488D01*
X238360581Y-125563977D01*
X238517777Y-125406781D01*
X238645288Y-125224677D01*
X238739240Y-125023196D01*
X238796778Y-124808463D01*
X238816153Y-124587000D01*
X238796778Y-124365537D01*
X238739240Y-124150804D01*
X238645288Y-123949324D01*
X238517777Y-123767219D01*
X238360581Y-123610023D01*
X238360577Y-123610020D01*
X238360572Y-123610016D01*
X238178477Y-123482512D01*
X238178475Y-123482511D01*
X237976999Y-123388561D01*
X237976993Y-123388559D01*
X237934874Y-123377273D01*
X237762263Y-123331022D01*
X237540800Y-123311647D01*
X237319337Y-123331022D01*
X237210019Y-123360314D01*
X237104606Y-123388559D01*
X237104601Y-123388561D01*
X236903123Y-123482512D01*
X236721022Y-123610020D01*
X236721016Y-123610025D01*
X236563825Y-123767216D01*
X236563820Y-123767222D01*
X236436312Y-123949323D01*
X236384995Y-124059373D01*
X236338077Y-124112658D01*
X236269800Y-124132119D01*
X236201840Y-124111577D01*
X236156605Y-124059373D01*
X236131926Y-124006450D01*
X236105288Y-123949324D01*
X235977777Y-123767219D01*
X235820581Y-123610023D01*
X235820577Y-123610020D01*
X235820572Y-123610016D01*
X235638477Y-123482512D01*
X235638475Y-123482511D01*
X235436999Y-123388561D01*
X235436993Y-123388559D01*
X235394874Y-123377273D01*
X235222263Y-123331022D01*
X235000800Y-123311647D01*
X235000799Y-123311647D01*
X234941566Y-123316829D01*
X234871962Y-123302839D01*
X234820970Y-123253439D01*
X234804780Y-123184313D01*
X234828533Y-123117408D01*
X234841487Y-123102216D01*
X234997700Y-122946004D01*
X235060012Y-122911979D01*
X235086795Y-122909100D01*
X239482793Y-122909100D01*
X239482794Y-122909100D01*
X239605185Y-122884755D01*
X239720475Y-122837000D01*
X239824233Y-122767671D01*
X246186271Y-116405633D01*
X246255600Y-116301875D01*
X246303355Y-116186585D01*
X246327700Y-116064194D01*
X246327700Y-115939406D01*
X246327700Y-111851805D01*
X246347702Y-111783684D01*
X246396498Y-111739538D01*
X246489823Y-111691987D01*
X246489822Y-111691987D01*
X246489827Y-111691985D01*
X246681922Y-111552420D01*
X246849820Y-111384522D01*
X246989385Y-111192427D01*
X247097182Y-110980863D01*
X247170556Y-110755041D01*
X247207700Y-110520522D01*
X247207700Y-108783078D01*
X247170556Y-108548559D01*
X247097182Y-108322737D01*
X246989385Y-108111173D01*
X246849820Y-107919078D01*
X246849817Y-107919075D01*
X246849815Y-107919072D01*
X246681927Y-107751184D01*
X246681924Y-107751182D01*
X246681922Y-107751180D01*
X246489827Y-107611615D01*
X246278263Y-107503818D01*
X246278260Y-107503817D01*
X246278258Y-107503816D01*
X246052446Y-107430445D01*
X246052442Y-107430444D01*
X246052441Y-107430444D01*
X245817922Y-107393300D01*
X245580478Y-107393300D01*
X245345959Y-107430444D01*
X245345953Y-107430445D01*
X245120141Y-107503816D01*
X245120135Y-107503819D01*
X244908569Y-107611617D01*
X244716475Y-107751182D01*
X244716472Y-107751184D01*
X244548584Y-107919072D01*
X244548582Y-107919075D01*
X244409017Y-108111169D01*
X244301219Y-108322735D01*
X244301216Y-108322741D01*
X244227845Y-108548553D01*
X244227844Y-108548558D01*
X244227844Y-108548559D01*
X244190700Y-108783078D01*
X244190700Y-110520522D01*
X244227844Y-110755041D01*
X244227845Y-110755046D01*
X244242020Y-110798671D01*
X244301218Y-110980863D01*
X244409015Y-111192427D01*
X244548580Y-111384522D01*
X244548582Y-111384524D01*
X244548584Y-111384527D01*
X244716472Y-111552415D01*
X244716475Y-111552417D01*
X244716478Y-111552420D01*
X244840225Y-111642327D01*
X244908571Y-111691984D01*
X244908573Y-111691985D01*
X244991904Y-111734444D01*
X245043517Y-111783189D01*
X245060700Y-111846709D01*
X245060700Y-115687206D01*
X245040698Y-115755327D01*
X245023795Y-115776301D01*
X239194901Y-121605195D01*
X239132589Y-121639221D01*
X239105806Y-121642100D01*
X234709803Y-121642100D01*
X234636768Y-121656628D01*
X234587415Y-121666445D01*
X234587413Y-121666445D01*
X234587412Y-121666446D01*
X234472123Y-121714201D01*
X234368371Y-121783526D01*
X234368369Y-121783527D01*
X232843020Y-123308875D01*
X232780708Y-123342900D01*
X232721315Y-123341486D01*
X232682263Y-123331022D01*
X232460800Y-123311647D01*
X232239336Y-123331022D01*
X232239331Y-123331023D01*
X232200281Y-123341486D01*
X232129305Y-123339795D01*
X232078578Y-123308874D01*
X224774605Y-116004901D01*
X224740579Y-115942589D01*
X224737700Y-115915806D01*
X224737700Y-111846709D01*
X224757702Y-111778588D01*
X224806495Y-111734444D01*
X224889827Y-111691985D01*
X225081922Y-111552420D01*
X225249820Y-111384522D01*
X225389385Y-111192427D01*
X225497182Y-110980863D01*
X225570556Y-110755041D01*
X225582316Y-110680792D01*
X232959415Y-110680792D01*
X232959416Y-110680793D01*
X233099896Y-110798671D01*
X233392649Y-110991217D01*
X233705777Y-111148476D01*
X233705782Y-111148478D01*
X234035025Y-111268313D01*
X234035030Y-111268314D01*
X234375979Y-111349121D01*
X234375985Y-111349122D01*
X234724001Y-111389800D01*
X235074399Y-111389800D01*
X235422414Y-111349122D01*
X235422420Y-111349121D01*
X235763369Y-111268314D01*
X235763374Y-111268313D01*
X236092617Y-111148478D01*
X236092622Y-111148476D01*
X236405750Y-110991217D01*
X236698499Y-110798674D01*
X236838983Y-110680792D01*
X234899201Y-108741010D01*
X234899199Y-108741010D01*
X232959415Y-110680792D01*
X225582316Y-110680792D01*
X225607700Y-110520522D01*
X225607700Y-108783078D01*
X225570556Y-108548559D01*
X225516373Y-108381800D01*
X231886102Y-108381800D01*
X231906474Y-108731588D01*
X231906474Y-108731594D01*
X231967320Y-109076668D01*
X232067815Y-109412341D01*
X232067817Y-109412347D01*
X232206595Y-109734073D01*
X232206598Y-109734078D01*
X232381786Y-110037512D01*
X232381796Y-110037528D01*
X232591036Y-110318585D01*
X232591040Y-110318590D01*
X232596941Y-110324845D01*
X232596944Y-110324845D01*
X234539990Y-108381800D01*
X234539990Y-108381799D01*
X234539989Y-108381798D01*
X235258410Y-108381798D01*
X235258410Y-108381801D01*
X237201455Y-110324846D01*
X237201456Y-110324845D01*
X237207364Y-110318585D01*
X237207366Y-110318582D01*
X237416595Y-110037539D01*
X237416613Y-110037512D01*
X237591801Y-109734078D01*
X237591804Y-109734073D01*
X237730582Y-109412347D01*
X237730584Y-109412341D01*
X237831079Y-109076668D01*
X237891925Y-108731594D01*
X237891925Y-108731588D01*
X237912297Y-108381800D01*
X237891925Y-108032011D01*
X237891925Y-108032005D01*
X237831079Y-107686931D01*
X237730584Y-107351258D01*
X237730582Y-107351252D01*
X237591804Y-107029526D01*
X237591801Y-107029521D01*
X237416613Y-106726087D01*
X237416603Y-106726071D01*
X237207365Y-106445016D01*
X237201455Y-106438752D01*
X235258410Y-108381798D01*
X234539989Y-108381798D01*
X232596944Y-106438753D01*
X232596943Y-106438753D01*
X232591031Y-106445020D01*
X232591027Y-106445024D01*
X232381804Y-106726060D01*
X232381786Y-106726087D01*
X232206598Y-107029521D01*
X232206595Y-107029526D01*
X232067817Y-107351252D01*
X232067815Y-107351258D01*
X231967320Y-107686931D01*
X231906474Y-108032005D01*
X231906474Y-108032011D01*
X231886102Y-108381800D01*
X225516373Y-108381800D01*
X225497182Y-108322737D01*
X225389385Y-108111173D01*
X225249820Y-107919078D01*
X225249817Y-107919075D01*
X225249815Y-107919072D01*
X225081927Y-107751184D01*
X225081924Y-107751182D01*
X225081922Y-107751180D01*
X224889827Y-107611615D01*
X224678263Y-107503818D01*
X224678260Y-107503817D01*
X224678258Y-107503816D01*
X224452446Y-107430445D01*
X224452442Y-107430444D01*
X224452441Y-107430444D01*
X224217922Y-107393300D01*
X223980478Y-107393300D01*
X223745959Y-107430444D01*
X223745953Y-107430445D01*
X223520141Y-107503816D01*
X223520135Y-107503819D01*
X223308569Y-107611617D01*
X223116475Y-107751182D01*
X223116472Y-107751184D01*
X222948584Y-107919072D01*
X222948582Y-107919075D01*
X222809017Y-108111169D01*
X222701219Y-108322735D01*
X222701216Y-108322741D01*
X222627845Y-108548553D01*
X222627844Y-108548558D01*
X222627844Y-108548559D01*
X222590700Y-108783078D01*
X222590700Y-110520522D01*
X222627844Y-110755041D01*
X222627845Y-110755046D01*
X222642020Y-110798671D01*
X222701218Y-110980863D01*
X222809015Y-111192427D01*
X222948580Y-111384522D01*
X222948582Y-111384524D01*
X222948584Y-111384527D01*
X223116472Y-111552415D01*
X223116475Y-111552417D01*
X223116478Y-111552420D01*
X223308572Y-111691984D01*
X223308576Y-111691987D01*
X223401902Y-111739538D01*
X223453518Y-111788285D01*
X223470700Y-111851805D01*
X223470700Y-116292796D01*
X223480385Y-116341486D01*
X223495045Y-116415185D01*
X223542800Y-116530475D01*
X223612129Y-116634233D01*
X223612131Y-116634235D01*
X231182674Y-124204778D01*
X231216700Y-124267090D01*
X231215286Y-124326481D01*
X231204823Y-124365531D01*
X231204822Y-124365536D01*
X231204822Y-124365537D01*
X231185447Y-124587000D01*
X231204822Y-124808463D01*
X231227015Y-124891286D01*
X231262359Y-125023193D01*
X231262361Y-125023199D01*
X231356311Y-125224675D01*
X231356312Y-125224677D01*
X231483816Y-125406772D01*
X231483820Y-125406777D01*
X231483823Y-125406781D01*
X231641019Y-125563977D01*
X231641023Y-125563980D01*
X231641027Y-125563983D01*
X231690340Y-125598512D01*
X231823123Y-125691488D01*
X232024604Y-125785440D01*
X232239337Y-125842978D01*
X232460800Y-125862353D01*
X232520029Y-125857171D01*
X232589634Y-125871159D01*
X232640627Y-125920558D01*
X232656818Y-125989684D01*
X232633066Y-126056589D01*
X232620108Y-126071786D01*
X230863699Y-127828196D01*
X230801389Y-127862220D01*
X230774606Y-127865100D01*
X229651195Y-127865100D01*
X229583074Y-127845098D01*
X229562100Y-127828195D01*
X225905035Y-124171131D01*
X225905033Y-124171129D01*
X225801275Y-124101800D01*
X225685985Y-124054045D01*
X225612286Y-124039385D01*
X225563596Y-124029700D01*
X225563594Y-124029700D01*
X220726194Y-124029700D01*
X220658073Y-124009698D01*
X220622981Y-123975971D01*
X220513000Y-123818903D01*
X220512995Y-123818897D01*
X220351102Y-123657004D01*
X220351096Y-123656999D01*
X220163549Y-123525677D01*
X219956046Y-123428917D01*
X219956040Y-123428915D01*
X219862571Y-123403870D01*
X219734887Y-123369657D01*
X219506800Y-123349702D01*
X219278713Y-123369657D01*
X219057559Y-123428915D01*
X219057553Y-123428917D01*
X218850050Y-123525677D01*
X218662503Y-123656999D01*
X218662497Y-123657004D01*
X218500604Y-123818897D01*
X218500599Y-123818903D01*
X218369277Y-124006450D01*
X218272517Y-124213953D01*
X218272515Y-124213959D01*
X218231900Y-124365536D01*
X218213257Y-124435113D01*
X218193302Y-124663200D01*
X214976834Y-124663200D01*
X214177167Y-123583814D01*
X214170257Y-123573452D01*
X214129103Y-123504599D01*
X212922340Y-121485614D01*
X212916584Y-121474827D01*
X211903987Y-119332996D01*
X211879541Y-119281289D01*
X211874828Y-119269910D01*
X211486171Y-118184342D01*
X211077619Y-117043200D01*
X218193302Y-117043200D01*
X218213257Y-117271287D01*
X218272516Y-117492443D01*
X218369277Y-117699949D01*
X218500602Y-117887500D01*
X218662500Y-118049398D01*
X218850051Y-118180723D01*
X219057557Y-118277484D01*
X219278713Y-118336743D01*
X219506800Y-118356698D01*
X219734887Y-118336743D01*
X219956043Y-118277484D01*
X220163549Y-118180723D01*
X220351100Y-118049398D01*
X220512998Y-117887500D01*
X220644323Y-117699949D01*
X220741084Y-117492443D01*
X220800343Y-117271287D01*
X220820298Y-117043200D01*
X220800343Y-116815113D01*
X220741084Y-116593957D01*
X220644323Y-116386451D01*
X220512998Y-116198900D01*
X220351100Y-116037002D01*
X220351096Y-116036999D01*
X220194029Y-115927019D01*
X220149701Y-115871562D01*
X220140300Y-115823806D01*
X220140300Y-106082805D01*
X232959415Y-106082805D01*
X234899199Y-108022590D01*
X234899201Y-108022590D01*
X236838983Y-106082806D01*
X236838983Y-106082805D01*
X236698498Y-105964925D01*
X236405750Y-105772382D01*
X236092622Y-105615123D01*
X236092617Y-105615121D01*
X235763374Y-105495286D01*
X235763369Y-105495285D01*
X235422420Y-105414478D01*
X235422414Y-105414477D01*
X235074399Y-105373800D01*
X234724001Y-105373800D01*
X234375985Y-105414477D01*
X234375979Y-105414478D01*
X234035030Y-105495285D01*
X234035025Y-105495286D01*
X233705782Y-105615121D01*
X233705777Y-105615123D01*
X233392649Y-105772382D01*
X233099901Y-105964925D01*
X232959415Y-106082805D01*
X220140300Y-106082805D01*
X220140300Y-105343594D01*
X220160302Y-105275473D01*
X220177205Y-105254499D01*
X220894775Y-104536929D01*
X223326271Y-102105433D01*
X223395600Y-102001675D01*
X223443355Y-101886385D01*
X223467700Y-101763994D01*
X223467700Y-101639206D01*
X223467700Y-99673365D01*
X223487702Y-99605244D01*
X223527862Y-99565934D01*
X223723616Y-99445976D01*
X223904169Y-99291769D01*
X224058376Y-99111216D01*
X224182440Y-98908763D01*
X224273305Y-98689394D01*
X224328735Y-98458511D01*
X224347365Y-98221800D01*
X224328735Y-97985089D01*
X224273305Y-97754206D01*
X224182440Y-97534837D01*
X224058376Y-97332384D01*
X224058373Y-97332380D01*
X223904169Y-97151830D01*
X223839974Y-97097002D01*
X245634000Y-97097002D01*
X245634000Y-97891600D01*
X246711297Y-97891600D01*
X246676075Y-97952607D01*
X246642000Y-98079774D01*
X246642000Y-98211426D01*
X246676075Y-98338593D01*
X246711297Y-98399600D01*
X245634000Y-98399600D01*
X245634000Y-99194197D01*
X245640505Y-99254693D01*
X245691555Y-99391564D01*
X245691555Y-99391565D01*
X245779095Y-99508504D01*
X245896034Y-99596044D01*
X246032906Y-99647094D01*
X246093402Y-99653599D01*
X246093415Y-99653600D01*
X246888000Y-99653600D01*
X246888000Y-98576302D01*
X246949007Y-98611525D01*
X247076174Y-98645600D01*
X247207826Y-98645600D01*
X247334993Y-98611525D01*
X247396000Y-98576302D01*
X247396000Y-99653600D01*
X248190585Y-99653600D01*
X248190597Y-99653599D01*
X248251093Y-99647094D01*
X248387964Y-99596044D01*
X248387965Y-99596044D01*
X248504904Y-99508504D01*
X248597847Y-99384348D01*
X248600137Y-99386062D01*
X248639984Y-99346186D01*
X248709352Y-99331070D01*
X248775881Y-99355856D01*
X248782229Y-99360932D01*
X248792584Y-99369776D01*
X248995037Y-99493840D01*
X249214406Y-99584705D01*
X249445289Y-99640135D01*
X249465785Y-99641748D01*
X249532125Y-99667031D01*
X249574266Y-99724168D01*
X249581900Y-99767359D01*
X249581900Y-115671406D01*
X249561898Y-115739527D01*
X249528171Y-115774619D01*
X249371103Y-115884599D01*
X249371097Y-115884604D01*
X249209204Y-116046497D01*
X249209199Y-116046503D01*
X249077877Y-116234050D01*
X248981117Y-116441553D01*
X248981116Y-116441557D01*
X248921857Y-116662713D01*
X248901902Y-116890800D01*
X248921857Y-117118887D01*
X248981116Y-117340043D01*
X249077877Y-117547549D01*
X249209202Y-117735100D01*
X249371100Y-117896998D01*
X249558651Y-118028323D01*
X249766157Y-118125084D01*
X249987313Y-118184343D01*
X250215400Y-118204298D01*
X250443487Y-118184343D01*
X250664643Y-118125084D01*
X250872149Y-118028323D01*
X251059700Y-117896998D01*
X251221598Y-117735100D01*
X251352923Y-117547549D01*
X251449684Y-117340043D01*
X251508943Y-117118887D01*
X251528898Y-116890800D01*
X251508943Y-116662713D01*
X251449684Y-116441557D01*
X251352923Y-116234051D01*
X251221598Y-116046500D01*
X251059700Y-115884602D01*
X250905031Y-115776301D01*
X250902629Y-115774619D01*
X250858301Y-115719162D01*
X250848900Y-115671406D01*
X250848900Y-113460212D01*
X253704519Y-113460212D01*
X256025700Y-113460212D01*
X256025700Y-106042937D01*
X253704519Y-106042937D01*
X253704519Y-113460212D01*
X250848900Y-113460212D01*
X250848900Y-99148561D01*
X250868902Y-99080440D01*
X250879089Y-99066730D01*
X250906176Y-99035016D01*
X251030240Y-98832563D01*
X251121105Y-98613194D01*
X251176535Y-98382311D01*
X251195165Y-98145600D01*
X251176535Y-97908889D01*
X251121105Y-97678006D01*
X251030240Y-97458637D01*
X250906176Y-97256184D01*
X250835303Y-97173202D01*
X250751969Y-97075630D01*
X250571419Y-96921426D01*
X250571417Y-96921425D01*
X250571416Y-96921424D01*
X250368963Y-96797360D01*
X250333559Y-96782695D01*
X250149592Y-96706494D01*
X249991651Y-96668576D01*
X249918711Y-96651065D01*
X249682000Y-96632435D01*
X249445289Y-96651065D01*
X249214407Y-96706494D01*
X248995038Y-96797359D01*
X248792582Y-96921425D01*
X248782235Y-96930262D01*
X248717443Y-96959290D01*
X248647244Y-96948681D01*
X248598829Y-96906116D01*
X248597847Y-96906852D01*
X248594345Y-96902174D01*
X248593924Y-96901804D01*
X248593395Y-96900905D01*
X248504904Y-96782695D01*
X248387965Y-96695155D01*
X248251093Y-96644105D01*
X248190597Y-96637600D01*
X247396000Y-96637600D01*
X247396000Y-97714897D01*
X247334993Y-97679675D01*
X247207826Y-97645600D01*
X247076174Y-97645600D01*
X246949007Y-97679675D01*
X246888000Y-97714897D01*
X246888000Y-96637600D01*
X246093402Y-96637600D01*
X246032906Y-96644105D01*
X245896035Y-96695155D01*
X245896034Y-96695155D01*
X245779095Y-96782695D01*
X245691555Y-96899634D01*
X245691555Y-96899635D01*
X245640505Y-97036506D01*
X245634000Y-97097002D01*
X223839974Y-97097002D01*
X223723619Y-96997626D01*
X223723617Y-96997625D01*
X223723616Y-96997624D01*
X223521163Y-96873560D01*
X223485759Y-96858895D01*
X223301792Y-96782694D01*
X223143851Y-96744776D01*
X223070911Y-96727265D01*
X222834200Y-96708635D01*
X222597489Y-96727265D01*
X222366607Y-96782694D01*
X222147238Y-96873559D01*
X221944782Y-96997625D01*
X221934435Y-97006462D01*
X221869643Y-97035490D01*
X221799444Y-97024881D01*
X221751029Y-96982316D01*
X221750047Y-96983052D01*
X221746545Y-96978374D01*
X221746124Y-96978004D01*
X221745595Y-96977105D01*
X221657104Y-96858895D01*
X221540165Y-96771355D01*
X221403293Y-96720305D01*
X221342797Y-96713800D01*
X220548200Y-96713800D01*
X220548200Y-97791097D01*
X220487193Y-97755875D01*
X220360026Y-97721800D01*
X220228374Y-97721800D01*
X220101207Y-97755875D01*
X220040200Y-97791097D01*
X220040200Y-96713800D01*
X219245602Y-96713800D01*
X219185106Y-96720305D01*
X219048235Y-96771355D01*
X219048234Y-96771355D01*
X218931295Y-96858895D01*
X218843755Y-96975834D01*
X218843755Y-96975835D01*
X218792705Y-97112706D01*
X218786200Y-97173202D01*
X218786200Y-97967800D01*
X219863497Y-97967800D01*
X219828275Y-98028807D01*
X219794200Y-98155974D01*
X219794200Y-98287626D01*
X219828275Y-98414793D01*
X219863497Y-98475800D01*
X218786200Y-98475800D01*
X218786200Y-99270397D01*
X218792705Y-99330893D01*
X218843755Y-99467764D01*
X218843755Y-99467765D01*
X218931295Y-99584704D01*
X219048234Y-99672244D01*
X219185106Y-99723294D01*
X219245602Y-99729799D01*
X219245615Y-99729800D01*
X220040200Y-99729800D01*
X220040200Y-98652502D01*
X220101207Y-98687725D01*
X220228374Y-98721800D01*
X220360026Y-98721800D01*
X220487193Y-98687725D01*
X220548200Y-98652502D01*
X220548200Y-99729800D01*
X221342785Y-99729800D01*
X221342797Y-99729799D01*
X221403293Y-99723294D01*
X221540164Y-99672244D01*
X221540165Y-99672244D01*
X221657104Y-99584704D01*
X221750047Y-99460548D01*
X221752337Y-99462262D01*
X221792184Y-99422386D01*
X221861552Y-99407270D01*
X221928081Y-99432056D01*
X221934429Y-99437132D01*
X221944784Y-99445976D01*
X222140537Y-99565934D01*
X222188166Y-99618580D01*
X222200700Y-99673365D01*
X222200700Y-101387006D01*
X222180698Y-101455127D01*
X222163795Y-101476101D01*
X219014731Y-104625164D01*
X219014726Y-104625171D01*
X218945401Y-104728923D01*
X218897646Y-104844212D01*
X218873300Y-104966603D01*
X218873300Y-115823806D01*
X218853298Y-115891927D01*
X218819571Y-115927019D01*
X218662503Y-116036999D01*
X218662497Y-116037004D01*
X218500604Y-116198897D01*
X218500599Y-116198903D01*
X218369277Y-116386450D01*
X218272517Y-116593953D01*
X218272515Y-116593959D01*
X218213257Y-116815113D01*
X218193302Y-117043200D01*
X211077619Y-117043200D01*
X211073481Y-117031643D01*
X213774863Y-117031643D01*
X215953926Y-117031643D01*
X215953926Y-102376739D01*
X213774863Y-102376739D01*
X213774863Y-117031643D01*
X211073481Y-117031643D01*
X211056940Y-116985443D01*
X211053369Y-116973695D01*
X211053365Y-116973681D01*
X210460181Y-114614353D01*
X210457761Y-114602240D01*
X210097024Y-112186504D01*
X210095800Y-112174176D01*
X209973670Y-109716381D01*
X209973675Y-109703785D01*
X210102579Y-107159393D01*
X210103856Y-107146790D01*
X210480486Y-104678092D01*
X210483000Y-104665783D01*
X211095622Y-102281427D01*
X211099336Y-102269472D01*
X211935646Y-99985231D01*
X211940431Y-99973910D01*
X212988175Y-97798790D01*
X212994000Y-97788064D01*
X214239867Y-95738198D01*
X214246590Y-95728242D01*
X215678273Y-93812678D01*
X215685956Y-93803367D01*
X217292128Y-92037124D01*
X217300551Y-92028702D01*
X219066321Y-90423502D01*
X219075604Y-90415844D01*
X220990059Y-88984769D01*
X221000030Y-88978034D01*
X223051009Y-87731659D01*
X223061727Y-87725838D01*
X225235814Y-86678015D01*
X225247195Y-86673203D01*
X227531929Y-85836895D01*
X227543846Y-85833192D01*
X229927689Y-85220574D01*
X229940051Y-85218051D01*
X231989546Y-84905760D01*
X232014742Y-84904477D01*
X232017892Y-84904633D01*
X232017894Y-84904630D01*
X232022002Y-84903163D01*
X232023119Y-84902880D01*
X232024034Y-84902200D01*
X232027777Y-84899935D01*
X232027781Y-84899935D01*
X232029647Y-84897398D01*
X232046570Y-84878656D01*
X232048900Y-84876547D01*
X232048900Y-84876541D01*
X232050772Y-84872589D01*
X232051357Y-84871609D01*
X232051522Y-84870483D01*
X232052568Y-84866235D01*
X232052569Y-84866234D01*
X232052092Y-84863108D01*
X232050809Y-84837911D01*
X232050965Y-84834763D01*
X232050963Y-84834761D01*
X232049485Y-84830624D01*
X232049210Y-84829536D01*
X232048541Y-84828637D01*
X232046267Y-84824877D01*
X232046267Y-84824876D01*
X232043719Y-84823002D01*
X232025000Y-84806097D01*
X232024534Y-84805583D01*
X231997677Y-84775932D01*
X231883142Y-84649484D01*
X231875296Y-84639917D01*
X231699081Y-84402135D01*
X231648951Y-84334490D01*
X231642057Y-84324158D01*
X231636855Y-84315463D01*
X231483744Y-84059523D01*
X231447831Y-83999491D01*
X231442075Y-83988717D01*
X231326779Y-83745163D01*
X231280439Y-83647274D01*
X231275708Y-83635862D01*
X231148269Y-83280120D01*
X231144670Y-83268262D01*
X231052747Y-82900952D01*
X231050377Y-82889071D01*
X230994020Y-82512854D01*
X230992793Y-82500557D01*
X230974460Y-82137072D01*
X232370833Y-82137072D01*
X232374258Y-82154340D01*
X232382749Y-82325429D01*
X232381056Y-82342773D01*
X232383959Y-82362200D01*
X232385188Y-82374575D01*
X232386162Y-82394205D01*
X232391232Y-82410870D01*
X232416259Y-82578352D01*
X232416277Y-82595669D01*
X232421107Y-82614879D01*
X232423526Y-82626977D01*
X232426455Y-82646578D01*
X232433099Y-82662574D01*
X232474132Y-82825759D01*
X232475832Y-82842920D01*
X232482550Y-82861686D01*
X232486117Y-82873421D01*
X232490980Y-82892762D01*
X232499114Y-82907958D01*
X232555593Y-83065736D01*
X232558971Y-83082712D01*
X232567440Y-83100624D01*
X232572155Y-83112007D01*
X232578843Y-83130688D01*
X232588464Y-83145085D01*
X232660101Y-83296581D01*
X232665079Y-83313028D01*
X232675350Y-83330215D01*
X232681097Y-83340984D01*
X232689665Y-83359102D01*
X232700558Y-83372392D01*
X232786881Y-83516827D01*
X232793547Y-83532956D01*
X232805210Y-83548697D01*
X232812130Y-83559072D01*
X232822188Y-83575902D01*
X232834519Y-83588254D01*
X232935309Y-83724287D01*
X232943493Y-83739610D01*
X232956732Y-83754224D01*
X232964591Y-83763808D01*
X232976335Y-83779659D01*
X232989764Y-83790688D01*
X233104770Y-83917644D01*
X233104785Y-83917660D01*
X233114461Y-83932139D01*
X233129029Y-83945336D01*
X233137809Y-83954115D01*
X233146011Y-83963169D01*
X233151025Y-83968703D01*
X233165499Y-83978374D01*
X233188812Y-83999492D01*
X233292477Y-84093400D01*
X233303524Y-84106847D01*
X233309529Y-84111294D01*
X233309530Y-84111296D01*
X233319344Y-84118564D01*
X233328935Y-84126427D01*
X233337993Y-84134632D01*
X233337993Y-84134631D01*
X233343540Y-84139656D01*
X233358889Y-84147849D01*
X233495000Y-84248647D01*
X233507331Y-84260953D01*
X233513730Y-84264777D01*
X233513731Y-84264779D01*
X233524212Y-84271042D01*
X233534539Y-84277928D01*
X233544350Y-84285194D01*
X233544350Y-84285193D01*
X233550351Y-84289638D01*
X233566447Y-84296285D01*
X233710868Y-84382599D01*
X233724162Y-84393494D01*
X233731095Y-84396772D01*
X233731096Y-84396773D01*
X233740964Y-84401439D01*
X233742260Y-84402052D01*
X233753037Y-84407803D01*
X233763642Y-84414141D01*
X233770236Y-84418082D01*
X233786681Y-84423057D01*
X233786690Y-84423061D01*
X233938172Y-84494692D01*
X233952559Y-84504305D01*
X233971238Y-84510994D01*
X233982628Y-84515713D01*
X234000568Y-84524197D01*
X234017526Y-84527570D01*
X234175196Y-84584035D01*
X234190375Y-84592162D01*
X234197779Y-84594026D01*
X234197780Y-84594027D01*
X234209752Y-84597041D01*
X234221442Y-84600597D01*
X234233061Y-84604758D01*
X234233062Y-84604757D01*
X234240262Y-84607336D01*
X234257398Y-84609035D01*
X234380062Y-84639917D01*
X234420712Y-84650151D01*
X234436844Y-84656847D01*
X234444178Y-84657936D01*
X234444179Y-84657938D01*
X234456231Y-84659728D01*
X234468429Y-84662164D01*
X234480250Y-84665141D01*
X234480251Y-84665140D01*
X234487451Y-84666953D01*
X234504913Y-84666963D01*
X234672373Y-84691853D01*
X234688890Y-84696874D01*
X234696478Y-84697253D01*
X234696479Y-84697254D01*
X234708771Y-84697868D01*
X234720973Y-84699077D01*
X234733161Y-84700889D01*
X234733162Y-84700888D01*
X234740687Y-84702007D01*
X234757867Y-84700324D01*
X234928879Y-84708877D01*
X234946119Y-84712308D01*
X234953422Y-84711942D01*
X234953424Y-84711944D01*
X234965519Y-84711339D01*
X234978072Y-84711339D01*
X234990163Y-84711944D01*
X234990164Y-84711942D01*
X234997469Y-84712308D01*
X235014706Y-84708879D01*
X235185825Y-84700323D01*
X235203006Y-84702005D01*
X235210523Y-84700887D01*
X235210524Y-84700888D01*
X235222702Y-84699078D01*
X235234915Y-84697868D01*
X235247208Y-84697254D01*
X235247208Y-84697253D01*
X235254815Y-84696873D01*
X235271322Y-84691854D01*
X235438896Y-84666958D01*
X235456391Y-84666944D01*
X235463547Y-84665140D01*
X235463549Y-84665142D01*
X235475332Y-84662172D01*
X235487575Y-84659726D01*
X235499606Y-84657940D01*
X235499606Y-84657939D01*
X235506912Y-84656854D01*
X235523076Y-84650142D01*
X235686183Y-84609045D01*
X235703243Y-84607353D01*
X235710503Y-84604756D01*
X235710505Y-84604757D01*
X235722175Y-84600582D01*
X235733791Y-84597050D01*
X235745816Y-84594021D01*
X235745816Y-84594019D01*
X235753306Y-84592133D01*
X235768412Y-84584045D01*
X235926360Y-84527553D01*
X235943398Y-84524165D01*
X235950179Y-84520956D01*
X235950181Y-84520957D01*
X235961243Y-84515722D01*
X235972679Y-84510986D01*
X235984197Y-84506868D01*
X235984197Y-84506867D01*
X235991257Y-84504343D01*
X236005703Y-84494691D01*
X236157114Y-84423061D01*
X236173569Y-84418078D01*
X236180155Y-84414139D01*
X236180157Y-84414140D01*
X236190766Y-84407795D01*
X236201522Y-84402052D01*
X236212699Y-84396766D01*
X236212699Y-84396764D01*
X236219637Y-84393483D01*
X236232929Y-84382584D01*
X236377251Y-84296288D01*
X236393286Y-84289666D01*
X236399323Y-84285196D01*
X236399325Y-84285197D01*
X236409160Y-84277916D01*
X236419450Y-84271056D01*
X236429964Y-84264770D01*
X236429964Y-84264768D01*
X236436409Y-84260915D01*
X236448696Y-84248652D01*
X236584890Y-84147842D01*
X236600243Y-84139651D01*
X236605780Y-84134636D01*
X236605782Y-84134637D01*
X236614836Y-84126438D01*
X236624429Y-84118576D01*
X236634252Y-84111307D01*
X236634252Y-84111305D01*
X236640261Y-84106858D01*
X236651308Y-84093416D01*
X236778387Y-83978359D01*
X236792924Y-83968648D01*
X236797889Y-83963162D01*
X236797891Y-83963162D01*
X236806049Y-83954149D01*
X236814878Y-83945320D01*
X236823895Y-83937158D01*
X236823895Y-83937156D01*
X236829377Y-83932193D01*
X236839094Y-83917649D01*
X236954023Y-83790705D01*
X236967385Y-83779733D01*
X236971900Y-83773642D01*
X236971902Y-83773642D01*
X236979220Y-83763770D01*
X236987022Y-83754258D01*
X237000354Y-83739532D01*
X237008497Y-83724283D01*
X237109363Y-83588237D01*
X237121755Y-83575827D01*
X237125524Y-83569514D01*
X237125526Y-83569514D01*
X237131750Y-83559090D01*
X237138693Y-83548680D01*
X237145919Y-83538935D01*
X237145918Y-83538932D01*
X237150296Y-83533029D01*
X237156992Y-83516822D01*
X237243233Y-83372411D01*
X237254066Y-83359196D01*
X237257397Y-83352160D01*
X237262701Y-83340952D01*
X237268406Y-83330260D01*
X237274776Y-83319595D01*
X237274775Y-83319593D01*
X237278758Y-83312925D01*
X237283707Y-83296570D01*
X237355406Y-83145085D01*
X237365057Y-83130649D01*
X237367588Y-83123576D01*
X237367590Y-83123576D01*
X237371718Y-83112040D01*
X237376451Y-83100621D01*
X237381688Y-83089559D01*
X237381687Y-83089557D01*
X237384899Y-83082773D01*
X237388289Y-83065749D01*
X237444775Y-82907949D01*
X237452933Y-82892702D01*
X237454779Y-82885346D01*
X237454781Y-82885346D01*
X237457774Y-82873419D01*
X237461349Y-82861649D01*
X237465489Y-82850087D01*
X237465488Y-82850085D01*
X237468040Y-82842958D01*
X237469742Y-82825745D01*
X237510701Y-82662584D01*
X237517324Y-82646631D01*
X237518447Y-82639114D01*
X237518448Y-82639114D01*
X237520267Y-82626938D01*
X237522668Y-82614912D01*
X237525667Y-82602970D01*
X237525665Y-82602967D01*
X237527516Y-82595597D01*
X237527529Y-82578336D01*
X237552557Y-82410855D01*
X237557638Y-82394144D01*
X237558002Y-82386739D01*
X237558004Y-82386738D01*
X237558603Y-82374575D01*
X237559830Y-82362189D01*
X237561631Y-82350138D01*
X237561629Y-82350136D01*
X237562725Y-82342808D01*
X237561022Y-82325416D01*
X237569318Y-82156879D01*
X237573013Y-82140440D01*
X237572479Y-82129819D01*
X237572480Y-82129819D01*
X237571870Y-82117675D01*
X237571863Y-82105197D01*
X237572461Y-82093052D01*
X237572460Y-82093050D01*
X237572979Y-82082512D01*
X237569276Y-82066066D01*
X237560357Y-81888565D01*
X237562050Y-81870902D01*
X237560970Y-81863825D01*
X237560971Y-81863824D01*
X237559162Y-81851972D01*
X237557882Y-81839321D01*
X237557281Y-81827336D01*
X237557279Y-81827334D01*
X237556920Y-81820186D01*
X237551723Y-81803216D01*
X237525313Y-81630119D01*
X237525226Y-81612516D01*
X237520405Y-81593755D01*
X237517881Y-81581396D01*
X237514962Y-81562267D01*
X237508144Y-81546042D01*
X237465474Y-81379981D01*
X237463643Y-81362573D01*
X237456936Y-81344251D01*
X237453220Y-81332291D01*
X237448364Y-81313393D01*
X237440007Y-81298006D01*
X237382147Y-81139957D01*
X237378643Y-81122983D01*
X237370051Y-81105153D01*
X237365240Y-81093774D01*
X237361025Y-81082258D01*
X237361024Y-81082257D01*
X237358436Y-81075187D01*
X237348704Y-81060847D01*
X237276496Y-80910987D01*
X237271394Y-80894557D01*
X237261005Y-80877466D01*
X237255163Y-80866711D01*
X237246487Y-80848704D01*
X237235485Y-80835480D01*
X237149949Y-80694750D01*
X237143367Y-80679075D01*
X237131197Y-80662790D01*
X237124456Y-80652807D01*
X237113910Y-80635456D01*
X237101827Y-80623491D01*
X237003752Y-80492256D01*
X236995664Y-80477218D01*
X236982075Y-80462275D01*
X236974363Y-80452929D01*
X236962271Y-80436749D01*
X236949039Y-80425947D01*
X236839107Y-80305062D01*
X236829698Y-80290984D01*
X236814577Y-80277241D01*
X236806104Y-80268770D01*
X236792363Y-80253660D01*
X236778277Y-80244251D01*
X236657424Y-80134415D01*
X236646675Y-80121246D01*
X236640387Y-80116544D01*
X236630399Y-80109076D01*
X236621112Y-80101413D01*
X236606078Y-80087750D01*
X236591101Y-80079692D01*
X236459958Y-79981635D01*
X236447954Y-79969510D01*
X236430666Y-79959007D01*
X236420642Y-79952237D01*
X236404453Y-79940133D01*
X236388716Y-79933522D01*
X236247894Y-79847971D01*
X236234687Y-79836984D01*
X236216619Y-79828278D01*
X236205899Y-79822457D01*
X236188780Y-79812057D01*
X236172380Y-79806963D01*
X236022513Y-79734753D01*
X236008164Y-79725014D01*
X236001092Y-79722426D01*
X235989588Y-79718216D01*
X235978210Y-79713407D01*
X235969125Y-79709030D01*
X235967170Y-79708088D01*
X235967169Y-79708088D01*
X235960394Y-79704824D01*
X235943409Y-79701317D01*
X235785255Y-79643444D01*
X235769897Y-79635103D01*
X235750943Y-79630230D01*
X235739024Y-79626527D01*
X235720657Y-79619806D01*
X235703272Y-79617976D01*
X235537314Y-79575314D01*
X235521074Y-79568488D01*
X235501959Y-79565573D01*
X235489598Y-79563049D01*
X235477907Y-79560044D01*
X235470869Y-79558235D01*
X235453252Y-79558144D01*
X235280051Y-79531730D01*
X235263139Y-79526548D01*
X235243914Y-79525574D01*
X235231305Y-79524296D01*
X235224379Y-79523240D01*
X235212305Y-79521399D01*
X235194702Y-79523083D01*
X235014682Y-79513968D01*
X234997273Y-79510505D01*
X234978156Y-79511474D01*
X234965416Y-79511474D01*
X234946319Y-79510507D01*
X234928913Y-79513969D01*
X234749092Y-79523080D01*
X234731501Y-79521397D01*
X234712465Y-79524299D01*
X234699856Y-79525576D01*
X234680644Y-79526549D01*
X234663741Y-79531727D01*
X234490444Y-79558145D01*
X234472816Y-79558234D01*
X234454099Y-79563046D01*
X234441725Y-79565573D01*
X234422633Y-79568484D01*
X234406376Y-79575313D01*
X234240418Y-79617975D01*
X234223038Y-79619804D01*
X234204653Y-79626531D01*
X234192739Y-79630232D01*
X234173796Y-79635102D01*
X234158439Y-79643442D01*
X234000280Y-79701316D01*
X233983270Y-79704828D01*
X233972256Y-79710137D01*
X233965476Y-79713405D01*
X233954086Y-79718220D01*
X233942596Y-79722426D01*
X233935551Y-79725004D01*
X233921184Y-79734755D01*
X233771416Y-79806951D01*
X233755036Y-79812040D01*
X233737867Y-79822470D01*
X233727169Y-79828280D01*
X233709090Y-79836995D01*
X233695906Y-79847961D01*
X233555071Y-79933521D01*
X233539343Y-79940127D01*
X233523147Y-79952236D01*
X233513129Y-79959002D01*
X233495840Y-79969506D01*
X233483835Y-79981630D01*
X233352685Y-80079691D01*
X233337712Y-80087745D01*
X233322670Y-80101416D01*
X233313389Y-80109074D01*
X233297118Y-80121241D01*
X233286371Y-80134405D01*
X233165507Y-80244253D01*
X233151427Y-80253657D01*
X233137681Y-80268772D01*
X233129221Y-80277230D01*
X233114098Y-80290976D01*
X233104687Y-80305055D01*
X232994750Y-80425947D01*
X232994747Y-80425950D01*
X232981517Y-80436749D01*
X232969430Y-80452923D01*
X232961723Y-80462263D01*
X232948128Y-80477213D01*
X232940038Y-80492251D01*
X232841954Y-80623498D01*
X232829872Y-80635463D01*
X232819319Y-80652825D01*
X232812583Y-80662800D01*
X232800422Y-80679073D01*
X232793841Y-80694742D01*
X232708303Y-80835475D01*
X232697301Y-80848701D01*
X232688623Y-80866711D01*
X232682788Y-80877454D01*
X232672396Y-80894552D01*
X232667293Y-80910979D01*
X232595082Y-81060847D01*
X232585350Y-81075189D01*
X232578545Y-81093775D01*
X232573742Y-81105137D01*
X232565147Y-81122976D01*
X232561643Y-81139948D01*
X232503778Y-81298012D01*
X232495421Y-81313400D01*
X232490564Y-81332299D01*
X232486855Y-81344240D01*
X232480147Y-81362566D01*
X232478314Y-81379973D01*
X232435642Y-81546043D01*
X232428825Y-81562268D01*
X232425903Y-81581413D01*
X232423383Y-81593752D01*
X232418564Y-81612507D01*
X232418474Y-81630108D01*
X232392065Y-81803204D01*
X232386879Y-81820127D01*
X232385906Y-81839329D01*
X232384628Y-81851944D01*
X232381729Y-81870948D01*
X232383414Y-81888559D01*
X232374302Y-82068538D01*
X232370858Y-82085811D01*
X232371817Y-82105134D01*
X232371811Y-82117741D01*
X232370833Y-82137072D01*
X230974460Y-82137072D01*
X230973481Y-82117665D01*
X230973485Y-82104895D01*
X230993772Y-81708719D01*
X230995056Y-81696122D01*
X231053886Y-81312054D01*
X231056385Y-81299827D01*
X231056853Y-81298006D01*
X231151723Y-80928228D01*
X231155439Y-80916256D01*
X231157366Y-80910989D01*
X231285338Y-80561161D01*
X231290160Y-80549754D01*
X231453257Y-80211322D01*
X231459106Y-80200561D01*
X231485284Y-80157525D01*
X231600460Y-79968173D01*
X231653390Y-79881156D01*
X231660065Y-79871269D01*
X231882943Y-79572726D01*
X231890709Y-79563314D01*
X232140868Y-79288475D01*
X232149207Y-79280136D01*
X232424026Y-79029995D01*
X232433486Y-79022193D01*
X232731494Y-78799834D01*
X232741350Y-78793179D01*
X233060807Y-78598865D01*
X233071559Y-78593024D01*
X233409882Y-78430029D01*
X233421282Y-78425213D01*
X233777129Y-78295153D01*
X233788847Y-78291507D01*
X234159901Y-78195709D01*
X234172483Y-78193137D01*
X234556996Y-78134805D01*
X234569437Y-78133546D01*
X234965551Y-78113258D01*
X234978437Y-78113258D01*
X235374548Y-78133546D01*
G37*
%TD.AperFunction*%
%TD*%
M02*
