%TF.GenerationSoftware,KiCad,Pcbnew,8.0.5*%
%TF.CreationDate,2025-02-18T12:58:11+00:00*%
%TF.ProjectId,practice-keyring,70726163-7469-4636-952d-6b657972696e,rev?*%
%TF.SameCoordinates,Original*%
%TF.FileFunction,Legend,Top*%
%TF.FilePolarity,Positive*%
%FSLAX46Y46*%
G04 Gerber Fmt 4.6, Leading zero omitted, Abs format (unit mm)*
G04 Created by KiCad (PCBNEW 8.0.5) date 2025-02-18 12:58:11*
%MOMM*%
%LPD*%
G01*
G04 APERTURE LIST*
%ADD10C,0.150000*%
%ADD11C,0.100000*%
%ADD12C,0.120000*%
%ADD13C,0.010000*%
G04 APERTURE END LIST*
D10*
X222504048Y-100048266D02*
X223265953Y-100048266D01*
X222885000Y-100429219D02*
X222885000Y-99667314D01*
X249351848Y-99972066D02*
X250113753Y-99972066D01*
X249732800Y-100353019D02*
X249732800Y-99591114D01*
X246761048Y-99972066D02*
X247522953Y-99972066D01*
X219913248Y-100048266D02*
X220675153Y-100048266D01*
X247800905Y-96441419D02*
X247800905Y-95441419D01*
X247800905Y-95441419D02*
X248039000Y-95441419D01*
X248039000Y-95441419D02*
X248181857Y-95489038D01*
X248181857Y-95489038D02*
X248277095Y-95584276D01*
X248277095Y-95584276D02*
X248324714Y-95679514D01*
X248324714Y-95679514D02*
X248372333Y-95869990D01*
X248372333Y-95869990D02*
X248372333Y-96012847D01*
X248372333Y-96012847D02*
X248324714Y-96203323D01*
X248324714Y-96203323D02*
X248277095Y-96298561D01*
X248277095Y-96298561D02*
X248181857Y-96393800D01*
X248181857Y-96393800D02*
X248039000Y-96441419D01*
X248039000Y-96441419D02*
X247800905Y-96441419D01*
X248753286Y-95536657D02*
X248800905Y-95489038D01*
X248800905Y-95489038D02*
X248896143Y-95441419D01*
X248896143Y-95441419D02*
X249134238Y-95441419D01*
X249134238Y-95441419D02*
X249229476Y-95489038D01*
X249229476Y-95489038D02*
X249277095Y-95536657D01*
X249277095Y-95536657D02*
X249324714Y-95631895D01*
X249324714Y-95631895D02*
X249324714Y-95727133D01*
X249324714Y-95727133D02*
X249277095Y-95869990D01*
X249277095Y-95869990D02*
X248705667Y-96441419D01*
X248705667Y-96441419D02*
X249324714Y-96441419D01*
X220851505Y-96492219D02*
X220851505Y-95492219D01*
X220851505Y-95492219D02*
X221089600Y-95492219D01*
X221089600Y-95492219D02*
X221232457Y-95539838D01*
X221232457Y-95539838D02*
X221327695Y-95635076D01*
X221327695Y-95635076D02*
X221375314Y-95730314D01*
X221375314Y-95730314D02*
X221422933Y-95920790D01*
X221422933Y-95920790D02*
X221422933Y-96063647D01*
X221422933Y-96063647D02*
X221375314Y-96254123D01*
X221375314Y-96254123D02*
X221327695Y-96349361D01*
X221327695Y-96349361D02*
X221232457Y-96444600D01*
X221232457Y-96444600D02*
X221089600Y-96492219D01*
X221089600Y-96492219D02*
X220851505Y-96492219D01*
X222375314Y-96492219D02*
X221803886Y-96492219D01*
X222089600Y-96492219D02*
X222089600Y-95492219D01*
X222089600Y-95492219D02*
X221994362Y-95635076D01*
X221994362Y-95635076D02*
X221899124Y-95730314D01*
X221899124Y-95730314D02*
X221803886Y-95777933D01*
X250619419Y-120664266D02*
X250143228Y-120997599D01*
X250619419Y-121235694D02*
X249619419Y-121235694D01*
X249619419Y-121235694D02*
X249619419Y-120854742D01*
X249619419Y-120854742D02*
X249667038Y-120759504D01*
X249667038Y-120759504D02*
X249714657Y-120711885D01*
X249714657Y-120711885D02*
X249809895Y-120664266D01*
X249809895Y-120664266D02*
X249952752Y-120664266D01*
X249952752Y-120664266D02*
X250047990Y-120711885D01*
X250047990Y-120711885D02*
X250095609Y-120759504D01*
X250095609Y-120759504D02*
X250143228Y-120854742D01*
X250143228Y-120854742D02*
X250143228Y-121235694D01*
X249714657Y-120283313D02*
X249667038Y-120235694D01*
X249667038Y-120235694D02*
X249619419Y-120140456D01*
X249619419Y-120140456D02*
X249619419Y-119902361D01*
X249619419Y-119902361D02*
X249667038Y-119807123D01*
X249667038Y-119807123D02*
X249714657Y-119759504D01*
X249714657Y-119759504D02*
X249809895Y-119711885D01*
X249809895Y-119711885D02*
X249905133Y-119711885D01*
X249905133Y-119711885D02*
X250047990Y-119759504D01*
X250047990Y-119759504D02*
X250619419Y-120330932D01*
X250619419Y-120330932D02*
X250619419Y-119711885D01*
X219987019Y-120994466D02*
X219510828Y-121327799D01*
X219987019Y-121565894D02*
X218987019Y-121565894D01*
X218987019Y-121565894D02*
X218987019Y-121184942D01*
X218987019Y-121184942D02*
X219034638Y-121089704D01*
X219034638Y-121089704D02*
X219082257Y-121042085D01*
X219082257Y-121042085D02*
X219177495Y-120994466D01*
X219177495Y-120994466D02*
X219320352Y-120994466D01*
X219320352Y-120994466D02*
X219415590Y-121042085D01*
X219415590Y-121042085D02*
X219463209Y-121089704D01*
X219463209Y-121089704D02*
X219510828Y-121184942D01*
X219510828Y-121184942D02*
X219510828Y-121565894D01*
X219987019Y-120042085D02*
X219987019Y-120613513D01*
X219987019Y-120327799D02*
X218987019Y-120327799D01*
X218987019Y-120327799D02*
X219129876Y-120423037D01*
X219129876Y-120423037D02*
X219225114Y-120518275D01*
X219225114Y-120518275D02*
X219272733Y-120613513D01*
D11*
%TO.C,D2*%
X245802000Y-99755600D02*
X245802000Y-96545600D01*
X245800282Y-96538389D02*
G75*
G02*
X245802000Y-99755600I2611718J-1607211D01*
G01*
%TO.C,D1*%
X218954200Y-99831800D02*
X218954200Y-96621800D01*
X218952482Y-96614589D02*
G75*
G02*
X218954200Y-99831800I2611718J-1607211D01*
G01*
D12*
%TO.C,R2*%
X248845400Y-117430800D02*
X249175400Y-117430800D01*
X248845400Y-123970800D02*
X248845400Y-117430800D01*
X249175400Y-123970800D02*
X248845400Y-123970800D01*
X251255400Y-123970800D02*
X251585400Y-123970800D01*
X251585400Y-117430800D02*
X251255400Y-117430800D01*
X251585400Y-123970800D02*
X251585400Y-117430800D01*
%TO.C,R1*%
X218136800Y-117583200D02*
X218466800Y-117583200D01*
X218136800Y-124123200D02*
X218136800Y-117583200D01*
X218466800Y-124123200D02*
X218136800Y-124123200D01*
X220546800Y-124123200D02*
X220876800Y-124123200D01*
X220876800Y-117583200D02*
X220546800Y-117583200D01*
X220876800Y-124123200D02*
X220876800Y-117583200D01*
D13*
%TO.C,Ref\u002A\u002A*%
X235505831Y-84888394D02*
X235951389Y-84893786D01*
X236345700Y-84903805D01*
X236705455Y-84919541D01*
X237047345Y-84942086D01*
X237388063Y-84972532D01*
X237744300Y-85011971D01*
X238132749Y-85061494D01*
X238548333Y-85119091D01*
X239952361Y-85361370D01*
X241337370Y-85684861D01*
X242699684Y-86087510D01*
X244035627Y-86567265D01*
X245341523Y-87122073D01*
X246613697Y-87749881D01*
X247848471Y-88448635D01*
X249042170Y-89216282D01*
X250191118Y-90050770D01*
X251291638Y-90950045D01*
X252340055Y-91912055D01*
X253332692Y-92934745D01*
X254085007Y-93796213D01*
X254981679Y-94938245D01*
X255805596Y-96121470D01*
X256556016Y-97342653D01*
X257232198Y-98598561D01*
X257833400Y-99885958D01*
X258358879Y-101201610D01*
X258807894Y-102542281D01*
X259179704Y-103904737D01*
X259473565Y-105285744D01*
X259688737Y-106682066D01*
X259824478Y-108090469D01*
X259880044Y-109507717D01*
X259854696Y-110930577D01*
X259747690Y-112355814D01*
X259558284Y-113780192D01*
X259285738Y-115200477D01*
X259138054Y-115828233D01*
X258750695Y-117211660D01*
X258285403Y-118564890D01*
X257744423Y-119884929D01*
X257130000Y-121168780D01*
X256444377Y-122413450D01*
X255689801Y-123615941D01*
X254868517Y-124773260D01*
X253982768Y-125882410D01*
X253034800Y-126940397D01*
X252026859Y-127944225D01*
X250961188Y-128890899D01*
X249840033Y-129777423D01*
X248665638Y-130600802D01*
X247544166Y-131297591D01*
X246277851Y-131990056D01*
X244979157Y-132604762D01*
X243647463Y-133141913D01*
X242282145Y-133601711D01*
X240882582Y-133984358D01*
X239448150Y-134290056D01*
X237978227Y-134519007D01*
X237426500Y-134584172D01*
X237200294Y-134603424D01*
X236903978Y-134620709D01*
X236551654Y-134635833D01*
X236157426Y-134648599D01*
X235735394Y-134658812D01*
X235299663Y-134666276D01*
X234864334Y-134670797D01*
X234443510Y-134672178D01*
X234051294Y-134670223D01*
X233701787Y-134664738D01*
X233409094Y-134655526D01*
X233193166Y-134642875D01*
X231702872Y-134480769D01*
X230243610Y-134240031D01*
X228815655Y-133920755D01*
X227419279Y-133523035D01*
X226054757Y-133046966D01*
X224722364Y-132492641D01*
X223422373Y-131860154D01*
X222155057Y-131149600D01*
X221130045Y-130501847D01*
X219962435Y-129674484D01*
X218848811Y-128783364D01*
X217791286Y-127831647D01*
X216791976Y-126822494D01*
X215852995Y-125759065D01*
X214976459Y-124644520D01*
X214164481Y-123482020D01*
X213419176Y-122274725D01*
X212742660Y-121025795D01*
X212137047Y-119738391D01*
X212128396Y-119716904D01*
X217430209Y-119716904D01*
X217431316Y-120413022D01*
X217433403Y-121056400D01*
X217435862Y-121706027D01*
X217438119Y-122276766D01*
X217440565Y-122774394D01*
X217443595Y-123204688D01*
X217447601Y-123573423D01*
X217452975Y-123886378D01*
X217460111Y-124149327D01*
X217469402Y-124368049D01*
X217481241Y-124548320D01*
X217496021Y-124695916D01*
X217514134Y-124816614D01*
X217535973Y-124916190D01*
X217561933Y-125000422D01*
X217592405Y-125075087D01*
X217627782Y-125145959D01*
X217668458Y-125218818D01*
X217714825Y-125299438D01*
X217723012Y-125313821D01*
X217847755Y-125493753D01*
X218018189Y-125686940D01*
X218210326Y-125869914D01*
X218400177Y-126019205D01*
X218515999Y-126089645D01*
X218873510Y-126227350D01*
X219256155Y-126294518D01*
X219642501Y-126289228D01*
X219976471Y-126220674D01*
X220262757Y-126103334D01*
X220543515Y-125936759D01*
X220788764Y-125740537D01*
X220912988Y-125608754D01*
X221071891Y-125377039D01*
X221213368Y-125101704D01*
X221319636Y-124820508D01*
X221350648Y-124697067D01*
X230716666Y-124697067D01*
X230757547Y-124986334D01*
X230874928Y-125261012D01*
X231060920Y-125513344D01*
X231307633Y-125735570D01*
X231607176Y-125919932D01*
X231951661Y-126058673D01*
X232156000Y-126112414D01*
X232267748Y-126126938D01*
X232454431Y-126139738D01*
X232706331Y-126150809D01*
X233013734Y-126160145D01*
X233366924Y-126167742D01*
X233756184Y-126173595D01*
X234171800Y-126177698D01*
X234604056Y-126180047D01*
X235043237Y-126180637D01*
X235479626Y-126179462D01*
X235903508Y-126176517D01*
X236305167Y-126171798D01*
X236674888Y-126165299D01*
X237002955Y-126157016D01*
X237279653Y-126146943D01*
X237495266Y-126135076D01*
X237640078Y-126121409D01*
X237676793Y-126115270D01*
X238053644Y-126003525D01*
X238393130Y-125839595D01*
X238683335Y-125631586D01*
X238912344Y-125387600D01*
X239033481Y-125192538D01*
X239125195Y-124917843D01*
X239143809Y-124624776D01*
X239089323Y-124337682D01*
X239033481Y-124201595D01*
X238856365Y-123936568D01*
X238609404Y-123701633D01*
X238304511Y-123504895D01*
X237953602Y-123354458D01*
X237676793Y-123278863D01*
X237561054Y-123263889D01*
X237370476Y-123250765D01*
X237114864Y-123239490D01*
X236804025Y-123230064D01*
X236447766Y-123222485D01*
X236055894Y-123216753D01*
X235638214Y-123212866D01*
X235204534Y-123210824D01*
X234764659Y-123210625D01*
X234328398Y-123212270D01*
X233905555Y-123215757D01*
X233505937Y-123221085D01*
X233139352Y-123228253D01*
X232815606Y-123237261D01*
X232544504Y-123248107D01*
X232335855Y-123260791D01*
X232199464Y-123275311D01*
X232177166Y-123279362D01*
X231805400Y-123388807D01*
X231475793Y-123547624D01*
X231195901Y-123748479D01*
X230973279Y-123984038D01*
X230815483Y-124246966D01*
X230730069Y-124529929D01*
X230716666Y-124697067D01*
X221350648Y-124697067D01*
X221360123Y-124659355D01*
X221368353Y-124572085D01*
X221375798Y-124403012D01*
X221382424Y-124154993D01*
X221388200Y-123830888D01*
X221393094Y-123433556D01*
X221397073Y-122965856D01*
X221400105Y-122430647D01*
X221402158Y-121830788D01*
X221403201Y-121169139D01*
X221403315Y-120863091D01*
X248285625Y-120863091D01*
X248285927Y-121516197D01*
X248286650Y-122090065D01*
X248287884Y-122590123D01*
X248289716Y-123021799D01*
X248292237Y-123390523D01*
X248295535Y-123701721D01*
X248299699Y-123960823D01*
X248304817Y-124173256D01*
X248310979Y-124344448D01*
X248318273Y-124479829D01*
X248326789Y-124584825D01*
X248336615Y-124664866D01*
X248347840Y-124725379D01*
X248348945Y-124730149D01*
X248479751Y-125117772D01*
X248673785Y-125460275D01*
X248922299Y-125752178D01*
X249216544Y-125987999D01*
X249547770Y-126162256D01*
X249907230Y-126269467D01*
X250286174Y-126304152D01*
X250675854Y-126260827D01*
X250760019Y-126240840D01*
X251124026Y-126103677D01*
X251451883Y-125896329D01*
X251734780Y-125628741D01*
X251963907Y-125310859D01*
X252130453Y-124952629D01*
X252221624Y-124590894D01*
X252231047Y-124487370D01*
X252239047Y-124306913D01*
X252245630Y-124048581D01*
X252250806Y-123711431D01*
X252254582Y-123294521D01*
X252256966Y-122796909D01*
X252257967Y-122217653D01*
X252257592Y-121555811D01*
X252255849Y-120810439D01*
X252255347Y-120654233D01*
X252243166Y-117013567D01*
X252144671Y-116740684D01*
X251969322Y-116363936D01*
X251741071Y-116043579D01*
X251468925Y-115781824D01*
X251161889Y-115580880D01*
X250828968Y-115442958D01*
X250479167Y-115370269D01*
X250121493Y-115365022D01*
X249764951Y-115429429D01*
X249418545Y-115565698D01*
X249091283Y-115776042D01*
X248901811Y-115944756D01*
X248638932Y-116263626D01*
X248447299Y-116618944D01*
X248333002Y-116999343D01*
X248330880Y-117010758D01*
X248321181Y-117108760D01*
X248312654Y-117290236D01*
X248305297Y-117555336D01*
X248299109Y-117904209D01*
X248294087Y-118337003D01*
X248290231Y-118853868D01*
X248287538Y-119454954D01*
X248286007Y-120140408D01*
X248285625Y-120863091D01*
X221403315Y-120863091D01*
X221403333Y-120815562D01*
X221403170Y-120165463D01*
X221402619Y-119594463D01*
X221401585Y-119096991D01*
X221399974Y-118667481D01*
X221397693Y-118300363D01*
X221394647Y-117990069D01*
X221390743Y-117731032D01*
X221385885Y-117517681D01*
X221379981Y-117344450D01*
X221372935Y-117205770D01*
X221364654Y-117096071D01*
X221355044Y-117009787D01*
X221344011Y-116941348D01*
X221337338Y-116909457D01*
X221214247Y-116544928D01*
X221024729Y-116216162D01*
X220779103Y-115930279D01*
X220487689Y-115694396D01*
X220160805Y-115515635D01*
X219808771Y-115401115D01*
X219441905Y-115357956D01*
X219124778Y-115382928D01*
X218732281Y-115492077D01*
X218378956Y-115672119D01*
X218071822Y-115915623D01*
X217817899Y-116215159D01*
X217624207Y-116563294D01*
X217497763Y-116952600D01*
X217464497Y-117140567D01*
X217455124Y-117258872D01*
X217447235Y-117461304D01*
X217440836Y-117747334D01*
X217435929Y-118116437D01*
X217432520Y-118568085D01*
X217430611Y-119101749D01*
X217430209Y-119716904D01*
X212128396Y-119716904D01*
X211604452Y-118415673D01*
X211146989Y-117060801D01*
X210766774Y-115676936D01*
X210546221Y-114685233D01*
X210413848Y-113986467D01*
X210306648Y-113325436D01*
X210222780Y-112682517D01*
X210160406Y-112038090D01*
X210117684Y-111372532D01*
X210092776Y-110666221D01*
X210083842Y-109899534D01*
X210083788Y-109753400D01*
X210084675Y-109568387D01*
X222331753Y-109568387D01*
X222332479Y-109863870D01*
X222339818Y-110149728D01*
X222353714Y-110407558D01*
X222374107Y-110618954D01*
X222400939Y-110765514D01*
X222402887Y-110772300D01*
X222560272Y-111169109D01*
X222779916Y-111514465D01*
X223057195Y-111801771D01*
X223201758Y-111911890D01*
X223439687Y-112048866D01*
X223682624Y-112127822D01*
X223959623Y-112156714D01*
X224092504Y-112155853D01*
X224292361Y-112143501D01*
X224448119Y-112114708D01*
X224600074Y-112059792D01*
X224713606Y-112006629D01*
X225025878Y-111806452D01*
X225291885Y-111539325D01*
X225506119Y-111212513D01*
X225663070Y-110833276D01*
X225698877Y-110707589D01*
X225728223Y-110538515D01*
X225749333Y-110305624D01*
X225762230Y-110029363D01*
X225766937Y-109730176D01*
X225766384Y-109681940D01*
X244007779Y-109681940D01*
X244011709Y-109979191D01*
X244023821Y-110257196D01*
X244044121Y-110495249D01*
X244072615Y-110672647D01*
X244073156Y-110674961D01*
X244188906Y-111027187D01*
X244359656Y-111357447D01*
X244572650Y-111644900D01*
X244794512Y-111853305D01*
X244915954Y-111931840D01*
X245074667Y-112016640D01*
X245183245Y-112066457D01*
X245465872Y-112144840D01*
X245778545Y-112163149D01*
X246092813Y-112122518D01*
X246380223Y-112024082D01*
X246392193Y-112018251D01*
X246680152Y-111832589D01*
X246939590Y-111580471D01*
X247153335Y-111279340D01*
X247195975Y-111201622D01*
X247283176Y-111022842D01*
X247349142Y-110856342D01*
X247396677Y-110685748D01*
X247428589Y-110494685D01*
X247447684Y-110266778D01*
X247456769Y-109985652D01*
X247458701Y-109668733D01*
X247457292Y-109379324D01*
X247452773Y-109157918D01*
X247443698Y-108987871D01*
X247428626Y-108852536D01*
X247406111Y-108735266D01*
X247374711Y-108619416D01*
X247364914Y-108587475D01*
X247213676Y-108217109D01*
X247012089Y-107899375D01*
X246768384Y-107638384D01*
X246490795Y-107438247D01*
X246187553Y-107303074D01*
X245866892Y-107236976D01*
X245537044Y-107244066D01*
X245206242Y-107328452D01*
X245016486Y-107414807D01*
X244730390Y-107613487D01*
X244478899Y-107880134D01*
X244271322Y-108201914D01*
X244116967Y-108565994D01*
X244073748Y-108714544D01*
X244045015Y-108881743D01*
X244024438Y-109112511D01*
X244012024Y-109386145D01*
X244007779Y-109681940D01*
X225766384Y-109681940D01*
X225763477Y-109428511D01*
X225751872Y-109144813D01*
X225732146Y-108899528D01*
X225704322Y-108713102D01*
X225696602Y-108680010D01*
X225561078Y-108302152D01*
X225363457Y-107963418D01*
X225112714Y-107675234D01*
X224817821Y-107449025D01*
X224665178Y-107366732D01*
X224502170Y-107296354D01*
X224362456Y-107256444D01*
X224207604Y-107238832D01*
X224046971Y-107235306D01*
X223867173Y-107238644D01*
X223731131Y-107255184D01*
X223603796Y-107293323D01*
X223450118Y-107361460D01*
X223382440Y-107394532D01*
X223053856Y-107602464D01*
X222782027Y-107872592D01*
X222568531Y-108202894D01*
X222414945Y-108591351D01*
X222396166Y-108658277D01*
X222369849Y-108808224D01*
X222350380Y-109022160D01*
X222337701Y-109281682D01*
X222331753Y-109568387D01*
X210084675Y-109568387D01*
X210086385Y-109211926D01*
X210093561Y-108737956D01*
X210106436Y-108314398D01*
X210126126Y-107924160D01*
X210153750Y-107550151D01*
X210190425Y-107175278D01*
X210237269Y-106782449D01*
X210295399Y-106354573D01*
X210314952Y-106218567D01*
X210564908Y-104787815D01*
X210894454Y-103383203D01*
X211301813Y-102007459D01*
X211785209Y-100663313D01*
X212342865Y-99353494D01*
X212885714Y-98257042D01*
X218111307Y-98257042D01*
X218160333Y-98743153D01*
X218288537Y-99230599D01*
X218483145Y-99699233D01*
X218744606Y-100159625D01*
X219052362Y-100552718D01*
X219414524Y-100886781D01*
X219839202Y-101170084D01*
X220021545Y-101267603D01*
X220492222Y-101472095D01*
X220948749Y-101600846D01*
X221408183Y-101656821D01*
X221887578Y-101642986D01*
X222061870Y-101622391D01*
X222572260Y-101509821D01*
X223058585Y-101321115D01*
X223511737Y-101063057D01*
X223922608Y-100742433D01*
X224282089Y-100366028D01*
X224581072Y-99940627D01*
X224747473Y-99621777D01*
X224929988Y-99119217D01*
X225032725Y-98599836D01*
X225056201Y-98073435D01*
X225053737Y-98050082D01*
X245013461Y-98050082D01*
X245019373Y-98442018D01*
X245060320Y-98810961D01*
X245105468Y-99021900D01*
X245284519Y-99535417D01*
X245532776Y-100007452D01*
X245843856Y-100432201D01*
X246211376Y-100803864D01*
X246628952Y-101116637D01*
X247090202Y-101364719D01*
X247588742Y-101542308D01*
X247967500Y-101623312D01*
X248214268Y-101645550D01*
X248509217Y-101647081D01*
X248818865Y-101629551D01*
X249109731Y-101594606D01*
X249294964Y-101558068D01*
X249629980Y-101451059D01*
X249986448Y-101294441D01*
X250332065Y-101104020D01*
X250610470Y-100914265D01*
X250969776Y-100589163D01*
X251288064Y-100200950D01*
X251555020Y-99765418D01*
X251760331Y-99298357D01*
X251846398Y-99021900D01*
X251910010Y-98682468D01*
X251938512Y-98300011D01*
X251931927Y-97907520D01*
X251890279Y-97537984D01*
X251845182Y-97328567D01*
X251664072Y-96810622D01*
X251412780Y-96335797D01*
X251096957Y-95909592D01*
X250722254Y-95537509D01*
X250294323Y-95225049D01*
X249818816Y-94977713D01*
X249301383Y-94801001D01*
X249230257Y-94783245D01*
X248992505Y-94743237D01*
X248703740Y-94719991D01*
X248395538Y-94713924D01*
X248099474Y-94725449D01*
X247847123Y-94754980D01*
X247798166Y-94764452D01*
X247280646Y-94916732D01*
X246799043Y-95142167D01*
X246359934Y-95434493D01*
X245969894Y-95787446D01*
X245635497Y-96194763D01*
X245363319Y-96650178D01*
X245159936Y-97147429D01*
X245106653Y-97328567D01*
X245042562Y-97667987D01*
X245013461Y-98050082D01*
X225053737Y-98050082D01*
X225000932Y-97549817D01*
X224867436Y-97038785D01*
X224656229Y-96550142D01*
X224578177Y-96410038D01*
X224407189Y-96161694D01*
X224182884Y-95897487D01*
X223926340Y-95638145D01*
X223658639Y-95404397D01*
X223400860Y-95216972D01*
X223308333Y-95161336D01*
X222821102Y-94933677D01*
X222324742Y-94785778D01*
X221826009Y-94714240D01*
X221331662Y-94715659D01*
X220848459Y-94786635D01*
X220383157Y-94923766D01*
X219942514Y-95123651D01*
X219533288Y-95382887D01*
X219162237Y-95698074D01*
X218836118Y-96065809D01*
X218561690Y-96482692D01*
X218345709Y-96945321D01*
X218194934Y-97450294D01*
X218139801Y-97762920D01*
X218111307Y-98257042D01*
X212885714Y-98257042D01*
X212973005Y-98080732D01*
X213673852Y-96847755D01*
X214443631Y-95657293D01*
X215280564Y-94512075D01*
X216182876Y-93414831D01*
X217148790Y-92368290D01*
X218176529Y-91375180D01*
X219264317Y-90438232D01*
X220410378Y-89560175D01*
X221612935Y-88743738D01*
X221742000Y-88661955D01*
X222961064Y-87944199D01*
X224225339Y-87296170D01*
X225529083Y-86719975D01*
X226866554Y-86217722D01*
X228232011Y-85791518D01*
X229619712Y-85443471D01*
X231023916Y-85175689D01*
X231394000Y-85119037D01*
X231833661Y-85057362D01*
X232230594Y-85007177D01*
X232601504Y-84967404D01*
X232963098Y-84936961D01*
X233332083Y-84914770D01*
X233725164Y-84899752D01*
X234159048Y-84890827D01*
X234650442Y-84886916D01*
X234992333Y-84886536D01*
X235505831Y-84888394D01*
G36*
X235505831Y-84888394D02*
G01*
X235951389Y-84893786D01*
X236345700Y-84903805D01*
X236705455Y-84919541D01*
X237047345Y-84942086D01*
X237388063Y-84972532D01*
X237744300Y-85011971D01*
X238132749Y-85061494D01*
X238548333Y-85119091D01*
X239952361Y-85361370D01*
X241337370Y-85684861D01*
X242699684Y-86087510D01*
X244035627Y-86567265D01*
X245341523Y-87122073D01*
X246613697Y-87749881D01*
X247848471Y-88448635D01*
X249042170Y-89216282D01*
X250191118Y-90050770D01*
X251291638Y-90950045D01*
X252340055Y-91912055D01*
X253332692Y-92934745D01*
X254085007Y-93796213D01*
X254981679Y-94938245D01*
X255805596Y-96121470D01*
X256556016Y-97342653D01*
X257232198Y-98598561D01*
X257833400Y-99885958D01*
X258358879Y-101201610D01*
X258807894Y-102542281D01*
X259179704Y-103904737D01*
X259473565Y-105285744D01*
X259688737Y-106682066D01*
X259824478Y-108090469D01*
X259880044Y-109507717D01*
X259854696Y-110930577D01*
X259747690Y-112355814D01*
X259558284Y-113780192D01*
X259285738Y-115200477D01*
X259138054Y-115828233D01*
X258750695Y-117211660D01*
X258285403Y-118564890D01*
X257744423Y-119884929D01*
X257130000Y-121168780D01*
X256444377Y-122413450D01*
X255689801Y-123615941D01*
X254868517Y-124773260D01*
X253982768Y-125882410D01*
X253034800Y-126940397D01*
X252026859Y-127944225D01*
X250961188Y-128890899D01*
X249840033Y-129777423D01*
X248665638Y-130600802D01*
X247544166Y-131297591D01*
X246277851Y-131990056D01*
X244979157Y-132604762D01*
X243647463Y-133141913D01*
X242282145Y-133601711D01*
X240882582Y-133984358D01*
X239448150Y-134290056D01*
X237978227Y-134519007D01*
X237426500Y-134584172D01*
X237200294Y-134603424D01*
X236903978Y-134620709D01*
X236551654Y-134635833D01*
X236157426Y-134648599D01*
X235735394Y-134658812D01*
X235299663Y-134666276D01*
X234864334Y-134670797D01*
X234443510Y-134672178D01*
X234051294Y-134670223D01*
X233701787Y-134664738D01*
X233409094Y-134655526D01*
X233193166Y-134642875D01*
X231702872Y-134480769D01*
X230243610Y-134240031D01*
X228815655Y-133920755D01*
X227419279Y-133523035D01*
X226054757Y-133046966D01*
X224722364Y-132492641D01*
X223422373Y-131860154D01*
X222155057Y-131149600D01*
X221130045Y-130501847D01*
X219962435Y-129674484D01*
X218848811Y-128783364D01*
X217791286Y-127831647D01*
X216791976Y-126822494D01*
X215852995Y-125759065D01*
X214976459Y-124644520D01*
X214164481Y-123482020D01*
X213419176Y-122274725D01*
X212742660Y-121025795D01*
X212137047Y-119738391D01*
X212128396Y-119716904D01*
X217430209Y-119716904D01*
X217431316Y-120413022D01*
X217433403Y-121056400D01*
X217435862Y-121706027D01*
X217438119Y-122276766D01*
X217440565Y-122774394D01*
X217443595Y-123204688D01*
X217447601Y-123573423D01*
X217452975Y-123886378D01*
X217460111Y-124149327D01*
X217469402Y-124368049D01*
X217481241Y-124548320D01*
X217496021Y-124695916D01*
X217514134Y-124816614D01*
X217535973Y-124916190D01*
X217561933Y-125000422D01*
X217592405Y-125075087D01*
X217627782Y-125145959D01*
X217668458Y-125218818D01*
X217714825Y-125299438D01*
X217723012Y-125313821D01*
X217847755Y-125493753D01*
X218018189Y-125686940D01*
X218210326Y-125869914D01*
X218400177Y-126019205D01*
X218515999Y-126089645D01*
X218873510Y-126227350D01*
X219256155Y-126294518D01*
X219642501Y-126289228D01*
X219976471Y-126220674D01*
X220262757Y-126103334D01*
X220543515Y-125936759D01*
X220788764Y-125740537D01*
X220912988Y-125608754D01*
X221071891Y-125377039D01*
X221213368Y-125101704D01*
X221319636Y-124820508D01*
X221350648Y-124697067D01*
X230716666Y-124697067D01*
X230757547Y-124986334D01*
X230874928Y-125261012D01*
X231060920Y-125513344D01*
X231307633Y-125735570D01*
X231607176Y-125919932D01*
X231951661Y-126058673D01*
X232156000Y-126112414D01*
X232267748Y-126126938D01*
X232454431Y-126139738D01*
X232706331Y-126150809D01*
X233013734Y-126160145D01*
X233366924Y-126167742D01*
X233756184Y-126173595D01*
X234171800Y-126177698D01*
X234604056Y-126180047D01*
X235043237Y-126180637D01*
X235479626Y-126179462D01*
X235903508Y-126176517D01*
X236305167Y-126171798D01*
X236674888Y-126165299D01*
X237002955Y-126157016D01*
X237279653Y-126146943D01*
X237495266Y-126135076D01*
X237640078Y-126121409D01*
X237676793Y-126115270D01*
X238053644Y-126003525D01*
X238393130Y-125839595D01*
X238683335Y-125631586D01*
X238912344Y-125387600D01*
X239033481Y-125192538D01*
X239125195Y-124917843D01*
X239143809Y-124624776D01*
X239089323Y-124337682D01*
X239033481Y-124201595D01*
X238856365Y-123936568D01*
X238609404Y-123701633D01*
X238304511Y-123504895D01*
X237953602Y-123354458D01*
X237676793Y-123278863D01*
X237561054Y-123263889D01*
X237370476Y-123250765D01*
X237114864Y-123239490D01*
X236804025Y-123230064D01*
X236447766Y-123222485D01*
X236055894Y-123216753D01*
X235638214Y-123212866D01*
X235204534Y-123210824D01*
X234764659Y-123210625D01*
X234328398Y-123212270D01*
X233905555Y-123215757D01*
X233505937Y-123221085D01*
X233139352Y-123228253D01*
X232815606Y-123237261D01*
X232544504Y-123248107D01*
X232335855Y-123260791D01*
X232199464Y-123275311D01*
X232177166Y-123279362D01*
X231805400Y-123388807D01*
X231475793Y-123547624D01*
X231195901Y-123748479D01*
X230973279Y-123984038D01*
X230815483Y-124246966D01*
X230730069Y-124529929D01*
X230716666Y-124697067D01*
X221350648Y-124697067D01*
X221360123Y-124659355D01*
X221368353Y-124572085D01*
X221375798Y-124403012D01*
X221382424Y-124154993D01*
X221388200Y-123830888D01*
X221393094Y-123433556D01*
X221397073Y-122965856D01*
X221400105Y-122430647D01*
X221402158Y-121830788D01*
X221403201Y-121169139D01*
X221403315Y-120863091D01*
X248285625Y-120863091D01*
X248285927Y-121516197D01*
X248286650Y-122090065D01*
X248287884Y-122590123D01*
X248289716Y-123021799D01*
X248292237Y-123390523D01*
X248295535Y-123701721D01*
X248299699Y-123960823D01*
X248304817Y-124173256D01*
X248310979Y-124344448D01*
X248318273Y-124479829D01*
X248326789Y-124584825D01*
X248336615Y-124664866D01*
X248347840Y-124725379D01*
X248348945Y-124730149D01*
X248479751Y-125117772D01*
X248673785Y-125460275D01*
X248922299Y-125752178D01*
X249216544Y-125987999D01*
X249547770Y-126162256D01*
X249907230Y-126269467D01*
X250286174Y-126304152D01*
X250675854Y-126260827D01*
X250760019Y-126240840D01*
X251124026Y-126103677D01*
X251451883Y-125896329D01*
X251734780Y-125628741D01*
X251963907Y-125310859D01*
X252130453Y-124952629D01*
X252221624Y-124590894D01*
X252231047Y-124487370D01*
X252239047Y-124306913D01*
X252245630Y-124048581D01*
X252250806Y-123711431D01*
X252254582Y-123294521D01*
X252256966Y-122796909D01*
X252257967Y-122217653D01*
X252257592Y-121555811D01*
X252255849Y-120810439D01*
X252255347Y-120654233D01*
X252243166Y-117013567D01*
X252144671Y-116740684D01*
X251969322Y-116363936D01*
X251741071Y-116043579D01*
X251468925Y-115781824D01*
X251161889Y-115580880D01*
X250828968Y-115442958D01*
X250479167Y-115370269D01*
X250121493Y-115365022D01*
X249764951Y-115429429D01*
X249418545Y-115565698D01*
X249091283Y-115776042D01*
X248901811Y-115944756D01*
X248638932Y-116263626D01*
X248447299Y-116618944D01*
X248333002Y-116999343D01*
X248330880Y-117010758D01*
X248321181Y-117108760D01*
X248312654Y-117290236D01*
X248305297Y-117555336D01*
X248299109Y-117904209D01*
X248294087Y-118337003D01*
X248290231Y-118853868D01*
X248287538Y-119454954D01*
X248286007Y-120140408D01*
X248285625Y-120863091D01*
X221403315Y-120863091D01*
X221403333Y-120815562D01*
X221403170Y-120165463D01*
X221402619Y-119594463D01*
X221401585Y-119096991D01*
X221399974Y-118667481D01*
X221397693Y-118300363D01*
X221394647Y-117990069D01*
X221390743Y-117731032D01*
X221385885Y-117517681D01*
X221379981Y-117344450D01*
X221372935Y-117205770D01*
X221364654Y-117096071D01*
X221355044Y-117009787D01*
X221344011Y-116941348D01*
X221337338Y-116909457D01*
X221214247Y-116544928D01*
X221024729Y-116216162D01*
X220779103Y-115930279D01*
X220487689Y-115694396D01*
X220160805Y-115515635D01*
X219808771Y-115401115D01*
X219441905Y-115357956D01*
X219124778Y-115382928D01*
X218732281Y-115492077D01*
X218378956Y-115672119D01*
X218071822Y-115915623D01*
X217817899Y-116215159D01*
X217624207Y-116563294D01*
X217497763Y-116952600D01*
X217464497Y-117140567D01*
X217455124Y-117258872D01*
X217447235Y-117461304D01*
X217440836Y-117747334D01*
X217435929Y-118116437D01*
X217432520Y-118568085D01*
X217430611Y-119101749D01*
X217430209Y-119716904D01*
X212128396Y-119716904D01*
X211604452Y-118415673D01*
X211146989Y-117060801D01*
X210766774Y-115676936D01*
X210546221Y-114685233D01*
X210413848Y-113986467D01*
X210306648Y-113325436D01*
X210222780Y-112682517D01*
X210160406Y-112038090D01*
X210117684Y-111372532D01*
X210092776Y-110666221D01*
X210083842Y-109899534D01*
X210083788Y-109753400D01*
X210084675Y-109568387D01*
X222331753Y-109568387D01*
X222332479Y-109863870D01*
X222339818Y-110149728D01*
X222353714Y-110407558D01*
X222374107Y-110618954D01*
X222400939Y-110765514D01*
X222402887Y-110772300D01*
X222560272Y-111169109D01*
X222779916Y-111514465D01*
X223057195Y-111801771D01*
X223201758Y-111911890D01*
X223439687Y-112048866D01*
X223682624Y-112127822D01*
X223959623Y-112156714D01*
X224092504Y-112155853D01*
X224292361Y-112143501D01*
X224448119Y-112114708D01*
X224600074Y-112059792D01*
X224713606Y-112006629D01*
X225025878Y-111806452D01*
X225291885Y-111539325D01*
X225506119Y-111212513D01*
X225663070Y-110833276D01*
X225698877Y-110707589D01*
X225728223Y-110538515D01*
X225749333Y-110305624D01*
X225762230Y-110029363D01*
X225766937Y-109730176D01*
X225766384Y-109681940D01*
X244007779Y-109681940D01*
X244011709Y-109979191D01*
X244023821Y-110257196D01*
X244044121Y-110495249D01*
X244072615Y-110672647D01*
X244073156Y-110674961D01*
X244188906Y-111027187D01*
X244359656Y-111357447D01*
X244572650Y-111644900D01*
X244794512Y-111853305D01*
X244915954Y-111931840D01*
X245074667Y-112016640D01*
X245183245Y-112066457D01*
X245465872Y-112144840D01*
X245778545Y-112163149D01*
X246092813Y-112122518D01*
X246380223Y-112024082D01*
X246392193Y-112018251D01*
X246680152Y-111832589D01*
X246939590Y-111580471D01*
X247153335Y-111279340D01*
X247195975Y-111201622D01*
X247283176Y-111022842D01*
X247349142Y-110856342D01*
X247396677Y-110685748D01*
X247428589Y-110494685D01*
X247447684Y-110266778D01*
X247456769Y-109985652D01*
X247458701Y-109668733D01*
X247457292Y-109379324D01*
X247452773Y-109157918D01*
X247443698Y-108987871D01*
X247428626Y-108852536D01*
X247406111Y-108735266D01*
X247374711Y-108619416D01*
X247364914Y-108587475D01*
X247213676Y-108217109D01*
X247012089Y-107899375D01*
X246768384Y-107638384D01*
X246490795Y-107438247D01*
X246187553Y-107303074D01*
X245866892Y-107236976D01*
X245537044Y-107244066D01*
X245206242Y-107328452D01*
X245016486Y-107414807D01*
X244730390Y-107613487D01*
X244478899Y-107880134D01*
X244271322Y-108201914D01*
X244116967Y-108565994D01*
X244073748Y-108714544D01*
X244045015Y-108881743D01*
X244024438Y-109112511D01*
X244012024Y-109386145D01*
X244007779Y-109681940D01*
X225766384Y-109681940D01*
X225763477Y-109428511D01*
X225751872Y-109144813D01*
X225732146Y-108899528D01*
X225704322Y-108713102D01*
X225696602Y-108680010D01*
X225561078Y-108302152D01*
X225363457Y-107963418D01*
X225112714Y-107675234D01*
X224817821Y-107449025D01*
X224665178Y-107366732D01*
X224502170Y-107296354D01*
X224362456Y-107256444D01*
X224207604Y-107238832D01*
X224046971Y-107235306D01*
X223867173Y-107238644D01*
X223731131Y-107255184D01*
X223603796Y-107293323D01*
X223450118Y-107361460D01*
X223382440Y-107394532D01*
X223053856Y-107602464D01*
X222782027Y-107872592D01*
X222568531Y-108202894D01*
X222414945Y-108591351D01*
X222396166Y-108658277D01*
X222369849Y-108808224D01*
X222350380Y-109022160D01*
X222337701Y-109281682D01*
X222331753Y-109568387D01*
X210084675Y-109568387D01*
X210086385Y-109211926D01*
X210093561Y-108737956D01*
X210106436Y-108314398D01*
X210126126Y-107924160D01*
X210153750Y-107550151D01*
X210190425Y-107175278D01*
X210237269Y-106782449D01*
X210295399Y-106354573D01*
X210314952Y-106218567D01*
X210564908Y-104787815D01*
X210894454Y-103383203D01*
X211301813Y-102007459D01*
X211785209Y-100663313D01*
X212342865Y-99353494D01*
X212885714Y-98257042D01*
X218111307Y-98257042D01*
X218160333Y-98743153D01*
X218288537Y-99230599D01*
X218483145Y-99699233D01*
X218744606Y-100159625D01*
X219052362Y-100552718D01*
X219414524Y-100886781D01*
X219839202Y-101170084D01*
X220021545Y-101267603D01*
X220492222Y-101472095D01*
X220948749Y-101600846D01*
X221408183Y-101656821D01*
X221887578Y-101642986D01*
X222061870Y-101622391D01*
X222572260Y-101509821D01*
X223058585Y-101321115D01*
X223511737Y-101063057D01*
X223922608Y-100742433D01*
X224282089Y-100366028D01*
X224581072Y-99940627D01*
X224747473Y-99621777D01*
X224929988Y-99119217D01*
X225032725Y-98599836D01*
X225056201Y-98073435D01*
X225053737Y-98050082D01*
X245013461Y-98050082D01*
X245019373Y-98442018D01*
X245060320Y-98810961D01*
X245105468Y-99021900D01*
X245284519Y-99535417D01*
X245532776Y-100007452D01*
X245843856Y-100432201D01*
X246211376Y-100803864D01*
X246628952Y-101116637D01*
X247090202Y-101364719D01*
X247588742Y-101542308D01*
X247967500Y-101623312D01*
X248214268Y-101645550D01*
X248509217Y-101647081D01*
X248818865Y-101629551D01*
X249109731Y-101594606D01*
X249294964Y-101558068D01*
X249629980Y-101451059D01*
X249986448Y-101294441D01*
X250332065Y-101104020D01*
X250610470Y-100914265D01*
X250969776Y-100589163D01*
X251288064Y-100200950D01*
X251555020Y-99765418D01*
X251760331Y-99298357D01*
X251846398Y-99021900D01*
X251910010Y-98682468D01*
X251938512Y-98300011D01*
X251931927Y-97907520D01*
X251890279Y-97537984D01*
X251845182Y-97328567D01*
X251664072Y-96810622D01*
X251412780Y-96335797D01*
X251096957Y-95909592D01*
X250722254Y-95537509D01*
X250294323Y-95225049D01*
X249818816Y-94977713D01*
X249301383Y-94801001D01*
X249230257Y-94783245D01*
X248992505Y-94743237D01*
X248703740Y-94719991D01*
X248395538Y-94713924D01*
X248099474Y-94725449D01*
X247847123Y-94754980D01*
X247798166Y-94764452D01*
X247280646Y-94916732D01*
X246799043Y-95142167D01*
X246359934Y-95434493D01*
X245969894Y-95787446D01*
X245635497Y-96194763D01*
X245363319Y-96650178D01*
X245159936Y-97147429D01*
X245106653Y-97328567D01*
X245042562Y-97667987D01*
X245013461Y-98050082D01*
X225053737Y-98050082D01*
X225000932Y-97549817D01*
X224867436Y-97038785D01*
X224656229Y-96550142D01*
X224578177Y-96410038D01*
X224407189Y-96161694D01*
X224182884Y-95897487D01*
X223926340Y-95638145D01*
X223658639Y-95404397D01*
X223400860Y-95216972D01*
X223308333Y-95161336D01*
X222821102Y-94933677D01*
X222324742Y-94785778D01*
X221826009Y-94714240D01*
X221331662Y-94715659D01*
X220848459Y-94786635D01*
X220383157Y-94923766D01*
X219942514Y-95123651D01*
X219533288Y-95382887D01*
X219162237Y-95698074D01*
X218836118Y-96065809D01*
X218561690Y-96482692D01*
X218345709Y-96945321D01*
X218194934Y-97450294D01*
X218139801Y-97762920D01*
X218111307Y-98257042D01*
X212885714Y-98257042D01*
X212973005Y-98080732D01*
X213673852Y-96847755D01*
X214443631Y-95657293D01*
X215280564Y-94512075D01*
X216182876Y-93414831D01*
X217148790Y-92368290D01*
X218176529Y-91375180D01*
X219264317Y-90438232D01*
X220410378Y-89560175D01*
X221612935Y-88743738D01*
X221742000Y-88661955D01*
X222961064Y-87944199D01*
X224225339Y-87296170D01*
X225529083Y-86719975D01*
X226866554Y-86217722D01*
X228232011Y-85791518D01*
X229619712Y-85443471D01*
X231023916Y-85175689D01*
X231394000Y-85119037D01*
X231833661Y-85057362D01*
X232230594Y-85007177D01*
X232601504Y-84967404D01*
X232963098Y-84936961D01*
X233332083Y-84914770D01*
X233725164Y-84899752D01*
X234159048Y-84890827D01*
X234650442Y-84886916D01*
X234992333Y-84886536D01*
X235505831Y-84888394D01*
G37*
%TD*%
M02*
