<?xml version="1.0" encoding="UTF-8" standalone="no"?>
<!-- Created with Inkscape (http://www.inkscape.org/) -->

<svg
   width="100.0mm"
   height="100.0mm"
   viewBox="0 0 100.0 100.0"
   version="1.1"
   id="svg5"
   sodipodi:docname="robin.svg"
   inkscape:version="1.1 (c68e22c387, 2021-05-23)"
   xmlns:inkscape="http://www.inkscape.org/namespaces/inkscape"
   xmlns:sodipodi="http://sodipodi.sourceforge.net/DTD/sodipodi-0.dtd"
   xmlns="http://www.w3.org/2000/svg"
   xmlns:svg="http://www.w3.org/2000/svg">
  <sodipodi:namedview
     id="namedview7"
     pagecolor="#ffffff"
     bordercolor="#666666"
     borderopacity="1.0"
     inkscape:pageshadow="2"
     inkscape:pageopacity="0.0"
     inkscape:pagecheckerboard="0"
     inkscape:document-units="mm"
     showgrid="false"
     width="100mm"
     inkscape:zoom="1.3416246"
     inkscape:cx="178.8876"
     inkscape:cy="190.44076"
     inkscape:window-width="1920"
     inkscape:window-height="1001"
     inkscape:window-x="-9"
     inkscape:window-y="-9"
     inkscape:window-maximized="1"
     inkscape:current-layer="g836"
     inkscape:snap-smooth-nodes="true"
     inkscape:object-paths="true"
     inkscape:snap-intersection-paths="true" />
  <defs
     id="defs2" />
  <g
     inkscape:label="[fixed] BG"
     inkscape:groupmode="layer"
     sodipodi:insensitive="true"
     id="g832"
     style="display:none">
    <rect
       x="0"
       y="0"
       width="100"
       height="100"
       style="fill:#ffffff;fill-opacity:1;stroke:none"
       id="rect830" />
  </g>
  <g
     inkscape:label="F.Fab"
     inkscape:groupmode="layer"
     id="g834"
     style="display:inline"
     sodipodi:insensitive="true">
    <circle
       style="fill:none;stroke:#000000;stroke-width:0.1;stroke-miterlimit:4;stroke-dasharray:none"
       id="path6793"
       cx="42.647938"
       cy="18.553715"
       r="2.45" />
    <circle
       style="display:inline;fill:none;stroke:#000000;stroke-width:0.1;stroke-miterlimit:4;stroke-dasharray:none"
       id="path6793-1"
       cx="92.713028"
       cy="66.032822"
       r="2.45" />
  </g>
  <g
     inkscape:label="Edge.Cuts"
     inkscape:groupmode="layer"
     id="g836"
     style="display:inline"
     sodipodi:insensitive="true">
    <path
       id="path13722"
       style="display:inline;fill:none;stroke:#000000;stroke-width:0.1;stroke-miterlimit:4;stroke-dasharray:none"
       d="M 17.3145 64.8315 L 16.2461 63.9102 L 15.2237 62.9593 L 14.2477 61.9799 L 13.3184 60.9733 L 12.436 59.9409 L 11.601 58.884 L 10.8137 57.8038 L 10.0744 56.7017 L 9.38346 55.5789 L 8.74118 54.4367 L 8.14791 53.2765 L 7.60398 52.0995 L 7.10972 50.907 L 6.66548 49.7004 L 6.27157 48.4809 L 5.92834 47.2498 L 5.63612 46.0084 L 5.39525 44.758 L 5.20604 43.4999 L 5.06885 42.2354 L 4.98399 40.9659 L 4.95181 39.6925 L 4.97264 38.4166 L 5.04681 37.1395 L 5.17465 35.8624 L 5.35649 34.5868 L 5.59268 33.3138 L 5.88354 32.0448 L 6.22941 30.7811 L 6.63062 29.5239 L 7.08749 28.2746 L 7.60038 27.0344 L 8.14968 25.8124 L 8.71616 24.617 L 9.30066 23.4491 L 9.90401 22.3095 L 10.5271 21.1988 L 11.1707 20.1178 L 11.8357 19.0673 L 12.5229 18.0481 L 13.2332 17.0608 L 13.9675 16.1063 L 14.7265 15.1854 L 15.5111 14.2987 L 16.3222 13.4471 L 17.1605 12.6313 L 18.027 11.852 L 18.9225 11.11 L 19.8478 10.4061 L 20.8038 9.74109 L 21.7913 9.11562 L 22.8111 8.5305 L 23.8642 7.98648 L 24.9513 7.48433 L 26.0733 7.0248 L 27.231 6.60866 L 28.4253 6.23665 L 29.657 5.90954 L 30.9269 5.62808 L 32.236 5.39304 L 33.585 5.20517 L 34.9748 5.06523 L 36.4063 4.97398 L 37.8802 4.93218 L 37.8802 4.93218 L 37.8802 4.93218 L 38.5723 4.94968 L 39.2552 5.00162 L 39.9283 5.08716 L 40.5905 5.20545 L 41.2412 5.35564 L 41.8794 5.53689 L 42.5042 5.74836 L 43.115 5.98919 L 43.7107 6.25855 L 44.2906 6.55559 L 44.8538 6.87946 L 45.3994 7.22932 L 45.9267 7.60432 L 46.4347 8.00362 L 46.9227 8.42638 L 47.3898 8.87174 L 47.8351 9.33886 L 48.2578 9.8269 L 48.657 10.335 L 49.032 10.8624 L 49.3818 11.4081 L 49.7057 11.9713 L 50.0027 12.5513 L 50.272 13.1471 L 50.5128 13.7579 L 50.7242 14.3828 L 50.9055 15.0211 L 51.0556 15.6718 L 51.1739 16.3342 L 51.2594 17.0073 L 51.3114 17.6903 L 51.3289 18.3825 L 51.3194 18.8787 L 51.2915 19.3731 L 51.2454 19.8653 L 51.1817 20.3548 L 51.9415 20.6202 L 52.7249 20.9168 L 53.4935 21.2297 L 54.2091 21.544 L 54.8335 21.8447 L 55.3284 22.117 L 55.5154 22.2377 L 55.6557 22.3458 L 55.7444 22.4392 L 55.7769 22.5162 L 55.7624 22.5736 L 55.7158 22.642 L 55.5345 22.8087 L 55.2492 23.009 L 54.8758 23.2358 L 54.4303 23.4818 L 53.9288 23.74 L 52.8215 24.2637 L 51.682 24.7495 L 51.1402 24.9602 L 50.6383 25.1399 L 50.1924 25.2812 L 49.8184 25.3771 L 49.5325 25.4204 L 49.4275 25.4201 L 49.3504 25.4039 L 50.1655 26.259 L 52.3968 28.6349 L 53.9435 30.3043 L 55.724 32.2473 L 57.6984 34.4284 L 59.8264 36.8121 L 62.0682 39.3628 L 64.3835 42.045 L 66.7324 44.8232 L 69.0748 47.6619 L 71.3706 50.5255 L 72.4884 51.9555 L 73.5796 53.3785 L 74.6391 54.7899 L 75.662 56.1853 L 76.6431 57.5604 L 77.5775 58.9105 L 77.6932 59.1015 L 77.7642 59.267 L 77.7932 59.4082 L 77.7828 59.5265 L 77.7359 59.6232 L 77.655 59.6994 L 77.5429 59.7565 L 77.4022 59.7958 L 77.2357 59.8185 L 77.046 59.8259 L 76.6078 59.7999 L 76.1092 59.7279 L 75.5718 59.6203 L 75.017 59.4871 L 74.4663 59.3387 L 73.4635 59.0365 L 72.4547 58.6969 L 74.9362 63.0507 L 94.4522 59.2268 L 94.9799 59.6199 L 95.5431 60.0645 L 96.2205 60.6332 L 96.9477 61.2948 L 97.31 61.6507 L 97.6607 62.0182 L 97.9918 62.3935 L 98.2953 62.7725 L 98.5631 63.1515 L 98.7872 63.5265 L 98.9717 63.9248 L 99.1393 64.3916 L 99.2906 64.9137 L 99.4263 65.4783 L 99.5471 66.0723 L 99.6538 66.6828 L 99.8275 67.9013 L 99.9528 69.0297 L 100.035 69.9644 L 100.095 70.8367 L 82.3652 76.0834 L 85.4761 81.5413 L 85.606 81.7937 L 85.6805 81.996 L 85.7029 82.1511 L 85.6767 82.2616 L 85.6464 82.301 L 85.6053 82.3303 L 85.4918 82.3601 L 85.3399 82.3535 L 85.1527 82.3135 L 84.9337 82.2427 L 84.6861 82.1439 L 84.1191 81.8734 L 83.4785 81.524 L 82.7911 81.1178 L 82.0839 80.6767 L 81.3838 80.223 L 80.1122 79.3654 L 78.8369 78.4677 L 79.7228 79.6771 L 80.5735 80.8773 L 81.468 82.1978 L 81.8781 82.8383 L 82.235 83.4309 L 82.5173 83.9498 L 82.7035 84.369 L 82.7539 84.533 L 82.7723 84.6625 L 82.756 84.754 L 82.7023 84.8044 L 82.6086 84.8103 L 82.4721 84.7687 L 82.2903 84.6761 L 82.0604 84.5294 L 80.7837 83.6671 L 79.5157 82.8367 L 78.2584 82.0378 L 77.0138 81.2703 L 75.7838 80.5337 L 74.5703 79.8278 L 73.3755 79.1523 L 72.2011 78.5068 L 0.213606 95.7137 L 0.534998 94.2789 L 0.868691 92.7328 L 1.25723 90.8541 L 1.65525 88.8076 L 2.01739 86.7584 L 2.17083 85.7842 L 2.29828 84.8712 L 2.39408 84.0399 L 2.45256 83.311 L 2.46103 82.8353 L 2.43662 82.3466 L 2.38379 81.8507 L 2.30699 81.3538 L 2.21069 80.8619 L 2.09936 80.381 L 1.84944 79.4766 L 1.59291 78.6889 L 1.36548 78.0664 L 1.1407 77.5103 L 1.1407 77.5103 L 29.0302 72.0481 L 28.2883 71.7441 L 27.5485 71.4202 L 26.8107 71.0764 L 26.0746 70.7128 L 25.3401 70.3296 L 24.607 69.9267 L 23.8752 69.5042 L 23.1444 69.0622 L 22.4144 68.6007 L 21.6852 68.1199 L 20.9565 67.6197 L 20.2281 67.1003 L 19.4999 66.5617 L 18.7717 66.004 L 17.3145 64.8315 L 17.3145 64.8315"
       sodipodi:nodetypes="ssscsscccccccsccccsccscccs" />
  </g>
  <g
     inkscape:label="F.Cu"
     inkscape:groupmode="layer"
     id="g838"
     style="display:none"
     sodipodi:insensitive="true" />
  <g
     inkscape:label="F.SilkS"
     inkscape:groupmode="layer"
     id="g840"
     style="display:inline"
     sodipodi:insensitive="true">
    <path
       style="display:inline;fill:#000000;stroke:#000000;stroke-width:0.1;stroke-miterlimit:4;stroke-dasharray:none"
       d="m 17.434419,64.92928 c 11.596452,9.581613 22.998986,11.974778 37.417783,6.039116 0,0 19.157703,0.281972 16.108103,-4.371897 C 65.00181,57.503479 57.07303,53.768182 53.029181,45.460823 51.311278,41.9317 51.011434,37.047417 51.011434,37.047417 41.745173,66.617716 27.508654,71.435139 17.434419,64.92928 Z"
       id="path11738"
       sodipodi:nodetypes="ccsscc" />
    <path
       id="path4747"
       style="fill:#000000;stroke:#000000;stroke-width:0.377953;stroke-miterlimit:4;stroke-dasharray:none"
       d="M 143.31055,46.511719 C 118.31954,46.827574 102.3072,53.090561 88.833984,63.791016 75.322347,74.521983 64.016341,91.010138 54.232422,113.34766 37.35353,151.88359 18.902714,142.89115 23.574219,182.80078 c 22.9558,75.81181 110.070831,112.4976 161.927731,-36.0957 2.04789,-5.86813 4.04087,-12.02544 5.97266,-18.48047 3.6313,-12.13386 -11.56021,-21.40482 -4.95117,-32.208985 1.08427,-1.771631 3.97663,-7.13674 5.54492,-12.660156 C 193.70737,77.582955 194,71.637953 194,69.476562 194,56.497155 156.26562,46.585317 143.31055,46.511719 Z m 17.8789,14.353515 a 9.2598427,9.2598427 0 0 1 9.25977,9.259766 9.2598427,9.2598427 0 0 1 -9.25977,9.259766 9.2598427,9.2598427 0 0 1 -9.25976,-9.259766 9.2598427,9.2598427 0 0 1 9.25976,-9.259766 z"
       transform="scale(0.26458333)" />
    <path
       id="path13042"
       style="fill:none;stroke:#000000;stroke-width:0.500001;stroke-miterlimit:4;stroke-dasharray:none"
       d="M 82.365187,76.083394 74.936495,63.050801" />
    <path
       style="fill:none;stroke:#000000;stroke-width:0.500001;stroke-miterlimit:4;stroke-dasharray:none"
       d="m 54.857837,70.972617 c 0,0 7.496926,2.194502 17.343255,7.534204"
       id="path14176" />
    <path
       style="fill:none;stroke:#000000;stroke-width:0.500001;stroke-linecap:butt;stroke-linejoin:miter;stroke-miterlimit:4;stroke-dasharray:none;stroke-opacity:1"
       d="m 30.526336,72.601724 -2.896304,8.243401"
       id="path14906" />
    <path
       style="fill:none;stroke:#000000;stroke-width:0.500001;stroke-linecap:butt;stroke-linejoin:miter;stroke-miterlimit:4;stroke-dasharray:none;stroke-opacity:1"
       d="m 36.518794,73.978897 -1.336952,7.314242"
       id="path15023" />
  </g>
</svg>
