%TF.GenerationSoftware,KiCad,Pcbnew,8.0.5*%
%TF.CreationDate,2025-02-18T11:57:17+00:00*%
%TF.ProjectId,solder_badge_SO,736f6c64-6572-45f6-9261-6467655f534f,v2*%
%TF.SameCoordinates,Original*%
%TF.FileFunction,Copper,L1,Top*%
%TF.FilePolarity,Positive*%
%FSLAX46Y46*%
G04 Gerber Fmt 4.6, Leading zero omitted, Abs format (unit mm)*
G04 Created by KiCad (PCBNEW 8.0.5) date 2025-02-18 11:57:17*
%MOMM*%
%LPD*%
G01*
G04 APERTURE LIST*
%TA.AperFunction,ComponentPad*%
%ADD10R,2.000000X2.000000*%
%TD*%
%TA.AperFunction,ComponentPad*%
%ADD11C,2.000000*%
%TD*%
%TA.AperFunction,ComponentPad*%
%ADD12O,2.000000X3.500000*%
%TD*%
G04 APERTURE END LIST*
D10*
%TO.P,LED1,1*%
%TO.N,GND*%
X227760000Y-127100000D03*
D11*
%TO.P,LED1,2*%
%TO.N,Net-(BAT1-Pad1)*%
X230300000Y-127100000D03*
%TD*%
D12*
%TO.P,CR2032,1*%
%TO.N,Net-(BAT1-Pad1)*%
X218230000Y-144120000D03*
%TO.P,CR2032,2*%
X239830000Y-144120000D03*
%TD*%
%TA.AperFunction,Conductor*%
%TO.N,GND*%
G36*
X230108894Y-115762076D02*
G01*
X230115095Y-115762383D01*
X231210938Y-115843939D01*
X231217073Y-115844548D01*
X232226398Y-115969907D01*
X232303473Y-115979480D01*
X232309600Y-115980394D01*
X233384968Y-116168006D01*
X233390984Y-116169208D01*
X234453306Y-116408718D01*
X234459239Y-116410210D01*
X235506957Y-116701012D01*
X235512828Y-116702797D01*
X236543758Y-117043893D01*
X236549520Y-117045957D01*
X237562126Y-117436673D01*
X237567781Y-117439016D01*
X238560046Y-117878844D01*
X238565550Y-117881446D01*
X239535790Y-118369196D01*
X239541200Y-118372083D01*
X240487494Y-118907239D01*
X240492744Y-118910379D01*
X241265087Y-119398556D01*
X241413377Y-119492286D01*
X241418512Y-119495711D01*
X242311424Y-120123330D01*
X242316393Y-120127008D01*
X243180102Y-120799741D01*
X243184923Y-120803691D01*
X244017346Y-121520923D01*
X244021959Y-121525101D01*
X244821426Y-122285874D01*
X244825823Y-122290271D01*
X245266932Y-122753815D01*
X245586597Y-123089739D01*
X245590775Y-123094352D01*
X246307997Y-123926763D01*
X246311947Y-123931584D01*
X246984695Y-124795311D01*
X246988368Y-124800272D01*
X247616105Y-125693213D01*
X247619543Y-125698370D01*
X247731675Y-125875824D01*
X248181571Y-126587802D01*
X248201300Y-126619023D01*
X248204451Y-126624288D01*
X248209044Y-126632407D01*
X248739723Y-127570515D01*
X248742629Y-127575961D01*
X249230340Y-128546123D01*
X249232962Y-128551671D01*
X249672675Y-129544002D01*
X249675031Y-129549689D01*
X250065736Y-130562263D01*
X250067805Y-130568042D01*
X250393869Y-131553537D01*
X250408903Y-131598974D01*
X250410689Y-131604849D01*
X250444371Y-131726190D01*
X250701478Y-132652425D01*
X250702984Y-132658414D01*
X250942485Y-133720691D01*
X250943695Y-133726748D01*
X251131305Y-134802099D01*
X251132219Y-134808226D01*
X251267149Y-135894717D01*
X251267762Y-135900893D01*
X251349313Y-136996576D01*
X251349622Y-137002801D01*
X251377006Y-138105974D01*
X251377006Y-138112227D01*
X251349624Y-139215576D01*
X251349315Y-139221802D01*
X251267762Y-140317505D01*
X251267149Y-140323681D01*
X251132219Y-141410172D01*
X251131305Y-141416299D01*
X250943695Y-142491650D01*
X250942485Y-142497707D01*
X250702984Y-143559989D01*
X250701477Y-143565981D01*
X250410693Y-144613433D01*
X250408909Y-144619304D01*
X250067808Y-145650348D01*
X250065737Y-145656131D01*
X249675031Y-146668710D01*
X249672671Y-146674406D01*
X249232963Y-147666526D01*
X249230348Y-147672060D01*
X248742621Y-148642354D01*
X248739714Y-148647800D01*
X248204476Y-149594066D01*
X248201315Y-149599350D01*
X247619519Y-150519867D01*
X247616094Y-150525002D01*
X246988385Y-151418101D01*
X246984701Y-151423079D01*
X246311923Y-152286746D01*
X246307982Y-152291555D01*
X245590795Y-153124022D01*
X245586607Y-153128647D01*
X244825817Y-153928033D01*
X244821410Y-153932439D01*
X244021952Y-154693303D01*
X244017326Y-154697492D01*
X243184938Y-155414596D01*
X243180137Y-155418531D01*
X242316503Y-156091382D01*
X242311516Y-156095074D01*
X241418484Y-156722706D01*
X241413345Y-156726132D01*
X240492771Y-157307902D01*
X240487484Y-157311065D01*
X239541210Y-157846209D01*
X239535787Y-157849104D01*
X238565574Y-158336940D01*
X238560012Y-158339569D01*
X237567763Y-158779190D01*
X237562101Y-158781535D01*
X236549529Y-159172436D01*
X236543730Y-159174513D01*
X235512852Y-159515594D01*
X235506950Y-159517388D01*
X234459243Y-159807987D01*
X234453289Y-159809483D01*
X233391012Y-160049084D01*
X233384955Y-160050295D01*
X232309617Y-160238000D01*
X232303470Y-160238918D01*
X231217087Y-160373748D01*
X231210919Y-160374359D01*
X230115104Y-160455913D01*
X230108868Y-160456222D01*
X229005713Y-160483506D01*
X228999483Y-160483506D01*
X227896231Y-160456222D01*
X227889995Y-160455914D01*
X226794177Y-160374360D01*
X226788009Y-160373748D01*
X225701623Y-160238918D01*
X225695474Y-160238000D01*
X224620255Y-160050297D01*
X224614202Y-160049087D01*
X223551795Y-159809481D01*
X223545836Y-159807983D01*
X222498260Y-159517391D01*
X222492365Y-159515600D01*
X221461383Y-159174519D01*
X221455576Y-159172439D01*
X220443093Y-158781534D01*
X220437435Y-158779190D01*
X219627543Y-158420363D01*
X219445171Y-158339562D01*
X219439618Y-158336937D01*
X218469331Y-157849115D01*
X218463903Y-157846218D01*
X217686276Y-157406449D01*
X217517613Y-157311065D01*
X217512353Y-157307918D01*
X216591834Y-156726121D01*
X216586710Y-156722704D01*
X215693591Y-156095080D01*
X215688593Y-156091380D01*
X214825063Y-155418533D01*
X214820278Y-155414612D01*
X214552010Y-155183554D01*
X213987669Y-154697488D01*
X213983064Y-154693320D01*
X213183653Y-153932405D01*
X213179281Y-153928033D01*
X212418488Y-153128645D01*
X212414303Y-153124023D01*
X211697108Y-152291546D01*
X211693167Y-152286737D01*
X211078057Y-151497099D01*
X211020392Y-151423072D01*
X211016713Y-151418101D01*
X210438538Y-150595478D01*
X210388990Y-150524982D01*
X210385592Y-150519887D01*
X209803772Y-149599332D01*
X209800634Y-149594085D01*
X209265479Y-148647792D01*
X209262588Y-148642376D01*
X209262577Y-148642354D01*
X208774747Y-147672052D01*
X208772135Y-147666526D01*
X208356795Y-146729175D01*
X208332516Y-146674381D01*
X208330165Y-146668705D01*
X207939363Y-145656134D01*
X207937292Y-145650352D01*
X207596098Y-144619329D01*
X207594304Y-144613426D01*
X207315261Y-143607580D01*
X207303715Y-143565960D01*
X207302216Y-143559996D01*
X207302214Y-143559989D01*
X207232613Y-143251278D01*
X216721500Y-143251278D01*
X216721500Y-144988722D01*
X216758644Y-145223241D01*
X216758645Y-145223246D01*
X216832016Y-145449058D01*
X216832018Y-145449063D01*
X216937526Y-145656134D01*
X216939817Y-145660630D01*
X216944926Y-145667662D01*
X217079380Y-145852722D01*
X217079382Y-145852724D01*
X217079384Y-145852727D01*
X217247272Y-146020615D01*
X217247275Y-146020617D01*
X217247278Y-146020620D01*
X217439373Y-146160185D01*
X217650937Y-146267982D01*
X217876759Y-146341356D01*
X218111278Y-146378500D01*
X218111281Y-146378500D01*
X218348719Y-146378500D01*
X218348722Y-146378500D01*
X218583241Y-146341356D01*
X218809063Y-146267982D01*
X219020627Y-146160185D01*
X219212722Y-146020620D01*
X219380620Y-145852722D01*
X219520185Y-145660627D01*
X219627982Y-145449063D01*
X219701356Y-145223241D01*
X219738500Y-144988722D01*
X219738500Y-143251278D01*
X238321500Y-143251278D01*
X238321500Y-144988722D01*
X238358644Y-145223241D01*
X238358645Y-145223246D01*
X238432016Y-145449058D01*
X238432018Y-145449063D01*
X238537526Y-145656134D01*
X238539817Y-145660630D01*
X238544926Y-145667662D01*
X238679380Y-145852722D01*
X238679382Y-145852724D01*
X238679384Y-145852727D01*
X238847272Y-146020615D01*
X238847275Y-146020617D01*
X238847278Y-146020620D01*
X239039373Y-146160185D01*
X239250937Y-146267982D01*
X239476759Y-146341356D01*
X239711278Y-146378500D01*
X239711281Y-146378500D01*
X239948719Y-146378500D01*
X239948722Y-146378500D01*
X240183241Y-146341356D01*
X240409063Y-146267982D01*
X240620627Y-146160185D01*
X240812722Y-146020620D01*
X240980620Y-145852722D01*
X241120185Y-145660627D01*
X241227982Y-145449063D01*
X241301356Y-145223241D01*
X241338500Y-144988722D01*
X241338500Y-143251278D01*
X241301356Y-143016759D01*
X241227982Y-142790937D01*
X241120185Y-142579373D01*
X240980620Y-142387278D01*
X240980617Y-142387275D01*
X240980615Y-142387272D01*
X240812727Y-142219384D01*
X240812724Y-142219382D01*
X240812722Y-142219380D01*
X240620627Y-142079815D01*
X240409063Y-141972018D01*
X240409060Y-141972017D01*
X240409058Y-141972016D01*
X240183246Y-141898645D01*
X240183242Y-141898644D01*
X240183241Y-141898644D01*
X239948722Y-141861500D01*
X239711278Y-141861500D01*
X239476759Y-141898644D01*
X239476753Y-141898645D01*
X239250941Y-141972016D01*
X239250935Y-141972019D01*
X239039369Y-142079817D01*
X238847275Y-142219382D01*
X238847272Y-142219384D01*
X238679384Y-142387272D01*
X238679382Y-142387275D01*
X238539817Y-142579369D01*
X238432019Y-142790935D01*
X238432016Y-142790941D01*
X238358645Y-143016753D01*
X238358644Y-143016758D01*
X238358644Y-143016759D01*
X238321500Y-143251278D01*
X219738500Y-143251278D01*
X219701356Y-143016759D01*
X219627982Y-142790937D01*
X219520185Y-142579373D01*
X219380620Y-142387278D01*
X219380617Y-142387275D01*
X219380615Y-142387272D01*
X219212727Y-142219384D01*
X219212724Y-142219382D01*
X219212722Y-142219380D01*
X219020627Y-142079815D01*
X218809063Y-141972018D01*
X218809060Y-141972017D01*
X218809058Y-141972016D01*
X218583246Y-141898645D01*
X218583242Y-141898644D01*
X218583241Y-141898644D01*
X218348722Y-141861500D01*
X218111278Y-141861500D01*
X217876759Y-141898644D01*
X217876753Y-141898645D01*
X217650941Y-141972016D01*
X217650935Y-141972019D01*
X217439369Y-142079817D01*
X217247275Y-142219382D01*
X217247272Y-142219384D01*
X217079384Y-142387272D01*
X217079382Y-142387275D01*
X216939817Y-142579369D01*
X216832019Y-142790935D01*
X216832016Y-142790941D01*
X216758645Y-143016753D01*
X216758644Y-143016758D01*
X216758644Y-143016759D01*
X216721500Y-143251278D01*
X207232613Y-143251278D01*
X207062711Y-142497694D01*
X207061503Y-142491648D01*
X206879428Y-141448566D01*
X206873793Y-141416288D01*
X206872878Y-141410155D01*
X206741360Y-140351150D01*
X206737947Y-140323668D01*
X206737336Y-140317507D01*
X206657463Y-139244360D01*
X206655783Y-139221790D01*
X206655477Y-139215615D01*
X206628192Y-138112214D01*
X206628192Y-138105986D01*
X206655191Y-137014312D01*
X206655476Y-137002786D01*
X206655782Y-136996611D01*
X206737337Y-135900871D01*
X206737949Y-135894717D01*
X206872879Y-134808233D01*
X206873794Y-134802106D01*
X206879428Y-134769833D01*
X207061504Y-133726744D01*
X207062711Y-133720704D01*
X207066501Y-133703894D01*
X207302217Y-132658398D01*
X207303716Y-132652438D01*
X207304114Y-132651003D01*
X207594310Y-131604852D01*
X207596100Y-131598963D01*
X207598248Y-131592473D01*
X207937302Y-130568016D01*
X207939347Y-130562306D01*
X208330180Y-129549651D01*
X208332507Y-129544035D01*
X208772137Y-128551670D01*
X208774744Y-128546151D01*
X209262588Y-127575921D01*
X209265458Y-127570543D01*
X209800651Y-126624282D01*
X209803802Y-126619018D01*
X210162476Y-126051402D01*
X226252000Y-126051402D01*
X226252000Y-126846000D01*
X227329297Y-126846000D01*
X227294075Y-126907007D01*
X227260000Y-127034174D01*
X227260000Y-127165826D01*
X227294075Y-127292993D01*
X227329297Y-127354000D01*
X226252000Y-127354000D01*
X226252000Y-128148597D01*
X226258505Y-128209093D01*
X226309555Y-128345964D01*
X226309555Y-128345965D01*
X226397095Y-128462904D01*
X226514034Y-128550444D01*
X226650906Y-128601494D01*
X226711402Y-128607999D01*
X226711415Y-128608000D01*
X227506000Y-128608000D01*
X227506000Y-127530702D01*
X227567007Y-127565925D01*
X227694174Y-127600000D01*
X227825826Y-127600000D01*
X227952993Y-127565925D01*
X228014000Y-127530702D01*
X228014000Y-128608000D01*
X228808585Y-128608000D01*
X228808597Y-128607999D01*
X228869093Y-128601494D01*
X229005964Y-128550444D01*
X229005965Y-128550444D01*
X229122904Y-128462904D01*
X229215847Y-128338748D01*
X229218137Y-128340462D01*
X229257984Y-128300586D01*
X229327352Y-128285470D01*
X229393881Y-128310256D01*
X229400229Y-128315332D01*
X229410584Y-128324176D01*
X229613037Y-128448240D01*
X229832406Y-128539105D01*
X230063289Y-128594535D01*
X230300000Y-128613165D01*
X230536711Y-128594535D01*
X230767594Y-128539105D01*
X230986963Y-128448240D01*
X231189416Y-128324176D01*
X231369969Y-128169969D01*
X231524176Y-127989416D01*
X231648240Y-127786963D01*
X231739105Y-127567594D01*
X231794535Y-127336711D01*
X231813165Y-127100000D01*
X231794535Y-126863289D01*
X231739105Y-126632406D01*
X231648240Y-126413037D01*
X231524176Y-126210584D01*
X231388222Y-126051402D01*
X231369969Y-126030030D01*
X231189419Y-125875826D01*
X231189417Y-125875825D01*
X231189416Y-125875824D01*
X230986963Y-125751760D01*
X230951559Y-125737095D01*
X230767592Y-125660894D01*
X230608592Y-125622722D01*
X230536711Y-125605465D01*
X230300000Y-125586835D01*
X230063289Y-125605465D01*
X229832407Y-125660894D01*
X229613038Y-125751759D01*
X229410582Y-125875825D01*
X229400235Y-125884662D01*
X229335443Y-125913690D01*
X229265244Y-125903081D01*
X229216829Y-125860516D01*
X229215847Y-125861252D01*
X229212345Y-125856574D01*
X229211924Y-125856204D01*
X229211395Y-125855305D01*
X229122904Y-125737095D01*
X229005965Y-125649555D01*
X228869093Y-125598505D01*
X228808597Y-125592000D01*
X228014000Y-125592000D01*
X228014000Y-126669297D01*
X227952993Y-126634075D01*
X227825826Y-126600000D01*
X227694174Y-126600000D01*
X227567007Y-126634075D01*
X227506000Y-126669297D01*
X227506000Y-125592000D01*
X226711402Y-125592000D01*
X226650906Y-125598505D01*
X226514035Y-125649555D01*
X226514034Y-125649555D01*
X226397095Y-125737095D01*
X226309555Y-125854034D01*
X226309555Y-125854035D01*
X226258505Y-125990906D01*
X226252000Y-126051402D01*
X210162476Y-126051402D01*
X210385573Y-125698342D01*
X210388975Y-125693239D01*
X211016740Y-124800257D01*
X211020391Y-124795326D01*
X211693157Y-123931575D01*
X211697074Y-123926794D01*
X212414335Y-123094338D01*
X212418488Y-123089752D01*
X213179275Y-122290271D01*
X213183655Y-122285890D01*
X213983082Y-121525061D01*
X213987666Y-121520911D01*
X214820282Y-120803682D01*
X214825045Y-120799779D01*
X215688624Y-120126995D01*
X215693578Y-120123327D01*
X216586733Y-119495678D01*
X216591797Y-119492301D01*
X217512354Y-118910380D01*
X217517629Y-118907225D01*
X218463921Y-118372071D01*
X218469313Y-118369192D01*
X219439692Y-117881423D01*
X219445137Y-117878849D01*
X220437432Y-117439009D01*
X220443084Y-117436668D01*
X221455595Y-117045951D01*
X221461312Y-117043903D01*
X222492428Y-116702777D01*
X222498224Y-116701016D01*
X223545846Y-116410214D01*
X223551802Y-116408717D01*
X224614203Y-116169210D01*
X224620192Y-116168013D01*
X225695516Y-115980391D01*
X225701635Y-115979478D01*
X226788025Y-115844548D01*
X226794188Y-115843936D01*
X227890028Y-115762381D01*
X227896185Y-115762075D01*
X228999496Y-115734692D01*
X229005700Y-115734692D01*
X230108894Y-115762076D01*
G37*
%TD.AperFunction*%
%TD*%
M02*
