%TF.GenerationSoftware,KiCad,Pcbnew,8.0.5*%
%TF.CreationDate,2025-02-18T13:06:51+00:00*%
%TF.ProjectId,bat-design,6261742d-6465-4736-9967-6e2e6b696361,v1*%
%TF.SameCoordinates,Original*%
%TF.FileFunction,Copper,L2,Bot*%
%TF.FilePolarity,Positive*%
%FSLAX46Y46*%
G04 Gerber Fmt 4.6, Leading zero omitted, Abs format (unit mm)*
G04 Created by KiCad (PCBNEW 8.0.5) date 2025-02-18 13:06:51*
%MOMM*%
%LPD*%
G01*
G04 APERTURE LIST*
%TA.AperFunction,ComponentPad*%
%ADD10R,2.000000X2.000000*%
%TD*%
%TA.AperFunction,ComponentPad*%
%ADD11C,2.000000*%
%TD*%
%TA.AperFunction,ComponentPad*%
%ADD12C,1.600000*%
%TD*%
%TA.AperFunction,ComponentPad*%
%ADD13O,1.600000X1.600000*%
%TD*%
%TA.AperFunction,ComponentPad*%
%ADD14O,2.000000X3.500000*%
%TD*%
%TA.AperFunction,SMDPad,CuDef*%
%ADD15C,5.000000*%
%TD*%
%TA.AperFunction,ComponentPad*%
%ADD16C,1.524000*%
%TD*%
%TA.AperFunction,Conductor*%
%ADD17C,0.250000*%
%TD*%
G04 APERTURE END LIST*
D10*
%TO.P,D1,1*%
%TO.N,GND*%
X93345000Y-149707600D03*
D11*
%TO.P,D1,2*%
%TO.N,Net-(D1-Pad2)*%
X90805000Y-149707600D03*
%TD*%
D10*
%TO.P,D2,1*%
%TO.N,GND*%
X96799400Y-149733000D03*
D11*
%TO.P,D2,2*%
%TO.N,Net-(D2-Pad2)*%
X99339400Y-149733000D03*
%TD*%
D12*
%TO.P,R1,1*%
%TO.N,Net-(R1-Pad1)*%
X47117000Y-160985200D03*
D13*
%TO.P,R1,2*%
%TO.N,Net-(D1-Pad2)*%
X47117000Y-153365200D03*
%TD*%
D12*
%TO.P,R2,1*%
%TO.N,Net-(R1-Pad1)*%
X142849600Y-161061400D03*
D13*
%TO.P,R2,2*%
%TO.N,Net-(D2-Pad2)*%
X142849600Y-153441400D03*
%TD*%
D14*
%TO.P,Battery:CR2032,1*%
%TO.N,Net-(BAT1-Pad1)*%
X84216400Y-170586400D03*
%TO.P,Battery:CR2032,2*%
X105816400Y-170586400D03*
D15*
%TO.P,Battery:CR2032,3*%
%TO.N,GND*%
X95016400Y-171856400D03*
%TD*%
D16*
%TO.P,switch,1*%
%TO.N,Net-(BAT1-Pad1)*%
X92481400Y-156743400D03*
%TO.P,switch,2*%
%TO.N,Net-(R1-Pad1)*%
X95021400Y-156743400D03*
%TO.P,switch,3*%
%TO.N,N/C*%
X97561400Y-156743400D03*
%TD*%
D17*
%TO.N,Net-(BAT1-Pad1)*%
X103809800Y-163474400D02*
X105816400Y-165481000D01*
X92481400Y-157821030D02*
X98134770Y-163474400D01*
X92481400Y-156743400D02*
X92481400Y-157821030D01*
X105816400Y-170586400D02*
X105816400Y-165481000D01*
X98134770Y-163474400D02*
X103809800Y-163474400D01*
X84216400Y-165008400D02*
X92481400Y-156743400D01*
X84216400Y-170586400D02*
X84216400Y-165008400D01*
%TO.N,Net-(D1-Pad2)*%
X75565000Y-154813000D02*
X75615800Y-154762200D01*
X90805000Y-151688800D02*
X88392000Y-154101800D01*
X90805000Y-149707600D02*
X90805000Y-151688800D01*
X75615800Y-154762200D02*
X87731600Y-154762200D01*
X87731600Y-154762200D02*
X88392000Y-154101800D01*
X74853800Y-154101800D02*
X75565000Y-154813000D01*
X74117200Y-153365200D02*
X74853800Y-154101800D01*
X47117000Y-153365200D02*
X74117200Y-153365200D01*
%TO.N,Net-(D2-Pad2)*%
X119100600Y-154584400D02*
X120243600Y-153441400D01*
X120243600Y-153441400D02*
X142849600Y-153441400D01*
X99339400Y-149733000D02*
X99339400Y-152044400D01*
X99339400Y-152044400D02*
X101879400Y-154584400D01*
X101879400Y-154584400D02*
X119100600Y-154584400D01*
%TO.N,Net-(R1-Pad1)*%
X123266200Y-157988000D02*
X126339600Y-161061400D01*
X47117000Y-160985200D02*
X63449200Y-160985200D01*
X63449200Y-160985200D02*
X81635600Y-179171600D01*
X95021400Y-156743400D02*
X96266000Y-157988000D01*
X96266000Y-157988000D02*
X123266200Y-157988000D01*
X108229400Y-179171600D02*
X126339600Y-161061400D01*
X126339600Y-161061400D02*
X142849600Y-161061400D01*
X81635600Y-179171600D02*
X108229400Y-179171600D01*
%TD*%
%TA.AperFunction,Conductor*%
%TO.N,GND*%
G36*
X87291834Y-142642476D02*
G01*
X87305430Y-142643752D01*
X87321197Y-142646248D01*
X87425416Y-142669593D01*
X87442123Y-142674571D01*
X87697761Y-142770463D01*
X87711795Y-142776729D01*
X87999685Y-142926982D01*
X88008135Y-142931817D01*
X88323214Y-143128634D01*
X88328727Y-143132282D01*
X88662277Y-143365817D01*
X88666303Y-143368757D01*
X89008660Y-143629325D01*
X89012796Y-143632613D01*
X89698856Y-144201899D01*
X89702500Y-144205042D01*
X90318051Y-144756832D01*
X90320484Y-144759071D01*
X90328335Y-144766490D01*
X90825711Y-145236474D01*
X90827869Y-145238563D01*
X91287074Y-145693678D01*
X91291363Y-145699797D01*
X91317153Y-145723601D01*
X91320390Y-145726698D01*
X91333107Y-145739302D01*
X91334679Y-145739912D01*
X91334820Y-145739906D01*
X91334821Y-145739907D01*
X91352578Y-145739194D01*
X91357061Y-145739095D01*
X91374843Y-145739016D01*
X91374843Y-145739015D01*
X91374978Y-145739015D01*
X91376530Y-145738331D01*
X91376621Y-145738232D01*
X91376623Y-145738232D01*
X91388708Y-145725136D01*
X91391739Y-145721966D01*
X91404293Y-145709302D01*
X91404292Y-145709300D01*
X91416475Y-145697010D01*
X91420489Y-145690701D01*
X91621607Y-145472790D01*
X91626135Y-145468134D01*
X91846741Y-145252830D01*
X91852216Y-145247796D01*
X92066359Y-145062285D01*
X92072806Y-145057063D01*
X92281594Y-144899120D01*
X92289019Y-144893915D01*
X92493547Y-144761314D01*
X92501910Y-144756342D01*
X92703466Y-144646825D01*
X92712558Y-144642350D01*
X92859059Y-144577438D01*
X92912846Y-144553606D01*
X92922293Y-144549868D01*
X93123033Y-144479665D01*
X93132170Y-144476853D01*
X93339997Y-144421466D01*
X93348214Y-144419570D01*
X93558263Y-144378427D01*
X93568221Y-144376888D01*
X94014634Y-144326144D01*
X94023167Y-144325468D01*
X94501735Y-144303959D01*
X94504667Y-144303862D01*
X95023980Y-144292740D01*
X95029754Y-144292749D01*
X95540643Y-144305516D01*
X95544474Y-144305671D01*
X96018120Y-144332342D01*
X96027152Y-144333177D01*
X96471864Y-144390534D01*
X96481747Y-144392211D01*
X96692091Y-144436584D01*
X96700011Y-144438526D01*
X96883946Y-144490011D01*
X96908318Y-144496833D01*
X96917009Y-144499608D01*
X97118636Y-144572147D01*
X97127584Y-144575759D01*
X97255858Y-144633343D01*
X97323870Y-144663875D01*
X97328649Y-144666020D01*
X97337286Y-144670302D01*
X97356652Y-144680844D01*
X97539352Y-144780300D01*
X97547330Y-144785032D01*
X97751917Y-144916787D01*
X97759088Y-144921764D01*
X97943811Y-145059718D01*
X97967361Y-145077305D01*
X97973654Y-145082326D01*
X98182800Y-145260436D01*
X98186577Y-145263652D01*
X98191960Y-145268510D01*
X98405618Y-145472821D01*
X98410631Y-145477614D01*
X98415164Y-145482175D01*
X98528420Y-145602137D01*
X98612655Y-145691360D01*
X98615130Y-145695213D01*
X98642735Y-145723261D01*
X98644551Y-145725145D01*
X98657671Y-145739041D01*
X98658633Y-145739461D01*
X98658680Y-145739461D01*
X98658681Y-145739462D01*
X98677787Y-145739613D01*
X98680310Y-145739659D01*
X98699458Y-145740211D01*
X98699458Y-145740210D01*
X98699504Y-145740212D01*
X98700480Y-145739828D01*
X98700513Y-145739794D01*
X98700515Y-145739795D01*
X98714101Y-145726422D01*
X98715952Y-145724638D01*
X98718838Y-145721913D01*
X98729878Y-145711491D01*
X98729878Y-145711490D01*
X98744657Y-145697537D01*
X98747269Y-145693777D01*
X99362465Y-145088290D01*
X99365123Y-145085751D01*
X100014836Y-144483961D01*
X100018243Y-144480919D01*
X100780368Y-143825435D01*
X100784242Y-143822237D01*
X101184910Y-143504880D01*
X101188877Y-143501865D01*
X101582651Y-143214850D01*
X101588468Y-143210857D01*
X101962271Y-142969412D01*
X101971364Y-142964066D01*
X102314775Y-142781160D01*
X102325367Y-142776138D01*
X102475963Y-142713168D01*
X102486430Y-142709328D01*
X102623789Y-142665739D01*
X102638838Y-142661967D01*
X102757861Y-142639827D01*
X102778977Y-142637718D01*
X102875919Y-142636252D01*
X102905599Y-142639338D01*
X102910648Y-142640479D01*
X102979376Y-142656013D01*
X103013921Y-142669406D01*
X103070160Y-142701415D01*
X103100695Y-142725758D01*
X103146910Y-142776153D01*
X103167610Y-142806729D01*
X103207271Y-142889243D01*
X103215559Y-142911760D01*
X103254141Y-143058362D01*
X103256709Y-143070533D01*
X103284412Y-143243766D01*
X103285838Y-143257410D01*
X103306624Y-143675713D01*
X103306621Y-143688272D01*
X103282358Y-144172430D01*
X103281653Y-144180845D01*
X103218234Y-144719958D01*
X103217391Y-144725898D01*
X103121004Y-145305740D01*
X103120182Y-145310194D01*
X102996809Y-145916722D01*
X102996055Y-145920180D01*
X102851750Y-146539959D01*
X102851087Y-146542669D01*
X102692443Y-147161647D01*
X102691601Y-147164764D01*
X102357134Y-148343298D01*
X102356216Y-148346383D01*
X102038905Y-149364686D01*
X102037983Y-149367525D01*
X101647025Y-150524891D01*
X101644609Y-150531441D01*
X101638516Y-150546643D01*
X101638610Y-150549051D01*
X101645874Y-150563726D01*
X101648796Y-150570066D01*
X102070532Y-151556034D01*
X102072729Y-151561522D01*
X102451184Y-152575382D01*
X102455809Y-152595707D01*
X102462422Y-152608322D01*
X102468867Y-152622753D01*
X102472868Y-152633472D01*
X102475738Y-152636189D01*
X102477284Y-152636671D01*
X102477285Y-152636673D01*
X102486660Y-152639599D01*
X102501423Y-152645247D01*
X102510363Y-152649327D01*
X102510363Y-152649326D01*
X102511834Y-152649998D01*
X102515785Y-152649890D01*
X102517218Y-152649138D01*
X102517219Y-152649139D01*
X102525916Y-152644579D01*
X102540350Y-152638132D01*
X102549558Y-152634696D01*
X102549558Y-152634694D01*
X102553704Y-152633147D01*
X102570711Y-152621097D01*
X104466162Y-151627493D01*
X104467652Y-151626726D01*
X106389784Y-150654524D01*
X106391590Y-150653630D01*
X108291429Y-149732767D01*
X108293537Y-149731772D01*
X110155844Y-148874914D01*
X110158504Y-148873729D01*
X111469683Y-148308148D01*
X140342740Y-148308148D01*
X140346216Y-148325618D01*
X140355112Y-148500471D01*
X140353431Y-148518128D01*
X140356329Y-148537057D01*
X140357617Y-148549714D01*
X140358591Y-148568854D01*
X140363796Y-148585813D01*
X140389544Y-148753956D01*
X140389619Y-148771194D01*
X140391500Y-148778580D01*
X140391500Y-148778581D01*
X140394505Y-148790384D01*
X140394538Y-148790511D01*
X140396981Y-148802525D01*
X140400002Y-148822247D01*
X140406667Y-148838146D01*
X140447696Y-148999262D01*
X140449534Y-149016927D01*
X140456102Y-149034883D01*
X140459871Y-149047067D01*
X140464588Y-149065592D01*
X140473044Y-149081203D01*
X140529298Y-149235005D01*
X140532904Y-149252360D01*
X140541269Y-149269603D01*
X140546237Y-149281316D01*
X140552825Y-149299328D01*
X140562798Y-149313982D01*
X140633392Y-149459506D01*
X140638368Y-149475471D01*
X140649141Y-149493235D01*
X140654769Y-149503574D01*
X140663837Y-149522266D01*
X140674532Y-149535098D01*
X140757384Y-149671702D01*
X140764040Y-149687561D01*
X140776032Y-149703593D01*
X140782867Y-149713720D01*
X140793249Y-149730838D01*
X140805462Y-149742934D01*
X140900793Y-149870373D01*
X140908745Y-149885172D01*
X140914136Y-149891118D01*
X140914136Y-149891120D01*
X140922612Y-149900470D01*
X140930136Y-149909598D01*
X140937692Y-149919699D01*
X140942506Y-149926134D01*
X140955509Y-149936760D01*
X141061963Y-150054187D01*
X141071579Y-150068580D01*
X141086279Y-150081909D01*
X141094994Y-150090625D01*
X141108317Y-150105321D01*
X141122699Y-150114932D01*
X141240498Y-150221746D01*
X141240513Y-150221759D01*
X141251068Y-150234688D01*
X141257574Y-150239564D01*
X141257575Y-150239565D01*
X141267718Y-150247166D01*
X141276783Y-150254647D01*
X141286174Y-150263162D01*
X141292203Y-150268629D01*
X141306903Y-150276535D01*
X141433845Y-150371675D01*
X141445903Y-150383871D01*
X141452484Y-150387874D01*
X141452485Y-150387875D01*
X141463057Y-150394305D01*
X141473147Y-150401132D01*
X141489222Y-150413180D01*
X141505022Y-150419830D01*
X141536758Y-150439134D01*
X141641749Y-150502996D01*
X141655098Y-150514095D01*
X141672890Y-150522649D01*
X141683771Y-150528555D01*
X141694228Y-150534916D01*
X141694228Y-150534915D01*
X141700650Y-150538822D01*
X141717226Y-150543967D01*
X141863185Y-150614147D01*
X141877482Y-150623837D01*
X141884611Y-150626443D01*
X141884612Y-150626445D01*
X141896154Y-150630665D01*
X141907483Y-150635447D01*
X141925412Y-150644068D01*
X141942331Y-150647550D01*
X142096209Y-150703815D01*
X142111464Y-150712105D01*
X142118739Y-150713980D01*
X142118740Y-150713981D01*
X142130600Y-150717037D01*
X142142410Y-150720709D01*
X142153903Y-150724912D01*
X142153903Y-150724911D01*
X142160963Y-150727493D01*
X142178225Y-150729312D01*
X142337706Y-150770417D01*
X142338865Y-150770716D01*
X142355152Y-150777569D01*
X142362292Y-150778659D01*
X142362293Y-150778660D01*
X142374182Y-150780476D01*
X142386592Y-150783017D01*
X142398252Y-150786023D01*
X142398252Y-150786022D01*
X142405252Y-150787827D01*
X142422921Y-150787924D01*
X142591054Y-150813619D01*
X142608039Y-150818823D01*
X142615166Y-150819182D01*
X142615167Y-150819183D01*
X142627122Y-150819785D01*
X142639805Y-150821070D01*
X142651649Y-150822880D01*
X142651649Y-150822879D01*
X142658721Y-150823960D01*
X142676399Y-150822268D01*
X142676558Y-150822276D01*
X142851706Y-150831102D01*
X142869077Y-150834555D01*
X142876259Y-150834191D01*
X142876260Y-150834192D01*
X142888255Y-150833584D01*
X142900947Y-150833584D01*
X142912950Y-150834189D01*
X142912950Y-150834188D01*
X142920133Y-150834550D01*
X142937497Y-150831094D01*
X143111811Y-150822276D01*
X143129465Y-150823963D01*
X143136550Y-150822879D01*
X143136551Y-150822880D01*
X143148397Y-150821069D01*
X143161060Y-150819785D01*
X143173043Y-150819179D01*
X143173043Y-150819178D01*
X143180204Y-150818816D01*
X143197164Y-150813616D01*
X143365235Y-150787930D01*
X143382771Y-150787842D01*
X143389891Y-150786014D01*
X143389893Y-150786015D01*
X143401653Y-150782996D01*
X143413924Y-150780491D01*
X143425907Y-150778660D01*
X143425907Y-150778659D01*
X143433177Y-150777548D01*
X143449336Y-150770757D01*
X143610962Y-150729273D01*
X143628362Y-150727448D01*
X143635296Y-150724911D01*
X143635297Y-150724912D01*
X143646704Y-150720740D01*
X143658642Y-150717035D01*
X143670416Y-150714014D01*
X143670416Y-150714012D01*
X143677574Y-150712176D01*
X143692951Y-150703829D01*
X143846940Y-150647523D01*
X143864088Y-150643978D01*
X143870727Y-150640770D01*
X143870729Y-150640771D01*
X143881668Y-150635486D01*
X143893187Y-150630613D01*
X143904588Y-150626445D01*
X143904588Y-150626444D01*
X143911509Y-150623914D01*
X143925995Y-150614075D01*
X144071019Y-150544024D01*
X144087361Y-150538936D01*
X144093970Y-150534915D01*
X144093972Y-150534916D01*
X144104582Y-150528461D01*
X144115225Y-150522672D01*
X144126400Y-150517275D01*
X144126400Y-150517273D01*
X144133376Y-150513904D01*
X144146522Y-150502950D01*
X144283077Y-150419890D01*
X144298579Y-150413387D01*
X144305014Y-150408588D01*
X144305016Y-150408589D01*
X144315123Y-150401051D01*
X144324942Y-150394426D01*
X144335715Y-150387875D01*
X144335715Y-150387873D01*
X144342576Y-150383701D01*
X144354404Y-150371764D01*
X144482321Y-150276390D01*
X144497653Y-150268140D01*
X144503168Y-150263109D01*
X144503170Y-150263110D01*
X144512192Y-150254881D01*
X144521757Y-150246987D01*
X144531556Y-150239682D01*
X144531556Y-150239679D01*
X144537547Y-150235213D01*
X144548552Y-150221726D01*
X144665484Y-150115099D01*
X144679205Y-150105934D01*
X144684811Y-150099787D01*
X144684813Y-150099787D01*
X144693443Y-150090324D01*
X144701632Y-150082138D01*
X144701883Y-150081909D01*
X144711083Y-150073521D01*
X144711083Y-150073520D01*
X144717226Y-150067919D01*
X144726395Y-150054199D01*
X144833576Y-149936697D01*
X144846927Y-149925823D01*
X144851507Y-149919700D01*
X144851508Y-149919700D01*
X144858896Y-149909822D01*
X144866693Y-149900391D01*
X144875007Y-149891278D01*
X144875006Y-149891276D01*
X144880160Y-149885627D01*
X144888329Y-149870475D01*
X144983736Y-149742934D01*
X144995949Y-149730837D01*
X144999929Y-149724274D01*
X144999931Y-149724274D01*
X145006337Y-149713709D01*
X145013167Y-149703593D01*
X145020568Y-149693700D01*
X145020567Y-149693698D01*
X145025162Y-149687557D01*
X145031819Y-149671695D01*
X145038522Y-149660643D01*
X145114747Y-149534965D01*
X145125746Y-149521718D01*
X145129057Y-149514827D01*
X145129058Y-149514827D01*
X145134399Y-149503709D01*
X145140236Y-149492940D01*
X145146592Y-149482460D01*
X145146627Y-149482403D01*
X145146626Y-149482402D01*
X145150591Y-149475866D01*
X145155681Y-149459419D01*
X145225558Y-149314003D01*
X145235218Y-149299753D01*
X145237840Y-149292582D01*
X145237842Y-149292582D01*
X145242080Y-149280992D01*
X145246842Y-149269711D01*
X145246844Y-149269707D01*
X145252178Y-149258608D01*
X145252177Y-149258607D01*
X145255487Y-149251720D01*
X145258960Y-149234841D01*
X145315100Y-149081354D01*
X145323336Y-149066219D01*
X145328293Y-149047067D01*
X145328332Y-149046912D01*
X145331975Y-149035217D01*
X145336213Y-149023632D01*
X145336212Y-149023630D01*
X145338833Y-149016466D01*
X145340649Y-148999325D01*
X145382369Y-148838140D01*
X145389270Y-148821775D01*
X145390355Y-148814693D01*
X145392164Y-148802871D01*
X145394729Y-148790387D01*
X145397731Y-148778793D01*
X145397730Y-148778792D01*
X145399520Y-148771879D01*
X145399631Y-148754108D01*
X145399642Y-148754039D01*
X145425403Y-148585808D01*
X145430606Y-148568854D01*
X145430970Y-148561698D01*
X145430972Y-148561697D01*
X145431582Y-148549698D01*
X145432870Y-148537050D01*
X145433019Y-148536081D01*
X145434684Y-148525207D01*
X145434683Y-148525206D01*
X145435769Y-148518122D01*
X145434086Y-148500468D01*
X145442983Y-148325610D01*
X145446459Y-148308145D01*
X145445491Y-148289136D01*
X145445491Y-148276321D01*
X145446098Y-148264406D01*
X145446097Y-148264405D01*
X145446458Y-148257321D01*
X145442984Y-148239852D01*
X145435505Y-148092857D01*
X145434087Y-148064990D01*
X145435770Y-148047333D01*
X145434445Y-148038680D01*
X145432869Y-148028391D01*
X145431582Y-148015748D01*
X145430972Y-148003753D01*
X145430970Y-148003751D01*
X145430607Y-147996603D01*
X145425404Y-147979642D01*
X145419936Y-147943938D01*
X145399630Y-147811339D01*
X145399521Y-147793574D01*
X145394730Y-147775061D01*
X145392163Y-147762571D01*
X145390352Y-147750739D01*
X145390350Y-147750738D01*
X145389270Y-147743681D01*
X145382370Y-147727312D01*
X145340650Y-147566127D01*
X145338834Y-147548986D01*
X145336212Y-147541818D01*
X145336213Y-147541818D01*
X145331976Y-147530235D01*
X145328331Y-147518531D01*
X145328310Y-147518451D01*
X145325247Y-147506615D01*
X145325246Y-147506614D01*
X145323337Y-147499236D01*
X145315102Y-147484099D01*
X145258958Y-147330599D01*
X145255487Y-147313731D01*
X145252177Y-147306844D01*
X145252178Y-147306843D01*
X145246833Y-147295721D01*
X145242074Y-147284440D01*
X145240485Y-147280096D01*
X145237842Y-147272868D01*
X145237841Y-147272867D01*
X145235222Y-147265705D01*
X145225560Y-147251448D01*
X145155683Y-147106026D01*
X145150597Y-147089588D01*
X145146591Y-147082983D01*
X145140227Y-147072488D01*
X145134397Y-147061726D01*
X145133999Y-147060898D01*
X145129058Y-147050614D01*
X145129057Y-147050613D01*
X145125745Y-147043720D01*
X145114749Y-147030474D01*
X145031811Y-146893705D01*
X145025151Y-146877833D01*
X145020566Y-146871706D01*
X145020567Y-146871706D01*
X145013171Y-146861822D01*
X145006326Y-146851679D01*
X144995973Y-146834606D01*
X144983743Y-146822488D01*
X144888333Y-146694965D01*
X144880158Y-146679803D01*
X144866697Y-146665050D01*
X144858889Y-146655610D01*
X144851504Y-146645738D01*
X144851503Y-146645737D01*
X144846930Y-146639625D01*
X144833577Y-146628748D01*
X144726396Y-146511273D01*
X144717231Y-146497562D01*
X144701617Y-146483325D01*
X144693430Y-146475141D01*
X144679202Y-146459546D01*
X144665487Y-146450384D01*
X144548563Y-146343779D01*
X144537582Y-146330319D01*
X144521760Y-146318516D01*
X144512209Y-146310632D01*
X144497631Y-146297341D01*
X144482330Y-146289105D01*
X144354393Y-146193676D01*
X144342532Y-146181707D01*
X144335710Y-146177559D01*
X144335710Y-146177558D01*
X144324957Y-146171019D01*
X144315111Y-146164376D01*
X144305027Y-146156854D01*
X144305026Y-146156854D01*
X144298629Y-146152082D01*
X144283090Y-146145562D01*
X144146528Y-146062525D01*
X144133396Y-146051585D01*
X144115224Y-146042807D01*
X144104576Y-146037016D01*
X144093964Y-146030563D01*
X144093963Y-146030563D01*
X144087332Y-146026531D01*
X144071013Y-146021449D01*
X143926000Y-145951397D01*
X143911509Y-145941554D01*
X143893189Y-145934856D01*
X143881662Y-145929979D01*
X143870731Y-145924699D01*
X143864101Y-145921496D01*
X143846948Y-145917948D01*
X143755861Y-145884642D01*
X143692953Y-145861639D01*
X143677597Y-145853303D01*
X143670421Y-145851460D01*
X143658633Y-145848432D01*
X143646721Y-145844735D01*
X143635297Y-145840558D01*
X143628345Y-145838016D01*
X143610961Y-145836191D01*
X143610910Y-145836178D01*
X143449341Y-145794688D01*
X143433164Y-145787889D01*
X143413934Y-145784950D01*
X143401638Y-145782438D01*
X143389900Y-145779424D01*
X143389899Y-145779424D01*
X143382800Y-145777601D01*
X143365249Y-145777509D01*
X143197161Y-145751822D01*
X143180209Y-145746625D01*
X143173045Y-145746262D01*
X143164059Y-145745807D01*
X143161057Y-145745655D01*
X143148396Y-145744370D01*
X143129466Y-145741477D01*
X143111823Y-145743161D01*
X142939989Y-145734462D01*
X142923365Y-145730716D01*
X142903717Y-145731706D01*
X142900980Y-145731844D01*
X142900960Y-145731845D01*
X142888260Y-145731843D01*
X142865854Y-145730710D01*
X142849221Y-145734453D01*
X142676382Y-145743169D01*
X142658710Y-145741480D01*
X142639812Y-145744368D01*
X142627130Y-145745654D01*
X142608035Y-145746617D01*
X142591056Y-145751819D01*
X142422912Y-145777515D01*
X142405234Y-145777614D01*
X142386595Y-145782420D01*
X142374181Y-145784962D01*
X142355168Y-145787868D01*
X142338869Y-145794727D01*
X142178221Y-145836153D01*
X142160974Y-145837972D01*
X142142395Y-145844765D01*
X142130597Y-145848433D01*
X142111453Y-145853370D01*
X142096212Y-145861652D01*
X141942323Y-145917921D01*
X141925401Y-145921406D01*
X141907469Y-145930028D01*
X141896150Y-145934805D01*
X141884612Y-145939025D01*
X141884611Y-145939025D01*
X141877484Y-145941632D01*
X141863191Y-145951320D01*
X141717233Y-146021507D01*
X141700679Y-146026644D01*
X141683763Y-146036930D01*
X141672917Y-146042817D01*
X141655070Y-146051400D01*
X141641744Y-146062480D01*
X141505014Y-146145619D01*
X141489173Y-146152289D01*
X141473149Y-146164303D01*
X141463038Y-146171144D01*
X141445936Y-146181543D01*
X141433857Y-146193763D01*
X141306895Y-146288959D01*
X141292227Y-146296850D01*
X141276757Y-146310875D01*
X141267725Y-146318329D01*
X141251030Y-146330847D01*
X141240505Y-146343741D01*
X141122702Y-146450546D01*
X141108325Y-146460152D01*
X141094984Y-146474864D01*
X141086286Y-146483562D01*
X141071572Y-146496903D01*
X141061962Y-146511285D01*
X140955512Y-146628682D01*
X140942502Y-146639313D01*
X140930141Y-146655834D01*
X140922604Y-146664977D01*
X140908744Y-146680263D01*
X140900793Y-146695060D01*
X140805457Y-146822487D01*
X140793228Y-146834603D01*
X140782865Y-146851692D01*
X140776019Y-146861834D01*
X140764050Y-146877831D01*
X140757389Y-146893702D01*
X140674531Y-147030339D01*
X140663835Y-147043175D01*
X140654766Y-147061872D01*
X140649140Y-147072209D01*
X140638364Y-147089979D01*
X140633394Y-147105928D01*
X140562790Y-147251479D01*
X140552821Y-147266130D01*
X140546235Y-147284136D01*
X140541274Y-147295834D01*
X140532902Y-147313095D01*
X140529298Y-147330444D01*
X140504120Y-147399282D01*
X140473041Y-147484254D01*
X140464585Y-147499868D01*
X140459869Y-147518387D01*
X140456102Y-147530564D01*
X140449533Y-147548525D01*
X140447695Y-147566190D01*
X140406666Y-147727309D01*
X140400000Y-147743211D01*
X140396979Y-147762932D01*
X140394537Y-147774939D01*
X140389617Y-147794262D01*
X140389543Y-147811496D01*
X140363794Y-147979644D01*
X140358591Y-147996601D01*
X140357617Y-148015737D01*
X140356329Y-148028391D01*
X140353430Y-148047328D01*
X140355112Y-148064983D01*
X140346214Y-148239857D01*
X140342741Y-148257324D01*
X140343708Y-148276328D01*
X140343708Y-148289128D01*
X140342740Y-148308148D01*
X111469683Y-148308148D01*
X111968836Y-148092837D01*
X111971166Y-148091862D01*
X112851187Y-147734191D01*
X112852884Y-147733517D01*
X113714527Y-147399347D01*
X113716517Y-147398596D01*
X114557437Y-147089681D01*
X114559719Y-147088868D01*
X115377771Y-146806811D01*
X115380408Y-146805935D01*
X116173947Y-146552202D01*
X116176993Y-146551270D01*
X116944154Y-146327327D01*
X116947093Y-146326508D01*
X118215729Y-145989967D01*
X118218186Y-145989342D01*
X119509275Y-145675192D01*
X119511640Y-145674641D01*
X120822666Y-145382599D01*
X120824847Y-145382134D01*
X122153299Y-145111934D01*
X122155346Y-145111537D01*
X123498874Y-144862837D01*
X123500796Y-144862498D01*
X124856992Y-144635022D01*
X124858920Y-144634715D01*
X126225396Y-144428166D01*
X126227292Y-144427895D01*
X127601578Y-144241938D01*
X127603396Y-144241706D01*
X128983124Y-144076044D01*
X128984940Y-144075840D01*
X129113920Y-144062251D01*
X130367698Y-143930156D01*
X130369254Y-143930002D01*
X131753027Y-143803965D01*
X131754644Y-143803830D01*
X133137306Y-143697160D01*
X133138946Y-143697044D01*
X134516756Y-143609413D01*
X134518133Y-143609335D01*
X135890013Y-143540432D01*
X135891640Y-143540361D01*
X137253293Y-143489878D01*
X137254796Y-143489832D01*
X138606720Y-143457430D01*
X138608209Y-143457405D01*
X139945987Y-143442788D01*
X139947434Y-143442781D01*
X141269406Y-143445637D01*
X141270983Y-143445651D01*
X142574635Y-143465655D01*
X142576318Y-143465692D01*
X143858925Y-143502512D01*
X143860612Y-143502572D01*
X145119280Y-143555913D01*
X145120810Y-143555988D01*
X146355468Y-143625526D01*
X146357260Y-143625641D01*
X147562784Y-143711044D01*
X147564497Y-143711178D01*
X148740079Y-143812141D01*
X148741846Y-143812307D01*
X149885146Y-143928493D01*
X149887010Y-143928698D01*
X150994220Y-144059787D01*
X150996213Y-144060041D01*
X152066159Y-144205696D01*
X152068410Y-144206024D01*
X153098104Y-144365899D01*
X153100461Y-144366289D01*
X154087984Y-144540097D01*
X154090636Y-144540594D01*
X155033650Y-144727912D01*
X155036614Y-144728538D01*
X155931276Y-144929056D01*
X155934463Y-144929814D01*
X156777666Y-145142408D01*
X156785553Y-145144673D01*
X157081119Y-145240114D01*
X157097721Y-145246813D01*
X157306772Y-145349015D01*
X157324016Y-145359219D01*
X157357203Y-145382610D01*
X157390541Y-145406108D01*
X157405273Y-145418263D01*
X157453536Y-145464664D01*
X157469046Y-145482692D01*
X157498444Y-145524224D01*
X157512477Y-145549947D01*
X157517004Y-145561187D01*
X157527568Y-145587417D01*
X157535530Y-145617429D01*
X157540767Y-145655757D01*
X157541332Y-145685044D01*
X157537117Y-145728266D01*
X157531925Y-145753783D01*
X157516052Y-145804335D01*
X157507658Y-145824661D01*
X157479075Y-145879698D01*
X157466955Y-145898672D01*
X157356343Y-146041807D01*
X157342706Y-146056790D01*
X157175560Y-146213099D01*
X157165941Y-146221232D01*
X156942464Y-146391788D01*
X156935889Y-146396480D01*
X156664022Y-146577634D01*
X156657576Y-146581655D01*
X155982524Y-146974885D01*
X155977700Y-146977555D01*
X155166566Y-147403669D01*
X155164512Y-147404724D01*
X154251868Y-147863025D01*
X154251678Y-147863120D01*
X153316479Y-148330775D01*
X153314142Y-148331430D01*
X153276465Y-148350777D01*
X153275270Y-148351382D01*
X153237219Y-148370411D01*
X153235300Y-148371916D01*
X152312047Y-148846051D01*
X152306983Y-148847564D01*
X152273328Y-148865895D01*
X152270663Y-148867305D01*
X152264243Y-148870602D01*
X152236555Y-148884821D01*
X152232448Y-148888161D01*
X151317726Y-149386399D01*
X151310154Y-149388921D01*
X151280689Y-149406467D01*
X151276500Y-149408854D01*
X151246359Y-149425272D01*
X151240325Y-149430501D01*
X150368035Y-149949914D01*
X150359977Y-149952963D01*
X150332072Y-149971201D01*
X150327608Y-149973987D01*
X150298942Y-149991057D01*
X150292658Y-149996961D01*
X149921662Y-150239445D01*
X149915019Y-150242251D01*
X149886022Y-150262652D01*
X149882464Y-150265065D01*
X149852777Y-150284470D01*
X149847707Y-150289609D01*
X149498898Y-150535021D01*
X149490694Y-150538874D01*
X149464833Y-150558836D01*
X149460351Y-150562141D01*
X149433617Y-150580951D01*
X149427513Y-150587647D01*
X149106698Y-150835310D01*
X149097759Y-150840035D01*
X149074122Y-150860257D01*
X149069214Y-150864246D01*
X149044636Y-150883221D01*
X149038182Y-150891009D01*
X148746775Y-151140341D01*
X148736142Y-151146768D01*
X148716438Y-151165956D01*
X148710457Y-151171417D01*
X148689544Y-151189311D01*
X148682179Y-151199318D01*
X148425042Y-151449722D01*
X148413136Y-151458133D01*
X148397208Y-151476286D01*
X148390409Y-151483448D01*
X148373107Y-151500298D01*
X148365325Y-151512625D01*
X148145348Y-151763349D01*
X148132099Y-151774589D01*
X148120600Y-151790636D01*
X148112901Y-151800335D01*
X148099896Y-151815158D01*
X148091960Y-151830605D01*
X147912669Y-152080820D01*
X147898887Y-152095362D01*
X147891408Y-152108964D01*
X147883423Y-152121637D01*
X147874393Y-152134239D01*
X147867224Y-152152949D01*
X147730671Y-152401322D01*
X147719473Y-152416203D01*
X147712647Y-152432584D01*
X147706758Y-152444813D01*
X147698210Y-152460362D01*
X147693558Y-152478397D01*
X147609256Y-152680723D01*
X147602933Y-152690795D01*
X147593649Y-152717569D01*
X147590915Y-152724740D01*
X147580011Y-152750911D01*
X147578024Y-152762630D01*
X147500949Y-152984897D01*
X147496112Y-152993644D01*
X147487348Y-153023651D01*
X147485448Y-153029603D01*
X147475212Y-153059123D01*
X147474088Y-153069057D01*
X147403264Y-153311572D01*
X147399345Y-153319506D01*
X147391467Y-153351549D01*
X147390062Y-153356778D01*
X147380805Y-153388483D01*
X147380220Y-153397308D01*
X147315782Y-153659454D01*
X147311664Y-153668887D01*
X147308948Y-153683039D01*
X147305855Y-153699146D01*
X147304478Y-153705444D01*
X147297124Y-153735365D01*
X147296929Y-153745657D01*
X147170080Y-154406600D01*
X147166469Y-154416185D01*
X147162205Y-154446759D01*
X147161156Y-154453094D01*
X147155334Y-154483438D01*
X147155664Y-154493675D01*
X147055609Y-155211305D01*
X147053194Y-155218688D01*
X147049692Y-155253114D01*
X147049132Y-155257756D01*
X147044346Y-155292084D01*
X147044940Y-155299834D01*
X146967843Y-156057902D01*
X146966273Y-156063270D01*
X146963413Y-156101055D01*
X146963125Y-156104293D01*
X146959296Y-156141936D01*
X146959897Y-156147491D01*
X146900606Y-156930854D01*
X146899355Y-156935543D01*
X146897277Y-156974413D01*
X146897098Y-156977187D01*
X146894156Y-157016089D01*
X146894795Y-157020905D01*
X146805591Y-158690984D01*
X146805209Y-158692511D01*
X146803182Y-158736051D01*
X146803139Y-158736904D01*
X146800812Y-158780500D01*
X146801041Y-158782056D01*
X146725212Y-160411688D01*
X146725113Y-160413526D01*
X146678332Y-161178057D01*
X146678092Y-161181291D01*
X146617611Y-161875931D01*
X146617043Y-161881178D01*
X146538294Y-162489510D01*
X146536894Y-162498026D01*
X146435580Y-163004988D01*
X146432973Y-163015610D01*
X146373074Y-163220763D01*
X146369917Y-163230180D01*
X146304149Y-163403369D01*
X146297947Y-163417149D01*
X146226875Y-163552697D01*
X146215333Y-163570777D01*
X146140349Y-163668726D01*
X146121231Y-163688706D01*
X146090764Y-163714238D01*
X146020822Y-163772848D01*
X145999888Y-163787073D01*
X145862599Y-163861410D01*
X145846302Y-163868790D01*
X145671493Y-163933425D01*
X145659298Y-163937243D01*
X145451444Y-163990915D01*
X145439238Y-163993431D01*
X144921550Y-164073658D01*
X144911950Y-164074770D01*
X144291730Y-164122638D01*
X144285992Y-164122950D01*
X142788407Y-164170011D01*
X142787962Y-164170024D01*
X141994048Y-164192168D01*
X141990166Y-164191542D01*
X141949836Y-164193381D01*
X141947613Y-164193463D01*
X141907346Y-164194586D01*
X141903521Y-164195493D01*
X141115304Y-164231444D01*
X141108836Y-164230563D01*
X141072422Y-164233342D01*
X141068581Y-164233576D01*
X141032166Y-164235238D01*
X141025853Y-164236898D01*
X140211858Y-164299054D01*
X140202786Y-164298164D01*
X140170411Y-164302093D01*
X140164830Y-164302645D01*
X140132347Y-164305126D01*
X140123627Y-164307772D01*
X139302575Y-164407440D01*
X139293917Y-164406967D01*
X139261063Y-164412367D01*
X139255819Y-164413116D01*
X139222819Y-164417122D01*
X139214635Y-164419999D01*
X138848689Y-164480154D01*
X138841542Y-164480036D01*
X138806616Y-164486996D01*
X138802435Y-164487757D01*
X138767368Y-164493522D01*
X138760728Y-164496144D01*
X138398479Y-164568351D01*
X138390513Y-164568507D01*
X138357114Y-164576503D01*
X138352416Y-164577533D01*
X138318778Y-164584239D01*
X138311472Y-164587432D01*
X137955016Y-164672788D01*
X137946348Y-164673307D01*
X137914367Y-164682406D01*
X137909240Y-164683749D01*
X137876900Y-164691495D01*
X137869091Y-164695290D01*
X137518171Y-164795148D01*
X137508506Y-164796166D01*
X137478478Y-164806292D01*
X137472710Y-164808084D01*
X137442251Y-164816753D01*
X137433708Y-164821391D01*
X137090961Y-164936988D01*
X137080469Y-164938634D01*
X137052327Y-164949828D01*
X137046034Y-164952140D01*
X137017295Y-164961834D01*
X137008230Y-164967370D01*
X136675382Y-165099783D01*
X136664133Y-165102198D01*
X136637889Y-165114465D01*
X136631118Y-165117391D01*
X136604231Y-165128088D01*
X136594766Y-165134622D01*
X136272348Y-165285326D01*
X136260277Y-165288712D01*
X136236321Y-165301872D01*
X136229019Y-165305579D01*
X136204254Y-165317155D01*
X136194395Y-165324903D01*
X135884880Y-165494935D01*
X135872085Y-165499488D01*
X135850494Y-165513454D01*
X135842734Y-165518087D01*
X135820193Y-165530470D01*
X135810116Y-165539572D01*
X135515114Y-165730394D01*
X135502327Y-165736029D01*
X135482325Y-165751189D01*
X135474654Y-165756566D01*
X135453584Y-165770195D01*
X135443929Y-165780289D01*
X135162870Y-165993311D01*
X135149283Y-166000637D01*
X135132353Y-166015879D01*
X135124163Y-166022649D01*
X135106001Y-166036415D01*
X135096247Y-166048385D01*
X134833336Y-166285086D01*
X134820273Y-166293634D01*
X134804894Y-166310071D01*
X134797200Y-166317619D01*
X134780460Y-166332690D01*
X134771661Y-166345588D01*
X134527044Y-166607028D01*
X134515640Y-166615900D01*
X134500433Y-166634916D01*
X134494042Y-166642301D01*
X134477407Y-166660080D01*
X134470264Y-166672642D01*
X134304373Y-166880082D01*
X134294781Y-166888730D01*
X134279521Y-166910700D01*
X134274443Y-166917508D01*
X134257733Y-166938404D01*
X134252182Y-166950057D01*
X134096298Y-167174482D01*
X134088158Y-167182818D01*
X134073222Y-167207314D01*
X134069134Y-167213590D01*
X134052748Y-167237184D01*
X134048411Y-167248012D01*
X133901833Y-167488447D01*
X133895289Y-167495923D01*
X133880303Y-167523470D01*
X133877210Y-167528837D01*
X133860900Y-167555593D01*
X133857715Y-167564994D01*
X133718818Y-167820333D01*
X133712885Y-167827808D01*
X133698956Y-167856556D01*
X133696254Y-167861814D01*
X133680996Y-167889867D01*
X133678372Y-167899048D01*
X133548143Y-168167878D01*
X133543437Y-168174358D01*
X133529700Y-168205733D01*
X133527679Y-168210120D01*
X133512727Y-168240990D01*
X133510859Y-168248772D01*
X133387512Y-168530516D01*
X133381836Y-168539121D01*
X133370958Y-168567917D01*
X133368513Y-168573916D01*
X133356174Y-168602099D01*
X133354221Y-168612220D01*
X133098438Y-169289330D01*
X133092976Y-169298647D01*
X133083902Y-169327283D01*
X133081662Y-169333739D01*
X133071053Y-169361827D01*
X133069571Y-169372520D01*
X132844563Y-170082778D01*
X132840600Y-170090349D01*
X132831820Y-170122646D01*
X132830352Y-170127635D01*
X132820250Y-170159527D01*
X132819484Y-170168029D01*
X132621412Y-170896778D01*
X132618586Y-170902688D01*
X132610108Y-170938145D01*
X132609152Y-170941885D01*
X132599590Y-170977068D01*
X132599240Y-170983602D01*
X132423841Y-171717233D01*
X132421839Y-171721720D01*
X132413650Y-171759723D01*
X132413024Y-171762474D01*
X132403986Y-171800283D01*
X132403852Y-171805202D01*
X132247723Y-172529906D01*
X132246530Y-172532717D01*
X132238330Y-172573451D01*
X132237983Y-172575114D01*
X132229218Y-172615808D01*
X132229190Y-172618863D01*
X131927170Y-174119441D01*
X131927062Y-174119974D01*
X131782502Y-174822537D01*
X131781940Y-174825129D01*
X131637101Y-175460930D01*
X131635951Y-175465568D01*
X131487387Y-176019782D01*
X131484868Y-176028038D01*
X131327345Y-176487284D01*
X131323301Y-176497578D01*
X131241551Y-176681515D01*
X131236707Y-176691257D01*
X131151391Y-176845733D01*
X131143528Y-176858190D01*
X131057007Y-176978978D01*
X131043629Y-176994741D01*
X130958517Y-177079775D01*
X130935530Y-177097929D01*
X130838193Y-177157868D01*
X130810867Y-177170474D01*
X130686233Y-177210747D01*
X130664144Y-177215746D01*
X130504993Y-177236966D01*
X130489124Y-177238069D01*
X130299257Y-177239250D01*
X130287874Y-177238805D01*
X130070586Y-177220462D01*
X130062422Y-177219504D01*
X129820867Y-177183127D01*
X129812708Y-177181622D01*
X129254480Y-177059526D01*
X129248276Y-177058004D01*
X128613005Y-176884901D01*
X128610224Y-176884108D01*
X127951479Y-176688260D01*
X127951223Y-176688124D01*
X127907074Y-176675059D01*
X127906935Y-176675018D01*
X127887141Y-176669133D01*
X127864062Y-176662271D01*
X127863766Y-176662242D01*
X126391781Y-176226609D01*
X126386254Y-176223803D01*
X126350502Y-176214337D01*
X126347001Y-176213356D01*
X126311544Y-176202863D01*
X126305364Y-176202386D01*
X125558938Y-176004758D01*
X125551918Y-176001482D01*
X125518081Y-175993852D01*
X125513564Y-175992744D01*
X125502181Y-175989731D01*
X125480072Y-175983877D01*
X125472331Y-175983535D01*
X124705236Y-175810568D01*
X124695831Y-175806671D01*
X124665296Y-175801396D01*
X124659042Y-175800152D01*
X124646519Y-175797329D01*
X124628828Y-175793340D01*
X124618648Y-175793338D01*
X123842497Y-175659260D01*
X123833340Y-175655986D01*
X123801921Y-175652103D01*
X123795935Y-175651217D01*
X123764728Y-175645827D01*
X123755007Y-175646305D01*
X123410501Y-175603733D01*
X123402969Y-175601399D01*
X123368606Y-175598465D01*
X123363874Y-175597971D01*
X123329690Y-175593747D01*
X123321845Y-175594472D01*
X122979780Y-175565269D01*
X122971301Y-175563012D01*
X122938179Y-175561603D01*
X122932821Y-175561260D01*
X122899865Y-175558446D01*
X122891169Y-175559604D01*
X122551818Y-175545173D01*
X122542258Y-175543089D01*
X122510657Y-175543275D01*
X122504568Y-175543163D01*
X122473047Y-175541823D01*
X122463414Y-175543555D01*
X122127913Y-175545547D01*
X122117327Y-175543800D01*
X122087231Y-175545604D01*
X122080449Y-175545828D01*
X122050310Y-175546008D01*
X122039866Y-175548444D01*
X121709560Y-175568254D01*
X121697848Y-175567004D01*
X121669531Y-175570424D01*
X121661980Y-175571106D01*
X121633503Y-175572816D01*
X121622207Y-175576141D01*
X121297849Y-175615325D01*
X121285054Y-175614778D01*
X121258590Y-175619785D01*
X121250285Y-175621071D01*
X121223568Y-175624299D01*
X121211535Y-175628690D01*
X120894260Y-175688730D01*
X120880483Y-175689106D01*
X120855949Y-175695637D01*
X120846979Y-175697677D01*
X120822016Y-175702403D01*
X120809433Y-175708020D01*
X120500150Y-175790364D01*
X120485401Y-175791903D01*
X120463006Y-175799835D01*
X120453365Y-175802821D01*
X120430414Y-175808932D01*
X120417376Y-175815998D01*
X120116742Y-175922486D01*
X120101389Y-175925391D01*
X120080915Y-175934687D01*
X120070904Y-175938724D01*
X120049713Y-175946231D01*
X120036633Y-175954793D01*
X119745529Y-176086968D01*
X119729575Y-176091489D01*
X119711348Y-176101895D01*
X119700983Y-176107193D01*
X119681882Y-176115867D01*
X119668870Y-176126150D01*
X119420702Y-176267849D01*
X119405742Y-176273597D01*
X119387818Y-176286056D01*
X119378388Y-176292010D01*
X119359397Y-176302854D01*
X119347767Y-176313894D01*
X119107064Y-176481207D01*
X119093878Y-176487586D01*
X119075283Y-176502821D01*
X119067352Y-176508811D01*
X119047624Y-176522525D01*
X119037878Y-176533468D01*
X118804438Y-176724735D01*
X118792858Y-176731449D01*
X118773935Y-176749323D01*
X118767279Y-176755181D01*
X118747157Y-176771669D01*
X118739030Y-176782298D01*
X118512759Y-176996050D01*
X118502844Y-177002709D01*
X118483536Y-177023332D01*
X118478088Y-177028804D01*
X118457538Y-177048218D01*
X118450924Y-177058165D01*
X118231500Y-177292533D01*
X118222893Y-177299065D01*
X118203591Y-177322071D01*
X118199050Y-177327195D01*
X118178537Y-177349105D01*
X118173087Y-177358430D01*
X117960391Y-177611949D01*
X117953038Y-177618144D01*
X117933751Y-177643482D01*
X117930027Y-177648140D01*
X117909558Y-177672540D01*
X117905135Y-177681078D01*
X117699093Y-177951788D01*
X117692777Y-177957610D01*
X117673678Y-177985000D01*
X117670593Y-177989233D01*
X117650367Y-178015809D01*
X117646758Y-178023608D01*
X117446838Y-178310329D01*
X117439482Y-178317781D01*
X117423369Y-178343686D01*
X117419740Y-178349194D01*
X117402268Y-178374254D01*
X117398323Y-178383949D01*
X116971108Y-179070767D01*
X116963780Y-179079041D01*
X116949568Y-179105026D01*
X116946017Y-179111106D01*
X116930365Y-179136269D01*
X116926758Y-179146728D01*
X116528901Y-179874122D01*
X116523494Y-179880866D01*
X116508754Y-179910727D01*
X116506319Y-179915408D01*
X116490333Y-179944639D01*
X116487916Y-179952944D01*
X116118193Y-180701984D01*
X116114276Y-180707253D01*
X116099173Y-180740383D01*
X116097515Y-180743876D01*
X116081398Y-180776533D01*
X116079792Y-180782901D01*
X115736658Y-181535668D01*
X115733532Y-181540126D01*
X115718587Y-181575213D01*
X115717320Y-181578089D01*
X115701529Y-181612735D01*
X115700348Y-181618044D01*
X115033440Y-183184037D01*
X115033299Y-183184369D01*
X114432530Y-184583935D01*
X114430375Y-184588680D01*
X114157459Y-185158256D01*
X114153655Y-185165572D01*
X113895032Y-185625454D01*
X113889426Y-185634504D01*
X113768703Y-185812180D01*
X113762069Y-185821074D01*
X113645907Y-185963292D01*
X113634676Y-185975341D01*
X113526403Y-186077240D01*
X113507244Y-186092072D01*
X113409271Y-186153837D01*
X113380271Y-186167321D01*
X113227335Y-186215971D01*
X113203943Y-186221027D01*
X112992045Y-186246096D01*
X112976889Y-186246969D01*
X112708811Y-186246219D01*
X112699028Y-186245811D01*
X112380971Y-186220143D01*
X112374236Y-186219416D01*
X112011753Y-186170439D01*
X112006659Y-186169645D01*
X111605633Y-186098650D01*
X111600177Y-186097559D01*
X110691659Y-185894983D01*
X110686714Y-185893775D01*
X109668064Y-185623030D01*
X109664686Y-185622082D01*
X108564769Y-185296690D01*
X108562298Y-185295931D01*
X107411007Y-184929488D01*
X107409149Y-184928881D01*
X106236460Y-184535490D01*
X106234415Y-184534784D01*
X103954590Y-183726205D01*
X103952654Y-183725501D01*
X103797373Y-183667552D01*
X103721770Y-183639337D01*
X101939321Y-182974147D01*
X101937942Y-182973623D01*
X100417266Y-182385751D01*
X100416279Y-182385364D01*
X99640215Y-182077818D01*
X99616463Y-182063682D01*
X99611548Y-182062141D01*
X99611547Y-182062141D01*
X99603155Y-182059510D01*
X99589216Y-182059725D01*
X99574433Y-182063476D01*
X99562085Y-182069930D01*
X99552376Y-182079943D01*
X99538241Y-182103690D01*
X99296247Y-182393087D01*
X99293057Y-182396756D01*
X99031259Y-182686355D01*
X99027730Y-182690102D01*
X98762516Y-182960417D01*
X98758632Y-182964209D01*
X98490374Y-183215039D01*
X98486050Y-183218899D01*
X98214775Y-183450109D01*
X98210090Y-183453913D01*
X97936176Y-183665592D01*
X97930996Y-183669388D01*
X97654882Y-183861121D01*
X97649240Y-183864817D01*
X97497208Y-183958711D01*
X97370895Y-184036720D01*
X97364774Y-184040267D01*
X97084495Y-184192328D01*
X97077842Y-184195686D01*
X96796044Y-184327642D01*
X96788876Y-184330732D01*
X96505607Y-184442554D01*
X96498016Y-184445273D01*
X96213456Y-184537044D01*
X96205428Y-184539342D01*
X95919909Y-184610937D01*
X95911437Y-184612755D01*
X95624745Y-184664008D01*
X95616068Y-184665249D01*
X95328605Y-184696219D01*
X95319713Y-184696860D01*
X95031598Y-184707397D01*
X95022390Y-184707397D01*
X94734197Y-184696861D01*
X94725303Y-184696220D01*
X94437820Y-184665248D01*
X94429136Y-184664005D01*
X94168558Y-184617405D01*
X94142525Y-184612749D01*
X94134115Y-184610946D01*
X94072443Y-184595508D01*
X93848478Y-184539441D01*
X93840402Y-184537131D01*
X93555899Y-184445378D01*
X93548274Y-184442645D01*
X93537008Y-184438194D01*
X93348918Y-184363880D01*
X93265017Y-184330731D01*
X93257882Y-184327655D01*
X93185082Y-184293565D01*
X92976025Y-184195670D01*
X92969406Y-184192330D01*
X92969402Y-184192328D01*
X92865291Y-184135880D01*
X92689182Y-184040396D01*
X92682987Y-184036806D01*
X92404745Y-183864812D01*
X92399147Y-183861142D01*
X92362833Y-183835935D01*
X92240499Y-183751017D01*
X92122915Y-183669396D01*
X92117718Y-183665588D01*
X91843831Y-183453930D01*
X91839128Y-183450111D01*
X91567939Y-183218891D01*
X91563649Y-183215062D01*
X91295272Y-182964213D01*
X91291371Y-182960405D01*
X91094209Y-182759451D01*
X91026149Y-182690081D01*
X91022628Y-182686343D01*
X90842652Y-182487255D01*
X90760856Y-182396772D01*
X90757655Y-182393091D01*
X90633495Y-182244554D01*
X90515752Y-182103693D01*
X90501617Y-182079936D01*
X90498042Y-182076249D01*
X90498042Y-182076248D01*
X90498040Y-182076247D01*
X90491923Y-182069938D01*
X90479589Y-182063487D01*
X90464767Y-182059723D01*
X90450853Y-182059509D01*
X90437565Y-182063671D01*
X90413806Y-182077808D01*
X89637713Y-182385366D01*
X89636723Y-182385754D01*
X88115957Y-182973622D01*
X88114581Y-182974145D01*
X86101264Y-183725494D01*
X86099328Y-183726198D01*
X83819483Y-184534784D01*
X83817438Y-184535490D01*
X82644749Y-184928881D01*
X82642891Y-184929488D01*
X81491627Y-185295923D01*
X81489159Y-185296681D01*
X80389303Y-185622083D01*
X80385922Y-185623032D01*
X79367305Y-185893769D01*
X79362358Y-185894978D01*
X78453703Y-186097563D01*
X78448249Y-186098653D01*
X78047264Y-186169641D01*
X78042175Y-186170435D01*
X77679755Y-186219417D01*
X77673012Y-186220144D01*
X77354880Y-186245811D01*
X77345099Y-186246219D01*
X77077007Y-186246969D01*
X77061852Y-186246096D01*
X76849969Y-186221029D01*
X76826557Y-186215967D01*
X76673718Y-186167321D01*
X76644739Y-186153844D01*
X76641662Y-186151904D01*
X76546718Y-186092049D01*
X76527602Y-186077256D01*
X76469766Y-186022867D01*
X76419241Y-185975353D01*
X76407975Y-185963272D01*
X76351745Y-185894430D01*
X76291840Y-185821088D01*
X76285205Y-185812190D01*
X76164537Y-185634457D01*
X76158975Y-185625474D01*
X75900256Y-185165593D01*
X75896434Y-185158244D01*
X75839301Y-185038964D01*
X75623592Y-184588617D01*
X75621468Y-184583935D01*
X75020573Y-183184305D01*
X74353564Y-181618078D01*
X74352385Y-181612769D01*
X74344326Y-181595089D01*
X74344327Y-181595088D01*
X74336539Y-181578003D01*
X74335339Y-181575280D01*
X74327966Y-181557968D01*
X74327964Y-181557967D01*
X74320360Y-181540111D01*
X74317234Y-181535653D01*
X73976071Y-180787213D01*
X73974121Y-180782935D01*
X73972519Y-180776570D01*
X73956388Y-180743887D01*
X73954725Y-180740382D01*
X73939617Y-180707239D01*
X73935692Y-180701961D01*
X73569324Y-179959717D01*
X73565992Y-179952966D01*
X73563576Y-179944655D01*
X73547581Y-179915413D01*
X73545138Y-179910714D01*
X73530407Y-179880868D01*
X73524991Y-179874112D01*
X73127151Y-179146746D01*
X73123545Y-179136289D01*
X73107885Y-179111111D01*
X73104331Y-179105025D01*
X73096668Y-179091014D01*
X73096667Y-179091013D01*
X73090117Y-179079038D01*
X73082782Y-179070756D01*
X72655586Y-178383968D01*
X72651640Y-178374264D01*
X72634164Y-178349202D01*
X72630540Y-178343702D01*
X72621933Y-178329865D01*
X72621932Y-178329864D01*
X72614416Y-178317781D01*
X72607058Y-178310326D01*
X72407154Y-178023628D01*
X72403542Y-178015819D01*
X72383307Y-177989235D01*
X72380209Y-177984984D01*
X72361129Y-177957618D01*
X72354808Y-177951791D01*
X72148775Y-177681094D01*
X72144353Y-177672555D01*
X72134631Y-177660967D01*
X72134632Y-177660967D01*
X72123864Y-177648132D01*
X72120160Y-177643498D01*
X72110016Y-177630170D01*
X72110014Y-177630169D01*
X72100878Y-177618166D01*
X72093521Y-177611965D01*
X72093508Y-177611949D01*
X71880828Y-177358450D01*
X71875394Y-177349147D01*
X71865856Y-177338956D01*
X71854833Y-177327177D01*
X71850304Y-177322067D01*
X71848973Y-177320481D01*
X71839943Y-177309717D01*
X71839942Y-177309716D01*
X71830992Y-177299048D01*
X71822407Y-177292530D01*
X71691599Y-177152764D01*
X71603070Y-177058172D01*
X71596424Y-177048175D01*
X71575922Y-177028813D01*
X71570441Y-177023307D01*
X71551199Y-177002748D01*
X71541236Y-176996058D01*
X71314893Y-176782312D01*
X71306778Y-176771698D01*
X71286604Y-176755168D01*
X71279953Y-176749316D01*
X71261014Y-176731431D01*
X71249456Y-176724731D01*
X71016027Y-176533473D01*
X71006285Y-176522532D01*
X70991701Y-176512395D01*
X70986545Y-176508811D01*
X70978617Y-176502822D01*
X70967825Y-176493980D01*
X70967824Y-176493980D01*
X70960024Y-176487589D01*
X70946834Y-176481207D01*
X70706145Y-176313902D01*
X70694520Y-176302865D01*
X70686906Y-176298517D01*
X70675526Y-176292019D01*
X70666093Y-176286064D01*
X70666081Y-176286056D01*
X70655347Y-176278594D01*
X70648164Y-176273601D01*
X70633199Y-176267851D01*
X70633195Y-176267849D01*
X70547706Y-176219036D01*
X70385029Y-176126150D01*
X70372022Y-176115870D01*
X70352925Y-176107199D01*
X70342541Y-176101891D01*
X70324332Y-176091494D01*
X70308371Y-176086969D01*
X70017275Y-175954797D01*
X70004206Y-175946240D01*
X69982997Y-175938726D01*
X69972985Y-175934688D01*
X69952507Y-175925390D01*
X69937161Y-175922485D01*
X69636622Y-175816002D01*
X69623562Y-175808923D01*
X69600640Y-175802822D01*
X69590971Y-175799828D01*
X69568634Y-175791914D01*
X69553861Y-175790371D01*
X69553835Y-175790364D01*
X69244470Y-175708020D01*
X69231890Y-175702403D01*
X69206912Y-175697675D01*
X69197943Y-175695636D01*
X69173404Y-175689105D01*
X69159635Y-175688729D01*
X68842376Y-175628693D01*
X68830349Y-175624302D01*
X68803602Y-175621069D01*
X68795300Y-175619784D01*
X68768841Y-175614778D01*
X68756048Y-175615324D01*
X68431814Y-175576146D01*
X68420511Y-175572816D01*
X68392034Y-175571108D01*
X68384465Y-175570424D01*
X68356183Y-175567007D01*
X68344463Y-175568255D01*
X68014050Y-175548446D01*
X68003604Y-175546008D01*
X67973433Y-175545828D01*
X67966652Y-175545604D01*
X67936585Y-175543802D01*
X67926001Y-175545547D01*
X67590599Y-175543555D01*
X67580973Y-175541823D01*
X67549405Y-175543164D01*
X67543320Y-175543275D01*
X67511752Y-175543089D01*
X67502196Y-175545171D01*
X67162764Y-175559603D01*
X67154074Y-175558444D01*
X67121053Y-175561262D01*
X67115700Y-175561604D01*
X67082618Y-175563011D01*
X67074136Y-175565268D01*
X66732071Y-175594471D01*
X66724227Y-175593744D01*
X66690027Y-175597970D01*
X66685300Y-175598464D01*
X66650953Y-175601397D01*
X66643417Y-175603730D01*
X66298903Y-175646304D01*
X66289185Y-175645824D01*
X66257967Y-175651216D01*
X66251986Y-175652102D01*
X66220577Y-175655984D01*
X66211419Y-175659257D01*
X65435259Y-175793337D01*
X65425080Y-175793338D01*
X65394850Y-175800153D01*
X65388597Y-175801397D01*
X65358085Y-175806669D01*
X65348678Y-175810564D01*
X64581581Y-175983532D01*
X64573842Y-175983873D01*
X64540314Y-175992749D01*
X64535788Y-175993858D01*
X64502008Y-176001475D01*
X64494984Y-176004751D01*
X63748551Y-176202381D01*
X63742378Y-176202857D01*
X63706930Y-176213347D01*
X63703435Y-176214326D01*
X63667677Y-176223795D01*
X63662148Y-176226600D01*
X62190526Y-176662125D01*
X62190238Y-176662152D01*
X62146962Y-176675018D01*
X62146852Y-176675050D01*
X62133560Y-176678984D01*
X62103429Y-176687902D01*
X62103172Y-176688036D01*
X61443674Y-176884108D01*
X61440893Y-176884901D01*
X60805638Y-177058000D01*
X60799432Y-177059523D01*
X60241567Y-177181527D01*
X60233437Y-177183027D01*
X59991599Y-177219499D01*
X59983385Y-177220463D01*
X59765612Y-177238807D01*
X59754253Y-177239250D01*
X59564409Y-177238070D01*
X59548495Y-177236961D01*
X59389791Y-177215743D01*
X59367811Y-177210771D01*
X59242854Y-177170469D01*
X59215464Y-177157842D01*
X59118409Y-177098078D01*
X59095141Y-177079642D01*
X59010594Y-176994631D01*
X58997569Y-176979249D01*
X58997374Y-176978978D01*
X58959715Y-176926507D01*
X58910693Y-176858205D01*
X58902761Y-176845652D01*
X58891589Y-176825424D01*
X58817485Y-176691247D01*
X58812649Y-176681520D01*
X58812437Y-176681044D01*
X58730894Y-176497570D01*
X58726853Y-176487284D01*
X58662958Y-176301003D01*
X58569339Y-176028062D01*
X58566814Y-176019786D01*
X58545099Y-175938726D01*
X58418344Y-175465561D01*
X58417202Y-175460952D01*
X58413360Y-175444088D01*
X58272322Y-174824973D01*
X58271808Y-174822606D01*
X58126627Y-174119928D01*
X58126519Y-174119396D01*
X57863036Y-172807756D01*
X57825093Y-172618873D01*
X57825064Y-172615634D01*
X57820476Y-172594388D01*
X57820477Y-172594388D01*
X57816315Y-172575114D01*
X57815973Y-172573476D01*
X57812091Y-172554146D01*
X57812090Y-172554145D01*
X57807817Y-172532872D01*
X57806549Y-172529890D01*
X57650080Y-171805262D01*
X57649953Y-171800529D01*
X57640858Y-171762410D01*
X57640255Y-171759758D01*
X57640247Y-171759723D01*
X57636247Y-171741194D01*
X57636246Y-171741193D01*
X57631994Y-171721498D01*
X57630064Y-171717175D01*
X57579823Y-171506605D01*
X57455044Y-170983629D01*
X57454693Y-170977022D01*
X57445159Y-170941934D01*
X57444189Y-170938131D01*
X57435750Y-170902754D01*
X57432891Y-170896778D01*
X57234914Y-170168054D01*
X57234147Y-170159502D01*
X57224051Y-170127651D01*
X57222567Y-170122607D01*
X57213813Y-170090378D01*
X57209827Y-170082769D01*
X56984734Y-169372528D01*
X56983250Y-169361813D01*
X56972641Y-169333750D01*
X56970392Y-169327276D01*
X56965521Y-169311903D01*
X56965520Y-169311902D01*
X56961325Y-169298665D01*
X56955848Y-169289329D01*
X56699905Y-168612271D01*
X56697978Y-168602261D01*
X56685564Y-168573870D01*
X56683149Y-168567942D01*
X56672205Y-168538989D01*
X56666590Y-168530478D01*
X56543400Y-168248732D01*
X56541459Y-168240655D01*
X56534263Y-168225846D01*
X56534264Y-168225846D01*
X56526656Y-168210188D01*
X56524562Y-168205649D01*
X56517590Y-168189703D01*
X56517589Y-168189702D01*
X56510999Y-168174628D01*
X56506112Y-168167906D01*
X56490517Y-168135810D01*
X56375507Y-167899099D01*
X56372972Y-167890227D01*
X56357540Y-167861814D01*
X56357478Y-167861700D01*
X56354893Y-167856673D01*
X56347481Y-167841416D01*
X56347480Y-167841415D01*
X56340708Y-167827476D01*
X56334968Y-167820248D01*
X56196339Y-167564977D01*
X56193050Y-167555267D01*
X56176936Y-167528904D01*
X56173731Y-167523347D01*
X56165895Y-167508917D01*
X56165894Y-167508916D01*
X56158988Y-167496199D01*
X56152231Y-167488487D01*
X56016037Y-167265669D01*
X56005225Y-167247980D01*
X56000940Y-167237300D01*
X55984418Y-167213524D01*
X55980381Y-167207334D01*
X55965301Y-167182663D01*
X55957252Y-167174432D01*
X55801397Y-166950157D01*
X55796005Y-166938806D01*
X55778986Y-166917437D01*
X55774076Y-166910842D01*
X55773977Y-166910700D01*
X55765433Y-166898404D01*
X55765432Y-166898403D01*
X55758508Y-166888439D01*
X55749181Y-166880014D01*
X55584060Y-166672680D01*
X55576750Y-166659798D01*
X55560491Y-166642438D01*
X55553904Y-166634815D01*
X55545272Y-166623977D01*
X55545271Y-166623976D01*
X55539087Y-166616212D01*
X55527397Y-166607105D01*
X55282427Y-166345548D01*
X55273575Y-166332591D01*
X55256917Y-166317625D01*
X55249163Y-166310031D01*
X55233856Y-166293689D01*
X55220716Y-166285103D01*
X54957238Y-166048403D01*
X54947709Y-166036702D01*
X54929117Y-166022571D01*
X54921159Y-166015991D01*
X54903800Y-166000397D01*
X54890525Y-165993236D01*
X54610422Y-165780327D01*
X54600562Y-165770008D01*
X54579851Y-165756629D01*
X54571983Y-165751110D01*
X54560706Y-165742538D01*
X54560705Y-165742538D01*
X54552382Y-165736212D01*
X54539330Y-165730454D01*
X54243808Y-165539558D01*
X54233798Y-165530520D01*
X54211119Y-165518061D01*
X54203421Y-165513469D01*
X54181706Y-165499442D01*
X54168999Y-165494923D01*
X53859542Y-165324925D01*
X53849736Y-165317212D01*
X53824877Y-165305580D01*
X53817618Y-165301893D01*
X53807281Y-165296215D01*
X53804281Y-165294567D01*
X53793574Y-165288686D01*
X53781561Y-165285313D01*
X53750551Y-165270804D01*
X53607529Y-165203885D01*
X53459527Y-165134637D01*
X53449990Y-165128050D01*
X53423198Y-165117396D01*
X53416369Y-165114444D01*
X53402155Y-165107794D01*
X53402154Y-165107794D01*
X53390285Y-165102241D01*
X53378953Y-165099804D01*
X53045889Y-164967371D01*
X53036843Y-164961846D01*
X53008072Y-164952142D01*
X53001794Y-164949837D01*
X52973613Y-164938633D01*
X52963149Y-164936991D01*
X52620423Y-164821401D01*
X52611898Y-164816770D01*
X52597433Y-164812653D01*
X52581417Y-164808094D01*
X52575651Y-164806302D01*
X52545609Y-164796170D01*
X52535946Y-164795151D01*
X52185124Y-164695298D01*
X52177248Y-164691470D01*
X52144981Y-164683753D01*
X52139799Y-164682397D01*
X52131240Y-164679961D01*
X52123306Y-164677703D01*
X52107933Y-164673328D01*
X52099198Y-164672805D01*
X51742167Y-164587428D01*
X51734933Y-164584266D01*
X51701133Y-164577524D01*
X51696478Y-164576503D01*
X51663003Y-164568498D01*
X51655109Y-164568344D01*
X51293192Y-164496155D01*
X51286548Y-164493529D01*
X51251451Y-164487755D01*
X51247266Y-164486994D01*
X51212380Y-164480036D01*
X51205242Y-164480152D01*
X50839693Y-164420009D01*
X50831481Y-164417120D01*
X50798487Y-164413116D01*
X50793214Y-164412363D01*
X50760450Y-164406973D01*
X50751746Y-164407447D01*
X49930117Y-164307775D01*
X49921426Y-164305134D01*
X49888863Y-164302646D01*
X49883295Y-164302095D01*
X49850898Y-164298165D01*
X49841846Y-164299053D01*
X49028463Y-164236901D01*
X49022132Y-164235236D01*
X48985726Y-164233576D01*
X48981868Y-164233341D01*
X48945503Y-164230563D01*
X48939009Y-164231447D01*
X48150224Y-164195495D01*
X48146408Y-164194589D01*
X48106095Y-164193463D01*
X48103883Y-164193382D01*
X48063568Y-164191546D01*
X48059694Y-164192169D01*
X47266025Y-164170036D01*
X47265577Y-164170023D01*
X45768396Y-164122950D01*
X45762669Y-164122639D01*
X45141842Y-164074769D01*
X45132222Y-164073654D01*
X44614859Y-163993432D01*
X44602677Y-163990922D01*
X44396012Y-163937581D01*
X44394655Y-163937230D01*
X44382508Y-163933431D01*
X44207526Y-163868832D01*
X44191027Y-163861353D01*
X44186545Y-163858919D01*
X44054051Y-163786959D01*
X44033516Y-163773025D01*
X43932556Y-163688878D01*
X43912986Y-163668429D01*
X43838578Y-163570725D01*
X43827228Y-163552894D01*
X43755972Y-163416992D01*
X43749853Y-163403432D01*
X43704833Y-163285536D01*
X43683811Y-163230484D01*
X43680468Y-163220494D01*
X43621240Y-163015393D01*
X43618769Y-163005288D01*
X43581671Y-162820898D01*
X43516727Y-162498100D01*
X43515291Y-162489395D01*
X43514074Y-162479973D01*
X43436757Y-161881200D01*
X43436191Y-161875949D01*
X43375996Y-161181177D01*
X43375774Y-161178178D01*
X43363865Y-160985200D01*
X45803502Y-160985200D01*
X45823457Y-161213287D01*
X45882716Y-161434443D01*
X45979477Y-161641949D01*
X46110802Y-161829500D01*
X46272700Y-161991398D01*
X46460251Y-162122723D01*
X46667757Y-162219484D01*
X46888913Y-162278743D01*
X47117000Y-162298698D01*
X47345087Y-162278743D01*
X47566243Y-162219484D01*
X47773749Y-162122723D01*
X47961300Y-161991398D01*
X48123198Y-161829500D01*
X48233181Y-161672429D01*
X48288638Y-161628101D01*
X48336394Y-161618700D01*
X63134606Y-161618700D01*
X63202727Y-161638702D01*
X63223700Y-161655604D01*
X81231767Y-179663672D01*
X81335525Y-179733001D01*
X81417047Y-179766768D01*
X81450815Y-179780755D01*
X81573206Y-179805100D01*
X81573207Y-179805100D01*
X108291793Y-179805100D01*
X108291794Y-179805100D01*
X108414185Y-179780755D01*
X108529475Y-179733000D01*
X108633233Y-179663671D01*
X126565099Y-161731805D01*
X126627411Y-161697779D01*
X126654194Y-161694900D01*
X141630206Y-161694900D01*
X141698327Y-161714902D01*
X141733419Y-161748629D01*
X141824419Y-161878590D01*
X141843402Y-161905700D01*
X142005300Y-162067598D01*
X142192851Y-162198923D01*
X142400357Y-162295684D01*
X142621513Y-162354943D01*
X142849600Y-162374898D01*
X143077687Y-162354943D01*
X143298843Y-162295684D01*
X143506349Y-162198923D01*
X143693900Y-162067598D01*
X143855798Y-161905700D01*
X143987123Y-161718149D01*
X144083884Y-161510643D01*
X144143143Y-161289487D01*
X144163098Y-161061400D01*
X144143143Y-160833313D01*
X144083884Y-160612157D01*
X143987123Y-160404651D01*
X143855798Y-160217100D01*
X143693900Y-160055202D01*
X143585075Y-159979002D01*
X143506349Y-159923877D01*
X143298846Y-159827117D01*
X143298840Y-159827115D01*
X143205371Y-159802070D01*
X143077687Y-159767857D01*
X142849600Y-159747902D01*
X142621513Y-159767857D01*
X142400359Y-159827115D01*
X142400353Y-159827117D01*
X142192850Y-159923877D01*
X142005303Y-160055199D01*
X142005297Y-160055204D01*
X141843404Y-160217097D01*
X141843399Y-160217103D01*
X141733419Y-160374171D01*
X141677962Y-160418499D01*
X141630206Y-160427900D01*
X126654194Y-160427900D01*
X126586073Y-160407898D01*
X126565099Y-160390995D01*
X123670035Y-157495931D01*
X123670033Y-157495929D01*
X123566275Y-157426600D01*
X123450985Y-157378845D01*
X123377286Y-157364185D01*
X123328596Y-157354500D01*
X123328594Y-157354500D01*
X98876062Y-157354500D01*
X98807941Y-157334498D01*
X98761448Y-157280842D01*
X98751344Y-157210568D01*
X98758919Y-157185115D01*
X98757958Y-157184766D01*
X98759835Y-157179606D01*
X98759840Y-157179596D01*
X98817378Y-156964863D01*
X98836753Y-156743400D01*
X98817378Y-156521937D01*
X98759840Y-156307204D01*
X98665888Y-156105724D01*
X98538377Y-155923619D01*
X98381181Y-155766423D01*
X98381177Y-155766420D01*
X98381172Y-155766416D01*
X98199077Y-155638912D01*
X98199075Y-155638911D01*
X97997599Y-155544961D01*
X97997593Y-155544959D01*
X97955474Y-155533673D01*
X97782863Y-155487422D01*
X97561400Y-155468047D01*
X97339937Y-155487422D01*
X97224863Y-155518256D01*
X97125206Y-155544959D01*
X97125201Y-155544961D01*
X96923723Y-155638912D01*
X96741622Y-155766420D01*
X96741616Y-155766425D01*
X96584425Y-155923616D01*
X96584420Y-155923622D01*
X96456912Y-156105723D01*
X96405595Y-156215773D01*
X96358677Y-156269058D01*
X96290400Y-156288519D01*
X96222440Y-156267977D01*
X96177205Y-156215773D01*
X96167364Y-156194669D01*
X96125888Y-156105724D01*
X95998377Y-155923619D01*
X95841181Y-155766423D01*
X95841177Y-155766420D01*
X95841172Y-155766416D01*
X95659077Y-155638912D01*
X95659075Y-155638911D01*
X95457599Y-155544961D01*
X95457593Y-155544959D01*
X95415474Y-155533673D01*
X95242863Y-155487422D01*
X95021400Y-155468047D01*
X94799937Y-155487422D01*
X94684863Y-155518256D01*
X94585206Y-155544959D01*
X94585201Y-155544961D01*
X94383723Y-155638912D01*
X94201622Y-155766420D01*
X94201616Y-155766425D01*
X94044425Y-155923616D01*
X94044420Y-155923622D01*
X93916912Y-156105723D01*
X93865595Y-156215773D01*
X93818677Y-156269058D01*
X93750400Y-156288519D01*
X93682440Y-156267977D01*
X93637205Y-156215773D01*
X93627364Y-156194669D01*
X93585888Y-156105724D01*
X93458377Y-155923619D01*
X93301181Y-155766423D01*
X93301177Y-155766420D01*
X93301172Y-155766416D01*
X93119077Y-155638912D01*
X93119075Y-155638911D01*
X92917599Y-155544961D01*
X92917593Y-155544959D01*
X92875474Y-155533673D01*
X92702863Y-155487422D01*
X92481400Y-155468047D01*
X92259937Y-155487422D01*
X92144863Y-155518256D01*
X92045206Y-155544959D01*
X92045201Y-155544961D01*
X91843723Y-155638912D01*
X91661622Y-155766420D01*
X91661616Y-155766425D01*
X91504425Y-155923616D01*
X91504420Y-155923622D01*
X91376912Y-156105723D01*
X91291673Y-156288519D01*
X91282960Y-156307204D01*
X91225422Y-156521937D01*
X91225422Y-156521939D01*
X91206047Y-156743400D01*
X91225422Y-156964863D01*
X91235886Y-157003915D01*
X91234196Y-157074891D01*
X91203274Y-157125620D01*
X83812567Y-164516329D01*
X83724331Y-164604564D01*
X83724326Y-164604571D01*
X83655001Y-164708323D01*
X83607246Y-164823612D01*
X83582900Y-164946003D01*
X83582900Y-168388941D01*
X83562898Y-168457062D01*
X83514104Y-168501207D01*
X83425772Y-168546215D01*
X83233675Y-168685782D01*
X83233672Y-168685784D01*
X83065784Y-168853672D01*
X83065782Y-168853675D01*
X82926217Y-169045769D01*
X82818419Y-169257335D01*
X82818416Y-169257341D01*
X82745045Y-169483153D01*
X82745044Y-169483158D01*
X82745044Y-169483159D01*
X82707900Y-169717678D01*
X82707900Y-171455122D01*
X82745044Y-171689641D01*
X82745045Y-171689646D01*
X82818416Y-171915458D01*
X82818418Y-171915463D01*
X82926215Y-172127027D01*
X83065780Y-172319122D01*
X83065782Y-172319124D01*
X83065784Y-172319127D01*
X83233672Y-172487015D01*
X83233675Y-172487017D01*
X83233678Y-172487020D01*
X83425773Y-172626585D01*
X83637337Y-172734382D01*
X83863159Y-172807756D01*
X84097678Y-172844900D01*
X84097681Y-172844900D01*
X84335119Y-172844900D01*
X84335122Y-172844900D01*
X84569641Y-172807756D01*
X84795463Y-172734382D01*
X85007027Y-172626585D01*
X85199122Y-172487020D01*
X85367020Y-172319122D01*
X85506585Y-172127027D01*
X85614382Y-171915463D01*
X85633573Y-171856400D01*
X92003302Y-171856400D01*
X92023674Y-172206188D01*
X92023674Y-172206194D01*
X92084520Y-172551268D01*
X92185015Y-172886941D01*
X92185017Y-172886947D01*
X92323795Y-173208673D01*
X92323798Y-173208678D01*
X92498986Y-173512112D01*
X92498996Y-173512128D01*
X92708236Y-173793185D01*
X92708240Y-173793190D01*
X92714141Y-173799445D01*
X92714144Y-173799445D01*
X94657190Y-171856400D01*
X94657190Y-171856399D01*
X94657189Y-171856398D01*
X95375610Y-171856398D01*
X95375610Y-171856401D01*
X97318655Y-173799446D01*
X97318656Y-173799445D01*
X97324564Y-173793185D01*
X97324566Y-173793182D01*
X97533795Y-173512139D01*
X97533813Y-173512112D01*
X97709001Y-173208678D01*
X97709004Y-173208673D01*
X97847782Y-172886947D01*
X97847784Y-172886941D01*
X97948279Y-172551268D01*
X98009125Y-172206194D01*
X98009125Y-172206188D01*
X98029497Y-171856400D01*
X98009125Y-171506611D01*
X98009125Y-171506605D01*
X97948279Y-171161531D01*
X97847784Y-170825858D01*
X97847782Y-170825852D01*
X97709004Y-170504126D01*
X97709001Y-170504121D01*
X97533813Y-170200687D01*
X97533803Y-170200671D01*
X97324565Y-169919616D01*
X97318655Y-169913352D01*
X95375610Y-171856398D01*
X94657189Y-171856398D01*
X92714144Y-169913353D01*
X92714143Y-169913353D01*
X92708231Y-169919620D01*
X92708227Y-169919624D01*
X92499004Y-170200660D01*
X92498986Y-170200687D01*
X92323798Y-170504121D01*
X92323795Y-170504126D01*
X92185017Y-170825852D01*
X92185015Y-170825858D01*
X92084520Y-171161531D01*
X92023674Y-171506605D01*
X92023674Y-171506611D01*
X92003302Y-171856400D01*
X85633573Y-171856400D01*
X85687756Y-171689641D01*
X85724900Y-171455122D01*
X85724900Y-169717678D01*
X85699515Y-169557405D01*
X93076615Y-169557405D01*
X95016399Y-171497190D01*
X95016401Y-171497190D01*
X96956183Y-169557406D01*
X96956183Y-169557405D01*
X96815698Y-169439525D01*
X96522950Y-169246982D01*
X96209822Y-169089723D01*
X96209817Y-169089721D01*
X95880574Y-168969886D01*
X95880569Y-168969885D01*
X95539620Y-168889078D01*
X95539614Y-168889077D01*
X95191599Y-168848400D01*
X94841201Y-168848400D01*
X94493185Y-168889077D01*
X94493179Y-168889078D01*
X94152230Y-168969885D01*
X94152225Y-168969886D01*
X93822982Y-169089721D01*
X93822977Y-169089723D01*
X93509849Y-169246982D01*
X93217101Y-169439525D01*
X93076615Y-169557405D01*
X85699515Y-169557405D01*
X85687756Y-169483159D01*
X85614382Y-169257337D01*
X85506585Y-169045773D01*
X85367020Y-168853678D01*
X85367017Y-168853675D01*
X85367015Y-168853672D01*
X85199127Y-168685784D01*
X85199124Y-168685782D01*
X85199122Y-168685780D01*
X85007027Y-168546215D01*
X84918696Y-168501207D01*
X84867081Y-168452459D01*
X84849900Y-168388941D01*
X84849900Y-165322993D01*
X84869902Y-165254872D01*
X84886800Y-165233903D01*
X91853489Y-158267213D01*
X91915801Y-158233188D01*
X91986616Y-158238253D01*
X92031679Y-158267214D01*
X94869897Y-161105432D01*
X97730937Y-163966472D01*
X97834695Y-164035801D01*
X97916217Y-164069568D01*
X97949985Y-164083555D01*
X98072376Y-164107900D01*
X98072377Y-164107900D01*
X98197164Y-164107900D01*
X103495206Y-164107900D01*
X103563327Y-164127902D01*
X103584301Y-164144805D01*
X105145995Y-165706499D01*
X105180021Y-165768811D01*
X105182900Y-165795594D01*
X105182900Y-168388941D01*
X105162898Y-168457062D01*
X105114104Y-168501207D01*
X105025772Y-168546215D01*
X104833675Y-168685782D01*
X104833672Y-168685784D01*
X104665784Y-168853672D01*
X104665782Y-168853675D01*
X104526217Y-169045769D01*
X104418419Y-169257335D01*
X104418416Y-169257341D01*
X104345045Y-169483153D01*
X104345044Y-169483158D01*
X104345044Y-169483159D01*
X104307900Y-169717678D01*
X104307900Y-171455122D01*
X104345044Y-171689641D01*
X104345045Y-171689646D01*
X104418416Y-171915458D01*
X104418418Y-171915463D01*
X104526215Y-172127027D01*
X104665780Y-172319122D01*
X104665782Y-172319124D01*
X104665784Y-172319127D01*
X104833672Y-172487015D01*
X104833675Y-172487017D01*
X104833678Y-172487020D01*
X105025773Y-172626585D01*
X105237337Y-172734382D01*
X105463159Y-172807756D01*
X105697678Y-172844900D01*
X105697681Y-172844900D01*
X105935119Y-172844900D01*
X105935122Y-172844900D01*
X106169641Y-172807756D01*
X106395463Y-172734382D01*
X106607027Y-172626585D01*
X106799122Y-172487020D01*
X106967020Y-172319122D01*
X107106585Y-172127027D01*
X107214382Y-171915463D01*
X107287756Y-171689641D01*
X107324900Y-171455122D01*
X107324900Y-169717678D01*
X107287756Y-169483159D01*
X107214382Y-169257337D01*
X107106585Y-169045773D01*
X106967020Y-168853678D01*
X106967017Y-168853675D01*
X106967015Y-168853672D01*
X106799127Y-168685784D01*
X106799124Y-168685782D01*
X106799122Y-168685780D01*
X106607027Y-168546215D01*
X106518696Y-168501207D01*
X106467081Y-168452459D01*
X106449900Y-168388941D01*
X106449900Y-165418607D01*
X106449899Y-165418603D01*
X106425555Y-165296215D01*
X106377800Y-165180925D01*
X106308471Y-165077167D01*
X106220233Y-164988929D01*
X104213633Y-162982329D01*
X104109875Y-162913000D01*
X103994585Y-162865245D01*
X103920886Y-162850585D01*
X103872196Y-162840900D01*
X103872194Y-162840900D01*
X98449365Y-162840900D01*
X98381244Y-162820898D01*
X98360270Y-162803995D01*
X95884725Y-160328450D01*
X93378010Y-157821736D01*
X93343985Y-157759425D01*
X93349050Y-157688610D01*
X93378011Y-157643547D01*
X93458377Y-157563181D01*
X93585888Y-157381077D01*
X93637205Y-157271026D01*
X93684122Y-157217742D01*
X93752399Y-157198281D01*
X93820359Y-157218823D01*
X93865595Y-157271027D01*
X93916911Y-157381075D01*
X93916912Y-157381077D01*
X94044416Y-157563172D01*
X94044420Y-157563177D01*
X94044423Y-157563181D01*
X94201619Y-157720377D01*
X94201623Y-157720380D01*
X94201627Y-157720383D01*
X94216046Y-157730479D01*
X94383723Y-157847888D01*
X94585204Y-157941840D01*
X94799937Y-157999378D01*
X95021400Y-158018753D01*
X95242863Y-157999378D01*
X95281913Y-157988914D01*
X95352886Y-157990601D01*
X95403620Y-158021524D01*
X95773929Y-158391833D01*
X95862167Y-158480071D01*
X95965925Y-158549400D01*
X96081215Y-158597155D01*
X96203606Y-158621500D01*
X122951606Y-158621500D01*
X123019727Y-158641502D01*
X123040701Y-158658405D01*
X125354601Y-160972305D01*
X125388627Y-161034617D01*
X125383562Y-161105432D01*
X125354601Y-161150495D01*
X108003901Y-178501195D01*
X107941589Y-178535221D01*
X107914806Y-178538100D01*
X81950195Y-178538100D01*
X81882074Y-178518098D01*
X81861100Y-178501195D01*
X77515297Y-174155392D01*
X93076615Y-174155392D01*
X93076616Y-174155393D01*
X93217096Y-174273271D01*
X93509849Y-174465817D01*
X93822977Y-174623076D01*
X93822982Y-174623078D01*
X94152225Y-174742913D01*
X94152230Y-174742914D01*
X94493179Y-174823721D01*
X94493185Y-174823722D01*
X94841201Y-174864400D01*
X95191599Y-174864400D01*
X95539614Y-174823722D01*
X95539620Y-174823721D01*
X95880569Y-174742914D01*
X95880574Y-174742913D01*
X96209817Y-174623078D01*
X96209822Y-174623076D01*
X96522950Y-174465817D01*
X96815699Y-174273274D01*
X96956183Y-174155392D01*
X95016401Y-172215610D01*
X95016399Y-172215610D01*
X93076615Y-174155392D01*
X77515297Y-174155392D01*
X63853035Y-160493131D01*
X63853033Y-160493129D01*
X63749275Y-160423800D01*
X63633985Y-160376045D01*
X63560286Y-160361385D01*
X63511596Y-160351700D01*
X63511594Y-160351700D01*
X48336394Y-160351700D01*
X48268273Y-160331698D01*
X48233181Y-160297971D01*
X48123200Y-160140903D01*
X48123195Y-160140897D01*
X47961302Y-159979004D01*
X47961296Y-159978999D01*
X47773749Y-159847677D01*
X47566246Y-159750917D01*
X47566240Y-159750915D01*
X47472771Y-159725870D01*
X47345087Y-159691657D01*
X47117000Y-159671702D01*
X46888913Y-159691657D01*
X46667759Y-159750915D01*
X46667753Y-159750917D01*
X46460250Y-159847677D01*
X46272703Y-159978999D01*
X46272697Y-159979004D01*
X46110804Y-160140897D01*
X46110799Y-160140903D01*
X45979477Y-160328450D01*
X45882717Y-160535953D01*
X45882715Y-160535959D01*
X45823457Y-160757113D01*
X45803502Y-160985200D01*
X43363865Y-160985200D01*
X43328581Y-160413450D01*
X43328485Y-160411681D01*
X43252669Y-158782323D01*
X43252890Y-158780844D01*
X43250822Y-158741866D01*
X43250552Y-158736771D01*
X43250514Y-158735999D01*
X43248484Y-158692348D01*
X43248121Y-158690901D01*
X43159588Y-157020921D01*
X43160245Y-157015979D01*
X43158738Y-156996135D01*
X43158739Y-156996135D01*
X43157300Y-156977187D01*
X43157127Y-156974517D01*
X43156122Y-156955538D01*
X43156120Y-156955536D01*
X43155068Y-156935671D01*
X43153782Y-156930854D01*
X43094312Y-156147499D01*
X43094920Y-156141871D01*
X43092966Y-156122772D01*
X43092967Y-156122771D01*
X43091067Y-156104204D01*
X43090783Y-156101013D01*
X43089372Y-156082419D01*
X43089371Y-156082418D01*
X43087920Y-156063289D01*
X43086325Y-156057852D01*
X43072593Y-155923616D01*
X43008786Y-155299852D01*
X43009371Y-155292194D01*
X43004563Y-155257730D01*
X43004008Y-155253140D01*
X43004005Y-155253114D01*
X43002209Y-155235552D01*
X43002208Y-155235551D01*
X43000470Y-155218563D01*
X42998076Y-155211254D01*
X42995606Y-155193555D01*
X42897940Y-154493683D01*
X42898270Y-154483419D01*
X42895539Y-154469211D01*
X42895540Y-154469211D01*
X42892440Y-154453086D01*
X42891388Y-154446732D01*
X42889124Y-154430503D01*
X42889123Y-154430502D01*
X42887127Y-154416194D01*
X42883505Y-154406588D01*
X42756488Y-153745697D01*
X42756296Y-153735486D01*
X42748914Y-153705419D01*
X42747544Y-153699155D01*
X42741708Y-153668789D01*
X42737623Y-153659433D01*
X42673286Y-153397388D01*
X42672719Y-153388714D01*
X42668214Y-153373223D01*
X42665881Y-153365200D01*
X45803502Y-153365200D01*
X45823457Y-153593287D01*
X45841180Y-153659430D01*
X45882715Y-153814440D01*
X45882717Y-153814446D01*
X45979477Y-154021949D01*
X46028384Y-154091796D01*
X46110802Y-154209500D01*
X46272700Y-154371398D01*
X46460251Y-154502723D01*
X46667757Y-154599484D01*
X46888913Y-154658743D01*
X47117000Y-154678698D01*
X47345087Y-154658743D01*
X47566243Y-154599484D01*
X47773749Y-154502723D01*
X47961300Y-154371398D01*
X48123198Y-154209500D01*
X48203441Y-154094902D01*
X48233181Y-154052429D01*
X48288638Y-154008101D01*
X48336394Y-153998700D01*
X73802605Y-153998700D01*
X73870726Y-154018702D01*
X73891700Y-154035604D01*
X74227490Y-154371395D01*
X74457147Y-154601052D01*
X74457152Y-154601056D01*
X75161167Y-155305072D01*
X75264925Y-155374401D01*
X75316347Y-155395700D01*
X75380215Y-155422155D01*
X75502606Y-155446500D01*
X75502607Y-155446500D01*
X75627393Y-155446500D01*
X75627394Y-155446500D01*
X75749785Y-155422155D01*
X75790500Y-155405290D01*
X75838716Y-155395700D01*
X87793993Y-155395700D01*
X87793994Y-155395700D01*
X87916385Y-155371355D01*
X88031675Y-155323600D01*
X88135433Y-155254271D01*
X88884072Y-154505633D01*
X88884073Y-154505630D01*
X88891245Y-154498459D01*
X88891250Y-154498452D01*
X91297071Y-152092633D01*
X91366400Y-151988875D01*
X91414155Y-151873585D01*
X91438500Y-151751194D01*
X91438500Y-151626407D01*
X91438500Y-151159165D01*
X91458502Y-151091044D01*
X91498662Y-151051734D01*
X91694416Y-150931776D01*
X91704759Y-150922941D01*
X91769546Y-150893910D01*
X91839746Y-150904514D01*
X91888172Y-150947081D01*
X91889153Y-150946348D01*
X91892646Y-150951014D01*
X91893070Y-150951387D01*
X91893601Y-150952290D01*
X91982095Y-151070504D01*
X92099034Y-151158044D01*
X92235906Y-151209094D01*
X92296402Y-151215599D01*
X92296415Y-151215600D01*
X93091000Y-151215600D01*
X93091000Y-150138302D01*
X93152007Y-150173525D01*
X93279174Y-150207600D01*
X93410826Y-150207600D01*
X93537993Y-150173525D01*
X93599000Y-150138302D01*
X93599000Y-151215600D01*
X94393585Y-151215600D01*
X94393597Y-151215599D01*
X94454093Y-151209094D01*
X94590964Y-151158044D01*
X94590965Y-151158044D01*
X94707904Y-151070504D01*
X94795444Y-150953565D01*
X94795444Y-150953564D01*
X94846494Y-150816693D01*
X94852999Y-150756197D01*
X94853000Y-150756185D01*
X94853000Y-149961600D01*
X93775703Y-149961600D01*
X93810925Y-149900593D01*
X93845000Y-149773426D01*
X93845000Y-149641774D01*
X93810925Y-149514607D01*
X93775703Y-149453600D01*
X94853000Y-149453600D01*
X94853000Y-148684402D01*
X95291400Y-148684402D01*
X95291400Y-149479000D01*
X96368697Y-149479000D01*
X96333475Y-149540007D01*
X96299400Y-149667174D01*
X96299400Y-149798826D01*
X96333475Y-149925993D01*
X96368697Y-149987000D01*
X95291400Y-149987000D01*
X95291400Y-150781597D01*
X95297905Y-150842093D01*
X95348955Y-150978964D01*
X95348955Y-150978965D01*
X95436495Y-151095904D01*
X95553434Y-151183444D01*
X95690306Y-151234494D01*
X95750802Y-151240999D01*
X95750815Y-151241000D01*
X96545400Y-151241000D01*
X96545400Y-150163702D01*
X96606407Y-150198925D01*
X96733574Y-150233000D01*
X96865226Y-150233000D01*
X96992393Y-150198925D01*
X97053400Y-150163702D01*
X97053400Y-151241000D01*
X97847985Y-151241000D01*
X97847997Y-151240999D01*
X97908493Y-151234494D01*
X98045364Y-151183444D01*
X98045365Y-151183444D01*
X98162304Y-151095904D01*
X98255247Y-150971748D01*
X98257537Y-150973462D01*
X98297384Y-150933586D01*
X98366752Y-150918470D01*
X98433281Y-150943256D01*
X98439629Y-150948332D01*
X98449984Y-150957176D01*
X98645737Y-151077134D01*
X98693366Y-151129780D01*
X98705900Y-151184565D01*
X98705900Y-152106796D01*
X98710698Y-152130915D01*
X98730245Y-152229185D01*
X98778000Y-152344475D01*
X98847329Y-152448233D01*
X101387329Y-154988233D01*
X101475567Y-155076471D01*
X101579325Y-155145800D01*
X101694615Y-155193555D01*
X101817006Y-155217900D01*
X101817007Y-155217900D01*
X119162993Y-155217900D01*
X119162994Y-155217900D01*
X119285385Y-155193555D01*
X119400675Y-155145800D01*
X119504433Y-155076471D01*
X120469099Y-154111805D01*
X120531411Y-154077779D01*
X120558194Y-154074900D01*
X141630206Y-154074900D01*
X141698327Y-154094902D01*
X141733419Y-154128629D01*
X141843399Y-154285696D01*
X141843402Y-154285700D01*
X142005300Y-154447598D01*
X142192851Y-154578923D01*
X142400357Y-154675684D01*
X142621513Y-154734943D01*
X142849600Y-154754898D01*
X143077687Y-154734943D01*
X143298843Y-154675684D01*
X143506349Y-154578923D01*
X143693900Y-154447598D01*
X143855798Y-154285700D01*
X143987123Y-154098149D01*
X144083884Y-153890643D01*
X144143143Y-153669487D01*
X144163098Y-153441400D01*
X144143143Y-153213313D01*
X144083884Y-152992157D01*
X143987123Y-152784651D01*
X143855798Y-152597100D01*
X143693900Y-152435202D01*
X143675108Y-152422044D01*
X143506349Y-152303877D01*
X143298846Y-152207117D01*
X143298840Y-152207115D01*
X143135078Y-152163235D01*
X143077687Y-152147857D01*
X142849600Y-152127902D01*
X142621513Y-152147857D01*
X142400359Y-152207115D01*
X142400353Y-152207117D01*
X142192850Y-152303877D01*
X142005303Y-152435199D01*
X142005297Y-152435204D01*
X141843404Y-152597097D01*
X141843399Y-152597103D01*
X141733419Y-152754171D01*
X141677962Y-152798499D01*
X141630206Y-152807900D01*
X120181203Y-152807900D01*
X120108168Y-152822428D01*
X120058815Y-152832245D01*
X120058813Y-152832245D01*
X120058812Y-152832246D01*
X119943523Y-152880001D01*
X119839771Y-152949326D01*
X119839764Y-152949331D01*
X118875101Y-153913995D01*
X118812789Y-153948021D01*
X118786006Y-153950900D01*
X102193994Y-153950900D01*
X102125873Y-153930898D01*
X102104899Y-153913995D01*
X100009805Y-151818901D01*
X99975779Y-151756589D01*
X99972900Y-151729806D01*
X99972900Y-151184565D01*
X99992902Y-151116444D01*
X100033062Y-151077134D01*
X100228816Y-150957176D01*
X100409369Y-150802969D01*
X100563576Y-150622416D01*
X100687640Y-150419963D01*
X100778505Y-150200594D01*
X100833935Y-149969711D01*
X100852565Y-149733000D01*
X100833935Y-149496289D01*
X100778505Y-149265406D01*
X100687640Y-149046037D01*
X100563576Y-148843584D01*
X100558930Y-148838144D01*
X100409369Y-148663030D01*
X100228819Y-148508826D01*
X100228817Y-148508825D01*
X100228816Y-148508824D01*
X100026363Y-148384760D01*
X100003320Y-148375215D01*
X99806992Y-148293894D01*
X99649051Y-148255976D01*
X99576111Y-148238465D01*
X99339400Y-148219835D01*
X99102689Y-148238465D01*
X98871807Y-148293894D01*
X98652438Y-148384759D01*
X98449982Y-148508825D01*
X98439635Y-148517662D01*
X98374843Y-148546690D01*
X98304644Y-148536081D01*
X98256229Y-148493516D01*
X98255247Y-148494252D01*
X98251745Y-148489574D01*
X98251324Y-148489204D01*
X98250795Y-148488305D01*
X98162304Y-148370095D01*
X98045365Y-148282555D01*
X97908493Y-148231505D01*
X97847997Y-148225000D01*
X97053400Y-148225000D01*
X97053400Y-149302297D01*
X96992393Y-149267075D01*
X96865226Y-149233000D01*
X96733574Y-149233000D01*
X96606407Y-149267075D01*
X96545400Y-149302297D01*
X96545400Y-148225000D01*
X95750802Y-148225000D01*
X95690306Y-148231505D01*
X95553435Y-148282555D01*
X95553434Y-148282555D01*
X95436495Y-148370095D01*
X95348955Y-148487034D01*
X95348955Y-148487035D01*
X95297905Y-148623906D01*
X95291400Y-148684402D01*
X94853000Y-148684402D01*
X94853000Y-148659014D01*
X94852999Y-148659002D01*
X94846494Y-148598506D01*
X94795444Y-148461635D01*
X94795444Y-148461634D01*
X94707904Y-148344695D01*
X94590965Y-148257155D01*
X94454093Y-148206105D01*
X94393597Y-148199600D01*
X93599000Y-148199600D01*
X93599000Y-149276897D01*
X93537993Y-149241675D01*
X93410826Y-149207600D01*
X93279174Y-149207600D01*
X93152007Y-149241675D01*
X93091000Y-149276897D01*
X93091000Y-148199600D01*
X92296402Y-148199600D01*
X92235906Y-148206105D01*
X92099035Y-148257155D01*
X92099034Y-148257155D01*
X91982095Y-148344695D01*
X91889153Y-148468852D01*
X91886868Y-148467141D01*
X91846973Y-148507036D01*
X91777599Y-148522126D01*
X91711079Y-148497314D01*
X91704761Y-148492259D01*
X91694418Y-148483426D01*
X91694417Y-148483425D01*
X91694416Y-148483424D01*
X91491963Y-148359360D01*
X91479779Y-148354313D01*
X91272592Y-148268494D01*
X91069910Y-148219835D01*
X91041711Y-148213065D01*
X90805000Y-148194435D01*
X90568289Y-148213065D01*
X90337407Y-148268494D01*
X90118038Y-148359359D01*
X89915582Y-148483425D01*
X89915580Y-148483426D01*
X89735030Y-148637630D01*
X89580826Y-148818180D01*
X89580825Y-148818182D01*
X89456759Y-149020638D01*
X89365894Y-149240007D01*
X89314230Y-149455208D01*
X89310465Y-149470889D01*
X89291835Y-149707600D01*
X89310465Y-149944311D01*
X89314660Y-149961784D01*
X89365894Y-150175192D01*
X89456700Y-150394417D01*
X89456760Y-150394563D01*
X89573646Y-150585303D01*
X89580825Y-150597017D01*
X89580826Y-150597019D01*
X89735030Y-150777569D01*
X89915580Y-150931773D01*
X89915584Y-150931776D01*
X90111337Y-151051734D01*
X90158966Y-151104380D01*
X90171500Y-151159165D01*
X90171500Y-151374205D01*
X90151498Y-151442326D01*
X90134595Y-151463300D01*
X87506100Y-154091795D01*
X87443788Y-154125821D01*
X87417005Y-154128700D01*
X75828796Y-154128700D01*
X75760675Y-154108698D01*
X75739701Y-154091796D01*
X75353057Y-153705153D01*
X75353055Y-153705150D01*
X75241191Y-153593286D01*
X74521033Y-152873129D01*
X74417275Y-152803800D01*
X74301985Y-152756045D01*
X74224845Y-152740701D01*
X74179596Y-152731700D01*
X74179594Y-152731700D01*
X48336394Y-152731700D01*
X48268273Y-152711698D01*
X48233181Y-152677971D01*
X48145902Y-152553324D01*
X48123198Y-152520900D01*
X47961300Y-152359002D01*
X47940553Y-152344475D01*
X47773749Y-152227677D01*
X47566246Y-152130917D01*
X47566240Y-152130915D01*
X47450449Y-152099889D01*
X47345087Y-152071657D01*
X47117000Y-152051702D01*
X46888913Y-152071657D01*
X46667759Y-152130915D01*
X46667753Y-152130917D01*
X46460250Y-152227677D01*
X46272703Y-152358999D01*
X46272697Y-152359004D01*
X46110804Y-152520897D01*
X46110799Y-152520903D01*
X45979477Y-152708450D01*
X45882717Y-152915953D01*
X45882715Y-152915959D01*
X45844018Y-153060377D01*
X45823457Y-153137113D01*
X45803502Y-153365200D01*
X42665881Y-153365200D01*
X42663426Y-153356760D01*
X42662067Y-153351691D01*
X42657956Y-153334944D01*
X42657954Y-153334943D01*
X42654130Y-153319364D01*
X42650282Y-153311560D01*
X42579759Y-153069052D01*
X42578606Y-153058824D01*
X42573867Y-153045186D01*
X42573868Y-153045186D01*
X42568486Y-153029697D01*
X42566525Y-153023547D01*
X42557924Y-152993968D01*
X42552942Y-152984956D01*
X42475698Y-152762622D01*
X42473704Y-152750894D01*
X42462777Y-152724714D01*
X42460034Y-152717535D01*
X42456878Y-152708451D01*
X42454938Y-152702867D01*
X42454937Y-152702866D01*
X42450735Y-152690771D01*
X42444408Y-152680706D01*
X42359986Y-152478444D01*
X42355411Y-152460670D01*
X42352238Y-152454880D01*
X42352239Y-152454879D01*
X42346672Y-152444718D01*
X42340908Y-152432736D01*
X42336446Y-152422044D01*
X42336444Y-152422043D01*
X42333902Y-152415952D01*
X42322872Y-152401281D01*
X42186825Y-152152980D01*
X42179563Y-152134001D01*
X42170777Y-152121761D01*
X42162634Y-152108827D01*
X42155403Y-152095629D01*
X42141421Y-152080866D01*
X41961771Y-151830592D01*
X41953891Y-151815266D01*
X41940796Y-151800335D01*
X41940737Y-151800268D01*
X41933113Y-151790668D01*
X41921486Y-151774471D01*
X41908332Y-151763320D01*
X41688475Y-151512639D01*
X41680679Y-151500284D01*
X41663416Y-151483474D01*
X41656588Y-151476280D01*
X41640699Y-151458163D01*
X41628764Y-151449729D01*
X41371648Y-151199345D01*
X41364337Y-151189406D01*
X41343325Y-151171406D01*
X41337389Y-151165984D01*
X41337360Y-151165956D01*
X41326446Y-151155327D01*
X41317595Y-151146708D01*
X41307033Y-151140320D01*
X41294728Y-151129780D01*
X41191381Y-151041254D01*
X41015986Y-150891014D01*
X41009378Y-150883039D01*
X40997994Y-150874267D01*
X40985035Y-150864281D01*
X40979981Y-150860174D01*
X40956673Y-150840208D01*
X40947511Y-150835365D01*
X40626068Y-150587664D01*
X40620161Y-150581183D01*
X40607090Y-150571971D01*
X40593044Y-150562072D01*
X40588738Y-150558898D01*
X40562512Y-150538688D01*
X40554576Y-150534962D01*
X40206455Y-150289624D01*
X40201205Y-150284300D01*
X40186720Y-150274845D01*
X40171800Y-150265107D01*
X40168143Y-150262625D01*
X40153593Y-150252371D01*
X40139465Y-150242414D01*
X40132576Y-150239503D01*
X39760994Y-149996963D01*
X39754835Y-149991176D01*
X39725949Y-149973964D01*
X39721578Y-149971237D01*
X39719240Y-149969711D01*
X39707086Y-149961778D01*
X39693456Y-149952882D01*
X39685547Y-149949890D01*
X39676182Y-149944310D01*
X38957037Y-149515798D01*
X38813912Y-149430515D01*
X38807819Y-149425232D01*
X38793159Y-149417250D01*
X38777775Y-149408873D01*
X38773570Y-149406477D01*
X38744196Y-149388976D01*
X38736540Y-149386423D01*
X37821413Y-148888181D01*
X37817372Y-148884893D01*
X37783144Y-148867305D01*
X37780480Y-148865895D01*
X37746755Y-148847533D01*
X37741759Y-148846040D01*
X36819167Y-148371979D01*
X36817186Y-148370423D01*
X36795055Y-148359360D01*
X36779167Y-148351417D01*
X36777930Y-148350790D01*
X36740307Y-148331458D01*
X36737879Y-148330778D01*
X36590703Y-148257208D01*
X44608147Y-148257208D01*
X44608509Y-148264384D01*
X44608509Y-148264385D01*
X44609111Y-148276326D01*
X44609115Y-148276389D01*
X44609115Y-148289085D01*
X44608147Y-148308261D01*
X44611599Y-148325614D01*
X44620427Y-148500453D01*
X44618739Y-148518106D01*
X44621631Y-148537048D01*
X44622913Y-148549699D01*
X44623880Y-148568833D01*
X44629076Y-148585788D01*
X44654777Y-148754068D01*
X44654874Y-148771724D01*
X44659680Y-148790384D01*
X44662217Y-148802780D01*
X44665130Y-148821848D01*
X44671978Y-148838128D01*
X44713500Y-148999331D01*
X44715334Y-149016681D01*
X44722074Y-149035089D01*
X44725772Y-149046977D01*
X44730669Y-149065986D01*
X44739002Y-149081315D01*
X44795248Y-149234914D01*
X44798754Y-149251879D01*
X44802026Y-149258668D01*
X44802026Y-149258669D01*
X44802094Y-149258811D01*
X44807344Y-149269704D01*
X44812154Y-149281078D01*
X44818965Y-149299680D01*
X44828695Y-149314012D01*
X44882312Y-149425272D01*
X44898800Y-149459487D01*
X44903909Y-149475925D01*
X44914294Y-149493008D01*
X44920133Y-149503756D01*
X44928813Y-149521768D01*
X44939820Y-149534994D01*
X45022945Y-149671721D01*
X45029534Y-149687404D01*
X45041697Y-149703675D01*
X45048438Y-149713654D01*
X45058992Y-149731013D01*
X45071076Y-149742975D01*
X45166334Y-149870405D01*
X45174394Y-149885389D01*
X45188034Y-149900399D01*
X45195702Y-149909693D01*
X45207870Y-149925969D01*
X45221047Y-149936727D01*
X45327797Y-150054191D01*
X45337211Y-150068281D01*
X45343048Y-150073589D01*
X45343049Y-150073590D01*
X45343126Y-150073660D01*
X45352306Y-150082007D01*
X45360790Y-150090494D01*
X45374513Y-150105596D01*
X45388600Y-150115010D01*
X45505983Y-150221746D01*
X45516766Y-150234956D01*
X45532976Y-150247074D01*
X45542301Y-150254769D01*
X45557280Y-150268389D01*
X45572295Y-150276465D01*
X45699734Y-150371731D01*
X45711703Y-150383819D01*
X45729050Y-150394365D01*
X45739027Y-150401103D01*
X45749018Y-150408572D01*
X45749018Y-150408571D01*
X45755307Y-150413273D01*
X45770980Y-150419855D01*
X45907725Y-150502990D01*
X45920970Y-150514010D01*
X45927838Y-150517318D01*
X45927839Y-150517319D01*
X45938905Y-150522649D01*
X45938930Y-150522661D01*
X45949712Y-150528517D01*
X45966766Y-150538886D01*
X45983222Y-150543996D01*
X46128771Y-150614108D01*
X46143077Y-150623819D01*
X46150188Y-150626423D01*
X46150189Y-150626424D01*
X46161710Y-150630643D01*
X46173055Y-150635440D01*
X46184130Y-150640775D01*
X46184130Y-150640774D01*
X46190960Y-150644065D01*
X46207898Y-150647562D01*
X46273686Y-150671659D01*
X46361442Y-150703804D01*
X46376835Y-150712167D01*
X46383965Y-150713999D01*
X46383966Y-150714001D01*
X46395728Y-150717024D01*
X46407675Y-150720738D01*
X46419073Y-150724914D01*
X46419073Y-150724913D01*
X46426000Y-150727451D01*
X46443419Y-150729286D01*
X46604665Y-150770742D01*
X46620885Y-150777560D01*
X46628095Y-150778661D01*
X46628096Y-150778662D01*
X46640039Y-150780485D01*
X46652384Y-150783009D01*
X46664085Y-150786018D01*
X46664085Y-150786017D01*
X46671153Y-150787835D01*
X46688747Y-150787926D01*
X46856952Y-150813622D01*
X46873914Y-150818820D01*
X46881061Y-150819180D01*
X46881062Y-150819181D01*
X46893032Y-150819784D01*
X46905696Y-150821068D01*
X46917552Y-150822880D01*
X46917552Y-150822879D01*
X46924638Y-150823962D01*
X46942297Y-150822272D01*
X47117104Y-150831098D01*
X47134472Y-150834553D01*
X47141654Y-150834190D01*
X47141655Y-150834191D01*
X47153647Y-150833585D01*
X47166351Y-150833585D01*
X47178344Y-150834191D01*
X47178344Y-150834190D01*
X47185534Y-150834554D01*
X47202899Y-150831097D01*
X47377710Y-150822271D01*
X47395362Y-150823960D01*
X47402443Y-150822878D01*
X47402445Y-150822879D01*
X47414307Y-150821066D01*
X47426960Y-150819785D01*
X47438937Y-150819181D01*
X47438937Y-150819180D01*
X47446100Y-150818819D01*
X47463052Y-150813623D01*
X47631356Y-150787923D01*
X47648977Y-150787830D01*
X47656020Y-150786018D01*
X47656021Y-150786019D01*
X47667710Y-150783012D01*
X47680064Y-150780486D01*
X47692001Y-150778664D01*
X47692001Y-150778663D01*
X47699195Y-150777565D01*
X47715432Y-150770737D01*
X47876580Y-150729289D01*
X47893973Y-150727457D01*
X47912327Y-150720737D01*
X47924263Y-150717027D01*
X47943203Y-150712155D01*
X47958567Y-150703806D01*
X48112212Y-150647552D01*
X48129187Y-150644047D01*
X48135978Y-150640773D01*
X48135980Y-150640774D01*
X48147033Y-150635447D01*
X48158393Y-150630644D01*
X48169905Y-150626430D01*
X48169905Y-150626429D01*
X48176981Y-150623839D01*
X48191324Y-150614101D01*
X48336779Y-150544002D01*
X48353217Y-150538895D01*
X48359758Y-150534917D01*
X48359760Y-150534918D01*
X48370319Y-150528497D01*
X48381045Y-150522670D01*
X48392168Y-150517311D01*
X48392168Y-150517309D01*
X48399066Y-150513986D01*
X48412291Y-150502980D01*
X48521660Y-150436488D01*
X48549014Y-150419858D01*
X48564694Y-150413271D01*
X48570979Y-150408571D01*
X48570982Y-150408572D01*
X48580990Y-150401089D01*
X48590940Y-150394368D01*
X48601608Y-150387884D01*
X48601608Y-150387882D01*
X48608315Y-150383805D01*
X48620275Y-150371722D01*
X48747700Y-150276468D01*
X48762684Y-150268410D01*
X48768482Y-150263140D01*
X48768483Y-150263141D01*
X48777700Y-150254763D01*
X48786996Y-150247094D01*
X48796990Y-150239624D01*
X48796990Y-150239622D01*
X48803267Y-150234930D01*
X48814025Y-150221751D01*
X48931493Y-150114998D01*
X48945615Y-150105563D01*
X48950903Y-150099744D01*
X48950904Y-150099744D01*
X48959296Y-150090508D01*
X48967809Y-150081996D01*
X48976982Y-150073660D01*
X48977044Y-150073604D01*
X48977044Y-150073603D01*
X48982863Y-150068315D01*
X48992298Y-150054193D01*
X49099051Y-149936725D01*
X49112230Y-149925967D01*
X49116922Y-149919690D01*
X49116924Y-149919690D01*
X49124397Y-149909693D01*
X49132066Y-149900398D01*
X49132088Y-149900374D01*
X49140441Y-149891183D01*
X49140440Y-149891182D01*
X49145710Y-149885384D01*
X49153766Y-149870402D01*
X49249028Y-149742968D01*
X49261111Y-149731006D01*
X49265182Y-149724308D01*
X49265185Y-149724308D01*
X49271671Y-149713637D01*
X49278411Y-149703662D01*
X49282094Y-149698735D01*
X49285872Y-149693682D01*
X49285871Y-149693681D01*
X49290569Y-149687399D01*
X49297155Y-149671718D01*
X49380282Y-149534987D01*
X49391288Y-149521762D01*
X49394610Y-149514867D01*
X49394612Y-149514867D01*
X49399968Y-149503750D01*
X49405812Y-149492995D01*
X49405846Y-149492940D01*
X49412218Y-149482460D01*
X49412217Y-149482459D01*
X49416194Y-149475920D01*
X49421301Y-149459481D01*
X49491401Y-149314016D01*
X49501135Y-149299679D01*
X49507940Y-149281093D01*
X49512754Y-149269707D01*
X49512804Y-149269603D01*
X49518074Y-149258669D01*
X49518073Y-149258668D01*
X49521348Y-149251874D01*
X49524851Y-149234912D01*
X49581105Y-149081292D01*
X49589457Y-149065924D01*
X49591297Y-149058766D01*
X49591299Y-149058766D01*
X49594326Y-149046993D01*
X49598037Y-149035057D01*
X49604752Y-149016719D01*
X49606585Y-148999319D01*
X49648038Y-148838123D01*
X49654862Y-148821896D01*
X49655961Y-148814693D01*
X49655963Y-148814693D01*
X49657786Y-148802747D01*
X49660309Y-148790408D01*
X49663319Y-148778708D01*
X49663318Y-148778706D01*
X49665132Y-148771654D01*
X49665224Y-148754043D01*
X49690922Y-148585793D01*
X49696119Y-148568838D01*
X49697085Y-148549706D01*
X49698370Y-148537032D01*
X49701260Y-148518106D01*
X49699571Y-148500450D01*
X49708398Y-148325620D01*
X49711853Y-148308259D01*
X49711127Y-148293894D01*
X49710884Y-148289081D01*
X49710884Y-148276367D01*
X49710886Y-148276328D01*
X49711490Y-148264385D01*
X49711489Y-148264384D01*
X49711852Y-148257207D01*
X49708398Y-148239839D01*
X49708329Y-148238465D01*
X49699571Y-148065000D01*
X49701261Y-148047351D01*
X49700178Y-148040264D01*
X49700179Y-148040264D01*
X49698367Y-148028409D01*
X49697084Y-148015735D01*
X49697083Y-148015718D01*
X49696481Y-148003772D01*
X49696480Y-148003771D01*
X49696120Y-147996622D01*
X49690922Y-147979658D01*
X49690013Y-147973709D01*
X49665225Y-147811412D01*
X49665134Y-147793802D01*
X49663318Y-147786742D01*
X49663319Y-147786742D01*
X49660309Y-147775039D01*
X49657787Y-147762707D01*
X49655963Y-147750757D01*
X49655960Y-147750755D01*
X49654862Y-147743560D01*
X49648040Y-147727331D01*
X49606586Y-147566131D01*
X49604754Y-147548737D01*
X49598039Y-147530399D01*
X49594325Y-147518451D01*
X49589459Y-147499531D01*
X49581106Y-147484156D01*
X49524855Y-147330547D01*
X49521353Y-147313586D01*
X49512753Y-147295739D01*
X49507945Y-147284369D01*
X49501135Y-147265773D01*
X49491404Y-147251436D01*
X49461579Y-147189542D01*
X49421299Y-147105953D01*
X49416196Y-147089527D01*
X49405810Y-147072442D01*
X49399973Y-147061698D01*
X49394613Y-147050573D01*
X49394611Y-147050572D01*
X49391290Y-147043679D01*
X49380286Y-147030453D01*
X49297152Y-146893690D01*
X49290559Y-146877995D01*
X49285870Y-146871724D01*
X49285871Y-146871724D01*
X49278407Y-146861741D01*
X49271659Y-146851751D01*
X49261123Y-146834418D01*
X49249025Y-146822442D01*
X49153770Y-146695037D01*
X49145709Y-146680050D01*
X49140438Y-146674252D01*
X49140439Y-146674251D01*
X49132043Y-146665015D01*
X49124384Y-146655732D01*
X49116920Y-146645748D01*
X49116917Y-146645747D01*
X49112231Y-146639479D01*
X49099054Y-146628721D01*
X48992301Y-146511279D01*
X48982872Y-146497169D01*
X48967803Y-146483476D01*
X48959305Y-146474980D01*
X48953710Y-146468825D01*
X48950899Y-146465733D01*
X48950898Y-146465732D01*
X48945605Y-146459910D01*
X48931485Y-146450476D01*
X48814039Y-146343756D01*
X48803303Y-146330602D01*
X48786989Y-146318402D01*
X48777731Y-146310764D01*
X48768480Y-146302358D01*
X48768478Y-146302358D01*
X48762657Y-146297068D01*
X48747708Y-146289026D01*
X48620274Y-146193726D01*
X48608277Y-146181605D01*
X48601604Y-146177549D01*
X48590960Y-146171080D01*
X48580951Y-146164318D01*
X48564753Y-146152205D01*
X48549036Y-146145600D01*
X48412299Y-146062497D01*
X48399089Y-146051505D01*
X48381043Y-146042807D01*
X48370313Y-146036979D01*
X48353192Y-146026574D01*
X48336784Y-146021475D01*
X48191325Y-145951369D01*
X48176983Y-145941631D01*
X48158394Y-145934825D01*
X48147014Y-145930012D01*
X48129207Y-145921430D01*
X48112223Y-145917920D01*
X47958568Y-145861662D01*
X47943222Y-145853323D01*
X47924261Y-145848444D01*
X47912346Y-145844740D01*
X47893968Y-145838011D01*
X47876599Y-145836178D01*
X47715430Y-145794705D01*
X47699179Y-145787871D01*
X47680078Y-145784954D01*
X47667706Y-145782425D01*
X47658214Y-145779982D01*
X47656027Y-145779420D01*
X47648996Y-145777611D01*
X47631363Y-145777516D01*
X47463051Y-145751814D01*
X47446105Y-145746621D01*
X47426959Y-145745654D01*
X47414302Y-145744371D01*
X47395362Y-145741479D01*
X47377712Y-145743165D01*
X47205392Y-145734458D01*
X47188763Y-145730712D01*
X47166352Y-145731844D01*
X47153648Y-145731844D01*
X47131252Y-145730713D01*
X47114621Y-145734458D01*
X46942288Y-145743165D01*
X46924633Y-145741478D01*
X46905686Y-145744372D01*
X46893025Y-145745655D01*
X46873907Y-145746621D01*
X46856956Y-145751815D01*
X46688742Y-145777513D01*
X46671137Y-145777605D01*
X46654346Y-145781923D01*
X46653362Y-145782177D01*
X46652378Y-145782430D01*
X46640031Y-145784954D01*
X46620903Y-145787876D01*
X46604675Y-145794699D01*
X46443404Y-145836181D01*
X46426003Y-145838017D01*
X46407663Y-145844734D01*
X46395730Y-145848445D01*
X46376808Y-145853313D01*
X46361435Y-145861667D01*
X46207887Y-145917911D01*
X46190950Y-145921409D01*
X46173051Y-145930030D01*
X46161723Y-145934820D01*
X46143079Y-145941650D01*
X46128772Y-145951361D01*
X45983218Y-146021481D01*
X45966787Y-146026585D01*
X45949698Y-146036971D01*
X45938956Y-146042805D01*
X45920948Y-146051481D01*
X45907718Y-146062485D01*
X45770962Y-146145599D01*
X45755249Y-146152203D01*
X45739038Y-146164325D01*
X45729031Y-146171085D01*
X45711733Y-146181599D01*
X45699740Y-146193713D01*
X45572284Y-146289030D01*
X45557301Y-146297092D01*
X45542274Y-146310754D01*
X45532983Y-146318422D01*
X45516731Y-146330576D01*
X45505975Y-146343756D01*
X45388599Y-146450473D01*
X45374516Y-146459884D01*
X45360778Y-146474997D01*
X45352312Y-146483464D01*
X45337203Y-146497201D01*
X45327796Y-146511280D01*
X45221044Y-146628721D01*
X45207866Y-146639479D01*
X45195714Y-146655732D01*
X45188045Y-146665027D01*
X45174393Y-146680046D01*
X45166331Y-146695032D01*
X45071068Y-146822447D01*
X45058972Y-146834424D01*
X45048436Y-146851756D01*
X45041689Y-146861744D01*
X45038745Y-146865682D01*
X45029541Y-146877993D01*
X45022951Y-146893681D01*
X44939812Y-147030453D01*
X44928809Y-147043677D01*
X44920126Y-147061696D01*
X44914293Y-147072434D01*
X44903905Y-147089524D01*
X44898802Y-147105946D01*
X44828692Y-147251441D01*
X44818965Y-147265772D01*
X44812149Y-147284382D01*
X44807347Y-147295737D01*
X44798749Y-147313580D01*
X44795247Y-147330538D01*
X44738999Y-147484142D01*
X44730667Y-147499470D01*
X44725769Y-147518481D01*
X44722074Y-147530361D01*
X44715331Y-147548777D01*
X44713499Y-147566122D01*
X44671976Y-147727328D01*
X44665129Y-147743607D01*
X44662218Y-147762664D01*
X44659682Y-147775056D01*
X44654873Y-147793730D01*
X44654777Y-147811383D01*
X44629075Y-147979667D01*
X44623880Y-147996623D01*
X44622914Y-148015751D01*
X44621630Y-148028413D01*
X44618739Y-148047345D01*
X44620427Y-148064998D01*
X44611600Y-148239841D01*
X44608147Y-148257208D01*
X36590703Y-148257208D01*
X35802223Y-147863066D01*
X35802049Y-147862904D01*
X35802019Y-147862964D01*
X34889438Y-147404711D01*
X34887394Y-147403661D01*
X34076095Y-146977559D01*
X34071283Y-146974896D01*
X33395887Y-146581656D01*
X33389402Y-146577612D01*
X33117714Y-146396518D01*
X33111065Y-146391767D01*
X33107550Y-146389079D01*
X32888030Y-146221230D01*
X32878485Y-146213150D01*
X32878430Y-146213099D01*
X32711297Y-146056733D01*
X32697749Y-146041859D01*
X32587080Y-145898917D01*
X32574702Y-145879490D01*
X32570700Y-145871722D01*
X32546252Y-145824271D01*
X32538196Y-145804775D01*
X32521891Y-145753518D01*
X32516615Y-145728119D01*
X32512864Y-145691360D01*
X32512262Y-145685459D01*
X32512819Y-145655265D01*
X32518043Y-145617808D01*
X32526220Y-145587495D01*
X32541695Y-145549684D01*
X32555448Y-145524637D01*
X32585148Y-145482671D01*
X32600628Y-145464671D01*
X32649070Y-145418065D01*
X32663489Y-145406124D01*
X32663512Y-145406108D01*
X32729393Y-145359340D01*
X32746995Y-145348886D01*
X32955861Y-145246827D01*
X32972507Y-145240118D01*
X33268806Y-145144630D01*
X33276459Y-145142430D01*
X34064585Y-144942818D01*
X34067531Y-144942112D01*
X34902557Y-144753004D01*
X34905376Y-144752400D01*
X35782281Y-144574849D01*
X35784686Y-144574388D01*
X36701423Y-144408692D01*
X36703643Y-144408313D01*
X37658192Y-144254782D01*
X37660271Y-144254467D01*
X38650679Y-144113360D01*
X38652605Y-144113102D01*
X39676794Y-143984691D01*
X39678559Y-143984484D01*
X40734592Y-143869052D01*
X40736348Y-143868873D01*
X41822357Y-143766677D01*
X41824062Y-143766530D01*
X42937716Y-143677854D01*
X42939310Y-143677737D01*
X44078954Y-143602826D01*
X44080587Y-143602730D01*
X45244177Y-143541851D01*
X45245748Y-143541779D01*
X46431330Y-143495181D01*
X46432810Y-143495132D01*
X47638578Y-143463086D01*
X47639888Y-143463060D01*
X48863598Y-143445818D01*
X48864911Y-143445807D01*
X50104743Y-143443651D01*
X50106263Y-143443658D01*
X51528187Y-143459751D01*
X51529858Y-143459782D01*
X52967034Y-143495963D01*
X52968597Y-143496013D01*
X54418072Y-143552651D01*
X54419792Y-143552731D01*
X55878881Y-143630207D01*
X55880544Y-143630308D01*
X57346103Y-143729004D01*
X57347652Y-143729119D01*
X58817297Y-143849433D01*
X58818952Y-143849581D01*
X60289154Y-143991850D01*
X60290947Y-143992038D01*
X61759219Y-144156663D01*
X61760969Y-144156872D01*
X63224579Y-144344263D01*
X63226480Y-144344523D01*
X64682054Y-144554975D01*
X64684004Y-144555273D01*
X66129190Y-144789237D01*
X66131299Y-144789598D01*
X67562780Y-145047378D01*
X67564909Y-145047781D01*
X68980287Y-145329808D01*
X68982558Y-145330283D01*
X70378595Y-145636906D01*
X70380958Y-145637451D01*
X71754962Y-145969028D01*
X71757541Y-145969680D01*
X73106205Y-146326483D01*
X73109252Y-146327330D01*
X73876688Y-146551335D01*
X73879750Y-146552271D01*
X74673480Y-146806072D01*
X74676147Y-146806958D01*
X75494473Y-147089087D01*
X75496753Y-147089898D01*
X76337952Y-147398905D01*
X76340025Y-147399688D01*
X77201984Y-147733916D01*
X77203738Y-147734612D01*
X78084021Y-148092377D01*
X78086395Y-148093371D01*
X79897378Y-148874481D01*
X79900061Y-148875676D01*
X81763105Y-149732846D01*
X81765339Y-149733902D01*
X83665631Y-150654892D01*
X83667458Y-150655796D01*
X85590347Y-151628428D01*
X85591802Y-151629177D01*
X87487878Y-152623092D01*
X87504861Y-152635128D01*
X87518259Y-152640134D01*
X87532661Y-152646569D01*
X87542806Y-152651887D01*
X87546753Y-152651995D01*
X87548219Y-152651326D01*
X87548221Y-152651327D01*
X87557183Y-152647239D01*
X87571914Y-152641607D01*
X87581315Y-152638673D01*
X87581315Y-152638672D01*
X87582850Y-152638193D01*
X87585722Y-152635474D01*
X87586284Y-152633969D01*
X87586286Y-152633969D01*
X87589737Y-152624729D01*
X87596172Y-152610330D01*
X87597225Y-152608322D01*
X87600739Y-152601619D01*
X87600738Y-152601617D01*
X87602806Y-152597674D01*
X87607423Y-152577389D01*
X87979998Y-151580139D01*
X87982117Y-151574844D01*
X88396957Y-150603547D01*
X88399829Y-150597302D01*
X88404494Y-150587845D01*
X88406943Y-150582881D01*
X88406942Y-150582879D01*
X88407086Y-150582589D01*
X88407178Y-150580198D01*
X88407058Y-150579898D01*
X88401046Y-150564925D01*
X88398676Y-150558522D01*
X88029258Y-149469849D01*
X88028384Y-149467173D01*
X87709247Y-148450157D01*
X87708357Y-148447191D01*
X87367038Y-147254970D01*
X87366237Y-147252032D01*
X87202869Y-146622162D01*
X87202211Y-146619505D01*
X87198704Y-146604648D01*
X87066095Y-146042805D01*
X87053014Y-145987384D01*
X87052256Y-145983957D01*
X87041092Y-145929974D01*
X86924093Y-145364214D01*
X86923271Y-145359845D01*
X86822682Y-144766490D01*
X86821828Y-144760610D01*
X86821454Y-144757530D01*
X86754840Y-144208642D01*
X86754108Y-144200282D01*
X86727402Y-143704657D01*
X86727355Y-143692046D01*
X86727821Y-143682013D01*
X86747194Y-143264310D01*
X86748599Y-143250514D01*
X86749664Y-143243766D01*
X86776504Y-143073675D01*
X86779087Y-143061349D01*
X86818130Y-142912597D01*
X86826959Y-142888937D01*
X86872318Y-142796821D01*
X86897134Y-142762525D01*
X86949763Y-142710913D01*
X86987578Y-142685395D01*
X87055933Y-142655560D01*
X87093096Y-142645738D01*
X87190454Y-142635453D01*
X87215459Y-142635308D01*
X87291834Y-142642476D01*
G37*
%TD.AperFunction*%
%TD*%
M02*
