%TF.GenerationSoftware,KiCad,Pcbnew,8.0.5*%
%TF.CreationDate,2025-02-18T13:06:51+00:00*%
%TF.ProjectId,bat-design,6261742d-6465-4736-9967-6e2e6b696361,v1*%
%TF.SameCoordinates,Original*%
%TF.FileFunction,Legend,Top*%
%TF.FilePolarity,Positive*%
%FSLAX46Y46*%
G04 Gerber Fmt 4.6, Leading zero omitted, Abs format (unit mm)*
G04 Created by KiCad (PCBNEW 8.0.5) date 2025-02-18 13:06:51*
%MOMM*%
%LPD*%
G01*
G04 APERTURE LIST*
%ADD10C,0.150000*%
%ADD11C,0.100000*%
%ADD12C,0.120000*%
%ADD13C,0.010000*%
G04 APERTURE END LIST*
D10*
X91260705Y-152169019D02*
X91260705Y-151169019D01*
X91260705Y-151169019D02*
X91498800Y-151169019D01*
X91498800Y-151169019D02*
X91641657Y-151216638D01*
X91641657Y-151216638D02*
X91736895Y-151311876D01*
X91736895Y-151311876D02*
X91784514Y-151407114D01*
X91784514Y-151407114D02*
X91832133Y-151597590D01*
X91832133Y-151597590D02*
X91832133Y-151740447D01*
X91832133Y-151740447D02*
X91784514Y-151930923D01*
X91784514Y-151930923D02*
X91736895Y-152026161D01*
X91736895Y-152026161D02*
X91641657Y-152121400D01*
X91641657Y-152121400D02*
X91498800Y-152169019D01*
X91498800Y-152169019D02*
X91260705Y-152169019D01*
X92784514Y-152169019D02*
X92213086Y-152169019D01*
X92498800Y-152169019D02*
X92498800Y-151169019D01*
X92498800Y-151169019D02*
X92403562Y-151311876D01*
X92403562Y-151311876D02*
X92308324Y-151407114D01*
X92308324Y-151407114D02*
X92213086Y-151454733D01*
X97432905Y-152169019D02*
X97432905Y-151169019D01*
X97432905Y-151169019D02*
X97671000Y-151169019D01*
X97671000Y-151169019D02*
X97813857Y-151216638D01*
X97813857Y-151216638D02*
X97909095Y-151311876D01*
X97909095Y-151311876D02*
X97956714Y-151407114D01*
X97956714Y-151407114D02*
X98004333Y-151597590D01*
X98004333Y-151597590D02*
X98004333Y-151740447D01*
X98004333Y-151740447D02*
X97956714Y-151930923D01*
X97956714Y-151930923D02*
X97909095Y-152026161D01*
X97909095Y-152026161D02*
X97813857Y-152121400D01*
X97813857Y-152121400D02*
X97671000Y-152169019D01*
X97671000Y-152169019D02*
X97432905Y-152169019D01*
X98385286Y-151264257D02*
X98432905Y-151216638D01*
X98432905Y-151216638D02*
X98528143Y-151169019D01*
X98528143Y-151169019D02*
X98766238Y-151169019D01*
X98766238Y-151169019D02*
X98861476Y-151216638D01*
X98861476Y-151216638D02*
X98909095Y-151264257D01*
X98909095Y-151264257D02*
X98956714Y-151359495D01*
X98956714Y-151359495D02*
X98956714Y-151454733D01*
X98956714Y-151454733D02*
X98909095Y-151597590D01*
X98909095Y-151597590D02*
X98337667Y-152169019D01*
X98337667Y-152169019D02*
X98956714Y-152169019D01*
X46975733Y-157680819D02*
X46642400Y-157204628D01*
X46404305Y-157680819D02*
X46404305Y-156680819D01*
X46404305Y-156680819D02*
X46785257Y-156680819D01*
X46785257Y-156680819D02*
X46880495Y-156728438D01*
X46880495Y-156728438D02*
X46928114Y-156776057D01*
X46928114Y-156776057D02*
X46975733Y-156871295D01*
X46975733Y-156871295D02*
X46975733Y-157014152D01*
X46975733Y-157014152D02*
X46928114Y-157109390D01*
X46928114Y-157109390D02*
X46880495Y-157157009D01*
X46880495Y-157157009D02*
X46785257Y-157204628D01*
X46785257Y-157204628D02*
X46404305Y-157204628D01*
X47928114Y-157680819D02*
X47356686Y-157680819D01*
X47642400Y-157680819D02*
X47642400Y-156680819D01*
X47642400Y-156680819D02*
X47547162Y-156823676D01*
X47547162Y-156823676D02*
X47451924Y-156918914D01*
X47451924Y-156918914D02*
X47356686Y-156966533D01*
X142632133Y-157680819D02*
X142298800Y-157204628D01*
X142060705Y-157680819D02*
X142060705Y-156680819D01*
X142060705Y-156680819D02*
X142441657Y-156680819D01*
X142441657Y-156680819D02*
X142536895Y-156728438D01*
X142536895Y-156728438D02*
X142584514Y-156776057D01*
X142584514Y-156776057D02*
X142632133Y-156871295D01*
X142632133Y-156871295D02*
X142632133Y-157014152D01*
X142632133Y-157014152D02*
X142584514Y-157109390D01*
X142584514Y-157109390D02*
X142536895Y-157157009D01*
X142536895Y-157157009D02*
X142441657Y-157204628D01*
X142441657Y-157204628D02*
X142060705Y-157204628D01*
X143013086Y-156776057D02*
X143060705Y-156728438D01*
X143060705Y-156728438D02*
X143155943Y-156680819D01*
X143155943Y-156680819D02*
X143394038Y-156680819D01*
X143394038Y-156680819D02*
X143489276Y-156728438D01*
X143489276Y-156728438D02*
X143536895Y-156776057D01*
X143536895Y-156776057D02*
X143584514Y-156871295D01*
X143584514Y-156871295D02*
X143584514Y-156966533D01*
X143584514Y-156966533D02*
X143536895Y-157109390D01*
X143536895Y-157109390D02*
X142965467Y-157680819D01*
X142965467Y-157680819D02*
X143584514Y-157680819D01*
D11*
%TO.C,D1*%
X94685000Y-148077600D02*
X94685000Y-151287600D01*
X94686718Y-151314811D02*
G75*
G02*
X94685000Y-148097600I-2611718J1607211D01*
G01*
%TO.C,D2*%
X95459400Y-151363000D02*
X95459400Y-148153000D01*
X95457682Y-148125789D02*
G75*
G02*
X95459400Y-151343000I2611718J-1607211D01*
G01*
D12*
%TO.C,R1*%
X45747000Y-153905200D02*
X46077000Y-153905200D01*
X45747000Y-160445200D02*
X45747000Y-153905200D01*
X46077000Y-160445200D02*
X45747000Y-160445200D01*
X48157000Y-160445200D02*
X48487000Y-160445200D01*
X48487000Y-153905200D02*
X48157000Y-153905200D01*
X48487000Y-160445200D02*
X48487000Y-153905200D01*
%TO.C,R2*%
X141479600Y-153981400D02*
X141809600Y-153981400D01*
X141479600Y-160521400D02*
X141479600Y-153981400D01*
X141809600Y-160521400D02*
X141479600Y-160521400D01*
X143889600Y-160521400D02*
X144219600Y-160521400D01*
X144219600Y-153981400D02*
X143889600Y-153981400D01*
X144219600Y-160521400D02*
X144219600Y-153981400D01*
D13*
%TO.C,Ref\u002A\u002A*%
X141410267Y-143388855D02*
X143024437Y-143418841D01*
X144565443Y-143469679D01*
X146042339Y-143541997D01*
X147464176Y-143636424D01*
X148840007Y-143753586D01*
X150178884Y-143894112D01*
X151489859Y-144058629D01*
X151908934Y-144117012D01*
X152455808Y-144198672D01*
X153012348Y-144288569D01*
X153569873Y-144384874D01*
X154119702Y-144485762D01*
X154653152Y-144589404D01*
X155161542Y-144693975D01*
X155636191Y-144797647D01*
X156068418Y-144898595D01*
X156449540Y-144994990D01*
X156770877Y-145085007D01*
X157023746Y-145166818D01*
X157167319Y-145223511D01*
X157363969Y-145334277D01*
X157487475Y-145458328D01*
X157536931Y-145596859D01*
X157511430Y-145751061D01*
X157410065Y-145922128D01*
X157231931Y-146111253D01*
X156976119Y-146319629D01*
X156641725Y-146548450D01*
X156227840Y-146798907D01*
X155782434Y-147046057D01*
X155623510Y-147130007D01*
X155400360Y-147245982D01*
X155124469Y-147388107D01*
X154807320Y-147550507D01*
X154460399Y-147727307D01*
X154095189Y-147912632D01*
X153723176Y-148100607D01*
X153581100Y-148172172D01*
X152843691Y-148547096D01*
X152178998Y-148893539D01*
X151581365Y-149215048D01*
X151045135Y-149515171D01*
X150564649Y-149797456D01*
X150134250Y-150065451D01*
X149748282Y-150322704D01*
X149401085Y-150572762D01*
X149087004Y-150819173D01*
X148800380Y-151065485D01*
X148535556Y-151315245D01*
X148478939Y-151371733D01*
X148192939Y-151680828D01*
X147959509Y-151984404D01*
X147768143Y-152301618D01*
X147608340Y-152651629D01*
X147469597Y-153053592D01*
X147378803Y-153378375D01*
X147302964Y-153688035D01*
X147234193Y-154007758D01*
X147171762Y-154344519D01*
X147114940Y-154705295D01*
X147062996Y-155097062D01*
X147015201Y-155526796D01*
X146970823Y-156001474D01*
X146929134Y-156528072D01*
X146889402Y-157113566D01*
X146850898Y-157764933D01*
X146812892Y-158489148D01*
X146786441Y-159037867D01*
X146752460Y-159731636D01*
X146718797Y-160346551D01*
X146684761Y-160888418D01*
X146649658Y-161363044D01*
X146612797Y-161776233D01*
X146573485Y-162133794D01*
X146531032Y-162441532D01*
X146484744Y-162705254D01*
X146433930Y-162930765D01*
X146377897Y-163123873D01*
X146315955Y-163290383D01*
X146266743Y-163398200D01*
X146200339Y-163519108D01*
X146124931Y-163624436D01*
X146034311Y-163715514D01*
X145922272Y-163793672D01*
X145782605Y-163860240D01*
X145609102Y-163916547D01*
X145395553Y-163963923D01*
X145135752Y-164003697D01*
X144823490Y-164037201D01*
X144452558Y-164065762D01*
X144016748Y-164090711D01*
X143509852Y-164113377D01*
X142925662Y-164135091D01*
X142807267Y-164139156D01*
X142120052Y-164164366D01*
X141508442Y-164191140D01*
X140963376Y-164220427D01*
X140475795Y-164253180D01*
X140036639Y-164290347D01*
X139636847Y-164332880D01*
X139267360Y-164381730D01*
X138919118Y-164437845D01*
X138583060Y-164502178D01*
X138250128Y-164575679D01*
X137954034Y-164648315D01*
X137203577Y-164870289D01*
X136523625Y-165135814D01*
X135910716Y-165447236D01*
X135361391Y-165806902D01*
X134872189Y-166217161D01*
X134439649Y-166680360D01*
X134060310Y-167198845D01*
X133961879Y-167356367D01*
X133817266Y-167602606D01*
X133692527Y-167831990D01*
X133577138Y-168066388D01*
X133460576Y-168327670D01*
X133332317Y-168637704D01*
X133269163Y-168795965D01*
X133152523Y-169100527D01*
X133041995Y-169411279D01*
X132935489Y-169736239D01*
X132830913Y-170083431D01*
X132726176Y-170460874D01*
X132619187Y-170876590D01*
X132507853Y-171338599D01*
X132390085Y-171854923D01*
X132263791Y-172433582D01*
X132126878Y-173082598D01*
X132033037Y-173537034D01*
X131914772Y-174108614D01*
X131809747Y-174603925D01*
X131716052Y-175030001D01*
X131631778Y-175393873D01*
X131555016Y-175702572D01*
X131483857Y-175963132D01*
X131416392Y-176182584D01*
X131350712Y-176367961D01*
X131284908Y-176526295D01*
X131217071Y-176664617D01*
X131153686Y-176776184D01*
X131028539Y-176961295D01*
X130905839Y-177081316D01*
X130760954Y-177150838D01*
X130569251Y-177184450D01*
X130451326Y-177192207D01*
X130299203Y-177195243D01*
X130141854Y-177189362D01*
X129971523Y-177172804D01*
X129780455Y-177143811D01*
X129560893Y-177100623D01*
X129305083Y-177041478D01*
X129005268Y-176964619D01*
X128653693Y-176868285D01*
X128242601Y-176750716D01*
X127764237Y-176610153D01*
X127376767Y-176494608D01*
X126529174Y-176248531D01*
X125750818Y-176039480D01*
X125035242Y-175866549D01*
X124375991Y-175728833D01*
X123766608Y-175625424D01*
X123200636Y-175555416D01*
X122671619Y-175517904D01*
X122173101Y-175511980D01*
X121698625Y-175536737D01*
X121241734Y-175591271D01*
X121103486Y-175613936D01*
X120635123Y-175716735D01*
X120188996Y-175859725D01*
X119762358Y-176046118D01*
X119352462Y-176279126D01*
X118956562Y-176561963D01*
X118571912Y-176897841D01*
X118195763Y-177289973D01*
X117825371Y-177741570D01*
X117457988Y-178255845D01*
X117090868Y-178836011D01*
X116721264Y-179485281D01*
X116346429Y-180206866D01*
X115963617Y-181003980D01*
X115570082Y-181879835D01*
X115390877Y-182295547D01*
X115258876Y-182605403D01*
X115114325Y-182944803D01*
X114968918Y-183286281D01*
X114834349Y-183602373D01*
X114731002Y-183845200D01*
X114493477Y-184388481D01*
X114276516Y-184852923D01*
X114078475Y-185241391D01*
X113897715Y-185556750D01*
X113732595Y-185801864D01*
X113581472Y-185979599D01*
X113443589Y-186092273D01*
X113354927Y-186138654D01*
X113254620Y-186169011D01*
X113120505Y-186187453D01*
X112930417Y-186198090D01*
X112860925Y-186200322D01*
X112603557Y-186198544D01*
X112321276Y-186182128D01*
X112064796Y-186154205D01*
X112030934Y-186149099D01*
X111525590Y-186056940D01*
X110946925Y-185928978D01*
X110297887Y-185766168D01*
X109581423Y-185569465D01*
X108800483Y-185339827D01*
X107958015Y-185078208D01*
X107056966Y-184785565D01*
X106100286Y-184462853D01*
X105090923Y-184111029D01*
X104031825Y-183731048D01*
X102925941Y-183323867D01*
X101776219Y-182890442D01*
X100685929Y-182470746D01*
X100391091Y-182355893D01*
X100122792Y-182250846D01*
X99890922Y-182159520D01*
X99705373Y-182085831D01*
X99576034Y-182033694D01*
X99512798Y-182007023D01*
X99508195Y-182004573D01*
X99526390Y-181967413D01*
X99586370Y-181877369D01*
X99678308Y-181748672D01*
X99772824Y-181621396D01*
X100229083Y-180969777D01*
X100673850Y-180241978D01*
X101103214Y-179446143D01*
X101513260Y-178590420D01*
X101900075Y-177682954D01*
X102259747Y-176731891D01*
X102575129Y-175787764D01*
X102659609Y-175507598D01*
X102756021Y-175170705D01*
X102858726Y-174798342D01*
X102962081Y-174411762D01*
X103060445Y-174032221D01*
X103148175Y-173680973D01*
X103219632Y-173379275D01*
X103246495Y-173258294D01*
X103315646Y-172937221D01*
X103852707Y-172956438D01*
X104389972Y-172950957D01*
X104911251Y-172897969D01*
X105408219Y-172800891D01*
X105872551Y-172663137D01*
X106295921Y-172488125D01*
X106670005Y-172279269D01*
X106986476Y-172039985D01*
X107237011Y-171773690D01*
X107406606Y-171498280D01*
X107449018Y-171404211D01*
X107479575Y-171320343D01*
X107500216Y-171230478D01*
X107512882Y-171118423D01*
X107519513Y-170967982D01*
X107522049Y-170762961D01*
X107522434Y-170531367D01*
X107521919Y-170267256D01*
X107519067Y-170071808D01*
X107511913Y-169929019D01*
X107498492Y-169822887D01*
X107476840Y-169737408D01*
X107444993Y-169656580D01*
X107404654Y-169571863D01*
X107273148Y-169365325D01*
X107082618Y-169146989D01*
X106852851Y-168935991D01*
X106603637Y-168751465D01*
X106476339Y-168674224D01*
X106098204Y-168496602D01*
X105654352Y-168346166D01*
X105160541Y-168227062D01*
X104632525Y-168143435D01*
X104353517Y-168115652D01*
X104020934Y-168089133D01*
X104046742Y-167828583D01*
X104077930Y-167453032D01*
X104104889Y-167007064D01*
X104127444Y-166504829D01*
X104145420Y-165960481D01*
X104158641Y-165388172D01*
X104166931Y-164802053D01*
X104170115Y-164216276D01*
X104168018Y-163644993D01*
X104160464Y-163102357D01*
X104147277Y-162602519D01*
X104128283Y-162159632D01*
X104118995Y-162001200D01*
X103993565Y-160419286D01*
X103824430Y-158902207D01*
X103611866Y-157451611D01*
X103569413Y-157222092D01*
X140936658Y-157222092D01*
X140937216Y-157734265D01*
X140938978Y-158238268D01*
X140941943Y-158726364D01*
X140946115Y-159190819D01*
X140951494Y-159623897D01*
X140958083Y-160017863D01*
X140965883Y-160364983D01*
X140974895Y-160657520D01*
X140985121Y-160887741D01*
X140996563Y-161047909D01*
X141007747Y-161125184D01*
X141140215Y-161495805D01*
X141336690Y-161820567D01*
X141540007Y-162053047D01*
X141852099Y-162308849D01*
X142196896Y-162487788D01*
X142568231Y-162588218D01*
X142959938Y-162608491D01*
X143365850Y-162546961D01*
X143378058Y-162543866D01*
X143674220Y-162430586D01*
X143966019Y-162251656D01*
X144232104Y-162024372D01*
X144451122Y-161766027D01*
X144559528Y-161586890D01*
X144599770Y-161507487D01*
X144635188Y-161434247D01*
X144666091Y-161361496D01*
X144692785Y-161283561D01*
X144715580Y-161194767D01*
X144734782Y-161089442D01*
X144750699Y-160961912D01*
X144763640Y-160806503D01*
X144773911Y-160617542D01*
X144781821Y-160389354D01*
X144787678Y-160116267D01*
X144791790Y-159792607D01*
X144794463Y-159412699D01*
X144796006Y-158970871D01*
X144796727Y-158461449D01*
X144796934Y-157878760D01*
X144796934Y-157210723D01*
X144796457Y-156466545D01*
X144795015Y-155805350D01*
X144792588Y-155225455D01*
X144789153Y-154725183D01*
X144784693Y-154302853D01*
X144779185Y-153956784D01*
X144772610Y-153685299D01*
X144764949Y-153486716D01*
X144756179Y-153359355D01*
X144749960Y-153314367D01*
X144642250Y-152984433D01*
X144466492Y-152664333D01*
X144237307Y-152372749D01*
X143969317Y-152128366D01*
X143684888Y-151953498D01*
X143316500Y-151822619D01*
X142944536Y-151770948D01*
X142578181Y-151793995D01*
X142226625Y-151887271D01*
X141899055Y-152046284D01*
X141604657Y-152266544D01*
X141352619Y-152543562D01*
X141152130Y-152872845D01*
X141012375Y-153249905D01*
X141009421Y-153261126D01*
X140996858Y-153352665D01*
X140985480Y-153521118D01*
X140975289Y-153758752D01*
X140966285Y-154057831D01*
X140958471Y-154410620D01*
X140951848Y-154809383D01*
X140946417Y-155246386D01*
X140942182Y-155713894D01*
X140939142Y-156204171D01*
X140937300Y-156709482D01*
X140936658Y-157222092D01*
X103569413Y-157222092D01*
X103356152Y-156069143D01*
X103057566Y-154756451D01*
X102716386Y-153515180D01*
X102651166Y-153301700D01*
X102588948Y-153097387D01*
X102535277Y-152914002D01*
X102495791Y-152771297D01*
X102476129Y-152689025D01*
X102475932Y-152687867D01*
X102474813Y-152656839D01*
X102487147Y-152625183D01*
X102520406Y-152588297D01*
X102582059Y-152541577D01*
X102679576Y-152480421D01*
X102820427Y-152400226D01*
X103012082Y-152296388D01*
X103262010Y-152164304D01*
X103577682Y-151999371D01*
X103678060Y-151947098D01*
X105068754Y-151231083D01*
X106395985Y-150564236D01*
X107663927Y-149944797D01*
X108876752Y-149371002D01*
X110038633Y-148841089D01*
X111153741Y-148353297D01*
X111835257Y-148068978D01*
X140454203Y-148068978D01*
X140463438Y-148492734D01*
X140550158Y-148913391D01*
X140715305Y-149321679D01*
X140864369Y-149574873D01*
X141142983Y-149918164D01*
X141478509Y-150206867D01*
X141857954Y-150431849D01*
X142268326Y-150583981D01*
X142318385Y-150596751D01*
X142558790Y-150635292D01*
X142841105Y-150650383D01*
X143125747Y-150641533D01*
X143366100Y-150609720D01*
X143509706Y-150569242D01*
X143694965Y-150502032D01*
X143888470Y-150420531D01*
X143945876Y-150393846D01*
X144306038Y-150176371D01*
X144622643Y-149894372D01*
X144888024Y-149560009D01*
X145094510Y-149185443D01*
X145234432Y-148782832D01*
X145300122Y-148364339D01*
X145304198Y-148240058D01*
X145265106Y-147832769D01*
X145150283Y-147429594D01*
X144968024Y-147045049D01*
X144726622Y-146693653D01*
X144434372Y-146389922D01*
X144113960Y-146156829D01*
X143770105Y-145982769D01*
X143428425Y-145876193D01*
X143059084Y-145828998D01*
X142891934Y-145824931D01*
X142453259Y-145855143D01*
X142062313Y-145949075D01*
X141705156Y-146112430D01*
X141367849Y-146350916D01*
X141173321Y-146528367D01*
X140882013Y-146871817D01*
X140664431Y-147249249D01*
X140521514Y-147651393D01*
X140454203Y-148068978D01*
X111835257Y-148068978D01*
X112226249Y-147905862D01*
X113260331Y-147497023D01*
X114260158Y-147125018D01*
X115229903Y-146788084D01*
X116173739Y-146484459D01*
X117095837Y-146212381D01*
X117555626Y-146086126D01*
X119261430Y-145656520D01*
X121037530Y-145261293D01*
X122876481Y-144901285D01*
X124770837Y-144577340D01*
X126713154Y-144290298D01*
X128695985Y-144041002D01*
X130711886Y-143830294D01*
X132753410Y-143659015D01*
X134813113Y-143528007D01*
X136883550Y-143438112D01*
X138957274Y-143390172D01*
X141026841Y-143385029D01*
X141410267Y-143388855D01*
G36*
X141410267Y-143388855D02*
G01*
X143024437Y-143418841D01*
X144565443Y-143469679D01*
X146042339Y-143541997D01*
X147464176Y-143636424D01*
X148840007Y-143753586D01*
X150178884Y-143894112D01*
X151489859Y-144058629D01*
X151908934Y-144117012D01*
X152455808Y-144198672D01*
X153012348Y-144288569D01*
X153569873Y-144384874D01*
X154119702Y-144485762D01*
X154653152Y-144589404D01*
X155161542Y-144693975D01*
X155636191Y-144797647D01*
X156068418Y-144898595D01*
X156449540Y-144994990D01*
X156770877Y-145085007D01*
X157023746Y-145166818D01*
X157167319Y-145223511D01*
X157363969Y-145334277D01*
X157487475Y-145458328D01*
X157536931Y-145596859D01*
X157511430Y-145751061D01*
X157410065Y-145922128D01*
X157231931Y-146111253D01*
X156976119Y-146319629D01*
X156641725Y-146548450D01*
X156227840Y-146798907D01*
X155782434Y-147046057D01*
X155623510Y-147130007D01*
X155400360Y-147245982D01*
X155124469Y-147388107D01*
X154807320Y-147550507D01*
X154460399Y-147727307D01*
X154095189Y-147912632D01*
X153723176Y-148100607D01*
X153581100Y-148172172D01*
X152843691Y-148547096D01*
X152178998Y-148893539D01*
X151581365Y-149215048D01*
X151045135Y-149515171D01*
X150564649Y-149797456D01*
X150134250Y-150065451D01*
X149748282Y-150322704D01*
X149401085Y-150572762D01*
X149087004Y-150819173D01*
X148800380Y-151065485D01*
X148535556Y-151315245D01*
X148478939Y-151371733D01*
X148192939Y-151680828D01*
X147959509Y-151984404D01*
X147768143Y-152301618D01*
X147608340Y-152651629D01*
X147469597Y-153053592D01*
X147378803Y-153378375D01*
X147302964Y-153688035D01*
X147234193Y-154007758D01*
X147171762Y-154344519D01*
X147114940Y-154705295D01*
X147062996Y-155097062D01*
X147015201Y-155526796D01*
X146970823Y-156001474D01*
X146929134Y-156528072D01*
X146889402Y-157113566D01*
X146850898Y-157764933D01*
X146812892Y-158489148D01*
X146786441Y-159037867D01*
X146752460Y-159731636D01*
X146718797Y-160346551D01*
X146684761Y-160888418D01*
X146649658Y-161363044D01*
X146612797Y-161776233D01*
X146573485Y-162133794D01*
X146531032Y-162441532D01*
X146484744Y-162705254D01*
X146433930Y-162930765D01*
X146377897Y-163123873D01*
X146315955Y-163290383D01*
X146266743Y-163398200D01*
X146200339Y-163519108D01*
X146124931Y-163624436D01*
X146034311Y-163715514D01*
X145922272Y-163793672D01*
X145782605Y-163860240D01*
X145609102Y-163916547D01*
X145395553Y-163963923D01*
X145135752Y-164003697D01*
X144823490Y-164037201D01*
X144452558Y-164065762D01*
X144016748Y-164090711D01*
X143509852Y-164113377D01*
X142925662Y-164135091D01*
X142807267Y-164139156D01*
X142120052Y-164164366D01*
X141508442Y-164191140D01*
X140963376Y-164220427D01*
X140475795Y-164253180D01*
X140036639Y-164290347D01*
X139636847Y-164332880D01*
X139267360Y-164381730D01*
X138919118Y-164437845D01*
X138583060Y-164502178D01*
X138250128Y-164575679D01*
X137954034Y-164648315D01*
X137203577Y-164870289D01*
X136523625Y-165135814D01*
X135910716Y-165447236D01*
X135361391Y-165806902D01*
X134872189Y-166217161D01*
X134439649Y-166680360D01*
X134060310Y-167198845D01*
X133961879Y-167356367D01*
X133817266Y-167602606D01*
X133692527Y-167831990D01*
X133577138Y-168066388D01*
X133460576Y-168327670D01*
X133332317Y-168637704D01*
X133269163Y-168795965D01*
X133152523Y-169100527D01*
X133041995Y-169411279D01*
X132935489Y-169736239D01*
X132830913Y-170083431D01*
X132726176Y-170460874D01*
X132619187Y-170876590D01*
X132507853Y-171338599D01*
X132390085Y-171854923D01*
X132263791Y-172433582D01*
X132126878Y-173082598D01*
X132033037Y-173537034D01*
X131914772Y-174108614D01*
X131809747Y-174603925D01*
X131716052Y-175030001D01*
X131631778Y-175393873D01*
X131555016Y-175702572D01*
X131483857Y-175963132D01*
X131416392Y-176182584D01*
X131350712Y-176367961D01*
X131284908Y-176526295D01*
X131217071Y-176664617D01*
X131153686Y-176776184D01*
X131028539Y-176961295D01*
X130905839Y-177081316D01*
X130760954Y-177150838D01*
X130569251Y-177184450D01*
X130451326Y-177192207D01*
X130299203Y-177195243D01*
X130141854Y-177189362D01*
X129971523Y-177172804D01*
X129780455Y-177143811D01*
X129560893Y-177100623D01*
X129305083Y-177041478D01*
X129005268Y-176964619D01*
X128653693Y-176868285D01*
X128242601Y-176750716D01*
X127764237Y-176610153D01*
X127376767Y-176494608D01*
X126529174Y-176248531D01*
X125750818Y-176039480D01*
X125035242Y-175866549D01*
X124375991Y-175728833D01*
X123766608Y-175625424D01*
X123200636Y-175555416D01*
X122671619Y-175517904D01*
X122173101Y-175511980D01*
X121698625Y-175536737D01*
X121241734Y-175591271D01*
X121103486Y-175613936D01*
X120635123Y-175716735D01*
X120188996Y-175859725D01*
X119762358Y-176046118D01*
X119352462Y-176279126D01*
X118956562Y-176561963D01*
X118571912Y-176897841D01*
X118195763Y-177289973D01*
X117825371Y-177741570D01*
X117457988Y-178255845D01*
X117090868Y-178836011D01*
X116721264Y-179485281D01*
X116346429Y-180206866D01*
X115963617Y-181003980D01*
X115570082Y-181879835D01*
X115390877Y-182295547D01*
X115258876Y-182605403D01*
X115114325Y-182944803D01*
X114968918Y-183286281D01*
X114834349Y-183602373D01*
X114731002Y-183845200D01*
X114493477Y-184388481D01*
X114276516Y-184852923D01*
X114078475Y-185241391D01*
X113897715Y-185556750D01*
X113732595Y-185801864D01*
X113581472Y-185979599D01*
X113443589Y-186092273D01*
X113354927Y-186138654D01*
X113254620Y-186169011D01*
X113120505Y-186187453D01*
X112930417Y-186198090D01*
X112860925Y-186200322D01*
X112603557Y-186198544D01*
X112321276Y-186182128D01*
X112064796Y-186154205D01*
X112030934Y-186149099D01*
X111525590Y-186056940D01*
X110946925Y-185928978D01*
X110297887Y-185766168D01*
X109581423Y-185569465D01*
X108800483Y-185339827D01*
X107958015Y-185078208D01*
X107056966Y-184785565D01*
X106100286Y-184462853D01*
X105090923Y-184111029D01*
X104031825Y-183731048D01*
X102925941Y-183323867D01*
X101776219Y-182890442D01*
X100685929Y-182470746D01*
X100391091Y-182355893D01*
X100122792Y-182250846D01*
X99890922Y-182159520D01*
X99705373Y-182085831D01*
X99576034Y-182033694D01*
X99512798Y-182007023D01*
X99508195Y-182004573D01*
X99526390Y-181967413D01*
X99586370Y-181877369D01*
X99678308Y-181748672D01*
X99772824Y-181621396D01*
X100229083Y-180969777D01*
X100673850Y-180241978D01*
X101103214Y-179446143D01*
X101513260Y-178590420D01*
X101900075Y-177682954D01*
X102259747Y-176731891D01*
X102575129Y-175787764D01*
X102659609Y-175507598D01*
X102756021Y-175170705D01*
X102858726Y-174798342D01*
X102962081Y-174411762D01*
X103060445Y-174032221D01*
X103148175Y-173680973D01*
X103219632Y-173379275D01*
X103246495Y-173258294D01*
X103315646Y-172937221D01*
X103852707Y-172956438D01*
X104389972Y-172950957D01*
X104911251Y-172897969D01*
X105408219Y-172800891D01*
X105872551Y-172663137D01*
X106295921Y-172488125D01*
X106670005Y-172279269D01*
X106986476Y-172039985D01*
X107237011Y-171773690D01*
X107406606Y-171498280D01*
X107449018Y-171404211D01*
X107479575Y-171320343D01*
X107500216Y-171230478D01*
X107512882Y-171118423D01*
X107519513Y-170967982D01*
X107522049Y-170762961D01*
X107522434Y-170531367D01*
X107521919Y-170267256D01*
X107519067Y-170071808D01*
X107511913Y-169929019D01*
X107498492Y-169822887D01*
X107476840Y-169737408D01*
X107444993Y-169656580D01*
X107404654Y-169571863D01*
X107273148Y-169365325D01*
X107082618Y-169146989D01*
X106852851Y-168935991D01*
X106603637Y-168751465D01*
X106476339Y-168674224D01*
X106098204Y-168496602D01*
X105654352Y-168346166D01*
X105160541Y-168227062D01*
X104632525Y-168143435D01*
X104353517Y-168115652D01*
X104020934Y-168089133D01*
X104046742Y-167828583D01*
X104077930Y-167453032D01*
X104104889Y-167007064D01*
X104127444Y-166504829D01*
X104145420Y-165960481D01*
X104158641Y-165388172D01*
X104166931Y-164802053D01*
X104170115Y-164216276D01*
X104168018Y-163644993D01*
X104160464Y-163102357D01*
X104147277Y-162602519D01*
X104128283Y-162159632D01*
X104118995Y-162001200D01*
X103993565Y-160419286D01*
X103824430Y-158902207D01*
X103611866Y-157451611D01*
X103569413Y-157222092D01*
X140936658Y-157222092D01*
X140937216Y-157734265D01*
X140938978Y-158238268D01*
X140941943Y-158726364D01*
X140946115Y-159190819D01*
X140951494Y-159623897D01*
X140958083Y-160017863D01*
X140965883Y-160364983D01*
X140974895Y-160657520D01*
X140985121Y-160887741D01*
X140996563Y-161047909D01*
X141007747Y-161125184D01*
X141140215Y-161495805D01*
X141336690Y-161820567D01*
X141540007Y-162053047D01*
X141852099Y-162308849D01*
X142196896Y-162487788D01*
X142568231Y-162588218D01*
X142959938Y-162608491D01*
X143365850Y-162546961D01*
X143378058Y-162543866D01*
X143674220Y-162430586D01*
X143966019Y-162251656D01*
X144232104Y-162024372D01*
X144451122Y-161766027D01*
X144559528Y-161586890D01*
X144599770Y-161507487D01*
X144635188Y-161434247D01*
X144666091Y-161361496D01*
X144692785Y-161283561D01*
X144715580Y-161194767D01*
X144734782Y-161089442D01*
X144750699Y-160961912D01*
X144763640Y-160806503D01*
X144773911Y-160617542D01*
X144781821Y-160389354D01*
X144787678Y-160116267D01*
X144791790Y-159792607D01*
X144794463Y-159412699D01*
X144796006Y-158970871D01*
X144796727Y-158461449D01*
X144796934Y-157878760D01*
X144796934Y-157210723D01*
X144796457Y-156466545D01*
X144795015Y-155805350D01*
X144792588Y-155225455D01*
X144789153Y-154725183D01*
X144784693Y-154302853D01*
X144779185Y-153956784D01*
X144772610Y-153685299D01*
X144764949Y-153486716D01*
X144756179Y-153359355D01*
X144749960Y-153314367D01*
X144642250Y-152984433D01*
X144466492Y-152664333D01*
X144237307Y-152372749D01*
X143969317Y-152128366D01*
X143684888Y-151953498D01*
X143316500Y-151822619D01*
X142944536Y-151770948D01*
X142578181Y-151793995D01*
X142226625Y-151887271D01*
X141899055Y-152046284D01*
X141604657Y-152266544D01*
X141352619Y-152543562D01*
X141152130Y-152872845D01*
X141012375Y-153249905D01*
X141009421Y-153261126D01*
X140996858Y-153352665D01*
X140985480Y-153521118D01*
X140975289Y-153758752D01*
X140966285Y-154057831D01*
X140958471Y-154410620D01*
X140951848Y-154809383D01*
X140946417Y-155246386D01*
X140942182Y-155713894D01*
X140939142Y-156204171D01*
X140937300Y-156709482D01*
X140936658Y-157222092D01*
X103569413Y-157222092D01*
X103356152Y-156069143D01*
X103057566Y-154756451D01*
X102716386Y-153515180D01*
X102651166Y-153301700D01*
X102588948Y-153097387D01*
X102535277Y-152914002D01*
X102495791Y-152771297D01*
X102476129Y-152689025D01*
X102475932Y-152687867D01*
X102474813Y-152656839D01*
X102487147Y-152625183D01*
X102520406Y-152588297D01*
X102582059Y-152541577D01*
X102679576Y-152480421D01*
X102820427Y-152400226D01*
X103012082Y-152296388D01*
X103262010Y-152164304D01*
X103577682Y-151999371D01*
X103678060Y-151947098D01*
X105068754Y-151231083D01*
X106395985Y-150564236D01*
X107663927Y-149944797D01*
X108876752Y-149371002D01*
X110038633Y-148841089D01*
X111153741Y-148353297D01*
X111835257Y-148068978D01*
X140454203Y-148068978D01*
X140463438Y-148492734D01*
X140550158Y-148913391D01*
X140715305Y-149321679D01*
X140864369Y-149574873D01*
X141142983Y-149918164D01*
X141478509Y-150206867D01*
X141857954Y-150431849D01*
X142268326Y-150583981D01*
X142318385Y-150596751D01*
X142558790Y-150635292D01*
X142841105Y-150650383D01*
X143125747Y-150641533D01*
X143366100Y-150609720D01*
X143509706Y-150569242D01*
X143694965Y-150502032D01*
X143888470Y-150420531D01*
X143945876Y-150393846D01*
X144306038Y-150176371D01*
X144622643Y-149894372D01*
X144888024Y-149560009D01*
X145094510Y-149185443D01*
X145234432Y-148782832D01*
X145300122Y-148364339D01*
X145304198Y-148240058D01*
X145265106Y-147832769D01*
X145150283Y-147429594D01*
X144968024Y-147045049D01*
X144726622Y-146693653D01*
X144434372Y-146389922D01*
X144113960Y-146156829D01*
X143770105Y-145982769D01*
X143428425Y-145876193D01*
X143059084Y-145828998D01*
X142891934Y-145824931D01*
X142453259Y-145855143D01*
X142062313Y-145949075D01*
X141705156Y-146112430D01*
X141367849Y-146350916D01*
X141173321Y-146528367D01*
X140882013Y-146871817D01*
X140664431Y-147249249D01*
X140521514Y-147651393D01*
X140454203Y-148068978D01*
X111835257Y-148068978D01*
X112226249Y-147905862D01*
X113260331Y-147497023D01*
X114260158Y-147125018D01*
X115229903Y-146788084D01*
X116173739Y-146484459D01*
X117095837Y-146212381D01*
X117555626Y-146086126D01*
X119261430Y-145656520D01*
X121037530Y-145261293D01*
X122876481Y-144901285D01*
X124770837Y-144577340D01*
X126713154Y-144290298D01*
X128695985Y-144041002D01*
X130711886Y-143830294D01*
X132753410Y-143659015D01*
X134813113Y-143528007D01*
X136883550Y-143438112D01*
X138957274Y-143390172D01*
X141026841Y-143385029D01*
X141410267Y-143388855D01*
G37*
X52051362Y-143408220D02*
X53853736Y-143467633D01*
X55660704Y-143557978D01*
X57466113Y-143679176D01*
X59263809Y-143831148D01*
X61047639Y-144013815D01*
X62811449Y-144227098D01*
X64549086Y-144470918D01*
X66254396Y-144745197D01*
X67921226Y-145049855D01*
X68977934Y-145263468D01*
X70038456Y-145493682D01*
X71048268Y-145728856D01*
X72017421Y-145972457D01*
X72955963Y-146227949D01*
X73873943Y-146498796D01*
X74781411Y-146788463D01*
X75688415Y-147100416D01*
X76605004Y-147438118D01*
X77541229Y-147805036D01*
X78507137Y-148204633D01*
X79512778Y-148640375D01*
X80568201Y-149115726D01*
X81683456Y-149634152D01*
X81762600Y-149671472D01*
X82100623Y-149832358D01*
X82474460Y-150012693D01*
X82876931Y-150208843D01*
X83300859Y-150417172D01*
X83739063Y-150634046D01*
X84184366Y-150855829D01*
X84629588Y-151078889D01*
X85067549Y-151299589D01*
X85491073Y-151514294D01*
X85892978Y-151719371D01*
X86266087Y-151911185D01*
X86603220Y-152086100D01*
X86897199Y-152240482D01*
X87140844Y-152370696D01*
X87326977Y-152473108D01*
X87448418Y-152544082D01*
X87486541Y-152569529D01*
X87513973Y-152596971D01*
X87526410Y-152636800D01*
X87521597Y-152702887D01*
X87497279Y-152809106D01*
X87451201Y-152969329D01*
X87388165Y-153174700D01*
X87034443Y-154417912D01*
X86723946Y-155724535D01*
X86457662Y-157084599D01*
X86236580Y-158488136D01*
X86061690Y-159925177D01*
X85933979Y-161385752D01*
X85854438Y-162859894D01*
X85824053Y-164337632D01*
X85843815Y-165808997D01*
X85914713Y-167264021D01*
X85946867Y-167705617D01*
X85959804Y-167890569D01*
X85962333Y-168006722D01*
X85952984Y-168069468D01*
X85930288Y-168094202D01*
X85909481Y-168097200D01*
X85841088Y-168101271D01*
X85709000Y-168112286D01*
X85533735Y-168128450D01*
X85378869Y-168143618D01*
X84839851Y-168223621D01*
X84332616Y-168350122D01*
X83868004Y-168518873D01*
X83456856Y-168725625D01*
X83110014Y-168966130D01*
X82977229Y-169084797D01*
X82838191Y-169233574D01*
X82711193Y-169392614D01*
X82619510Y-169532246D01*
X82606252Y-169557700D01*
X82569854Y-169637022D01*
X82543227Y-169712732D01*
X82524849Y-169799540D01*
X82513200Y-169912153D01*
X82506762Y-170065278D01*
X82504013Y-170273622D01*
X82503434Y-170551893D01*
X82503434Y-171335700D01*
X82628409Y-171561315D01*
X82824513Y-171837234D01*
X83094037Y-172097298D01*
X83426103Y-172333576D01*
X83809837Y-172538139D01*
X84160744Y-172678491D01*
X84447922Y-172770750D01*
X84714334Y-172839583D01*
X84981806Y-172888287D01*
X85272161Y-172920163D01*
X85607224Y-172938510D01*
X85928721Y-172945749D01*
X86687008Y-172955420D01*
X86828036Y-173561660D01*
X87131040Y-174760015D01*
X87470671Y-175909990D01*
X87844868Y-177006495D01*
X88251569Y-178044441D01*
X88688713Y-179018740D01*
X89154237Y-179924302D01*
X89646079Y-180756039D01*
X89896592Y-181135867D01*
X90031487Y-181331737D01*
X90162062Y-181519230D01*
X90274592Y-181678771D01*
X90355352Y-181790788D01*
X90363907Y-181802321D01*
X90434671Y-181906558D01*
X90472985Y-181982110D01*
X90474446Y-182005465D01*
X90425991Y-182029885D01*
X90305599Y-182081160D01*
X90120617Y-182156432D01*
X89878388Y-182252840D01*
X89586260Y-182367526D01*
X89251575Y-182497631D01*
X88881681Y-182640296D01*
X88483921Y-182792661D01*
X88065641Y-182951867D01*
X87634187Y-183115055D01*
X87329434Y-183229686D01*
X86169881Y-183659740D01*
X85069241Y-184057621D01*
X84028755Y-184422988D01*
X83049667Y-184755500D01*
X82133216Y-185054814D01*
X81280647Y-185320589D01*
X80493200Y-185552483D01*
X79772117Y-185750154D01*
X79118641Y-185913261D01*
X78534014Y-186041462D01*
X78019478Y-186134415D01*
X77576275Y-186191779D01*
X77205646Y-186213212D01*
X76908834Y-186198372D01*
X76703767Y-186152998D01*
X76585286Y-186095376D01*
X76464135Y-186001924D01*
X76337739Y-185868100D01*
X76203523Y-185689363D01*
X76058911Y-185461171D01*
X75901327Y-185178981D01*
X75728197Y-184838252D01*
X75536945Y-184434442D01*
X75324996Y-183963008D01*
X75089774Y-183419410D01*
X74903127Y-182977367D01*
X74548073Y-182142553D01*
X74213279Y-181383741D01*
X73895697Y-180695539D01*
X73592280Y-180072554D01*
X73299979Y-179509393D01*
X73015747Y-179000664D01*
X72736534Y-178540974D01*
X72459294Y-178124931D01*
X72180978Y-177747141D01*
X71898538Y-177402211D01*
X71608925Y-177084750D01*
X71522648Y-176996538D01*
X71117481Y-176621014D01*
X70710064Y-176313298D01*
X70283237Y-176064166D01*
X69819839Y-175864394D01*
X69302710Y-175704758D01*
X68976753Y-175628067D01*
X68801229Y-175593423D01*
X68635046Y-175568113D01*
X68459423Y-175550742D01*
X68255580Y-175539917D01*
X68004735Y-175534243D01*
X67688107Y-175532326D01*
X67686767Y-175532324D01*
X67301582Y-175537082D01*
X66927228Y-175553602D01*
X66554696Y-175583620D01*
X66174975Y-175628871D01*
X65779056Y-175691089D01*
X65357928Y-175772009D01*
X64902581Y-175873367D01*
X64404006Y-175996897D01*
X63853191Y-176144334D01*
X63241127Y-176317413D01*
X62558804Y-176517869D01*
X62541217Y-176523112D01*
X62023198Y-176676328D01*
X61577606Y-176805122D01*
X61196417Y-176911458D01*
X60871610Y-176997301D01*
X60595162Y-177064617D01*
X60359049Y-177115370D01*
X60155248Y-177151524D01*
X59975737Y-177175045D01*
X59830809Y-177186893D01*
X59565447Y-177194036D01*
X59363946Y-177176890D01*
X59207695Y-177130304D01*
X59078082Y-177049129D01*
X58976125Y-176950389D01*
X58893375Y-176846722D01*
X58814259Y-176720253D01*
X58737049Y-176565046D01*
X58660014Y-176375164D01*
X58581425Y-176144672D01*
X58499552Y-175867634D01*
X58412666Y-175538113D01*
X58319038Y-175150174D01*
X58216937Y-174697880D01*
X58104633Y-174175296D01*
X57980399Y-173576486D01*
X57950739Y-173431200D01*
X57868417Y-173032235D01*
X57781760Y-172621739D01*
X57694373Y-172216146D01*
X57609862Y-171831890D01*
X57531831Y-171485405D01*
X57463886Y-171193125D01*
X57421421Y-171018200D01*
X57196540Y-170176130D01*
X56960875Y-169413497D01*
X56711373Y-168725425D01*
X56444983Y-168107038D01*
X56158653Y-167553460D01*
X55849332Y-167059815D01*
X55513968Y-166621228D01*
X55149510Y-166232823D01*
X54752906Y-165889723D01*
X54321104Y-165587053D01*
X53857073Y-165323024D01*
X53418944Y-165112932D01*
X52968696Y-164927862D01*
X52498555Y-164766328D01*
X52000750Y-164626841D01*
X51467509Y-164507916D01*
X50891059Y-164408065D01*
X50263627Y-164325801D01*
X49577443Y-164259637D01*
X48824733Y-164208087D01*
X47997726Y-164169664D01*
X47790100Y-164162323D01*
X47218687Y-164142943D01*
X46724754Y-164125412D01*
X46301146Y-164109189D01*
X45940710Y-164093736D01*
X45636293Y-164078513D01*
X45380740Y-164062982D01*
X45166898Y-164046602D01*
X44987613Y-164028835D01*
X44835732Y-164009143D01*
X44704101Y-163986985D01*
X44585565Y-163961822D01*
X44472973Y-163933116D01*
X44374500Y-163904904D01*
X44144327Y-163819822D01*
X43964917Y-163709724D01*
X43824772Y-163561035D01*
X43712392Y-163360181D01*
X43616280Y-163093588D01*
X43580321Y-162967382D01*
X43533869Y-162777748D01*
X43491530Y-162565194D01*
X43452696Y-162323105D01*
X43416759Y-162044867D01*
X43383112Y-161723866D01*
X43351145Y-161353488D01*
X43320253Y-160927118D01*
X43289826Y-160438142D01*
X43259257Y-159879946D01*
X43227938Y-159245915D01*
X43217233Y-159016700D01*
X43183254Y-158307639D01*
X43150073Y-157674984D01*
X43135533Y-157426589D01*
X45188275Y-157426589D01*
X45188960Y-157924731D01*
X45190403Y-158411162D01*
X45192607Y-158877852D01*
X45195571Y-159316769D01*
X45199296Y-159719881D01*
X45203784Y-160079158D01*
X45209034Y-160386569D01*
X45215049Y-160634082D01*
X45221827Y-160813666D01*
X45229371Y-160917290D01*
X45229957Y-160921700D01*
X45320551Y-161286581D01*
X45480595Y-161628261D01*
X45699801Y-161935814D01*
X45967882Y-162198317D01*
X46274550Y-162404843D01*
X46609519Y-162544467D01*
X46799235Y-162588314D01*
X46964244Y-162614653D01*
X47080542Y-162627056D01*
X47182904Y-162625668D01*
X47306108Y-162610633D01*
X47430267Y-162590950D01*
X47798960Y-162489832D01*
X48137265Y-162316371D01*
X48436035Y-162080183D01*
X48686124Y-161790884D01*
X48878387Y-161458088D01*
X49003678Y-161091413D01*
X49038076Y-160900534D01*
X49045427Y-160799156D01*
X49052032Y-160621298D01*
X49057892Y-160375061D01*
X49063007Y-160068548D01*
X49067378Y-159709860D01*
X49071006Y-159307100D01*
X49073892Y-158868371D01*
X49076035Y-158401774D01*
X49077437Y-157915411D01*
X49078098Y-157417385D01*
X49078019Y-156915798D01*
X49077200Y-156418752D01*
X49075643Y-155934350D01*
X49073347Y-155470693D01*
X49070313Y-155035884D01*
X49066542Y-154638025D01*
X49062035Y-154285218D01*
X49056791Y-153985566D01*
X49050813Y-153747170D01*
X49044099Y-153578133D01*
X49037515Y-153492652D01*
X48946544Y-153100768D01*
X48784394Y-152743357D01*
X48559042Y-152428800D01*
X48278467Y-152165477D01*
X47950647Y-151961769D01*
X47583559Y-151826059D01*
X47417724Y-151791043D01*
X47041814Y-151769446D01*
X46677531Y-151825548D01*
X46333893Y-151952422D01*
X46019920Y-152143139D01*
X45744630Y-152390772D01*
X45517041Y-152688394D01*
X45346173Y-153029076D01*
X45241043Y-153405893D01*
X45230644Y-153471034D01*
X45223026Y-153567936D01*
X45216159Y-153741471D01*
X45210044Y-153983607D01*
X45204681Y-154286312D01*
X45200072Y-154641557D01*
X45196216Y-155041308D01*
X45193116Y-155477536D01*
X45190770Y-155942210D01*
X45189182Y-156427297D01*
X45188350Y-156924767D01*
X45188275Y-157426589D01*
X43135533Y-157426589D01*
X43117029Y-157110488D01*
X43083462Y-156605902D01*
X43048711Y-156152981D01*
X43012114Y-155743474D01*
X42973011Y-155369136D01*
X42930741Y-155021718D01*
X42884643Y-154692973D01*
X42855987Y-154508200D01*
X42755751Y-153952811D01*
X42641607Y-153445031D01*
X42516222Y-152994683D01*
X42382259Y-152611588D01*
X42275811Y-152370367D01*
X42050491Y-151993441D01*
X41743917Y-151605576D01*
X41358482Y-151208942D01*
X40896575Y-150805709D01*
X40360590Y-150398048D01*
X39752917Y-149988129D01*
X39429267Y-149786833D01*
X39200285Y-149649839D01*
X38960963Y-149510597D01*
X38703890Y-149365141D01*
X38421656Y-149209509D01*
X38106850Y-149039737D01*
X37752062Y-148851862D01*
X37349880Y-148641921D01*
X36892895Y-148405950D01*
X36393828Y-148150299D01*
X44725007Y-148150299D01*
X44729184Y-148440290D01*
X44756441Y-148704190D01*
X44783390Y-148833614D01*
X44925196Y-149215133D01*
X45137344Y-149581215D01*
X45405860Y-149913751D01*
X45716770Y-150194628D01*
X45955429Y-150352670D01*
X46332768Y-150519762D01*
X46745269Y-150618703D01*
X47175010Y-150647299D01*
X47604065Y-150603353D01*
X47745341Y-150571821D01*
X48079455Y-150461976D01*
X48377576Y-150307403D01*
X48662760Y-150094483D01*
X48852670Y-149917794D01*
X49139805Y-149580600D01*
X49348869Y-149215761D01*
X49482326Y-148817228D01*
X49542645Y-148378954D01*
X49546934Y-148215144D01*
X49506355Y-147777917D01*
X49388622Y-147364364D01*
X49199742Y-146982256D01*
X48945720Y-146639361D01*
X48632561Y-146343451D01*
X48266273Y-146102294D01*
X47852860Y-145923662D01*
X47751347Y-145892124D01*
X47491672Y-145841801D01*
X47189192Y-145821485D01*
X46880274Y-145831177D01*
X46601285Y-145870875D01*
X46516520Y-145892124D01*
X46097587Y-146054474D01*
X45718402Y-146283984D01*
X45387407Y-146572173D01*
X45113042Y-146910561D01*
X44903749Y-147290666D01*
X44785635Y-147631248D01*
X44743846Y-147869018D01*
X44725007Y-148150299D01*
X36393828Y-148150299D01*
X36373695Y-148139986D01*
X35873267Y-147885005D01*
X35288540Y-147586252D01*
X34775523Y-147320806D01*
X34329431Y-147085677D01*
X33945481Y-146877879D01*
X33618890Y-146694424D01*
X33344873Y-146532323D01*
X33118646Y-146388590D01*
X32935426Y-146260236D01*
X32790430Y-146144274D01*
X32678872Y-146037715D01*
X32595970Y-145937573D01*
X32536940Y-145840859D01*
X32511954Y-145785653D01*
X32470844Y-145662289D01*
X32469210Y-145574209D01*
X32496319Y-145500347D01*
X32543249Y-145420813D01*
X32607847Y-145349741D01*
X32698161Y-145284070D01*
X32822238Y-145220740D01*
X32988125Y-145156689D01*
X33203872Y-145088857D01*
X33477525Y-145014183D01*
X33817132Y-144929604D01*
X34230741Y-144832062D01*
X34288361Y-144818732D01*
X35634069Y-144532689D01*
X37052059Y-144278446D01*
X38536179Y-144055924D01*
X40080274Y-143865043D01*
X41678191Y-143705725D01*
X43323777Y-143577891D01*
X45010877Y-143481462D01*
X46733340Y-143416359D01*
X48485010Y-143382504D01*
X50259735Y-143379817D01*
X52051362Y-143408220D01*
G36*
X52051362Y-143408220D02*
G01*
X53853736Y-143467633D01*
X55660704Y-143557978D01*
X57466113Y-143679176D01*
X59263809Y-143831148D01*
X61047639Y-144013815D01*
X62811449Y-144227098D01*
X64549086Y-144470918D01*
X66254396Y-144745197D01*
X67921226Y-145049855D01*
X68977934Y-145263468D01*
X70038456Y-145493682D01*
X71048268Y-145728856D01*
X72017421Y-145972457D01*
X72955963Y-146227949D01*
X73873943Y-146498796D01*
X74781411Y-146788463D01*
X75688415Y-147100416D01*
X76605004Y-147438118D01*
X77541229Y-147805036D01*
X78507137Y-148204633D01*
X79512778Y-148640375D01*
X80568201Y-149115726D01*
X81683456Y-149634152D01*
X81762600Y-149671472D01*
X82100623Y-149832358D01*
X82474460Y-150012693D01*
X82876931Y-150208843D01*
X83300859Y-150417172D01*
X83739063Y-150634046D01*
X84184366Y-150855829D01*
X84629588Y-151078889D01*
X85067549Y-151299589D01*
X85491073Y-151514294D01*
X85892978Y-151719371D01*
X86266087Y-151911185D01*
X86603220Y-152086100D01*
X86897199Y-152240482D01*
X87140844Y-152370696D01*
X87326977Y-152473108D01*
X87448418Y-152544082D01*
X87486541Y-152569529D01*
X87513973Y-152596971D01*
X87526410Y-152636800D01*
X87521597Y-152702887D01*
X87497279Y-152809106D01*
X87451201Y-152969329D01*
X87388165Y-153174700D01*
X87034443Y-154417912D01*
X86723946Y-155724535D01*
X86457662Y-157084599D01*
X86236580Y-158488136D01*
X86061690Y-159925177D01*
X85933979Y-161385752D01*
X85854438Y-162859894D01*
X85824053Y-164337632D01*
X85843815Y-165808997D01*
X85914713Y-167264021D01*
X85946867Y-167705617D01*
X85959804Y-167890569D01*
X85962333Y-168006722D01*
X85952984Y-168069468D01*
X85930288Y-168094202D01*
X85909481Y-168097200D01*
X85841088Y-168101271D01*
X85709000Y-168112286D01*
X85533735Y-168128450D01*
X85378869Y-168143618D01*
X84839851Y-168223621D01*
X84332616Y-168350122D01*
X83868004Y-168518873D01*
X83456856Y-168725625D01*
X83110014Y-168966130D01*
X82977229Y-169084797D01*
X82838191Y-169233574D01*
X82711193Y-169392614D01*
X82619510Y-169532246D01*
X82606252Y-169557700D01*
X82569854Y-169637022D01*
X82543227Y-169712732D01*
X82524849Y-169799540D01*
X82513200Y-169912153D01*
X82506762Y-170065278D01*
X82504013Y-170273622D01*
X82503434Y-170551893D01*
X82503434Y-171335700D01*
X82628409Y-171561315D01*
X82824513Y-171837234D01*
X83094037Y-172097298D01*
X83426103Y-172333576D01*
X83809837Y-172538139D01*
X84160744Y-172678491D01*
X84447922Y-172770750D01*
X84714334Y-172839583D01*
X84981806Y-172888287D01*
X85272161Y-172920163D01*
X85607224Y-172938510D01*
X85928721Y-172945749D01*
X86687008Y-172955420D01*
X86828036Y-173561660D01*
X87131040Y-174760015D01*
X87470671Y-175909990D01*
X87844868Y-177006495D01*
X88251569Y-178044441D01*
X88688713Y-179018740D01*
X89154237Y-179924302D01*
X89646079Y-180756039D01*
X89896592Y-181135867D01*
X90031487Y-181331737D01*
X90162062Y-181519230D01*
X90274592Y-181678771D01*
X90355352Y-181790788D01*
X90363907Y-181802321D01*
X90434671Y-181906558D01*
X90472985Y-181982110D01*
X90474446Y-182005465D01*
X90425991Y-182029885D01*
X90305599Y-182081160D01*
X90120617Y-182156432D01*
X89878388Y-182252840D01*
X89586260Y-182367526D01*
X89251575Y-182497631D01*
X88881681Y-182640296D01*
X88483921Y-182792661D01*
X88065641Y-182951867D01*
X87634187Y-183115055D01*
X87329434Y-183229686D01*
X86169881Y-183659740D01*
X85069241Y-184057621D01*
X84028755Y-184422988D01*
X83049667Y-184755500D01*
X82133216Y-185054814D01*
X81280647Y-185320589D01*
X80493200Y-185552483D01*
X79772117Y-185750154D01*
X79118641Y-185913261D01*
X78534014Y-186041462D01*
X78019478Y-186134415D01*
X77576275Y-186191779D01*
X77205646Y-186213212D01*
X76908834Y-186198372D01*
X76703767Y-186152998D01*
X76585286Y-186095376D01*
X76464135Y-186001924D01*
X76337739Y-185868100D01*
X76203523Y-185689363D01*
X76058911Y-185461171D01*
X75901327Y-185178981D01*
X75728197Y-184838252D01*
X75536945Y-184434442D01*
X75324996Y-183963008D01*
X75089774Y-183419410D01*
X74903127Y-182977367D01*
X74548073Y-182142553D01*
X74213279Y-181383741D01*
X73895697Y-180695539D01*
X73592280Y-180072554D01*
X73299979Y-179509393D01*
X73015747Y-179000664D01*
X72736534Y-178540974D01*
X72459294Y-178124931D01*
X72180978Y-177747141D01*
X71898538Y-177402211D01*
X71608925Y-177084750D01*
X71522648Y-176996538D01*
X71117481Y-176621014D01*
X70710064Y-176313298D01*
X70283237Y-176064166D01*
X69819839Y-175864394D01*
X69302710Y-175704758D01*
X68976753Y-175628067D01*
X68801229Y-175593423D01*
X68635046Y-175568113D01*
X68459423Y-175550742D01*
X68255580Y-175539917D01*
X68004735Y-175534243D01*
X67688107Y-175532326D01*
X67686767Y-175532324D01*
X67301582Y-175537082D01*
X66927228Y-175553602D01*
X66554696Y-175583620D01*
X66174975Y-175628871D01*
X65779056Y-175691089D01*
X65357928Y-175772009D01*
X64902581Y-175873367D01*
X64404006Y-175996897D01*
X63853191Y-176144334D01*
X63241127Y-176317413D01*
X62558804Y-176517869D01*
X62541217Y-176523112D01*
X62023198Y-176676328D01*
X61577606Y-176805122D01*
X61196417Y-176911458D01*
X60871610Y-176997301D01*
X60595162Y-177064617D01*
X60359049Y-177115370D01*
X60155248Y-177151524D01*
X59975737Y-177175045D01*
X59830809Y-177186893D01*
X59565447Y-177194036D01*
X59363946Y-177176890D01*
X59207695Y-177130304D01*
X59078082Y-177049129D01*
X58976125Y-176950389D01*
X58893375Y-176846722D01*
X58814259Y-176720253D01*
X58737049Y-176565046D01*
X58660014Y-176375164D01*
X58581425Y-176144672D01*
X58499552Y-175867634D01*
X58412666Y-175538113D01*
X58319038Y-175150174D01*
X58216937Y-174697880D01*
X58104633Y-174175296D01*
X57980399Y-173576486D01*
X57950739Y-173431200D01*
X57868417Y-173032235D01*
X57781760Y-172621739D01*
X57694373Y-172216146D01*
X57609862Y-171831890D01*
X57531831Y-171485405D01*
X57463886Y-171193125D01*
X57421421Y-171018200D01*
X57196540Y-170176130D01*
X56960875Y-169413497D01*
X56711373Y-168725425D01*
X56444983Y-168107038D01*
X56158653Y-167553460D01*
X55849332Y-167059815D01*
X55513968Y-166621228D01*
X55149510Y-166232823D01*
X54752906Y-165889723D01*
X54321104Y-165587053D01*
X53857073Y-165323024D01*
X53418944Y-165112932D01*
X52968696Y-164927862D01*
X52498555Y-164766328D01*
X52000750Y-164626841D01*
X51467509Y-164507916D01*
X50891059Y-164408065D01*
X50263627Y-164325801D01*
X49577443Y-164259637D01*
X48824733Y-164208087D01*
X47997726Y-164169664D01*
X47790100Y-164162323D01*
X47218687Y-164142943D01*
X46724754Y-164125412D01*
X46301146Y-164109189D01*
X45940710Y-164093736D01*
X45636293Y-164078513D01*
X45380740Y-164062982D01*
X45166898Y-164046602D01*
X44987613Y-164028835D01*
X44835732Y-164009143D01*
X44704101Y-163986985D01*
X44585565Y-163961822D01*
X44472973Y-163933116D01*
X44374500Y-163904904D01*
X44144327Y-163819822D01*
X43964917Y-163709724D01*
X43824772Y-163561035D01*
X43712392Y-163360181D01*
X43616280Y-163093588D01*
X43580321Y-162967382D01*
X43533869Y-162777748D01*
X43491530Y-162565194D01*
X43452696Y-162323105D01*
X43416759Y-162044867D01*
X43383112Y-161723866D01*
X43351145Y-161353488D01*
X43320253Y-160927118D01*
X43289826Y-160438142D01*
X43259257Y-159879946D01*
X43227938Y-159245915D01*
X43217233Y-159016700D01*
X43183254Y-158307639D01*
X43150073Y-157674984D01*
X43135533Y-157426589D01*
X45188275Y-157426589D01*
X45188960Y-157924731D01*
X45190403Y-158411162D01*
X45192607Y-158877852D01*
X45195571Y-159316769D01*
X45199296Y-159719881D01*
X45203784Y-160079158D01*
X45209034Y-160386569D01*
X45215049Y-160634082D01*
X45221827Y-160813666D01*
X45229371Y-160917290D01*
X45229957Y-160921700D01*
X45320551Y-161286581D01*
X45480595Y-161628261D01*
X45699801Y-161935814D01*
X45967882Y-162198317D01*
X46274550Y-162404843D01*
X46609519Y-162544467D01*
X46799235Y-162588314D01*
X46964244Y-162614653D01*
X47080542Y-162627056D01*
X47182904Y-162625668D01*
X47306108Y-162610633D01*
X47430267Y-162590950D01*
X47798960Y-162489832D01*
X48137265Y-162316371D01*
X48436035Y-162080183D01*
X48686124Y-161790884D01*
X48878387Y-161458088D01*
X49003678Y-161091413D01*
X49038076Y-160900534D01*
X49045427Y-160799156D01*
X49052032Y-160621298D01*
X49057892Y-160375061D01*
X49063007Y-160068548D01*
X49067378Y-159709860D01*
X49071006Y-159307100D01*
X49073892Y-158868371D01*
X49076035Y-158401774D01*
X49077437Y-157915411D01*
X49078098Y-157417385D01*
X49078019Y-156915798D01*
X49077200Y-156418752D01*
X49075643Y-155934350D01*
X49073347Y-155470693D01*
X49070313Y-155035884D01*
X49066542Y-154638025D01*
X49062035Y-154285218D01*
X49056791Y-153985566D01*
X49050813Y-153747170D01*
X49044099Y-153578133D01*
X49037515Y-153492652D01*
X48946544Y-153100768D01*
X48784394Y-152743357D01*
X48559042Y-152428800D01*
X48278467Y-152165477D01*
X47950647Y-151961769D01*
X47583559Y-151826059D01*
X47417724Y-151791043D01*
X47041814Y-151769446D01*
X46677531Y-151825548D01*
X46333893Y-151952422D01*
X46019920Y-152143139D01*
X45744630Y-152390772D01*
X45517041Y-152688394D01*
X45346173Y-153029076D01*
X45241043Y-153405893D01*
X45230644Y-153471034D01*
X45223026Y-153567936D01*
X45216159Y-153741471D01*
X45210044Y-153983607D01*
X45204681Y-154286312D01*
X45200072Y-154641557D01*
X45196216Y-155041308D01*
X45193116Y-155477536D01*
X45190770Y-155942210D01*
X45189182Y-156427297D01*
X45188350Y-156924767D01*
X45188275Y-157426589D01*
X43135533Y-157426589D01*
X43117029Y-157110488D01*
X43083462Y-156605902D01*
X43048711Y-156152981D01*
X43012114Y-155743474D01*
X42973011Y-155369136D01*
X42930741Y-155021718D01*
X42884643Y-154692973D01*
X42855987Y-154508200D01*
X42755751Y-153952811D01*
X42641607Y-153445031D01*
X42516222Y-152994683D01*
X42382259Y-152611588D01*
X42275811Y-152370367D01*
X42050491Y-151993441D01*
X41743917Y-151605576D01*
X41358482Y-151208942D01*
X40896575Y-150805709D01*
X40360590Y-150398048D01*
X39752917Y-149988129D01*
X39429267Y-149786833D01*
X39200285Y-149649839D01*
X38960963Y-149510597D01*
X38703890Y-149365141D01*
X38421656Y-149209509D01*
X38106850Y-149039737D01*
X37752062Y-148851862D01*
X37349880Y-148641921D01*
X36892895Y-148405950D01*
X36393828Y-148150299D01*
X44725007Y-148150299D01*
X44729184Y-148440290D01*
X44756441Y-148704190D01*
X44783390Y-148833614D01*
X44925196Y-149215133D01*
X45137344Y-149581215D01*
X45405860Y-149913751D01*
X45716770Y-150194628D01*
X45955429Y-150352670D01*
X46332768Y-150519762D01*
X46745269Y-150618703D01*
X47175010Y-150647299D01*
X47604065Y-150603353D01*
X47745341Y-150571821D01*
X48079455Y-150461976D01*
X48377576Y-150307403D01*
X48662760Y-150094483D01*
X48852670Y-149917794D01*
X49139805Y-149580600D01*
X49348869Y-149215761D01*
X49482326Y-148817228D01*
X49542645Y-148378954D01*
X49546934Y-148215144D01*
X49506355Y-147777917D01*
X49388622Y-147364364D01*
X49199742Y-146982256D01*
X48945720Y-146639361D01*
X48632561Y-146343451D01*
X48266273Y-146102294D01*
X47852860Y-145923662D01*
X47751347Y-145892124D01*
X47491672Y-145841801D01*
X47189192Y-145821485D01*
X46880274Y-145831177D01*
X46601285Y-145870875D01*
X46516520Y-145892124D01*
X46097587Y-146054474D01*
X45718402Y-146283984D01*
X45387407Y-146572173D01*
X45113042Y-146910561D01*
X44903749Y-147290666D01*
X44785635Y-147631248D01*
X44743846Y-147869018D01*
X44725007Y-148150299D01*
X36393828Y-148150299D01*
X36373695Y-148139986D01*
X35873267Y-147885005D01*
X35288540Y-147586252D01*
X34775523Y-147320806D01*
X34329431Y-147085677D01*
X33945481Y-146877879D01*
X33618890Y-146694424D01*
X33344873Y-146532323D01*
X33118646Y-146388590D01*
X32935426Y-146260236D01*
X32790430Y-146144274D01*
X32678872Y-146037715D01*
X32595970Y-145937573D01*
X32536940Y-145840859D01*
X32511954Y-145785653D01*
X32470844Y-145662289D01*
X32469210Y-145574209D01*
X32496319Y-145500347D01*
X32543249Y-145420813D01*
X32607847Y-145349741D01*
X32698161Y-145284070D01*
X32822238Y-145220740D01*
X32988125Y-145156689D01*
X33203872Y-145088857D01*
X33477525Y-145014183D01*
X33817132Y-144929604D01*
X34230741Y-144832062D01*
X34288361Y-144818732D01*
X35634069Y-144532689D01*
X37052059Y-144278446D01*
X38536179Y-144055924D01*
X40080274Y-143865043D01*
X41678191Y-143705725D01*
X43323777Y-143577891D01*
X45010877Y-143481462D01*
X46733340Y-143416359D01*
X48485010Y-143382504D01*
X50259735Y-143379817D01*
X52051362Y-143408220D01*
G37*
%TD*%
M02*
