%TF.GenerationSoftware,KiCad,Pcbnew,8.0.5*%
%TF.CreationDate,2025-02-18T13:06:52+00:00*%
%TF.ProjectId,bat-design,6261742d-6465-4736-9967-6e2e6b696361,v1*%
%TF.SameCoordinates,Original*%
%TF.FileFunction,Legend,Bot*%
%TF.FilePolarity,Positive*%
%FSLAX46Y46*%
G04 Gerber Fmt 4.6, Leading zero omitted, Abs format (unit mm)*
G04 Created by KiCad (PCBNEW 8.0.5) date 2025-02-18 13:06:52*
%MOMM*%
%LPD*%
G01*
G04 APERTURE LIST*
%ADD10C,0.150000*%
%ADD11C,0.203200*%
%ADD12C,0.010000*%
G04 APERTURE END LIST*
D10*
X93022224Y-168414626D02*
X93358941Y-169155405D01*
X93358941Y-169155405D02*
X92618163Y-168818687D01*
X99640448Y-175934019D02*
X99640448Y-176648304D01*
X99640448Y-176648304D02*
X99688067Y-176791161D01*
X99688067Y-176791161D02*
X99783305Y-176886400D01*
X99783305Y-176886400D02*
X99926162Y-176934019D01*
X99926162Y-176934019D02*
X100021400Y-176934019D01*
X98688067Y-176934019D02*
X99164257Y-176934019D01*
X99164257Y-176934019D02*
X99164257Y-175934019D01*
X97783305Y-176838780D02*
X97830924Y-176886400D01*
X97830924Y-176886400D02*
X97973781Y-176934019D01*
X97973781Y-176934019D02*
X98069019Y-176934019D01*
X98069019Y-176934019D02*
X98211876Y-176886400D01*
X98211876Y-176886400D02*
X98307114Y-176791161D01*
X98307114Y-176791161D02*
X98354733Y-176695923D01*
X98354733Y-176695923D02*
X98402352Y-176505447D01*
X98402352Y-176505447D02*
X98402352Y-176362590D01*
X98402352Y-176362590D02*
X98354733Y-176172114D01*
X98354733Y-176172114D02*
X98307114Y-176076876D01*
X98307114Y-176076876D02*
X98211876Y-175981638D01*
X98211876Y-175981638D02*
X98069019Y-175934019D01*
X98069019Y-175934019D02*
X97973781Y-175934019D01*
X97973781Y-175934019D02*
X97830924Y-175981638D01*
X97830924Y-175981638D02*
X97783305Y-176029257D01*
X97069019Y-175934019D02*
X97069019Y-176648304D01*
X97069019Y-176648304D02*
X97116638Y-176791161D01*
X97116638Y-176791161D02*
X97211876Y-176886400D01*
X97211876Y-176886400D02*
X97354733Y-176934019D01*
X97354733Y-176934019D02*
X97449971Y-176934019D01*
X96116638Y-176934019D02*
X96592828Y-176934019D01*
X96592828Y-176934019D02*
X96592828Y-175934019D01*
X95211876Y-176838780D02*
X95259495Y-176886400D01*
X95259495Y-176886400D02*
X95402352Y-176934019D01*
X95402352Y-176934019D02*
X95497590Y-176934019D01*
X95497590Y-176934019D02*
X95640447Y-176886400D01*
X95640447Y-176886400D02*
X95735685Y-176791161D01*
X95735685Y-176791161D02*
X95783304Y-176695923D01*
X95783304Y-176695923D02*
X95830923Y-176505447D01*
X95830923Y-176505447D02*
X95830923Y-176362590D01*
X95830923Y-176362590D02*
X95783304Y-176172114D01*
X95783304Y-176172114D02*
X95735685Y-176076876D01*
X95735685Y-176076876D02*
X95640447Y-175981638D01*
X95640447Y-175981638D02*
X95497590Y-175934019D01*
X95497590Y-175934019D02*
X95402352Y-175934019D01*
X95402352Y-175934019D02*
X95259495Y-175981638D01*
X95259495Y-175981638D02*
X95211876Y-176029257D01*
X94497590Y-175934019D02*
X94497590Y-176648304D01*
X94497590Y-176648304D02*
X94545209Y-176791161D01*
X94545209Y-176791161D02*
X94640447Y-176886400D01*
X94640447Y-176886400D02*
X94783304Y-176934019D01*
X94783304Y-176934019D02*
X94878542Y-176934019D01*
X93545209Y-176934019D02*
X94021399Y-176934019D01*
X94021399Y-176934019D02*
X94021399Y-175934019D01*
X92640447Y-176838780D02*
X92688066Y-176886400D01*
X92688066Y-176886400D02*
X92830923Y-176934019D01*
X92830923Y-176934019D02*
X92926161Y-176934019D01*
X92926161Y-176934019D02*
X93069018Y-176886400D01*
X93069018Y-176886400D02*
X93164256Y-176791161D01*
X93164256Y-176791161D02*
X93211875Y-176695923D01*
X93211875Y-176695923D02*
X93259494Y-176505447D01*
X93259494Y-176505447D02*
X93259494Y-176362590D01*
X93259494Y-176362590D02*
X93211875Y-176172114D01*
X93211875Y-176172114D02*
X93164256Y-176076876D01*
X93164256Y-176076876D02*
X93069018Y-175981638D01*
X93069018Y-175981638D02*
X92926161Y-175934019D01*
X92926161Y-175934019D02*
X92830923Y-175934019D01*
X92830923Y-175934019D02*
X92688066Y-175981638D01*
X92688066Y-175981638D02*
X92640447Y-176029257D01*
X91926161Y-175934019D02*
X91926161Y-176648304D01*
X91926161Y-176648304D02*
X91973780Y-176791161D01*
X91973780Y-176791161D02*
X92069018Y-176886400D01*
X92069018Y-176886400D02*
X92211875Y-176934019D01*
X92211875Y-176934019D02*
X92307113Y-176934019D01*
X90973780Y-176934019D02*
X91449970Y-176934019D01*
X91449970Y-176934019D02*
X91449970Y-175934019D01*
X90069018Y-176838780D02*
X90116637Y-176886400D01*
X90116637Y-176886400D02*
X90259494Y-176934019D01*
X90259494Y-176934019D02*
X90354732Y-176934019D01*
X90354732Y-176934019D02*
X90497589Y-176886400D01*
X90497589Y-176886400D02*
X90592827Y-176791161D01*
X90592827Y-176791161D02*
X90640446Y-176695923D01*
X90640446Y-176695923D02*
X90688065Y-176505447D01*
X90688065Y-176505447D02*
X90688065Y-176362590D01*
X90688065Y-176362590D02*
X90640446Y-176172114D01*
X90640446Y-176172114D02*
X90592827Y-176076876D01*
X90592827Y-176076876D02*
X90497589Y-175981638D01*
X90497589Y-175981638D02*
X90354732Y-175934019D01*
X90354732Y-175934019D02*
X90259494Y-175934019D01*
X90259494Y-175934019D02*
X90116637Y-175981638D01*
X90116637Y-175981638D02*
X90069018Y-176029257D01*
X99040438Y-167061247D02*
X99040438Y-166394580D01*
X99040438Y-166489818D02*
X98992819Y-166442199D01*
X98992819Y-166442199D02*
X98897581Y-166394580D01*
X98897581Y-166394580D02*
X98754724Y-166394580D01*
X98754724Y-166394580D02*
X98659486Y-166442199D01*
X98659486Y-166442199D02*
X98611867Y-166537437D01*
X98611867Y-166537437D02*
X98611867Y-167061247D01*
X98611867Y-166537437D02*
X98564248Y-166442199D01*
X98564248Y-166442199D02*
X98469010Y-166394580D01*
X98469010Y-166394580D02*
X98326153Y-166394580D01*
X98326153Y-166394580D02*
X98230914Y-166442199D01*
X98230914Y-166442199D02*
X98183295Y-166537437D01*
X98183295Y-166537437D02*
X98183295Y-167061247D01*
X97326153Y-167013628D02*
X97421391Y-167061247D01*
X97421391Y-167061247D02*
X97611867Y-167061247D01*
X97611867Y-167061247D02*
X97707105Y-167013628D01*
X97707105Y-167013628D02*
X97754724Y-166918389D01*
X97754724Y-166918389D02*
X97754724Y-166537437D01*
X97754724Y-166537437D02*
X97707105Y-166442199D01*
X97707105Y-166442199D02*
X97611867Y-166394580D01*
X97611867Y-166394580D02*
X97421391Y-166394580D01*
X97421391Y-166394580D02*
X97326153Y-166442199D01*
X97326153Y-166442199D02*
X97278534Y-166537437D01*
X97278534Y-166537437D02*
X97278534Y-166632675D01*
X97278534Y-166632675D02*
X97754724Y-166727913D01*
X96707105Y-167061247D02*
X96802343Y-167013628D01*
X96802343Y-167013628D02*
X96849962Y-166918389D01*
X96849962Y-166918389D02*
X96849962Y-166061247D01*
X96469009Y-166394580D02*
X96088057Y-166394580D01*
X96326152Y-166061247D02*
X96326152Y-166918389D01*
X96326152Y-166918389D02*
X96278533Y-167013628D01*
X96278533Y-167013628D02*
X96183295Y-167061247D01*
X96183295Y-167061247D02*
X96088057Y-167061247D01*
X95040437Y-167013628D02*
X94945199Y-167061247D01*
X94945199Y-167061247D02*
X94754723Y-167061247D01*
X94754723Y-167061247D02*
X94659485Y-167013628D01*
X94659485Y-167013628D02*
X94611866Y-166918389D01*
X94611866Y-166918389D02*
X94611866Y-166870770D01*
X94611866Y-166870770D02*
X94659485Y-166775532D01*
X94659485Y-166775532D02*
X94754723Y-166727913D01*
X94754723Y-166727913D02*
X94897580Y-166727913D01*
X94897580Y-166727913D02*
X94992818Y-166680294D01*
X94992818Y-166680294D02*
X95040437Y-166585056D01*
X95040437Y-166585056D02*
X95040437Y-166537437D01*
X95040437Y-166537437D02*
X94992818Y-166442199D01*
X94992818Y-166442199D02*
X94897580Y-166394580D01*
X94897580Y-166394580D02*
X94754723Y-166394580D01*
X94754723Y-166394580D02*
X94659485Y-166442199D01*
X94040437Y-167061247D02*
X94135675Y-167013628D01*
X94135675Y-167013628D02*
X94183294Y-166966008D01*
X94183294Y-166966008D02*
X94230913Y-166870770D01*
X94230913Y-166870770D02*
X94230913Y-166585056D01*
X94230913Y-166585056D02*
X94183294Y-166489818D01*
X94183294Y-166489818D02*
X94135675Y-166442199D01*
X94135675Y-166442199D02*
X94040437Y-166394580D01*
X94040437Y-166394580D02*
X93897580Y-166394580D01*
X93897580Y-166394580D02*
X93802342Y-166442199D01*
X93802342Y-166442199D02*
X93754723Y-166489818D01*
X93754723Y-166489818D02*
X93707104Y-166585056D01*
X93707104Y-166585056D02*
X93707104Y-166870770D01*
X93707104Y-166870770D02*
X93754723Y-166966008D01*
X93754723Y-166966008D02*
X93802342Y-167013628D01*
X93802342Y-167013628D02*
X93897580Y-167061247D01*
X93897580Y-167061247D02*
X94040437Y-167061247D01*
X93135675Y-167061247D02*
X93230913Y-167013628D01*
X93230913Y-167013628D02*
X93278532Y-166918389D01*
X93278532Y-166918389D02*
X93278532Y-166061247D01*
X92326151Y-167061247D02*
X92326151Y-166061247D01*
X92326151Y-167013628D02*
X92421389Y-167061247D01*
X92421389Y-167061247D02*
X92611865Y-167061247D01*
X92611865Y-167061247D02*
X92707103Y-167013628D01*
X92707103Y-167013628D02*
X92754722Y-166966008D01*
X92754722Y-166966008D02*
X92802341Y-166870770D01*
X92802341Y-166870770D02*
X92802341Y-166585056D01*
X92802341Y-166585056D02*
X92754722Y-166489818D01*
X92754722Y-166489818D02*
X92707103Y-166442199D01*
X92707103Y-166442199D02*
X92611865Y-166394580D01*
X92611865Y-166394580D02*
X92421389Y-166394580D01*
X92421389Y-166394580D02*
X92326151Y-166442199D01*
X91469008Y-167013628D02*
X91564246Y-167061247D01*
X91564246Y-167061247D02*
X91754722Y-167061247D01*
X91754722Y-167061247D02*
X91849960Y-167013628D01*
X91849960Y-167013628D02*
X91897579Y-166918389D01*
X91897579Y-166918389D02*
X91897579Y-166537437D01*
X91897579Y-166537437D02*
X91849960Y-166442199D01*
X91849960Y-166442199D02*
X91754722Y-166394580D01*
X91754722Y-166394580D02*
X91564246Y-166394580D01*
X91564246Y-166394580D02*
X91469008Y-166442199D01*
X91469008Y-166442199D02*
X91421389Y-166537437D01*
X91421389Y-166537437D02*
X91421389Y-166632675D01*
X91421389Y-166632675D02*
X91897579Y-166727913D01*
X90992817Y-167061247D02*
X90992817Y-166394580D01*
X90992817Y-166585056D02*
X90945198Y-166489818D01*
X90945198Y-166489818D02*
X90897579Y-166442199D01*
X90897579Y-166442199D02*
X90802341Y-166394580D01*
X90802341Y-166394580D02*
X90707103Y-166394580D01*
X96326152Y-168671191D02*
X96326152Y-167671191D01*
X95897581Y-168671191D02*
X95897581Y-168147381D01*
X95897581Y-168147381D02*
X95945200Y-168052143D01*
X95945200Y-168052143D02*
X96040438Y-168004524D01*
X96040438Y-168004524D02*
X96183295Y-168004524D01*
X96183295Y-168004524D02*
X96278533Y-168052143D01*
X96278533Y-168052143D02*
X96326152Y-168099762D01*
X95040438Y-168623572D02*
X95135676Y-168671191D01*
X95135676Y-168671191D02*
X95326152Y-168671191D01*
X95326152Y-168671191D02*
X95421390Y-168623572D01*
X95421390Y-168623572D02*
X95469009Y-168528333D01*
X95469009Y-168528333D02*
X95469009Y-168147381D01*
X95469009Y-168147381D02*
X95421390Y-168052143D01*
X95421390Y-168052143D02*
X95326152Y-168004524D01*
X95326152Y-168004524D02*
X95135676Y-168004524D01*
X95135676Y-168004524D02*
X95040438Y-168052143D01*
X95040438Y-168052143D02*
X94992819Y-168147381D01*
X94992819Y-168147381D02*
X94992819Y-168242619D01*
X94992819Y-168242619D02*
X95469009Y-168337857D01*
X94564247Y-168671191D02*
X94564247Y-168004524D01*
X94564247Y-168195000D02*
X94516628Y-168099762D01*
X94516628Y-168099762D02*
X94469009Y-168052143D01*
X94469009Y-168052143D02*
X94373771Y-168004524D01*
X94373771Y-168004524D02*
X94278533Y-168004524D01*
X93564247Y-168623572D02*
X93659485Y-168671191D01*
X93659485Y-168671191D02*
X93849961Y-168671191D01*
X93849961Y-168671191D02*
X93945199Y-168623572D01*
X93945199Y-168623572D02*
X93992818Y-168528333D01*
X93992818Y-168528333D02*
X93992818Y-168147381D01*
X93992818Y-168147381D02*
X93945199Y-168052143D01*
X93945199Y-168052143D02*
X93849961Y-168004524D01*
X93849961Y-168004524D02*
X93659485Y-168004524D01*
X93659485Y-168004524D02*
X93564247Y-168052143D01*
X93564247Y-168052143D02*
X93516628Y-168147381D01*
X93516628Y-168147381D02*
X93516628Y-168242619D01*
X93516628Y-168242619D02*
X93992818Y-168337857D01*
X97269373Y-168790424D02*
X96528594Y-169127141D01*
X96528594Y-169127141D02*
X96865312Y-168386363D01*
X138723000Y-155269084D02*
X138580143Y-155316703D01*
X138580143Y-155316703D02*
X138342048Y-155316703D01*
X138342048Y-155316703D02*
X138246810Y-155269084D01*
X138246810Y-155269084D02*
X138199191Y-155221464D01*
X138199191Y-155221464D02*
X138151572Y-155126226D01*
X138151572Y-155126226D02*
X138151572Y-155030988D01*
X138151572Y-155030988D02*
X138199191Y-154935750D01*
X138199191Y-154935750D02*
X138246810Y-154888131D01*
X138246810Y-154888131D02*
X138342048Y-154840512D01*
X138342048Y-154840512D02*
X138532524Y-154792893D01*
X138532524Y-154792893D02*
X138627762Y-154745274D01*
X138627762Y-154745274D02*
X138675381Y-154697655D01*
X138675381Y-154697655D02*
X138723000Y-154602417D01*
X138723000Y-154602417D02*
X138723000Y-154507179D01*
X138723000Y-154507179D02*
X138675381Y-154411941D01*
X138675381Y-154411941D02*
X138627762Y-154364322D01*
X138627762Y-154364322D02*
X138532524Y-154316703D01*
X138532524Y-154316703D02*
X138294429Y-154316703D01*
X138294429Y-154316703D02*
X138151572Y-154364322D01*
X137294429Y-155269084D02*
X137389667Y-155316703D01*
X137389667Y-155316703D02*
X137580143Y-155316703D01*
X137580143Y-155316703D02*
X137675381Y-155269084D01*
X137675381Y-155269084D02*
X137723000Y-155221464D01*
X137723000Y-155221464D02*
X137770619Y-155126226D01*
X137770619Y-155126226D02*
X137770619Y-154840512D01*
X137770619Y-154840512D02*
X137723000Y-154745274D01*
X137723000Y-154745274D02*
X137675381Y-154697655D01*
X137675381Y-154697655D02*
X137580143Y-154650036D01*
X137580143Y-154650036D02*
X137389667Y-154650036D01*
X137389667Y-154650036D02*
X137294429Y-154697655D01*
X136865857Y-155316703D02*
X136865857Y-154650036D01*
X136865857Y-154316703D02*
X136913476Y-154364322D01*
X136913476Y-154364322D02*
X136865857Y-154411941D01*
X136865857Y-154411941D02*
X136818238Y-154364322D01*
X136818238Y-154364322D02*
X136865857Y-154316703D01*
X136865857Y-154316703D02*
X136865857Y-154411941D01*
X136008715Y-155269084D02*
X136103953Y-155316703D01*
X136103953Y-155316703D02*
X136294429Y-155316703D01*
X136294429Y-155316703D02*
X136389667Y-155269084D01*
X136389667Y-155269084D02*
X136437286Y-155173845D01*
X136437286Y-155173845D02*
X136437286Y-154792893D01*
X136437286Y-154792893D02*
X136389667Y-154697655D01*
X136389667Y-154697655D02*
X136294429Y-154650036D01*
X136294429Y-154650036D02*
X136103953Y-154650036D01*
X136103953Y-154650036D02*
X136008715Y-154697655D01*
X136008715Y-154697655D02*
X135961096Y-154792893D01*
X135961096Y-154792893D02*
X135961096Y-154888131D01*
X135961096Y-154888131D02*
X136437286Y-154983369D01*
X135532524Y-154650036D02*
X135532524Y-155316703D01*
X135532524Y-154745274D02*
X135484905Y-154697655D01*
X135484905Y-154697655D02*
X135389667Y-154650036D01*
X135389667Y-154650036D02*
X135246810Y-154650036D01*
X135246810Y-154650036D02*
X135151572Y-154697655D01*
X135151572Y-154697655D02*
X135103953Y-154792893D01*
X135103953Y-154792893D02*
X135103953Y-155316703D01*
X134199191Y-155269084D02*
X134294429Y-155316703D01*
X134294429Y-155316703D02*
X134484905Y-155316703D01*
X134484905Y-155316703D02*
X134580143Y-155269084D01*
X134580143Y-155269084D02*
X134627762Y-155221464D01*
X134627762Y-155221464D02*
X134675381Y-155126226D01*
X134675381Y-155126226D02*
X134675381Y-154840512D01*
X134675381Y-154840512D02*
X134627762Y-154745274D01*
X134627762Y-154745274D02*
X134580143Y-154697655D01*
X134580143Y-154697655D02*
X134484905Y-154650036D01*
X134484905Y-154650036D02*
X134294429Y-154650036D01*
X134294429Y-154650036D02*
X134199191Y-154697655D01*
X133389667Y-155269084D02*
X133484905Y-155316703D01*
X133484905Y-155316703D02*
X133675381Y-155316703D01*
X133675381Y-155316703D02*
X133770619Y-155269084D01*
X133770619Y-155269084D02*
X133818238Y-155173845D01*
X133818238Y-155173845D02*
X133818238Y-154792893D01*
X133818238Y-154792893D02*
X133770619Y-154697655D01*
X133770619Y-154697655D02*
X133675381Y-154650036D01*
X133675381Y-154650036D02*
X133484905Y-154650036D01*
X133484905Y-154650036D02*
X133389667Y-154697655D01*
X133389667Y-154697655D02*
X133342048Y-154792893D01*
X133342048Y-154792893D02*
X133342048Y-154888131D01*
X133342048Y-154888131D02*
X133818238Y-154983369D01*
X131961095Y-154316703D02*
X131770619Y-154316703D01*
X131770619Y-154316703D02*
X131675381Y-154364322D01*
X131675381Y-154364322D02*
X131580143Y-154459560D01*
X131580143Y-154459560D02*
X131532524Y-154650036D01*
X131532524Y-154650036D02*
X131532524Y-154983369D01*
X131532524Y-154983369D02*
X131580143Y-155173845D01*
X131580143Y-155173845D02*
X131675381Y-155269084D01*
X131675381Y-155269084D02*
X131770619Y-155316703D01*
X131770619Y-155316703D02*
X131961095Y-155316703D01*
X131961095Y-155316703D02*
X132056333Y-155269084D01*
X132056333Y-155269084D02*
X132151571Y-155173845D01*
X132151571Y-155173845D02*
X132199190Y-154983369D01*
X132199190Y-154983369D02*
X132199190Y-154650036D01*
X132199190Y-154650036D02*
X132151571Y-154459560D01*
X132151571Y-154459560D02*
X132056333Y-154364322D01*
X132056333Y-154364322D02*
X131961095Y-154316703D01*
X131199190Y-155316703D02*
X130675381Y-154650036D01*
X131199190Y-154650036D02*
X130675381Y-155316703D01*
X130437285Y-154650036D02*
X130056333Y-154650036D01*
X130294428Y-155316703D02*
X130294428Y-154459560D01*
X130294428Y-154459560D02*
X130246809Y-154364322D01*
X130246809Y-154364322D02*
X130151571Y-154316703D01*
X130151571Y-154316703D02*
X130056333Y-154316703D01*
X129580142Y-155316703D02*
X129675380Y-155269084D01*
X129675380Y-155269084D02*
X129722999Y-155221464D01*
X129722999Y-155221464D02*
X129770618Y-155126226D01*
X129770618Y-155126226D02*
X129770618Y-154840512D01*
X129770618Y-154840512D02*
X129722999Y-154745274D01*
X129722999Y-154745274D02*
X129675380Y-154697655D01*
X129675380Y-154697655D02*
X129580142Y-154650036D01*
X129580142Y-154650036D02*
X129437285Y-154650036D01*
X129437285Y-154650036D02*
X129342047Y-154697655D01*
X129342047Y-154697655D02*
X129294428Y-154745274D01*
X129294428Y-154745274D02*
X129246809Y-154840512D01*
X129246809Y-154840512D02*
X129246809Y-155126226D01*
X129246809Y-155126226D02*
X129294428Y-155221464D01*
X129294428Y-155221464D02*
X129342047Y-155269084D01*
X129342047Y-155269084D02*
X129437285Y-155316703D01*
X129437285Y-155316703D02*
X129580142Y-155316703D01*
X128818237Y-155316703D02*
X128818237Y-154650036D01*
X128818237Y-154840512D02*
X128770618Y-154745274D01*
X128770618Y-154745274D02*
X128722999Y-154697655D01*
X128722999Y-154697655D02*
X128627761Y-154650036D01*
X128627761Y-154650036D02*
X128532523Y-154650036D01*
X127770618Y-155316703D02*
X127770618Y-154316703D01*
X127770618Y-155269084D02*
X127865856Y-155316703D01*
X127865856Y-155316703D02*
X128056332Y-155316703D01*
X128056332Y-155316703D02*
X128151570Y-155269084D01*
X128151570Y-155269084D02*
X128199189Y-155221464D01*
X128199189Y-155221464D02*
X128246808Y-155126226D01*
X128246808Y-155126226D02*
X128246808Y-154840512D01*
X128246808Y-154840512D02*
X128199189Y-154745274D01*
X128199189Y-154745274D02*
X128151570Y-154697655D01*
X128151570Y-154697655D02*
X128056332Y-154650036D01*
X128056332Y-154650036D02*
X127865856Y-154650036D01*
X127865856Y-154650036D02*
X127770618Y-154697655D01*
X141842047Y-156259980D02*
X141651571Y-156926647D01*
X141651571Y-156926647D02*
X141461095Y-156450456D01*
X141461095Y-156450456D02*
X141270619Y-156926647D01*
X141270619Y-156926647D02*
X141080143Y-156259980D01*
X140794428Y-156259980D02*
X140603952Y-156926647D01*
X140603952Y-156926647D02*
X140413476Y-156450456D01*
X140413476Y-156450456D02*
X140223000Y-156926647D01*
X140223000Y-156926647D02*
X140032524Y-156259980D01*
X139746809Y-156259980D02*
X139556333Y-156926647D01*
X139556333Y-156926647D02*
X139365857Y-156450456D01*
X139365857Y-156450456D02*
X139175381Y-156926647D01*
X139175381Y-156926647D02*
X138984905Y-156259980D01*
X138603952Y-156831408D02*
X138556333Y-156879028D01*
X138556333Y-156879028D02*
X138603952Y-156926647D01*
X138603952Y-156926647D02*
X138651571Y-156879028D01*
X138651571Y-156879028D02*
X138603952Y-156831408D01*
X138603952Y-156831408D02*
X138603952Y-156926647D01*
X138175381Y-156879028D02*
X138080143Y-156926647D01*
X138080143Y-156926647D02*
X137889667Y-156926647D01*
X137889667Y-156926647D02*
X137794429Y-156879028D01*
X137794429Y-156879028D02*
X137746810Y-156783789D01*
X137746810Y-156783789D02*
X137746810Y-156736170D01*
X137746810Y-156736170D02*
X137794429Y-156640932D01*
X137794429Y-156640932D02*
X137889667Y-156593313D01*
X137889667Y-156593313D02*
X138032524Y-156593313D01*
X138032524Y-156593313D02*
X138127762Y-156545694D01*
X138127762Y-156545694D02*
X138175381Y-156450456D01*
X138175381Y-156450456D02*
X138175381Y-156402837D01*
X138175381Y-156402837D02*
X138127762Y-156307599D01*
X138127762Y-156307599D02*
X138032524Y-156259980D01*
X138032524Y-156259980D02*
X137889667Y-156259980D01*
X137889667Y-156259980D02*
X137794429Y-156307599D01*
X136889667Y-156879028D02*
X136984905Y-156926647D01*
X136984905Y-156926647D02*
X137175381Y-156926647D01*
X137175381Y-156926647D02*
X137270619Y-156879028D01*
X137270619Y-156879028D02*
X137318238Y-156831408D01*
X137318238Y-156831408D02*
X137365857Y-156736170D01*
X137365857Y-156736170D02*
X137365857Y-156450456D01*
X137365857Y-156450456D02*
X137318238Y-156355218D01*
X137318238Y-156355218D02*
X137270619Y-156307599D01*
X137270619Y-156307599D02*
X137175381Y-156259980D01*
X137175381Y-156259980D02*
X136984905Y-156259980D01*
X136984905Y-156259980D02*
X136889667Y-156307599D01*
X136461095Y-156926647D02*
X136461095Y-156259980D01*
X136461095Y-155926647D02*
X136508714Y-155974266D01*
X136508714Y-155974266D02*
X136461095Y-156021885D01*
X136461095Y-156021885D02*
X136413476Y-155974266D01*
X136413476Y-155974266D02*
X136461095Y-155926647D01*
X136461095Y-155926647D02*
X136461095Y-156021885D01*
X135603953Y-156879028D02*
X135699191Y-156926647D01*
X135699191Y-156926647D02*
X135889667Y-156926647D01*
X135889667Y-156926647D02*
X135984905Y-156879028D01*
X135984905Y-156879028D02*
X136032524Y-156783789D01*
X136032524Y-156783789D02*
X136032524Y-156402837D01*
X136032524Y-156402837D02*
X135984905Y-156307599D01*
X135984905Y-156307599D02*
X135889667Y-156259980D01*
X135889667Y-156259980D02*
X135699191Y-156259980D01*
X135699191Y-156259980D02*
X135603953Y-156307599D01*
X135603953Y-156307599D02*
X135556334Y-156402837D01*
X135556334Y-156402837D02*
X135556334Y-156498075D01*
X135556334Y-156498075D02*
X136032524Y-156593313D01*
X135127762Y-156259980D02*
X135127762Y-156926647D01*
X135127762Y-156355218D02*
X135080143Y-156307599D01*
X135080143Y-156307599D02*
X134984905Y-156259980D01*
X134984905Y-156259980D02*
X134842048Y-156259980D01*
X134842048Y-156259980D02*
X134746810Y-156307599D01*
X134746810Y-156307599D02*
X134699191Y-156402837D01*
X134699191Y-156402837D02*
X134699191Y-156926647D01*
X133794429Y-156879028D02*
X133889667Y-156926647D01*
X133889667Y-156926647D02*
X134080143Y-156926647D01*
X134080143Y-156926647D02*
X134175381Y-156879028D01*
X134175381Y-156879028D02*
X134223000Y-156831408D01*
X134223000Y-156831408D02*
X134270619Y-156736170D01*
X134270619Y-156736170D02*
X134270619Y-156450456D01*
X134270619Y-156450456D02*
X134223000Y-156355218D01*
X134223000Y-156355218D02*
X134175381Y-156307599D01*
X134175381Y-156307599D02*
X134080143Y-156259980D01*
X134080143Y-156259980D02*
X133889667Y-156259980D01*
X133889667Y-156259980D02*
X133794429Y-156307599D01*
X132984905Y-156879028D02*
X133080143Y-156926647D01*
X133080143Y-156926647D02*
X133270619Y-156926647D01*
X133270619Y-156926647D02*
X133365857Y-156879028D01*
X133365857Y-156879028D02*
X133413476Y-156783789D01*
X133413476Y-156783789D02*
X133413476Y-156402837D01*
X133413476Y-156402837D02*
X133365857Y-156307599D01*
X133365857Y-156307599D02*
X133270619Y-156259980D01*
X133270619Y-156259980D02*
X133080143Y-156259980D01*
X133080143Y-156259980D02*
X132984905Y-156307599D01*
X132984905Y-156307599D02*
X132937286Y-156402837D01*
X132937286Y-156402837D02*
X132937286Y-156498075D01*
X132937286Y-156498075D02*
X133413476Y-156593313D01*
X132365857Y-156926647D02*
X132461095Y-156879028D01*
X132461095Y-156879028D02*
X132508714Y-156831408D01*
X132508714Y-156831408D02*
X132556333Y-156736170D01*
X132556333Y-156736170D02*
X132556333Y-156450456D01*
X132556333Y-156450456D02*
X132508714Y-156355218D01*
X132508714Y-156355218D02*
X132461095Y-156307599D01*
X132461095Y-156307599D02*
X132365857Y-156259980D01*
X132365857Y-156259980D02*
X132223000Y-156259980D01*
X132223000Y-156259980D02*
X132127762Y-156307599D01*
X132127762Y-156307599D02*
X132080143Y-156355218D01*
X132080143Y-156355218D02*
X132032524Y-156450456D01*
X132032524Y-156450456D02*
X132032524Y-156736170D01*
X132032524Y-156736170D02*
X132080143Y-156831408D01*
X132080143Y-156831408D02*
X132127762Y-156879028D01*
X132127762Y-156879028D02*
X132223000Y-156926647D01*
X132223000Y-156926647D02*
X132365857Y-156926647D01*
X131699190Y-156926647D02*
X131175381Y-156259980D01*
X131699190Y-156259980D02*
X131175381Y-156926647D01*
X130937285Y-156259980D02*
X130556333Y-156259980D01*
X130794428Y-156926647D02*
X130794428Y-156069504D01*
X130794428Y-156069504D02*
X130746809Y-155974266D01*
X130746809Y-155974266D02*
X130651571Y-155926647D01*
X130651571Y-155926647D02*
X130556333Y-155926647D01*
X130080142Y-156926647D02*
X130175380Y-156879028D01*
X130175380Y-156879028D02*
X130222999Y-156831408D01*
X130222999Y-156831408D02*
X130270618Y-156736170D01*
X130270618Y-156736170D02*
X130270618Y-156450456D01*
X130270618Y-156450456D02*
X130222999Y-156355218D01*
X130222999Y-156355218D02*
X130175380Y-156307599D01*
X130175380Y-156307599D02*
X130080142Y-156259980D01*
X130080142Y-156259980D02*
X129937285Y-156259980D01*
X129937285Y-156259980D02*
X129842047Y-156307599D01*
X129842047Y-156307599D02*
X129794428Y-156355218D01*
X129794428Y-156355218D02*
X129746809Y-156450456D01*
X129746809Y-156450456D02*
X129746809Y-156736170D01*
X129746809Y-156736170D02*
X129794428Y-156831408D01*
X129794428Y-156831408D02*
X129842047Y-156879028D01*
X129842047Y-156879028D02*
X129937285Y-156926647D01*
X129937285Y-156926647D02*
X130080142Y-156926647D01*
X129318237Y-156926647D02*
X129318237Y-156259980D01*
X129318237Y-156450456D02*
X129270618Y-156355218D01*
X129270618Y-156355218D02*
X129222999Y-156307599D01*
X129222999Y-156307599D02*
X129127761Y-156259980D01*
X129127761Y-156259980D02*
X129032523Y-156259980D01*
X128270618Y-156926647D02*
X128270618Y-155926647D01*
X128270618Y-156879028D02*
X128365856Y-156926647D01*
X128365856Y-156926647D02*
X128556332Y-156926647D01*
X128556332Y-156926647D02*
X128651570Y-156879028D01*
X128651570Y-156879028D02*
X128699189Y-156831408D01*
X128699189Y-156831408D02*
X128746808Y-156736170D01*
X128746808Y-156736170D02*
X128746808Y-156450456D01*
X128746808Y-156450456D02*
X128699189Y-156355218D01*
X128699189Y-156355218D02*
X128651570Y-156307599D01*
X128651570Y-156307599D02*
X128556332Y-156259980D01*
X128556332Y-156259980D02*
X128365856Y-156259980D01*
X128365856Y-156259980D02*
X128270618Y-156307599D01*
X127794427Y-156831408D02*
X127746808Y-156879028D01*
X127746808Y-156879028D02*
X127794427Y-156926647D01*
X127794427Y-156926647D02*
X127842046Y-156879028D01*
X127842046Y-156879028D02*
X127794427Y-156831408D01*
X127794427Y-156831408D02*
X127794427Y-156926647D01*
X126889666Y-156879028D02*
X126984904Y-156926647D01*
X126984904Y-156926647D02*
X127175380Y-156926647D01*
X127175380Y-156926647D02*
X127270618Y-156879028D01*
X127270618Y-156879028D02*
X127318237Y-156831408D01*
X127318237Y-156831408D02*
X127365856Y-156736170D01*
X127365856Y-156736170D02*
X127365856Y-156450456D01*
X127365856Y-156450456D02*
X127318237Y-156355218D01*
X127318237Y-156355218D02*
X127270618Y-156307599D01*
X127270618Y-156307599D02*
X127175380Y-156259980D01*
X127175380Y-156259980D02*
X126984904Y-156259980D01*
X126984904Y-156259980D02*
X126889666Y-156307599D01*
X126318237Y-156926647D02*
X126413475Y-156879028D01*
X126413475Y-156879028D02*
X126461094Y-156831408D01*
X126461094Y-156831408D02*
X126508713Y-156736170D01*
X126508713Y-156736170D02*
X126508713Y-156450456D01*
X126508713Y-156450456D02*
X126461094Y-156355218D01*
X126461094Y-156355218D02*
X126413475Y-156307599D01*
X126413475Y-156307599D02*
X126318237Y-156259980D01*
X126318237Y-156259980D02*
X126175380Y-156259980D01*
X126175380Y-156259980D02*
X126080142Y-156307599D01*
X126080142Y-156307599D02*
X126032523Y-156355218D01*
X126032523Y-156355218D02*
X125984904Y-156450456D01*
X125984904Y-156450456D02*
X125984904Y-156736170D01*
X125984904Y-156736170D02*
X126032523Y-156831408D01*
X126032523Y-156831408D02*
X126080142Y-156879028D01*
X126080142Y-156879028D02*
X126175380Y-156926647D01*
X126175380Y-156926647D02*
X126318237Y-156926647D01*
X125556332Y-156926647D02*
X125556332Y-156259980D01*
X125556332Y-156355218D02*
X125508713Y-156307599D01*
X125508713Y-156307599D02*
X125413475Y-156259980D01*
X125413475Y-156259980D02*
X125270618Y-156259980D01*
X125270618Y-156259980D02*
X125175380Y-156307599D01*
X125175380Y-156307599D02*
X125127761Y-156402837D01*
X125127761Y-156402837D02*
X125127761Y-156926647D01*
X125127761Y-156402837D02*
X125080142Y-156307599D01*
X125080142Y-156307599D02*
X124984904Y-156259980D01*
X124984904Y-156259980D02*
X124842047Y-156259980D01*
X124842047Y-156259980D02*
X124746808Y-156307599D01*
X124746808Y-156307599D02*
X124699189Y-156402837D01*
X124699189Y-156402837D02*
X124699189Y-156926647D01*
X139508715Y-158012781D02*
X139365858Y-158060400D01*
X139365858Y-158060400D02*
X139318239Y-158108019D01*
X139318239Y-158108019D02*
X139270620Y-158203257D01*
X139270620Y-158203257D02*
X139270620Y-158346114D01*
X139270620Y-158346114D02*
X139318239Y-158441352D01*
X139318239Y-158441352D02*
X139365858Y-158488972D01*
X139365858Y-158488972D02*
X139461096Y-158536591D01*
X139461096Y-158536591D02*
X139842048Y-158536591D01*
X139842048Y-158536591D02*
X139842048Y-157536591D01*
X139842048Y-157536591D02*
X139508715Y-157536591D01*
X139508715Y-157536591D02*
X139413477Y-157584210D01*
X139413477Y-157584210D02*
X139365858Y-157631829D01*
X139365858Y-157631829D02*
X139318239Y-157727067D01*
X139318239Y-157727067D02*
X139318239Y-157822305D01*
X139318239Y-157822305D02*
X139365858Y-157917543D01*
X139365858Y-157917543D02*
X139413477Y-157965162D01*
X139413477Y-157965162D02*
X139508715Y-158012781D01*
X139508715Y-158012781D02*
X139842048Y-158012781D01*
X138413477Y-158536591D02*
X138413477Y-158012781D01*
X138413477Y-158012781D02*
X138461096Y-157917543D01*
X138461096Y-157917543D02*
X138556334Y-157869924D01*
X138556334Y-157869924D02*
X138746810Y-157869924D01*
X138746810Y-157869924D02*
X138842048Y-157917543D01*
X138413477Y-158488972D02*
X138508715Y-158536591D01*
X138508715Y-158536591D02*
X138746810Y-158536591D01*
X138746810Y-158536591D02*
X138842048Y-158488972D01*
X138842048Y-158488972D02*
X138889667Y-158393733D01*
X138889667Y-158393733D02*
X138889667Y-158298495D01*
X138889667Y-158298495D02*
X138842048Y-158203257D01*
X138842048Y-158203257D02*
X138746810Y-158155638D01*
X138746810Y-158155638D02*
X138508715Y-158155638D01*
X138508715Y-158155638D02*
X138413477Y-158108019D01*
X138080143Y-157869924D02*
X137699191Y-157869924D01*
X137937286Y-157536591D02*
X137937286Y-158393733D01*
X137937286Y-158393733D02*
X137889667Y-158488972D01*
X137889667Y-158488972D02*
X137794429Y-158536591D01*
X137794429Y-158536591D02*
X137699191Y-158536591D01*
X136603952Y-158536591D02*
X136603952Y-157536591D01*
X136603952Y-157536591D02*
X136365857Y-157536591D01*
X136365857Y-157536591D02*
X136223000Y-157584210D01*
X136223000Y-157584210D02*
X136127762Y-157679448D01*
X136127762Y-157679448D02*
X136080143Y-157774686D01*
X136080143Y-157774686D02*
X136032524Y-157965162D01*
X136032524Y-157965162D02*
X136032524Y-158108019D01*
X136032524Y-158108019D02*
X136080143Y-158298495D01*
X136080143Y-158298495D02*
X136127762Y-158393733D01*
X136127762Y-158393733D02*
X136223000Y-158488972D01*
X136223000Y-158488972D02*
X136365857Y-158536591D01*
X136365857Y-158536591D02*
X136603952Y-158536591D01*
X135223000Y-158488972D02*
X135318238Y-158536591D01*
X135318238Y-158536591D02*
X135508714Y-158536591D01*
X135508714Y-158536591D02*
X135603952Y-158488972D01*
X135603952Y-158488972D02*
X135651571Y-158393733D01*
X135651571Y-158393733D02*
X135651571Y-158012781D01*
X135651571Y-158012781D02*
X135603952Y-157917543D01*
X135603952Y-157917543D02*
X135508714Y-157869924D01*
X135508714Y-157869924D02*
X135318238Y-157869924D01*
X135318238Y-157869924D02*
X135223000Y-157917543D01*
X135223000Y-157917543D02*
X135175381Y-158012781D01*
X135175381Y-158012781D02*
X135175381Y-158108019D01*
X135175381Y-158108019D02*
X135651571Y-158203257D01*
X134318238Y-158488972D02*
X134413476Y-158536591D01*
X134413476Y-158536591D02*
X134603952Y-158536591D01*
X134603952Y-158536591D02*
X134699190Y-158488972D01*
X134699190Y-158488972D02*
X134746809Y-158441352D01*
X134746809Y-158441352D02*
X134794428Y-158346114D01*
X134794428Y-158346114D02*
X134794428Y-158060400D01*
X134794428Y-158060400D02*
X134746809Y-157965162D01*
X134746809Y-157965162D02*
X134699190Y-157917543D01*
X134699190Y-157917543D02*
X134603952Y-157869924D01*
X134603952Y-157869924D02*
X134413476Y-157869924D01*
X134413476Y-157869924D02*
X134318238Y-157917543D01*
X133746809Y-158536591D02*
X133842047Y-158488972D01*
X133842047Y-158488972D02*
X133889666Y-158441352D01*
X133889666Y-158441352D02*
X133937285Y-158346114D01*
X133937285Y-158346114D02*
X133937285Y-158060400D01*
X133937285Y-158060400D02*
X133889666Y-157965162D01*
X133889666Y-157965162D02*
X133842047Y-157917543D01*
X133842047Y-157917543D02*
X133746809Y-157869924D01*
X133746809Y-157869924D02*
X133603952Y-157869924D01*
X133603952Y-157869924D02*
X133508714Y-157917543D01*
X133508714Y-157917543D02*
X133461095Y-157965162D01*
X133461095Y-157965162D02*
X133413476Y-158060400D01*
X133413476Y-158060400D02*
X133413476Y-158346114D01*
X133413476Y-158346114D02*
X133461095Y-158441352D01*
X133461095Y-158441352D02*
X133508714Y-158488972D01*
X133508714Y-158488972D02*
X133603952Y-158536591D01*
X133603952Y-158536591D02*
X133746809Y-158536591D01*
X132984904Y-158536591D02*
X132984904Y-157869924D01*
X132984904Y-158060400D02*
X132937285Y-157965162D01*
X132937285Y-157965162D02*
X132889666Y-157917543D01*
X132889666Y-157917543D02*
X132794428Y-157869924D01*
X132794428Y-157869924D02*
X132699190Y-157869924D01*
X131937285Y-158536591D02*
X131937285Y-158012781D01*
X131937285Y-158012781D02*
X131984904Y-157917543D01*
X131984904Y-157917543D02*
X132080142Y-157869924D01*
X132080142Y-157869924D02*
X132270618Y-157869924D01*
X132270618Y-157869924D02*
X132365856Y-157917543D01*
X131937285Y-158488972D02*
X132032523Y-158536591D01*
X132032523Y-158536591D02*
X132270618Y-158536591D01*
X132270618Y-158536591D02*
X132365856Y-158488972D01*
X132365856Y-158488972D02*
X132413475Y-158393733D01*
X132413475Y-158393733D02*
X132413475Y-158298495D01*
X132413475Y-158298495D02*
X132365856Y-158203257D01*
X132365856Y-158203257D02*
X132270618Y-158155638D01*
X132270618Y-158155638D02*
X132032523Y-158155638D01*
X132032523Y-158155638D02*
X131937285Y-158108019D01*
X131603951Y-157869924D02*
X131222999Y-157869924D01*
X131461094Y-157536591D02*
X131461094Y-158393733D01*
X131461094Y-158393733D02*
X131413475Y-158488972D01*
X131413475Y-158488972D02*
X131318237Y-158536591D01*
X131318237Y-158536591D02*
X131222999Y-158536591D01*
X130889665Y-158536591D02*
X130889665Y-157869924D01*
X130889665Y-157536591D02*
X130937284Y-157584210D01*
X130937284Y-157584210D02*
X130889665Y-157631829D01*
X130889665Y-157631829D02*
X130842046Y-157584210D01*
X130842046Y-157584210D02*
X130889665Y-157536591D01*
X130889665Y-157536591D02*
X130889665Y-157631829D01*
X130270618Y-158536591D02*
X130365856Y-158488972D01*
X130365856Y-158488972D02*
X130413475Y-158441352D01*
X130413475Y-158441352D02*
X130461094Y-158346114D01*
X130461094Y-158346114D02*
X130461094Y-158060400D01*
X130461094Y-158060400D02*
X130413475Y-157965162D01*
X130413475Y-157965162D02*
X130365856Y-157917543D01*
X130365856Y-157917543D02*
X130270618Y-157869924D01*
X130270618Y-157869924D02*
X130127761Y-157869924D01*
X130127761Y-157869924D02*
X130032523Y-157917543D01*
X130032523Y-157917543D02*
X129984904Y-157965162D01*
X129984904Y-157965162D02*
X129937285Y-158060400D01*
X129937285Y-158060400D02*
X129937285Y-158346114D01*
X129937285Y-158346114D02*
X129984904Y-158441352D01*
X129984904Y-158441352D02*
X130032523Y-158488972D01*
X130032523Y-158488972D02*
X130127761Y-158536591D01*
X130127761Y-158536591D02*
X130270618Y-158536591D01*
X129508713Y-157869924D02*
X129508713Y-158536591D01*
X129508713Y-157965162D02*
X129461094Y-157917543D01*
X129461094Y-157917543D02*
X129365856Y-157869924D01*
X129365856Y-157869924D02*
X129222999Y-157869924D01*
X129222999Y-157869924D02*
X129127761Y-157917543D01*
X129127761Y-157917543D02*
X129080142Y-158012781D01*
X129080142Y-158012781D02*
X129080142Y-158536591D01*
X127937284Y-157869924D02*
X127699189Y-158536591D01*
X127699189Y-158536591D02*
X127461094Y-157869924D01*
X126556332Y-158536591D02*
X127127760Y-158536591D01*
X126842046Y-158536591D02*
X126842046Y-157536591D01*
X126842046Y-157536591D02*
X126937284Y-157679448D01*
X126937284Y-157679448D02*
X127032522Y-157774686D01*
X127032522Y-157774686D02*
X127127760Y-157822305D01*
X135651571Y-159670344D02*
X135699190Y-159622725D01*
X135699190Y-159622725D02*
X135794428Y-159575106D01*
X135794428Y-159575106D02*
X135889666Y-159575106D01*
X135889666Y-159575106D02*
X135984904Y-159622725D01*
X135984904Y-159622725D02*
X136032523Y-159670344D01*
X136032523Y-159670344D02*
X136080142Y-159765582D01*
X136080142Y-159765582D02*
X136080142Y-159860820D01*
X136080142Y-159860820D02*
X136032523Y-159956058D01*
X136032523Y-159956058D02*
X135984904Y-160003677D01*
X135984904Y-160003677D02*
X135889666Y-160051296D01*
X135889666Y-160051296D02*
X135794428Y-160051296D01*
X135794428Y-160051296D02*
X135699190Y-160003677D01*
X135699190Y-160003677D02*
X135651571Y-159956058D01*
X135651571Y-159575106D02*
X135651571Y-159956058D01*
X135651571Y-159956058D02*
X135603952Y-160003677D01*
X135603952Y-160003677D02*
X135556333Y-160003677D01*
X135556333Y-160003677D02*
X135461094Y-159956058D01*
X135461094Y-159956058D02*
X135413475Y-159860820D01*
X135413475Y-159860820D02*
X135413475Y-159622725D01*
X135413475Y-159622725D02*
X135508714Y-159479868D01*
X135508714Y-159479868D02*
X135651571Y-159384630D01*
X135651571Y-159384630D02*
X135842047Y-159337011D01*
X135842047Y-159337011D02*
X136032523Y-159384630D01*
X136032523Y-159384630D02*
X136175380Y-159479868D01*
X136175380Y-159479868D02*
X136270618Y-159622725D01*
X136270618Y-159622725D02*
X136318237Y-159813201D01*
X136318237Y-159813201D02*
X136270618Y-160003677D01*
X136270618Y-160003677D02*
X136175380Y-160146535D01*
X136175380Y-160146535D02*
X136032523Y-160241773D01*
X136032523Y-160241773D02*
X135842047Y-160289392D01*
X135842047Y-160289392D02*
X135651571Y-160241773D01*
X135651571Y-160241773D02*
X135508714Y-160146535D01*
X134984904Y-160146535D02*
X134984904Y-159479868D01*
X134984904Y-159146535D02*
X135032523Y-159194154D01*
X135032523Y-159194154D02*
X134984904Y-159241773D01*
X134984904Y-159241773D02*
X134937285Y-159194154D01*
X134937285Y-159194154D02*
X134984904Y-159146535D01*
X134984904Y-159146535D02*
X134984904Y-159241773D01*
X134556333Y-160098916D02*
X134461095Y-160146535D01*
X134461095Y-160146535D02*
X134270619Y-160146535D01*
X134270619Y-160146535D02*
X134175381Y-160098916D01*
X134175381Y-160098916D02*
X134127762Y-160003677D01*
X134127762Y-160003677D02*
X134127762Y-159956058D01*
X134127762Y-159956058D02*
X134175381Y-159860820D01*
X134175381Y-159860820D02*
X134270619Y-159813201D01*
X134270619Y-159813201D02*
X134413476Y-159813201D01*
X134413476Y-159813201D02*
X134508714Y-159765582D01*
X134508714Y-159765582D02*
X134556333Y-159670344D01*
X134556333Y-159670344D02*
X134556333Y-159622725D01*
X134556333Y-159622725D02*
X134508714Y-159527487D01*
X134508714Y-159527487D02*
X134413476Y-159479868D01*
X134413476Y-159479868D02*
X134270619Y-159479868D01*
X134270619Y-159479868D02*
X134175381Y-159527487D01*
X133699190Y-160146535D02*
X133699190Y-159479868D01*
X133699190Y-159146535D02*
X133746809Y-159194154D01*
X133746809Y-159194154D02*
X133699190Y-159241773D01*
X133699190Y-159241773D02*
X133651571Y-159194154D01*
X133651571Y-159194154D02*
X133699190Y-159146535D01*
X133699190Y-159146535D02*
X133699190Y-159241773D01*
X133080143Y-160146535D02*
X133175381Y-160098916D01*
X133175381Y-160098916D02*
X133223000Y-160051296D01*
X133223000Y-160051296D02*
X133270619Y-159956058D01*
X133270619Y-159956058D02*
X133270619Y-159670344D01*
X133270619Y-159670344D02*
X133223000Y-159575106D01*
X133223000Y-159575106D02*
X133175381Y-159527487D01*
X133175381Y-159527487D02*
X133080143Y-159479868D01*
X133080143Y-159479868D02*
X132937286Y-159479868D01*
X132937286Y-159479868D02*
X132842048Y-159527487D01*
X132842048Y-159527487D02*
X132794429Y-159575106D01*
X132794429Y-159575106D02*
X132746810Y-159670344D01*
X132746810Y-159670344D02*
X132746810Y-159956058D01*
X132746810Y-159956058D02*
X132794429Y-160051296D01*
X132794429Y-160051296D02*
X132842048Y-160098916D01*
X132842048Y-160098916D02*
X132937286Y-160146535D01*
X132937286Y-160146535D02*
X133080143Y-160146535D01*
X132413476Y-159479868D02*
X132175381Y-160146535D01*
X132175381Y-160146535D02*
X131937286Y-159479868D01*
X131556333Y-160146535D02*
X131556333Y-159479868D01*
X131556333Y-159146535D02*
X131603952Y-159194154D01*
X131603952Y-159194154D02*
X131556333Y-159241773D01*
X131556333Y-159241773D02*
X131508714Y-159194154D01*
X131508714Y-159194154D02*
X131556333Y-159146535D01*
X131556333Y-159146535D02*
X131556333Y-159241773D01*
X130699191Y-160098916D02*
X130794429Y-160146535D01*
X130794429Y-160146535D02*
X130984905Y-160146535D01*
X130984905Y-160146535D02*
X131080143Y-160098916D01*
X131080143Y-160098916D02*
X131127762Y-160003677D01*
X131127762Y-160003677D02*
X131127762Y-159622725D01*
X131127762Y-159622725D02*
X131080143Y-159527487D01*
X131080143Y-159527487D02*
X130984905Y-159479868D01*
X130984905Y-159479868D02*
X130794429Y-159479868D01*
X130794429Y-159479868D02*
X130699191Y-159527487D01*
X130699191Y-159527487D02*
X130651572Y-159622725D01*
X130651572Y-159622725D02*
X130651572Y-159717963D01*
X130651572Y-159717963D02*
X131127762Y-159813201D01*
X130080143Y-160146535D02*
X130175381Y-160098916D01*
X130175381Y-160098916D02*
X130223000Y-160003677D01*
X130223000Y-160003677D02*
X130223000Y-159146535D01*
X119641286Y-162262409D02*
X119498429Y-162310028D01*
X119498429Y-162310028D02*
X119450810Y-162357647D01*
X119450810Y-162357647D02*
X119403191Y-162452885D01*
X119403191Y-162452885D02*
X119403191Y-162595742D01*
X119403191Y-162595742D02*
X119450810Y-162690980D01*
X119450810Y-162690980D02*
X119498429Y-162738600D01*
X119498429Y-162738600D02*
X119593667Y-162786219D01*
X119593667Y-162786219D02*
X119974619Y-162786219D01*
X119974619Y-162786219D02*
X119974619Y-161786219D01*
X119974619Y-161786219D02*
X119641286Y-161786219D01*
X119641286Y-161786219D02*
X119546048Y-161833838D01*
X119546048Y-161833838D02*
X119498429Y-161881457D01*
X119498429Y-161881457D02*
X119450810Y-161976695D01*
X119450810Y-161976695D02*
X119450810Y-162071933D01*
X119450810Y-162071933D02*
X119498429Y-162167171D01*
X119498429Y-162167171D02*
X119546048Y-162214790D01*
X119546048Y-162214790D02*
X119641286Y-162262409D01*
X119641286Y-162262409D02*
X119974619Y-162262409D01*
X118546048Y-162786219D02*
X118546048Y-162262409D01*
X118546048Y-162262409D02*
X118593667Y-162167171D01*
X118593667Y-162167171D02*
X118688905Y-162119552D01*
X118688905Y-162119552D02*
X118879381Y-162119552D01*
X118879381Y-162119552D02*
X118974619Y-162167171D01*
X118546048Y-162738600D02*
X118641286Y-162786219D01*
X118641286Y-162786219D02*
X118879381Y-162786219D01*
X118879381Y-162786219D02*
X118974619Y-162738600D01*
X118974619Y-162738600D02*
X119022238Y-162643361D01*
X119022238Y-162643361D02*
X119022238Y-162548123D01*
X119022238Y-162548123D02*
X118974619Y-162452885D01*
X118974619Y-162452885D02*
X118879381Y-162405266D01*
X118879381Y-162405266D02*
X118641286Y-162405266D01*
X118641286Y-162405266D02*
X118546048Y-162357647D01*
X118212714Y-162119552D02*
X117831762Y-162119552D01*
X118069857Y-161786219D02*
X118069857Y-162643361D01*
X118069857Y-162643361D02*
X118022238Y-162738600D01*
X118022238Y-162738600D02*
X117927000Y-162786219D01*
X117927000Y-162786219D02*
X117831762Y-162786219D01*
X117641285Y-162119552D02*
X117260333Y-162119552D01*
X117498428Y-161786219D02*
X117498428Y-162643361D01*
X117498428Y-162643361D02*
X117450809Y-162738600D01*
X117450809Y-162738600D02*
X117355571Y-162786219D01*
X117355571Y-162786219D02*
X117260333Y-162786219D01*
X116546047Y-162738600D02*
X116641285Y-162786219D01*
X116641285Y-162786219D02*
X116831761Y-162786219D01*
X116831761Y-162786219D02*
X116926999Y-162738600D01*
X116926999Y-162738600D02*
X116974618Y-162643361D01*
X116974618Y-162643361D02*
X116974618Y-162262409D01*
X116974618Y-162262409D02*
X116926999Y-162167171D01*
X116926999Y-162167171D02*
X116831761Y-162119552D01*
X116831761Y-162119552D02*
X116641285Y-162119552D01*
X116641285Y-162119552D02*
X116546047Y-162167171D01*
X116546047Y-162167171D02*
X116498428Y-162262409D01*
X116498428Y-162262409D02*
X116498428Y-162357647D01*
X116498428Y-162357647D02*
X116974618Y-162452885D01*
X116069856Y-162786219D02*
X116069856Y-162119552D01*
X116069856Y-162310028D02*
X116022237Y-162214790D01*
X116022237Y-162214790D02*
X115974618Y-162167171D01*
X115974618Y-162167171D02*
X115879380Y-162119552D01*
X115879380Y-162119552D02*
X115784142Y-162119552D01*
X115546046Y-162119552D02*
X115307951Y-162786219D01*
X115069856Y-162119552D02*
X115307951Y-162786219D01*
X115307951Y-162786219D02*
X115403189Y-163024314D01*
X115403189Y-163024314D02*
X115450808Y-163071933D01*
X115450808Y-163071933D02*
X115546046Y-163119552D01*
X114688903Y-162690980D02*
X114641284Y-162738600D01*
X114641284Y-162738600D02*
X114688903Y-162786219D01*
X114688903Y-162786219D02*
X114736522Y-162738600D01*
X114736522Y-162738600D02*
X114688903Y-162690980D01*
X114688903Y-162690980D02*
X114688903Y-162786219D01*
X114688903Y-162167171D02*
X114641284Y-162214790D01*
X114641284Y-162214790D02*
X114688903Y-162262409D01*
X114688903Y-162262409D02*
X114736522Y-162214790D01*
X114736522Y-162214790D02*
X114688903Y-162167171D01*
X114688903Y-162167171D02*
X114688903Y-162262409D01*
X113641285Y-162690980D02*
X113688904Y-162738600D01*
X113688904Y-162738600D02*
X113831761Y-162786219D01*
X113831761Y-162786219D02*
X113926999Y-162786219D01*
X113926999Y-162786219D02*
X114069856Y-162738600D01*
X114069856Y-162738600D02*
X114165094Y-162643361D01*
X114165094Y-162643361D02*
X114212713Y-162548123D01*
X114212713Y-162548123D02*
X114260332Y-162357647D01*
X114260332Y-162357647D02*
X114260332Y-162214790D01*
X114260332Y-162214790D02*
X114212713Y-162024314D01*
X114212713Y-162024314D02*
X114165094Y-161929076D01*
X114165094Y-161929076D02*
X114069856Y-161833838D01*
X114069856Y-161833838D02*
X113926999Y-161786219D01*
X113926999Y-161786219D02*
X113831761Y-161786219D01*
X113831761Y-161786219D02*
X113688904Y-161833838D01*
X113688904Y-161833838D02*
X113641285Y-161881457D01*
X112641285Y-162786219D02*
X112974618Y-162310028D01*
X113212713Y-162786219D02*
X113212713Y-161786219D01*
X113212713Y-161786219D02*
X112831761Y-161786219D01*
X112831761Y-161786219D02*
X112736523Y-161833838D01*
X112736523Y-161833838D02*
X112688904Y-161881457D01*
X112688904Y-161881457D02*
X112641285Y-161976695D01*
X112641285Y-161976695D02*
X112641285Y-162119552D01*
X112641285Y-162119552D02*
X112688904Y-162214790D01*
X112688904Y-162214790D02*
X112736523Y-162262409D01*
X112736523Y-162262409D02*
X112831761Y-162310028D01*
X112831761Y-162310028D02*
X113212713Y-162310028D01*
X112260332Y-161881457D02*
X112212713Y-161833838D01*
X112212713Y-161833838D02*
X112117475Y-161786219D01*
X112117475Y-161786219D02*
X111879380Y-161786219D01*
X111879380Y-161786219D02*
X111784142Y-161833838D01*
X111784142Y-161833838D02*
X111736523Y-161881457D01*
X111736523Y-161881457D02*
X111688904Y-161976695D01*
X111688904Y-161976695D02*
X111688904Y-162071933D01*
X111688904Y-162071933D02*
X111736523Y-162214790D01*
X111736523Y-162214790D02*
X112307951Y-162786219D01*
X112307951Y-162786219D02*
X111688904Y-162786219D01*
X111069856Y-161786219D02*
X110974618Y-161786219D01*
X110974618Y-161786219D02*
X110879380Y-161833838D01*
X110879380Y-161833838D02*
X110831761Y-161881457D01*
X110831761Y-161881457D02*
X110784142Y-161976695D01*
X110784142Y-161976695D02*
X110736523Y-162167171D01*
X110736523Y-162167171D02*
X110736523Y-162405266D01*
X110736523Y-162405266D02*
X110784142Y-162595742D01*
X110784142Y-162595742D02*
X110831761Y-162690980D01*
X110831761Y-162690980D02*
X110879380Y-162738600D01*
X110879380Y-162738600D02*
X110974618Y-162786219D01*
X110974618Y-162786219D02*
X111069856Y-162786219D01*
X111069856Y-162786219D02*
X111165094Y-162738600D01*
X111165094Y-162738600D02*
X111212713Y-162690980D01*
X111212713Y-162690980D02*
X111260332Y-162595742D01*
X111260332Y-162595742D02*
X111307951Y-162405266D01*
X111307951Y-162405266D02*
X111307951Y-162167171D01*
X111307951Y-162167171D02*
X111260332Y-161976695D01*
X111260332Y-161976695D02*
X111212713Y-161881457D01*
X111212713Y-161881457D02*
X111165094Y-161833838D01*
X111165094Y-161833838D02*
X111069856Y-161786219D01*
X110403189Y-161786219D02*
X109784142Y-161786219D01*
X109784142Y-161786219D02*
X110117475Y-162167171D01*
X110117475Y-162167171D02*
X109974618Y-162167171D01*
X109974618Y-162167171D02*
X109879380Y-162214790D01*
X109879380Y-162214790D02*
X109831761Y-162262409D01*
X109831761Y-162262409D02*
X109784142Y-162357647D01*
X109784142Y-162357647D02*
X109784142Y-162595742D01*
X109784142Y-162595742D02*
X109831761Y-162690980D01*
X109831761Y-162690980D02*
X109879380Y-162738600D01*
X109879380Y-162738600D02*
X109974618Y-162786219D01*
X109974618Y-162786219D02*
X110260332Y-162786219D01*
X110260332Y-162786219D02*
X110355570Y-162738600D01*
X110355570Y-162738600D02*
X110403189Y-162690980D01*
X109403189Y-161881457D02*
X109355570Y-161833838D01*
X109355570Y-161833838D02*
X109260332Y-161786219D01*
X109260332Y-161786219D02*
X109022237Y-161786219D01*
X109022237Y-161786219D02*
X108926999Y-161833838D01*
X108926999Y-161833838D02*
X108879380Y-161881457D01*
X108879380Y-161881457D02*
X108831761Y-161976695D01*
X108831761Y-161976695D02*
X108831761Y-162071933D01*
X108831761Y-162071933D02*
X108879380Y-162214790D01*
X108879380Y-162214790D02*
X109450808Y-162786219D01*
X109450808Y-162786219D02*
X108831761Y-162786219D01*
X97113456Y-154636000D02*
X97018218Y-154683619D01*
X97018218Y-154683619D02*
X96827742Y-154683619D01*
X96827742Y-154683619D02*
X96732504Y-154636000D01*
X96732504Y-154636000D02*
X96684885Y-154540761D01*
X96684885Y-154540761D02*
X96684885Y-154493142D01*
X96684885Y-154493142D02*
X96732504Y-154397904D01*
X96732504Y-154397904D02*
X96827742Y-154350285D01*
X96827742Y-154350285D02*
X96970599Y-154350285D01*
X96970599Y-154350285D02*
X97065837Y-154302666D01*
X97065837Y-154302666D02*
X97113456Y-154207428D01*
X97113456Y-154207428D02*
X97113456Y-154159809D01*
X97113456Y-154159809D02*
X97065837Y-154064571D01*
X97065837Y-154064571D02*
X96970599Y-154016952D01*
X96970599Y-154016952D02*
X96827742Y-154016952D01*
X96827742Y-154016952D02*
X96732504Y-154064571D01*
X96351551Y-154016952D02*
X96161075Y-154683619D01*
X96161075Y-154683619D02*
X95970599Y-154207428D01*
X95970599Y-154207428D02*
X95780123Y-154683619D01*
X95780123Y-154683619D02*
X95589647Y-154016952D01*
X95208694Y-154683619D02*
X95208694Y-154016952D01*
X95208694Y-153683619D02*
X95256313Y-153731238D01*
X95256313Y-153731238D02*
X95208694Y-153778857D01*
X95208694Y-153778857D02*
X95161075Y-153731238D01*
X95161075Y-153731238D02*
X95208694Y-153683619D01*
X95208694Y-153683619D02*
X95208694Y-153778857D01*
X94875361Y-154016952D02*
X94494409Y-154016952D01*
X94732504Y-153683619D02*
X94732504Y-154540761D01*
X94732504Y-154540761D02*
X94684885Y-154636000D01*
X94684885Y-154636000D02*
X94589647Y-154683619D01*
X94589647Y-154683619D02*
X94494409Y-154683619D01*
X93732504Y-154636000D02*
X93827742Y-154683619D01*
X93827742Y-154683619D02*
X94018218Y-154683619D01*
X94018218Y-154683619D02*
X94113456Y-154636000D01*
X94113456Y-154636000D02*
X94161075Y-154588380D01*
X94161075Y-154588380D02*
X94208694Y-154493142D01*
X94208694Y-154493142D02*
X94208694Y-154207428D01*
X94208694Y-154207428D02*
X94161075Y-154112190D01*
X94161075Y-154112190D02*
X94113456Y-154064571D01*
X94113456Y-154064571D02*
X94018218Y-154016952D01*
X94018218Y-154016952D02*
X93827742Y-154016952D01*
X93827742Y-154016952D02*
X93732504Y-154064571D01*
X93303932Y-154683619D02*
X93303932Y-153683619D01*
X92875361Y-154683619D02*
X92875361Y-154159809D01*
X92875361Y-154159809D02*
X92922980Y-154064571D01*
X92922980Y-154064571D02*
X93018218Y-154016952D01*
X93018218Y-154016952D02*
X93161075Y-154016952D01*
X93161075Y-154016952D02*
X93256313Y-154064571D01*
X93256313Y-154064571D02*
X93303932Y-154112190D01*
%TO.C,Battery:CR2032*%
X98816400Y-160386400D02*
X91216400Y-160386400D01*
D11*
%TO.C,switch*%
X90771400Y-154943400D02*
X99271400Y-154943400D01*
X90771400Y-158543400D02*
X90771400Y-154943400D01*
X90771400Y-158543400D02*
X99271400Y-158543400D01*
X99271400Y-158543400D02*
X99271400Y-154943400D01*
D12*
%TO.C,G\u002A\u002A\u002A*%
X80873600Y-158258934D02*
X80619600Y-158258934D01*
X80619600Y-156480934D01*
X80873600Y-156480934D01*
X80873600Y-158258934D01*
G36*
X80873600Y-158258934D02*
G01*
X80619600Y-158258934D01*
X80619600Y-156480934D01*
X80873600Y-156480934D01*
X80873600Y-158258934D01*
G37*
X70036267Y-158258934D02*
X69739934Y-158258934D01*
X69739934Y-157496934D01*
X69147267Y-157496934D01*
X69147267Y-157242934D01*
X69739934Y-157242934D01*
X69739934Y-156692600D01*
X69380100Y-156692600D01*
X69207230Y-156691656D01*
X69100290Y-156685531D01*
X69044658Y-156669294D01*
X69023571Y-156638016D01*
X69020267Y-156586767D01*
X69020267Y-156480934D01*
X70036267Y-156480934D01*
X70036267Y-158258934D01*
G36*
X70036267Y-158258934D02*
G01*
X69739934Y-158258934D01*
X69739934Y-157496934D01*
X69147267Y-157496934D01*
X69147267Y-157242934D01*
X69739934Y-157242934D01*
X69739934Y-156692600D01*
X69380100Y-156692600D01*
X69207230Y-156691656D01*
X69100290Y-156685531D01*
X69044658Y-156669294D01*
X69023571Y-156638016D01*
X69020267Y-156586767D01*
X69020267Y-156480934D01*
X70036267Y-156480934D01*
X70036267Y-158258934D01*
G37*
X75031600Y-158258934D02*
X73930934Y-158258934D01*
X73930934Y-158004934D01*
X74735267Y-158004934D01*
X74735267Y-157496934D01*
X74100267Y-157496934D01*
X74100267Y-157242934D01*
X74735267Y-157242934D01*
X74735267Y-156692600D01*
X74354267Y-156692600D01*
X74320655Y-156692595D01*
X74152148Y-156691312D01*
X74049449Y-156684613D01*
X73996264Y-156667973D01*
X73976301Y-156636866D01*
X73973267Y-156586767D01*
X73973267Y-156480934D01*
X75031600Y-156480934D01*
X75031600Y-158258934D01*
G36*
X75031600Y-158258934D02*
G01*
X73930934Y-158258934D01*
X73930934Y-158004934D01*
X74735267Y-158004934D01*
X74735267Y-157496934D01*
X74100267Y-157496934D01*
X74100267Y-157242934D01*
X74735267Y-157242934D01*
X74735267Y-156692600D01*
X74354267Y-156692600D01*
X74320655Y-156692595D01*
X74152148Y-156691312D01*
X74049449Y-156684613D01*
X73996264Y-156667973D01*
X73976301Y-156636866D01*
X73973267Y-156586767D01*
X73973267Y-156480934D01*
X75031600Y-156480934D01*
X75031600Y-158258934D01*
G37*
X80153934Y-158258934D02*
X79053267Y-158258934D01*
X79053267Y-158004934D01*
X79857600Y-158004934D01*
X79857600Y-157496934D01*
X79222600Y-157496934D01*
X79222600Y-157242934D01*
X79857600Y-157242934D01*
X79857600Y-156692600D01*
X79476600Y-156692600D01*
X79442989Y-156692595D01*
X79274482Y-156691312D01*
X79171782Y-156684613D01*
X79118597Y-156667973D01*
X79098634Y-156636866D01*
X79095600Y-156586767D01*
X79095600Y-156480934D01*
X80153934Y-156480934D01*
X80153934Y-158258934D01*
G36*
X80153934Y-158258934D02*
G01*
X79053267Y-158258934D01*
X79053267Y-158004934D01*
X79857600Y-158004934D01*
X79857600Y-157496934D01*
X79222600Y-157496934D01*
X79222600Y-157242934D01*
X79857600Y-157242934D01*
X79857600Y-156692600D01*
X79476600Y-156692600D01*
X79442989Y-156692595D01*
X79274482Y-156691312D01*
X79171782Y-156684613D01*
X79118597Y-156667973D01*
X79098634Y-156636866D01*
X79095600Y-156586767D01*
X79095600Y-156480934D01*
X80153934Y-156480934D01*
X80153934Y-158258934D01*
G37*
X78714600Y-158258934D02*
X78460600Y-158258934D01*
X78460600Y-156931325D01*
X78009887Y-157595129D01*
X77976142Y-157644806D01*
X77826476Y-157863684D01*
X77713959Y-158023306D01*
X77630265Y-158132997D01*
X77567069Y-158202080D01*
X77516047Y-158239882D01*
X77468872Y-158255725D01*
X77417221Y-158258934D01*
X77275267Y-158258934D01*
X77275267Y-156480934D01*
X77582934Y-156480934D01*
X77563141Y-157132181D01*
X77543347Y-157783428D01*
X77974331Y-157142764D01*
X77985888Y-157125586D01*
X78136608Y-156902799D01*
X78249876Y-156740200D01*
X78334422Y-156628046D01*
X78398973Y-156556590D01*
X78452261Y-156516087D01*
X78503012Y-156496793D01*
X78559958Y-156488961D01*
X78714600Y-156475823D01*
X78714600Y-158258934D01*
G36*
X78714600Y-158258934D02*
G01*
X78460600Y-158258934D01*
X78460600Y-156931325D01*
X78009887Y-157595129D01*
X77976142Y-157644806D01*
X77826476Y-157863684D01*
X77713959Y-158023306D01*
X77630265Y-158132997D01*
X77567069Y-158202080D01*
X77516047Y-158239882D01*
X77468872Y-158255725D01*
X77417221Y-158258934D01*
X77275267Y-158258934D01*
X77275267Y-156480934D01*
X77582934Y-156480934D01*
X77563141Y-157132181D01*
X77543347Y-157783428D01*
X77974331Y-157142764D01*
X77985888Y-157125586D01*
X78136608Y-156902799D01*
X78249876Y-156740200D01*
X78334422Y-156628046D01*
X78398973Y-156556590D01*
X78452261Y-156516087D01*
X78503012Y-156496793D01*
X78559958Y-156488961D01*
X78714600Y-156475823D01*
X78714600Y-158258934D01*
G37*
X65083267Y-158258934D02*
X64691684Y-158258697D01*
X64590166Y-158257781D01*
X64334575Y-158243566D01*
X64138684Y-158208898D01*
X63984758Y-158149597D01*
X63855059Y-158061482D01*
X63697200Y-157885295D01*
X63593528Y-157651390D01*
X63559267Y-157370260D01*
X63560950Y-157348767D01*
X63855917Y-157348767D01*
X63887492Y-157571100D01*
X63990466Y-157769735D01*
X64162130Y-157920496D01*
X64162404Y-157920662D01*
X64325686Y-157984427D01*
X64543517Y-158004775D01*
X64786934Y-158004934D01*
X64786934Y-156680539D01*
X64531872Y-156707198D01*
X64360924Y-156734257D01*
X64135239Y-156814544D01*
X63977952Y-156941724D01*
X63885899Y-157118797D01*
X63855917Y-157348767D01*
X63560950Y-157348767D01*
X63578271Y-157127553D01*
X63653887Y-156888223D01*
X63790452Y-156701608D01*
X63991497Y-156561095D01*
X64011937Y-156551091D01*
X64106895Y-156516506D01*
X64225741Y-156495015D01*
X64388680Y-156484021D01*
X64615914Y-156480934D01*
X65083267Y-156480934D01*
X65083267Y-158004934D01*
X65083267Y-158258934D01*
G36*
X65083267Y-158258934D02*
G01*
X64691684Y-158258697D01*
X64590166Y-158257781D01*
X64334575Y-158243566D01*
X64138684Y-158208898D01*
X63984758Y-158149597D01*
X63855059Y-158061482D01*
X63697200Y-157885295D01*
X63593528Y-157651390D01*
X63559267Y-157370260D01*
X63560950Y-157348767D01*
X63855917Y-157348767D01*
X63887492Y-157571100D01*
X63990466Y-157769735D01*
X64162130Y-157920496D01*
X64162404Y-157920662D01*
X64325686Y-157984427D01*
X64543517Y-158004775D01*
X64786934Y-158004934D01*
X64786934Y-156680539D01*
X64531872Y-156707198D01*
X64360924Y-156734257D01*
X64135239Y-156814544D01*
X63977952Y-156941724D01*
X63885899Y-157118797D01*
X63855917Y-157348767D01*
X63560950Y-157348767D01*
X63578271Y-157127553D01*
X63653887Y-156888223D01*
X63790452Y-156701608D01*
X63991497Y-156561095D01*
X64011937Y-156551091D01*
X64106895Y-156516506D01*
X64225741Y-156495015D01*
X64388680Y-156484021D01*
X64615914Y-156480934D01*
X65083267Y-156480934D01*
X65083267Y-158004934D01*
X65083267Y-158258934D01*
G37*
X64169644Y-153408720D02*
X64099256Y-153598030D01*
X63957376Y-153769484D01*
X63938176Y-153786079D01*
X63836740Y-153857645D01*
X63730708Y-153890625D01*
X63580434Y-153898600D01*
X63550696Y-153898432D01*
X63410528Y-153887240D01*
X63308009Y-153848784D01*
X63203492Y-153769484D01*
X63154373Y-153721936D01*
X63037311Y-153546138D01*
X62988030Y-153355478D01*
X62992748Y-153287335D01*
X63172510Y-153287335D01*
X63201180Y-153453485D01*
X63302011Y-153605523D01*
X63360618Y-153655999D01*
X63519651Y-153725908D01*
X63687000Y-153713886D01*
X63852352Y-153619670D01*
X63927670Y-153546017D01*
X63971868Y-153454728D01*
X63982600Y-153321413D01*
X63964910Y-153189639D01*
X63886799Y-153036746D01*
X63760913Y-152934214D01*
X63603237Y-152893477D01*
X63429759Y-152925972D01*
X63316330Y-152994224D01*
X63212171Y-153127455D01*
X63172510Y-153287335D01*
X62992748Y-153287335D01*
X63001204Y-153165219D01*
X63071509Y-152990621D01*
X63193618Y-152846948D01*
X63362208Y-152749462D01*
X63571953Y-152713425D01*
X63639791Y-152716564D01*
X63845182Y-152771339D01*
X64006308Y-152882864D01*
X64117724Y-153036216D01*
X64173985Y-153216475D01*
X64171615Y-153321413D01*
X64169644Y-153408720D01*
G36*
X64169644Y-153408720D02*
G01*
X64099256Y-153598030D01*
X63957376Y-153769484D01*
X63938176Y-153786079D01*
X63836740Y-153857645D01*
X63730708Y-153890625D01*
X63580434Y-153898600D01*
X63550696Y-153898432D01*
X63410528Y-153887240D01*
X63308009Y-153848784D01*
X63203492Y-153769484D01*
X63154373Y-153721936D01*
X63037311Y-153546138D01*
X62988030Y-153355478D01*
X62992748Y-153287335D01*
X63172510Y-153287335D01*
X63201180Y-153453485D01*
X63302011Y-153605523D01*
X63360618Y-153655999D01*
X63519651Y-153725908D01*
X63687000Y-153713886D01*
X63852352Y-153619670D01*
X63927670Y-153546017D01*
X63971868Y-153454728D01*
X63982600Y-153321413D01*
X63964910Y-153189639D01*
X63886799Y-153036746D01*
X63760913Y-152934214D01*
X63603237Y-152893477D01*
X63429759Y-152925972D01*
X63316330Y-152994224D01*
X63212171Y-153127455D01*
X63172510Y-153287335D01*
X62992748Y-153287335D01*
X63001204Y-153165219D01*
X63071509Y-152990621D01*
X63193618Y-152846948D01*
X63362208Y-152749462D01*
X63571953Y-152713425D01*
X63639791Y-152716564D01*
X63845182Y-152771339D01*
X64006308Y-152882864D01*
X64117724Y-153036216D01*
X64173985Y-153216475D01*
X64171615Y-153321413D01*
X64169644Y-153408720D01*
G37*
X66691934Y-158258934D02*
X66395600Y-158258934D01*
X66395600Y-157581600D01*
X66215684Y-157582194D01*
X66035767Y-157582789D01*
X65853971Y-157920861D01*
X65770105Y-158073808D01*
X65705716Y-158176461D01*
X65652892Y-158231906D01*
X65597621Y-158254583D01*
X65525887Y-158258934D01*
X65508110Y-158258658D01*
X65416797Y-158246458D01*
X65379600Y-158221752D01*
X65384573Y-158204302D01*
X65421206Y-158123334D01*
X65485689Y-157996577D01*
X65568734Y-157842642D01*
X65757868Y-157500714D01*
X65635347Y-157378193D01*
X65604678Y-157345162D01*
X65499867Y-157165618D01*
X65485733Y-157074236D01*
X65771934Y-157074236D01*
X65845267Y-157200600D01*
X65898121Y-157241456D01*
X66002448Y-157275511D01*
X66162767Y-157285267D01*
X66395600Y-157285267D01*
X66395600Y-156680755D01*
X66152184Y-156705830D01*
X66044832Y-156720516D01*
X65915085Y-156759322D01*
X65834684Y-156822276D01*
X65775384Y-156932742D01*
X65771934Y-157074236D01*
X65485733Y-157074236D01*
X65469523Y-156969428D01*
X65513715Y-156775442D01*
X65632512Y-156602509D01*
X65669674Y-156566335D01*
X65722779Y-156525363D01*
X65786038Y-156500172D01*
X65878077Y-156486927D01*
X66017525Y-156481793D01*
X66223011Y-156480934D01*
X66691934Y-156480934D01*
X66691934Y-157285267D01*
X66691934Y-158258934D01*
G36*
X66691934Y-158258934D02*
G01*
X66395600Y-158258934D01*
X66395600Y-157581600D01*
X66215684Y-157582194D01*
X66035767Y-157582789D01*
X65853971Y-157920861D01*
X65770105Y-158073808D01*
X65705716Y-158176461D01*
X65652892Y-158231906D01*
X65597621Y-158254583D01*
X65525887Y-158258934D01*
X65508110Y-158258658D01*
X65416797Y-158246458D01*
X65379600Y-158221752D01*
X65384573Y-158204302D01*
X65421206Y-158123334D01*
X65485689Y-157996577D01*
X65568734Y-157842642D01*
X65757868Y-157500714D01*
X65635347Y-157378193D01*
X65604678Y-157345162D01*
X65499867Y-157165618D01*
X65485733Y-157074236D01*
X65771934Y-157074236D01*
X65845267Y-157200600D01*
X65898121Y-157241456D01*
X66002448Y-157275511D01*
X66162767Y-157285267D01*
X66395600Y-157285267D01*
X66395600Y-156680755D01*
X66152184Y-156705830D01*
X66044832Y-156720516D01*
X65915085Y-156759322D01*
X65834684Y-156822276D01*
X65775384Y-156932742D01*
X65771934Y-157074236D01*
X65485733Y-157074236D01*
X65469523Y-156969428D01*
X65513715Y-156775442D01*
X65632512Y-156602509D01*
X65669674Y-156566335D01*
X65722779Y-156525363D01*
X65786038Y-156500172D01*
X65878077Y-156486927D01*
X66017525Y-156481793D01*
X66223011Y-156480934D01*
X66691934Y-156480934D01*
X66691934Y-157285267D01*
X66691934Y-158258934D01*
G37*
X82106778Y-156456209D02*
X82308045Y-156520773D01*
X82349593Y-156543268D01*
X82564028Y-156712064D01*
X82716423Y-156930579D01*
X82799654Y-157185348D01*
X82806596Y-157462908D01*
X82796006Y-157535435D01*
X82712377Y-157804765D01*
X82567058Y-158017524D01*
X82362527Y-158170900D01*
X82101267Y-158262083D01*
X81893515Y-158278857D01*
X81635222Y-158244620D01*
X81403238Y-158158362D01*
X81354276Y-158130339D01*
X81251741Y-158045932D01*
X81226573Y-157960351D01*
X81274003Y-157862684D01*
X81289911Y-157842391D01*
X81330265Y-157809189D01*
X81380827Y-157821140D01*
X81470467Y-157880924D01*
X81600848Y-157950321D01*
X81810262Y-157998477D01*
X82023532Y-157988486D01*
X82209546Y-157918755D01*
X82257269Y-157884759D01*
X82391829Y-157734465D01*
X82486888Y-157545426D01*
X82523671Y-157351549D01*
X82512589Y-157246448D01*
X82443684Y-157057838D01*
X82327683Y-156890505D01*
X82183159Y-156775851D01*
X81984344Y-156705776D01*
X81780013Y-156707075D01*
X81558103Y-156784043D01*
X81469404Y-156825884D01*
X81394467Y-156851536D01*
X81350573Y-156841490D01*
X81311904Y-156797118D01*
X81278338Y-156744928D01*
X81261828Y-156666251D01*
X81312308Y-156599023D01*
X81437299Y-156527043D01*
X81628727Y-156463708D01*
X81868842Y-156437270D01*
X82106778Y-156456209D01*
G36*
X82106778Y-156456209D02*
G01*
X82308045Y-156520773D01*
X82349593Y-156543268D01*
X82564028Y-156712064D01*
X82716423Y-156930579D01*
X82799654Y-157185348D01*
X82806596Y-157462908D01*
X82796006Y-157535435D01*
X82712377Y-157804765D01*
X82567058Y-158017524D01*
X82362527Y-158170900D01*
X82101267Y-158262083D01*
X81893515Y-158278857D01*
X81635222Y-158244620D01*
X81403238Y-158158362D01*
X81354276Y-158130339D01*
X81251741Y-158045932D01*
X81226573Y-157960351D01*
X81274003Y-157862684D01*
X81289911Y-157842391D01*
X81330265Y-157809189D01*
X81380827Y-157821140D01*
X81470467Y-157880924D01*
X81600848Y-157950321D01*
X81810262Y-157998477D01*
X82023532Y-157988486D01*
X82209546Y-157918755D01*
X82257269Y-157884759D01*
X82391829Y-157734465D01*
X82486888Y-157545426D01*
X82523671Y-157351549D01*
X82512589Y-157246448D01*
X82443684Y-157057838D01*
X82327683Y-156890505D01*
X82183159Y-156775851D01*
X81984344Y-156705776D01*
X81780013Y-156707075D01*
X81558103Y-156784043D01*
X81469404Y-156825884D01*
X81394467Y-156851536D01*
X81350573Y-156841490D01*
X81311904Y-156797118D01*
X81278338Y-156744928D01*
X81261828Y-156666251D01*
X81312308Y-156599023D01*
X81437299Y-156527043D01*
X81628727Y-156463708D01*
X81868842Y-156437270D01*
X82106778Y-156456209D01*
G37*
X60404317Y-157309753D02*
X60383553Y-157551755D01*
X60299579Y-157792401D01*
X60147570Y-157986491D01*
X59923696Y-158140645D01*
X59845087Y-158178038D01*
X59583269Y-158252523D01*
X59330928Y-158255243D01*
X59096369Y-158195150D01*
X58887894Y-158081194D01*
X58713807Y-157922325D01*
X58582411Y-157727493D01*
X58502011Y-157505649D01*
X58482547Y-157284362D01*
X58800605Y-157284362D01*
X58819451Y-157476740D01*
X58902601Y-157660241D01*
X59056331Y-157821548D01*
X59239863Y-157922107D01*
X59449957Y-157959144D01*
X59655348Y-157925145D01*
X59841129Y-157825444D01*
X59992394Y-157665372D01*
X60094235Y-157450262D01*
X60097307Y-157439530D01*
X60110112Y-157244785D01*
X60054163Y-157050362D01*
X59942065Y-156876200D01*
X59786427Y-156742235D01*
X59599854Y-156668407D01*
X59451209Y-156655479D01*
X59242702Y-156692460D01*
X59067111Y-156787157D01*
X58930713Y-156926252D01*
X58839785Y-157096427D01*
X58800605Y-157284362D01*
X58482547Y-157284362D01*
X58480909Y-157265743D01*
X58527410Y-157016725D01*
X58649816Y-156767545D01*
X58730025Y-156663473D01*
X58931331Y-156494626D01*
X59167375Y-156389530D01*
X59422477Y-156349580D01*
X59680957Y-156376170D01*
X59927137Y-156470695D01*
X60145336Y-156634548D01*
X60237974Y-156736315D01*
X60337089Y-156894691D01*
X60388851Y-157076228D01*
X60400015Y-157244785D01*
X60404317Y-157309753D01*
G36*
X60404317Y-157309753D02*
G01*
X60383553Y-157551755D01*
X60299579Y-157792401D01*
X60147570Y-157986491D01*
X59923696Y-158140645D01*
X59845087Y-158178038D01*
X59583269Y-158252523D01*
X59330928Y-158255243D01*
X59096369Y-158195150D01*
X58887894Y-158081194D01*
X58713807Y-157922325D01*
X58582411Y-157727493D01*
X58502011Y-157505649D01*
X58482547Y-157284362D01*
X58800605Y-157284362D01*
X58819451Y-157476740D01*
X58902601Y-157660241D01*
X59056331Y-157821548D01*
X59239863Y-157922107D01*
X59449957Y-157959144D01*
X59655348Y-157925145D01*
X59841129Y-157825444D01*
X59992394Y-157665372D01*
X60094235Y-157450262D01*
X60097307Y-157439530D01*
X60110112Y-157244785D01*
X60054163Y-157050362D01*
X59942065Y-156876200D01*
X59786427Y-156742235D01*
X59599854Y-156668407D01*
X59451209Y-156655479D01*
X59242702Y-156692460D01*
X59067111Y-156787157D01*
X58930713Y-156926252D01*
X58839785Y-157096427D01*
X58800605Y-157284362D01*
X58482547Y-157284362D01*
X58480909Y-157265743D01*
X58527410Y-157016725D01*
X58649816Y-156767545D01*
X58730025Y-156663473D01*
X58931331Y-156494626D01*
X59167375Y-156389530D01*
X59422477Y-156349580D01*
X59680957Y-156376170D01*
X59927137Y-156470695D01*
X60145336Y-156634548D01*
X60237974Y-156736315D01*
X60337089Y-156894691D01*
X60388851Y-157076228D01*
X60400015Y-157244785D01*
X60404317Y-157309753D01*
G37*
X76238738Y-156455872D02*
X76474859Y-156537100D01*
X76564372Y-156590466D01*
X76754337Y-156766045D01*
X76875876Y-156991425D01*
X76929115Y-157266811D01*
X76929735Y-157277057D01*
X76913981Y-157577806D01*
X76829067Y-157829987D01*
X76674495Y-158034562D01*
X76449767Y-158192496D01*
X76406101Y-158210923D01*
X76238032Y-158246239D01*
X76008986Y-158258673D01*
X75903035Y-158257339D01*
X75749796Y-158244228D01*
X75630305Y-158211260D01*
X75511570Y-158151316D01*
X75426988Y-158097345D01*
X75346313Y-158018828D01*
X75339504Y-157945787D01*
X75402017Y-157866406D01*
X75424341Y-157847412D01*
X75474424Y-157825100D01*
X75538800Y-157841922D01*
X75645434Y-157901961D01*
X75740693Y-157950861D01*
X75956923Y-158003960D01*
X76165376Y-157985251D01*
X76351987Y-157902556D01*
X76502694Y-157763696D01*
X76603431Y-157576492D01*
X76640136Y-157348767D01*
X76640062Y-157337753D01*
X76600912Y-157107702D01*
X76498476Y-156922246D01*
X76345245Y-156789006D01*
X76153712Y-156715601D01*
X75936370Y-156709651D01*
X75705709Y-156778777D01*
X75587045Y-156832473D01*
X75516520Y-156853151D01*
X75473937Y-156840262D01*
X75434735Y-156795305D01*
X75395329Y-156731942D01*
X75393303Y-156668325D01*
X75452652Y-156607640D01*
X75582436Y-156533850D01*
X75719108Y-156479378D01*
X75976311Y-156436593D01*
X76238738Y-156455872D01*
G36*
X76238738Y-156455872D02*
G01*
X76474859Y-156537100D01*
X76564372Y-156590466D01*
X76754337Y-156766045D01*
X76875876Y-156991425D01*
X76929115Y-157266811D01*
X76929735Y-157277057D01*
X76913981Y-157577806D01*
X76829067Y-157829987D01*
X76674495Y-158034562D01*
X76449767Y-158192496D01*
X76406101Y-158210923D01*
X76238032Y-158246239D01*
X76008986Y-158258673D01*
X75903035Y-158257339D01*
X75749796Y-158244228D01*
X75630305Y-158211260D01*
X75511570Y-158151316D01*
X75426988Y-158097345D01*
X75346313Y-158018828D01*
X75339504Y-157945787D01*
X75402017Y-157866406D01*
X75424341Y-157847412D01*
X75474424Y-157825100D01*
X75538800Y-157841922D01*
X75645434Y-157901961D01*
X75740693Y-157950861D01*
X75956923Y-158003960D01*
X76165376Y-157985251D01*
X76351987Y-157902556D01*
X76502694Y-157763696D01*
X76603431Y-157576492D01*
X76640136Y-157348767D01*
X76640062Y-157337753D01*
X76600912Y-157107702D01*
X76498476Y-156922246D01*
X76345245Y-156789006D01*
X76153712Y-156715601D01*
X75936370Y-156709651D01*
X75705709Y-156778777D01*
X75587045Y-156832473D01*
X75516520Y-156853151D01*
X75473937Y-156840262D01*
X75434735Y-156795305D01*
X75395329Y-156731942D01*
X75393303Y-156668325D01*
X75452652Y-156607640D01*
X75582436Y-156533850D01*
X75719108Y-156479378D01*
X75976311Y-156436593D01*
X76238738Y-156455872D01*
G37*
X71469685Y-156907246D02*
X71212149Y-157333559D01*
X71435613Y-157700996D01*
X71496261Y-157800516D01*
X71593767Y-157959696D01*
X71673410Y-158088713D01*
X71722183Y-158166444D01*
X71747211Y-158206541D01*
X71758259Y-158246000D01*
X71715474Y-158257217D01*
X71603559Y-158251111D01*
X71581064Y-158249408D01*
X71501325Y-158238779D01*
X71441119Y-158212263D01*
X71385163Y-158155396D01*
X71318171Y-158053717D01*
X71224860Y-157892760D01*
X71027891Y-157547754D01*
X70825629Y-157903344D01*
X70790824Y-157964436D01*
X70706961Y-158107006D01*
X70645754Y-158194035D01*
X70592929Y-158239227D01*
X70534211Y-158256291D01*
X70455328Y-158258934D01*
X70438521Y-158259009D01*
X70373007Y-158258810D01*
X70332663Y-158249843D01*
X70320540Y-158221460D01*
X70339692Y-158163016D01*
X70393168Y-158063864D01*
X70484023Y-157913356D01*
X70615307Y-157700847D01*
X70842227Y-157333260D01*
X70603798Y-156938847D01*
X70523900Y-156806649D01*
X70437372Y-156663405D01*
X70374950Y-156559978D01*
X70346486Y-156512684D01*
X70347037Y-156504944D01*
X70396672Y-156487781D01*
X70497994Y-156480934D01*
X70579983Y-156483786D01*
X70641816Y-156502101D01*
X70696642Y-156550405D01*
X70760761Y-156643229D01*
X70850473Y-156795100D01*
X71032562Y-157109266D01*
X71200806Y-156795100D01*
X71369049Y-156480934D01*
X71727222Y-156480934D01*
X71469685Y-156907246D01*
G36*
X71469685Y-156907246D02*
G01*
X71212149Y-157333559D01*
X71435613Y-157700996D01*
X71496261Y-157800516D01*
X71593767Y-157959696D01*
X71673410Y-158088713D01*
X71722183Y-158166444D01*
X71747211Y-158206541D01*
X71758259Y-158246000D01*
X71715474Y-158257217D01*
X71603559Y-158251111D01*
X71581064Y-158249408D01*
X71501325Y-158238779D01*
X71441119Y-158212263D01*
X71385163Y-158155396D01*
X71318171Y-158053717D01*
X71224860Y-157892760D01*
X71027891Y-157547754D01*
X70825629Y-157903344D01*
X70790824Y-157964436D01*
X70706961Y-158107006D01*
X70645754Y-158194035D01*
X70592929Y-158239227D01*
X70534211Y-158256291D01*
X70455328Y-158258934D01*
X70438521Y-158259009D01*
X70373007Y-158258810D01*
X70332663Y-158249843D01*
X70320540Y-158221460D01*
X70339692Y-158163016D01*
X70393168Y-158063864D01*
X70484023Y-157913356D01*
X70615307Y-157700847D01*
X70842227Y-157333260D01*
X70603798Y-156938847D01*
X70523900Y-156806649D01*
X70437372Y-156663405D01*
X70374950Y-156559978D01*
X70346486Y-156512684D01*
X70347037Y-156504944D01*
X70396672Y-156487781D01*
X70497994Y-156480934D01*
X70579983Y-156483786D01*
X70641816Y-156502101D01*
X70696642Y-156550405D01*
X70760761Y-156643229D01*
X70850473Y-156795100D01*
X71032562Y-157109266D01*
X71200806Y-156795100D01*
X71369049Y-156480934D01*
X71727222Y-156480934D01*
X71469685Y-156907246D01*
G37*
X68842217Y-157439238D02*
X68789962Y-157672329D01*
X68684780Y-157884785D01*
X68530908Y-158062604D01*
X68332585Y-158191783D01*
X68094049Y-158258320D01*
X68054725Y-158262374D01*
X67832593Y-158265009D01*
X67626110Y-158237080D01*
X67468252Y-158182578D01*
X67355768Y-158100209D01*
X67214265Y-157941360D01*
X67097593Y-157751476D01*
X67026879Y-157560341D01*
X67012576Y-157483005D01*
X67010855Y-157245363D01*
X67305611Y-157245363D01*
X67306536Y-157457701D01*
X67384582Y-157664384D01*
X67539126Y-157852205D01*
X67560107Y-157870948D01*
X67671794Y-157956275D01*
X67775171Y-157995492D01*
X67909895Y-158004934D01*
X68064916Y-157987325D01*
X68255624Y-157906722D01*
X68402483Y-157774179D01*
X68500464Y-157604467D01*
X68544542Y-157412357D01*
X68529691Y-157212622D01*
X68450883Y-157020033D01*
X68303094Y-156849361D01*
X68278268Y-156829264D01*
X68081792Y-156721756D01*
X67880879Y-156697521D01*
X67682619Y-156756140D01*
X67494099Y-156897195D01*
X67382430Y-157040574D01*
X67305611Y-157245363D01*
X67010855Y-157245363D01*
X67010607Y-157211124D01*
X67080872Y-156963723D01*
X67214677Y-156751833D01*
X67403326Y-156586483D01*
X67638124Y-156478706D01*
X67910377Y-156439530D01*
X68084069Y-156452218D01*
X68348166Y-156532583D01*
X68570522Y-156684263D01*
X68639027Y-156756171D01*
X68770987Y-156967156D01*
X68837305Y-157199512D01*
X68841667Y-157412357D01*
X68842217Y-157439238D01*
G36*
X68842217Y-157439238D02*
G01*
X68789962Y-157672329D01*
X68684780Y-157884785D01*
X68530908Y-158062604D01*
X68332585Y-158191783D01*
X68094049Y-158258320D01*
X68054725Y-158262374D01*
X67832593Y-158265009D01*
X67626110Y-158237080D01*
X67468252Y-158182578D01*
X67355768Y-158100209D01*
X67214265Y-157941360D01*
X67097593Y-157751476D01*
X67026879Y-157560341D01*
X67012576Y-157483005D01*
X67010855Y-157245363D01*
X67305611Y-157245363D01*
X67306536Y-157457701D01*
X67384582Y-157664384D01*
X67539126Y-157852205D01*
X67560107Y-157870948D01*
X67671794Y-157956275D01*
X67775171Y-157995492D01*
X67909895Y-158004934D01*
X68064916Y-157987325D01*
X68255624Y-157906722D01*
X68402483Y-157774179D01*
X68500464Y-157604467D01*
X68544542Y-157412357D01*
X68529691Y-157212622D01*
X68450883Y-157020033D01*
X68303094Y-156849361D01*
X68278268Y-156829264D01*
X68081792Y-156721756D01*
X67880879Y-156697521D01*
X67682619Y-156756140D01*
X67494099Y-156897195D01*
X67382430Y-157040574D01*
X67305611Y-157245363D01*
X67010855Y-157245363D01*
X67010607Y-157211124D01*
X67080872Y-156963723D01*
X67214677Y-156751833D01*
X67403326Y-156586483D01*
X67638124Y-156478706D01*
X67910377Y-156439530D01*
X68084069Y-156452218D01*
X68348166Y-156532583D01*
X68570522Y-156684263D01*
X68639027Y-156756171D01*
X68770987Y-156967156D01*
X68837305Y-157199512D01*
X68841667Y-157412357D01*
X68842217Y-157439238D01*
G37*
X73704146Y-157469521D02*
X73676879Y-157611567D01*
X73573601Y-157854447D01*
X73412120Y-158050878D01*
X73203205Y-158189474D01*
X72957626Y-158258848D01*
X72907764Y-158263741D01*
X72692610Y-158264563D01*
X72492019Y-158236719D01*
X72339783Y-158184289D01*
X72336103Y-158182262D01*
X72209472Y-158083969D01*
X72078300Y-157939670D01*
X71967501Y-157780480D01*
X71901987Y-157637513D01*
X71869479Y-157476754D01*
X71870035Y-157399650D01*
X72164923Y-157399650D01*
X72217632Y-157601747D01*
X72323507Y-157785188D01*
X72467851Y-157918670D01*
X72523139Y-157948086D01*
X72721017Y-157999653D01*
X72929154Y-157989265D01*
X73113474Y-157917007D01*
X73204916Y-157841008D01*
X73325489Y-157671275D01*
X73398816Y-157472048D01*
X73410052Y-157275441D01*
X73405386Y-157245660D01*
X73334132Y-157042990D01*
X73209603Y-156879814D01*
X73047420Y-156764423D01*
X72863206Y-156705105D01*
X72672582Y-156710151D01*
X72491170Y-156787850D01*
X72367133Y-156886474D01*
X72230467Y-157064610D01*
X72165816Y-157275441D01*
X72164923Y-157399650D01*
X71870035Y-157399650D01*
X71871454Y-157203088D01*
X71944049Y-156956049D01*
X72079628Y-156745951D01*
X72270559Y-156583111D01*
X72509205Y-156477842D01*
X72787934Y-156440460D01*
X73034808Y-156469756D01*
X73279993Y-156568724D01*
X73478321Y-156728069D01*
X73620990Y-156937908D01*
X73699199Y-157188353D01*
X73700732Y-157275441D01*
X73704146Y-157469521D01*
G36*
X73704146Y-157469521D02*
G01*
X73676879Y-157611567D01*
X73573601Y-157854447D01*
X73412120Y-158050878D01*
X73203205Y-158189474D01*
X72957626Y-158258848D01*
X72907764Y-158263741D01*
X72692610Y-158264563D01*
X72492019Y-158236719D01*
X72339783Y-158184289D01*
X72336103Y-158182262D01*
X72209472Y-158083969D01*
X72078300Y-157939670D01*
X71967501Y-157780480D01*
X71901987Y-157637513D01*
X71869479Y-157476754D01*
X71870035Y-157399650D01*
X72164923Y-157399650D01*
X72217632Y-157601747D01*
X72323507Y-157785188D01*
X72467851Y-157918670D01*
X72523139Y-157948086D01*
X72721017Y-157999653D01*
X72929154Y-157989265D01*
X73113474Y-157917007D01*
X73204916Y-157841008D01*
X73325489Y-157671275D01*
X73398816Y-157472048D01*
X73410052Y-157275441D01*
X73405386Y-157245660D01*
X73334132Y-157042990D01*
X73209603Y-156879814D01*
X73047420Y-156764423D01*
X72863206Y-156705105D01*
X72672582Y-156710151D01*
X72491170Y-156787850D01*
X72367133Y-156886474D01*
X72230467Y-157064610D01*
X72165816Y-157275441D01*
X72164923Y-157399650D01*
X71870035Y-157399650D01*
X71871454Y-157203088D01*
X71944049Y-156956049D01*
X72079628Y-156745951D01*
X72270559Y-156583111D01*
X72509205Y-156477842D01*
X72787934Y-156440460D01*
X73034808Y-156469756D01*
X73279993Y-156568724D01*
X73478321Y-156728069D01*
X73620990Y-156937908D01*
X73699199Y-157188353D01*
X73700732Y-157275441D01*
X73704146Y-157469521D01*
G37*
X65794955Y-162772478D02*
X65792522Y-162807501D01*
X65771229Y-162966668D01*
X65728395Y-163083910D01*
X65651800Y-163195319D01*
X65621365Y-163230541D01*
X65499836Y-163345192D01*
X65379200Y-163429727D01*
X65249259Y-163477299D01*
X65044830Y-163505664D01*
X64831465Y-163497293D01*
X64647329Y-163451073D01*
X64540441Y-163389955D01*
X64393288Y-163256394D01*
X64275710Y-163095094D01*
X64212364Y-162935294D01*
X64196606Y-162714623D01*
X64448267Y-162714623D01*
X64449412Y-162781568D01*
X64465846Y-162892630D01*
X64514796Y-162982962D01*
X64612620Y-163089914D01*
X64672479Y-163147883D01*
X64765006Y-163217818D01*
X64860993Y-163247863D01*
X64998600Y-163254267D01*
X65078173Y-163252865D01*
X65189232Y-163236112D01*
X65278648Y-163187211D01*
X65384581Y-163089914D01*
X65414293Y-163059712D01*
X65500079Y-162956799D01*
X65539412Y-162862138D01*
X65548776Y-162740664D01*
X65546356Y-162682571D01*
X65494404Y-162478811D01*
X65386253Y-162320320D01*
X65237165Y-162212367D01*
X65062402Y-162160221D01*
X64877224Y-162169148D01*
X64696894Y-162244417D01*
X64536672Y-162391297D01*
X64528703Y-162401775D01*
X64467113Y-162533553D01*
X64448267Y-162714623D01*
X64196606Y-162714623D01*
X64193402Y-162669761D01*
X64240914Y-162417437D01*
X64351246Y-162204909D01*
X64517386Y-162041526D01*
X64732323Y-161936640D01*
X64989043Y-161899600D01*
X65080470Y-161903400D01*
X65335303Y-161961671D01*
X65540691Y-162084779D01*
X65690110Y-162265659D01*
X65777039Y-162497247D01*
X65792885Y-162740664D01*
X65794955Y-162772478D01*
G36*
X65794955Y-162772478D02*
G01*
X65792522Y-162807501D01*
X65771229Y-162966668D01*
X65728395Y-163083910D01*
X65651800Y-163195319D01*
X65621365Y-163230541D01*
X65499836Y-163345192D01*
X65379200Y-163429727D01*
X65249259Y-163477299D01*
X65044830Y-163505664D01*
X64831465Y-163497293D01*
X64647329Y-163451073D01*
X64540441Y-163389955D01*
X64393288Y-163256394D01*
X64275710Y-163095094D01*
X64212364Y-162935294D01*
X64196606Y-162714623D01*
X64448267Y-162714623D01*
X64449412Y-162781568D01*
X64465846Y-162892630D01*
X64514796Y-162982962D01*
X64612620Y-163089914D01*
X64672479Y-163147883D01*
X64765006Y-163217818D01*
X64860993Y-163247863D01*
X64998600Y-163254267D01*
X65078173Y-163252865D01*
X65189232Y-163236112D01*
X65278648Y-163187211D01*
X65384581Y-163089914D01*
X65414293Y-163059712D01*
X65500079Y-162956799D01*
X65539412Y-162862138D01*
X65548776Y-162740664D01*
X65546356Y-162682571D01*
X65494404Y-162478811D01*
X65386253Y-162320320D01*
X65237165Y-162212367D01*
X65062402Y-162160221D01*
X64877224Y-162169148D01*
X64696894Y-162244417D01*
X64536672Y-162391297D01*
X64528703Y-162401775D01*
X64467113Y-162533553D01*
X64448267Y-162714623D01*
X64196606Y-162714623D01*
X64193402Y-162669761D01*
X64240914Y-162417437D01*
X64351246Y-162204909D01*
X64517386Y-162041526D01*
X64732323Y-161936640D01*
X64989043Y-161899600D01*
X65080470Y-161903400D01*
X65335303Y-161961671D01*
X65540691Y-162084779D01*
X65690110Y-162265659D01*
X65777039Y-162497247D01*
X65792885Y-162740664D01*
X65794955Y-162772478D01*
G37*
X66085424Y-162835728D02*
X66070374Y-162928419D01*
X65972121Y-163205245D01*
X65804290Y-163444323D01*
X65575708Y-163635241D01*
X65295208Y-163767585D01*
X65228935Y-163780607D01*
X65091178Y-163790141D01*
X64933855Y-163787958D01*
X64687531Y-163749014D01*
X64416622Y-163633765D01*
X64189765Y-163446980D01*
X64011076Y-163191322D01*
X63963723Y-163068824D01*
X63925178Y-162857837D01*
X63921003Y-162725852D01*
X64067806Y-162725852D01*
X64076120Y-162912152D01*
X64106765Y-163056308D01*
X64157870Y-163154039D01*
X64277866Y-163307575D01*
X64428162Y-163450304D01*
X64581707Y-163553885D01*
X64692167Y-163602087D01*
X64949445Y-163656663D01*
X65199657Y-163637851D01*
X65430953Y-163553120D01*
X65631480Y-163409936D01*
X65789387Y-163215768D01*
X65892822Y-162978083D01*
X65929934Y-162704349D01*
X65922601Y-162575132D01*
X65853666Y-162307864D01*
X65718732Y-162085860D01*
X65525906Y-161917238D01*
X65283298Y-161810112D01*
X64999016Y-161772600D01*
X64761640Y-161798174D01*
X64508974Y-161897102D01*
X64299169Y-162068494D01*
X64135600Y-162310248D01*
X64112646Y-162369703D01*
X64080442Y-162533129D01*
X64067806Y-162725852D01*
X63921003Y-162725852D01*
X63917889Y-162627384D01*
X63942277Y-162410012D01*
X63998764Y-162238267D01*
X64029954Y-162182253D01*
X64219087Y-161936057D01*
X64452283Y-161756769D01*
X64719399Y-161648812D01*
X65010293Y-161616606D01*
X65314823Y-161664574D01*
X65409450Y-161697422D01*
X65653614Y-161838249D01*
X65853158Y-162037485D01*
X65998218Y-162280139D01*
X66078928Y-162551217D01*
X66082425Y-162704349D01*
X66085424Y-162835728D01*
G36*
X66085424Y-162835728D02*
G01*
X66070374Y-162928419D01*
X65972121Y-163205245D01*
X65804290Y-163444323D01*
X65575708Y-163635241D01*
X65295208Y-163767585D01*
X65228935Y-163780607D01*
X65091178Y-163790141D01*
X64933855Y-163787958D01*
X64687531Y-163749014D01*
X64416622Y-163633765D01*
X64189765Y-163446980D01*
X64011076Y-163191322D01*
X63963723Y-163068824D01*
X63925178Y-162857837D01*
X63921003Y-162725852D01*
X64067806Y-162725852D01*
X64076120Y-162912152D01*
X64106765Y-163056308D01*
X64157870Y-163154039D01*
X64277866Y-163307575D01*
X64428162Y-163450304D01*
X64581707Y-163553885D01*
X64692167Y-163602087D01*
X64949445Y-163656663D01*
X65199657Y-163637851D01*
X65430953Y-163553120D01*
X65631480Y-163409936D01*
X65789387Y-163215768D01*
X65892822Y-162978083D01*
X65929934Y-162704349D01*
X65922601Y-162575132D01*
X65853666Y-162307864D01*
X65718732Y-162085860D01*
X65525906Y-161917238D01*
X65283298Y-161810112D01*
X64999016Y-161772600D01*
X64761640Y-161798174D01*
X64508974Y-161897102D01*
X64299169Y-162068494D01*
X64135600Y-162310248D01*
X64112646Y-162369703D01*
X64080442Y-162533129D01*
X64067806Y-162725852D01*
X63921003Y-162725852D01*
X63917889Y-162627384D01*
X63942277Y-162410012D01*
X63998764Y-162238267D01*
X64029954Y-162182253D01*
X64219087Y-161936057D01*
X64452283Y-161756769D01*
X64719399Y-161648812D01*
X65010293Y-161616606D01*
X65314823Y-161664574D01*
X65409450Y-161697422D01*
X65653614Y-161838249D01*
X65853158Y-162037485D01*
X65998218Y-162280139D01*
X66078928Y-162551217D01*
X66082425Y-162704349D01*
X66085424Y-162835728D01*
G37*
X83615963Y-156439966D02*
X83836721Y-156483113D01*
X83998996Y-156584391D01*
X84099081Y-156740490D01*
X84133267Y-156948099D01*
X84127402Y-157030445D01*
X84067616Y-157192522D01*
X83937780Y-157324969D01*
X83731100Y-157436030D01*
X83620312Y-157485533D01*
X83453207Y-157583931D01*
X83358695Y-157684642D01*
X83328934Y-157794660D01*
X83348453Y-157885927D01*
X83428045Y-157968755D01*
X83555400Y-158003830D01*
X83715839Y-157987955D01*
X83894685Y-157917930D01*
X83949413Y-157889046D01*
X84027951Y-157855900D01*
X84073771Y-157862450D01*
X84114962Y-157907346D01*
X84149307Y-157962304D01*
X84174254Y-158035708D01*
X84153743Y-158084035D01*
X84070899Y-158154188D01*
X83945801Y-158218084D01*
X83801540Y-158261719D01*
X83602019Y-158277131D01*
X83320210Y-158232344D01*
X83247018Y-158196736D01*
X83139489Y-158086825D01*
X83062221Y-157936874D01*
X83032600Y-157774561D01*
X83042502Y-157663896D01*
X83108215Y-157503794D01*
X83242351Y-157370748D01*
X83452872Y-157254913D01*
X83569775Y-157198866D01*
X83733312Y-157099369D01*
X83840678Y-157003500D01*
X83879267Y-156921127D01*
X83847370Y-156856297D01*
X83765561Y-156780408D01*
X83664031Y-156718316D01*
X83573039Y-156692600D01*
X83560252Y-156693269D01*
X83459453Y-156716885D01*
X83339844Y-156763805D01*
X83298956Y-156782974D01*
X83217816Y-156812121D01*
X83166679Y-156798479D01*
X83111423Y-156738228D01*
X83064226Y-156658737D01*
X83059162Y-156599204D01*
X83120520Y-156546957D01*
X83245891Y-156492810D01*
X83402704Y-156453666D01*
X83562510Y-156438600D01*
X83615963Y-156439966D01*
G36*
X83615963Y-156439966D02*
G01*
X83836721Y-156483113D01*
X83998996Y-156584391D01*
X84099081Y-156740490D01*
X84133267Y-156948099D01*
X84127402Y-157030445D01*
X84067616Y-157192522D01*
X83937780Y-157324969D01*
X83731100Y-157436030D01*
X83620312Y-157485533D01*
X83453207Y-157583931D01*
X83358695Y-157684642D01*
X83328934Y-157794660D01*
X83348453Y-157885927D01*
X83428045Y-157968755D01*
X83555400Y-158003830D01*
X83715839Y-157987955D01*
X83894685Y-157917930D01*
X83949413Y-157889046D01*
X84027951Y-157855900D01*
X84073771Y-157862450D01*
X84114962Y-157907346D01*
X84149307Y-157962304D01*
X84174254Y-158035708D01*
X84153743Y-158084035D01*
X84070899Y-158154188D01*
X83945801Y-158218084D01*
X83801540Y-158261719D01*
X83602019Y-158277131D01*
X83320210Y-158232344D01*
X83247018Y-158196736D01*
X83139489Y-158086825D01*
X83062221Y-157936874D01*
X83032600Y-157774561D01*
X83042502Y-157663896D01*
X83108215Y-157503794D01*
X83242351Y-157370748D01*
X83452872Y-157254913D01*
X83569775Y-157198866D01*
X83733312Y-157099369D01*
X83840678Y-157003500D01*
X83879267Y-156921127D01*
X83847370Y-156856297D01*
X83765561Y-156780408D01*
X83664031Y-156718316D01*
X83573039Y-156692600D01*
X83560252Y-156693269D01*
X83459453Y-156716885D01*
X83339844Y-156763805D01*
X83298956Y-156782974D01*
X83217816Y-156812121D01*
X83166679Y-156798479D01*
X83111423Y-156738228D01*
X83064226Y-156658737D01*
X83059162Y-156599204D01*
X83120520Y-156546957D01*
X83245891Y-156492810D01*
X83402704Y-156453666D01*
X83562510Y-156438600D01*
X83615963Y-156439966D01*
G37*
X66495519Y-162887589D02*
X66479500Y-163038756D01*
X66443858Y-163170786D01*
X66382132Y-163317767D01*
X66262176Y-163533749D01*
X66032881Y-163806738D01*
X65745151Y-164018862D01*
X65400767Y-164168576D01*
X65114317Y-164221887D01*
X64794188Y-164207983D01*
X64476572Y-164126154D01*
X64180271Y-163981368D01*
X63924085Y-163778587D01*
X63873520Y-163725397D01*
X63676203Y-163449224D01*
X63548399Y-163142786D01*
X63489966Y-162819382D01*
X63498678Y-162555449D01*
X63838538Y-162555449D01*
X63840764Y-162837428D01*
X63913687Y-163110965D01*
X64048921Y-163362233D01*
X64238077Y-163577403D01*
X64472766Y-163742648D01*
X64744600Y-163844140D01*
X64799197Y-163855937D01*
X64985306Y-163881675D01*
X65151314Y-163871205D01*
X65343183Y-163822898D01*
X65369347Y-163814154D01*
X65565705Y-163712514D01*
X65762813Y-163557776D01*
X65935191Y-163372850D01*
X66057363Y-163180649D01*
X66123951Y-162990821D01*
X66154575Y-162705489D01*
X66113997Y-162416852D01*
X66005538Y-162143744D01*
X65832515Y-161904999D01*
X65817231Y-161889252D01*
X65592344Y-161718329D01*
X65327293Y-161606766D01*
X65042418Y-161558216D01*
X64758059Y-161576331D01*
X64494555Y-161664763D01*
X64376623Y-161734602D01*
X64157385Y-161922891D01*
X63981777Y-162153635D01*
X63870217Y-162402700D01*
X63838538Y-162555449D01*
X63498678Y-162555449D01*
X63500762Y-162492315D01*
X63580644Y-162174885D01*
X63729472Y-161880392D01*
X63947102Y-161622137D01*
X64135296Y-161470005D01*
X64437843Y-161305983D01*
X64756287Y-161215794D01*
X65079662Y-161197271D01*
X65396999Y-161248249D01*
X65697330Y-161366562D01*
X65969686Y-161550044D01*
X66203099Y-161796530D01*
X66386602Y-162103852D01*
X66429945Y-162205642D01*
X66471587Y-162344060D01*
X66492325Y-162498840D01*
X66498489Y-162703934D01*
X66498463Y-162705489D01*
X66495519Y-162887589D01*
G36*
X66495519Y-162887589D02*
G01*
X66479500Y-163038756D01*
X66443858Y-163170786D01*
X66382132Y-163317767D01*
X66262176Y-163533749D01*
X66032881Y-163806738D01*
X65745151Y-164018862D01*
X65400767Y-164168576D01*
X65114317Y-164221887D01*
X64794188Y-164207983D01*
X64476572Y-164126154D01*
X64180271Y-163981368D01*
X63924085Y-163778587D01*
X63873520Y-163725397D01*
X63676203Y-163449224D01*
X63548399Y-163142786D01*
X63489966Y-162819382D01*
X63498678Y-162555449D01*
X63838538Y-162555449D01*
X63840764Y-162837428D01*
X63913687Y-163110965D01*
X64048921Y-163362233D01*
X64238077Y-163577403D01*
X64472766Y-163742648D01*
X64744600Y-163844140D01*
X64799197Y-163855937D01*
X64985306Y-163881675D01*
X65151314Y-163871205D01*
X65343183Y-163822898D01*
X65369347Y-163814154D01*
X65565705Y-163712514D01*
X65762813Y-163557776D01*
X65935191Y-163372850D01*
X66057363Y-163180649D01*
X66123951Y-162990821D01*
X66154575Y-162705489D01*
X66113997Y-162416852D01*
X66005538Y-162143744D01*
X65832515Y-161904999D01*
X65817231Y-161889252D01*
X65592344Y-161718329D01*
X65327293Y-161606766D01*
X65042418Y-161558216D01*
X64758059Y-161576331D01*
X64494555Y-161664763D01*
X64376623Y-161734602D01*
X64157385Y-161922891D01*
X63981777Y-162153635D01*
X63870217Y-162402700D01*
X63838538Y-162555449D01*
X63498678Y-162555449D01*
X63500762Y-162492315D01*
X63580644Y-162174885D01*
X63729472Y-161880392D01*
X63947102Y-161622137D01*
X64135296Y-161470005D01*
X64437843Y-161305983D01*
X64756287Y-161215794D01*
X65079662Y-161197271D01*
X65396999Y-161248249D01*
X65697330Y-161366562D01*
X65969686Y-161550044D01*
X66203099Y-161796530D01*
X66386602Y-162103852D01*
X66429945Y-162205642D01*
X66471587Y-162344060D01*
X66492325Y-162498840D01*
X66498489Y-162703934D01*
X66498463Y-162705489D01*
X66495519Y-162887589D01*
G37*
X65032518Y-153432168D02*
X64985097Y-153740655D01*
X64868544Y-154015970D01*
X64676982Y-154275239D01*
X64595868Y-154361888D01*
X64409500Y-154525998D01*
X64214033Y-154639880D01*
X63979156Y-154722979D01*
X63885608Y-154745612D01*
X63556276Y-154772602D01*
X63230243Y-154724403D01*
X62921222Y-154607419D01*
X62642930Y-154428053D01*
X62409080Y-154192711D01*
X62233388Y-153907796D01*
X62232449Y-153905753D01*
X62167344Y-153692602D01*
X62145066Y-153505855D01*
X62291798Y-153505855D01*
X62307512Y-153620897D01*
X62345906Y-153733814D01*
X62413018Y-153877249D01*
X62414749Y-153880755D01*
X62598492Y-154162813D01*
X62838607Y-154381808D01*
X63134039Y-154536775D01*
X63225189Y-154567166D01*
X63526816Y-154614881D01*
X63831786Y-154591410D01*
X64122597Y-154501500D01*
X64381749Y-154349898D01*
X64591739Y-154141352D01*
X64666823Y-154033843D01*
X64812177Y-153735021D01*
X64879867Y-153427004D01*
X64872366Y-153120787D01*
X64792149Y-152827362D01*
X64641688Y-152557721D01*
X64423459Y-152322857D01*
X64139935Y-152133763D01*
X64081485Y-152104882D01*
X63943138Y-152052175D01*
X63795661Y-152025889D01*
X63601600Y-152017969D01*
X63475512Y-152021386D01*
X63180787Y-152072853D01*
X62921352Y-152192150D01*
X62677357Y-152387209D01*
X62673736Y-152390728D01*
X62504026Y-152579228D01*
X62392723Y-152767828D01*
X62327934Y-152983681D01*
X62297768Y-153253940D01*
X62292730Y-153356040D01*
X62291798Y-153505855D01*
X62145066Y-153505855D01*
X62136462Y-153433733D01*
X62139483Y-153160075D01*
X62176088Y-152902554D01*
X62245956Y-152692100D01*
X62387237Y-152456568D01*
X62619854Y-152204995D01*
X62900957Y-152019903D01*
X63223499Y-151905652D01*
X63580434Y-151866600D01*
X63779264Y-151877892D01*
X64117524Y-151955548D01*
X64412840Y-152101544D01*
X64658542Y-152309555D01*
X64847962Y-152573257D01*
X64974429Y-152886324D01*
X65031274Y-153242434D01*
X65032485Y-153427004D01*
X65032518Y-153432168D01*
G36*
X65032518Y-153432168D02*
G01*
X64985097Y-153740655D01*
X64868544Y-154015970D01*
X64676982Y-154275239D01*
X64595868Y-154361888D01*
X64409500Y-154525998D01*
X64214033Y-154639880D01*
X63979156Y-154722979D01*
X63885608Y-154745612D01*
X63556276Y-154772602D01*
X63230243Y-154724403D01*
X62921222Y-154607419D01*
X62642930Y-154428053D01*
X62409080Y-154192711D01*
X62233388Y-153907796D01*
X62232449Y-153905753D01*
X62167344Y-153692602D01*
X62145066Y-153505855D01*
X62291798Y-153505855D01*
X62307512Y-153620897D01*
X62345906Y-153733814D01*
X62413018Y-153877249D01*
X62414749Y-153880755D01*
X62598492Y-154162813D01*
X62838607Y-154381808D01*
X63134039Y-154536775D01*
X63225189Y-154567166D01*
X63526816Y-154614881D01*
X63831786Y-154591410D01*
X64122597Y-154501500D01*
X64381749Y-154349898D01*
X64591739Y-154141352D01*
X64666823Y-154033843D01*
X64812177Y-153735021D01*
X64879867Y-153427004D01*
X64872366Y-153120787D01*
X64792149Y-152827362D01*
X64641688Y-152557721D01*
X64423459Y-152322857D01*
X64139935Y-152133763D01*
X64081485Y-152104882D01*
X63943138Y-152052175D01*
X63795661Y-152025889D01*
X63601600Y-152017969D01*
X63475512Y-152021386D01*
X63180787Y-152072853D01*
X62921352Y-152192150D01*
X62677357Y-152387209D01*
X62673736Y-152390728D01*
X62504026Y-152579228D01*
X62392723Y-152767828D01*
X62327934Y-152983681D01*
X62297768Y-153253940D01*
X62292730Y-153356040D01*
X62291798Y-153505855D01*
X62145066Y-153505855D01*
X62136462Y-153433733D01*
X62139483Y-153160075D01*
X62176088Y-152902554D01*
X62245956Y-152692100D01*
X62387237Y-152456568D01*
X62619854Y-152204995D01*
X62900957Y-152019903D01*
X63223499Y-151905652D01*
X63580434Y-151866600D01*
X63779264Y-151877892D01*
X64117524Y-151955548D01*
X64412840Y-152101544D01*
X64658542Y-152309555D01*
X64847962Y-152573257D01*
X64974429Y-152886324D01*
X65031274Y-153242434D01*
X65032485Y-153427004D01*
X65032518Y-153432168D01*
G37*
X60950030Y-157348767D02*
X60948563Y-157469170D01*
X60934295Y-157638826D01*
X60898799Y-157783605D01*
X60834693Y-157941434D01*
X60703713Y-158173870D01*
X60478960Y-158440475D01*
X60207694Y-158651463D01*
X59904877Y-158793130D01*
X59822757Y-158814991D01*
X59578110Y-158842872D01*
X59305497Y-158833892D01*
X59038229Y-158790431D01*
X58809615Y-158714868D01*
X58724148Y-158671591D01*
X58459955Y-158484594D01*
X58231901Y-158243345D01*
X58063138Y-157970919D01*
X58041863Y-157924465D01*
X57994236Y-157801595D01*
X57966636Y-157680289D01*
X57954089Y-157531855D01*
X57951621Y-157327600D01*
X57952238Y-157248948D01*
X57952529Y-157241131D01*
X58161414Y-157241131D01*
X58182607Y-157544180D01*
X58282080Y-157842431D01*
X58403582Y-158044906D01*
X58629515Y-158287374D01*
X58911276Y-158475459D01*
X58988306Y-158508509D01*
X59196096Y-158561597D01*
X59430006Y-158586463D01*
X59655718Y-158580657D01*
X59838917Y-158541727D01*
X60141221Y-158392348D01*
X60394728Y-158185293D01*
X60581497Y-157931427D01*
X60697312Y-157636543D01*
X60737956Y-157306434D01*
X60736697Y-157240228D01*
X60684040Y-156922916D01*
X60560022Y-156640216D01*
X60372730Y-156400585D01*
X60130250Y-156212477D01*
X59840670Y-156084349D01*
X59512076Y-156024656D01*
X59382114Y-156018495D01*
X59238141Y-156025452D01*
X59108218Y-156057474D01*
X58951266Y-156121666D01*
X58765616Y-156222218D01*
X58520602Y-156423828D01*
X58335103Y-156668892D01*
X58213810Y-156945347D01*
X58161414Y-157241131D01*
X57952529Y-157241131D01*
X57958977Y-157067699D01*
X57977153Y-156932658D01*
X58011971Y-156815337D01*
X58068636Y-156687250D01*
X58148584Y-156549192D01*
X58327056Y-156325241D01*
X58541729Y-156125498D01*
X58764475Y-155978609D01*
X58870298Y-155932454D01*
X59134757Y-155861281D01*
X59422007Y-155831159D01*
X59694596Y-155847370D01*
X59758687Y-155859054D01*
X60096723Y-155967106D01*
X60387067Y-156140939D01*
X60623646Y-156373287D01*
X60800382Y-156656885D01*
X60911202Y-156984467D01*
X60945519Y-157306434D01*
X60950030Y-157348767D01*
G36*
X60950030Y-157348767D02*
G01*
X60948563Y-157469170D01*
X60934295Y-157638826D01*
X60898799Y-157783605D01*
X60834693Y-157941434D01*
X60703713Y-158173870D01*
X60478960Y-158440475D01*
X60207694Y-158651463D01*
X59904877Y-158793130D01*
X59822757Y-158814991D01*
X59578110Y-158842872D01*
X59305497Y-158833892D01*
X59038229Y-158790431D01*
X58809615Y-158714868D01*
X58724148Y-158671591D01*
X58459955Y-158484594D01*
X58231901Y-158243345D01*
X58063138Y-157970919D01*
X58041863Y-157924465D01*
X57994236Y-157801595D01*
X57966636Y-157680289D01*
X57954089Y-157531855D01*
X57951621Y-157327600D01*
X57952238Y-157248948D01*
X57952529Y-157241131D01*
X58161414Y-157241131D01*
X58182607Y-157544180D01*
X58282080Y-157842431D01*
X58403582Y-158044906D01*
X58629515Y-158287374D01*
X58911276Y-158475459D01*
X58988306Y-158508509D01*
X59196096Y-158561597D01*
X59430006Y-158586463D01*
X59655718Y-158580657D01*
X59838917Y-158541727D01*
X60141221Y-158392348D01*
X60394728Y-158185293D01*
X60581497Y-157931427D01*
X60697312Y-157636543D01*
X60737956Y-157306434D01*
X60736697Y-157240228D01*
X60684040Y-156922916D01*
X60560022Y-156640216D01*
X60372730Y-156400585D01*
X60130250Y-156212477D01*
X59840670Y-156084349D01*
X59512076Y-156024656D01*
X59382114Y-156018495D01*
X59238141Y-156025452D01*
X59108218Y-156057474D01*
X58951266Y-156121666D01*
X58765616Y-156222218D01*
X58520602Y-156423828D01*
X58335103Y-156668892D01*
X58213810Y-156945347D01*
X58161414Y-157241131D01*
X57952529Y-157241131D01*
X57958977Y-157067699D01*
X57977153Y-156932658D01*
X58011971Y-156815337D01*
X58068636Y-156687250D01*
X58148584Y-156549192D01*
X58327056Y-156325241D01*
X58541729Y-156125498D01*
X58764475Y-155978609D01*
X58870298Y-155932454D01*
X59134757Y-155861281D01*
X59422007Y-155831159D01*
X59694596Y-155847370D01*
X59758687Y-155859054D01*
X60096723Y-155967106D01*
X60387067Y-156140939D01*
X60623646Y-156373287D01*
X60800382Y-156656885D01*
X60911202Y-156984467D01*
X60945519Y-157306434D01*
X60950030Y-157348767D01*
G37*
X61383156Y-157577890D02*
X61296277Y-157954545D01*
X61134081Y-158310928D01*
X61124723Y-158326624D01*
X60931750Y-158578175D01*
X60678752Y-158809530D01*
X60387686Y-159005746D01*
X60080511Y-159151879D01*
X59779186Y-159232986D01*
X59583391Y-159252917D01*
X59178776Y-159234048D01*
X58791617Y-159135310D01*
X58431568Y-158959723D01*
X58108280Y-158710308D01*
X57865058Y-158435905D01*
X57666895Y-158097310D01*
X57546308Y-157727827D01*
X57507358Y-157349784D01*
X57872051Y-157349784D01*
X57874582Y-157523064D01*
X57891630Y-157671928D01*
X57931415Y-157808839D01*
X58001933Y-157972114D01*
X58024425Y-158018366D01*
X58224782Y-158327101D01*
X58482838Y-158580618D01*
X58788270Y-158768460D01*
X58992442Y-158848285D01*
X59339593Y-158917176D01*
X59682360Y-158904221D01*
X60013239Y-158810979D01*
X60324726Y-158639011D01*
X60609316Y-158389877D01*
X60731121Y-158250752D01*
X60859732Y-158061823D01*
X60940645Y-157864908D01*
X60983052Y-157635256D01*
X60996143Y-157348116D01*
X60995183Y-157154524D01*
X60986478Y-157008319D01*
X60964671Y-156892923D01*
X60924453Y-156780803D01*
X60860520Y-156644427D01*
X60668207Y-156342482D01*
X60409432Y-156087621D01*
X60095348Y-155895057D01*
X60053943Y-155876054D01*
X59929765Y-155827556D01*
X59807195Y-155799137D01*
X59657524Y-155785772D01*
X59452044Y-155782434D01*
X59303879Y-155783581D01*
X59148223Y-155791978D01*
X59026607Y-155813703D01*
X58909518Y-155854731D01*
X58767442Y-155921038D01*
X58475394Y-156100583D01*
X58217926Y-156347070D01*
X58029573Y-156640580D01*
X57913295Y-156976392D01*
X57872051Y-157349784D01*
X57507358Y-157349784D01*
X57505600Y-157332723D01*
X57521750Y-157054826D01*
X57608084Y-156666732D01*
X57769581Y-156316687D01*
X58006945Y-156002821D01*
X58078779Y-155928416D01*
X58383866Y-155673731D01*
X58711984Y-155497960D01*
X59072330Y-155397121D01*
X59474100Y-155367227D01*
X59855067Y-155399759D01*
X60208068Y-155498037D01*
X60526822Y-155667036D01*
X60823976Y-155911858D01*
X61010696Y-156125243D01*
X61208490Y-156454639D01*
X61337604Y-156815102D01*
X61396379Y-157193797D01*
X61391066Y-157348116D01*
X61383156Y-157577890D01*
G36*
X61383156Y-157577890D02*
G01*
X61296277Y-157954545D01*
X61134081Y-158310928D01*
X61124723Y-158326624D01*
X60931750Y-158578175D01*
X60678752Y-158809530D01*
X60387686Y-159005746D01*
X60080511Y-159151879D01*
X59779186Y-159232986D01*
X59583391Y-159252917D01*
X59178776Y-159234048D01*
X58791617Y-159135310D01*
X58431568Y-158959723D01*
X58108280Y-158710308D01*
X57865058Y-158435905D01*
X57666895Y-158097310D01*
X57546308Y-157727827D01*
X57507358Y-157349784D01*
X57872051Y-157349784D01*
X57874582Y-157523064D01*
X57891630Y-157671928D01*
X57931415Y-157808839D01*
X58001933Y-157972114D01*
X58024425Y-158018366D01*
X58224782Y-158327101D01*
X58482838Y-158580618D01*
X58788270Y-158768460D01*
X58992442Y-158848285D01*
X59339593Y-158917176D01*
X59682360Y-158904221D01*
X60013239Y-158810979D01*
X60324726Y-158639011D01*
X60609316Y-158389877D01*
X60731121Y-158250752D01*
X60859732Y-158061823D01*
X60940645Y-157864908D01*
X60983052Y-157635256D01*
X60996143Y-157348116D01*
X60995183Y-157154524D01*
X60986478Y-157008319D01*
X60964671Y-156892923D01*
X60924453Y-156780803D01*
X60860520Y-156644427D01*
X60668207Y-156342482D01*
X60409432Y-156087621D01*
X60095348Y-155895057D01*
X60053943Y-155876054D01*
X59929765Y-155827556D01*
X59807195Y-155799137D01*
X59657524Y-155785772D01*
X59452044Y-155782434D01*
X59303879Y-155783581D01*
X59148223Y-155791978D01*
X59026607Y-155813703D01*
X58909518Y-155854731D01*
X58767442Y-155921038D01*
X58475394Y-156100583D01*
X58217926Y-156347070D01*
X58029573Y-156640580D01*
X57913295Y-156976392D01*
X57872051Y-157349784D01*
X57507358Y-157349784D01*
X57505600Y-157332723D01*
X57521750Y-157054826D01*
X57608084Y-156666732D01*
X57769581Y-156316687D01*
X58006945Y-156002821D01*
X58078779Y-155928416D01*
X58383866Y-155673731D01*
X58711984Y-155497960D01*
X59072330Y-155397121D01*
X59474100Y-155367227D01*
X59855067Y-155399759D01*
X60208068Y-155498037D01*
X60526822Y-155667036D01*
X60823976Y-155911858D01*
X61010696Y-156125243D01*
X61208490Y-156454639D01*
X61337604Y-156815102D01*
X61396379Y-157193797D01*
X61391066Y-157348116D01*
X61383156Y-157577890D01*
G37*
X67281481Y-162761845D02*
X67265386Y-163048630D01*
X67223100Y-163291056D01*
X67124372Y-163577538D01*
X66925858Y-163946340D01*
X66664384Y-164276366D01*
X66350685Y-164556745D01*
X65995500Y-164776603D01*
X65609564Y-164925067D01*
X65560391Y-164936814D01*
X65361752Y-164965405D01*
X65120218Y-164980947D01*
X64866792Y-164982931D01*
X64632475Y-164970847D01*
X64448267Y-164944183D01*
X64329769Y-164912904D01*
X63961392Y-164762297D01*
X63620064Y-164544040D01*
X63317195Y-164269703D01*
X63064194Y-163950851D01*
X62872470Y-163599052D01*
X62753434Y-163225874D01*
X62723440Y-162988952D01*
X62720111Y-162821793D01*
X62940810Y-162821793D01*
X63001625Y-163199562D01*
X63133104Y-163558427D01*
X63328350Y-163888740D01*
X63580469Y-164180851D01*
X63882564Y-164425112D01*
X64227740Y-164611873D01*
X64609101Y-164731485D01*
X64993722Y-164772731D01*
X65384166Y-164734280D01*
X65760209Y-164615573D01*
X66114834Y-164418851D01*
X66441024Y-164146357D01*
X66607812Y-163964383D01*
X66794333Y-163695678D01*
X66926672Y-163398841D01*
X67018550Y-163047770D01*
X67029320Y-162992270D01*
X67057131Y-162823217D01*
X67064926Y-162688707D01*
X67052842Y-162551066D01*
X67021017Y-162372621D01*
X66976629Y-162180090D01*
X66855283Y-161841063D01*
X66680120Y-161543536D01*
X66438703Y-161263831D01*
X66299559Y-161134030D01*
X66013900Y-160927304D01*
X65698578Y-160780611D01*
X65329913Y-160681517D01*
X65303284Y-160676309D01*
X65128136Y-160646515D01*
X64990284Y-160637452D01*
X64849933Y-160649119D01*
X64667288Y-160681517D01*
X64486703Y-160722788D01*
X64143020Y-160844132D01*
X63840623Y-161020290D01*
X63555513Y-161263831D01*
X63467327Y-161355504D01*
X63224664Y-161676224D01*
X63057336Y-162028166D01*
X62959346Y-162422993D01*
X62957554Y-162434770D01*
X62940810Y-162821793D01*
X62720111Y-162821793D01*
X62717853Y-162708451D01*
X62735143Y-162417178D01*
X62773448Y-162146349D01*
X62830903Y-161927184D01*
X62867949Y-161831644D01*
X63069718Y-161448744D01*
X63333707Y-161117502D01*
X63651845Y-160843907D01*
X64016060Y-160633947D01*
X64418280Y-160493610D01*
X64850434Y-160428886D01*
X65130530Y-160424086D01*
X65442246Y-160456314D01*
X65738655Y-160537775D01*
X66053787Y-160675440D01*
X66254078Y-160789860D01*
X66583225Y-161049988D01*
X66860058Y-161367879D01*
X67075322Y-161731983D01*
X67219760Y-162130744D01*
X67235513Y-162199693D01*
X67271489Y-162466826D01*
X67279004Y-162688707D01*
X67281481Y-162761845D01*
G36*
X67281481Y-162761845D02*
G01*
X67265386Y-163048630D01*
X67223100Y-163291056D01*
X67124372Y-163577538D01*
X66925858Y-163946340D01*
X66664384Y-164276366D01*
X66350685Y-164556745D01*
X65995500Y-164776603D01*
X65609564Y-164925067D01*
X65560391Y-164936814D01*
X65361752Y-164965405D01*
X65120218Y-164980947D01*
X64866792Y-164982931D01*
X64632475Y-164970847D01*
X64448267Y-164944183D01*
X64329769Y-164912904D01*
X63961392Y-164762297D01*
X63620064Y-164544040D01*
X63317195Y-164269703D01*
X63064194Y-163950851D01*
X62872470Y-163599052D01*
X62753434Y-163225874D01*
X62723440Y-162988952D01*
X62720111Y-162821793D01*
X62940810Y-162821793D01*
X63001625Y-163199562D01*
X63133104Y-163558427D01*
X63328350Y-163888740D01*
X63580469Y-164180851D01*
X63882564Y-164425112D01*
X64227740Y-164611873D01*
X64609101Y-164731485D01*
X64993722Y-164772731D01*
X65384166Y-164734280D01*
X65760209Y-164615573D01*
X66114834Y-164418851D01*
X66441024Y-164146357D01*
X66607812Y-163964383D01*
X66794333Y-163695678D01*
X66926672Y-163398841D01*
X67018550Y-163047770D01*
X67029320Y-162992270D01*
X67057131Y-162823217D01*
X67064926Y-162688707D01*
X67052842Y-162551066D01*
X67021017Y-162372621D01*
X66976629Y-162180090D01*
X66855283Y-161841063D01*
X66680120Y-161543536D01*
X66438703Y-161263831D01*
X66299559Y-161134030D01*
X66013900Y-160927304D01*
X65698578Y-160780611D01*
X65329913Y-160681517D01*
X65303284Y-160676309D01*
X65128136Y-160646515D01*
X64990284Y-160637452D01*
X64849933Y-160649119D01*
X64667288Y-160681517D01*
X64486703Y-160722788D01*
X64143020Y-160844132D01*
X63840623Y-161020290D01*
X63555513Y-161263831D01*
X63467327Y-161355504D01*
X63224664Y-161676224D01*
X63057336Y-162028166D01*
X62959346Y-162422993D01*
X62957554Y-162434770D01*
X62940810Y-162821793D01*
X62720111Y-162821793D01*
X62717853Y-162708451D01*
X62735143Y-162417178D01*
X62773448Y-162146349D01*
X62830903Y-161927184D01*
X62867949Y-161831644D01*
X63069718Y-161448744D01*
X63333707Y-161117502D01*
X63651845Y-160843907D01*
X64016060Y-160633947D01*
X64418280Y-160493610D01*
X64850434Y-160428886D01*
X65130530Y-160424086D01*
X65442246Y-160456314D01*
X65738655Y-160537775D01*
X66053787Y-160675440D01*
X66254078Y-160789860D01*
X66583225Y-161049988D01*
X66860058Y-161367879D01*
X67075322Y-161731983D01*
X67219760Y-162130744D01*
X67235513Y-162199693D01*
X67271489Y-162466826D01*
X67279004Y-162688707D01*
X67281481Y-162761845D01*
G37*
X61950600Y-157306433D02*
X61949856Y-157369082D01*
X61898871Y-157821363D01*
X61771520Y-158245900D01*
X61573075Y-158635580D01*
X61308807Y-158983291D01*
X60983990Y-159281919D01*
X60603896Y-159524351D01*
X60173798Y-159703476D01*
X60032670Y-159737377D01*
X59789900Y-159768343D01*
X59513912Y-159781866D01*
X59233311Y-159777704D01*
X58976706Y-159755615D01*
X58772701Y-159715355D01*
X58590309Y-159654425D01*
X58177665Y-159455881D01*
X57811940Y-159190106D01*
X57499090Y-158862887D01*
X57245070Y-158480012D01*
X57055838Y-158047267D01*
X57016052Y-157891904D01*
X56981719Y-157628443D01*
X56975998Y-157477711D01*
X57304442Y-157477711D01*
X57382499Y-157886608D01*
X57543014Y-158290976D01*
X57600538Y-158396056D01*
X57830024Y-158711975D01*
X58116073Y-158986548D01*
X58441824Y-159205405D01*
X58790420Y-159354178D01*
X59133139Y-159433764D01*
X59554173Y-159459134D01*
X59961090Y-159402303D01*
X60349383Y-159263996D01*
X60714542Y-159044937D01*
X60801389Y-158977808D01*
X61101420Y-158684308D01*
X61332598Y-158352641D01*
X61494186Y-157992549D01*
X61585449Y-157613775D01*
X61605651Y-157226063D01*
X61554055Y-156839156D01*
X61429926Y-156462796D01*
X61232528Y-156106727D01*
X60961124Y-155780691D01*
X60904989Y-155726563D01*
X60583123Y-155479193D01*
X60217737Y-155298999D01*
X59799574Y-155181203D01*
X59721892Y-155166216D01*
X59559955Y-155140507D01*
X59428438Y-155134435D01*
X59289749Y-155148001D01*
X59106293Y-155181203D01*
X58931550Y-155220922D01*
X58556565Y-155352317D01*
X58228160Y-155542415D01*
X57928934Y-155800367D01*
X57792988Y-155950401D01*
X57553115Y-156300628D01*
X57390940Y-156677041D01*
X57307652Y-157071962D01*
X57304442Y-157477711D01*
X56975998Y-157477711D01*
X56970466Y-157331940D01*
X56981992Y-157030305D01*
X57015998Y-156751444D01*
X57072186Y-156523267D01*
X57072938Y-156521101D01*
X57264815Y-156088376D01*
X57518400Y-155712071D01*
X57830751Y-155395173D01*
X58198925Y-155140671D01*
X58619979Y-154951551D01*
X58732416Y-154913858D01*
X58886954Y-154871022D01*
X59036534Y-154845786D01*
X59210992Y-154833747D01*
X59440165Y-154830500D01*
X59497866Y-154830790D01*
X59897744Y-154857622D01*
X60247259Y-154932323D01*
X60567382Y-155061004D01*
X60879084Y-155249774D01*
X60916266Y-155276245D01*
X61229106Y-155537252D01*
X61476638Y-155826364D01*
X61676183Y-156163434D01*
X61678598Y-156168340D01*
X61834595Y-156545552D01*
X61922820Y-156914744D01*
X61944900Y-157226063D01*
X61950600Y-157306433D01*
G36*
X61950600Y-157306433D02*
G01*
X61949856Y-157369082D01*
X61898871Y-157821363D01*
X61771520Y-158245900D01*
X61573075Y-158635580D01*
X61308807Y-158983291D01*
X60983990Y-159281919D01*
X60603896Y-159524351D01*
X60173798Y-159703476D01*
X60032670Y-159737377D01*
X59789900Y-159768343D01*
X59513912Y-159781866D01*
X59233311Y-159777704D01*
X58976706Y-159755615D01*
X58772701Y-159715355D01*
X58590309Y-159654425D01*
X58177665Y-159455881D01*
X57811940Y-159190106D01*
X57499090Y-158862887D01*
X57245070Y-158480012D01*
X57055838Y-158047267D01*
X57016052Y-157891904D01*
X56981719Y-157628443D01*
X56975998Y-157477711D01*
X57304442Y-157477711D01*
X57382499Y-157886608D01*
X57543014Y-158290976D01*
X57600538Y-158396056D01*
X57830024Y-158711975D01*
X58116073Y-158986548D01*
X58441824Y-159205405D01*
X58790420Y-159354178D01*
X59133139Y-159433764D01*
X59554173Y-159459134D01*
X59961090Y-159402303D01*
X60349383Y-159263996D01*
X60714542Y-159044937D01*
X60801389Y-158977808D01*
X61101420Y-158684308D01*
X61332598Y-158352641D01*
X61494186Y-157992549D01*
X61585449Y-157613775D01*
X61605651Y-157226063D01*
X61554055Y-156839156D01*
X61429926Y-156462796D01*
X61232528Y-156106727D01*
X60961124Y-155780691D01*
X60904989Y-155726563D01*
X60583123Y-155479193D01*
X60217737Y-155298999D01*
X59799574Y-155181203D01*
X59721892Y-155166216D01*
X59559955Y-155140507D01*
X59428438Y-155134435D01*
X59289749Y-155148001D01*
X59106293Y-155181203D01*
X58931550Y-155220922D01*
X58556565Y-155352317D01*
X58228160Y-155542415D01*
X57928934Y-155800367D01*
X57792988Y-155950401D01*
X57553115Y-156300628D01*
X57390940Y-156677041D01*
X57307652Y-157071962D01*
X57304442Y-157477711D01*
X56975998Y-157477711D01*
X56970466Y-157331940D01*
X56981992Y-157030305D01*
X57015998Y-156751444D01*
X57072186Y-156523267D01*
X57072938Y-156521101D01*
X57264815Y-156088376D01*
X57518400Y-155712071D01*
X57830751Y-155395173D01*
X58198925Y-155140671D01*
X58619979Y-154951551D01*
X58732416Y-154913858D01*
X58886954Y-154871022D01*
X59036534Y-154845786D01*
X59210992Y-154833747D01*
X59440165Y-154830500D01*
X59497866Y-154830790D01*
X59897744Y-154857622D01*
X60247259Y-154932323D01*
X60567382Y-155061004D01*
X60879084Y-155249774D01*
X60916266Y-155276245D01*
X61229106Y-155537252D01*
X61476638Y-155826364D01*
X61676183Y-156163434D01*
X61678598Y-156168340D01*
X61834595Y-156545552D01*
X61922820Y-156914744D01*
X61944900Y-157226063D01*
X61950600Y-157306433D01*
G37*
X66818197Y-162769207D02*
X66773979Y-163138372D01*
X66656851Y-163484885D01*
X66466603Y-163800112D01*
X66205216Y-164080842D01*
X65888703Y-164306310D01*
X65527767Y-164467203D01*
X65402522Y-164493835D01*
X65193119Y-164511085D01*
X64931245Y-164512325D01*
X64739315Y-164505514D01*
X64588095Y-164491667D01*
X64465060Y-164464617D01*
X64340968Y-164417775D01*
X64186579Y-164344554D01*
X64116876Y-164308484D01*
X63796534Y-164090161D01*
X63537005Y-163813830D01*
X63334265Y-163475388D01*
X63306246Y-163415526D01*
X63256595Y-163298340D01*
X63225287Y-163192617D01*
X63208125Y-163074327D01*
X63200907Y-162919442D01*
X63199434Y-162703934D01*
X63368767Y-162703934D01*
X63369643Y-162832837D01*
X63377477Y-162996258D01*
X63398401Y-163123451D01*
X63438323Y-163244569D01*
X63503150Y-163389764D01*
X63521354Y-163427080D01*
X63725786Y-163743366D01*
X63990622Y-164001625D01*
X64310849Y-164196844D01*
X64556278Y-164286779D01*
X64880721Y-164344763D01*
X65203388Y-164342233D01*
X65497534Y-164277377D01*
X65767481Y-164156174D01*
X66077058Y-163937882D01*
X66333367Y-163654477D01*
X66534129Y-163308090D01*
X66573560Y-163209815D01*
X66605724Y-163080803D01*
X66622151Y-162921119D01*
X66626963Y-162703934D01*
X66626801Y-162631739D01*
X66621168Y-162447504D01*
X66603845Y-162309782D01*
X66569767Y-162189663D01*
X66513871Y-162058238D01*
X66378437Y-161829097D01*
X66192879Y-161600260D01*
X65982543Y-161400344D01*
X65771642Y-161255535D01*
X65704511Y-161221695D01*
X65367948Y-161104901D01*
X65015935Y-161061571D01*
X64666324Y-161092418D01*
X64336967Y-161198157D01*
X64334563Y-161199262D01*
X64086057Y-161348536D01*
X63845940Y-161554661D01*
X63639052Y-161792973D01*
X63490236Y-162038809D01*
X63463289Y-162098550D01*
X63413770Y-162227409D01*
X63385139Y-162351388D01*
X63371953Y-162500293D01*
X63368767Y-162703934D01*
X63199434Y-162703934D01*
X63199620Y-162605403D01*
X63202969Y-162418074D01*
X63213736Y-162281797D01*
X63236042Y-162172837D01*
X63274008Y-162067460D01*
X63331757Y-161941934D01*
X63460148Y-161711529D01*
X63703081Y-161405843D01*
X63993504Y-161168100D01*
X64326164Y-161001420D01*
X64695806Y-160908922D01*
X65097178Y-160893725D01*
X65203254Y-160902445D01*
X65593019Y-160982279D01*
X65939512Y-161133782D01*
X66240032Y-161355498D01*
X66491879Y-161645969D01*
X66529185Y-161701777D01*
X66694222Y-162033311D01*
X66791085Y-162394987D01*
X66813469Y-162703934D01*
X66818197Y-162769207D01*
G36*
X66818197Y-162769207D02*
G01*
X66773979Y-163138372D01*
X66656851Y-163484885D01*
X66466603Y-163800112D01*
X66205216Y-164080842D01*
X65888703Y-164306310D01*
X65527767Y-164467203D01*
X65402522Y-164493835D01*
X65193119Y-164511085D01*
X64931245Y-164512325D01*
X64739315Y-164505514D01*
X64588095Y-164491667D01*
X64465060Y-164464617D01*
X64340968Y-164417775D01*
X64186579Y-164344554D01*
X64116876Y-164308484D01*
X63796534Y-164090161D01*
X63537005Y-163813830D01*
X63334265Y-163475388D01*
X63306246Y-163415526D01*
X63256595Y-163298340D01*
X63225287Y-163192617D01*
X63208125Y-163074327D01*
X63200907Y-162919442D01*
X63199434Y-162703934D01*
X63368767Y-162703934D01*
X63369643Y-162832837D01*
X63377477Y-162996258D01*
X63398401Y-163123451D01*
X63438323Y-163244569D01*
X63503150Y-163389764D01*
X63521354Y-163427080D01*
X63725786Y-163743366D01*
X63990622Y-164001625D01*
X64310849Y-164196844D01*
X64556278Y-164286779D01*
X64880721Y-164344763D01*
X65203388Y-164342233D01*
X65497534Y-164277377D01*
X65767481Y-164156174D01*
X66077058Y-163937882D01*
X66333367Y-163654477D01*
X66534129Y-163308090D01*
X66573560Y-163209815D01*
X66605724Y-163080803D01*
X66622151Y-162921119D01*
X66626963Y-162703934D01*
X66626801Y-162631739D01*
X66621168Y-162447504D01*
X66603845Y-162309782D01*
X66569767Y-162189663D01*
X66513871Y-162058238D01*
X66378437Y-161829097D01*
X66192879Y-161600260D01*
X65982543Y-161400344D01*
X65771642Y-161255535D01*
X65704511Y-161221695D01*
X65367948Y-161104901D01*
X65015935Y-161061571D01*
X64666324Y-161092418D01*
X64336967Y-161198157D01*
X64334563Y-161199262D01*
X64086057Y-161348536D01*
X63845940Y-161554661D01*
X63639052Y-161792973D01*
X63490236Y-162038809D01*
X63463289Y-162098550D01*
X63413770Y-162227409D01*
X63385139Y-162351388D01*
X63371953Y-162500293D01*
X63368767Y-162703934D01*
X63199434Y-162703934D01*
X63199620Y-162605403D01*
X63202969Y-162418074D01*
X63213736Y-162281797D01*
X63236042Y-162172837D01*
X63274008Y-162067460D01*
X63331757Y-161941934D01*
X63460148Y-161711529D01*
X63703081Y-161405843D01*
X63993504Y-161168100D01*
X64326164Y-161001420D01*
X64695806Y-160908922D01*
X65097178Y-160893725D01*
X65203254Y-160902445D01*
X65593019Y-160982279D01*
X65939512Y-161133782D01*
X66240032Y-161355498D01*
X66491879Y-161645969D01*
X66529185Y-161701777D01*
X66694222Y-162033311D01*
X66791085Y-162394987D01*
X66813469Y-162703934D01*
X66818197Y-162769207D01*
G37*
X62273499Y-157547221D02*
X62258426Y-157766255D01*
X62234481Y-157939651D01*
X62197146Y-158094760D01*
X62141898Y-158258934D01*
X61943449Y-158691681D01*
X61671608Y-159095917D01*
X61339679Y-159442859D01*
X60951769Y-159728929D01*
X60511984Y-159950545D01*
X60024434Y-160104131D01*
X59876330Y-160130485D01*
X59566253Y-160150980D01*
X59227141Y-160138171D01*
X58889593Y-160093849D01*
X58584208Y-160019807D01*
X58409440Y-159958162D01*
X57978206Y-159746060D01*
X57592328Y-159466391D01*
X57258736Y-159125793D01*
X56984362Y-158730903D01*
X56776138Y-158288360D01*
X56758071Y-158239049D01*
X56700931Y-158062453D01*
X56663745Y-157895409D01*
X56640809Y-157706526D01*
X56626420Y-157464414D01*
X56626048Y-157455597D01*
X56624130Y-157321461D01*
X56787731Y-157321461D01*
X56800057Y-157643081D01*
X56844913Y-157921072D01*
X56895352Y-158099414D01*
X57053398Y-158487024D01*
X57274332Y-158840408D01*
X57569009Y-159178413D01*
X57752507Y-159354876D01*
X57915390Y-159489508D01*
X58079370Y-159596928D01*
X58271470Y-159697086D01*
X58316999Y-159718329D01*
X58526793Y-159805336D01*
X58742439Y-159880835D01*
X58923767Y-159930455D01*
X59083646Y-159959231D01*
X59542639Y-159985440D01*
X60002158Y-159927555D01*
X60464453Y-159785364D01*
X60502059Y-159769991D01*
X60868357Y-159573636D01*
X61209037Y-159309484D01*
X61512298Y-158991630D01*
X61766338Y-158634164D01*
X61959357Y-158251179D01*
X62079552Y-157856767D01*
X62127961Y-157489138D01*
X62117676Y-157040875D01*
X62034571Y-156611104D01*
X61884873Y-156206377D01*
X61674810Y-155833246D01*
X61410611Y-155498261D01*
X61098503Y-155207974D01*
X60744713Y-154968937D01*
X60355470Y-154787702D01*
X59937000Y-154670820D01*
X59495533Y-154624842D01*
X59037295Y-154656321D01*
X58937547Y-154673851D01*
X58494533Y-154802251D01*
X58084774Y-155004336D01*
X57715499Y-155274048D01*
X57393936Y-155605331D01*
X57127312Y-155992125D01*
X56922857Y-156428374D01*
X56854058Y-156673888D01*
X56806282Y-156987850D01*
X56787731Y-157321461D01*
X56624130Y-157321461D01*
X56622010Y-157173242D01*
X56632933Y-156920164D01*
X56657670Y-156723581D01*
X56699204Y-156545272D01*
X56859148Y-156108406D01*
X57090591Y-155704967D01*
X57386176Y-155343108D01*
X57738546Y-155030983D01*
X58140342Y-154776746D01*
X58584208Y-154588551D01*
X58794979Y-154531904D01*
X59161890Y-154477828D01*
X59548241Y-154465827D01*
X59923266Y-154496254D01*
X60256199Y-154569459D01*
X60662605Y-154725363D01*
X61088294Y-154965590D01*
X61455826Y-155267169D01*
X61765989Y-155630763D01*
X62019567Y-156057037D01*
X62075293Y-156175518D01*
X62182828Y-156459129D01*
X62249301Y-156746233D01*
X62279530Y-157062459D01*
X62278332Y-157433434D01*
X62275966Y-157489138D01*
X62273499Y-157547221D01*
G36*
X62273499Y-157547221D02*
G01*
X62258426Y-157766255D01*
X62234481Y-157939651D01*
X62197146Y-158094760D01*
X62141898Y-158258934D01*
X61943449Y-158691681D01*
X61671608Y-159095917D01*
X61339679Y-159442859D01*
X60951769Y-159728929D01*
X60511984Y-159950545D01*
X60024434Y-160104131D01*
X59876330Y-160130485D01*
X59566253Y-160150980D01*
X59227141Y-160138171D01*
X58889593Y-160093849D01*
X58584208Y-160019807D01*
X58409440Y-159958162D01*
X57978206Y-159746060D01*
X57592328Y-159466391D01*
X57258736Y-159125793D01*
X56984362Y-158730903D01*
X56776138Y-158288360D01*
X56758071Y-158239049D01*
X56700931Y-158062453D01*
X56663745Y-157895409D01*
X56640809Y-157706526D01*
X56626420Y-157464414D01*
X56626048Y-157455597D01*
X56624130Y-157321461D01*
X56787731Y-157321461D01*
X56800057Y-157643081D01*
X56844913Y-157921072D01*
X56895352Y-158099414D01*
X57053398Y-158487024D01*
X57274332Y-158840408D01*
X57569009Y-159178413D01*
X57752507Y-159354876D01*
X57915390Y-159489508D01*
X58079370Y-159596928D01*
X58271470Y-159697086D01*
X58316999Y-159718329D01*
X58526793Y-159805336D01*
X58742439Y-159880835D01*
X58923767Y-159930455D01*
X59083646Y-159959231D01*
X59542639Y-159985440D01*
X60002158Y-159927555D01*
X60464453Y-159785364D01*
X60502059Y-159769991D01*
X60868357Y-159573636D01*
X61209037Y-159309484D01*
X61512298Y-158991630D01*
X61766338Y-158634164D01*
X61959357Y-158251179D01*
X62079552Y-157856767D01*
X62127961Y-157489138D01*
X62117676Y-157040875D01*
X62034571Y-156611104D01*
X61884873Y-156206377D01*
X61674810Y-155833246D01*
X61410611Y-155498261D01*
X61098503Y-155207974D01*
X60744713Y-154968937D01*
X60355470Y-154787702D01*
X59937000Y-154670820D01*
X59495533Y-154624842D01*
X59037295Y-154656321D01*
X58937547Y-154673851D01*
X58494533Y-154802251D01*
X58084774Y-155004336D01*
X57715499Y-155274048D01*
X57393936Y-155605331D01*
X57127312Y-155992125D01*
X56922857Y-156428374D01*
X56854058Y-156673888D01*
X56806282Y-156987850D01*
X56787731Y-157321461D01*
X56624130Y-157321461D01*
X56622010Y-157173242D01*
X56632933Y-156920164D01*
X56657670Y-156723581D01*
X56699204Y-156545272D01*
X56859148Y-156108406D01*
X57090591Y-155704967D01*
X57386176Y-155343108D01*
X57738546Y-155030983D01*
X58140342Y-154776746D01*
X58584208Y-154588551D01*
X58794979Y-154531904D01*
X59161890Y-154477828D01*
X59548241Y-154465827D01*
X59923266Y-154496254D01*
X60256199Y-154569459D01*
X60662605Y-154725363D01*
X61088294Y-154965590D01*
X61455826Y-155267169D01*
X61765989Y-155630763D01*
X62019567Y-156057037D01*
X62075293Y-156175518D01*
X62182828Y-156459129D01*
X62249301Y-156746233D01*
X62279530Y-157062459D01*
X62278332Y-157433434D01*
X62275966Y-157489138D01*
X62273499Y-157547221D01*
G37*
X64684897Y-153292046D02*
X64657694Y-153574105D01*
X64555513Y-153853535D01*
X64524234Y-153904418D01*
X64410820Y-154037621D01*
X64262768Y-154172704D01*
X64107765Y-154285888D01*
X63973496Y-154353397D01*
X63873237Y-154379275D01*
X63612137Y-154403650D01*
X63346681Y-154378367D01*
X63114767Y-154305537D01*
X63060067Y-154278222D01*
X62811192Y-154105356D01*
X62632950Y-153885852D01*
X62525186Y-153619460D01*
X62487743Y-153305934D01*
X62491862Y-153205561D01*
X62673669Y-153205561D01*
X62678110Y-153372329D01*
X62700266Y-153539262D01*
X62788437Y-153776694D01*
X62945103Y-153967911D01*
X63175537Y-154120850D01*
X63210469Y-154137875D01*
X63407659Y-154210589D01*
X63580434Y-154237267D01*
X63767892Y-154208836D01*
X63986864Y-154119813D01*
X64187570Y-153986011D01*
X64340221Y-153823646D01*
X64413724Y-153700060D01*
X64460589Y-153558208D01*
X64482709Y-153373100D01*
X64486506Y-153241790D01*
X64480030Y-153112945D01*
X64463493Y-153038311D01*
X64460416Y-153033585D01*
X64442485Y-153047653D01*
X64431091Y-153139030D01*
X64427326Y-153292247D01*
X64427100Y-153301449D01*
X64423499Y-153474548D01*
X64407758Y-153600432D01*
X64373122Y-153699811D01*
X64312843Y-153802272D01*
X64181932Y-153951451D01*
X63977843Y-154088725D01*
X63746525Y-154169419D01*
X63513795Y-154181286D01*
X63325938Y-154143151D01*
X63083760Y-154032252D01*
X62898163Y-153862738D01*
X62775076Y-153640654D01*
X62720425Y-153372048D01*
X62719440Y-153354884D01*
X62719778Y-153350133D01*
X62847980Y-153350133D01*
X62889012Y-153564114D01*
X62996038Y-153759134D01*
X63169926Y-153919272D01*
X63227615Y-153954364D01*
X63458332Y-154039840D01*
X63688899Y-154047043D01*
X63905456Y-153979642D01*
X64094145Y-153841306D01*
X64241105Y-153635703D01*
X64291449Y-153510698D01*
X64320222Y-153292247D01*
X64281627Y-153085233D01*
X64186429Y-152900062D01*
X64045394Y-152747144D01*
X63869287Y-152636884D01*
X63668874Y-152579691D01*
X63454920Y-152585972D01*
X63238191Y-152666134D01*
X63112178Y-152753653D01*
X62960431Y-152928980D01*
X62872076Y-153133114D01*
X62847980Y-153350133D01*
X62719778Y-153350133D01*
X62738228Y-153090804D01*
X62827953Y-152865243D01*
X62994473Y-152663043D01*
X63013168Y-152645788D01*
X63170077Y-152535982D01*
X63351585Y-152476900D01*
X63584549Y-152459267D01*
X63657754Y-152460874D01*
X63884113Y-152496752D01*
X64071426Y-152588867D01*
X64247184Y-152749251D01*
X64315984Y-152821770D01*
X64380874Y-152880077D01*
X64405934Y-152887703D01*
X64388915Y-152854597D01*
X64325490Y-152775745D01*
X64231246Y-152675540D01*
X64112059Y-152573295D01*
X63877888Y-152448280D01*
X63629860Y-152396970D01*
X63381874Y-152417332D01*
X63147832Y-152507333D01*
X62941634Y-152664941D01*
X62777180Y-152888124D01*
X62740356Y-152958588D01*
X62691623Y-153081309D01*
X62673669Y-153205561D01*
X62491862Y-153205561D01*
X62492418Y-153192004D01*
X62556457Y-152906377D01*
X62687938Y-152658486D01*
X62877249Y-152456988D01*
X63114781Y-152310542D01*
X63390923Y-152227802D01*
X63696066Y-152217428D01*
X63915802Y-152260279D01*
X64169392Y-152376356D01*
X64379370Y-152549513D01*
X64539462Y-152767808D01*
X64643395Y-153019299D01*
X64677250Y-153241790D01*
X64684897Y-153292046D01*
G36*
X64684897Y-153292046D02*
G01*
X64657694Y-153574105D01*
X64555513Y-153853535D01*
X64524234Y-153904418D01*
X64410820Y-154037621D01*
X64262768Y-154172704D01*
X64107765Y-154285888D01*
X63973496Y-154353397D01*
X63873237Y-154379275D01*
X63612137Y-154403650D01*
X63346681Y-154378367D01*
X63114767Y-154305537D01*
X63060067Y-154278222D01*
X62811192Y-154105356D01*
X62632950Y-153885852D01*
X62525186Y-153619460D01*
X62487743Y-153305934D01*
X62491862Y-153205561D01*
X62673669Y-153205561D01*
X62678110Y-153372329D01*
X62700266Y-153539262D01*
X62788437Y-153776694D01*
X62945103Y-153967911D01*
X63175537Y-154120850D01*
X63210469Y-154137875D01*
X63407659Y-154210589D01*
X63580434Y-154237267D01*
X63767892Y-154208836D01*
X63986864Y-154119813D01*
X64187570Y-153986011D01*
X64340221Y-153823646D01*
X64413724Y-153700060D01*
X64460589Y-153558208D01*
X64482709Y-153373100D01*
X64486506Y-153241790D01*
X64480030Y-153112945D01*
X64463493Y-153038311D01*
X64460416Y-153033585D01*
X64442485Y-153047653D01*
X64431091Y-153139030D01*
X64427326Y-153292247D01*
X64427100Y-153301449D01*
X64423499Y-153474548D01*
X64407758Y-153600432D01*
X64373122Y-153699811D01*
X64312843Y-153802272D01*
X64181932Y-153951451D01*
X63977843Y-154088725D01*
X63746525Y-154169419D01*
X63513795Y-154181286D01*
X63325938Y-154143151D01*
X63083760Y-154032252D01*
X62898163Y-153862738D01*
X62775076Y-153640654D01*
X62720425Y-153372048D01*
X62719440Y-153354884D01*
X62719778Y-153350133D01*
X62847980Y-153350133D01*
X62889012Y-153564114D01*
X62996038Y-153759134D01*
X63169926Y-153919272D01*
X63227615Y-153954364D01*
X63458332Y-154039840D01*
X63688899Y-154047043D01*
X63905456Y-153979642D01*
X64094145Y-153841306D01*
X64241105Y-153635703D01*
X64291449Y-153510698D01*
X64320222Y-153292247D01*
X64281627Y-153085233D01*
X64186429Y-152900062D01*
X64045394Y-152747144D01*
X63869287Y-152636884D01*
X63668874Y-152579691D01*
X63454920Y-152585972D01*
X63238191Y-152666134D01*
X63112178Y-152753653D01*
X62960431Y-152928980D01*
X62872076Y-153133114D01*
X62847980Y-153350133D01*
X62719778Y-153350133D01*
X62738228Y-153090804D01*
X62827953Y-152865243D01*
X62994473Y-152663043D01*
X63013168Y-152645788D01*
X63170077Y-152535982D01*
X63351585Y-152476900D01*
X63584549Y-152459267D01*
X63657754Y-152460874D01*
X63884113Y-152496752D01*
X64071426Y-152588867D01*
X64247184Y-152749251D01*
X64315984Y-152821770D01*
X64380874Y-152880077D01*
X64405934Y-152887703D01*
X64388915Y-152854597D01*
X64325490Y-152775745D01*
X64231246Y-152675540D01*
X64112059Y-152573295D01*
X63877888Y-152448280D01*
X63629860Y-152396970D01*
X63381874Y-152417332D01*
X63147832Y-152507333D01*
X62941634Y-152664941D01*
X62777180Y-152888124D01*
X62740356Y-152958588D01*
X62691623Y-153081309D01*
X62673669Y-153205561D01*
X62491862Y-153205561D01*
X62492418Y-153192004D01*
X62556457Y-152906377D01*
X62687938Y-152658486D01*
X62877249Y-152456988D01*
X63114781Y-152310542D01*
X63390923Y-152227802D01*
X63696066Y-152217428D01*
X63915802Y-152260279D01*
X64169392Y-152376356D01*
X64379370Y-152549513D01*
X64539462Y-152767808D01*
X64643395Y-153019299D01*
X64677250Y-153241790D01*
X64684897Y-153292046D01*
G37*
X65231418Y-153333443D02*
X65229009Y-153531817D01*
X65219121Y-153674506D01*
X65196915Y-153787357D01*
X65157550Y-153896219D01*
X65096187Y-154026939D01*
X65010596Y-154181199D01*
X64786227Y-154469775D01*
X64514790Y-154698390D01*
X64207205Y-154863267D01*
X63874391Y-154960627D01*
X63527268Y-154986690D01*
X63176756Y-154937680D01*
X62833775Y-154809816D01*
X62612953Y-154698903D01*
X62329842Y-154979845D01*
X62046731Y-155260786D01*
X62212464Y-155508973D01*
X62401841Y-155834275D01*
X62582868Y-156286794D01*
X62690401Y-156775788D01*
X62725916Y-157306434D01*
X62719981Y-157416705D01*
X62702635Y-157739016D01*
X62609505Y-158230218D01*
X62442879Y-158687998D01*
X62200249Y-159121008D01*
X62195212Y-159128600D01*
X62114441Y-159254153D01*
X62057082Y-159350277D01*
X62035267Y-159396703D01*
X62037761Y-159401646D01*
X62082215Y-159453930D01*
X62175493Y-159553804D01*
X62308737Y-159692044D01*
X62473086Y-159859429D01*
X62659684Y-160046737D01*
X63284100Y-160669316D01*
X63474600Y-160538419D01*
X63716996Y-160388583D01*
X64112638Y-160213939D01*
X64535190Y-160112235D01*
X64998600Y-160079267D01*
X65280392Y-160090935D01*
X65726032Y-160166262D01*
X66133293Y-160314292D01*
X66510198Y-160538304D01*
X66864771Y-160841576D01*
X67051429Y-161044380D01*
X67305927Y-161407628D01*
X67484147Y-161800589D01*
X67588967Y-162230335D01*
X67623267Y-162703934D01*
X67616330Y-162870755D01*
X67611425Y-162988734D01*
X67535927Y-163435629D01*
X67388230Y-163842791D01*
X67165468Y-164217261D01*
X66864771Y-164566083D01*
X66862312Y-164568523D01*
X66510270Y-164870915D01*
X66139627Y-165095676D01*
X65739434Y-165249453D01*
X65651312Y-165270951D01*
X65402498Y-165307117D01*
X65113785Y-165324504D01*
X64814969Y-165322863D01*
X64535845Y-165301943D01*
X64306211Y-165261494D01*
X64208692Y-165233975D01*
X63804244Y-165067978D01*
X63429522Y-164831783D01*
X63094876Y-164535730D01*
X62810655Y-164190160D01*
X62587209Y-163805412D01*
X62434886Y-163391826D01*
X62420882Y-163331667D01*
X62389340Y-163107334D01*
X62373501Y-162839723D01*
X62373637Y-162558799D01*
X62374872Y-162538881D01*
X62598837Y-162538881D01*
X62606354Y-162961729D01*
X62691355Y-163374953D01*
X62847318Y-163765390D01*
X63067417Y-164123784D01*
X63344825Y-164440881D01*
X63672715Y-164707427D01*
X64044259Y-164914168D01*
X64452632Y-165051849D01*
X64677595Y-165093260D01*
X65111450Y-165110431D01*
X65539064Y-165048386D01*
X65949395Y-164910272D01*
X66331403Y-164699238D01*
X66674045Y-164418434D01*
X66707642Y-164384702D01*
X66987514Y-164042513D01*
X67194581Y-163669851D01*
X67329707Y-163276127D01*
X67393760Y-162870755D01*
X67387604Y-162463145D01*
X67312105Y-162062711D01*
X67168129Y-161678863D01*
X66956541Y-161321016D01*
X66678207Y-160998579D01*
X66333993Y-160720967D01*
X66112632Y-160588629D01*
X65707329Y-160417995D01*
X65288423Y-160324855D01*
X64865521Y-160308345D01*
X64448229Y-160367602D01*
X64046154Y-160501761D01*
X63668904Y-160709959D01*
X63326085Y-160991334D01*
X63059003Y-161297807D01*
X62827738Y-161679051D01*
X62673983Y-162093523D01*
X62598837Y-162538881D01*
X62374872Y-162538881D01*
X62390021Y-162294530D01*
X62422926Y-162076881D01*
X62434590Y-162031322D01*
X62490136Y-161865060D01*
X62568765Y-161669683D01*
X62657420Y-161478510D01*
X62838950Y-161116807D01*
X62215388Y-160492204D01*
X62159297Y-160436142D01*
X61976374Y-160255083D01*
X61815853Y-160098843D01*
X61687006Y-159976279D01*
X61599107Y-159896246D01*
X61561426Y-159867600D01*
X61561154Y-159867606D01*
X61512685Y-159890918D01*
X61416420Y-159950771D01*
X61292915Y-160034398D01*
X61037511Y-160192340D01*
X60603673Y-160384985D01*
X60135858Y-160513308D01*
X59648549Y-160575807D01*
X59156229Y-160570983D01*
X58673381Y-160497335D01*
X58214489Y-160353361D01*
X57761623Y-160125803D01*
X57347646Y-159829107D01*
X56984376Y-159473667D01*
X56679437Y-159068177D01*
X56440454Y-158621331D01*
X56275049Y-158141821D01*
X56272998Y-158133716D01*
X56219485Y-157831198D01*
X56193207Y-157481129D01*
X56194122Y-157115150D01*
X56195469Y-157098336D01*
X56461713Y-157098336D01*
X56467352Y-157569267D01*
X56550443Y-158035127D01*
X56706626Y-158484830D01*
X56931541Y-158907288D01*
X57220828Y-159291414D01*
X57570126Y-159626120D01*
X57588446Y-159640783D01*
X57854133Y-159823801D01*
X58162632Y-159993154D01*
X58480826Y-160132389D01*
X58775600Y-160225052D01*
X58790795Y-160228517D01*
X59033992Y-160265279D01*
X59323955Y-160283005D01*
X59628355Y-160281752D01*
X59914861Y-160261581D01*
X60151145Y-160222550D01*
X60215417Y-160205581D01*
X60498522Y-160105181D01*
X60800908Y-159964415D01*
X61090629Y-159799367D01*
X61335742Y-159626120D01*
X61656086Y-159323176D01*
X61958439Y-158934474D01*
X62197263Y-158503915D01*
X62362305Y-158047267D01*
X62415403Y-157760827D01*
X62438355Y-157416705D01*
X62429171Y-157057005D01*
X62388715Y-156713367D01*
X62317849Y-156417434D01*
X62250770Y-156230486D01*
X62075068Y-155861095D01*
X61845857Y-155521555D01*
X61548434Y-155188379D01*
X61356621Y-155011101D01*
X60969587Y-154732069D01*
X60558865Y-154526336D01*
X60131887Y-154391427D01*
X59696085Y-154324866D01*
X59258891Y-154324179D01*
X58827737Y-154386890D01*
X58410055Y-154510523D01*
X58013277Y-154692604D01*
X57644834Y-154930657D01*
X57312160Y-155222207D01*
X57022685Y-155564778D01*
X56783842Y-155955896D01*
X56603062Y-156393085D01*
X56487778Y-156873870D01*
X56461713Y-157098336D01*
X56195469Y-157098336D01*
X56222187Y-156764901D01*
X56277357Y-156462021D01*
X56354001Y-156208539D01*
X56556677Y-155750264D01*
X56826913Y-155330364D01*
X57156643Y-154956190D01*
X57537804Y-154635088D01*
X57962333Y-154374408D01*
X58422164Y-154181498D01*
X58909233Y-154063706D01*
X59150008Y-154039961D01*
X59454212Y-154034573D01*
X59772352Y-154048785D01*
X60072010Y-154081077D01*
X60320767Y-154129927D01*
X60485389Y-154180794D01*
X60805664Y-154310757D01*
X61123446Y-154474102D01*
X61400267Y-154652217D01*
X61633100Y-154823646D01*
X61910704Y-154550259D01*
X62188307Y-154276873D01*
X62065184Y-154020341D01*
X62005199Y-153877247D01*
X61923217Y-153534493D01*
X61919202Y-153327100D01*
X62058175Y-153327100D01*
X62058287Y-153346834D01*
X62063850Y-153542864D01*
X62081197Y-153687438D01*
X62116058Y-153811027D01*
X62174159Y-153944103D01*
X62228033Y-154044283D01*
X62425003Y-154310791D01*
X62672095Y-154539975D01*
X62945434Y-154708179D01*
X63135843Y-154779540D01*
X63406443Y-154838269D01*
X63675225Y-154856054D01*
X63908690Y-154828703D01*
X64231514Y-154708101D01*
X64533167Y-154513697D01*
X64787913Y-154260237D01*
X64980854Y-153959794D01*
X65015399Y-153887269D01*
X65062474Y-153768389D01*
X65089366Y-153650998D01*
X65101489Y-153506409D01*
X65104256Y-153305934D01*
X65103740Y-153209812D01*
X65097166Y-153035623D01*
X65078857Y-152905386D01*
X65043607Y-152790759D01*
X64986208Y-152663399D01*
X64969466Y-152630719D01*
X64810424Y-152395961D01*
X64599785Y-152175310D01*
X64362032Y-151991330D01*
X64121648Y-151866584D01*
X64120737Y-151866242D01*
X63826615Y-151794644D01*
X63507119Y-151781924D01*
X63192346Y-151826576D01*
X62912389Y-151927094D01*
X62835787Y-151969261D01*
X62571994Y-152167001D01*
X62342665Y-152419630D01*
X62169890Y-152704035D01*
X62161722Y-152721601D01*
X62107329Y-152853995D01*
X62075618Y-152978532D01*
X62061072Y-153125978D01*
X62058175Y-153327100D01*
X61919202Y-153327100D01*
X61916422Y-153183457D01*
X61981459Y-152837679D01*
X62114971Y-152510698D01*
X62313603Y-152216055D01*
X62574000Y-151967290D01*
X62756906Y-151844595D01*
X63016270Y-151729751D01*
X63304769Y-151671367D01*
X63643934Y-151663328D01*
X63809976Y-151672603D01*
X63991492Y-151694409D01*
X64140730Y-151731968D01*
X64288165Y-151791335D01*
X64332791Y-151812840D01*
X64631219Y-152007661D01*
X64887979Y-152266235D01*
X65087390Y-152573223D01*
X65106042Y-152610163D01*
X65164731Y-152734524D01*
X65201534Y-152840354D01*
X65221532Y-152953448D01*
X65229805Y-153099602D01*
X65231434Y-153304613D01*
X65231433Y-153305934D01*
X65231418Y-153333443D01*
G36*
X65231418Y-153333443D02*
G01*
X65229009Y-153531817D01*
X65219121Y-153674506D01*
X65196915Y-153787357D01*
X65157550Y-153896219D01*
X65096187Y-154026939D01*
X65010596Y-154181199D01*
X64786227Y-154469775D01*
X64514790Y-154698390D01*
X64207205Y-154863267D01*
X63874391Y-154960627D01*
X63527268Y-154986690D01*
X63176756Y-154937680D01*
X62833775Y-154809816D01*
X62612953Y-154698903D01*
X62329842Y-154979845D01*
X62046731Y-155260786D01*
X62212464Y-155508973D01*
X62401841Y-155834275D01*
X62582868Y-156286794D01*
X62690401Y-156775788D01*
X62725916Y-157306434D01*
X62719981Y-157416705D01*
X62702635Y-157739016D01*
X62609505Y-158230218D01*
X62442879Y-158687998D01*
X62200249Y-159121008D01*
X62195212Y-159128600D01*
X62114441Y-159254153D01*
X62057082Y-159350277D01*
X62035267Y-159396703D01*
X62037761Y-159401646D01*
X62082215Y-159453930D01*
X62175493Y-159553804D01*
X62308737Y-159692044D01*
X62473086Y-159859429D01*
X62659684Y-160046737D01*
X63284100Y-160669316D01*
X63474600Y-160538419D01*
X63716996Y-160388583D01*
X64112638Y-160213939D01*
X64535190Y-160112235D01*
X64998600Y-160079267D01*
X65280392Y-160090935D01*
X65726032Y-160166262D01*
X66133293Y-160314292D01*
X66510198Y-160538304D01*
X66864771Y-160841576D01*
X67051429Y-161044380D01*
X67305927Y-161407628D01*
X67484147Y-161800589D01*
X67588967Y-162230335D01*
X67623267Y-162703934D01*
X67616330Y-162870755D01*
X67611425Y-162988734D01*
X67535927Y-163435629D01*
X67388230Y-163842791D01*
X67165468Y-164217261D01*
X66864771Y-164566083D01*
X66862312Y-164568523D01*
X66510270Y-164870915D01*
X66139627Y-165095676D01*
X65739434Y-165249453D01*
X65651312Y-165270951D01*
X65402498Y-165307117D01*
X65113785Y-165324504D01*
X64814969Y-165322863D01*
X64535845Y-165301943D01*
X64306211Y-165261494D01*
X64208692Y-165233975D01*
X63804244Y-165067978D01*
X63429522Y-164831783D01*
X63094876Y-164535730D01*
X62810655Y-164190160D01*
X62587209Y-163805412D01*
X62434886Y-163391826D01*
X62420882Y-163331667D01*
X62389340Y-163107334D01*
X62373501Y-162839723D01*
X62373637Y-162558799D01*
X62374872Y-162538881D01*
X62598837Y-162538881D01*
X62606354Y-162961729D01*
X62691355Y-163374953D01*
X62847318Y-163765390D01*
X63067417Y-164123784D01*
X63344825Y-164440881D01*
X63672715Y-164707427D01*
X64044259Y-164914168D01*
X64452632Y-165051849D01*
X64677595Y-165093260D01*
X65111450Y-165110431D01*
X65539064Y-165048386D01*
X65949395Y-164910272D01*
X66331403Y-164699238D01*
X66674045Y-164418434D01*
X66707642Y-164384702D01*
X66987514Y-164042513D01*
X67194581Y-163669851D01*
X67329707Y-163276127D01*
X67393760Y-162870755D01*
X67387604Y-162463145D01*
X67312105Y-162062711D01*
X67168129Y-161678863D01*
X66956541Y-161321016D01*
X66678207Y-160998579D01*
X66333993Y-160720967D01*
X66112632Y-160588629D01*
X65707329Y-160417995D01*
X65288423Y-160324855D01*
X64865521Y-160308345D01*
X64448229Y-160367602D01*
X64046154Y-160501761D01*
X63668904Y-160709959D01*
X63326085Y-160991334D01*
X63059003Y-161297807D01*
X62827738Y-161679051D01*
X62673983Y-162093523D01*
X62598837Y-162538881D01*
X62374872Y-162538881D01*
X62390021Y-162294530D01*
X62422926Y-162076881D01*
X62434590Y-162031322D01*
X62490136Y-161865060D01*
X62568765Y-161669683D01*
X62657420Y-161478510D01*
X62838950Y-161116807D01*
X62215388Y-160492204D01*
X62159297Y-160436142D01*
X61976374Y-160255083D01*
X61815853Y-160098843D01*
X61687006Y-159976279D01*
X61599107Y-159896246D01*
X61561426Y-159867600D01*
X61561154Y-159867606D01*
X61512685Y-159890918D01*
X61416420Y-159950771D01*
X61292915Y-160034398D01*
X61037511Y-160192340D01*
X60603673Y-160384985D01*
X60135858Y-160513308D01*
X59648549Y-160575807D01*
X59156229Y-160570983D01*
X58673381Y-160497335D01*
X58214489Y-160353361D01*
X57761623Y-160125803D01*
X57347646Y-159829107D01*
X56984376Y-159473667D01*
X56679437Y-159068177D01*
X56440454Y-158621331D01*
X56275049Y-158141821D01*
X56272998Y-158133716D01*
X56219485Y-157831198D01*
X56193207Y-157481129D01*
X56194122Y-157115150D01*
X56195469Y-157098336D01*
X56461713Y-157098336D01*
X56467352Y-157569267D01*
X56550443Y-158035127D01*
X56706626Y-158484830D01*
X56931541Y-158907288D01*
X57220828Y-159291414D01*
X57570126Y-159626120D01*
X57588446Y-159640783D01*
X57854133Y-159823801D01*
X58162632Y-159993154D01*
X58480826Y-160132389D01*
X58775600Y-160225052D01*
X58790795Y-160228517D01*
X59033992Y-160265279D01*
X59323955Y-160283005D01*
X59628355Y-160281752D01*
X59914861Y-160261581D01*
X60151145Y-160222550D01*
X60215417Y-160205581D01*
X60498522Y-160105181D01*
X60800908Y-159964415D01*
X61090629Y-159799367D01*
X61335742Y-159626120D01*
X61656086Y-159323176D01*
X61958439Y-158934474D01*
X62197263Y-158503915D01*
X62362305Y-158047267D01*
X62415403Y-157760827D01*
X62438355Y-157416705D01*
X62429171Y-157057005D01*
X62388715Y-156713367D01*
X62317849Y-156417434D01*
X62250770Y-156230486D01*
X62075068Y-155861095D01*
X61845857Y-155521555D01*
X61548434Y-155188379D01*
X61356621Y-155011101D01*
X60969587Y-154732069D01*
X60558865Y-154526336D01*
X60131887Y-154391427D01*
X59696085Y-154324866D01*
X59258891Y-154324179D01*
X58827737Y-154386890D01*
X58410055Y-154510523D01*
X58013277Y-154692604D01*
X57644834Y-154930657D01*
X57312160Y-155222207D01*
X57022685Y-155564778D01*
X56783842Y-155955896D01*
X56603062Y-156393085D01*
X56487778Y-156873870D01*
X56461713Y-157098336D01*
X56195469Y-157098336D01*
X56222187Y-156764901D01*
X56277357Y-156462021D01*
X56354001Y-156208539D01*
X56556677Y-155750264D01*
X56826913Y-155330364D01*
X57156643Y-154956190D01*
X57537804Y-154635088D01*
X57962333Y-154374408D01*
X58422164Y-154181498D01*
X58909233Y-154063706D01*
X59150008Y-154039961D01*
X59454212Y-154034573D01*
X59772352Y-154048785D01*
X60072010Y-154081077D01*
X60320767Y-154129927D01*
X60485389Y-154180794D01*
X60805664Y-154310757D01*
X61123446Y-154474102D01*
X61400267Y-154652217D01*
X61633100Y-154823646D01*
X61910704Y-154550259D01*
X62188307Y-154276873D01*
X62065184Y-154020341D01*
X62005199Y-153877247D01*
X61923217Y-153534493D01*
X61919202Y-153327100D01*
X62058175Y-153327100D01*
X62058287Y-153346834D01*
X62063850Y-153542864D01*
X62081197Y-153687438D01*
X62116058Y-153811027D01*
X62174159Y-153944103D01*
X62228033Y-154044283D01*
X62425003Y-154310791D01*
X62672095Y-154539975D01*
X62945434Y-154708179D01*
X63135843Y-154779540D01*
X63406443Y-154838269D01*
X63675225Y-154856054D01*
X63908690Y-154828703D01*
X64231514Y-154708101D01*
X64533167Y-154513697D01*
X64787913Y-154260237D01*
X64980854Y-153959794D01*
X65015399Y-153887269D01*
X65062474Y-153768389D01*
X65089366Y-153650998D01*
X65101489Y-153506409D01*
X65104256Y-153305934D01*
X65103740Y-153209812D01*
X65097166Y-153035623D01*
X65078857Y-152905386D01*
X65043607Y-152790759D01*
X64986208Y-152663399D01*
X64969466Y-152630719D01*
X64810424Y-152395961D01*
X64599785Y-152175310D01*
X64362032Y-151991330D01*
X64121648Y-151866584D01*
X64120737Y-151866242D01*
X63826615Y-151794644D01*
X63507119Y-151781924D01*
X63192346Y-151826576D01*
X62912389Y-151927094D01*
X62835787Y-151969261D01*
X62571994Y-152167001D01*
X62342665Y-152419630D01*
X62169890Y-152704035D01*
X62161722Y-152721601D01*
X62107329Y-152853995D01*
X62075618Y-152978532D01*
X62061072Y-153125978D01*
X62058175Y-153327100D01*
X61919202Y-153327100D01*
X61916422Y-153183457D01*
X61981459Y-152837679D01*
X62114971Y-152510698D01*
X62313603Y-152216055D01*
X62574000Y-151967290D01*
X62756906Y-151844595D01*
X63016270Y-151729751D01*
X63304769Y-151671367D01*
X63643934Y-151663328D01*
X63809976Y-151672603D01*
X63991492Y-151694409D01*
X64140730Y-151731968D01*
X64288165Y-151791335D01*
X64332791Y-151812840D01*
X64631219Y-152007661D01*
X64887979Y-152266235D01*
X65087390Y-152573223D01*
X65106042Y-152610163D01*
X65164731Y-152734524D01*
X65201534Y-152840354D01*
X65221532Y-152953448D01*
X65229805Y-153099602D01*
X65231434Y-153304613D01*
X65231433Y-153305934D01*
X65231418Y-153333443D01*
G37*
%TD*%
M02*
