%TF.GenerationSoftware,KiCad,Pcbnew,8.0.5*%
%TF.CreationDate,2025-02-18T12:13:13+00:00*%
%TF.ProjectId,robin,726f6269-6e2e-46b6-9963-61645f706362,v2*%
%TF.SameCoordinates,Original*%
%TF.FileFunction,Legend,Bot*%
%TF.FilePolarity,Positive*%
%FSLAX46Y46*%
G04 Gerber Fmt 4.6, Leading zero omitted, Abs format (unit mm)*
G04 Created by KiCad (PCBNEW 8.0.5) date 2025-02-18 12:13:13*
%MOMM*%
%LPD*%
G01*
G04 APERTURE LIST*
%ADD10C,10.000000*%
%ADD11C,0.125000*%
%ADD12C,0.150000*%
%ADD13C,0.203200*%
%ADD14C,0.010000*%
G04 APERTURE END LIST*
D10*
X172110400Y-110845600D02*
X155041600Y-110845600D01*
D11*
X192780714Y-108864522D02*
X192437857Y-108864522D01*
X192609285Y-109464522D02*
X192609285Y-108864522D01*
X192237856Y-109464522D02*
X192237856Y-108864522D01*
X191980714Y-109464522D02*
X191980714Y-109150236D01*
X191980714Y-109150236D02*
X192009285Y-109093093D01*
X192009285Y-109093093D02*
X192066428Y-109064522D01*
X192066428Y-109064522D02*
X192152142Y-109064522D01*
X192152142Y-109064522D02*
X192209285Y-109093093D01*
X192209285Y-109093093D02*
X192237856Y-109121665D01*
X191466428Y-109435951D02*
X191523571Y-109464522D01*
X191523571Y-109464522D02*
X191637857Y-109464522D01*
X191637857Y-109464522D02*
X191694999Y-109435951D01*
X191694999Y-109435951D02*
X191723571Y-109378808D01*
X191723571Y-109378808D02*
X191723571Y-109150236D01*
X191723571Y-109150236D02*
X191694999Y-109093093D01*
X191694999Y-109093093D02*
X191637857Y-109064522D01*
X191637857Y-109064522D02*
X191523571Y-109064522D01*
X191523571Y-109064522D02*
X191466428Y-109093093D01*
X191466428Y-109093093D02*
X191437857Y-109150236D01*
X191437857Y-109150236D02*
X191437857Y-109207379D01*
X191437857Y-109207379D02*
X191723571Y-109264522D01*
X190752142Y-109435951D02*
X190666428Y-109464522D01*
X190666428Y-109464522D02*
X190523570Y-109464522D01*
X190523570Y-109464522D02*
X190466428Y-109435951D01*
X190466428Y-109435951D02*
X190437856Y-109407379D01*
X190437856Y-109407379D02*
X190409285Y-109350236D01*
X190409285Y-109350236D02*
X190409285Y-109293093D01*
X190409285Y-109293093D02*
X190437856Y-109235951D01*
X190437856Y-109235951D02*
X190466428Y-109207379D01*
X190466428Y-109207379D02*
X190523570Y-109178808D01*
X190523570Y-109178808D02*
X190637856Y-109150236D01*
X190637856Y-109150236D02*
X190694999Y-109121665D01*
X190694999Y-109121665D02*
X190723570Y-109093093D01*
X190723570Y-109093093D02*
X190752142Y-109035951D01*
X190752142Y-109035951D02*
X190752142Y-108978808D01*
X190752142Y-108978808D02*
X190723570Y-108921665D01*
X190723570Y-108921665D02*
X190694999Y-108893093D01*
X190694999Y-108893093D02*
X190637856Y-108864522D01*
X190637856Y-108864522D02*
X190494999Y-108864522D01*
X190494999Y-108864522D02*
X190409285Y-108893093D01*
X190152141Y-109464522D02*
X190152141Y-108864522D01*
X190152141Y-109150236D02*
X189809284Y-109150236D01*
X189809284Y-109464522D02*
X189809284Y-108864522D01*
X189409285Y-108864522D02*
X189294999Y-108864522D01*
X189294999Y-108864522D02*
X189237856Y-108893093D01*
X189237856Y-108893093D02*
X189180713Y-108950236D01*
X189180713Y-108950236D02*
X189152142Y-109064522D01*
X189152142Y-109064522D02*
X189152142Y-109264522D01*
X189152142Y-109264522D02*
X189180713Y-109378808D01*
X189180713Y-109378808D02*
X189237856Y-109435951D01*
X189237856Y-109435951D02*
X189294999Y-109464522D01*
X189294999Y-109464522D02*
X189409285Y-109464522D01*
X189409285Y-109464522D02*
X189466428Y-109435951D01*
X189466428Y-109435951D02*
X189523570Y-109378808D01*
X189523570Y-109378808D02*
X189552142Y-109264522D01*
X189552142Y-109264522D02*
X189552142Y-109064522D01*
X189552142Y-109064522D02*
X189523570Y-108950236D01*
X189523570Y-108950236D02*
X189466428Y-108893093D01*
X189466428Y-108893093D02*
X189409285Y-108864522D01*
X188552142Y-109464522D02*
X188752142Y-109178808D01*
X188894999Y-109464522D02*
X188894999Y-108864522D01*
X188894999Y-108864522D02*
X188666428Y-108864522D01*
X188666428Y-108864522D02*
X188609285Y-108893093D01*
X188609285Y-108893093D02*
X188580714Y-108921665D01*
X188580714Y-108921665D02*
X188552142Y-108978808D01*
X188552142Y-108978808D02*
X188552142Y-109064522D01*
X188552142Y-109064522D02*
X188580714Y-109121665D01*
X188580714Y-109121665D02*
X188609285Y-109150236D01*
X188609285Y-109150236D02*
X188666428Y-109178808D01*
X188666428Y-109178808D02*
X188894999Y-109178808D01*
X188380714Y-108864522D02*
X188037857Y-108864522D01*
X188209285Y-109464522D02*
X188209285Y-108864522D01*
X187294999Y-109464522D02*
X187352142Y-109435951D01*
X187352142Y-109435951D02*
X187380713Y-109378808D01*
X187380713Y-109378808D02*
X187380713Y-108864522D01*
X186837856Y-109435951D02*
X186894999Y-109464522D01*
X186894999Y-109464522D02*
X187009285Y-109464522D01*
X187009285Y-109464522D02*
X187066427Y-109435951D01*
X187066427Y-109435951D02*
X187094999Y-109378808D01*
X187094999Y-109378808D02*
X187094999Y-109150236D01*
X187094999Y-109150236D02*
X187066427Y-109093093D01*
X187066427Y-109093093D02*
X187009285Y-109064522D01*
X187009285Y-109064522D02*
X186894999Y-109064522D01*
X186894999Y-109064522D02*
X186837856Y-109093093D01*
X186837856Y-109093093D02*
X186809285Y-109150236D01*
X186809285Y-109150236D02*
X186809285Y-109207379D01*
X186809285Y-109207379D02*
X187094999Y-109264522D01*
X186294999Y-109064522D02*
X186294999Y-109550236D01*
X186294999Y-109550236D02*
X186323570Y-109607379D01*
X186323570Y-109607379D02*
X186352141Y-109635951D01*
X186352141Y-109635951D02*
X186409284Y-109664522D01*
X186409284Y-109664522D02*
X186494999Y-109664522D01*
X186494999Y-109664522D02*
X186552141Y-109635951D01*
X186294999Y-109435951D02*
X186352141Y-109464522D01*
X186352141Y-109464522D02*
X186466427Y-109464522D01*
X186466427Y-109464522D02*
X186523570Y-109435951D01*
X186523570Y-109435951D02*
X186552141Y-109407379D01*
X186552141Y-109407379D02*
X186580713Y-109350236D01*
X186580713Y-109350236D02*
X186580713Y-109178808D01*
X186580713Y-109178808D02*
X186552141Y-109121665D01*
X186552141Y-109121665D02*
X186523570Y-109093093D01*
X186523570Y-109093093D02*
X186466427Y-109064522D01*
X186466427Y-109064522D02*
X186352141Y-109064522D01*
X186352141Y-109064522D02*
X186294999Y-109093093D01*
X185466427Y-109464522D02*
X185523570Y-109435951D01*
X185523570Y-109435951D02*
X185552141Y-109407379D01*
X185552141Y-109407379D02*
X185580713Y-109350236D01*
X185580713Y-109350236D02*
X185580713Y-109178808D01*
X185580713Y-109178808D02*
X185552141Y-109121665D01*
X185552141Y-109121665D02*
X185523570Y-109093093D01*
X185523570Y-109093093D02*
X185466427Y-109064522D01*
X185466427Y-109064522D02*
X185380713Y-109064522D01*
X185380713Y-109064522D02*
X185323570Y-109093093D01*
X185323570Y-109093093D02*
X185294999Y-109121665D01*
X185294999Y-109121665D02*
X185266427Y-109178808D01*
X185266427Y-109178808D02*
X185266427Y-109350236D01*
X185266427Y-109350236D02*
X185294999Y-109407379D01*
X185294999Y-109407379D02*
X185323570Y-109435951D01*
X185323570Y-109435951D02*
X185380713Y-109464522D01*
X185380713Y-109464522D02*
X185466427Y-109464522D01*
X185094999Y-109064522D02*
X184866427Y-109064522D01*
X185009284Y-109464522D02*
X185009284Y-108950236D01*
X185009284Y-108950236D02*
X184980713Y-108893093D01*
X184980713Y-108893093D02*
X184923570Y-108864522D01*
X184923570Y-108864522D02*
X184866427Y-108864522D01*
X192637856Y-110430488D02*
X192637856Y-110116202D01*
X192637856Y-110116202D02*
X192666427Y-110059059D01*
X192666427Y-110059059D02*
X192723570Y-110030488D01*
X192723570Y-110030488D02*
X192837856Y-110030488D01*
X192837856Y-110030488D02*
X192894998Y-110059059D01*
X192637856Y-110401917D02*
X192694998Y-110430488D01*
X192694998Y-110430488D02*
X192837856Y-110430488D01*
X192837856Y-110430488D02*
X192894998Y-110401917D01*
X192894998Y-110401917D02*
X192923570Y-110344774D01*
X192923570Y-110344774D02*
X192923570Y-110287631D01*
X192923570Y-110287631D02*
X192894998Y-110230488D01*
X192894998Y-110230488D02*
X192837856Y-110201917D01*
X192837856Y-110201917D02*
X192694998Y-110201917D01*
X192694998Y-110201917D02*
X192637856Y-110173345D01*
X192352141Y-110030488D02*
X192352141Y-110430488D01*
X192352141Y-110087631D02*
X192323570Y-110059059D01*
X192323570Y-110059059D02*
X192266427Y-110030488D01*
X192266427Y-110030488D02*
X192180713Y-110030488D01*
X192180713Y-110030488D02*
X192123570Y-110059059D01*
X192123570Y-110059059D02*
X192094999Y-110116202D01*
X192094999Y-110116202D02*
X192094999Y-110430488D01*
X191066427Y-110430488D02*
X191352141Y-110430488D01*
X191352141Y-110430488D02*
X191352141Y-109830488D01*
X190866427Y-110116202D02*
X190666427Y-110116202D01*
X190580713Y-110430488D02*
X190866427Y-110430488D01*
X190866427Y-110430488D02*
X190866427Y-109830488D01*
X190866427Y-109830488D02*
X190580713Y-109830488D01*
X190323570Y-110430488D02*
X190323570Y-109830488D01*
X190323570Y-109830488D02*
X190180713Y-109830488D01*
X190180713Y-109830488D02*
X190094999Y-109859059D01*
X190094999Y-109859059D02*
X190037856Y-109916202D01*
X190037856Y-109916202D02*
X190009285Y-109973345D01*
X190009285Y-109973345D02*
X189980713Y-110087631D01*
X189980713Y-110087631D02*
X189980713Y-110173345D01*
X189980713Y-110173345D02*
X190009285Y-110287631D01*
X190009285Y-110287631D02*
X190037856Y-110344774D01*
X190037856Y-110344774D02*
X190094999Y-110401917D01*
X190094999Y-110401917D02*
X190180713Y-110430488D01*
X190180713Y-110430488D02*
X190323570Y-110430488D01*
X189266427Y-110430488D02*
X189266427Y-110030488D01*
X189266427Y-109830488D02*
X189294999Y-109859059D01*
X189294999Y-109859059D02*
X189266427Y-109887631D01*
X189266427Y-109887631D02*
X189237856Y-109859059D01*
X189237856Y-109859059D02*
X189266427Y-109830488D01*
X189266427Y-109830488D02*
X189266427Y-109887631D01*
X189009285Y-110401917D02*
X188952142Y-110430488D01*
X188952142Y-110430488D02*
X188837856Y-110430488D01*
X188837856Y-110430488D02*
X188780713Y-110401917D01*
X188780713Y-110401917D02*
X188752142Y-110344774D01*
X188752142Y-110344774D02*
X188752142Y-110316202D01*
X188752142Y-110316202D02*
X188780713Y-110259059D01*
X188780713Y-110259059D02*
X188837856Y-110230488D01*
X188837856Y-110230488D02*
X188923571Y-110230488D01*
X188923571Y-110230488D02*
X188980713Y-110201917D01*
X188980713Y-110201917D02*
X189009285Y-110144774D01*
X189009285Y-110144774D02*
X189009285Y-110116202D01*
X189009285Y-110116202D02*
X188980713Y-110059059D01*
X188980713Y-110059059D02*
X188923571Y-110030488D01*
X188923571Y-110030488D02*
X188837856Y-110030488D01*
X188837856Y-110030488D02*
X188780713Y-110059059D01*
X188037856Y-110030488D02*
X188037856Y-110430488D01*
X188037856Y-110087631D02*
X188009285Y-110059059D01*
X188009285Y-110059059D02*
X187952142Y-110030488D01*
X187952142Y-110030488D02*
X187866428Y-110030488D01*
X187866428Y-110030488D02*
X187809285Y-110059059D01*
X187809285Y-110059059D02*
X187780714Y-110116202D01*
X187780714Y-110116202D02*
X187780714Y-110430488D01*
X187266428Y-110401917D02*
X187323571Y-110430488D01*
X187323571Y-110430488D02*
X187437857Y-110430488D01*
X187437857Y-110430488D02*
X187494999Y-110401917D01*
X187494999Y-110401917D02*
X187523571Y-110344774D01*
X187523571Y-110344774D02*
X187523571Y-110116202D01*
X187523571Y-110116202D02*
X187494999Y-110059059D01*
X187494999Y-110059059D02*
X187437857Y-110030488D01*
X187437857Y-110030488D02*
X187323571Y-110030488D01*
X187323571Y-110030488D02*
X187266428Y-110059059D01*
X187266428Y-110059059D02*
X187237857Y-110116202D01*
X187237857Y-110116202D02*
X187237857Y-110173345D01*
X187237857Y-110173345D02*
X187523571Y-110230488D01*
X186723571Y-110030488D02*
X186723571Y-110516202D01*
X186723571Y-110516202D02*
X186752142Y-110573345D01*
X186752142Y-110573345D02*
X186780713Y-110601917D01*
X186780713Y-110601917D02*
X186837856Y-110630488D01*
X186837856Y-110630488D02*
X186923571Y-110630488D01*
X186923571Y-110630488D02*
X186980713Y-110601917D01*
X186723571Y-110401917D02*
X186780713Y-110430488D01*
X186780713Y-110430488D02*
X186894999Y-110430488D01*
X186894999Y-110430488D02*
X186952142Y-110401917D01*
X186952142Y-110401917D02*
X186980713Y-110373345D01*
X186980713Y-110373345D02*
X187009285Y-110316202D01*
X187009285Y-110316202D02*
X187009285Y-110144774D01*
X187009285Y-110144774D02*
X186980713Y-110087631D01*
X186980713Y-110087631D02*
X186952142Y-110059059D01*
X186952142Y-110059059D02*
X186894999Y-110030488D01*
X186894999Y-110030488D02*
X186780713Y-110030488D01*
X186780713Y-110030488D02*
X186723571Y-110059059D01*
X186180714Y-110430488D02*
X186180714Y-110116202D01*
X186180714Y-110116202D02*
X186209285Y-110059059D01*
X186209285Y-110059059D02*
X186266428Y-110030488D01*
X186266428Y-110030488D02*
X186380714Y-110030488D01*
X186380714Y-110030488D02*
X186437856Y-110059059D01*
X186180714Y-110401917D02*
X186237856Y-110430488D01*
X186237856Y-110430488D02*
X186380714Y-110430488D01*
X186380714Y-110430488D02*
X186437856Y-110401917D01*
X186437856Y-110401917D02*
X186466428Y-110344774D01*
X186466428Y-110344774D02*
X186466428Y-110287631D01*
X186466428Y-110287631D02*
X186437856Y-110230488D01*
X186437856Y-110230488D02*
X186380714Y-110201917D01*
X186380714Y-110201917D02*
X186237856Y-110201917D01*
X186237856Y-110201917D02*
X186180714Y-110173345D01*
X185980714Y-110030488D02*
X185752142Y-110030488D01*
X185894999Y-109830488D02*
X185894999Y-110344774D01*
X185894999Y-110344774D02*
X185866428Y-110401917D01*
X185866428Y-110401917D02*
X185809285Y-110430488D01*
X185809285Y-110430488D02*
X185752142Y-110430488D01*
X185552142Y-110430488D02*
X185552142Y-110030488D01*
X185552142Y-109830488D02*
X185580714Y-109859059D01*
X185580714Y-109859059D02*
X185552142Y-109887631D01*
X185552142Y-109887631D02*
X185523571Y-109859059D01*
X185523571Y-109859059D02*
X185552142Y-109830488D01*
X185552142Y-109830488D02*
X185552142Y-109887631D01*
X185323571Y-110030488D02*
X185180714Y-110430488D01*
X185180714Y-110430488D02*
X185037857Y-110030488D01*
X184580714Y-110401917D02*
X184637857Y-110430488D01*
X184637857Y-110430488D02*
X184752143Y-110430488D01*
X184752143Y-110430488D02*
X184809285Y-110401917D01*
X184809285Y-110401917D02*
X184837857Y-110344774D01*
X184837857Y-110344774D02*
X184837857Y-110116202D01*
X184837857Y-110116202D02*
X184809285Y-110059059D01*
X184809285Y-110059059D02*
X184752143Y-110030488D01*
X184752143Y-110030488D02*
X184637857Y-110030488D01*
X184637857Y-110030488D02*
X184580714Y-110059059D01*
X184580714Y-110059059D02*
X184552143Y-110116202D01*
X184552143Y-110116202D02*
X184552143Y-110173345D01*
X184552143Y-110173345D02*
X184837857Y-110230488D01*
X184294999Y-110373345D02*
X184266428Y-110401917D01*
X184266428Y-110401917D02*
X184294999Y-110430488D01*
X184294999Y-110430488D02*
X184323571Y-110401917D01*
X184323571Y-110401917D02*
X184294999Y-110373345D01*
X184294999Y-110373345D02*
X184294999Y-110430488D01*
X192709285Y-111396454D02*
X192709285Y-110796454D01*
X192709285Y-110796454D02*
X192480714Y-110796454D01*
X192480714Y-110796454D02*
X192423571Y-110825025D01*
X192423571Y-110825025D02*
X192395000Y-110853597D01*
X192395000Y-110853597D02*
X192366428Y-110910740D01*
X192366428Y-110910740D02*
X192366428Y-110996454D01*
X192366428Y-110996454D02*
X192395000Y-111053597D01*
X192395000Y-111053597D02*
X192423571Y-111082168D01*
X192423571Y-111082168D02*
X192480714Y-111110740D01*
X192480714Y-111110740D02*
X192709285Y-111110740D01*
X191852143Y-110996454D02*
X191852143Y-111396454D01*
X192109285Y-110996454D02*
X192109285Y-111310740D01*
X192109285Y-111310740D02*
X192080714Y-111367883D01*
X192080714Y-111367883D02*
X192023571Y-111396454D01*
X192023571Y-111396454D02*
X191937857Y-111396454D01*
X191937857Y-111396454D02*
X191880714Y-111367883D01*
X191880714Y-111367883D02*
X191852143Y-111339311D01*
X191652143Y-110996454D02*
X191423571Y-110996454D01*
X191566428Y-110796454D02*
X191566428Y-111310740D01*
X191566428Y-111310740D02*
X191537857Y-111367883D01*
X191537857Y-111367883D02*
X191480714Y-111396454D01*
X191480714Y-111396454D02*
X191423571Y-111396454D01*
X190852143Y-110996454D02*
X190623571Y-110996454D01*
X190766428Y-110796454D02*
X190766428Y-111310740D01*
X190766428Y-111310740D02*
X190737857Y-111367883D01*
X190737857Y-111367883D02*
X190680714Y-111396454D01*
X190680714Y-111396454D02*
X190623571Y-111396454D01*
X190423571Y-111396454D02*
X190423571Y-110796454D01*
X190166429Y-111396454D02*
X190166429Y-111082168D01*
X190166429Y-111082168D02*
X190195000Y-111025025D01*
X190195000Y-111025025D02*
X190252143Y-110996454D01*
X190252143Y-110996454D02*
X190337857Y-110996454D01*
X190337857Y-110996454D02*
X190395000Y-111025025D01*
X190395000Y-111025025D02*
X190423571Y-111053597D01*
X189652143Y-111367883D02*
X189709286Y-111396454D01*
X189709286Y-111396454D02*
X189823572Y-111396454D01*
X189823572Y-111396454D02*
X189880714Y-111367883D01*
X189880714Y-111367883D02*
X189909286Y-111310740D01*
X189909286Y-111310740D02*
X189909286Y-111082168D01*
X189909286Y-111082168D02*
X189880714Y-111025025D01*
X189880714Y-111025025D02*
X189823572Y-110996454D01*
X189823572Y-110996454D02*
X189709286Y-110996454D01*
X189709286Y-110996454D02*
X189652143Y-111025025D01*
X189652143Y-111025025D02*
X189623572Y-111082168D01*
X189623572Y-111082168D02*
X189623572Y-111139311D01*
X189623572Y-111139311D02*
X189909286Y-111196454D01*
X188937857Y-111367883D02*
X188852143Y-111396454D01*
X188852143Y-111396454D02*
X188709285Y-111396454D01*
X188709285Y-111396454D02*
X188652143Y-111367883D01*
X188652143Y-111367883D02*
X188623571Y-111339311D01*
X188623571Y-111339311D02*
X188595000Y-111282168D01*
X188595000Y-111282168D02*
X188595000Y-111225025D01*
X188595000Y-111225025D02*
X188623571Y-111167883D01*
X188623571Y-111167883D02*
X188652143Y-111139311D01*
X188652143Y-111139311D02*
X188709285Y-111110740D01*
X188709285Y-111110740D02*
X188823571Y-111082168D01*
X188823571Y-111082168D02*
X188880714Y-111053597D01*
X188880714Y-111053597D02*
X188909285Y-111025025D01*
X188909285Y-111025025D02*
X188937857Y-110967883D01*
X188937857Y-110967883D02*
X188937857Y-110910740D01*
X188937857Y-110910740D02*
X188909285Y-110853597D01*
X188909285Y-110853597D02*
X188880714Y-110825025D01*
X188880714Y-110825025D02*
X188823571Y-110796454D01*
X188823571Y-110796454D02*
X188680714Y-110796454D01*
X188680714Y-110796454D02*
X188595000Y-110825025D01*
X188337856Y-111396454D02*
X188337856Y-110796454D01*
X188337856Y-111082168D02*
X187994999Y-111082168D01*
X187994999Y-111396454D02*
X187994999Y-110796454D01*
X187595000Y-110796454D02*
X187480714Y-110796454D01*
X187480714Y-110796454D02*
X187423571Y-110825025D01*
X187423571Y-110825025D02*
X187366428Y-110882168D01*
X187366428Y-110882168D02*
X187337857Y-110996454D01*
X187337857Y-110996454D02*
X187337857Y-111196454D01*
X187337857Y-111196454D02*
X187366428Y-111310740D01*
X187366428Y-111310740D02*
X187423571Y-111367883D01*
X187423571Y-111367883D02*
X187480714Y-111396454D01*
X187480714Y-111396454D02*
X187595000Y-111396454D01*
X187595000Y-111396454D02*
X187652143Y-111367883D01*
X187652143Y-111367883D02*
X187709285Y-111310740D01*
X187709285Y-111310740D02*
X187737857Y-111196454D01*
X187737857Y-111196454D02*
X187737857Y-110996454D01*
X187737857Y-110996454D02*
X187709285Y-110882168D01*
X187709285Y-110882168D02*
X187652143Y-110825025D01*
X187652143Y-110825025D02*
X187595000Y-110796454D01*
X186737857Y-111396454D02*
X186937857Y-111110740D01*
X187080714Y-111396454D02*
X187080714Y-110796454D01*
X187080714Y-110796454D02*
X186852143Y-110796454D01*
X186852143Y-110796454D02*
X186795000Y-110825025D01*
X186795000Y-110825025D02*
X186766429Y-110853597D01*
X186766429Y-110853597D02*
X186737857Y-110910740D01*
X186737857Y-110910740D02*
X186737857Y-110996454D01*
X186737857Y-110996454D02*
X186766429Y-111053597D01*
X186766429Y-111053597D02*
X186795000Y-111082168D01*
X186795000Y-111082168D02*
X186852143Y-111110740D01*
X186852143Y-111110740D02*
X187080714Y-111110740D01*
X186566429Y-110796454D02*
X186223572Y-110796454D01*
X186395000Y-111396454D02*
X186395000Y-110796454D01*
X185480714Y-111396454D02*
X185537857Y-111367883D01*
X185537857Y-111367883D02*
X185566428Y-111310740D01*
X185566428Y-111310740D02*
X185566428Y-110796454D01*
X185023571Y-111367883D02*
X185080714Y-111396454D01*
X185080714Y-111396454D02*
X185195000Y-111396454D01*
X185195000Y-111396454D02*
X185252142Y-111367883D01*
X185252142Y-111367883D02*
X185280714Y-111310740D01*
X185280714Y-111310740D02*
X185280714Y-111082168D01*
X185280714Y-111082168D02*
X185252142Y-111025025D01*
X185252142Y-111025025D02*
X185195000Y-110996454D01*
X185195000Y-110996454D02*
X185080714Y-110996454D01*
X185080714Y-110996454D02*
X185023571Y-111025025D01*
X185023571Y-111025025D02*
X184995000Y-111082168D01*
X184995000Y-111082168D02*
X184995000Y-111139311D01*
X184995000Y-111139311D02*
X185280714Y-111196454D01*
X184480714Y-110996454D02*
X184480714Y-111482168D01*
X184480714Y-111482168D02*
X184509285Y-111539311D01*
X184509285Y-111539311D02*
X184537856Y-111567883D01*
X184537856Y-111567883D02*
X184594999Y-111596454D01*
X184594999Y-111596454D02*
X184680714Y-111596454D01*
X184680714Y-111596454D02*
X184737856Y-111567883D01*
X184480714Y-111367883D02*
X184537856Y-111396454D01*
X184537856Y-111396454D02*
X184652142Y-111396454D01*
X184652142Y-111396454D02*
X184709285Y-111367883D01*
X184709285Y-111367883D02*
X184737856Y-111339311D01*
X184737856Y-111339311D02*
X184766428Y-111282168D01*
X184766428Y-111282168D02*
X184766428Y-111110740D01*
X184766428Y-111110740D02*
X184737856Y-111053597D01*
X184737856Y-111053597D02*
X184709285Y-111025025D01*
X184709285Y-111025025D02*
X184652142Y-110996454D01*
X184652142Y-110996454D02*
X184537856Y-110996454D01*
X184537856Y-110996454D02*
X184480714Y-111025025D01*
X193537856Y-112362420D02*
X193537856Y-111962420D01*
X193537856Y-111762420D02*
X193566428Y-111790991D01*
X193566428Y-111790991D02*
X193537856Y-111819563D01*
X193537856Y-111819563D02*
X193509285Y-111790991D01*
X193509285Y-111790991D02*
X193537856Y-111762420D01*
X193537856Y-111762420D02*
X193537856Y-111819563D01*
X193252142Y-111962420D02*
X193252142Y-112362420D01*
X193252142Y-112019563D02*
X193223571Y-111990991D01*
X193223571Y-111990991D02*
X193166428Y-111962420D01*
X193166428Y-111962420D02*
X193080714Y-111962420D01*
X193080714Y-111962420D02*
X193023571Y-111990991D01*
X193023571Y-111990991D02*
X192995000Y-112048134D01*
X192995000Y-112048134D02*
X192995000Y-112362420D01*
X192795000Y-111962420D02*
X192566428Y-111962420D01*
X192709285Y-111762420D02*
X192709285Y-112276706D01*
X192709285Y-112276706D02*
X192680714Y-112333849D01*
X192680714Y-112333849D02*
X192623571Y-112362420D01*
X192623571Y-112362420D02*
X192566428Y-112362420D01*
X192280714Y-112362420D02*
X192337857Y-112333849D01*
X192337857Y-112333849D02*
X192366428Y-112305277D01*
X192366428Y-112305277D02*
X192395000Y-112248134D01*
X192395000Y-112248134D02*
X192395000Y-112076706D01*
X192395000Y-112076706D02*
X192366428Y-112019563D01*
X192366428Y-112019563D02*
X192337857Y-111990991D01*
X192337857Y-111990991D02*
X192280714Y-111962420D01*
X192280714Y-111962420D02*
X192195000Y-111962420D01*
X192195000Y-111962420D02*
X192137857Y-111990991D01*
X192137857Y-111990991D02*
X192109286Y-112019563D01*
X192109286Y-112019563D02*
X192080714Y-112076706D01*
X192080714Y-112076706D02*
X192080714Y-112248134D01*
X192080714Y-112248134D02*
X192109286Y-112305277D01*
X192109286Y-112305277D02*
X192137857Y-112333849D01*
X192137857Y-112333849D02*
X192195000Y-112362420D01*
X192195000Y-112362420D02*
X192280714Y-112362420D01*
X191452143Y-111962420D02*
X191223571Y-111962420D01*
X191366428Y-111762420D02*
X191366428Y-112276706D01*
X191366428Y-112276706D02*
X191337857Y-112333849D01*
X191337857Y-112333849D02*
X191280714Y-112362420D01*
X191280714Y-112362420D02*
X191223571Y-112362420D01*
X191023571Y-112362420D02*
X191023571Y-111762420D01*
X190766429Y-112362420D02*
X190766429Y-112048134D01*
X190766429Y-112048134D02*
X190795000Y-111990991D01*
X190795000Y-111990991D02*
X190852143Y-111962420D01*
X190852143Y-111962420D02*
X190937857Y-111962420D01*
X190937857Y-111962420D02*
X190995000Y-111990991D01*
X190995000Y-111990991D02*
X191023571Y-112019563D01*
X190252143Y-112333849D02*
X190309286Y-112362420D01*
X190309286Y-112362420D02*
X190423572Y-112362420D01*
X190423572Y-112362420D02*
X190480714Y-112333849D01*
X190480714Y-112333849D02*
X190509286Y-112276706D01*
X190509286Y-112276706D02*
X190509286Y-112048134D01*
X190509286Y-112048134D02*
X190480714Y-111990991D01*
X190480714Y-111990991D02*
X190423572Y-111962420D01*
X190423572Y-111962420D02*
X190309286Y-111962420D01*
X190309286Y-111962420D02*
X190252143Y-111990991D01*
X190252143Y-111990991D02*
X190223572Y-112048134D01*
X190223572Y-112048134D02*
X190223572Y-112105277D01*
X190223572Y-112105277D02*
X190509286Y-112162420D01*
X189537857Y-112333849D02*
X189452143Y-112362420D01*
X189452143Y-112362420D02*
X189309285Y-112362420D01*
X189309285Y-112362420D02*
X189252143Y-112333849D01*
X189252143Y-112333849D02*
X189223571Y-112305277D01*
X189223571Y-112305277D02*
X189195000Y-112248134D01*
X189195000Y-112248134D02*
X189195000Y-112190991D01*
X189195000Y-112190991D02*
X189223571Y-112133849D01*
X189223571Y-112133849D02*
X189252143Y-112105277D01*
X189252143Y-112105277D02*
X189309285Y-112076706D01*
X189309285Y-112076706D02*
X189423571Y-112048134D01*
X189423571Y-112048134D02*
X189480714Y-112019563D01*
X189480714Y-112019563D02*
X189509285Y-111990991D01*
X189509285Y-111990991D02*
X189537857Y-111933849D01*
X189537857Y-111933849D02*
X189537857Y-111876706D01*
X189537857Y-111876706D02*
X189509285Y-111819563D01*
X189509285Y-111819563D02*
X189480714Y-111790991D01*
X189480714Y-111790991D02*
X189423571Y-111762420D01*
X189423571Y-111762420D02*
X189280714Y-111762420D01*
X189280714Y-111762420D02*
X189195000Y-111790991D01*
X188537856Y-112419563D02*
X188594999Y-112390991D01*
X188594999Y-112390991D02*
X188652142Y-112333849D01*
X188652142Y-112333849D02*
X188737856Y-112248134D01*
X188737856Y-112248134D02*
X188794999Y-112219563D01*
X188794999Y-112219563D02*
X188852142Y-112219563D01*
X188823571Y-112362420D02*
X188880714Y-112333849D01*
X188880714Y-112333849D02*
X188937856Y-112276706D01*
X188937856Y-112276706D02*
X188966428Y-112162420D01*
X188966428Y-112162420D02*
X188966428Y-111962420D01*
X188966428Y-111962420D02*
X188937856Y-111848134D01*
X188937856Y-111848134D02*
X188880714Y-111790991D01*
X188880714Y-111790991D02*
X188823571Y-111762420D01*
X188823571Y-111762420D02*
X188709285Y-111762420D01*
X188709285Y-111762420D02*
X188652142Y-111790991D01*
X188652142Y-111790991D02*
X188594999Y-111848134D01*
X188594999Y-111848134D02*
X188566428Y-111962420D01*
X188566428Y-111962420D02*
X188566428Y-112162420D01*
X188566428Y-112162420D02*
X188594999Y-112276706D01*
X188594999Y-112276706D02*
X188652142Y-112333849D01*
X188652142Y-112333849D02*
X188709285Y-112362420D01*
X188709285Y-112362420D02*
X188823571Y-112362420D01*
X188309285Y-111762420D02*
X188309285Y-112248134D01*
X188309285Y-112248134D02*
X188280714Y-112305277D01*
X188280714Y-112305277D02*
X188252143Y-112333849D01*
X188252143Y-112333849D02*
X188195000Y-112362420D01*
X188195000Y-112362420D02*
X188080714Y-112362420D01*
X188080714Y-112362420D02*
X188023571Y-112333849D01*
X188023571Y-112333849D02*
X187995000Y-112305277D01*
X187995000Y-112305277D02*
X187966428Y-112248134D01*
X187966428Y-112248134D02*
X187966428Y-111762420D01*
X187709286Y-112190991D02*
X187423572Y-112190991D01*
X187766429Y-112362420D02*
X187566429Y-111762420D01*
X187566429Y-111762420D02*
X187366429Y-112362420D01*
X186823571Y-112362420D02*
X187023571Y-112076706D01*
X187166428Y-112362420D02*
X187166428Y-111762420D01*
X187166428Y-111762420D02*
X186937857Y-111762420D01*
X186937857Y-111762420D02*
X186880714Y-111790991D01*
X186880714Y-111790991D02*
X186852143Y-111819563D01*
X186852143Y-111819563D02*
X186823571Y-111876706D01*
X186823571Y-111876706D02*
X186823571Y-111962420D01*
X186823571Y-111962420D02*
X186852143Y-112019563D01*
X186852143Y-112019563D02*
X186880714Y-112048134D01*
X186880714Y-112048134D02*
X186937857Y-112076706D01*
X186937857Y-112076706D02*
X187166428Y-112076706D01*
X186566428Y-112048134D02*
X186366428Y-112048134D01*
X186280714Y-112362420D02*
X186566428Y-112362420D01*
X186566428Y-112362420D02*
X186566428Y-111762420D01*
X186566428Y-111762420D02*
X186280714Y-111762420D01*
X185566428Y-112362420D02*
X185566428Y-111762420D01*
X185309286Y-112362420D02*
X185309286Y-112048134D01*
X185309286Y-112048134D02*
X185337857Y-111990991D01*
X185337857Y-111990991D02*
X185395000Y-111962420D01*
X185395000Y-111962420D02*
X185480714Y-111962420D01*
X185480714Y-111962420D02*
X185537857Y-111990991D01*
X185537857Y-111990991D02*
X185566428Y-112019563D01*
X184937857Y-112362420D02*
X184995000Y-112333849D01*
X184995000Y-112333849D02*
X185023571Y-112305277D01*
X185023571Y-112305277D02*
X185052143Y-112248134D01*
X185052143Y-112248134D02*
X185052143Y-112076706D01*
X185052143Y-112076706D02*
X185023571Y-112019563D01*
X185023571Y-112019563D02*
X184995000Y-111990991D01*
X184995000Y-111990991D02*
X184937857Y-111962420D01*
X184937857Y-111962420D02*
X184852143Y-111962420D01*
X184852143Y-111962420D02*
X184795000Y-111990991D01*
X184795000Y-111990991D02*
X184766429Y-112019563D01*
X184766429Y-112019563D02*
X184737857Y-112076706D01*
X184737857Y-112076706D02*
X184737857Y-112248134D01*
X184737857Y-112248134D02*
X184766429Y-112305277D01*
X184766429Y-112305277D02*
X184795000Y-112333849D01*
X184795000Y-112333849D02*
X184852143Y-112362420D01*
X184852143Y-112362420D02*
X184937857Y-112362420D01*
X184395000Y-112362420D02*
X184452143Y-112333849D01*
X184452143Y-112333849D02*
X184480714Y-112276706D01*
X184480714Y-112276706D02*
X184480714Y-111762420D01*
X183937857Y-112333849D02*
X183995000Y-112362420D01*
X183995000Y-112362420D02*
X184109286Y-112362420D01*
X184109286Y-112362420D02*
X184166428Y-112333849D01*
X184166428Y-112333849D02*
X184195000Y-112276706D01*
X184195000Y-112276706D02*
X184195000Y-112048134D01*
X184195000Y-112048134D02*
X184166428Y-111990991D01*
X184166428Y-111990991D02*
X184109286Y-111962420D01*
X184109286Y-111962420D02*
X183995000Y-111962420D01*
X183995000Y-111962420D02*
X183937857Y-111990991D01*
X183937857Y-111990991D02*
X183909286Y-112048134D01*
X183909286Y-112048134D02*
X183909286Y-112105277D01*
X183909286Y-112105277D02*
X184195000Y-112162420D01*
X183652142Y-112305277D02*
X183623571Y-112333849D01*
X183623571Y-112333849D02*
X183652142Y-112362420D01*
X183652142Y-112362420D02*
X183680714Y-112333849D01*
X183680714Y-112333849D02*
X183652142Y-112305277D01*
X183652142Y-112305277D02*
X183652142Y-112362420D01*
D12*
X142977144Y-86896931D02*
X142977144Y-85896931D01*
X142977144Y-85896931D02*
X142643811Y-86611216D01*
X142643811Y-86611216D02*
X142310478Y-85896931D01*
X142310478Y-85896931D02*
X142310478Y-86896931D01*
X141453335Y-86849312D02*
X141548573Y-86896931D01*
X141548573Y-86896931D02*
X141739049Y-86896931D01*
X141739049Y-86896931D02*
X141834287Y-86849312D01*
X141834287Y-86849312D02*
X141881906Y-86754073D01*
X141881906Y-86754073D02*
X141881906Y-86373121D01*
X141881906Y-86373121D02*
X141834287Y-86277883D01*
X141834287Y-86277883D02*
X141739049Y-86230264D01*
X141739049Y-86230264D02*
X141548573Y-86230264D01*
X141548573Y-86230264D02*
X141453335Y-86277883D01*
X141453335Y-86277883D02*
X141405716Y-86373121D01*
X141405716Y-86373121D02*
X141405716Y-86468359D01*
X141405716Y-86468359D02*
X141881906Y-86563597D01*
X140834287Y-86896931D02*
X140929525Y-86849312D01*
X140929525Y-86849312D02*
X140977144Y-86754073D01*
X140977144Y-86754073D02*
X140977144Y-85896931D01*
X140596191Y-86230264D02*
X140215239Y-86230264D01*
X140453334Y-85896931D02*
X140453334Y-86754073D01*
X140453334Y-86754073D02*
X140405715Y-86849312D01*
X140405715Y-86849312D02*
X140310477Y-86896931D01*
X140310477Y-86896931D02*
X140215239Y-86896931D01*
X139167619Y-86849312D02*
X139072381Y-86896931D01*
X139072381Y-86896931D02*
X138881905Y-86896931D01*
X138881905Y-86896931D02*
X138786667Y-86849312D01*
X138786667Y-86849312D02*
X138739048Y-86754073D01*
X138739048Y-86754073D02*
X138739048Y-86706454D01*
X138739048Y-86706454D02*
X138786667Y-86611216D01*
X138786667Y-86611216D02*
X138881905Y-86563597D01*
X138881905Y-86563597D02*
X139024762Y-86563597D01*
X139024762Y-86563597D02*
X139120000Y-86515978D01*
X139120000Y-86515978D02*
X139167619Y-86420740D01*
X139167619Y-86420740D02*
X139167619Y-86373121D01*
X139167619Y-86373121D02*
X139120000Y-86277883D01*
X139120000Y-86277883D02*
X139024762Y-86230264D01*
X139024762Y-86230264D02*
X138881905Y-86230264D01*
X138881905Y-86230264D02*
X138786667Y-86277883D01*
X138167619Y-86896931D02*
X138262857Y-86849312D01*
X138262857Y-86849312D02*
X138310476Y-86801692D01*
X138310476Y-86801692D02*
X138358095Y-86706454D01*
X138358095Y-86706454D02*
X138358095Y-86420740D01*
X138358095Y-86420740D02*
X138310476Y-86325502D01*
X138310476Y-86325502D02*
X138262857Y-86277883D01*
X138262857Y-86277883D02*
X138167619Y-86230264D01*
X138167619Y-86230264D02*
X138024762Y-86230264D01*
X138024762Y-86230264D02*
X137929524Y-86277883D01*
X137929524Y-86277883D02*
X137881905Y-86325502D01*
X137881905Y-86325502D02*
X137834286Y-86420740D01*
X137834286Y-86420740D02*
X137834286Y-86706454D01*
X137834286Y-86706454D02*
X137881905Y-86801692D01*
X137881905Y-86801692D02*
X137929524Y-86849312D01*
X137929524Y-86849312D02*
X138024762Y-86896931D01*
X138024762Y-86896931D02*
X138167619Y-86896931D01*
X137405714Y-86896931D02*
X137405714Y-86230264D01*
X137405714Y-86325502D02*
X137358095Y-86277883D01*
X137358095Y-86277883D02*
X137262857Y-86230264D01*
X137262857Y-86230264D02*
X137120000Y-86230264D01*
X137120000Y-86230264D02*
X137024762Y-86277883D01*
X137024762Y-86277883D02*
X136977143Y-86373121D01*
X136977143Y-86373121D02*
X136977143Y-86896931D01*
X136977143Y-86373121D02*
X136929524Y-86277883D01*
X136929524Y-86277883D02*
X136834286Y-86230264D01*
X136834286Y-86230264D02*
X136691429Y-86230264D01*
X136691429Y-86230264D02*
X136596190Y-86277883D01*
X136596190Y-86277883D02*
X136548571Y-86373121D01*
X136548571Y-86373121D02*
X136548571Y-86896931D01*
X135691429Y-86849312D02*
X135786667Y-86896931D01*
X135786667Y-86896931D02*
X135977143Y-86896931D01*
X135977143Y-86896931D02*
X136072381Y-86849312D01*
X136072381Y-86849312D02*
X136120000Y-86754073D01*
X136120000Y-86754073D02*
X136120000Y-86373121D01*
X136120000Y-86373121D02*
X136072381Y-86277883D01*
X136072381Y-86277883D02*
X135977143Y-86230264D01*
X135977143Y-86230264D02*
X135786667Y-86230264D01*
X135786667Y-86230264D02*
X135691429Y-86277883D01*
X135691429Y-86277883D02*
X135643810Y-86373121D01*
X135643810Y-86373121D02*
X135643810Y-86468359D01*
X135643810Y-86468359D02*
X136120000Y-86563597D01*
X134500952Y-86849312D02*
X134405714Y-86896931D01*
X134405714Y-86896931D02*
X134215238Y-86896931D01*
X134215238Y-86896931D02*
X134120000Y-86849312D01*
X134120000Y-86849312D02*
X134072381Y-86754073D01*
X134072381Y-86754073D02*
X134072381Y-86706454D01*
X134072381Y-86706454D02*
X134120000Y-86611216D01*
X134120000Y-86611216D02*
X134215238Y-86563597D01*
X134215238Y-86563597D02*
X134358095Y-86563597D01*
X134358095Y-86563597D02*
X134453333Y-86515978D01*
X134453333Y-86515978D02*
X134500952Y-86420740D01*
X134500952Y-86420740D02*
X134500952Y-86373121D01*
X134500952Y-86373121D02*
X134453333Y-86277883D01*
X134453333Y-86277883D02*
X134358095Y-86230264D01*
X134358095Y-86230264D02*
X134215238Y-86230264D01*
X134215238Y-86230264D02*
X134120000Y-86277883D01*
X133500952Y-86896931D02*
X133596190Y-86849312D01*
X133596190Y-86849312D02*
X133643809Y-86801692D01*
X133643809Y-86801692D02*
X133691428Y-86706454D01*
X133691428Y-86706454D02*
X133691428Y-86420740D01*
X133691428Y-86420740D02*
X133643809Y-86325502D01*
X133643809Y-86325502D02*
X133596190Y-86277883D01*
X133596190Y-86277883D02*
X133500952Y-86230264D01*
X133500952Y-86230264D02*
X133358095Y-86230264D01*
X133358095Y-86230264D02*
X133262857Y-86277883D01*
X133262857Y-86277883D02*
X133215238Y-86325502D01*
X133215238Y-86325502D02*
X133167619Y-86420740D01*
X133167619Y-86420740D02*
X133167619Y-86706454D01*
X133167619Y-86706454D02*
X133215238Y-86801692D01*
X133215238Y-86801692D02*
X133262857Y-86849312D01*
X133262857Y-86849312D02*
X133358095Y-86896931D01*
X133358095Y-86896931D02*
X133500952Y-86896931D01*
X132596190Y-86896931D02*
X132691428Y-86849312D01*
X132691428Y-86849312D02*
X132739047Y-86754073D01*
X132739047Y-86754073D02*
X132739047Y-85896931D01*
X131786666Y-86896931D02*
X131786666Y-85896931D01*
X131786666Y-86849312D02*
X131881904Y-86896931D01*
X131881904Y-86896931D02*
X132072380Y-86896931D01*
X132072380Y-86896931D02*
X132167618Y-86849312D01*
X132167618Y-86849312D02*
X132215237Y-86801692D01*
X132215237Y-86801692D02*
X132262856Y-86706454D01*
X132262856Y-86706454D02*
X132262856Y-86420740D01*
X132262856Y-86420740D02*
X132215237Y-86325502D01*
X132215237Y-86325502D02*
X132167618Y-86277883D01*
X132167618Y-86277883D02*
X132072380Y-86230264D01*
X132072380Y-86230264D02*
X131881904Y-86230264D01*
X131881904Y-86230264D02*
X131786666Y-86277883D01*
X130929523Y-86849312D02*
X131024761Y-86896931D01*
X131024761Y-86896931D02*
X131215237Y-86896931D01*
X131215237Y-86896931D02*
X131310475Y-86849312D01*
X131310475Y-86849312D02*
X131358094Y-86754073D01*
X131358094Y-86754073D02*
X131358094Y-86373121D01*
X131358094Y-86373121D02*
X131310475Y-86277883D01*
X131310475Y-86277883D02*
X131215237Y-86230264D01*
X131215237Y-86230264D02*
X131024761Y-86230264D01*
X131024761Y-86230264D02*
X130929523Y-86277883D01*
X130929523Y-86277883D02*
X130881904Y-86373121D01*
X130881904Y-86373121D02*
X130881904Y-86468359D01*
X130881904Y-86468359D02*
X131358094Y-86563597D01*
X130453332Y-86896931D02*
X130453332Y-86230264D01*
X130453332Y-86420740D02*
X130405713Y-86325502D01*
X130405713Y-86325502D02*
X130358094Y-86277883D01*
X130358094Y-86277883D02*
X130262856Y-86230264D01*
X130262856Y-86230264D02*
X130167618Y-86230264D01*
X128929522Y-86896931D02*
X129024760Y-86849312D01*
X129024760Y-86849312D02*
X129072379Y-86801692D01*
X129072379Y-86801692D02*
X129119998Y-86706454D01*
X129119998Y-86706454D02*
X129119998Y-86420740D01*
X129119998Y-86420740D02*
X129072379Y-86325502D01*
X129072379Y-86325502D02*
X129024760Y-86277883D01*
X129024760Y-86277883D02*
X128929522Y-86230264D01*
X128929522Y-86230264D02*
X128786665Y-86230264D01*
X128786665Y-86230264D02*
X128691427Y-86277883D01*
X128691427Y-86277883D02*
X128643808Y-86325502D01*
X128643808Y-86325502D02*
X128596189Y-86420740D01*
X128596189Y-86420740D02*
X128596189Y-86706454D01*
X128596189Y-86706454D02*
X128643808Y-86801692D01*
X128643808Y-86801692D02*
X128691427Y-86849312D01*
X128691427Y-86849312D02*
X128786665Y-86896931D01*
X128786665Y-86896931D02*
X128929522Y-86896931D01*
X128167617Y-86230264D02*
X128167617Y-86896931D01*
X128167617Y-86325502D02*
X128119998Y-86277883D01*
X128119998Y-86277883D02*
X128024760Y-86230264D01*
X128024760Y-86230264D02*
X127881903Y-86230264D01*
X127881903Y-86230264D02*
X127786665Y-86277883D01*
X127786665Y-86277883D02*
X127739046Y-86373121D01*
X127739046Y-86373121D02*
X127739046Y-86896931D01*
X127405712Y-86230264D02*
X127024760Y-86230264D01*
X127262855Y-85896931D02*
X127262855Y-86754073D01*
X127262855Y-86754073D02*
X127215236Y-86849312D01*
X127215236Y-86849312D02*
X127119998Y-86896931D01*
X127119998Y-86896931D02*
X127024760Y-86896931D01*
X126548569Y-86896931D02*
X126643807Y-86849312D01*
X126643807Y-86849312D02*
X126691426Y-86801692D01*
X126691426Y-86801692D02*
X126739045Y-86706454D01*
X126739045Y-86706454D02*
X126739045Y-86420740D01*
X126739045Y-86420740D02*
X126691426Y-86325502D01*
X126691426Y-86325502D02*
X126643807Y-86277883D01*
X126643807Y-86277883D02*
X126548569Y-86230264D01*
X126548569Y-86230264D02*
X126405712Y-86230264D01*
X126405712Y-86230264D02*
X126310474Y-86277883D01*
X126310474Y-86277883D02*
X126262855Y-86325502D01*
X126262855Y-86325502D02*
X126215236Y-86420740D01*
X126215236Y-86420740D02*
X126215236Y-86706454D01*
X126215236Y-86706454D02*
X126262855Y-86801692D01*
X126262855Y-86801692D02*
X126310474Y-86849312D01*
X126310474Y-86849312D02*
X126405712Y-86896931D01*
X126405712Y-86896931D02*
X126548569Y-86896931D01*
X143358096Y-87840208D02*
X142977144Y-87840208D01*
X143215239Y-87506875D02*
X143215239Y-88364017D01*
X143215239Y-88364017D02*
X143167620Y-88459256D01*
X143167620Y-88459256D02*
X143072382Y-88506875D01*
X143072382Y-88506875D02*
X142977144Y-88506875D01*
X142643810Y-88506875D02*
X142643810Y-87506875D01*
X142215239Y-88506875D02*
X142215239Y-87983065D01*
X142215239Y-87983065D02*
X142262858Y-87887827D01*
X142262858Y-87887827D02*
X142358096Y-87840208D01*
X142358096Y-87840208D02*
X142500953Y-87840208D01*
X142500953Y-87840208D02*
X142596191Y-87887827D01*
X142596191Y-87887827D02*
X142643810Y-87935446D01*
X141358096Y-88459256D02*
X141453334Y-88506875D01*
X141453334Y-88506875D02*
X141643810Y-88506875D01*
X141643810Y-88506875D02*
X141739048Y-88459256D01*
X141739048Y-88459256D02*
X141786667Y-88364017D01*
X141786667Y-88364017D02*
X141786667Y-87983065D01*
X141786667Y-87983065D02*
X141739048Y-87887827D01*
X141739048Y-87887827D02*
X141643810Y-87840208D01*
X141643810Y-87840208D02*
X141453334Y-87840208D01*
X141453334Y-87840208D02*
X141358096Y-87887827D01*
X141358096Y-87887827D02*
X141310477Y-87983065D01*
X141310477Y-87983065D02*
X141310477Y-88078303D01*
X141310477Y-88078303D02*
X141786667Y-88173541D01*
X140167619Y-88459256D02*
X140072381Y-88506875D01*
X140072381Y-88506875D02*
X139881905Y-88506875D01*
X139881905Y-88506875D02*
X139786667Y-88459256D01*
X139786667Y-88459256D02*
X139739048Y-88364017D01*
X139739048Y-88364017D02*
X139739048Y-88316398D01*
X139739048Y-88316398D02*
X139786667Y-88221160D01*
X139786667Y-88221160D02*
X139881905Y-88173541D01*
X139881905Y-88173541D02*
X140024762Y-88173541D01*
X140024762Y-88173541D02*
X140120000Y-88125922D01*
X140120000Y-88125922D02*
X140167619Y-88030684D01*
X140167619Y-88030684D02*
X140167619Y-87983065D01*
X140167619Y-87983065D02*
X140120000Y-87887827D01*
X140120000Y-87887827D02*
X140024762Y-87840208D01*
X140024762Y-87840208D02*
X139881905Y-87840208D01*
X139881905Y-87840208D02*
X139786667Y-87887827D01*
X139310476Y-88506875D02*
X139310476Y-87840208D01*
X139310476Y-87506875D02*
X139358095Y-87554494D01*
X139358095Y-87554494D02*
X139310476Y-87602113D01*
X139310476Y-87602113D02*
X139262857Y-87554494D01*
X139262857Y-87554494D02*
X139310476Y-87506875D01*
X139310476Y-87506875D02*
X139310476Y-87602113D01*
X138691429Y-88506875D02*
X138786667Y-88459256D01*
X138786667Y-88459256D02*
X138834286Y-88364017D01*
X138834286Y-88364017D02*
X138834286Y-87506875D01*
X138405714Y-87840208D02*
X138167619Y-88506875D01*
X138167619Y-88506875D02*
X137929524Y-87840208D01*
X137167619Y-88459256D02*
X137262857Y-88506875D01*
X137262857Y-88506875D02*
X137453333Y-88506875D01*
X137453333Y-88506875D02*
X137548571Y-88459256D01*
X137548571Y-88459256D02*
X137596190Y-88364017D01*
X137596190Y-88364017D02*
X137596190Y-87983065D01*
X137596190Y-87983065D02*
X137548571Y-87887827D01*
X137548571Y-87887827D02*
X137453333Y-87840208D01*
X137453333Y-87840208D02*
X137262857Y-87840208D01*
X137262857Y-87840208D02*
X137167619Y-87887827D01*
X137167619Y-87887827D02*
X137120000Y-87983065D01*
X137120000Y-87983065D02*
X137120000Y-88078303D01*
X137120000Y-88078303D02*
X137596190Y-88173541D01*
X136691428Y-88506875D02*
X136691428Y-87840208D01*
X136691428Y-88030684D02*
X136643809Y-87935446D01*
X136643809Y-87935446D02*
X136596190Y-87887827D01*
X136596190Y-87887827D02*
X136500952Y-87840208D01*
X136500952Y-87840208D02*
X136405714Y-87840208D01*
X134881904Y-88459256D02*
X134977142Y-88506875D01*
X134977142Y-88506875D02*
X135167618Y-88506875D01*
X135167618Y-88506875D02*
X135262856Y-88459256D01*
X135262856Y-88459256D02*
X135310475Y-88411636D01*
X135310475Y-88411636D02*
X135358094Y-88316398D01*
X135358094Y-88316398D02*
X135358094Y-88030684D01*
X135358094Y-88030684D02*
X135310475Y-87935446D01*
X135310475Y-87935446D02*
X135262856Y-87887827D01*
X135262856Y-87887827D02*
X135167618Y-87840208D01*
X135167618Y-87840208D02*
X134977142Y-87840208D01*
X134977142Y-87840208D02*
X134881904Y-87887827D01*
X134453332Y-88506875D02*
X134453332Y-87840208D01*
X134453332Y-87506875D02*
X134500951Y-87554494D01*
X134500951Y-87554494D02*
X134453332Y-87602113D01*
X134453332Y-87602113D02*
X134405713Y-87554494D01*
X134405713Y-87554494D02*
X134453332Y-87506875D01*
X134453332Y-87506875D02*
X134453332Y-87602113D01*
X133977142Y-88506875D02*
X133977142Y-87840208D01*
X133977142Y-88030684D02*
X133929523Y-87935446D01*
X133929523Y-87935446D02*
X133881904Y-87887827D01*
X133881904Y-87887827D02*
X133786666Y-87840208D01*
X133786666Y-87840208D02*
X133691428Y-87840208D01*
X132929523Y-88459256D02*
X133024761Y-88506875D01*
X133024761Y-88506875D02*
X133215237Y-88506875D01*
X133215237Y-88506875D02*
X133310475Y-88459256D01*
X133310475Y-88459256D02*
X133358094Y-88411636D01*
X133358094Y-88411636D02*
X133405713Y-88316398D01*
X133405713Y-88316398D02*
X133405713Y-88030684D01*
X133405713Y-88030684D02*
X133358094Y-87935446D01*
X133358094Y-87935446D02*
X133310475Y-87887827D01*
X133310475Y-87887827D02*
X133215237Y-87840208D01*
X133215237Y-87840208D02*
X133024761Y-87840208D01*
X133024761Y-87840208D02*
X132929523Y-87887827D01*
X132358094Y-88506875D02*
X132453332Y-88459256D01*
X132453332Y-88459256D02*
X132500951Y-88364017D01*
X132500951Y-88364017D02*
X132500951Y-87506875D01*
X131596189Y-88459256D02*
X131691427Y-88506875D01*
X131691427Y-88506875D02*
X131881903Y-88506875D01*
X131881903Y-88506875D02*
X131977141Y-88459256D01*
X131977141Y-88459256D02*
X132024760Y-88364017D01*
X132024760Y-88364017D02*
X132024760Y-87983065D01*
X132024760Y-87983065D02*
X131977141Y-87887827D01*
X131977141Y-87887827D02*
X131881903Y-87840208D01*
X131881903Y-87840208D02*
X131691427Y-87840208D01*
X131691427Y-87840208D02*
X131596189Y-87887827D01*
X131596189Y-87887827D02*
X131548570Y-87983065D01*
X131548570Y-87983065D02*
X131548570Y-88078303D01*
X131548570Y-88078303D02*
X132024760Y-88173541D01*
X129929522Y-88506875D02*
X129929522Y-87983065D01*
X129929522Y-87983065D02*
X129977141Y-87887827D01*
X129977141Y-87887827D02*
X130072379Y-87840208D01*
X130072379Y-87840208D02*
X130262855Y-87840208D01*
X130262855Y-87840208D02*
X130358093Y-87887827D01*
X129929522Y-88459256D02*
X130024760Y-88506875D01*
X130024760Y-88506875D02*
X130262855Y-88506875D01*
X130262855Y-88506875D02*
X130358093Y-88459256D01*
X130358093Y-88459256D02*
X130405712Y-88364017D01*
X130405712Y-88364017D02*
X130405712Y-88268779D01*
X130405712Y-88268779D02*
X130358093Y-88173541D01*
X130358093Y-88173541D02*
X130262855Y-88125922D01*
X130262855Y-88125922D02*
X130024760Y-88125922D01*
X130024760Y-88125922D02*
X129929522Y-88078303D01*
X129453331Y-88506875D02*
X129453331Y-87506875D01*
X129453331Y-87887827D02*
X129358093Y-87840208D01*
X129358093Y-87840208D02*
X129167617Y-87840208D01*
X129167617Y-87840208D02*
X129072379Y-87887827D01*
X129072379Y-87887827D02*
X129024760Y-87935446D01*
X129024760Y-87935446D02*
X128977141Y-88030684D01*
X128977141Y-88030684D02*
X128977141Y-88316398D01*
X128977141Y-88316398D02*
X129024760Y-88411636D01*
X129024760Y-88411636D02*
X129072379Y-88459256D01*
X129072379Y-88459256D02*
X129167617Y-88506875D01*
X129167617Y-88506875D02*
X129358093Y-88506875D01*
X129358093Y-88506875D02*
X129453331Y-88459256D01*
X128405712Y-88506875D02*
X128500950Y-88459256D01*
X128500950Y-88459256D02*
X128548569Y-88411636D01*
X128548569Y-88411636D02*
X128596188Y-88316398D01*
X128596188Y-88316398D02*
X128596188Y-88030684D01*
X128596188Y-88030684D02*
X128548569Y-87935446D01*
X128548569Y-87935446D02*
X128500950Y-87887827D01*
X128500950Y-87887827D02*
X128405712Y-87840208D01*
X128405712Y-87840208D02*
X128262855Y-87840208D01*
X128262855Y-87840208D02*
X128167617Y-87887827D01*
X128167617Y-87887827D02*
X128119998Y-87935446D01*
X128119998Y-87935446D02*
X128072379Y-88030684D01*
X128072379Y-88030684D02*
X128072379Y-88316398D01*
X128072379Y-88316398D02*
X128119998Y-88411636D01*
X128119998Y-88411636D02*
X128167617Y-88459256D01*
X128167617Y-88459256D02*
X128262855Y-88506875D01*
X128262855Y-88506875D02*
X128405712Y-88506875D01*
X127739045Y-87840208D02*
X127500950Y-88506875D01*
X127500950Y-88506875D02*
X127262855Y-87840208D01*
X126500950Y-88459256D02*
X126596188Y-88506875D01*
X126596188Y-88506875D02*
X126786664Y-88506875D01*
X126786664Y-88506875D02*
X126881902Y-88459256D01*
X126881902Y-88459256D02*
X126929521Y-88364017D01*
X126929521Y-88364017D02*
X126929521Y-87983065D01*
X126929521Y-87983065D02*
X126881902Y-87887827D01*
X126881902Y-87887827D02*
X126786664Y-87840208D01*
X126786664Y-87840208D02*
X126596188Y-87840208D01*
X126596188Y-87840208D02*
X126500950Y-87887827D01*
X126500950Y-87887827D02*
X126453331Y-87983065D01*
X126453331Y-87983065D02*
X126453331Y-88078303D01*
X126453331Y-88078303D02*
X126929521Y-88173541D01*
X126024759Y-88411636D02*
X125977140Y-88459256D01*
X125977140Y-88459256D02*
X126024759Y-88506875D01*
X126024759Y-88506875D02*
X126072378Y-88459256D01*
X126072378Y-88459256D02*
X126024759Y-88411636D01*
X126024759Y-88411636D02*
X126024759Y-88506875D01*
X143620001Y-90726763D02*
X143048573Y-90726763D01*
X143334287Y-91726763D02*
X143334287Y-90726763D01*
X142715239Y-91726763D02*
X142715239Y-90726763D01*
X142286668Y-91726763D02*
X142286668Y-91202953D01*
X142286668Y-91202953D02*
X142334287Y-91107715D01*
X142334287Y-91107715D02*
X142429525Y-91060096D01*
X142429525Y-91060096D02*
X142572382Y-91060096D01*
X142572382Y-91060096D02*
X142667620Y-91107715D01*
X142667620Y-91107715D02*
X142715239Y-91155334D01*
X141810477Y-91726763D02*
X141810477Y-91060096D01*
X141810477Y-90726763D02*
X141858096Y-90774382D01*
X141858096Y-90774382D02*
X141810477Y-90822001D01*
X141810477Y-90822001D02*
X141762858Y-90774382D01*
X141762858Y-90774382D02*
X141810477Y-90726763D01*
X141810477Y-90726763D02*
X141810477Y-90822001D01*
X141381906Y-91679144D02*
X141286668Y-91726763D01*
X141286668Y-91726763D02*
X141096192Y-91726763D01*
X141096192Y-91726763D02*
X141000954Y-91679144D01*
X141000954Y-91679144D02*
X140953335Y-91583905D01*
X140953335Y-91583905D02*
X140953335Y-91536286D01*
X140953335Y-91536286D02*
X141000954Y-91441048D01*
X141000954Y-91441048D02*
X141096192Y-91393429D01*
X141096192Y-91393429D02*
X141239049Y-91393429D01*
X141239049Y-91393429D02*
X141334287Y-91345810D01*
X141334287Y-91345810D02*
X141381906Y-91250572D01*
X141381906Y-91250572D02*
X141381906Y-91202953D01*
X141381906Y-91202953D02*
X141334287Y-91107715D01*
X141334287Y-91107715D02*
X141239049Y-91060096D01*
X141239049Y-91060096D02*
X141096192Y-91060096D01*
X141096192Y-91060096D02*
X141000954Y-91107715D01*
X139762858Y-91726763D02*
X139762858Y-91060096D01*
X139762858Y-90726763D02*
X139810477Y-90774382D01*
X139810477Y-90774382D02*
X139762858Y-90822001D01*
X139762858Y-90822001D02*
X139715239Y-90774382D01*
X139715239Y-90774382D02*
X139762858Y-90726763D01*
X139762858Y-90726763D02*
X139762858Y-90822001D01*
X139334287Y-91679144D02*
X139239049Y-91726763D01*
X139239049Y-91726763D02*
X139048573Y-91726763D01*
X139048573Y-91726763D02*
X138953335Y-91679144D01*
X138953335Y-91679144D02*
X138905716Y-91583905D01*
X138905716Y-91583905D02*
X138905716Y-91536286D01*
X138905716Y-91536286D02*
X138953335Y-91441048D01*
X138953335Y-91441048D02*
X139048573Y-91393429D01*
X139048573Y-91393429D02*
X139191430Y-91393429D01*
X139191430Y-91393429D02*
X139286668Y-91345810D01*
X139286668Y-91345810D02*
X139334287Y-91250572D01*
X139334287Y-91250572D02*
X139334287Y-91202953D01*
X139334287Y-91202953D02*
X139286668Y-91107715D01*
X139286668Y-91107715D02*
X139191430Y-91060096D01*
X139191430Y-91060096D02*
X139048573Y-91060096D01*
X139048573Y-91060096D02*
X138953335Y-91107715D01*
X137858096Y-91060096D02*
X137477144Y-91060096D01*
X137715239Y-91726763D02*
X137715239Y-90869620D01*
X137715239Y-90869620D02*
X137667620Y-90774382D01*
X137667620Y-90774382D02*
X137572382Y-90726763D01*
X137572382Y-90726763D02*
X137477144Y-90726763D01*
X137000953Y-91726763D02*
X137096191Y-91679144D01*
X137096191Y-91679144D02*
X137143810Y-91631524D01*
X137143810Y-91631524D02*
X137191429Y-91536286D01*
X137191429Y-91536286D02*
X137191429Y-91250572D01*
X137191429Y-91250572D02*
X137143810Y-91155334D01*
X137143810Y-91155334D02*
X137096191Y-91107715D01*
X137096191Y-91107715D02*
X137000953Y-91060096D01*
X137000953Y-91060096D02*
X136858096Y-91060096D01*
X136858096Y-91060096D02*
X136762858Y-91107715D01*
X136762858Y-91107715D02*
X136715239Y-91155334D01*
X136715239Y-91155334D02*
X136667620Y-91250572D01*
X136667620Y-91250572D02*
X136667620Y-91536286D01*
X136667620Y-91536286D02*
X136715239Y-91631524D01*
X136715239Y-91631524D02*
X136762858Y-91679144D01*
X136762858Y-91679144D02*
X136858096Y-91726763D01*
X136858096Y-91726763D02*
X137000953Y-91726763D01*
X136239048Y-91726763D02*
X136239048Y-91060096D01*
X136239048Y-91250572D02*
X136191429Y-91155334D01*
X136191429Y-91155334D02*
X136143810Y-91107715D01*
X136143810Y-91107715D02*
X136048572Y-91060096D01*
X136048572Y-91060096D02*
X135953334Y-91060096D01*
X135000952Y-91060096D02*
X134620000Y-91060096D01*
X134858095Y-90726763D02*
X134858095Y-91583905D01*
X134858095Y-91583905D02*
X134810476Y-91679144D01*
X134810476Y-91679144D02*
X134715238Y-91726763D01*
X134715238Y-91726763D02*
X134620000Y-91726763D01*
X134286666Y-91726763D02*
X134286666Y-90726763D01*
X133858095Y-91726763D02*
X133858095Y-91202953D01*
X133858095Y-91202953D02*
X133905714Y-91107715D01*
X133905714Y-91107715D02*
X134000952Y-91060096D01*
X134000952Y-91060096D02*
X134143809Y-91060096D01*
X134143809Y-91060096D02*
X134239047Y-91107715D01*
X134239047Y-91107715D02*
X134286666Y-91155334D01*
X133000952Y-91679144D02*
X133096190Y-91726763D01*
X133096190Y-91726763D02*
X133286666Y-91726763D01*
X133286666Y-91726763D02*
X133381904Y-91679144D01*
X133381904Y-91679144D02*
X133429523Y-91583905D01*
X133429523Y-91583905D02*
X133429523Y-91202953D01*
X133429523Y-91202953D02*
X133381904Y-91107715D01*
X133381904Y-91107715D02*
X133286666Y-91060096D01*
X133286666Y-91060096D02*
X133096190Y-91060096D01*
X133096190Y-91060096D02*
X133000952Y-91107715D01*
X133000952Y-91107715D02*
X132953333Y-91202953D01*
X132953333Y-91202953D02*
X132953333Y-91298191D01*
X132953333Y-91298191D02*
X133429523Y-91393429D01*
X131762856Y-91726763D02*
X131762856Y-90726763D01*
X131762856Y-91107715D02*
X131667618Y-91060096D01*
X131667618Y-91060096D02*
X131477142Y-91060096D01*
X131477142Y-91060096D02*
X131381904Y-91107715D01*
X131381904Y-91107715D02*
X131334285Y-91155334D01*
X131334285Y-91155334D02*
X131286666Y-91250572D01*
X131286666Y-91250572D02*
X131286666Y-91536286D01*
X131286666Y-91536286D02*
X131334285Y-91631524D01*
X131334285Y-91631524D02*
X131381904Y-91679144D01*
X131381904Y-91679144D02*
X131477142Y-91726763D01*
X131477142Y-91726763D02*
X131667618Y-91726763D01*
X131667618Y-91726763D02*
X131762856Y-91679144D01*
X130429523Y-91726763D02*
X130429523Y-91202953D01*
X130429523Y-91202953D02*
X130477142Y-91107715D01*
X130477142Y-91107715D02*
X130572380Y-91060096D01*
X130572380Y-91060096D02*
X130762856Y-91060096D01*
X130762856Y-91060096D02*
X130858094Y-91107715D01*
X130429523Y-91679144D02*
X130524761Y-91726763D01*
X130524761Y-91726763D02*
X130762856Y-91726763D01*
X130762856Y-91726763D02*
X130858094Y-91679144D01*
X130858094Y-91679144D02*
X130905713Y-91583905D01*
X130905713Y-91583905D02*
X130905713Y-91488667D01*
X130905713Y-91488667D02*
X130858094Y-91393429D01*
X130858094Y-91393429D02*
X130762856Y-91345810D01*
X130762856Y-91345810D02*
X130524761Y-91345810D01*
X130524761Y-91345810D02*
X130429523Y-91298191D01*
X130096189Y-91060096D02*
X129715237Y-91060096D01*
X129953332Y-90726763D02*
X129953332Y-91583905D01*
X129953332Y-91583905D02*
X129905713Y-91679144D01*
X129905713Y-91679144D02*
X129810475Y-91726763D01*
X129810475Y-91726763D02*
X129715237Y-91726763D01*
X129524760Y-91060096D02*
X129143808Y-91060096D01*
X129381903Y-90726763D02*
X129381903Y-91583905D01*
X129381903Y-91583905D02*
X129334284Y-91679144D01*
X129334284Y-91679144D02*
X129239046Y-91726763D01*
X129239046Y-91726763D02*
X129143808Y-91726763D01*
X128429522Y-91679144D02*
X128524760Y-91726763D01*
X128524760Y-91726763D02*
X128715236Y-91726763D01*
X128715236Y-91726763D02*
X128810474Y-91679144D01*
X128810474Y-91679144D02*
X128858093Y-91583905D01*
X128858093Y-91583905D02*
X128858093Y-91202953D01*
X128858093Y-91202953D02*
X128810474Y-91107715D01*
X128810474Y-91107715D02*
X128715236Y-91060096D01*
X128715236Y-91060096D02*
X128524760Y-91060096D01*
X128524760Y-91060096D02*
X128429522Y-91107715D01*
X128429522Y-91107715D02*
X128381903Y-91202953D01*
X128381903Y-91202953D02*
X128381903Y-91298191D01*
X128381903Y-91298191D02*
X128858093Y-91393429D01*
X127953331Y-91726763D02*
X127953331Y-91060096D01*
X127953331Y-91250572D02*
X127905712Y-91155334D01*
X127905712Y-91155334D02*
X127858093Y-91107715D01*
X127858093Y-91107715D02*
X127762855Y-91060096D01*
X127762855Y-91060096D02*
X127667617Y-91060096D01*
X127429521Y-91060096D02*
X127191426Y-91726763D01*
X126953331Y-91060096D02*
X127191426Y-91726763D01*
X127191426Y-91726763D02*
X127286664Y-91964858D01*
X127286664Y-91964858D02*
X127334283Y-92012477D01*
X127334283Y-92012477D02*
X127429521Y-92060096D01*
X126524759Y-90726763D02*
X126619997Y-90917239D01*
X126143807Y-91679144D02*
X126048569Y-91726763D01*
X126048569Y-91726763D02*
X125858093Y-91726763D01*
X125858093Y-91726763D02*
X125762855Y-91679144D01*
X125762855Y-91679144D02*
X125715236Y-91583905D01*
X125715236Y-91583905D02*
X125715236Y-91536286D01*
X125715236Y-91536286D02*
X125762855Y-91441048D01*
X125762855Y-91441048D02*
X125858093Y-91393429D01*
X125858093Y-91393429D02*
X126000950Y-91393429D01*
X126000950Y-91393429D02*
X126096188Y-91345810D01*
X126096188Y-91345810D02*
X126143807Y-91250572D01*
X126143807Y-91250572D02*
X126143807Y-91202953D01*
X126143807Y-91202953D02*
X126096188Y-91107715D01*
X126096188Y-91107715D02*
X126000950Y-91060096D01*
X126000950Y-91060096D02*
X125858093Y-91060096D01*
X125858093Y-91060096D02*
X125762855Y-91107715D01*
X142191428Y-92670040D02*
X142191428Y-93336707D01*
X142191428Y-92765278D02*
X142143809Y-92717659D01*
X142143809Y-92717659D02*
X142048571Y-92670040D01*
X142048571Y-92670040D02*
X141905714Y-92670040D01*
X141905714Y-92670040D02*
X141810476Y-92717659D01*
X141810476Y-92717659D02*
X141762857Y-92812897D01*
X141762857Y-92812897D02*
X141762857Y-93336707D01*
X140905714Y-93289088D02*
X141000952Y-93336707D01*
X141000952Y-93336707D02*
X141191428Y-93336707D01*
X141191428Y-93336707D02*
X141286666Y-93289088D01*
X141286666Y-93289088D02*
X141334285Y-93193849D01*
X141334285Y-93193849D02*
X141334285Y-92812897D01*
X141334285Y-92812897D02*
X141286666Y-92717659D01*
X141286666Y-92717659D02*
X141191428Y-92670040D01*
X141191428Y-92670040D02*
X141000952Y-92670040D01*
X141000952Y-92670040D02*
X140905714Y-92717659D01*
X140905714Y-92717659D02*
X140858095Y-92812897D01*
X140858095Y-92812897D02*
X140858095Y-92908135D01*
X140858095Y-92908135D02*
X141334285Y-93003373D01*
X140000952Y-92670040D02*
X140000952Y-93479564D01*
X140000952Y-93479564D02*
X140048571Y-93574802D01*
X140048571Y-93574802D02*
X140096190Y-93622421D01*
X140096190Y-93622421D02*
X140191428Y-93670040D01*
X140191428Y-93670040D02*
X140334285Y-93670040D01*
X140334285Y-93670040D02*
X140429523Y-93622421D01*
X140000952Y-93289088D02*
X140096190Y-93336707D01*
X140096190Y-93336707D02*
X140286666Y-93336707D01*
X140286666Y-93336707D02*
X140381904Y-93289088D01*
X140381904Y-93289088D02*
X140429523Y-93241468D01*
X140429523Y-93241468D02*
X140477142Y-93146230D01*
X140477142Y-93146230D02*
X140477142Y-92860516D01*
X140477142Y-92860516D02*
X140429523Y-92765278D01*
X140429523Y-92765278D02*
X140381904Y-92717659D01*
X140381904Y-92717659D02*
X140286666Y-92670040D01*
X140286666Y-92670040D02*
X140096190Y-92670040D01*
X140096190Y-92670040D02*
X140000952Y-92717659D01*
X139096190Y-93336707D02*
X139096190Y-92812897D01*
X139096190Y-92812897D02*
X139143809Y-92717659D01*
X139143809Y-92717659D02*
X139239047Y-92670040D01*
X139239047Y-92670040D02*
X139429523Y-92670040D01*
X139429523Y-92670040D02*
X139524761Y-92717659D01*
X139096190Y-93289088D02*
X139191428Y-93336707D01*
X139191428Y-93336707D02*
X139429523Y-93336707D01*
X139429523Y-93336707D02*
X139524761Y-93289088D01*
X139524761Y-93289088D02*
X139572380Y-93193849D01*
X139572380Y-93193849D02*
X139572380Y-93098611D01*
X139572380Y-93098611D02*
X139524761Y-93003373D01*
X139524761Y-93003373D02*
X139429523Y-92955754D01*
X139429523Y-92955754D02*
X139191428Y-92955754D01*
X139191428Y-92955754D02*
X139096190Y-92908135D01*
X138762856Y-92670040D02*
X138381904Y-92670040D01*
X138619999Y-92336707D02*
X138619999Y-93193849D01*
X138619999Y-93193849D02*
X138572380Y-93289088D01*
X138572380Y-93289088D02*
X138477142Y-93336707D01*
X138477142Y-93336707D02*
X138381904Y-93336707D01*
X138048570Y-93336707D02*
X138048570Y-92670040D01*
X138048570Y-92336707D02*
X138096189Y-92384326D01*
X138096189Y-92384326D02*
X138048570Y-92431945D01*
X138048570Y-92431945D02*
X138000951Y-92384326D01*
X138000951Y-92384326D02*
X138048570Y-92336707D01*
X138048570Y-92336707D02*
X138048570Y-92431945D01*
X137667618Y-92670040D02*
X137429523Y-93336707D01*
X137429523Y-93336707D02*
X137191428Y-92670040D01*
X136429523Y-93289088D02*
X136524761Y-93336707D01*
X136524761Y-93336707D02*
X136715237Y-93336707D01*
X136715237Y-93336707D02*
X136810475Y-93289088D01*
X136810475Y-93289088D02*
X136858094Y-93193849D01*
X136858094Y-93193849D02*
X136858094Y-92812897D01*
X136858094Y-92812897D02*
X136810475Y-92717659D01*
X136810475Y-92717659D02*
X136715237Y-92670040D01*
X136715237Y-92670040D02*
X136524761Y-92670040D01*
X136524761Y-92670040D02*
X136429523Y-92717659D01*
X136429523Y-92717659D02*
X136381904Y-92812897D01*
X136381904Y-92812897D02*
X136381904Y-92908135D01*
X136381904Y-92908135D02*
X136858094Y-93003373D01*
X134762856Y-93289088D02*
X134858094Y-93336707D01*
X134858094Y-93336707D02*
X135048570Y-93336707D01*
X135048570Y-93336707D02*
X135143808Y-93289088D01*
X135143808Y-93289088D02*
X135191427Y-93241468D01*
X135191427Y-93241468D02*
X135239046Y-93146230D01*
X135239046Y-93146230D02*
X135239046Y-92860516D01*
X135239046Y-92860516D02*
X135191427Y-92765278D01*
X135191427Y-92765278D02*
X135143808Y-92717659D01*
X135143808Y-92717659D02*
X135048570Y-92670040D01*
X135048570Y-92670040D02*
X134858094Y-92670040D01*
X134858094Y-92670040D02*
X134762856Y-92717659D01*
X134191427Y-93336707D02*
X134286665Y-93289088D01*
X134286665Y-93289088D02*
X134334284Y-93241468D01*
X134334284Y-93241468D02*
X134381903Y-93146230D01*
X134381903Y-93146230D02*
X134381903Y-92860516D01*
X134381903Y-92860516D02*
X134334284Y-92765278D01*
X134334284Y-92765278D02*
X134286665Y-92717659D01*
X134286665Y-92717659D02*
X134191427Y-92670040D01*
X134191427Y-92670040D02*
X134048570Y-92670040D01*
X134048570Y-92670040D02*
X133953332Y-92717659D01*
X133953332Y-92717659D02*
X133905713Y-92765278D01*
X133905713Y-92765278D02*
X133858094Y-92860516D01*
X133858094Y-92860516D02*
X133858094Y-93146230D01*
X133858094Y-93146230D02*
X133905713Y-93241468D01*
X133905713Y-93241468D02*
X133953332Y-93289088D01*
X133953332Y-93289088D02*
X134048570Y-93336707D01*
X134048570Y-93336707D02*
X134191427Y-93336707D01*
X133429522Y-92670040D02*
X133429522Y-93336707D01*
X133429522Y-92765278D02*
X133381903Y-92717659D01*
X133381903Y-92717659D02*
X133286665Y-92670040D01*
X133286665Y-92670040D02*
X133143808Y-92670040D01*
X133143808Y-92670040D02*
X133048570Y-92717659D01*
X133048570Y-92717659D02*
X133000951Y-92812897D01*
X133000951Y-92812897D02*
X133000951Y-93336707D01*
X132524760Y-92670040D02*
X132524760Y-93336707D01*
X132524760Y-92765278D02*
X132477141Y-92717659D01*
X132477141Y-92717659D02*
X132381903Y-92670040D01*
X132381903Y-92670040D02*
X132239046Y-92670040D01*
X132239046Y-92670040D02*
X132143808Y-92717659D01*
X132143808Y-92717659D02*
X132096189Y-92812897D01*
X132096189Y-92812897D02*
X132096189Y-93336707D01*
X131239046Y-93289088D02*
X131334284Y-93336707D01*
X131334284Y-93336707D02*
X131524760Y-93336707D01*
X131524760Y-93336707D02*
X131619998Y-93289088D01*
X131619998Y-93289088D02*
X131667617Y-93193849D01*
X131667617Y-93193849D02*
X131667617Y-92812897D01*
X131667617Y-92812897D02*
X131619998Y-92717659D01*
X131619998Y-92717659D02*
X131524760Y-92670040D01*
X131524760Y-92670040D02*
X131334284Y-92670040D01*
X131334284Y-92670040D02*
X131239046Y-92717659D01*
X131239046Y-92717659D02*
X131191427Y-92812897D01*
X131191427Y-92812897D02*
X131191427Y-92908135D01*
X131191427Y-92908135D02*
X131667617Y-93003373D01*
X130334284Y-93289088D02*
X130429522Y-93336707D01*
X130429522Y-93336707D02*
X130619998Y-93336707D01*
X130619998Y-93336707D02*
X130715236Y-93289088D01*
X130715236Y-93289088D02*
X130762855Y-93241468D01*
X130762855Y-93241468D02*
X130810474Y-93146230D01*
X130810474Y-93146230D02*
X130810474Y-92860516D01*
X130810474Y-92860516D02*
X130762855Y-92765278D01*
X130762855Y-92765278D02*
X130715236Y-92717659D01*
X130715236Y-92717659D02*
X130619998Y-92670040D01*
X130619998Y-92670040D02*
X130429522Y-92670040D01*
X130429522Y-92670040D02*
X130334284Y-92717659D01*
X130048569Y-92670040D02*
X129667617Y-92670040D01*
X129905712Y-92336707D02*
X129905712Y-93193849D01*
X129905712Y-93193849D02*
X129858093Y-93289088D01*
X129858093Y-93289088D02*
X129762855Y-93336707D01*
X129762855Y-93336707D02*
X129667617Y-93336707D01*
X129334283Y-93336707D02*
X129334283Y-92670040D01*
X129334283Y-92336707D02*
X129381902Y-92384326D01*
X129381902Y-92384326D02*
X129334283Y-92431945D01*
X129334283Y-92431945D02*
X129286664Y-92384326D01*
X129286664Y-92384326D02*
X129334283Y-92336707D01*
X129334283Y-92336707D02*
X129334283Y-92431945D01*
X128715236Y-93336707D02*
X128810474Y-93289088D01*
X128810474Y-93289088D02*
X128858093Y-93241468D01*
X128858093Y-93241468D02*
X128905712Y-93146230D01*
X128905712Y-93146230D02*
X128905712Y-92860516D01*
X128905712Y-92860516D02*
X128858093Y-92765278D01*
X128858093Y-92765278D02*
X128810474Y-92717659D01*
X128810474Y-92717659D02*
X128715236Y-92670040D01*
X128715236Y-92670040D02*
X128572379Y-92670040D01*
X128572379Y-92670040D02*
X128477141Y-92717659D01*
X128477141Y-92717659D02*
X128429522Y-92765278D01*
X128429522Y-92765278D02*
X128381903Y-92860516D01*
X128381903Y-92860516D02*
X128381903Y-93146230D01*
X128381903Y-93146230D02*
X128429522Y-93241468D01*
X128429522Y-93241468D02*
X128477141Y-93289088D01*
X128477141Y-93289088D02*
X128572379Y-93336707D01*
X128572379Y-93336707D02*
X128715236Y-93336707D01*
X127953331Y-92670040D02*
X127953331Y-93336707D01*
X127953331Y-92765278D02*
X127905712Y-92717659D01*
X127905712Y-92717659D02*
X127810474Y-92670040D01*
X127810474Y-92670040D02*
X127667617Y-92670040D01*
X127667617Y-92670040D02*
X127572379Y-92717659D01*
X127572379Y-92717659D02*
X127524760Y-92812897D01*
X127524760Y-92812897D02*
X127524760Y-93336707D01*
X127048569Y-93241468D02*
X127000950Y-93289088D01*
X127000950Y-93289088D02*
X127048569Y-93336707D01*
X127048569Y-93336707D02*
X127096188Y-93289088D01*
X127096188Y-93289088D02*
X127048569Y-93241468D01*
X127048569Y-93241468D02*
X127048569Y-93336707D01*
X167423638Y-116326095D02*
X167423638Y-116897523D01*
X167423638Y-116897523D02*
X167461733Y-117011809D01*
X167461733Y-117011809D02*
X167537924Y-117088000D01*
X167537924Y-117088000D02*
X167652209Y-117126095D01*
X167652209Y-117126095D02*
X167728400Y-117126095D01*
X166661733Y-117126095D02*
X167042685Y-117126095D01*
X167042685Y-117126095D02*
X167042685Y-116326095D01*
X165937923Y-117049904D02*
X165976019Y-117088000D01*
X165976019Y-117088000D02*
X166090304Y-117126095D01*
X166090304Y-117126095D02*
X166166495Y-117126095D01*
X166166495Y-117126095D02*
X166280781Y-117088000D01*
X166280781Y-117088000D02*
X166356971Y-117011809D01*
X166356971Y-117011809D02*
X166395066Y-116935619D01*
X166395066Y-116935619D02*
X166433162Y-116783238D01*
X166433162Y-116783238D02*
X166433162Y-116668952D01*
X166433162Y-116668952D02*
X166395066Y-116516571D01*
X166395066Y-116516571D02*
X166356971Y-116440380D01*
X166356971Y-116440380D02*
X166280781Y-116364190D01*
X166280781Y-116364190D02*
X166166495Y-116326095D01*
X166166495Y-116326095D02*
X166090304Y-116326095D01*
X166090304Y-116326095D02*
X165976019Y-116364190D01*
X165976019Y-116364190D02*
X165937923Y-116402285D01*
X165366495Y-116326095D02*
X165366495Y-116897523D01*
X165366495Y-116897523D02*
X165404590Y-117011809D01*
X165404590Y-117011809D02*
X165480781Y-117088000D01*
X165480781Y-117088000D02*
X165595066Y-117126095D01*
X165595066Y-117126095D02*
X165671257Y-117126095D01*
X164604590Y-117126095D02*
X164985542Y-117126095D01*
X164985542Y-117126095D02*
X164985542Y-116326095D01*
X163880780Y-117049904D02*
X163918876Y-117088000D01*
X163918876Y-117088000D02*
X164033161Y-117126095D01*
X164033161Y-117126095D02*
X164109352Y-117126095D01*
X164109352Y-117126095D02*
X164223638Y-117088000D01*
X164223638Y-117088000D02*
X164299828Y-117011809D01*
X164299828Y-117011809D02*
X164337923Y-116935619D01*
X164337923Y-116935619D02*
X164376019Y-116783238D01*
X164376019Y-116783238D02*
X164376019Y-116668952D01*
X164376019Y-116668952D02*
X164337923Y-116516571D01*
X164337923Y-116516571D02*
X164299828Y-116440380D01*
X164299828Y-116440380D02*
X164223638Y-116364190D01*
X164223638Y-116364190D02*
X164109352Y-116326095D01*
X164109352Y-116326095D02*
X164033161Y-116326095D01*
X164033161Y-116326095D02*
X163918876Y-116364190D01*
X163918876Y-116364190D02*
X163880780Y-116402285D01*
X163309352Y-116326095D02*
X163309352Y-116897523D01*
X163309352Y-116897523D02*
X163347447Y-117011809D01*
X163347447Y-117011809D02*
X163423638Y-117088000D01*
X163423638Y-117088000D02*
X163537923Y-117126095D01*
X163537923Y-117126095D02*
X163614114Y-117126095D01*
X162547447Y-117126095D02*
X162928399Y-117126095D01*
X162928399Y-117126095D02*
X162928399Y-116326095D01*
X161823637Y-117049904D02*
X161861733Y-117088000D01*
X161861733Y-117088000D02*
X161976018Y-117126095D01*
X161976018Y-117126095D02*
X162052209Y-117126095D01*
X162052209Y-117126095D02*
X162166495Y-117088000D01*
X162166495Y-117088000D02*
X162242685Y-117011809D01*
X162242685Y-117011809D02*
X162280780Y-116935619D01*
X162280780Y-116935619D02*
X162318876Y-116783238D01*
X162318876Y-116783238D02*
X162318876Y-116668952D01*
X162318876Y-116668952D02*
X162280780Y-116516571D01*
X162280780Y-116516571D02*
X162242685Y-116440380D01*
X162242685Y-116440380D02*
X162166495Y-116364190D01*
X162166495Y-116364190D02*
X162052209Y-116326095D01*
X162052209Y-116326095D02*
X161976018Y-116326095D01*
X161976018Y-116326095D02*
X161861733Y-116364190D01*
X161861733Y-116364190D02*
X161823637Y-116402285D01*
X161252209Y-116326095D02*
X161252209Y-116897523D01*
X161252209Y-116897523D02*
X161290304Y-117011809D01*
X161290304Y-117011809D02*
X161366495Y-117088000D01*
X161366495Y-117088000D02*
X161480780Y-117126095D01*
X161480780Y-117126095D02*
X161556971Y-117126095D01*
X160490304Y-117126095D02*
X160871256Y-117126095D01*
X160871256Y-117126095D02*
X160871256Y-116326095D01*
X159766494Y-117049904D02*
X159804590Y-117088000D01*
X159804590Y-117088000D02*
X159918875Y-117126095D01*
X159918875Y-117126095D02*
X159995066Y-117126095D01*
X159995066Y-117126095D02*
X160109352Y-117088000D01*
X160109352Y-117088000D02*
X160185542Y-117011809D01*
X160185542Y-117011809D02*
X160223637Y-116935619D01*
X160223637Y-116935619D02*
X160261733Y-116783238D01*
X160261733Y-116783238D02*
X160261733Y-116668952D01*
X160261733Y-116668952D02*
X160223637Y-116516571D01*
X160223637Y-116516571D02*
X160185542Y-116440380D01*
X160185542Y-116440380D02*
X160109352Y-116364190D01*
X160109352Y-116364190D02*
X159995066Y-116326095D01*
X159995066Y-116326095D02*
X159918875Y-116326095D01*
X159918875Y-116326095D02*
X159804590Y-116364190D01*
X159804590Y-116364190D02*
X159766494Y-116402285D01*
X113923485Y-135967000D02*
X113780628Y-136014619D01*
X113780628Y-136014619D02*
X113542533Y-136014619D01*
X113542533Y-136014619D02*
X113447295Y-135967000D01*
X113447295Y-135967000D02*
X113399676Y-135919380D01*
X113399676Y-135919380D02*
X113352057Y-135824142D01*
X113352057Y-135824142D02*
X113352057Y-135728904D01*
X113352057Y-135728904D02*
X113399676Y-135633666D01*
X113399676Y-135633666D02*
X113447295Y-135586047D01*
X113447295Y-135586047D02*
X113542533Y-135538428D01*
X113542533Y-135538428D02*
X113733009Y-135490809D01*
X113733009Y-135490809D02*
X113828247Y-135443190D01*
X113828247Y-135443190D02*
X113875866Y-135395571D01*
X113875866Y-135395571D02*
X113923485Y-135300333D01*
X113923485Y-135300333D02*
X113923485Y-135205095D01*
X113923485Y-135205095D02*
X113875866Y-135109857D01*
X113875866Y-135109857D02*
X113828247Y-135062238D01*
X113828247Y-135062238D02*
X113733009Y-135014619D01*
X113733009Y-135014619D02*
X113494914Y-135014619D01*
X113494914Y-135014619D02*
X113352057Y-135062238D01*
X113018723Y-135347952D02*
X112828247Y-136014619D01*
X112828247Y-136014619D02*
X112637771Y-135538428D01*
X112637771Y-135538428D02*
X112447295Y-136014619D01*
X112447295Y-136014619D02*
X112256819Y-135347952D01*
X111875866Y-136014619D02*
X111875866Y-135347952D01*
X111875866Y-135014619D02*
X111923485Y-135062238D01*
X111923485Y-135062238D02*
X111875866Y-135109857D01*
X111875866Y-135109857D02*
X111828247Y-135062238D01*
X111828247Y-135062238D02*
X111875866Y-135014619D01*
X111875866Y-135014619D02*
X111875866Y-135109857D01*
X111542533Y-135347952D02*
X111161581Y-135347952D01*
X111399676Y-135014619D02*
X111399676Y-135871761D01*
X111399676Y-135871761D02*
X111352057Y-135967000D01*
X111352057Y-135967000D02*
X111256819Y-136014619D01*
X111256819Y-136014619D02*
X111161581Y-136014619D01*
X110399676Y-135967000D02*
X110494914Y-136014619D01*
X110494914Y-136014619D02*
X110685390Y-136014619D01*
X110685390Y-136014619D02*
X110780628Y-135967000D01*
X110780628Y-135967000D02*
X110828247Y-135919380D01*
X110828247Y-135919380D02*
X110875866Y-135824142D01*
X110875866Y-135824142D02*
X110875866Y-135538428D01*
X110875866Y-135538428D02*
X110828247Y-135443190D01*
X110828247Y-135443190D02*
X110780628Y-135395571D01*
X110780628Y-135395571D02*
X110685390Y-135347952D01*
X110685390Y-135347952D02*
X110494914Y-135347952D01*
X110494914Y-135347952D02*
X110399676Y-135395571D01*
X109971104Y-136014619D02*
X109971104Y-135014619D01*
X109542533Y-136014619D02*
X109542533Y-135490809D01*
X109542533Y-135490809D02*
X109590152Y-135395571D01*
X109590152Y-135395571D02*
X109685390Y-135347952D01*
X109685390Y-135347952D02*
X109828247Y-135347952D01*
X109828247Y-135347952D02*
X109923485Y-135395571D01*
X109923485Y-135395571D02*
X109971104Y-135443190D01*
X145645971Y-52594752D02*
X145455495Y-53261419D01*
X145455495Y-53261419D02*
X145265019Y-52785228D01*
X145265019Y-52785228D02*
X145074543Y-53261419D01*
X145074543Y-53261419D02*
X144884067Y-52594752D01*
X144503114Y-53261419D02*
X144503114Y-52594752D01*
X144503114Y-52261419D02*
X144550733Y-52309038D01*
X144550733Y-52309038D02*
X144503114Y-52356657D01*
X144503114Y-52356657D02*
X144455495Y-52309038D01*
X144455495Y-52309038D02*
X144503114Y-52261419D01*
X144503114Y-52261419D02*
X144503114Y-52356657D01*
X144026924Y-53261419D02*
X144026924Y-52594752D01*
X144026924Y-52785228D02*
X143979305Y-52689990D01*
X143979305Y-52689990D02*
X143931686Y-52642371D01*
X143931686Y-52642371D02*
X143836448Y-52594752D01*
X143836448Y-52594752D02*
X143741210Y-52594752D01*
X143026924Y-53213800D02*
X143122162Y-53261419D01*
X143122162Y-53261419D02*
X143312638Y-53261419D01*
X143312638Y-53261419D02*
X143407876Y-53213800D01*
X143407876Y-53213800D02*
X143455495Y-53118561D01*
X143455495Y-53118561D02*
X143455495Y-52737609D01*
X143455495Y-52737609D02*
X143407876Y-52642371D01*
X143407876Y-52642371D02*
X143312638Y-52594752D01*
X143312638Y-52594752D02*
X143122162Y-52594752D01*
X143122162Y-52594752D02*
X143026924Y-52642371D01*
X143026924Y-52642371D02*
X142979305Y-52737609D01*
X142979305Y-52737609D02*
X142979305Y-52832847D01*
X142979305Y-52832847D02*
X143455495Y-52928085D01*
X141788828Y-53261419D02*
X141788828Y-52261419D01*
X141360257Y-53261419D02*
X141360257Y-52737609D01*
X141360257Y-52737609D02*
X141407876Y-52642371D01*
X141407876Y-52642371D02*
X141503114Y-52594752D01*
X141503114Y-52594752D02*
X141645971Y-52594752D01*
X141645971Y-52594752D02*
X141741209Y-52642371D01*
X141741209Y-52642371D02*
X141788828Y-52689990D01*
X140455495Y-53261419D02*
X140455495Y-52737609D01*
X140455495Y-52737609D02*
X140503114Y-52642371D01*
X140503114Y-52642371D02*
X140598352Y-52594752D01*
X140598352Y-52594752D02*
X140788828Y-52594752D01*
X140788828Y-52594752D02*
X140884066Y-52642371D01*
X140455495Y-53213800D02*
X140550733Y-53261419D01*
X140550733Y-53261419D02*
X140788828Y-53261419D01*
X140788828Y-53261419D02*
X140884066Y-53213800D01*
X140884066Y-53213800D02*
X140931685Y-53118561D01*
X140931685Y-53118561D02*
X140931685Y-53023323D01*
X140931685Y-53023323D02*
X140884066Y-52928085D01*
X140884066Y-52928085D02*
X140788828Y-52880466D01*
X140788828Y-52880466D02*
X140550733Y-52880466D01*
X140550733Y-52880466D02*
X140455495Y-52832847D01*
X139979304Y-52594752D02*
X139979304Y-53261419D01*
X139979304Y-52689990D02*
X139931685Y-52642371D01*
X139931685Y-52642371D02*
X139836447Y-52594752D01*
X139836447Y-52594752D02*
X139693590Y-52594752D01*
X139693590Y-52594752D02*
X139598352Y-52642371D01*
X139598352Y-52642371D02*
X139550733Y-52737609D01*
X139550733Y-52737609D02*
X139550733Y-53261419D01*
X138645971Y-52594752D02*
X138645971Y-53404276D01*
X138645971Y-53404276D02*
X138693590Y-53499514D01*
X138693590Y-53499514D02*
X138741209Y-53547133D01*
X138741209Y-53547133D02*
X138836447Y-53594752D01*
X138836447Y-53594752D02*
X138979304Y-53594752D01*
X138979304Y-53594752D02*
X139074542Y-53547133D01*
X138645971Y-53213800D02*
X138741209Y-53261419D01*
X138741209Y-53261419D02*
X138931685Y-53261419D01*
X138931685Y-53261419D02*
X139026923Y-53213800D01*
X139026923Y-53213800D02*
X139074542Y-53166180D01*
X139074542Y-53166180D02*
X139122161Y-53070942D01*
X139122161Y-53070942D02*
X139122161Y-52785228D01*
X139122161Y-52785228D02*
X139074542Y-52689990D01*
X139074542Y-52689990D02*
X139026923Y-52642371D01*
X139026923Y-52642371D02*
X138931685Y-52594752D01*
X138931685Y-52594752D02*
X138741209Y-52594752D01*
X138741209Y-52594752D02*
X138645971Y-52642371D01*
X138169780Y-53261419D02*
X138169780Y-52594752D01*
X138169780Y-52261419D02*
X138217399Y-52309038D01*
X138217399Y-52309038D02*
X138169780Y-52356657D01*
X138169780Y-52356657D02*
X138122161Y-52309038D01*
X138122161Y-52309038D02*
X138169780Y-52261419D01*
X138169780Y-52261419D02*
X138169780Y-52356657D01*
X137693590Y-52594752D02*
X137693590Y-53261419D01*
X137693590Y-52689990D02*
X137645971Y-52642371D01*
X137645971Y-52642371D02*
X137550733Y-52594752D01*
X137550733Y-52594752D02*
X137407876Y-52594752D01*
X137407876Y-52594752D02*
X137312638Y-52642371D01*
X137312638Y-52642371D02*
X137265019Y-52737609D01*
X137265019Y-52737609D02*
X137265019Y-53261419D01*
X136360257Y-52594752D02*
X136360257Y-53404276D01*
X136360257Y-53404276D02*
X136407876Y-53499514D01*
X136407876Y-53499514D02*
X136455495Y-53547133D01*
X136455495Y-53547133D02*
X136550733Y-53594752D01*
X136550733Y-53594752D02*
X136693590Y-53594752D01*
X136693590Y-53594752D02*
X136788828Y-53547133D01*
X136360257Y-53213800D02*
X136455495Y-53261419D01*
X136455495Y-53261419D02*
X136645971Y-53261419D01*
X136645971Y-53261419D02*
X136741209Y-53213800D01*
X136741209Y-53213800D02*
X136788828Y-53166180D01*
X136788828Y-53166180D02*
X136836447Y-53070942D01*
X136836447Y-53070942D02*
X136836447Y-52785228D01*
X136836447Y-52785228D02*
X136788828Y-52689990D01*
X136788828Y-52689990D02*
X136741209Y-52642371D01*
X136741209Y-52642371D02*
X136645971Y-52594752D01*
X136645971Y-52594752D02*
X136455495Y-52594752D01*
X136455495Y-52594752D02*
X136360257Y-52642371D01*
X135122161Y-52594752D02*
X135122161Y-53594752D01*
X135122161Y-52642371D02*
X135026923Y-52594752D01*
X135026923Y-52594752D02*
X134836447Y-52594752D01*
X134836447Y-52594752D02*
X134741209Y-52642371D01*
X134741209Y-52642371D02*
X134693590Y-52689990D01*
X134693590Y-52689990D02*
X134645971Y-52785228D01*
X134645971Y-52785228D02*
X134645971Y-53070942D01*
X134645971Y-53070942D02*
X134693590Y-53166180D01*
X134693590Y-53166180D02*
X134741209Y-53213800D01*
X134741209Y-53213800D02*
X134836447Y-53261419D01*
X134836447Y-53261419D02*
X135026923Y-53261419D01*
X135026923Y-53261419D02*
X135122161Y-53213800D01*
X133788828Y-53261419D02*
X133788828Y-52737609D01*
X133788828Y-52737609D02*
X133836447Y-52642371D01*
X133836447Y-52642371D02*
X133931685Y-52594752D01*
X133931685Y-52594752D02*
X134122161Y-52594752D01*
X134122161Y-52594752D02*
X134217399Y-52642371D01*
X133788828Y-53213800D02*
X133884066Y-53261419D01*
X133884066Y-53261419D02*
X134122161Y-53261419D01*
X134122161Y-53261419D02*
X134217399Y-53213800D01*
X134217399Y-53213800D02*
X134265018Y-53118561D01*
X134265018Y-53118561D02*
X134265018Y-53023323D01*
X134265018Y-53023323D02*
X134217399Y-52928085D01*
X134217399Y-52928085D02*
X134122161Y-52880466D01*
X134122161Y-52880466D02*
X133884066Y-52880466D01*
X133884066Y-52880466D02*
X133788828Y-52832847D01*
X132884066Y-53261419D02*
X132884066Y-52261419D01*
X132884066Y-53213800D02*
X132979304Y-53261419D01*
X132979304Y-53261419D02*
X133169780Y-53261419D01*
X133169780Y-53261419D02*
X133265018Y-53213800D01*
X133265018Y-53213800D02*
X133312637Y-53166180D01*
X133312637Y-53166180D02*
X133360256Y-53070942D01*
X133360256Y-53070942D02*
X133360256Y-52785228D01*
X133360256Y-52785228D02*
X133312637Y-52689990D01*
X133312637Y-52689990D02*
X133265018Y-52642371D01*
X133265018Y-52642371D02*
X133169780Y-52594752D01*
X133169780Y-52594752D02*
X132979304Y-52594752D01*
X132979304Y-52594752D02*
X132884066Y-52642371D01*
%TO.C,BAT1*%
X130510200Y-93969200D02*
X138110200Y-93969200D01*
D13*
%TO.C,Switch*%
X110036200Y-125874200D02*
X110036200Y-134374200D01*
X110036200Y-125874200D02*
X113636200Y-125874200D01*
X110036200Y-134374200D02*
X113636200Y-134374200D01*
X113636200Y-125874200D02*
X113636200Y-134374200D01*
D14*
%TO.C,G\u002A\u002A\u002A*%
X140639800Y-68647734D02*
X140385800Y-68647734D01*
X140385800Y-66869734D01*
X140639800Y-66869734D01*
X140639800Y-68647734D01*
G36*
X140639800Y-68647734D02*
G01*
X140385800Y-68647734D01*
X140385800Y-66869734D01*
X140639800Y-66869734D01*
X140639800Y-68647734D01*
G37*
X129802467Y-68647734D02*
X129506134Y-68647734D01*
X129506134Y-67885734D01*
X128913467Y-67885734D01*
X128913467Y-67631734D01*
X129506134Y-67631734D01*
X129506134Y-67081400D01*
X129146300Y-67081400D01*
X128973430Y-67080456D01*
X128866490Y-67074331D01*
X128810858Y-67058094D01*
X128789771Y-67026816D01*
X128786467Y-66975567D01*
X128786467Y-66869734D01*
X129802467Y-66869734D01*
X129802467Y-68647734D01*
G36*
X129802467Y-68647734D02*
G01*
X129506134Y-68647734D01*
X129506134Y-67885734D01*
X128913467Y-67885734D01*
X128913467Y-67631734D01*
X129506134Y-67631734D01*
X129506134Y-67081400D01*
X129146300Y-67081400D01*
X128973430Y-67080456D01*
X128866490Y-67074331D01*
X128810858Y-67058094D01*
X128789771Y-67026816D01*
X128786467Y-66975567D01*
X128786467Y-66869734D01*
X129802467Y-66869734D01*
X129802467Y-68647734D01*
G37*
X134797800Y-68647734D02*
X133697134Y-68647734D01*
X133697134Y-68393734D01*
X134501467Y-68393734D01*
X134501467Y-67885734D01*
X133866467Y-67885734D01*
X133866467Y-67631734D01*
X134501467Y-67631734D01*
X134501467Y-67081400D01*
X134120467Y-67081400D01*
X134086855Y-67081395D01*
X133918348Y-67080112D01*
X133815649Y-67073413D01*
X133762464Y-67056773D01*
X133742501Y-67025666D01*
X133739467Y-66975567D01*
X133739467Y-66869734D01*
X134797800Y-66869734D01*
X134797800Y-68647734D01*
G36*
X134797800Y-68647734D02*
G01*
X133697134Y-68647734D01*
X133697134Y-68393734D01*
X134501467Y-68393734D01*
X134501467Y-67885734D01*
X133866467Y-67885734D01*
X133866467Y-67631734D01*
X134501467Y-67631734D01*
X134501467Y-67081400D01*
X134120467Y-67081400D01*
X134086855Y-67081395D01*
X133918348Y-67080112D01*
X133815649Y-67073413D01*
X133762464Y-67056773D01*
X133742501Y-67025666D01*
X133739467Y-66975567D01*
X133739467Y-66869734D01*
X134797800Y-66869734D01*
X134797800Y-68647734D01*
G37*
X139920134Y-68647734D02*
X138819467Y-68647734D01*
X138819467Y-68393734D01*
X139623800Y-68393734D01*
X139623800Y-67885734D01*
X138988800Y-67885734D01*
X138988800Y-67631734D01*
X139623800Y-67631734D01*
X139623800Y-67081400D01*
X139242800Y-67081400D01*
X139209189Y-67081395D01*
X139040682Y-67080112D01*
X138937982Y-67073413D01*
X138884797Y-67056773D01*
X138864834Y-67025666D01*
X138861800Y-66975567D01*
X138861800Y-66869734D01*
X139920134Y-66869734D01*
X139920134Y-68647734D01*
G36*
X139920134Y-68647734D02*
G01*
X138819467Y-68647734D01*
X138819467Y-68393734D01*
X139623800Y-68393734D01*
X139623800Y-67885734D01*
X138988800Y-67885734D01*
X138988800Y-67631734D01*
X139623800Y-67631734D01*
X139623800Y-67081400D01*
X139242800Y-67081400D01*
X139209189Y-67081395D01*
X139040682Y-67080112D01*
X138937982Y-67073413D01*
X138884797Y-67056773D01*
X138864834Y-67025666D01*
X138861800Y-66975567D01*
X138861800Y-66869734D01*
X139920134Y-66869734D01*
X139920134Y-68647734D01*
G37*
X138480800Y-68647734D02*
X138226800Y-68647734D01*
X138226800Y-67320125D01*
X137776087Y-67983929D01*
X137742342Y-68033606D01*
X137592676Y-68252484D01*
X137480159Y-68412106D01*
X137396465Y-68521797D01*
X137333269Y-68590880D01*
X137282247Y-68628682D01*
X137235072Y-68644525D01*
X137183421Y-68647734D01*
X137041467Y-68647734D01*
X137041467Y-66869734D01*
X137349134Y-66869734D01*
X137329341Y-67520981D01*
X137309547Y-68172228D01*
X137740531Y-67531564D01*
X137752088Y-67514386D01*
X137902808Y-67291599D01*
X138016076Y-67129000D01*
X138100622Y-67016846D01*
X138165173Y-66945390D01*
X138218461Y-66904887D01*
X138269212Y-66885593D01*
X138326158Y-66877761D01*
X138480800Y-66864623D01*
X138480800Y-68647734D01*
G36*
X138480800Y-68647734D02*
G01*
X138226800Y-68647734D01*
X138226800Y-67320125D01*
X137776087Y-67983929D01*
X137742342Y-68033606D01*
X137592676Y-68252484D01*
X137480159Y-68412106D01*
X137396465Y-68521797D01*
X137333269Y-68590880D01*
X137282247Y-68628682D01*
X137235072Y-68644525D01*
X137183421Y-68647734D01*
X137041467Y-68647734D01*
X137041467Y-66869734D01*
X137349134Y-66869734D01*
X137329341Y-67520981D01*
X137309547Y-68172228D01*
X137740531Y-67531564D01*
X137752088Y-67514386D01*
X137902808Y-67291599D01*
X138016076Y-67129000D01*
X138100622Y-67016846D01*
X138165173Y-66945390D01*
X138218461Y-66904887D01*
X138269212Y-66885593D01*
X138326158Y-66877761D01*
X138480800Y-66864623D01*
X138480800Y-68647734D01*
G37*
X124849467Y-68647734D02*
X124457884Y-68647497D01*
X124356366Y-68646581D01*
X124100775Y-68632366D01*
X123904884Y-68597698D01*
X123750958Y-68538397D01*
X123621259Y-68450282D01*
X123463400Y-68274095D01*
X123359728Y-68040190D01*
X123325467Y-67759060D01*
X123327150Y-67737567D01*
X123622117Y-67737567D01*
X123653692Y-67959900D01*
X123756666Y-68158535D01*
X123928330Y-68309296D01*
X123928604Y-68309462D01*
X124091886Y-68373227D01*
X124309717Y-68393575D01*
X124553134Y-68393734D01*
X124553134Y-67069339D01*
X124298072Y-67095998D01*
X124127124Y-67123057D01*
X123901439Y-67203344D01*
X123744152Y-67330524D01*
X123652099Y-67507597D01*
X123622117Y-67737567D01*
X123327150Y-67737567D01*
X123344471Y-67516353D01*
X123420087Y-67277023D01*
X123556652Y-67090408D01*
X123757697Y-66949895D01*
X123778137Y-66939891D01*
X123873095Y-66905306D01*
X123991941Y-66883815D01*
X124154880Y-66872821D01*
X124382114Y-66869734D01*
X124849467Y-66869734D01*
X124849467Y-68393734D01*
X124849467Y-68647734D01*
G36*
X124849467Y-68647734D02*
G01*
X124457884Y-68647497D01*
X124356366Y-68646581D01*
X124100775Y-68632366D01*
X123904884Y-68597698D01*
X123750958Y-68538397D01*
X123621259Y-68450282D01*
X123463400Y-68274095D01*
X123359728Y-68040190D01*
X123325467Y-67759060D01*
X123327150Y-67737567D01*
X123622117Y-67737567D01*
X123653692Y-67959900D01*
X123756666Y-68158535D01*
X123928330Y-68309296D01*
X123928604Y-68309462D01*
X124091886Y-68373227D01*
X124309717Y-68393575D01*
X124553134Y-68393734D01*
X124553134Y-67069339D01*
X124298072Y-67095998D01*
X124127124Y-67123057D01*
X123901439Y-67203344D01*
X123744152Y-67330524D01*
X123652099Y-67507597D01*
X123622117Y-67737567D01*
X123327150Y-67737567D01*
X123344471Y-67516353D01*
X123420087Y-67277023D01*
X123556652Y-67090408D01*
X123757697Y-66949895D01*
X123778137Y-66939891D01*
X123873095Y-66905306D01*
X123991941Y-66883815D01*
X124154880Y-66872821D01*
X124382114Y-66869734D01*
X124849467Y-66869734D01*
X124849467Y-68393734D01*
X124849467Y-68647734D01*
G37*
X123935844Y-63797520D02*
X123865456Y-63986830D01*
X123723576Y-64158284D01*
X123704376Y-64174879D01*
X123602940Y-64246445D01*
X123496908Y-64279425D01*
X123346634Y-64287400D01*
X123316896Y-64287232D01*
X123176728Y-64276040D01*
X123074209Y-64237584D01*
X122969692Y-64158284D01*
X122920573Y-64110736D01*
X122803511Y-63934938D01*
X122754230Y-63744278D01*
X122758948Y-63676135D01*
X122938710Y-63676135D01*
X122967380Y-63842285D01*
X123068211Y-63994323D01*
X123126818Y-64044799D01*
X123285851Y-64114708D01*
X123453200Y-64102686D01*
X123618552Y-64008470D01*
X123693870Y-63934817D01*
X123738068Y-63843528D01*
X123748800Y-63710213D01*
X123731110Y-63578439D01*
X123652999Y-63425546D01*
X123527113Y-63323014D01*
X123369437Y-63282277D01*
X123195959Y-63314772D01*
X123082530Y-63383024D01*
X122978371Y-63516255D01*
X122938710Y-63676135D01*
X122758948Y-63676135D01*
X122767404Y-63554019D01*
X122837709Y-63379421D01*
X122959818Y-63235748D01*
X123128408Y-63138262D01*
X123338153Y-63102225D01*
X123405991Y-63105364D01*
X123611382Y-63160139D01*
X123772508Y-63271664D01*
X123883924Y-63425016D01*
X123940185Y-63605275D01*
X123937815Y-63710213D01*
X123935844Y-63797520D01*
G36*
X123935844Y-63797520D02*
G01*
X123865456Y-63986830D01*
X123723576Y-64158284D01*
X123704376Y-64174879D01*
X123602940Y-64246445D01*
X123496908Y-64279425D01*
X123346634Y-64287400D01*
X123316896Y-64287232D01*
X123176728Y-64276040D01*
X123074209Y-64237584D01*
X122969692Y-64158284D01*
X122920573Y-64110736D01*
X122803511Y-63934938D01*
X122754230Y-63744278D01*
X122758948Y-63676135D01*
X122938710Y-63676135D01*
X122967380Y-63842285D01*
X123068211Y-63994323D01*
X123126818Y-64044799D01*
X123285851Y-64114708D01*
X123453200Y-64102686D01*
X123618552Y-64008470D01*
X123693870Y-63934817D01*
X123738068Y-63843528D01*
X123748800Y-63710213D01*
X123731110Y-63578439D01*
X123652999Y-63425546D01*
X123527113Y-63323014D01*
X123369437Y-63282277D01*
X123195959Y-63314772D01*
X123082530Y-63383024D01*
X122978371Y-63516255D01*
X122938710Y-63676135D01*
X122758948Y-63676135D01*
X122767404Y-63554019D01*
X122837709Y-63379421D01*
X122959818Y-63235748D01*
X123128408Y-63138262D01*
X123338153Y-63102225D01*
X123405991Y-63105364D01*
X123611382Y-63160139D01*
X123772508Y-63271664D01*
X123883924Y-63425016D01*
X123940185Y-63605275D01*
X123937815Y-63710213D01*
X123935844Y-63797520D01*
G37*
X126458134Y-68647734D02*
X126161800Y-68647734D01*
X126161800Y-67970400D01*
X125981884Y-67970994D01*
X125801967Y-67971589D01*
X125620171Y-68309661D01*
X125536305Y-68462608D01*
X125471916Y-68565261D01*
X125419092Y-68620706D01*
X125363821Y-68643383D01*
X125292087Y-68647734D01*
X125274310Y-68647458D01*
X125182997Y-68635258D01*
X125145800Y-68610552D01*
X125150773Y-68593102D01*
X125187406Y-68512134D01*
X125251889Y-68385377D01*
X125334934Y-68231442D01*
X125524068Y-67889514D01*
X125401547Y-67766993D01*
X125370878Y-67733962D01*
X125266067Y-67554418D01*
X125251933Y-67463036D01*
X125538134Y-67463036D01*
X125611467Y-67589400D01*
X125664321Y-67630256D01*
X125768648Y-67664311D01*
X125928967Y-67674067D01*
X126161800Y-67674067D01*
X126161800Y-67069555D01*
X125918384Y-67094630D01*
X125811032Y-67109316D01*
X125681285Y-67148122D01*
X125600884Y-67211076D01*
X125541584Y-67321542D01*
X125538134Y-67463036D01*
X125251933Y-67463036D01*
X125235723Y-67358228D01*
X125279915Y-67164242D01*
X125398712Y-66991309D01*
X125435874Y-66955135D01*
X125488979Y-66914163D01*
X125552238Y-66888972D01*
X125644277Y-66875727D01*
X125783725Y-66870593D01*
X125989211Y-66869734D01*
X126458134Y-66869734D01*
X126458134Y-67674067D01*
X126458134Y-68647734D01*
G36*
X126458134Y-68647734D02*
G01*
X126161800Y-68647734D01*
X126161800Y-67970400D01*
X125981884Y-67970994D01*
X125801967Y-67971589D01*
X125620171Y-68309661D01*
X125536305Y-68462608D01*
X125471916Y-68565261D01*
X125419092Y-68620706D01*
X125363821Y-68643383D01*
X125292087Y-68647734D01*
X125274310Y-68647458D01*
X125182997Y-68635258D01*
X125145800Y-68610552D01*
X125150773Y-68593102D01*
X125187406Y-68512134D01*
X125251889Y-68385377D01*
X125334934Y-68231442D01*
X125524068Y-67889514D01*
X125401547Y-67766993D01*
X125370878Y-67733962D01*
X125266067Y-67554418D01*
X125251933Y-67463036D01*
X125538134Y-67463036D01*
X125611467Y-67589400D01*
X125664321Y-67630256D01*
X125768648Y-67664311D01*
X125928967Y-67674067D01*
X126161800Y-67674067D01*
X126161800Y-67069555D01*
X125918384Y-67094630D01*
X125811032Y-67109316D01*
X125681285Y-67148122D01*
X125600884Y-67211076D01*
X125541584Y-67321542D01*
X125538134Y-67463036D01*
X125251933Y-67463036D01*
X125235723Y-67358228D01*
X125279915Y-67164242D01*
X125398712Y-66991309D01*
X125435874Y-66955135D01*
X125488979Y-66914163D01*
X125552238Y-66888972D01*
X125644277Y-66875727D01*
X125783725Y-66870593D01*
X125989211Y-66869734D01*
X126458134Y-66869734D01*
X126458134Y-67674067D01*
X126458134Y-68647734D01*
G37*
X141872978Y-66845009D02*
X142074245Y-66909573D01*
X142115793Y-66932068D01*
X142330228Y-67100864D01*
X142482623Y-67319379D01*
X142565854Y-67574148D01*
X142572796Y-67851708D01*
X142562206Y-67924235D01*
X142478577Y-68193565D01*
X142333258Y-68406324D01*
X142128727Y-68559700D01*
X141867467Y-68650883D01*
X141659715Y-68667657D01*
X141401422Y-68633420D01*
X141169438Y-68547162D01*
X141120476Y-68519139D01*
X141017941Y-68434732D01*
X140992773Y-68349151D01*
X141040203Y-68251484D01*
X141056111Y-68231191D01*
X141096465Y-68197989D01*
X141147027Y-68209940D01*
X141236667Y-68269724D01*
X141367048Y-68339121D01*
X141576462Y-68387277D01*
X141789732Y-68377286D01*
X141975746Y-68307555D01*
X142023469Y-68273559D01*
X142158029Y-68123265D01*
X142253088Y-67934226D01*
X142289871Y-67740349D01*
X142278789Y-67635248D01*
X142209884Y-67446638D01*
X142093883Y-67279305D01*
X141949359Y-67164651D01*
X141750544Y-67094576D01*
X141546213Y-67095875D01*
X141324303Y-67172843D01*
X141235604Y-67214684D01*
X141160667Y-67240336D01*
X141116773Y-67230290D01*
X141078104Y-67185918D01*
X141044538Y-67133728D01*
X141028028Y-67055051D01*
X141078508Y-66987823D01*
X141203499Y-66915843D01*
X141394927Y-66852508D01*
X141635042Y-66826070D01*
X141872978Y-66845009D01*
G36*
X141872978Y-66845009D02*
G01*
X142074245Y-66909573D01*
X142115793Y-66932068D01*
X142330228Y-67100864D01*
X142482623Y-67319379D01*
X142565854Y-67574148D01*
X142572796Y-67851708D01*
X142562206Y-67924235D01*
X142478577Y-68193565D01*
X142333258Y-68406324D01*
X142128727Y-68559700D01*
X141867467Y-68650883D01*
X141659715Y-68667657D01*
X141401422Y-68633420D01*
X141169438Y-68547162D01*
X141120476Y-68519139D01*
X141017941Y-68434732D01*
X140992773Y-68349151D01*
X141040203Y-68251484D01*
X141056111Y-68231191D01*
X141096465Y-68197989D01*
X141147027Y-68209940D01*
X141236667Y-68269724D01*
X141367048Y-68339121D01*
X141576462Y-68387277D01*
X141789732Y-68377286D01*
X141975746Y-68307555D01*
X142023469Y-68273559D01*
X142158029Y-68123265D01*
X142253088Y-67934226D01*
X142289871Y-67740349D01*
X142278789Y-67635248D01*
X142209884Y-67446638D01*
X142093883Y-67279305D01*
X141949359Y-67164651D01*
X141750544Y-67094576D01*
X141546213Y-67095875D01*
X141324303Y-67172843D01*
X141235604Y-67214684D01*
X141160667Y-67240336D01*
X141116773Y-67230290D01*
X141078104Y-67185918D01*
X141044538Y-67133728D01*
X141028028Y-67055051D01*
X141078508Y-66987823D01*
X141203499Y-66915843D01*
X141394927Y-66852508D01*
X141635042Y-66826070D01*
X141872978Y-66845009D01*
G37*
X120170517Y-67698553D02*
X120149753Y-67940555D01*
X120065779Y-68181201D01*
X119913770Y-68375291D01*
X119689896Y-68529445D01*
X119611287Y-68566838D01*
X119349469Y-68641323D01*
X119097128Y-68644043D01*
X118862569Y-68583950D01*
X118654094Y-68469994D01*
X118480007Y-68311125D01*
X118348611Y-68116293D01*
X118268211Y-67894449D01*
X118248747Y-67673162D01*
X118566805Y-67673162D01*
X118585651Y-67865540D01*
X118668801Y-68049041D01*
X118822531Y-68210348D01*
X119006063Y-68310907D01*
X119216157Y-68347944D01*
X119421548Y-68313945D01*
X119607329Y-68214244D01*
X119758594Y-68054172D01*
X119860435Y-67839062D01*
X119863507Y-67828330D01*
X119876312Y-67633585D01*
X119820363Y-67439162D01*
X119708265Y-67265000D01*
X119552627Y-67131035D01*
X119366054Y-67057207D01*
X119217409Y-67044279D01*
X119008902Y-67081260D01*
X118833311Y-67175957D01*
X118696913Y-67315052D01*
X118605985Y-67485227D01*
X118566805Y-67673162D01*
X118248747Y-67673162D01*
X118247109Y-67654543D01*
X118293610Y-67405525D01*
X118416016Y-67156345D01*
X118496225Y-67052273D01*
X118697531Y-66883426D01*
X118933575Y-66778330D01*
X119188677Y-66738380D01*
X119447157Y-66764970D01*
X119693337Y-66859495D01*
X119911536Y-67023348D01*
X120004174Y-67125115D01*
X120103289Y-67283491D01*
X120155051Y-67465028D01*
X120166215Y-67633585D01*
X120170517Y-67698553D01*
G36*
X120170517Y-67698553D02*
G01*
X120149753Y-67940555D01*
X120065779Y-68181201D01*
X119913770Y-68375291D01*
X119689896Y-68529445D01*
X119611287Y-68566838D01*
X119349469Y-68641323D01*
X119097128Y-68644043D01*
X118862569Y-68583950D01*
X118654094Y-68469994D01*
X118480007Y-68311125D01*
X118348611Y-68116293D01*
X118268211Y-67894449D01*
X118248747Y-67673162D01*
X118566805Y-67673162D01*
X118585651Y-67865540D01*
X118668801Y-68049041D01*
X118822531Y-68210348D01*
X119006063Y-68310907D01*
X119216157Y-68347944D01*
X119421548Y-68313945D01*
X119607329Y-68214244D01*
X119758594Y-68054172D01*
X119860435Y-67839062D01*
X119863507Y-67828330D01*
X119876312Y-67633585D01*
X119820363Y-67439162D01*
X119708265Y-67265000D01*
X119552627Y-67131035D01*
X119366054Y-67057207D01*
X119217409Y-67044279D01*
X119008902Y-67081260D01*
X118833311Y-67175957D01*
X118696913Y-67315052D01*
X118605985Y-67485227D01*
X118566805Y-67673162D01*
X118248747Y-67673162D01*
X118247109Y-67654543D01*
X118293610Y-67405525D01*
X118416016Y-67156345D01*
X118496225Y-67052273D01*
X118697531Y-66883426D01*
X118933575Y-66778330D01*
X119188677Y-66738380D01*
X119447157Y-66764970D01*
X119693337Y-66859495D01*
X119911536Y-67023348D01*
X120004174Y-67125115D01*
X120103289Y-67283491D01*
X120155051Y-67465028D01*
X120166215Y-67633585D01*
X120170517Y-67698553D01*
G37*
X136004938Y-66844672D02*
X136241059Y-66925900D01*
X136330572Y-66979266D01*
X136520537Y-67154845D01*
X136642076Y-67380225D01*
X136695315Y-67655611D01*
X136695935Y-67665857D01*
X136680181Y-67966606D01*
X136595267Y-68218787D01*
X136440695Y-68423362D01*
X136215967Y-68581296D01*
X136172301Y-68599723D01*
X136004232Y-68635039D01*
X135775186Y-68647473D01*
X135669235Y-68646139D01*
X135515996Y-68633028D01*
X135396505Y-68600060D01*
X135277770Y-68540116D01*
X135193188Y-68486145D01*
X135112513Y-68407628D01*
X135105704Y-68334587D01*
X135168217Y-68255206D01*
X135190541Y-68236212D01*
X135240624Y-68213900D01*
X135305000Y-68230722D01*
X135411634Y-68290761D01*
X135506893Y-68339661D01*
X135723123Y-68392760D01*
X135931576Y-68374051D01*
X136118187Y-68291356D01*
X136268894Y-68152496D01*
X136369631Y-67965292D01*
X136406336Y-67737567D01*
X136406262Y-67726553D01*
X136367112Y-67496502D01*
X136264676Y-67311046D01*
X136111445Y-67177806D01*
X135919912Y-67104401D01*
X135702570Y-67098451D01*
X135471909Y-67167577D01*
X135353245Y-67221273D01*
X135282720Y-67241951D01*
X135240137Y-67229062D01*
X135200935Y-67184105D01*
X135161529Y-67120742D01*
X135159503Y-67057125D01*
X135218852Y-66996440D01*
X135348636Y-66922650D01*
X135485308Y-66868178D01*
X135742511Y-66825393D01*
X136004938Y-66844672D01*
G36*
X136004938Y-66844672D02*
G01*
X136241059Y-66925900D01*
X136330572Y-66979266D01*
X136520537Y-67154845D01*
X136642076Y-67380225D01*
X136695315Y-67655611D01*
X136695935Y-67665857D01*
X136680181Y-67966606D01*
X136595267Y-68218787D01*
X136440695Y-68423362D01*
X136215967Y-68581296D01*
X136172301Y-68599723D01*
X136004232Y-68635039D01*
X135775186Y-68647473D01*
X135669235Y-68646139D01*
X135515996Y-68633028D01*
X135396505Y-68600060D01*
X135277770Y-68540116D01*
X135193188Y-68486145D01*
X135112513Y-68407628D01*
X135105704Y-68334587D01*
X135168217Y-68255206D01*
X135190541Y-68236212D01*
X135240624Y-68213900D01*
X135305000Y-68230722D01*
X135411634Y-68290761D01*
X135506893Y-68339661D01*
X135723123Y-68392760D01*
X135931576Y-68374051D01*
X136118187Y-68291356D01*
X136268894Y-68152496D01*
X136369631Y-67965292D01*
X136406336Y-67737567D01*
X136406262Y-67726553D01*
X136367112Y-67496502D01*
X136264676Y-67311046D01*
X136111445Y-67177806D01*
X135919912Y-67104401D01*
X135702570Y-67098451D01*
X135471909Y-67167577D01*
X135353245Y-67221273D01*
X135282720Y-67241951D01*
X135240137Y-67229062D01*
X135200935Y-67184105D01*
X135161529Y-67120742D01*
X135159503Y-67057125D01*
X135218852Y-66996440D01*
X135348636Y-66922650D01*
X135485308Y-66868178D01*
X135742511Y-66825393D01*
X136004938Y-66844672D01*
G37*
X131235885Y-67296046D02*
X130978349Y-67722359D01*
X131201813Y-68089796D01*
X131262461Y-68189316D01*
X131359967Y-68348496D01*
X131439610Y-68477513D01*
X131488383Y-68555244D01*
X131513411Y-68595341D01*
X131524459Y-68634800D01*
X131481674Y-68646017D01*
X131369759Y-68639911D01*
X131347264Y-68638208D01*
X131267525Y-68627579D01*
X131207319Y-68601063D01*
X131151363Y-68544196D01*
X131084371Y-68442517D01*
X130991060Y-68281560D01*
X130794091Y-67936554D01*
X130591829Y-68292144D01*
X130557024Y-68353236D01*
X130473161Y-68495806D01*
X130411954Y-68582835D01*
X130359129Y-68628027D01*
X130300411Y-68645091D01*
X130221528Y-68647734D01*
X130204721Y-68647809D01*
X130139207Y-68647610D01*
X130098863Y-68638643D01*
X130086740Y-68610260D01*
X130105892Y-68551816D01*
X130159368Y-68452664D01*
X130250223Y-68302156D01*
X130381507Y-68089647D01*
X130608427Y-67722060D01*
X130369998Y-67327647D01*
X130290100Y-67195449D01*
X130203572Y-67052205D01*
X130141150Y-66948778D01*
X130112686Y-66901484D01*
X130113237Y-66893744D01*
X130162872Y-66876581D01*
X130264194Y-66869734D01*
X130346183Y-66872586D01*
X130408016Y-66890901D01*
X130462842Y-66939205D01*
X130526961Y-67032029D01*
X130616673Y-67183900D01*
X130798762Y-67498066D01*
X130967006Y-67183900D01*
X131135249Y-66869734D01*
X131493422Y-66869734D01*
X131235885Y-67296046D01*
G36*
X131235885Y-67296046D02*
G01*
X130978349Y-67722359D01*
X131201813Y-68089796D01*
X131262461Y-68189316D01*
X131359967Y-68348496D01*
X131439610Y-68477513D01*
X131488383Y-68555244D01*
X131513411Y-68595341D01*
X131524459Y-68634800D01*
X131481674Y-68646017D01*
X131369759Y-68639911D01*
X131347264Y-68638208D01*
X131267525Y-68627579D01*
X131207319Y-68601063D01*
X131151363Y-68544196D01*
X131084371Y-68442517D01*
X130991060Y-68281560D01*
X130794091Y-67936554D01*
X130591829Y-68292144D01*
X130557024Y-68353236D01*
X130473161Y-68495806D01*
X130411954Y-68582835D01*
X130359129Y-68628027D01*
X130300411Y-68645091D01*
X130221528Y-68647734D01*
X130204721Y-68647809D01*
X130139207Y-68647610D01*
X130098863Y-68638643D01*
X130086740Y-68610260D01*
X130105892Y-68551816D01*
X130159368Y-68452664D01*
X130250223Y-68302156D01*
X130381507Y-68089647D01*
X130608427Y-67722060D01*
X130369998Y-67327647D01*
X130290100Y-67195449D01*
X130203572Y-67052205D01*
X130141150Y-66948778D01*
X130112686Y-66901484D01*
X130113237Y-66893744D01*
X130162872Y-66876581D01*
X130264194Y-66869734D01*
X130346183Y-66872586D01*
X130408016Y-66890901D01*
X130462842Y-66939205D01*
X130526961Y-67032029D01*
X130616673Y-67183900D01*
X130798762Y-67498066D01*
X130967006Y-67183900D01*
X131135249Y-66869734D01*
X131493422Y-66869734D01*
X131235885Y-67296046D01*
G37*
X128608417Y-67828038D02*
X128556162Y-68061129D01*
X128450980Y-68273585D01*
X128297108Y-68451404D01*
X128098785Y-68580583D01*
X127860249Y-68647120D01*
X127820925Y-68651174D01*
X127598793Y-68653809D01*
X127392310Y-68625880D01*
X127234452Y-68571378D01*
X127121968Y-68489009D01*
X126980465Y-68330160D01*
X126863793Y-68140276D01*
X126793079Y-67949141D01*
X126778776Y-67871805D01*
X126777055Y-67634163D01*
X127071811Y-67634163D01*
X127072736Y-67846501D01*
X127150782Y-68053184D01*
X127305326Y-68241005D01*
X127326307Y-68259748D01*
X127437994Y-68345075D01*
X127541371Y-68384292D01*
X127676095Y-68393734D01*
X127831116Y-68376125D01*
X128021824Y-68295522D01*
X128168683Y-68162979D01*
X128266664Y-67993267D01*
X128310742Y-67801157D01*
X128295891Y-67601422D01*
X128217083Y-67408833D01*
X128069294Y-67238161D01*
X128044468Y-67218064D01*
X127847992Y-67110556D01*
X127647079Y-67086321D01*
X127448819Y-67144940D01*
X127260299Y-67285995D01*
X127148630Y-67429374D01*
X127071811Y-67634163D01*
X126777055Y-67634163D01*
X126776807Y-67599924D01*
X126847072Y-67352523D01*
X126980877Y-67140633D01*
X127169526Y-66975283D01*
X127404324Y-66867506D01*
X127676577Y-66828330D01*
X127850269Y-66841018D01*
X128114366Y-66921383D01*
X128336722Y-67073063D01*
X128405227Y-67144971D01*
X128537187Y-67355956D01*
X128603505Y-67588312D01*
X128607867Y-67801157D01*
X128608417Y-67828038D01*
G36*
X128608417Y-67828038D02*
G01*
X128556162Y-68061129D01*
X128450980Y-68273585D01*
X128297108Y-68451404D01*
X128098785Y-68580583D01*
X127860249Y-68647120D01*
X127820925Y-68651174D01*
X127598793Y-68653809D01*
X127392310Y-68625880D01*
X127234452Y-68571378D01*
X127121968Y-68489009D01*
X126980465Y-68330160D01*
X126863793Y-68140276D01*
X126793079Y-67949141D01*
X126778776Y-67871805D01*
X126777055Y-67634163D01*
X127071811Y-67634163D01*
X127072736Y-67846501D01*
X127150782Y-68053184D01*
X127305326Y-68241005D01*
X127326307Y-68259748D01*
X127437994Y-68345075D01*
X127541371Y-68384292D01*
X127676095Y-68393734D01*
X127831116Y-68376125D01*
X128021824Y-68295522D01*
X128168683Y-68162979D01*
X128266664Y-67993267D01*
X128310742Y-67801157D01*
X128295891Y-67601422D01*
X128217083Y-67408833D01*
X128069294Y-67238161D01*
X128044468Y-67218064D01*
X127847992Y-67110556D01*
X127647079Y-67086321D01*
X127448819Y-67144940D01*
X127260299Y-67285995D01*
X127148630Y-67429374D01*
X127071811Y-67634163D01*
X126777055Y-67634163D01*
X126776807Y-67599924D01*
X126847072Y-67352523D01*
X126980877Y-67140633D01*
X127169526Y-66975283D01*
X127404324Y-66867506D01*
X127676577Y-66828330D01*
X127850269Y-66841018D01*
X128114366Y-66921383D01*
X128336722Y-67073063D01*
X128405227Y-67144971D01*
X128537187Y-67355956D01*
X128603505Y-67588312D01*
X128607867Y-67801157D01*
X128608417Y-67828038D01*
G37*
X133470346Y-67858321D02*
X133443079Y-68000367D01*
X133339801Y-68243247D01*
X133178320Y-68439678D01*
X132969405Y-68578274D01*
X132723826Y-68647648D01*
X132673964Y-68652541D01*
X132458810Y-68653363D01*
X132258219Y-68625519D01*
X132105983Y-68573089D01*
X132102303Y-68571062D01*
X131975672Y-68472769D01*
X131844500Y-68328470D01*
X131733701Y-68169280D01*
X131668187Y-68026313D01*
X131635679Y-67865554D01*
X131636235Y-67788450D01*
X131931123Y-67788450D01*
X131983832Y-67990547D01*
X132089707Y-68173988D01*
X132234051Y-68307470D01*
X132289339Y-68336886D01*
X132487217Y-68388453D01*
X132695354Y-68378065D01*
X132879674Y-68305807D01*
X132971116Y-68229808D01*
X133091689Y-68060075D01*
X133165016Y-67860848D01*
X133176252Y-67664241D01*
X133171586Y-67634460D01*
X133100332Y-67431790D01*
X132975803Y-67268614D01*
X132813620Y-67153223D01*
X132629406Y-67093905D01*
X132438782Y-67098951D01*
X132257370Y-67176650D01*
X132133333Y-67275274D01*
X131996667Y-67453410D01*
X131932016Y-67664241D01*
X131931123Y-67788450D01*
X131636235Y-67788450D01*
X131637654Y-67591888D01*
X131710249Y-67344849D01*
X131845828Y-67134751D01*
X132036759Y-66971911D01*
X132275405Y-66866642D01*
X132554134Y-66829260D01*
X132801008Y-66858556D01*
X133046193Y-66957524D01*
X133244521Y-67116869D01*
X133387190Y-67326708D01*
X133465399Y-67577153D01*
X133466932Y-67664241D01*
X133470346Y-67858321D01*
G36*
X133470346Y-67858321D02*
G01*
X133443079Y-68000367D01*
X133339801Y-68243247D01*
X133178320Y-68439678D01*
X132969405Y-68578274D01*
X132723826Y-68647648D01*
X132673964Y-68652541D01*
X132458810Y-68653363D01*
X132258219Y-68625519D01*
X132105983Y-68573089D01*
X132102303Y-68571062D01*
X131975672Y-68472769D01*
X131844500Y-68328470D01*
X131733701Y-68169280D01*
X131668187Y-68026313D01*
X131635679Y-67865554D01*
X131636235Y-67788450D01*
X131931123Y-67788450D01*
X131983832Y-67990547D01*
X132089707Y-68173988D01*
X132234051Y-68307470D01*
X132289339Y-68336886D01*
X132487217Y-68388453D01*
X132695354Y-68378065D01*
X132879674Y-68305807D01*
X132971116Y-68229808D01*
X133091689Y-68060075D01*
X133165016Y-67860848D01*
X133176252Y-67664241D01*
X133171586Y-67634460D01*
X133100332Y-67431790D01*
X132975803Y-67268614D01*
X132813620Y-67153223D01*
X132629406Y-67093905D01*
X132438782Y-67098951D01*
X132257370Y-67176650D01*
X132133333Y-67275274D01*
X131996667Y-67453410D01*
X131932016Y-67664241D01*
X131931123Y-67788450D01*
X131636235Y-67788450D01*
X131637654Y-67591888D01*
X131710249Y-67344849D01*
X131845828Y-67134751D01*
X132036759Y-66971911D01*
X132275405Y-66866642D01*
X132554134Y-66829260D01*
X132801008Y-66858556D01*
X133046193Y-66957524D01*
X133244521Y-67116869D01*
X133387190Y-67326708D01*
X133465399Y-67577153D01*
X133466932Y-67664241D01*
X133470346Y-67858321D01*
G37*
X125561155Y-73161278D02*
X125558722Y-73196301D01*
X125537429Y-73355468D01*
X125494595Y-73472710D01*
X125418000Y-73584119D01*
X125387565Y-73619341D01*
X125266036Y-73733992D01*
X125145400Y-73818527D01*
X125015459Y-73866099D01*
X124811030Y-73894464D01*
X124597665Y-73886093D01*
X124413529Y-73839873D01*
X124306641Y-73778755D01*
X124159488Y-73645194D01*
X124041910Y-73483894D01*
X123978564Y-73324094D01*
X123962806Y-73103423D01*
X124214467Y-73103423D01*
X124215612Y-73170368D01*
X124232046Y-73281430D01*
X124280996Y-73371762D01*
X124378820Y-73478714D01*
X124438679Y-73536683D01*
X124531206Y-73606618D01*
X124627193Y-73636663D01*
X124764800Y-73643067D01*
X124844373Y-73641665D01*
X124955432Y-73624912D01*
X125044848Y-73576011D01*
X125150781Y-73478714D01*
X125180493Y-73448512D01*
X125266279Y-73345599D01*
X125305612Y-73250938D01*
X125314976Y-73129464D01*
X125312556Y-73071371D01*
X125260604Y-72867611D01*
X125152453Y-72709120D01*
X125003365Y-72601167D01*
X124828602Y-72549021D01*
X124643424Y-72557948D01*
X124463094Y-72633217D01*
X124302872Y-72780097D01*
X124294903Y-72790575D01*
X124233313Y-72922353D01*
X124214467Y-73103423D01*
X123962806Y-73103423D01*
X123959602Y-73058561D01*
X124007114Y-72806237D01*
X124117446Y-72593709D01*
X124283586Y-72430326D01*
X124498523Y-72325440D01*
X124755243Y-72288400D01*
X124846670Y-72292200D01*
X125101503Y-72350471D01*
X125306891Y-72473579D01*
X125456310Y-72654459D01*
X125543239Y-72886047D01*
X125559085Y-73129464D01*
X125561155Y-73161278D01*
G36*
X125561155Y-73161278D02*
G01*
X125558722Y-73196301D01*
X125537429Y-73355468D01*
X125494595Y-73472710D01*
X125418000Y-73584119D01*
X125387565Y-73619341D01*
X125266036Y-73733992D01*
X125145400Y-73818527D01*
X125015459Y-73866099D01*
X124811030Y-73894464D01*
X124597665Y-73886093D01*
X124413529Y-73839873D01*
X124306641Y-73778755D01*
X124159488Y-73645194D01*
X124041910Y-73483894D01*
X123978564Y-73324094D01*
X123962806Y-73103423D01*
X124214467Y-73103423D01*
X124215612Y-73170368D01*
X124232046Y-73281430D01*
X124280996Y-73371762D01*
X124378820Y-73478714D01*
X124438679Y-73536683D01*
X124531206Y-73606618D01*
X124627193Y-73636663D01*
X124764800Y-73643067D01*
X124844373Y-73641665D01*
X124955432Y-73624912D01*
X125044848Y-73576011D01*
X125150781Y-73478714D01*
X125180493Y-73448512D01*
X125266279Y-73345599D01*
X125305612Y-73250938D01*
X125314976Y-73129464D01*
X125312556Y-73071371D01*
X125260604Y-72867611D01*
X125152453Y-72709120D01*
X125003365Y-72601167D01*
X124828602Y-72549021D01*
X124643424Y-72557948D01*
X124463094Y-72633217D01*
X124302872Y-72780097D01*
X124294903Y-72790575D01*
X124233313Y-72922353D01*
X124214467Y-73103423D01*
X123962806Y-73103423D01*
X123959602Y-73058561D01*
X124007114Y-72806237D01*
X124117446Y-72593709D01*
X124283586Y-72430326D01*
X124498523Y-72325440D01*
X124755243Y-72288400D01*
X124846670Y-72292200D01*
X125101503Y-72350471D01*
X125306891Y-72473579D01*
X125456310Y-72654459D01*
X125543239Y-72886047D01*
X125559085Y-73129464D01*
X125561155Y-73161278D01*
G37*
X125851624Y-73224528D02*
X125836574Y-73317219D01*
X125738321Y-73594045D01*
X125570490Y-73833123D01*
X125341908Y-74024041D01*
X125061408Y-74156385D01*
X124995135Y-74169407D01*
X124857378Y-74178941D01*
X124700055Y-74176758D01*
X124453731Y-74137814D01*
X124182822Y-74022565D01*
X123955965Y-73835780D01*
X123777276Y-73580122D01*
X123729923Y-73457624D01*
X123691378Y-73246637D01*
X123687203Y-73114652D01*
X123834006Y-73114652D01*
X123842320Y-73300952D01*
X123872965Y-73445108D01*
X123924070Y-73542839D01*
X124044066Y-73696375D01*
X124194362Y-73839104D01*
X124347907Y-73942685D01*
X124458367Y-73990887D01*
X124715645Y-74045463D01*
X124965857Y-74026651D01*
X125197153Y-73941920D01*
X125397680Y-73798736D01*
X125555587Y-73604568D01*
X125659022Y-73366883D01*
X125696134Y-73093149D01*
X125688801Y-72963932D01*
X125619866Y-72696664D01*
X125484932Y-72474660D01*
X125292106Y-72306038D01*
X125049498Y-72198912D01*
X124765216Y-72161400D01*
X124527840Y-72186974D01*
X124275174Y-72285902D01*
X124065369Y-72457294D01*
X123901800Y-72699048D01*
X123878846Y-72758503D01*
X123846642Y-72921929D01*
X123834006Y-73114652D01*
X123687203Y-73114652D01*
X123684089Y-73016184D01*
X123708477Y-72798812D01*
X123764964Y-72627067D01*
X123796154Y-72571053D01*
X123985287Y-72324857D01*
X124218483Y-72145569D01*
X124485599Y-72037612D01*
X124776493Y-72005406D01*
X125081023Y-72053374D01*
X125175650Y-72086222D01*
X125419814Y-72227049D01*
X125619358Y-72426285D01*
X125764418Y-72668939D01*
X125845128Y-72940017D01*
X125848625Y-73093149D01*
X125851624Y-73224528D01*
G36*
X125851624Y-73224528D02*
G01*
X125836574Y-73317219D01*
X125738321Y-73594045D01*
X125570490Y-73833123D01*
X125341908Y-74024041D01*
X125061408Y-74156385D01*
X124995135Y-74169407D01*
X124857378Y-74178941D01*
X124700055Y-74176758D01*
X124453731Y-74137814D01*
X124182822Y-74022565D01*
X123955965Y-73835780D01*
X123777276Y-73580122D01*
X123729923Y-73457624D01*
X123691378Y-73246637D01*
X123687203Y-73114652D01*
X123834006Y-73114652D01*
X123842320Y-73300952D01*
X123872965Y-73445108D01*
X123924070Y-73542839D01*
X124044066Y-73696375D01*
X124194362Y-73839104D01*
X124347907Y-73942685D01*
X124458367Y-73990887D01*
X124715645Y-74045463D01*
X124965857Y-74026651D01*
X125197153Y-73941920D01*
X125397680Y-73798736D01*
X125555587Y-73604568D01*
X125659022Y-73366883D01*
X125696134Y-73093149D01*
X125688801Y-72963932D01*
X125619866Y-72696664D01*
X125484932Y-72474660D01*
X125292106Y-72306038D01*
X125049498Y-72198912D01*
X124765216Y-72161400D01*
X124527840Y-72186974D01*
X124275174Y-72285902D01*
X124065369Y-72457294D01*
X123901800Y-72699048D01*
X123878846Y-72758503D01*
X123846642Y-72921929D01*
X123834006Y-73114652D01*
X123687203Y-73114652D01*
X123684089Y-73016184D01*
X123708477Y-72798812D01*
X123764964Y-72627067D01*
X123796154Y-72571053D01*
X123985287Y-72324857D01*
X124218483Y-72145569D01*
X124485599Y-72037612D01*
X124776493Y-72005406D01*
X125081023Y-72053374D01*
X125175650Y-72086222D01*
X125419814Y-72227049D01*
X125619358Y-72426285D01*
X125764418Y-72668939D01*
X125845128Y-72940017D01*
X125848625Y-73093149D01*
X125851624Y-73224528D01*
G37*
X143382163Y-66828766D02*
X143602921Y-66871913D01*
X143765196Y-66973191D01*
X143865281Y-67129290D01*
X143899467Y-67336899D01*
X143893602Y-67419245D01*
X143833816Y-67581322D01*
X143703980Y-67713769D01*
X143497300Y-67824830D01*
X143386512Y-67874333D01*
X143219407Y-67972731D01*
X143124895Y-68073442D01*
X143095134Y-68183460D01*
X143114653Y-68274727D01*
X143194245Y-68357555D01*
X143321600Y-68392630D01*
X143482039Y-68376755D01*
X143660885Y-68306730D01*
X143715613Y-68277846D01*
X143794151Y-68244700D01*
X143839971Y-68251250D01*
X143881162Y-68296146D01*
X143915507Y-68351104D01*
X143940454Y-68424508D01*
X143919943Y-68472835D01*
X143837099Y-68542988D01*
X143712001Y-68606884D01*
X143567740Y-68650519D01*
X143368219Y-68665931D01*
X143086410Y-68621144D01*
X143013218Y-68585536D01*
X142905689Y-68475625D01*
X142828421Y-68325674D01*
X142798800Y-68163361D01*
X142808702Y-68052696D01*
X142874415Y-67892594D01*
X143008551Y-67759548D01*
X143219072Y-67643713D01*
X143335975Y-67587666D01*
X143499512Y-67488169D01*
X143606878Y-67392300D01*
X143645467Y-67309927D01*
X143613570Y-67245097D01*
X143531761Y-67169208D01*
X143430231Y-67107116D01*
X143339239Y-67081400D01*
X143326452Y-67082069D01*
X143225653Y-67105685D01*
X143106044Y-67152605D01*
X143065156Y-67171774D01*
X142984016Y-67200921D01*
X142932879Y-67187279D01*
X142877623Y-67127028D01*
X142830426Y-67047537D01*
X142825362Y-66988004D01*
X142886720Y-66935757D01*
X143012091Y-66881610D01*
X143168904Y-66842466D01*
X143328710Y-66827400D01*
X143382163Y-66828766D01*
G36*
X143382163Y-66828766D02*
G01*
X143602921Y-66871913D01*
X143765196Y-66973191D01*
X143865281Y-67129290D01*
X143899467Y-67336899D01*
X143893602Y-67419245D01*
X143833816Y-67581322D01*
X143703980Y-67713769D01*
X143497300Y-67824830D01*
X143386512Y-67874333D01*
X143219407Y-67972731D01*
X143124895Y-68073442D01*
X143095134Y-68183460D01*
X143114653Y-68274727D01*
X143194245Y-68357555D01*
X143321600Y-68392630D01*
X143482039Y-68376755D01*
X143660885Y-68306730D01*
X143715613Y-68277846D01*
X143794151Y-68244700D01*
X143839971Y-68251250D01*
X143881162Y-68296146D01*
X143915507Y-68351104D01*
X143940454Y-68424508D01*
X143919943Y-68472835D01*
X143837099Y-68542988D01*
X143712001Y-68606884D01*
X143567740Y-68650519D01*
X143368219Y-68665931D01*
X143086410Y-68621144D01*
X143013218Y-68585536D01*
X142905689Y-68475625D01*
X142828421Y-68325674D01*
X142798800Y-68163361D01*
X142808702Y-68052696D01*
X142874415Y-67892594D01*
X143008551Y-67759548D01*
X143219072Y-67643713D01*
X143335975Y-67587666D01*
X143499512Y-67488169D01*
X143606878Y-67392300D01*
X143645467Y-67309927D01*
X143613570Y-67245097D01*
X143531761Y-67169208D01*
X143430231Y-67107116D01*
X143339239Y-67081400D01*
X143326452Y-67082069D01*
X143225653Y-67105685D01*
X143106044Y-67152605D01*
X143065156Y-67171774D01*
X142984016Y-67200921D01*
X142932879Y-67187279D01*
X142877623Y-67127028D01*
X142830426Y-67047537D01*
X142825362Y-66988004D01*
X142886720Y-66935757D01*
X143012091Y-66881610D01*
X143168904Y-66842466D01*
X143328710Y-66827400D01*
X143382163Y-66828766D01*
G37*
X126261719Y-73276389D02*
X126245700Y-73427556D01*
X126210058Y-73559586D01*
X126148332Y-73706567D01*
X126028376Y-73922549D01*
X125799081Y-74195538D01*
X125511351Y-74407662D01*
X125166967Y-74557376D01*
X124880517Y-74610687D01*
X124560388Y-74596783D01*
X124242772Y-74514954D01*
X123946471Y-74370168D01*
X123690285Y-74167387D01*
X123639720Y-74114197D01*
X123442403Y-73838024D01*
X123314599Y-73531586D01*
X123256166Y-73208182D01*
X123264878Y-72944249D01*
X123604738Y-72944249D01*
X123606964Y-73226228D01*
X123679887Y-73499765D01*
X123815121Y-73751033D01*
X124004277Y-73966203D01*
X124238966Y-74131448D01*
X124510800Y-74232940D01*
X124565397Y-74244737D01*
X124751506Y-74270475D01*
X124917514Y-74260005D01*
X125109383Y-74211698D01*
X125135547Y-74202954D01*
X125331905Y-74101314D01*
X125529013Y-73946576D01*
X125701391Y-73761650D01*
X125823563Y-73569449D01*
X125890151Y-73379621D01*
X125920775Y-73094289D01*
X125880197Y-72805652D01*
X125771738Y-72532544D01*
X125598715Y-72293799D01*
X125583431Y-72278052D01*
X125358544Y-72107129D01*
X125093493Y-71995566D01*
X124808618Y-71947016D01*
X124524259Y-71965131D01*
X124260755Y-72053563D01*
X124142823Y-72123402D01*
X123923585Y-72311691D01*
X123747977Y-72542435D01*
X123636417Y-72791500D01*
X123604738Y-72944249D01*
X123264878Y-72944249D01*
X123266962Y-72881115D01*
X123346844Y-72563685D01*
X123495672Y-72269192D01*
X123713302Y-72010937D01*
X123901496Y-71858805D01*
X124204043Y-71694783D01*
X124522487Y-71604594D01*
X124845862Y-71586071D01*
X125163199Y-71637049D01*
X125463530Y-71755362D01*
X125735886Y-71938844D01*
X125969299Y-72185330D01*
X126152802Y-72492652D01*
X126196145Y-72594442D01*
X126237787Y-72732860D01*
X126258525Y-72887640D01*
X126264689Y-73092734D01*
X126264663Y-73094289D01*
X126261719Y-73276389D01*
G36*
X126261719Y-73276389D02*
G01*
X126245700Y-73427556D01*
X126210058Y-73559586D01*
X126148332Y-73706567D01*
X126028376Y-73922549D01*
X125799081Y-74195538D01*
X125511351Y-74407662D01*
X125166967Y-74557376D01*
X124880517Y-74610687D01*
X124560388Y-74596783D01*
X124242772Y-74514954D01*
X123946471Y-74370168D01*
X123690285Y-74167387D01*
X123639720Y-74114197D01*
X123442403Y-73838024D01*
X123314599Y-73531586D01*
X123256166Y-73208182D01*
X123264878Y-72944249D01*
X123604738Y-72944249D01*
X123606964Y-73226228D01*
X123679887Y-73499765D01*
X123815121Y-73751033D01*
X124004277Y-73966203D01*
X124238966Y-74131448D01*
X124510800Y-74232940D01*
X124565397Y-74244737D01*
X124751506Y-74270475D01*
X124917514Y-74260005D01*
X125109383Y-74211698D01*
X125135547Y-74202954D01*
X125331905Y-74101314D01*
X125529013Y-73946576D01*
X125701391Y-73761650D01*
X125823563Y-73569449D01*
X125890151Y-73379621D01*
X125920775Y-73094289D01*
X125880197Y-72805652D01*
X125771738Y-72532544D01*
X125598715Y-72293799D01*
X125583431Y-72278052D01*
X125358544Y-72107129D01*
X125093493Y-71995566D01*
X124808618Y-71947016D01*
X124524259Y-71965131D01*
X124260755Y-72053563D01*
X124142823Y-72123402D01*
X123923585Y-72311691D01*
X123747977Y-72542435D01*
X123636417Y-72791500D01*
X123604738Y-72944249D01*
X123264878Y-72944249D01*
X123266962Y-72881115D01*
X123346844Y-72563685D01*
X123495672Y-72269192D01*
X123713302Y-72010937D01*
X123901496Y-71858805D01*
X124204043Y-71694783D01*
X124522487Y-71604594D01*
X124845862Y-71586071D01*
X125163199Y-71637049D01*
X125463530Y-71755362D01*
X125735886Y-71938844D01*
X125969299Y-72185330D01*
X126152802Y-72492652D01*
X126196145Y-72594442D01*
X126237787Y-72732860D01*
X126258525Y-72887640D01*
X126264689Y-73092734D01*
X126264663Y-73094289D01*
X126261719Y-73276389D01*
G37*
X124798718Y-63820968D02*
X124751297Y-64129455D01*
X124634744Y-64404770D01*
X124443182Y-64664039D01*
X124362068Y-64750688D01*
X124175700Y-64914798D01*
X123980233Y-65028680D01*
X123745356Y-65111779D01*
X123651808Y-65134412D01*
X123322476Y-65161402D01*
X122996443Y-65113203D01*
X122687422Y-64996219D01*
X122409130Y-64816853D01*
X122175280Y-64581511D01*
X121999588Y-64296596D01*
X121998649Y-64294553D01*
X121933544Y-64081402D01*
X121911266Y-63894655D01*
X122057998Y-63894655D01*
X122073712Y-64009697D01*
X122112106Y-64122614D01*
X122179218Y-64266049D01*
X122180949Y-64269555D01*
X122364692Y-64551613D01*
X122604807Y-64770608D01*
X122900239Y-64925575D01*
X122991389Y-64955966D01*
X123293016Y-65003681D01*
X123597986Y-64980210D01*
X123888797Y-64890300D01*
X124147949Y-64738698D01*
X124357939Y-64530152D01*
X124433023Y-64422643D01*
X124578377Y-64123821D01*
X124646067Y-63815804D01*
X124638566Y-63509587D01*
X124558349Y-63216162D01*
X124407888Y-62946521D01*
X124189659Y-62711657D01*
X123906135Y-62522563D01*
X123847685Y-62493682D01*
X123709338Y-62440975D01*
X123561861Y-62414689D01*
X123367800Y-62406769D01*
X123241712Y-62410186D01*
X122946987Y-62461653D01*
X122687552Y-62580950D01*
X122443557Y-62776009D01*
X122439936Y-62779528D01*
X122270226Y-62968028D01*
X122158923Y-63156628D01*
X122094134Y-63372481D01*
X122063968Y-63642740D01*
X122058930Y-63744840D01*
X122057998Y-63894655D01*
X121911266Y-63894655D01*
X121902662Y-63822533D01*
X121905683Y-63548875D01*
X121942288Y-63291354D01*
X122012156Y-63080900D01*
X122153437Y-62845368D01*
X122386054Y-62593795D01*
X122667157Y-62408703D01*
X122989699Y-62294452D01*
X123346634Y-62255400D01*
X123545464Y-62266692D01*
X123883724Y-62344348D01*
X124179040Y-62490344D01*
X124424742Y-62698355D01*
X124614162Y-62962057D01*
X124740629Y-63275124D01*
X124797474Y-63631234D01*
X124798685Y-63815804D01*
X124798718Y-63820968D01*
G36*
X124798718Y-63820968D02*
G01*
X124751297Y-64129455D01*
X124634744Y-64404770D01*
X124443182Y-64664039D01*
X124362068Y-64750688D01*
X124175700Y-64914798D01*
X123980233Y-65028680D01*
X123745356Y-65111779D01*
X123651808Y-65134412D01*
X123322476Y-65161402D01*
X122996443Y-65113203D01*
X122687422Y-64996219D01*
X122409130Y-64816853D01*
X122175280Y-64581511D01*
X121999588Y-64296596D01*
X121998649Y-64294553D01*
X121933544Y-64081402D01*
X121911266Y-63894655D01*
X122057998Y-63894655D01*
X122073712Y-64009697D01*
X122112106Y-64122614D01*
X122179218Y-64266049D01*
X122180949Y-64269555D01*
X122364692Y-64551613D01*
X122604807Y-64770608D01*
X122900239Y-64925575D01*
X122991389Y-64955966D01*
X123293016Y-65003681D01*
X123597986Y-64980210D01*
X123888797Y-64890300D01*
X124147949Y-64738698D01*
X124357939Y-64530152D01*
X124433023Y-64422643D01*
X124578377Y-64123821D01*
X124646067Y-63815804D01*
X124638566Y-63509587D01*
X124558349Y-63216162D01*
X124407888Y-62946521D01*
X124189659Y-62711657D01*
X123906135Y-62522563D01*
X123847685Y-62493682D01*
X123709338Y-62440975D01*
X123561861Y-62414689D01*
X123367800Y-62406769D01*
X123241712Y-62410186D01*
X122946987Y-62461653D01*
X122687552Y-62580950D01*
X122443557Y-62776009D01*
X122439936Y-62779528D01*
X122270226Y-62968028D01*
X122158923Y-63156628D01*
X122094134Y-63372481D01*
X122063968Y-63642740D01*
X122058930Y-63744840D01*
X122057998Y-63894655D01*
X121911266Y-63894655D01*
X121902662Y-63822533D01*
X121905683Y-63548875D01*
X121942288Y-63291354D01*
X122012156Y-63080900D01*
X122153437Y-62845368D01*
X122386054Y-62593795D01*
X122667157Y-62408703D01*
X122989699Y-62294452D01*
X123346634Y-62255400D01*
X123545464Y-62266692D01*
X123883724Y-62344348D01*
X124179040Y-62490344D01*
X124424742Y-62698355D01*
X124614162Y-62962057D01*
X124740629Y-63275124D01*
X124797474Y-63631234D01*
X124798685Y-63815804D01*
X124798718Y-63820968D01*
G37*
X120716230Y-67737567D02*
X120714763Y-67857970D01*
X120700495Y-68027626D01*
X120664999Y-68172405D01*
X120600893Y-68330234D01*
X120469913Y-68562670D01*
X120245160Y-68829275D01*
X119973894Y-69040263D01*
X119671077Y-69181930D01*
X119588957Y-69203791D01*
X119344310Y-69231672D01*
X119071697Y-69222692D01*
X118804429Y-69179231D01*
X118575815Y-69103668D01*
X118490348Y-69060391D01*
X118226155Y-68873394D01*
X117998101Y-68632145D01*
X117829338Y-68359719D01*
X117808063Y-68313265D01*
X117760436Y-68190395D01*
X117732836Y-68069089D01*
X117720289Y-67920655D01*
X117717821Y-67716400D01*
X117718438Y-67637748D01*
X117718729Y-67629931D01*
X117927614Y-67629931D01*
X117948807Y-67932980D01*
X118048280Y-68231231D01*
X118169782Y-68433706D01*
X118395715Y-68676174D01*
X118677476Y-68864259D01*
X118754506Y-68897309D01*
X118962296Y-68950397D01*
X119196206Y-68975263D01*
X119421918Y-68969457D01*
X119605117Y-68930527D01*
X119907421Y-68781148D01*
X120160928Y-68574093D01*
X120347697Y-68320227D01*
X120463512Y-68025343D01*
X120504156Y-67695234D01*
X120502897Y-67629028D01*
X120450240Y-67311716D01*
X120326222Y-67029016D01*
X120138930Y-66789385D01*
X119896450Y-66601277D01*
X119606870Y-66473149D01*
X119278276Y-66413456D01*
X119148314Y-66407295D01*
X119004341Y-66414252D01*
X118874418Y-66446274D01*
X118717466Y-66510466D01*
X118531816Y-66611018D01*
X118286802Y-66812628D01*
X118101303Y-67057692D01*
X117980010Y-67334147D01*
X117927614Y-67629931D01*
X117718729Y-67629931D01*
X117725177Y-67456499D01*
X117743353Y-67321458D01*
X117778171Y-67204137D01*
X117834836Y-67076050D01*
X117914784Y-66937992D01*
X118093256Y-66714041D01*
X118307929Y-66514298D01*
X118530675Y-66367409D01*
X118636498Y-66321254D01*
X118900957Y-66250081D01*
X119188207Y-66219959D01*
X119460796Y-66236170D01*
X119524887Y-66247854D01*
X119862923Y-66355906D01*
X120153267Y-66529739D01*
X120389846Y-66762087D01*
X120566582Y-67045685D01*
X120677402Y-67373267D01*
X120711719Y-67695234D01*
X120716230Y-67737567D01*
G36*
X120716230Y-67737567D02*
G01*
X120714763Y-67857970D01*
X120700495Y-68027626D01*
X120664999Y-68172405D01*
X120600893Y-68330234D01*
X120469913Y-68562670D01*
X120245160Y-68829275D01*
X119973894Y-69040263D01*
X119671077Y-69181930D01*
X119588957Y-69203791D01*
X119344310Y-69231672D01*
X119071697Y-69222692D01*
X118804429Y-69179231D01*
X118575815Y-69103668D01*
X118490348Y-69060391D01*
X118226155Y-68873394D01*
X117998101Y-68632145D01*
X117829338Y-68359719D01*
X117808063Y-68313265D01*
X117760436Y-68190395D01*
X117732836Y-68069089D01*
X117720289Y-67920655D01*
X117717821Y-67716400D01*
X117718438Y-67637748D01*
X117718729Y-67629931D01*
X117927614Y-67629931D01*
X117948807Y-67932980D01*
X118048280Y-68231231D01*
X118169782Y-68433706D01*
X118395715Y-68676174D01*
X118677476Y-68864259D01*
X118754506Y-68897309D01*
X118962296Y-68950397D01*
X119196206Y-68975263D01*
X119421918Y-68969457D01*
X119605117Y-68930527D01*
X119907421Y-68781148D01*
X120160928Y-68574093D01*
X120347697Y-68320227D01*
X120463512Y-68025343D01*
X120504156Y-67695234D01*
X120502897Y-67629028D01*
X120450240Y-67311716D01*
X120326222Y-67029016D01*
X120138930Y-66789385D01*
X119896450Y-66601277D01*
X119606870Y-66473149D01*
X119278276Y-66413456D01*
X119148314Y-66407295D01*
X119004341Y-66414252D01*
X118874418Y-66446274D01*
X118717466Y-66510466D01*
X118531816Y-66611018D01*
X118286802Y-66812628D01*
X118101303Y-67057692D01*
X117980010Y-67334147D01*
X117927614Y-67629931D01*
X117718729Y-67629931D01*
X117725177Y-67456499D01*
X117743353Y-67321458D01*
X117778171Y-67204137D01*
X117834836Y-67076050D01*
X117914784Y-66937992D01*
X118093256Y-66714041D01*
X118307929Y-66514298D01*
X118530675Y-66367409D01*
X118636498Y-66321254D01*
X118900957Y-66250081D01*
X119188207Y-66219959D01*
X119460796Y-66236170D01*
X119524887Y-66247854D01*
X119862923Y-66355906D01*
X120153267Y-66529739D01*
X120389846Y-66762087D01*
X120566582Y-67045685D01*
X120677402Y-67373267D01*
X120711719Y-67695234D01*
X120716230Y-67737567D01*
G37*
X121149356Y-67966690D02*
X121062477Y-68343345D01*
X120900281Y-68699728D01*
X120890923Y-68715424D01*
X120697950Y-68966975D01*
X120444952Y-69198330D01*
X120153886Y-69394546D01*
X119846711Y-69540679D01*
X119545386Y-69621786D01*
X119349591Y-69641717D01*
X118944976Y-69622848D01*
X118557817Y-69524110D01*
X118197768Y-69348523D01*
X117874480Y-69099108D01*
X117631258Y-68824705D01*
X117433095Y-68486110D01*
X117312508Y-68116627D01*
X117273558Y-67738584D01*
X117638251Y-67738584D01*
X117640782Y-67911864D01*
X117657830Y-68060728D01*
X117697615Y-68197639D01*
X117768133Y-68360914D01*
X117790625Y-68407166D01*
X117990982Y-68715901D01*
X118249038Y-68969418D01*
X118554470Y-69157260D01*
X118758642Y-69237085D01*
X119105793Y-69305976D01*
X119448560Y-69293021D01*
X119779439Y-69199779D01*
X120090926Y-69027811D01*
X120375516Y-68778677D01*
X120497321Y-68639552D01*
X120625932Y-68450623D01*
X120706845Y-68253708D01*
X120749252Y-68024056D01*
X120762343Y-67736916D01*
X120761383Y-67543324D01*
X120752678Y-67397119D01*
X120730871Y-67281723D01*
X120690653Y-67169603D01*
X120626720Y-67033227D01*
X120434407Y-66731282D01*
X120175632Y-66476421D01*
X119861548Y-66283857D01*
X119820143Y-66264854D01*
X119695965Y-66216356D01*
X119573395Y-66187937D01*
X119423724Y-66174572D01*
X119218244Y-66171234D01*
X119070079Y-66172381D01*
X118914423Y-66180778D01*
X118792807Y-66202503D01*
X118675718Y-66243531D01*
X118533642Y-66309838D01*
X118241594Y-66489383D01*
X117984126Y-66735870D01*
X117795773Y-67029380D01*
X117679495Y-67365192D01*
X117638251Y-67738584D01*
X117273558Y-67738584D01*
X117271800Y-67721523D01*
X117287950Y-67443626D01*
X117374284Y-67055532D01*
X117535781Y-66705487D01*
X117773145Y-66391621D01*
X117844979Y-66317216D01*
X118150066Y-66062531D01*
X118478184Y-65886760D01*
X118838530Y-65785921D01*
X119240300Y-65756027D01*
X119621267Y-65788559D01*
X119974268Y-65886837D01*
X120293022Y-66055836D01*
X120590176Y-66300658D01*
X120776896Y-66514043D01*
X120974690Y-66843439D01*
X121103804Y-67203902D01*
X121162579Y-67582597D01*
X121157266Y-67736916D01*
X121149356Y-67966690D01*
G36*
X121149356Y-67966690D02*
G01*
X121062477Y-68343345D01*
X120900281Y-68699728D01*
X120890923Y-68715424D01*
X120697950Y-68966975D01*
X120444952Y-69198330D01*
X120153886Y-69394546D01*
X119846711Y-69540679D01*
X119545386Y-69621786D01*
X119349591Y-69641717D01*
X118944976Y-69622848D01*
X118557817Y-69524110D01*
X118197768Y-69348523D01*
X117874480Y-69099108D01*
X117631258Y-68824705D01*
X117433095Y-68486110D01*
X117312508Y-68116627D01*
X117273558Y-67738584D01*
X117638251Y-67738584D01*
X117640782Y-67911864D01*
X117657830Y-68060728D01*
X117697615Y-68197639D01*
X117768133Y-68360914D01*
X117790625Y-68407166D01*
X117990982Y-68715901D01*
X118249038Y-68969418D01*
X118554470Y-69157260D01*
X118758642Y-69237085D01*
X119105793Y-69305976D01*
X119448560Y-69293021D01*
X119779439Y-69199779D01*
X120090926Y-69027811D01*
X120375516Y-68778677D01*
X120497321Y-68639552D01*
X120625932Y-68450623D01*
X120706845Y-68253708D01*
X120749252Y-68024056D01*
X120762343Y-67736916D01*
X120761383Y-67543324D01*
X120752678Y-67397119D01*
X120730871Y-67281723D01*
X120690653Y-67169603D01*
X120626720Y-67033227D01*
X120434407Y-66731282D01*
X120175632Y-66476421D01*
X119861548Y-66283857D01*
X119820143Y-66264854D01*
X119695965Y-66216356D01*
X119573395Y-66187937D01*
X119423724Y-66174572D01*
X119218244Y-66171234D01*
X119070079Y-66172381D01*
X118914423Y-66180778D01*
X118792807Y-66202503D01*
X118675718Y-66243531D01*
X118533642Y-66309838D01*
X118241594Y-66489383D01*
X117984126Y-66735870D01*
X117795773Y-67029380D01*
X117679495Y-67365192D01*
X117638251Y-67738584D01*
X117273558Y-67738584D01*
X117271800Y-67721523D01*
X117287950Y-67443626D01*
X117374284Y-67055532D01*
X117535781Y-66705487D01*
X117773145Y-66391621D01*
X117844979Y-66317216D01*
X118150066Y-66062531D01*
X118478184Y-65886760D01*
X118838530Y-65785921D01*
X119240300Y-65756027D01*
X119621267Y-65788559D01*
X119974268Y-65886837D01*
X120293022Y-66055836D01*
X120590176Y-66300658D01*
X120776896Y-66514043D01*
X120974690Y-66843439D01*
X121103804Y-67203902D01*
X121162579Y-67582597D01*
X121157266Y-67736916D01*
X121149356Y-67966690D01*
G37*
X127047681Y-73150645D02*
X127031586Y-73437430D01*
X126989300Y-73679856D01*
X126890572Y-73966338D01*
X126692058Y-74335140D01*
X126430584Y-74665166D01*
X126116885Y-74945545D01*
X125761700Y-75165403D01*
X125375764Y-75313867D01*
X125326591Y-75325614D01*
X125127952Y-75354205D01*
X124886418Y-75369747D01*
X124632992Y-75371731D01*
X124398675Y-75359647D01*
X124214467Y-75332983D01*
X124095969Y-75301704D01*
X123727592Y-75151097D01*
X123386264Y-74932840D01*
X123083395Y-74658503D01*
X122830394Y-74339651D01*
X122638670Y-73987852D01*
X122519634Y-73614674D01*
X122489640Y-73377752D01*
X122486311Y-73210593D01*
X122707010Y-73210593D01*
X122767825Y-73588362D01*
X122899304Y-73947227D01*
X123094550Y-74277540D01*
X123346669Y-74569651D01*
X123648764Y-74813912D01*
X123993940Y-75000673D01*
X124375301Y-75120285D01*
X124759922Y-75161531D01*
X125150366Y-75123080D01*
X125526409Y-75004373D01*
X125881034Y-74807651D01*
X126207224Y-74535157D01*
X126374012Y-74353183D01*
X126560533Y-74084478D01*
X126692872Y-73787641D01*
X126784750Y-73436570D01*
X126795520Y-73381070D01*
X126823331Y-73212017D01*
X126831126Y-73077507D01*
X126819042Y-72939866D01*
X126787217Y-72761421D01*
X126742829Y-72568890D01*
X126621483Y-72229863D01*
X126446320Y-71932336D01*
X126204903Y-71652631D01*
X126065759Y-71522830D01*
X125780100Y-71316104D01*
X125464778Y-71169411D01*
X125096113Y-71070317D01*
X125069484Y-71065109D01*
X124894336Y-71035315D01*
X124756484Y-71026252D01*
X124616133Y-71037919D01*
X124433488Y-71070317D01*
X124252903Y-71111588D01*
X123909220Y-71232932D01*
X123606823Y-71409090D01*
X123321713Y-71652631D01*
X123233527Y-71744304D01*
X122990864Y-72065024D01*
X122823536Y-72416966D01*
X122725546Y-72811793D01*
X122723754Y-72823570D01*
X122707010Y-73210593D01*
X122486311Y-73210593D01*
X122484053Y-73097251D01*
X122501343Y-72805978D01*
X122539648Y-72535149D01*
X122597103Y-72315984D01*
X122634149Y-72220444D01*
X122835918Y-71837544D01*
X123099907Y-71506302D01*
X123418045Y-71232707D01*
X123782260Y-71022747D01*
X124184480Y-70882410D01*
X124616634Y-70817686D01*
X124896730Y-70812886D01*
X125208446Y-70845114D01*
X125504855Y-70926575D01*
X125819987Y-71064240D01*
X126020278Y-71178660D01*
X126349425Y-71438788D01*
X126626258Y-71756679D01*
X126841522Y-72120783D01*
X126985960Y-72519544D01*
X127001713Y-72588493D01*
X127037689Y-72855626D01*
X127045204Y-73077507D01*
X127047681Y-73150645D01*
G36*
X127047681Y-73150645D02*
G01*
X127031586Y-73437430D01*
X126989300Y-73679856D01*
X126890572Y-73966338D01*
X126692058Y-74335140D01*
X126430584Y-74665166D01*
X126116885Y-74945545D01*
X125761700Y-75165403D01*
X125375764Y-75313867D01*
X125326591Y-75325614D01*
X125127952Y-75354205D01*
X124886418Y-75369747D01*
X124632992Y-75371731D01*
X124398675Y-75359647D01*
X124214467Y-75332983D01*
X124095969Y-75301704D01*
X123727592Y-75151097D01*
X123386264Y-74932840D01*
X123083395Y-74658503D01*
X122830394Y-74339651D01*
X122638670Y-73987852D01*
X122519634Y-73614674D01*
X122489640Y-73377752D01*
X122486311Y-73210593D01*
X122707010Y-73210593D01*
X122767825Y-73588362D01*
X122899304Y-73947227D01*
X123094550Y-74277540D01*
X123346669Y-74569651D01*
X123648764Y-74813912D01*
X123993940Y-75000673D01*
X124375301Y-75120285D01*
X124759922Y-75161531D01*
X125150366Y-75123080D01*
X125526409Y-75004373D01*
X125881034Y-74807651D01*
X126207224Y-74535157D01*
X126374012Y-74353183D01*
X126560533Y-74084478D01*
X126692872Y-73787641D01*
X126784750Y-73436570D01*
X126795520Y-73381070D01*
X126823331Y-73212017D01*
X126831126Y-73077507D01*
X126819042Y-72939866D01*
X126787217Y-72761421D01*
X126742829Y-72568890D01*
X126621483Y-72229863D01*
X126446320Y-71932336D01*
X126204903Y-71652631D01*
X126065759Y-71522830D01*
X125780100Y-71316104D01*
X125464778Y-71169411D01*
X125096113Y-71070317D01*
X125069484Y-71065109D01*
X124894336Y-71035315D01*
X124756484Y-71026252D01*
X124616133Y-71037919D01*
X124433488Y-71070317D01*
X124252903Y-71111588D01*
X123909220Y-71232932D01*
X123606823Y-71409090D01*
X123321713Y-71652631D01*
X123233527Y-71744304D01*
X122990864Y-72065024D01*
X122823536Y-72416966D01*
X122725546Y-72811793D01*
X122723754Y-72823570D01*
X122707010Y-73210593D01*
X122486311Y-73210593D01*
X122484053Y-73097251D01*
X122501343Y-72805978D01*
X122539648Y-72535149D01*
X122597103Y-72315984D01*
X122634149Y-72220444D01*
X122835918Y-71837544D01*
X123099907Y-71506302D01*
X123418045Y-71232707D01*
X123782260Y-71022747D01*
X124184480Y-70882410D01*
X124616634Y-70817686D01*
X124896730Y-70812886D01*
X125208446Y-70845114D01*
X125504855Y-70926575D01*
X125819987Y-71064240D01*
X126020278Y-71178660D01*
X126349425Y-71438788D01*
X126626258Y-71756679D01*
X126841522Y-72120783D01*
X126985960Y-72519544D01*
X127001713Y-72588493D01*
X127037689Y-72855626D01*
X127045204Y-73077507D01*
X127047681Y-73150645D01*
G37*
X121716800Y-67695233D02*
X121716056Y-67757882D01*
X121665071Y-68210163D01*
X121537720Y-68634700D01*
X121339275Y-69024380D01*
X121075007Y-69372091D01*
X120750190Y-69670719D01*
X120370096Y-69913151D01*
X119939998Y-70092276D01*
X119798870Y-70126177D01*
X119556100Y-70157143D01*
X119280112Y-70170666D01*
X118999511Y-70166504D01*
X118742906Y-70144415D01*
X118538901Y-70104155D01*
X118356509Y-70043225D01*
X117943865Y-69844681D01*
X117578140Y-69578906D01*
X117265290Y-69251687D01*
X117011270Y-68868812D01*
X116822038Y-68436067D01*
X116782252Y-68280704D01*
X116747919Y-68017243D01*
X116742198Y-67866511D01*
X117070642Y-67866511D01*
X117148699Y-68275408D01*
X117309214Y-68679776D01*
X117366738Y-68784856D01*
X117596224Y-69100775D01*
X117882273Y-69375348D01*
X118208024Y-69594205D01*
X118556620Y-69742978D01*
X118899339Y-69822564D01*
X119320373Y-69847934D01*
X119727290Y-69791103D01*
X120115583Y-69652796D01*
X120480742Y-69433737D01*
X120567589Y-69366608D01*
X120867620Y-69073108D01*
X121098798Y-68741441D01*
X121260386Y-68381349D01*
X121351649Y-68002575D01*
X121371851Y-67614863D01*
X121320255Y-67227956D01*
X121196126Y-66851596D01*
X120998728Y-66495527D01*
X120727324Y-66169491D01*
X120671189Y-66115363D01*
X120349323Y-65867993D01*
X119983937Y-65687799D01*
X119565774Y-65570003D01*
X119488092Y-65555016D01*
X119326155Y-65529307D01*
X119194638Y-65523235D01*
X119055949Y-65536801D01*
X118872493Y-65570003D01*
X118697750Y-65609722D01*
X118322765Y-65741117D01*
X117994360Y-65931215D01*
X117695134Y-66189167D01*
X117559188Y-66339201D01*
X117319315Y-66689428D01*
X117157140Y-67065841D01*
X117073852Y-67460762D01*
X117070642Y-67866511D01*
X116742198Y-67866511D01*
X116736666Y-67720740D01*
X116748192Y-67419105D01*
X116782198Y-67140244D01*
X116838386Y-66912067D01*
X116839138Y-66909901D01*
X117031015Y-66477176D01*
X117284600Y-66100871D01*
X117596951Y-65783973D01*
X117965125Y-65529471D01*
X118386179Y-65340351D01*
X118498616Y-65302658D01*
X118653154Y-65259822D01*
X118802734Y-65234586D01*
X118977192Y-65222547D01*
X119206365Y-65219300D01*
X119264066Y-65219590D01*
X119663944Y-65246422D01*
X120013459Y-65321123D01*
X120333582Y-65449804D01*
X120645284Y-65638574D01*
X120682466Y-65665045D01*
X120995306Y-65926052D01*
X121242838Y-66215164D01*
X121442383Y-66552234D01*
X121444798Y-66557140D01*
X121600795Y-66934352D01*
X121689020Y-67303544D01*
X121711100Y-67614863D01*
X121716800Y-67695233D01*
G36*
X121716800Y-67695233D02*
G01*
X121716056Y-67757882D01*
X121665071Y-68210163D01*
X121537720Y-68634700D01*
X121339275Y-69024380D01*
X121075007Y-69372091D01*
X120750190Y-69670719D01*
X120370096Y-69913151D01*
X119939998Y-70092276D01*
X119798870Y-70126177D01*
X119556100Y-70157143D01*
X119280112Y-70170666D01*
X118999511Y-70166504D01*
X118742906Y-70144415D01*
X118538901Y-70104155D01*
X118356509Y-70043225D01*
X117943865Y-69844681D01*
X117578140Y-69578906D01*
X117265290Y-69251687D01*
X117011270Y-68868812D01*
X116822038Y-68436067D01*
X116782252Y-68280704D01*
X116747919Y-68017243D01*
X116742198Y-67866511D01*
X117070642Y-67866511D01*
X117148699Y-68275408D01*
X117309214Y-68679776D01*
X117366738Y-68784856D01*
X117596224Y-69100775D01*
X117882273Y-69375348D01*
X118208024Y-69594205D01*
X118556620Y-69742978D01*
X118899339Y-69822564D01*
X119320373Y-69847934D01*
X119727290Y-69791103D01*
X120115583Y-69652796D01*
X120480742Y-69433737D01*
X120567589Y-69366608D01*
X120867620Y-69073108D01*
X121098798Y-68741441D01*
X121260386Y-68381349D01*
X121351649Y-68002575D01*
X121371851Y-67614863D01*
X121320255Y-67227956D01*
X121196126Y-66851596D01*
X120998728Y-66495527D01*
X120727324Y-66169491D01*
X120671189Y-66115363D01*
X120349323Y-65867993D01*
X119983937Y-65687799D01*
X119565774Y-65570003D01*
X119488092Y-65555016D01*
X119326155Y-65529307D01*
X119194638Y-65523235D01*
X119055949Y-65536801D01*
X118872493Y-65570003D01*
X118697750Y-65609722D01*
X118322765Y-65741117D01*
X117994360Y-65931215D01*
X117695134Y-66189167D01*
X117559188Y-66339201D01*
X117319315Y-66689428D01*
X117157140Y-67065841D01*
X117073852Y-67460762D01*
X117070642Y-67866511D01*
X116742198Y-67866511D01*
X116736666Y-67720740D01*
X116748192Y-67419105D01*
X116782198Y-67140244D01*
X116838386Y-66912067D01*
X116839138Y-66909901D01*
X117031015Y-66477176D01*
X117284600Y-66100871D01*
X117596951Y-65783973D01*
X117965125Y-65529471D01*
X118386179Y-65340351D01*
X118498616Y-65302658D01*
X118653154Y-65259822D01*
X118802734Y-65234586D01*
X118977192Y-65222547D01*
X119206365Y-65219300D01*
X119264066Y-65219590D01*
X119663944Y-65246422D01*
X120013459Y-65321123D01*
X120333582Y-65449804D01*
X120645284Y-65638574D01*
X120682466Y-65665045D01*
X120995306Y-65926052D01*
X121242838Y-66215164D01*
X121442383Y-66552234D01*
X121444798Y-66557140D01*
X121600795Y-66934352D01*
X121689020Y-67303544D01*
X121711100Y-67614863D01*
X121716800Y-67695233D01*
G37*
X126584397Y-73158007D02*
X126540179Y-73527172D01*
X126423051Y-73873685D01*
X126232803Y-74188912D01*
X125971416Y-74469642D01*
X125654903Y-74695110D01*
X125293967Y-74856003D01*
X125168722Y-74882635D01*
X124959319Y-74899885D01*
X124697445Y-74901125D01*
X124505515Y-74894314D01*
X124354295Y-74880467D01*
X124231260Y-74853417D01*
X124107168Y-74806575D01*
X123952779Y-74733354D01*
X123883076Y-74697284D01*
X123562734Y-74478961D01*
X123303205Y-74202630D01*
X123100465Y-73864188D01*
X123072446Y-73804326D01*
X123022795Y-73687140D01*
X122991487Y-73581417D01*
X122974325Y-73463127D01*
X122967107Y-73308242D01*
X122965634Y-73092734D01*
X123134967Y-73092734D01*
X123135843Y-73221637D01*
X123143677Y-73385058D01*
X123164601Y-73512251D01*
X123204523Y-73633369D01*
X123269350Y-73778564D01*
X123287554Y-73815880D01*
X123491986Y-74132166D01*
X123756822Y-74390425D01*
X124077049Y-74585644D01*
X124322478Y-74675579D01*
X124646921Y-74733563D01*
X124969588Y-74731033D01*
X125263734Y-74666177D01*
X125533681Y-74544974D01*
X125843258Y-74326682D01*
X126099567Y-74043277D01*
X126300329Y-73696890D01*
X126339760Y-73598615D01*
X126371924Y-73469603D01*
X126388351Y-73309919D01*
X126393163Y-73092734D01*
X126393001Y-73020539D01*
X126387368Y-72836304D01*
X126370045Y-72698582D01*
X126335967Y-72578463D01*
X126280071Y-72447038D01*
X126144637Y-72217897D01*
X125959079Y-71989060D01*
X125748743Y-71789144D01*
X125537842Y-71644335D01*
X125470711Y-71610495D01*
X125134148Y-71493701D01*
X124782135Y-71450371D01*
X124432524Y-71481218D01*
X124103167Y-71586957D01*
X124100763Y-71588062D01*
X123852257Y-71737336D01*
X123612140Y-71943461D01*
X123405252Y-72181773D01*
X123256436Y-72427609D01*
X123229489Y-72487350D01*
X123179970Y-72616209D01*
X123151339Y-72740188D01*
X123138153Y-72889093D01*
X123134967Y-73092734D01*
X122965634Y-73092734D01*
X122965820Y-72994203D01*
X122969169Y-72806874D01*
X122979936Y-72670597D01*
X123002242Y-72561637D01*
X123040208Y-72456260D01*
X123097957Y-72330734D01*
X123226348Y-72100329D01*
X123469281Y-71794643D01*
X123759704Y-71556900D01*
X124092364Y-71390220D01*
X124462006Y-71297722D01*
X124863378Y-71282525D01*
X124969454Y-71291245D01*
X125359219Y-71371079D01*
X125705712Y-71522582D01*
X126006232Y-71744298D01*
X126258079Y-72034769D01*
X126295385Y-72090577D01*
X126460422Y-72422111D01*
X126557285Y-72783787D01*
X126579669Y-73092734D01*
X126584397Y-73158007D01*
G36*
X126584397Y-73158007D02*
G01*
X126540179Y-73527172D01*
X126423051Y-73873685D01*
X126232803Y-74188912D01*
X125971416Y-74469642D01*
X125654903Y-74695110D01*
X125293967Y-74856003D01*
X125168722Y-74882635D01*
X124959319Y-74899885D01*
X124697445Y-74901125D01*
X124505515Y-74894314D01*
X124354295Y-74880467D01*
X124231260Y-74853417D01*
X124107168Y-74806575D01*
X123952779Y-74733354D01*
X123883076Y-74697284D01*
X123562734Y-74478961D01*
X123303205Y-74202630D01*
X123100465Y-73864188D01*
X123072446Y-73804326D01*
X123022795Y-73687140D01*
X122991487Y-73581417D01*
X122974325Y-73463127D01*
X122967107Y-73308242D01*
X122965634Y-73092734D01*
X123134967Y-73092734D01*
X123135843Y-73221637D01*
X123143677Y-73385058D01*
X123164601Y-73512251D01*
X123204523Y-73633369D01*
X123269350Y-73778564D01*
X123287554Y-73815880D01*
X123491986Y-74132166D01*
X123756822Y-74390425D01*
X124077049Y-74585644D01*
X124322478Y-74675579D01*
X124646921Y-74733563D01*
X124969588Y-74731033D01*
X125263734Y-74666177D01*
X125533681Y-74544974D01*
X125843258Y-74326682D01*
X126099567Y-74043277D01*
X126300329Y-73696890D01*
X126339760Y-73598615D01*
X126371924Y-73469603D01*
X126388351Y-73309919D01*
X126393163Y-73092734D01*
X126393001Y-73020539D01*
X126387368Y-72836304D01*
X126370045Y-72698582D01*
X126335967Y-72578463D01*
X126280071Y-72447038D01*
X126144637Y-72217897D01*
X125959079Y-71989060D01*
X125748743Y-71789144D01*
X125537842Y-71644335D01*
X125470711Y-71610495D01*
X125134148Y-71493701D01*
X124782135Y-71450371D01*
X124432524Y-71481218D01*
X124103167Y-71586957D01*
X124100763Y-71588062D01*
X123852257Y-71737336D01*
X123612140Y-71943461D01*
X123405252Y-72181773D01*
X123256436Y-72427609D01*
X123229489Y-72487350D01*
X123179970Y-72616209D01*
X123151339Y-72740188D01*
X123138153Y-72889093D01*
X123134967Y-73092734D01*
X122965634Y-73092734D01*
X122965820Y-72994203D01*
X122969169Y-72806874D01*
X122979936Y-72670597D01*
X123002242Y-72561637D01*
X123040208Y-72456260D01*
X123097957Y-72330734D01*
X123226348Y-72100329D01*
X123469281Y-71794643D01*
X123759704Y-71556900D01*
X124092364Y-71390220D01*
X124462006Y-71297722D01*
X124863378Y-71282525D01*
X124969454Y-71291245D01*
X125359219Y-71371079D01*
X125705712Y-71522582D01*
X126006232Y-71744298D01*
X126258079Y-72034769D01*
X126295385Y-72090577D01*
X126460422Y-72422111D01*
X126557285Y-72783787D01*
X126579669Y-73092734D01*
X126584397Y-73158007D01*
G37*
X122039699Y-67936021D02*
X122024626Y-68155055D01*
X122000681Y-68328451D01*
X121963346Y-68483560D01*
X121908098Y-68647734D01*
X121709649Y-69080481D01*
X121437808Y-69484717D01*
X121105879Y-69831659D01*
X120717969Y-70117729D01*
X120278184Y-70339345D01*
X119790634Y-70492931D01*
X119642530Y-70519285D01*
X119332453Y-70539780D01*
X118993341Y-70526971D01*
X118655793Y-70482649D01*
X118350408Y-70408607D01*
X118175640Y-70346962D01*
X117744406Y-70134860D01*
X117358528Y-69855191D01*
X117024936Y-69514593D01*
X116750562Y-69119703D01*
X116542338Y-68677160D01*
X116524271Y-68627849D01*
X116467131Y-68451253D01*
X116429945Y-68284209D01*
X116407009Y-68095326D01*
X116392620Y-67853214D01*
X116392248Y-67844397D01*
X116390330Y-67710261D01*
X116553931Y-67710261D01*
X116566257Y-68031881D01*
X116611113Y-68309872D01*
X116661552Y-68488214D01*
X116819598Y-68875824D01*
X117040532Y-69229208D01*
X117335209Y-69567213D01*
X117518707Y-69743676D01*
X117681590Y-69878308D01*
X117845570Y-69985728D01*
X118037670Y-70085886D01*
X118083199Y-70107129D01*
X118292993Y-70194136D01*
X118508639Y-70269635D01*
X118689967Y-70319255D01*
X118849846Y-70348031D01*
X119308839Y-70374240D01*
X119768358Y-70316355D01*
X120230653Y-70174164D01*
X120268259Y-70158791D01*
X120634557Y-69962436D01*
X120975237Y-69698284D01*
X121278498Y-69380430D01*
X121532538Y-69022964D01*
X121725557Y-68639979D01*
X121845752Y-68245567D01*
X121894161Y-67877938D01*
X121883876Y-67429675D01*
X121800771Y-66999904D01*
X121651073Y-66595177D01*
X121441010Y-66222046D01*
X121176811Y-65887061D01*
X120864703Y-65596774D01*
X120510913Y-65357737D01*
X120121670Y-65176502D01*
X119703200Y-65059620D01*
X119261733Y-65013642D01*
X118803495Y-65045121D01*
X118703747Y-65062651D01*
X118260733Y-65191051D01*
X117850974Y-65393136D01*
X117481699Y-65662848D01*
X117160136Y-65994131D01*
X116893512Y-66380925D01*
X116689057Y-66817174D01*
X116620258Y-67062688D01*
X116572482Y-67376650D01*
X116553931Y-67710261D01*
X116390330Y-67710261D01*
X116388210Y-67562042D01*
X116399133Y-67308964D01*
X116423870Y-67112381D01*
X116465404Y-66934072D01*
X116625348Y-66497206D01*
X116856791Y-66093767D01*
X117152376Y-65731908D01*
X117504746Y-65419783D01*
X117906542Y-65165546D01*
X118350408Y-64977351D01*
X118561179Y-64920704D01*
X118928090Y-64866628D01*
X119314441Y-64854627D01*
X119689466Y-64885054D01*
X120022399Y-64958259D01*
X120428805Y-65114163D01*
X120854494Y-65354390D01*
X121222026Y-65655969D01*
X121532189Y-66019563D01*
X121785767Y-66445837D01*
X121841493Y-66564318D01*
X121949028Y-66847929D01*
X122015501Y-67135033D01*
X122045730Y-67451259D01*
X122044532Y-67822234D01*
X122042166Y-67877938D01*
X122039699Y-67936021D01*
G36*
X122039699Y-67936021D02*
G01*
X122024626Y-68155055D01*
X122000681Y-68328451D01*
X121963346Y-68483560D01*
X121908098Y-68647734D01*
X121709649Y-69080481D01*
X121437808Y-69484717D01*
X121105879Y-69831659D01*
X120717969Y-70117729D01*
X120278184Y-70339345D01*
X119790634Y-70492931D01*
X119642530Y-70519285D01*
X119332453Y-70539780D01*
X118993341Y-70526971D01*
X118655793Y-70482649D01*
X118350408Y-70408607D01*
X118175640Y-70346962D01*
X117744406Y-70134860D01*
X117358528Y-69855191D01*
X117024936Y-69514593D01*
X116750562Y-69119703D01*
X116542338Y-68677160D01*
X116524271Y-68627849D01*
X116467131Y-68451253D01*
X116429945Y-68284209D01*
X116407009Y-68095326D01*
X116392620Y-67853214D01*
X116392248Y-67844397D01*
X116390330Y-67710261D01*
X116553931Y-67710261D01*
X116566257Y-68031881D01*
X116611113Y-68309872D01*
X116661552Y-68488214D01*
X116819598Y-68875824D01*
X117040532Y-69229208D01*
X117335209Y-69567213D01*
X117518707Y-69743676D01*
X117681590Y-69878308D01*
X117845570Y-69985728D01*
X118037670Y-70085886D01*
X118083199Y-70107129D01*
X118292993Y-70194136D01*
X118508639Y-70269635D01*
X118689967Y-70319255D01*
X118849846Y-70348031D01*
X119308839Y-70374240D01*
X119768358Y-70316355D01*
X120230653Y-70174164D01*
X120268259Y-70158791D01*
X120634557Y-69962436D01*
X120975237Y-69698284D01*
X121278498Y-69380430D01*
X121532538Y-69022964D01*
X121725557Y-68639979D01*
X121845752Y-68245567D01*
X121894161Y-67877938D01*
X121883876Y-67429675D01*
X121800771Y-66999904D01*
X121651073Y-66595177D01*
X121441010Y-66222046D01*
X121176811Y-65887061D01*
X120864703Y-65596774D01*
X120510913Y-65357737D01*
X120121670Y-65176502D01*
X119703200Y-65059620D01*
X119261733Y-65013642D01*
X118803495Y-65045121D01*
X118703747Y-65062651D01*
X118260733Y-65191051D01*
X117850974Y-65393136D01*
X117481699Y-65662848D01*
X117160136Y-65994131D01*
X116893512Y-66380925D01*
X116689057Y-66817174D01*
X116620258Y-67062688D01*
X116572482Y-67376650D01*
X116553931Y-67710261D01*
X116390330Y-67710261D01*
X116388210Y-67562042D01*
X116399133Y-67308964D01*
X116423870Y-67112381D01*
X116465404Y-66934072D01*
X116625348Y-66497206D01*
X116856791Y-66093767D01*
X117152376Y-65731908D01*
X117504746Y-65419783D01*
X117906542Y-65165546D01*
X118350408Y-64977351D01*
X118561179Y-64920704D01*
X118928090Y-64866628D01*
X119314441Y-64854627D01*
X119689466Y-64885054D01*
X120022399Y-64958259D01*
X120428805Y-65114163D01*
X120854494Y-65354390D01*
X121222026Y-65655969D01*
X121532189Y-66019563D01*
X121785767Y-66445837D01*
X121841493Y-66564318D01*
X121949028Y-66847929D01*
X122015501Y-67135033D01*
X122045730Y-67451259D01*
X122044532Y-67822234D01*
X122042166Y-67877938D01*
X122039699Y-67936021D01*
G37*
X124451097Y-63680846D02*
X124423894Y-63962905D01*
X124321713Y-64242335D01*
X124290434Y-64293218D01*
X124177020Y-64426421D01*
X124028968Y-64561504D01*
X123873965Y-64674688D01*
X123739696Y-64742197D01*
X123639437Y-64768075D01*
X123378337Y-64792450D01*
X123112881Y-64767167D01*
X122880967Y-64694337D01*
X122826267Y-64667022D01*
X122577392Y-64494156D01*
X122399150Y-64274652D01*
X122291386Y-64008260D01*
X122253943Y-63694734D01*
X122258062Y-63594361D01*
X122439869Y-63594361D01*
X122444310Y-63761129D01*
X122466466Y-63928062D01*
X122554637Y-64165494D01*
X122711303Y-64356711D01*
X122941737Y-64509650D01*
X122976669Y-64526675D01*
X123173859Y-64599389D01*
X123346634Y-64626067D01*
X123534092Y-64597636D01*
X123753064Y-64508613D01*
X123953770Y-64374811D01*
X124106421Y-64212446D01*
X124179924Y-64088860D01*
X124226789Y-63947008D01*
X124248909Y-63761900D01*
X124252706Y-63630590D01*
X124246230Y-63501745D01*
X124229693Y-63427111D01*
X124226616Y-63422385D01*
X124208685Y-63436453D01*
X124197291Y-63527830D01*
X124193526Y-63681047D01*
X124193300Y-63690249D01*
X124189699Y-63863348D01*
X124173958Y-63989232D01*
X124139322Y-64088611D01*
X124079043Y-64191072D01*
X123948132Y-64340251D01*
X123744043Y-64477525D01*
X123512725Y-64558219D01*
X123279995Y-64570086D01*
X123092138Y-64531951D01*
X122849960Y-64421052D01*
X122664363Y-64251538D01*
X122541276Y-64029454D01*
X122486625Y-63760848D01*
X122485640Y-63743684D01*
X122485978Y-63738933D01*
X122614180Y-63738933D01*
X122655212Y-63952914D01*
X122762238Y-64147934D01*
X122936126Y-64308072D01*
X122993815Y-64343164D01*
X123224532Y-64428640D01*
X123455099Y-64435843D01*
X123671656Y-64368442D01*
X123860345Y-64230106D01*
X124007305Y-64024503D01*
X124057649Y-63899498D01*
X124086422Y-63681047D01*
X124047827Y-63474033D01*
X123952629Y-63288862D01*
X123811594Y-63135944D01*
X123635487Y-63025684D01*
X123435074Y-62968491D01*
X123221120Y-62974772D01*
X123004391Y-63054934D01*
X122878378Y-63142453D01*
X122726631Y-63317780D01*
X122638276Y-63521914D01*
X122614180Y-63738933D01*
X122485978Y-63738933D01*
X122504428Y-63479604D01*
X122594153Y-63254043D01*
X122760673Y-63051843D01*
X122779368Y-63034588D01*
X122936277Y-62924782D01*
X123117785Y-62865700D01*
X123350749Y-62848067D01*
X123423954Y-62849674D01*
X123650313Y-62885552D01*
X123837626Y-62977667D01*
X124013384Y-63138051D01*
X124082184Y-63210570D01*
X124147074Y-63268877D01*
X124172134Y-63276503D01*
X124155115Y-63243397D01*
X124091690Y-63164545D01*
X123997446Y-63064340D01*
X123878259Y-62962095D01*
X123644088Y-62837080D01*
X123396060Y-62785770D01*
X123148074Y-62806132D01*
X122914032Y-62896133D01*
X122707834Y-63053741D01*
X122543380Y-63276924D01*
X122506556Y-63347388D01*
X122457823Y-63470109D01*
X122439869Y-63594361D01*
X122258062Y-63594361D01*
X122258618Y-63580804D01*
X122322657Y-63295177D01*
X122454138Y-63047286D01*
X122643449Y-62845788D01*
X122880981Y-62699342D01*
X123157123Y-62616602D01*
X123462266Y-62606228D01*
X123682002Y-62649079D01*
X123935592Y-62765156D01*
X124145570Y-62938313D01*
X124305662Y-63156608D01*
X124409595Y-63408099D01*
X124443450Y-63630590D01*
X124451097Y-63680846D01*
G36*
X124451097Y-63680846D02*
G01*
X124423894Y-63962905D01*
X124321713Y-64242335D01*
X124290434Y-64293218D01*
X124177020Y-64426421D01*
X124028968Y-64561504D01*
X123873965Y-64674688D01*
X123739696Y-64742197D01*
X123639437Y-64768075D01*
X123378337Y-64792450D01*
X123112881Y-64767167D01*
X122880967Y-64694337D01*
X122826267Y-64667022D01*
X122577392Y-64494156D01*
X122399150Y-64274652D01*
X122291386Y-64008260D01*
X122253943Y-63694734D01*
X122258062Y-63594361D01*
X122439869Y-63594361D01*
X122444310Y-63761129D01*
X122466466Y-63928062D01*
X122554637Y-64165494D01*
X122711303Y-64356711D01*
X122941737Y-64509650D01*
X122976669Y-64526675D01*
X123173859Y-64599389D01*
X123346634Y-64626067D01*
X123534092Y-64597636D01*
X123753064Y-64508613D01*
X123953770Y-64374811D01*
X124106421Y-64212446D01*
X124179924Y-64088860D01*
X124226789Y-63947008D01*
X124248909Y-63761900D01*
X124252706Y-63630590D01*
X124246230Y-63501745D01*
X124229693Y-63427111D01*
X124226616Y-63422385D01*
X124208685Y-63436453D01*
X124197291Y-63527830D01*
X124193526Y-63681047D01*
X124193300Y-63690249D01*
X124189699Y-63863348D01*
X124173958Y-63989232D01*
X124139322Y-64088611D01*
X124079043Y-64191072D01*
X123948132Y-64340251D01*
X123744043Y-64477525D01*
X123512725Y-64558219D01*
X123279995Y-64570086D01*
X123092138Y-64531951D01*
X122849960Y-64421052D01*
X122664363Y-64251538D01*
X122541276Y-64029454D01*
X122486625Y-63760848D01*
X122485640Y-63743684D01*
X122485978Y-63738933D01*
X122614180Y-63738933D01*
X122655212Y-63952914D01*
X122762238Y-64147934D01*
X122936126Y-64308072D01*
X122993815Y-64343164D01*
X123224532Y-64428640D01*
X123455099Y-64435843D01*
X123671656Y-64368442D01*
X123860345Y-64230106D01*
X124007305Y-64024503D01*
X124057649Y-63899498D01*
X124086422Y-63681047D01*
X124047827Y-63474033D01*
X123952629Y-63288862D01*
X123811594Y-63135944D01*
X123635487Y-63025684D01*
X123435074Y-62968491D01*
X123221120Y-62974772D01*
X123004391Y-63054934D01*
X122878378Y-63142453D01*
X122726631Y-63317780D01*
X122638276Y-63521914D01*
X122614180Y-63738933D01*
X122485978Y-63738933D01*
X122504428Y-63479604D01*
X122594153Y-63254043D01*
X122760673Y-63051843D01*
X122779368Y-63034588D01*
X122936277Y-62924782D01*
X123117785Y-62865700D01*
X123350749Y-62848067D01*
X123423954Y-62849674D01*
X123650313Y-62885552D01*
X123837626Y-62977667D01*
X124013384Y-63138051D01*
X124082184Y-63210570D01*
X124147074Y-63268877D01*
X124172134Y-63276503D01*
X124155115Y-63243397D01*
X124091690Y-63164545D01*
X123997446Y-63064340D01*
X123878259Y-62962095D01*
X123644088Y-62837080D01*
X123396060Y-62785770D01*
X123148074Y-62806132D01*
X122914032Y-62896133D01*
X122707834Y-63053741D01*
X122543380Y-63276924D01*
X122506556Y-63347388D01*
X122457823Y-63470109D01*
X122439869Y-63594361D01*
X122258062Y-63594361D01*
X122258618Y-63580804D01*
X122322657Y-63295177D01*
X122454138Y-63047286D01*
X122643449Y-62845788D01*
X122880981Y-62699342D01*
X123157123Y-62616602D01*
X123462266Y-62606228D01*
X123682002Y-62649079D01*
X123935592Y-62765156D01*
X124145570Y-62938313D01*
X124305662Y-63156608D01*
X124409595Y-63408099D01*
X124443450Y-63630590D01*
X124451097Y-63680846D01*
G37*
X124997618Y-63722243D02*
X124995209Y-63920617D01*
X124985321Y-64063306D01*
X124963115Y-64176157D01*
X124923750Y-64285019D01*
X124862387Y-64415739D01*
X124776796Y-64569999D01*
X124552427Y-64858575D01*
X124280990Y-65087190D01*
X123973405Y-65252067D01*
X123640591Y-65349427D01*
X123293468Y-65375490D01*
X122942956Y-65326480D01*
X122599975Y-65198616D01*
X122379153Y-65087703D01*
X122096042Y-65368645D01*
X121812931Y-65649586D01*
X121978664Y-65897773D01*
X122168041Y-66223075D01*
X122349068Y-66675594D01*
X122456601Y-67164588D01*
X122492116Y-67695234D01*
X122486181Y-67805505D01*
X122468835Y-68127816D01*
X122375705Y-68619018D01*
X122209079Y-69076798D01*
X121966449Y-69509808D01*
X121961412Y-69517400D01*
X121880641Y-69642953D01*
X121823282Y-69739077D01*
X121801467Y-69785503D01*
X121803961Y-69790446D01*
X121848415Y-69842730D01*
X121941693Y-69942604D01*
X122074937Y-70080844D01*
X122239286Y-70248229D01*
X122425884Y-70435537D01*
X123050300Y-71058116D01*
X123240800Y-70927219D01*
X123483196Y-70777383D01*
X123878838Y-70602739D01*
X124301390Y-70501035D01*
X124764800Y-70468067D01*
X125046592Y-70479735D01*
X125492232Y-70555062D01*
X125899493Y-70703092D01*
X126276398Y-70927104D01*
X126630971Y-71230376D01*
X126817629Y-71433180D01*
X127072127Y-71796428D01*
X127250347Y-72189389D01*
X127355167Y-72619135D01*
X127389467Y-73092734D01*
X127382530Y-73259555D01*
X127377625Y-73377534D01*
X127302127Y-73824429D01*
X127154430Y-74231591D01*
X126931668Y-74606061D01*
X126630971Y-74954883D01*
X126628512Y-74957323D01*
X126276470Y-75259715D01*
X125905827Y-75484476D01*
X125505634Y-75638253D01*
X125417512Y-75659751D01*
X125168698Y-75695917D01*
X124879985Y-75713304D01*
X124581169Y-75711663D01*
X124302045Y-75690743D01*
X124072411Y-75650294D01*
X123974892Y-75622775D01*
X123570444Y-75456778D01*
X123195722Y-75220583D01*
X122861076Y-74924530D01*
X122576855Y-74578960D01*
X122353409Y-74194212D01*
X122201086Y-73780626D01*
X122187082Y-73720467D01*
X122155540Y-73496134D01*
X122139701Y-73228523D01*
X122139837Y-72947599D01*
X122141072Y-72927681D01*
X122365037Y-72927681D01*
X122372554Y-73350529D01*
X122457555Y-73763753D01*
X122613518Y-74154190D01*
X122833617Y-74512584D01*
X123111025Y-74829681D01*
X123438915Y-75096227D01*
X123810459Y-75302968D01*
X124218832Y-75440649D01*
X124443795Y-75482060D01*
X124877650Y-75499231D01*
X125305264Y-75437186D01*
X125715595Y-75299072D01*
X126097603Y-75088038D01*
X126440245Y-74807234D01*
X126473842Y-74773502D01*
X126753714Y-74431313D01*
X126960781Y-74058651D01*
X127095907Y-73664927D01*
X127159960Y-73259555D01*
X127153804Y-72851945D01*
X127078305Y-72451511D01*
X126934329Y-72067663D01*
X126722741Y-71709816D01*
X126444407Y-71387379D01*
X126100193Y-71109767D01*
X125878832Y-70977429D01*
X125473529Y-70806795D01*
X125054623Y-70713655D01*
X124631721Y-70697145D01*
X124214429Y-70756402D01*
X123812354Y-70890561D01*
X123435104Y-71098759D01*
X123092285Y-71380134D01*
X122825203Y-71686607D01*
X122593938Y-72067851D01*
X122440183Y-72482323D01*
X122365037Y-72927681D01*
X122141072Y-72927681D01*
X122156221Y-72683330D01*
X122189126Y-72465681D01*
X122200790Y-72420122D01*
X122256336Y-72253860D01*
X122334965Y-72058483D01*
X122423620Y-71867310D01*
X122605150Y-71505607D01*
X121981588Y-70881004D01*
X121925497Y-70824942D01*
X121742574Y-70643883D01*
X121582053Y-70487643D01*
X121453206Y-70365079D01*
X121365307Y-70285046D01*
X121327626Y-70256400D01*
X121327354Y-70256406D01*
X121278885Y-70279718D01*
X121182620Y-70339571D01*
X121059115Y-70423198D01*
X120803711Y-70581140D01*
X120369873Y-70773785D01*
X119902058Y-70902108D01*
X119414749Y-70964607D01*
X118922429Y-70959783D01*
X118439581Y-70886135D01*
X117980689Y-70742161D01*
X117527823Y-70514603D01*
X117113846Y-70217907D01*
X116750576Y-69862467D01*
X116445637Y-69456977D01*
X116206654Y-69010131D01*
X116041249Y-68530621D01*
X116039198Y-68522516D01*
X115985685Y-68219998D01*
X115959407Y-67869929D01*
X115960322Y-67503950D01*
X115961669Y-67487136D01*
X116227913Y-67487136D01*
X116233552Y-67958067D01*
X116316643Y-68423927D01*
X116472826Y-68873630D01*
X116697741Y-69296088D01*
X116987028Y-69680214D01*
X117336326Y-70014920D01*
X117354646Y-70029583D01*
X117620333Y-70212601D01*
X117928832Y-70381954D01*
X118247026Y-70521189D01*
X118541800Y-70613852D01*
X118556995Y-70617317D01*
X118800192Y-70654079D01*
X119090155Y-70671805D01*
X119394555Y-70670552D01*
X119681061Y-70650381D01*
X119917345Y-70611350D01*
X119981617Y-70594381D01*
X120264722Y-70493981D01*
X120567108Y-70353215D01*
X120856829Y-70188167D01*
X121101942Y-70014920D01*
X121422286Y-69711976D01*
X121724639Y-69323274D01*
X121963463Y-68892715D01*
X122128505Y-68436067D01*
X122181603Y-68149627D01*
X122204555Y-67805505D01*
X122195371Y-67445805D01*
X122154915Y-67102167D01*
X122084049Y-66806234D01*
X122016970Y-66619286D01*
X121841268Y-66249895D01*
X121612057Y-65910355D01*
X121314634Y-65577179D01*
X121122821Y-65399901D01*
X120735787Y-65120869D01*
X120325065Y-64915136D01*
X119898087Y-64780227D01*
X119462285Y-64713666D01*
X119025091Y-64712979D01*
X118593937Y-64775690D01*
X118176255Y-64899323D01*
X117779477Y-65081404D01*
X117411034Y-65319457D01*
X117078360Y-65611007D01*
X116788885Y-65953578D01*
X116550042Y-66344696D01*
X116369262Y-66781885D01*
X116253978Y-67262670D01*
X116227913Y-67487136D01*
X115961669Y-67487136D01*
X115988387Y-67153701D01*
X116043557Y-66850821D01*
X116120201Y-66597339D01*
X116322877Y-66139064D01*
X116593113Y-65719164D01*
X116922843Y-65344990D01*
X117304004Y-65023888D01*
X117728533Y-64763208D01*
X118188364Y-64570298D01*
X118675433Y-64452506D01*
X118916208Y-64428761D01*
X119220412Y-64423373D01*
X119538552Y-64437585D01*
X119838210Y-64469877D01*
X120086967Y-64518727D01*
X120251589Y-64569594D01*
X120571864Y-64699557D01*
X120889646Y-64862902D01*
X121166467Y-65041017D01*
X121399300Y-65212446D01*
X121676904Y-64939059D01*
X121954507Y-64665673D01*
X121831384Y-64409141D01*
X121771399Y-64266047D01*
X121689417Y-63923293D01*
X121685402Y-63715900D01*
X121824375Y-63715900D01*
X121824487Y-63735634D01*
X121830050Y-63931664D01*
X121847397Y-64076238D01*
X121882258Y-64199827D01*
X121940359Y-64332903D01*
X121994233Y-64433083D01*
X122191203Y-64699591D01*
X122438295Y-64928775D01*
X122711634Y-65096979D01*
X122902043Y-65168340D01*
X123172643Y-65227069D01*
X123441425Y-65244854D01*
X123674890Y-65217503D01*
X123997714Y-65096901D01*
X124299367Y-64902497D01*
X124554113Y-64649037D01*
X124747054Y-64348594D01*
X124781599Y-64276069D01*
X124828674Y-64157189D01*
X124855566Y-64039798D01*
X124867689Y-63895209D01*
X124870456Y-63694734D01*
X124869940Y-63598612D01*
X124863366Y-63424423D01*
X124845057Y-63294186D01*
X124809807Y-63179559D01*
X124752408Y-63052199D01*
X124735666Y-63019519D01*
X124576624Y-62784761D01*
X124365985Y-62564110D01*
X124128232Y-62380130D01*
X123887848Y-62255384D01*
X123886937Y-62255042D01*
X123592815Y-62183444D01*
X123273319Y-62170724D01*
X122958546Y-62215376D01*
X122678589Y-62315894D01*
X122601987Y-62358061D01*
X122338194Y-62555801D01*
X122108865Y-62808430D01*
X121936090Y-63092835D01*
X121927922Y-63110401D01*
X121873529Y-63242795D01*
X121841818Y-63367332D01*
X121827272Y-63514778D01*
X121824375Y-63715900D01*
X121685402Y-63715900D01*
X121682622Y-63572257D01*
X121747659Y-63226479D01*
X121881171Y-62899498D01*
X122079803Y-62604855D01*
X122340200Y-62356090D01*
X122523106Y-62233395D01*
X122782470Y-62118551D01*
X123070969Y-62060167D01*
X123410134Y-62052128D01*
X123576176Y-62061403D01*
X123757692Y-62083209D01*
X123906930Y-62120768D01*
X124054365Y-62180135D01*
X124098991Y-62201640D01*
X124397419Y-62396461D01*
X124654179Y-62655035D01*
X124853590Y-62962023D01*
X124872242Y-62998963D01*
X124930931Y-63123324D01*
X124967734Y-63229154D01*
X124987732Y-63342248D01*
X124996005Y-63488402D01*
X124997634Y-63693413D01*
X124997633Y-63694734D01*
X124997618Y-63722243D01*
G36*
X124997618Y-63722243D02*
G01*
X124995209Y-63920617D01*
X124985321Y-64063306D01*
X124963115Y-64176157D01*
X124923750Y-64285019D01*
X124862387Y-64415739D01*
X124776796Y-64569999D01*
X124552427Y-64858575D01*
X124280990Y-65087190D01*
X123973405Y-65252067D01*
X123640591Y-65349427D01*
X123293468Y-65375490D01*
X122942956Y-65326480D01*
X122599975Y-65198616D01*
X122379153Y-65087703D01*
X122096042Y-65368645D01*
X121812931Y-65649586D01*
X121978664Y-65897773D01*
X122168041Y-66223075D01*
X122349068Y-66675594D01*
X122456601Y-67164588D01*
X122492116Y-67695234D01*
X122486181Y-67805505D01*
X122468835Y-68127816D01*
X122375705Y-68619018D01*
X122209079Y-69076798D01*
X121966449Y-69509808D01*
X121961412Y-69517400D01*
X121880641Y-69642953D01*
X121823282Y-69739077D01*
X121801467Y-69785503D01*
X121803961Y-69790446D01*
X121848415Y-69842730D01*
X121941693Y-69942604D01*
X122074937Y-70080844D01*
X122239286Y-70248229D01*
X122425884Y-70435537D01*
X123050300Y-71058116D01*
X123240800Y-70927219D01*
X123483196Y-70777383D01*
X123878838Y-70602739D01*
X124301390Y-70501035D01*
X124764800Y-70468067D01*
X125046592Y-70479735D01*
X125492232Y-70555062D01*
X125899493Y-70703092D01*
X126276398Y-70927104D01*
X126630971Y-71230376D01*
X126817629Y-71433180D01*
X127072127Y-71796428D01*
X127250347Y-72189389D01*
X127355167Y-72619135D01*
X127389467Y-73092734D01*
X127382530Y-73259555D01*
X127377625Y-73377534D01*
X127302127Y-73824429D01*
X127154430Y-74231591D01*
X126931668Y-74606061D01*
X126630971Y-74954883D01*
X126628512Y-74957323D01*
X126276470Y-75259715D01*
X125905827Y-75484476D01*
X125505634Y-75638253D01*
X125417512Y-75659751D01*
X125168698Y-75695917D01*
X124879985Y-75713304D01*
X124581169Y-75711663D01*
X124302045Y-75690743D01*
X124072411Y-75650294D01*
X123974892Y-75622775D01*
X123570444Y-75456778D01*
X123195722Y-75220583D01*
X122861076Y-74924530D01*
X122576855Y-74578960D01*
X122353409Y-74194212D01*
X122201086Y-73780626D01*
X122187082Y-73720467D01*
X122155540Y-73496134D01*
X122139701Y-73228523D01*
X122139837Y-72947599D01*
X122141072Y-72927681D01*
X122365037Y-72927681D01*
X122372554Y-73350529D01*
X122457555Y-73763753D01*
X122613518Y-74154190D01*
X122833617Y-74512584D01*
X123111025Y-74829681D01*
X123438915Y-75096227D01*
X123810459Y-75302968D01*
X124218832Y-75440649D01*
X124443795Y-75482060D01*
X124877650Y-75499231D01*
X125305264Y-75437186D01*
X125715595Y-75299072D01*
X126097603Y-75088038D01*
X126440245Y-74807234D01*
X126473842Y-74773502D01*
X126753714Y-74431313D01*
X126960781Y-74058651D01*
X127095907Y-73664927D01*
X127159960Y-73259555D01*
X127153804Y-72851945D01*
X127078305Y-72451511D01*
X126934329Y-72067663D01*
X126722741Y-71709816D01*
X126444407Y-71387379D01*
X126100193Y-71109767D01*
X125878832Y-70977429D01*
X125473529Y-70806795D01*
X125054623Y-70713655D01*
X124631721Y-70697145D01*
X124214429Y-70756402D01*
X123812354Y-70890561D01*
X123435104Y-71098759D01*
X123092285Y-71380134D01*
X122825203Y-71686607D01*
X122593938Y-72067851D01*
X122440183Y-72482323D01*
X122365037Y-72927681D01*
X122141072Y-72927681D01*
X122156221Y-72683330D01*
X122189126Y-72465681D01*
X122200790Y-72420122D01*
X122256336Y-72253860D01*
X122334965Y-72058483D01*
X122423620Y-71867310D01*
X122605150Y-71505607D01*
X121981588Y-70881004D01*
X121925497Y-70824942D01*
X121742574Y-70643883D01*
X121582053Y-70487643D01*
X121453206Y-70365079D01*
X121365307Y-70285046D01*
X121327626Y-70256400D01*
X121327354Y-70256406D01*
X121278885Y-70279718D01*
X121182620Y-70339571D01*
X121059115Y-70423198D01*
X120803711Y-70581140D01*
X120369873Y-70773785D01*
X119902058Y-70902108D01*
X119414749Y-70964607D01*
X118922429Y-70959783D01*
X118439581Y-70886135D01*
X117980689Y-70742161D01*
X117527823Y-70514603D01*
X117113846Y-70217907D01*
X116750576Y-69862467D01*
X116445637Y-69456977D01*
X116206654Y-69010131D01*
X116041249Y-68530621D01*
X116039198Y-68522516D01*
X115985685Y-68219998D01*
X115959407Y-67869929D01*
X115960322Y-67503950D01*
X115961669Y-67487136D01*
X116227913Y-67487136D01*
X116233552Y-67958067D01*
X116316643Y-68423927D01*
X116472826Y-68873630D01*
X116697741Y-69296088D01*
X116987028Y-69680214D01*
X117336326Y-70014920D01*
X117354646Y-70029583D01*
X117620333Y-70212601D01*
X117928832Y-70381954D01*
X118247026Y-70521189D01*
X118541800Y-70613852D01*
X118556995Y-70617317D01*
X118800192Y-70654079D01*
X119090155Y-70671805D01*
X119394555Y-70670552D01*
X119681061Y-70650381D01*
X119917345Y-70611350D01*
X119981617Y-70594381D01*
X120264722Y-70493981D01*
X120567108Y-70353215D01*
X120856829Y-70188167D01*
X121101942Y-70014920D01*
X121422286Y-69711976D01*
X121724639Y-69323274D01*
X121963463Y-68892715D01*
X122128505Y-68436067D01*
X122181603Y-68149627D01*
X122204555Y-67805505D01*
X122195371Y-67445805D01*
X122154915Y-67102167D01*
X122084049Y-66806234D01*
X122016970Y-66619286D01*
X121841268Y-66249895D01*
X121612057Y-65910355D01*
X121314634Y-65577179D01*
X121122821Y-65399901D01*
X120735787Y-65120869D01*
X120325065Y-64915136D01*
X119898087Y-64780227D01*
X119462285Y-64713666D01*
X119025091Y-64712979D01*
X118593937Y-64775690D01*
X118176255Y-64899323D01*
X117779477Y-65081404D01*
X117411034Y-65319457D01*
X117078360Y-65611007D01*
X116788885Y-65953578D01*
X116550042Y-66344696D01*
X116369262Y-66781885D01*
X116253978Y-67262670D01*
X116227913Y-67487136D01*
X115961669Y-67487136D01*
X115988387Y-67153701D01*
X116043557Y-66850821D01*
X116120201Y-66597339D01*
X116322877Y-66139064D01*
X116593113Y-65719164D01*
X116922843Y-65344990D01*
X117304004Y-65023888D01*
X117728533Y-64763208D01*
X118188364Y-64570298D01*
X118675433Y-64452506D01*
X118916208Y-64428761D01*
X119220412Y-64423373D01*
X119538552Y-64437585D01*
X119838210Y-64469877D01*
X120086967Y-64518727D01*
X120251589Y-64569594D01*
X120571864Y-64699557D01*
X120889646Y-64862902D01*
X121166467Y-65041017D01*
X121399300Y-65212446D01*
X121676904Y-64939059D01*
X121954507Y-64665673D01*
X121831384Y-64409141D01*
X121771399Y-64266047D01*
X121689417Y-63923293D01*
X121685402Y-63715900D01*
X121824375Y-63715900D01*
X121824487Y-63735634D01*
X121830050Y-63931664D01*
X121847397Y-64076238D01*
X121882258Y-64199827D01*
X121940359Y-64332903D01*
X121994233Y-64433083D01*
X122191203Y-64699591D01*
X122438295Y-64928775D01*
X122711634Y-65096979D01*
X122902043Y-65168340D01*
X123172643Y-65227069D01*
X123441425Y-65244854D01*
X123674890Y-65217503D01*
X123997714Y-65096901D01*
X124299367Y-64902497D01*
X124554113Y-64649037D01*
X124747054Y-64348594D01*
X124781599Y-64276069D01*
X124828674Y-64157189D01*
X124855566Y-64039798D01*
X124867689Y-63895209D01*
X124870456Y-63694734D01*
X124869940Y-63598612D01*
X124863366Y-63424423D01*
X124845057Y-63294186D01*
X124809807Y-63179559D01*
X124752408Y-63052199D01*
X124735666Y-63019519D01*
X124576624Y-62784761D01*
X124365985Y-62564110D01*
X124128232Y-62380130D01*
X123887848Y-62255384D01*
X123886937Y-62255042D01*
X123592815Y-62183444D01*
X123273319Y-62170724D01*
X122958546Y-62215376D01*
X122678589Y-62315894D01*
X122601987Y-62358061D01*
X122338194Y-62555801D01*
X122108865Y-62808430D01*
X121936090Y-63092835D01*
X121927922Y-63110401D01*
X121873529Y-63242795D01*
X121841818Y-63367332D01*
X121827272Y-63514778D01*
X121824375Y-63715900D01*
X121685402Y-63715900D01*
X121682622Y-63572257D01*
X121747659Y-63226479D01*
X121881171Y-62899498D01*
X122079803Y-62604855D01*
X122340200Y-62356090D01*
X122523106Y-62233395D01*
X122782470Y-62118551D01*
X123070969Y-62060167D01*
X123410134Y-62052128D01*
X123576176Y-62061403D01*
X123757692Y-62083209D01*
X123906930Y-62120768D01*
X124054365Y-62180135D01*
X124098991Y-62201640D01*
X124397419Y-62396461D01*
X124654179Y-62655035D01*
X124853590Y-62962023D01*
X124872242Y-62998963D01*
X124930931Y-63123324D01*
X124967734Y-63229154D01*
X124987732Y-63342248D01*
X124996005Y-63488402D01*
X124997634Y-63693413D01*
X124997633Y-63694734D01*
X124997618Y-63722243D01*
G37*
%TD*%
M02*
