%TF.GenerationSoftware,KiCad,Pcbnew,8.0.5*%
%TF.CreationDate,2025-02-18T12:13:13+00:00*%
%TF.ProjectId,robin,726f6269-6e2e-46b6-9963-61645f706362,v2*%
%TF.SameCoordinates,Original*%
%TF.FileFunction,Profile,NP*%
%FSLAX46Y46*%
G04 Gerber Fmt 4.6, Leading zero omitted, Abs format (unit mm)*
G04 Created by KiCad (PCBNEW 8.0.5) date 2025-02-18 12:13:13*
%MOMM*%
%LPD*%
G01*
G04 APERTURE LIST*
%TA.AperFunction,Profile*%
%ADD10C,0.100000*%
%TD*%
G04 APERTURE END LIST*
D10*
X106138050Y-133295600D02*
X106500190Y-131246400D01*
X204029900Y-110560300D02*
X204136600Y-111170800D01*
X111113420Y-74011900D02*
X111570290Y-72762600D01*
X128358000Y-113992200D02*
X127627200Y-113550200D01*
X190129200Y-126789000D02*
X190088100Y-126818300D01*
X179499800Y-103975100D02*
X178949100Y-103826700D01*
X106935360Y-127799000D02*
X106943830Y-127323300D01*
X125439300Y-112107700D02*
X124710900Y-111588300D01*
X159316300Y-66332700D02*
X159811200Y-66605000D01*
X153910300Y-69908100D02*
X153833200Y-69891900D01*
X180054600Y-104108300D02*
X179499800Y-103975100D01*
X132771100Y-116232100D02*
X132031300Y-115908200D01*
X202778100Y-107260500D02*
X203045900Y-107639500D01*
X116083800Y-103372000D02*
X115296500Y-102291800D01*
X147597800Y-50477190D02*
X148193500Y-50746550D01*
X119993900Y-58786700D02*
X120805000Y-57935100D01*
X155664500Y-64842800D02*
X156424300Y-65108200D01*
X204517800Y-114452400D02*
X204577800Y-115324700D01*
X105623500Y-121998300D02*
X105623500Y-121998300D01*
X130556100Y-51512800D02*
X131713800Y-51096660D01*
X155623000Y-69448200D02*
X155121100Y-69627900D01*
X188601900Y-126361400D02*
X187961300Y-126012000D01*
X132908100Y-50724650D02*
X134139800Y-50397540D01*
X133513000Y-116536100D02*
X132771100Y-116232100D01*
X109551650Y-86723400D02*
X109466790Y-85453900D01*
X182176000Y-103589500D02*
X182247000Y-103755000D01*
X109455440Y-82904600D02*
X109529610Y-81627500D01*
X154675200Y-69769200D02*
X154301200Y-69865100D01*
X106500190Y-131246400D02*
X106653630Y-130272200D01*
X189958900Y-126029300D02*
X190088800Y-126281700D01*
X110075480Y-77801800D02*
X110366340Y-76532800D01*
X148193500Y-50746550D02*
X148773400Y-51043590D01*
X180592000Y-104215900D02*
X180054600Y-104108300D01*
X155728200Y-64353300D02*
X155664500Y-64842800D01*
X112086780Y-96587500D02*
X111592520Y-95395000D01*
X105351491Y-137220800D02*
X105740030Y-135342100D01*
X155774300Y-63861100D02*
X155728200Y-64353300D01*
X153514800Y-55350400D02*
X153864600Y-55896100D01*
X154995600Y-58245900D02*
X155207000Y-58870800D01*
X113783460Y-67937100D02*
X114386810Y-66797500D01*
X183319700Y-122955700D02*
X184205600Y-124165100D01*
X114557200Y-101189700D02*
X113866260Y-100066900D01*
X176937500Y-103184900D02*
X179419000Y-107538700D01*
X203045900Y-107639500D02*
X203270000Y-108014500D01*
X202474600Y-106881500D02*
X202778100Y-107260500D01*
X126897200Y-113088700D02*
X126168000Y-112607900D01*
X151405500Y-52914380D02*
X151872600Y-53359740D01*
X117716000Y-61548800D02*
X118450300Y-60594300D01*
X131713800Y-51096660D02*
X132908100Y-50724650D01*
X112630710Y-97764500D02*
X112086780Y-96587500D01*
X154301200Y-69865100D02*
X154015300Y-69908400D01*
X140889100Y-49461980D02*
X142363000Y-49420180D01*
X181125900Y-102048400D02*
X182060300Y-103398500D01*
X154188500Y-56459300D02*
X154485500Y-57039300D01*
X182265600Y-104014500D02*
X182218700Y-104111200D01*
X138067800Y-49693170D02*
X139457600Y-49553230D01*
X121797300Y-109319500D02*
X121797300Y-109319500D01*
X160198600Y-67130000D02*
X160017300Y-67296700D01*
X131293500Y-115564400D02*
X130557400Y-115200800D01*
X143738000Y-49489620D02*
X144411100Y-49575160D01*
X179121900Y-99277900D02*
X180144800Y-100673300D01*
X160245200Y-67061600D02*
X160198600Y-67130000D01*
X204310300Y-112389300D02*
X204435600Y-113517700D01*
X112632480Y-70300400D02*
X113198960Y-69105000D01*
X114386810Y-66797500D02*
X115009900Y-65686800D01*
X186848000Y-120571400D02*
X189958900Y-126029300D01*
X154485500Y-57039300D02*
X154754800Y-57635100D01*
X190163300Y-126484000D02*
X190185700Y-126639100D01*
X159811200Y-66605000D02*
X159998200Y-66725700D01*
X123254500Y-110492000D02*
X121797300Y-109319500D01*
X184205600Y-124165100D02*
X185056300Y-125365300D01*
X106582160Y-124869000D02*
X106332240Y-123964600D01*
X136718800Y-49881040D02*
X138067800Y-49693170D01*
X179053100Y-124315800D02*
X177858300Y-123640300D01*
X109688840Y-87987900D02*
X109551650Y-86723400D01*
X154015300Y-69908400D02*
X153910300Y-69908100D01*
X203454500Y-108412800D02*
X203622100Y-108879600D01*
X116318500Y-63555300D02*
X117005700Y-62536100D01*
X155388300Y-59509100D02*
X155538400Y-60159800D01*
X115653500Y-64605800D02*
X116318500Y-63555300D01*
X142363000Y-49420180D02*
X142363000Y-49420180D01*
X189974600Y-126848100D02*
X189822700Y-126841500D01*
X155802200Y-63366700D02*
X155774300Y-63861100D01*
X159998200Y-66725700D02*
X160138500Y-66833800D01*
X110712210Y-75269100D02*
X111113420Y-74011900D01*
X182218700Y-104111200D02*
X182137800Y-104187400D01*
X134139800Y-50397540D02*
X135409700Y-50116080D01*
X166551000Y-83850800D02*
X168866300Y-86533000D01*
X109434610Y-84180500D02*
X109455440Y-82904600D01*
X186360900Y-127326300D02*
X186717800Y-127918900D01*
X164309200Y-81300100D02*
X166551000Y-83850800D01*
X126168000Y-112607900D02*
X125439300Y-112107700D01*
X150409500Y-52092320D02*
X150917500Y-52491620D01*
X187185100Y-129292400D02*
X187091400Y-129298300D01*
X125286600Y-54229090D02*
X126274100Y-53603620D01*
X185266500Y-128155100D02*
X183998500Y-127324700D01*
X186773100Y-129164100D02*
X186543200Y-129017400D01*
X145724000Y-49843640D02*
X146362200Y-50024890D01*
X110754370Y-92968900D02*
X110411140Y-91737800D01*
X204136600Y-111170800D02*
X204310300Y-112389300D01*
X154754800Y-57635100D02*
X154995600Y-58245900D01*
X187091400Y-129298300D02*
X186954900Y-129256700D01*
X155794200Y-62178300D02*
X155811700Y-62870500D01*
X182137800Y-104187400D02*
X182025700Y-104244500D01*
X178949100Y-103826700D02*
X177946300Y-103524500D01*
X175853400Y-95013500D02*
X176971200Y-96443500D01*
X162181200Y-78916400D02*
X164309200Y-81300100D01*
X159358600Y-67723800D02*
X158913100Y-67969800D01*
X204435600Y-113517700D02*
X204517800Y-114452400D01*
X106866590Y-126338700D02*
X106789790Y-125841800D01*
X142363000Y-49420180D02*
X142363000Y-49420180D01*
X160206800Y-76735300D02*
X162181200Y-78916400D01*
X157976300Y-65717700D02*
X158691900Y-66032000D01*
X190159500Y-126749600D02*
X190129200Y-126789000D01*
X123405300Y-55598000D02*
X124330600Y-54894100D01*
X105017798Y-138766900D02*
X105351491Y-137220800D01*
X105623500Y-121998300D02*
X133513000Y-116536100D01*
X123982700Y-111049700D02*
X123254500Y-110492000D01*
X177946300Y-103524500D02*
X176937500Y-103184900D01*
X201430500Y-105782800D02*
X201792800Y-106138700D01*
X182741200Y-126525800D02*
X181496600Y-125758300D01*
X204577800Y-115324700D02*
X186848000Y-120571400D01*
X190088800Y-126281700D02*
X190163300Y-126484000D01*
X180266600Y-125021700D02*
X179053100Y-124315800D01*
X143055100Y-49437680D02*
X143738000Y-49489620D01*
X129434100Y-51972330D02*
X130556100Y-51512800D01*
X113866260Y-100066900D02*
X113223980Y-98924700D01*
X201792800Y-106138700D02*
X202143500Y-106506200D01*
X109466790Y-85453900D02*
X109434610Y-84180500D01*
X160259700Y-67004200D02*
X160245200Y-67061600D01*
X181718500Y-104306500D02*
X181528800Y-104313900D01*
X203270000Y-108014500D02*
X203454500Y-108412800D01*
X182247000Y-103755000D02*
X182276000Y-103896200D01*
X109529610Y-81627500D02*
X109657450Y-80350400D01*
X200703300Y-105121200D02*
X201430500Y-105782800D01*
X132031300Y-115908200D02*
X131293500Y-115564400D01*
X189822700Y-126841500D02*
X189635500Y-126801500D01*
X154648300Y-70747000D02*
X156879600Y-73122900D01*
X124710900Y-111588300D02*
X123982700Y-111049700D01*
X187255100Y-129150500D02*
X187238800Y-129242000D01*
X158411600Y-68228000D02*
X157304300Y-68751700D01*
X151872600Y-53359740D02*
X152317900Y-53826860D01*
X189416500Y-126730700D02*
X189168900Y-126631900D01*
X146987000Y-50236360D02*
X147597800Y-50477190D01*
X149336600Y-51367460D02*
X149882200Y-51717320D01*
X203622100Y-108879600D02*
X203773400Y-109401700D01*
X168866300Y-86533000D02*
X171215200Y-89311200D01*
X127627200Y-113550200D02*
X126897200Y-113088700D01*
X105848280Y-122554400D02*
X105623500Y-121998300D01*
X142363000Y-49420180D02*
X143055100Y-49437680D01*
X189635500Y-126801500D02*
X189416500Y-126730700D01*
X121643300Y-57119300D02*
X122509800Y-56340000D01*
X120728900Y-108398200D02*
X119706500Y-107447300D01*
X187273900Y-125605800D02*
X186566700Y-125164700D01*
X182276000Y-103896200D02*
X182265600Y-104014500D01*
X119209300Y-59673400D02*
X119993900Y-58786700D01*
X110366340Y-76532800D02*
X110712210Y-75269100D01*
X126274100Y-53603620D02*
X127293900Y-53018500D01*
X111570290Y-72762600D02*
X112083180Y-71522400D01*
X202143500Y-106506200D02*
X202474600Y-106881500D01*
X117005700Y-62536100D02*
X117716000Y-61548800D01*
X182025700Y-104244500D02*
X181885000Y-104283800D01*
X118450300Y-60594300D02*
X119209300Y-59673400D01*
X185866600Y-124711000D02*
X184595000Y-123853400D01*
X155811700Y-62870500D02*
X155802200Y-63366700D01*
X176683900Y-122994800D02*
X104696406Y-140201700D01*
X106876880Y-128527900D02*
X106935360Y-127799000D01*
X109878050Y-89246000D02*
X109688840Y-87987900D01*
X146362200Y-50024890D02*
X146987000Y-50236360D01*
X156164800Y-69237500D02*
X155623000Y-69448200D01*
X190088100Y-126818300D02*
X189974600Y-126848100D01*
X187961300Y-126012000D02*
X187273900Y-125605800D01*
X149882200Y-51717320D02*
X150409500Y-52092320D01*
X106919420Y-126834600D02*
X106866590Y-126338700D01*
X110411140Y-91737800D02*
X110118920Y-90496400D01*
X145073300Y-49693450D02*
X145724000Y-49843640D01*
X121797300Y-109319500D02*
X120728900Y-108398200D01*
X187238800Y-129242000D02*
X187185100Y-129292400D01*
X129822900Y-114817600D02*
X129089800Y-114414700D01*
X155656700Y-60822200D02*
X155742200Y-61495300D01*
X181528800Y-104313900D02*
X181090600Y-104287900D01*
X179419000Y-107538700D02*
X198935000Y-103714800D01*
X183998500Y-127324700D02*
X182741200Y-126525800D01*
X113223980Y-98924700D02*
X112630710Y-97764500D01*
X178062400Y-97866500D02*
X179121900Y-99277900D01*
X155121100Y-69627900D02*
X154675200Y-69769200D01*
X160017300Y-67296700D02*
X159732000Y-67497000D01*
X121797300Y-109319500D02*
X121797300Y-109319500D01*
X203909100Y-109966300D02*
X204029900Y-110560300D01*
X109657450Y-80350400D02*
X109839290Y-79074800D01*
X184595000Y-123853400D02*
X183319700Y-122955700D01*
X115296500Y-102291800D02*
X114557200Y-101189700D01*
X156424300Y-65108200D02*
X157207700Y-65404800D01*
X157207700Y-65404800D02*
X157976300Y-65717700D01*
X190185700Y-126639100D02*
X190159500Y-126749600D01*
X135409700Y-50116080D02*
X136718800Y-49881040D01*
X152317900Y-53826860D02*
X152740600Y-54314900D01*
X186717800Y-127918900D02*
X187000100Y-128437800D01*
X106693490Y-125349900D02*
X106582160Y-124869000D01*
X129089800Y-114414700D02*
X128358000Y-113992200D01*
X160227200Y-66927200D02*
X160259700Y-67004200D01*
X106653630Y-130272200D02*
X106781080Y-129359200D01*
X116918800Y-104428900D02*
X116083800Y-103372000D01*
X111592520Y-95395000D02*
X111148280Y-94188400D01*
X158691900Y-66032000D02*
X159316300Y-66332700D01*
X106789790Y-125841800D02*
X106693490Y-125349900D01*
X187186300Y-128857000D02*
X187236700Y-129021000D01*
X186543200Y-129017400D02*
X185266500Y-128155100D01*
X186954900Y-129256700D02*
X186773100Y-129164100D01*
X128347000Y-52474480D02*
X129434100Y-51972330D01*
X159732000Y-67497000D02*
X159358600Y-67723800D01*
X113198960Y-69105000D02*
X113783460Y-67937100D01*
X186566700Y-125164700D02*
X185866600Y-124711000D01*
X157304300Y-68751700D02*
X156164800Y-69237500D01*
X104696406Y-140201700D02*
X105017798Y-138766900D01*
X203773400Y-109401700D02*
X203909100Y-109966300D01*
X182060300Y-103398500D02*
X182176000Y-103589500D01*
X152740600Y-54314900D02*
X153139800Y-54823000D01*
X155538400Y-60159800D02*
X155656700Y-60822200D01*
X189168900Y-126631900D02*
X188601900Y-126361400D01*
X122509800Y-56340000D02*
X123405300Y-55598000D01*
X124330600Y-54894100D02*
X125286600Y-54229090D01*
X171215200Y-89311200D02*
X173557600Y-92149900D01*
X118730500Y-106467900D02*
X117801200Y-105461300D01*
X106075710Y-123176900D02*
X105848280Y-122554400D01*
X181090600Y-104287900D02*
X180592000Y-104215900D01*
X106781080Y-129359200D02*
X106876880Y-128527900D01*
X176971200Y-96443500D02*
X178062400Y-97866500D01*
X115009900Y-65686800D02*
X115653500Y-64605800D01*
X180144800Y-100673300D02*
X181125900Y-102048400D01*
X105740030Y-135342100D02*
X106138050Y-133295600D01*
X200025900Y-104552500D02*
X200703300Y-105121200D01*
X111148280Y-94188400D02*
X110754370Y-92968900D01*
X185056300Y-125365300D02*
X185950800Y-126685800D01*
X156879600Y-73122900D02*
X158426300Y-74792300D01*
X153139800Y-54823000D02*
X153514800Y-55350400D01*
X177858300Y-123640300D02*
X176683900Y-122994800D01*
X173557600Y-92149900D02*
X175853400Y-95013500D01*
X187000100Y-128437800D02*
X187186300Y-128857000D01*
X120805000Y-57935100D02*
X121643300Y-57119300D01*
X148773400Y-51043590D02*
X149336600Y-51367460D01*
X155742200Y-61495300D02*
X155794200Y-62178300D01*
X153833200Y-69891900D02*
X154648300Y-70747000D01*
X181885000Y-104283800D02*
X181718500Y-104306500D01*
X198935000Y-103714800D02*
X199462700Y-104107900D01*
X112083180Y-71522400D02*
X112632480Y-70300400D01*
X117801200Y-105461300D02*
X116918800Y-104428900D01*
X153864600Y-55896100D02*
X154188500Y-56459300D01*
X109839290Y-79074800D02*
X110075480Y-77801800D01*
X199462700Y-104107900D02*
X200025900Y-104552500D01*
X160138500Y-66833800D02*
X160227200Y-66927200D01*
X110118920Y-90496400D02*
X109878050Y-89246000D01*
X158426300Y-74792300D02*
X160206800Y-76735300D01*
X119706500Y-107447300D02*
X118730500Y-106467900D01*
X130557400Y-115200800D02*
X129822900Y-114817600D01*
X155207000Y-58870800D02*
X155388300Y-59509100D01*
X185950800Y-126685800D02*
X186360900Y-127326300D01*
X144411100Y-49575160D02*
X145073300Y-49693450D01*
X181496600Y-125758300D02*
X180266600Y-125021700D01*
X106943830Y-127323300D02*
X106919420Y-126834600D01*
X158913100Y-67969800D02*
X158411600Y-68228000D01*
X187236700Y-129021000D02*
X187255100Y-129150500D01*
X127293900Y-53018500D02*
X128347000Y-52474480D01*
X139457600Y-49553230D02*
X140889100Y-49461980D01*
X150917500Y-52491620D02*
X151405500Y-52914380D01*
X106332240Y-123964600D02*
X106075710Y-123176900D01*
M02*
