%TF.GenerationSoftware,KiCad,Pcbnew,8.0.5*%
%TF.CreationDate,2025-02-18T12:13:13+00:00*%
%TF.ProjectId,robin,726f6269-6e2e-46b6-9963-61645f706362,v2*%
%TF.SameCoordinates,Original*%
%TF.FileFunction,Legend,Top*%
%TF.FilePolarity,Positive*%
%FSLAX46Y46*%
G04 Gerber Fmt 4.6, Leading zero omitted, Abs format (unit mm)*
G04 Created by KiCad (PCBNEW 8.0.5) date 2025-02-18 12:13:13*
%MOMM*%
%LPD*%
G01*
G04 APERTURE LIST*
%ADD10C,0.500000*%
%ADD11C,0.125000*%
%ADD12C,0.100000*%
%ADD13C,0.120000*%
%ADD14C,0.010000*%
G04 APERTURE END LIST*
D10*
X139700000Y-125501400D02*
X139115800Y-128981200D01*
D11*
X146557276Y-61565809D02*
X146319181Y-61565809D01*
X146319181Y-61565809D02*
X146319181Y-61065809D01*
X146723943Y-61303904D02*
X146890610Y-61303904D01*
X146962038Y-61565809D02*
X146723943Y-61565809D01*
X146723943Y-61565809D02*
X146723943Y-61065809D01*
X146723943Y-61065809D02*
X146962038Y-61065809D01*
X147176324Y-61565809D02*
X147176324Y-61065809D01*
X147176324Y-61065809D02*
X147295372Y-61065809D01*
X147295372Y-61065809D02*
X147366800Y-61089619D01*
X147366800Y-61089619D02*
X147414419Y-61137238D01*
X147414419Y-61137238D02*
X147438229Y-61184857D01*
X147438229Y-61184857D02*
X147462038Y-61280095D01*
X147462038Y-61280095D02*
X147462038Y-61351523D01*
X147462038Y-61351523D02*
X147438229Y-61446761D01*
X147438229Y-61446761D02*
X147414419Y-61494380D01*
X147414419Y-61494380D02*
X147366800Y-61542000D01*
X147366800Y-61542000D02*
X147295372Y-61565809D01*
X147295372Y-61565809D02*
X147176324Y-61565809D01*
X147938229Y-61565809D02*
X147652515Y-61565809D01*
X147795372Y-61565809D02*
X147795372Y-61065809D01*
X147795372Y-61065809D02*
X147747753Y-61137238D01*
X147747753Y-61137238D02*
X147700134Y-61184857D01*
X147700134Y-61184857D02*
X147652515Y-61208666D01*
X196696876Y-108581209D02*
X196458781Y-108581209D01*
X196458781Y-108581209D02*
X196458781Y-108081209D01*
X196863543Y-108319304D02*
X197030210Y-108319304D01*
X197101638Y-108581209D02*
X196863543Y-108581209D01*
X196863543Y-108581209D02*
X196863543Y-108081209D01*
X196863543Y-108081209D02*
X197101638Y-108081209D01*
X197315924Y-108581209D02*
X197315924Y-108081209D01*
X197315924Y-108081209D02*
X197434972Y-108081209D01*
X197434972Y-108081209D02*
X197506400Y-108105019D01*
X197506400Y-108105019D02*
X197554019Y-108152638D01*
X197554019Y-108152638D02*
X197577829Y-108200257D01*
X197577829Y-108200257D02*
X197601638Y-108295495D01*
X197601638Y-108295495D02*
X197601638Y-108366923D01*
X197601638Y-108366923D02*
X197577829Y-108462161D01*
X197577829Y-108462161D02*
X197554019Y-108509780D01*
X197554019Y-108509780D02*
X197506400Y-108557400D01*
X197506400Y-108557400D02*
X197434972Y-108581209D01*
X197434972Y-108581209D02*
X197315924Y-108581209D01*
X197792115Y-108128828D02*
X197815924Y-108105019D01*
X197815924Y-108105019D02*
X197863543Y-108081209D01*
X197863543Y-108081209D02*
X197982591Y-108081209D01*
X197982591Y-108081209D02*
X198030210Y-108105019D01*
X198030210Y-108105019D02*
X198054019Y-108128828D01*
X198054019Y-108128828D02*
X198077829Y-108176447D01*
X198077829Y-108176447D02*
X198077829Y-108224066D01*
X198077829Y-108224066D02*
X198054019Y-108295495D01*
X198054019Y-108295495D02*
X197768305Y-108581209D01*
X197768305Y-108581209D02*
X198077829Y-108581209D01*
X127013686Y-124989609D02*
X126847020Y-124751514D01*
X126727972Y-124989609D02*
X126727972Y-124489609D01*
X126727972Y-124489609D02*
X126918448Y-124489609D01*
X126918448Y-124489609D02*
X126966067Y-124513419D01*
X126966067Y-124513419D02*
X126989877Y-124537228D01*
X126989877Y-124537228D02*
X127013686Y-124584847D01*
X127013686Y-124584847D02*
X127013686Y-124656276D01*
X127013686Y-124656276D02*
X126989877Y-124703895D01*
X126989877Y-124703895D02*
X126966067Y-124727704D01*
X126966067Y-124727704D02*
X126918448Y-124751514D01*
X126918448Y-124751514D02*
X126727972Y-124751514D01*
X127418448Y-124965800D02*
X127370829Y-124989609D01*
X127370829Y-124989609D02*
X127275591Y-124989609D01*
X127275591Y-124989609D02*
X127227972Y-124965800D01*
X127227972Y-124965800D02*
X127204163Y-124918180D01*
X127204163Y-124918180D02*
X127204163Y-124727704D01*
X127204163Y-124727704D02*
X127227972Y-124680085D01*
X127227972Y-124680085D02*
X127275591Y-124656276D01*
X127275591Y-124656276D02*
X127370829Y-124656276D01*
X127370829Y-124656276D02*
X127418448Y-124680085D01*
X127418448Y-124680085D02*
X127442258Y-124727704D01*
X127442258Y-124727704D02*
X127442258Y-124775323D01*
X127442258Y-124775323D02*
X127204163Y-124822942D01*
X127632734Y-124965800D02*
X127680353Y-124989609D01*
X127680353Y-124989609D02*
X127775591Y-124989609D01*
X127775591Y-124989609D02*
X127823210Y-124965800D01*
X127823210Y-124965800D02*
X127847019Y-124918180D01*
X127847019Y-124918180D02*
X127847019Y-124894371D01*
X127847019Y-124894371D02*
X127823210Y-124846752D01*
X127823210Y-124846752D02*
X127775591Y-124822942D01*
X127775591Y-124822942D02*
X127704162Y-124822942D01*
X127704162Y-124822942D02*
X127656543Y-124799133D01*
X127656543Y-124799133D02*
X127632734Y-124751514D01*
X127632734Y-124751514D02*
X127632734Y-124727704D01*
X127632734Y-124727704D02*
X127656543Y-124680085D01*
X127656543Y-124680085D02*
X127704162Y-124656276D01*
X127704162Y-124656276D02*
X127775591Y-124656276D01*
X127775591Y-124656276D02*
X127823210Y-124680085D01*
X128061305Y-124989609D02*
X128061305Y-124656276D01*
X128061305Y-124489609D02*
X128037496Y-124513419D01*
X128037496Y-124513419D02*
X128061305Y-124537228D01*
X128061305Y-124537228D02*
X128085115Y-124513419D01*
X128085115Y-124513419D02*
X128061305Y-124489609D01*
X128061305Y-124489609D02*
X128061305Y-124537228D01*
X128275591Y-124965800D02*
X128323210Y-124989609D01*
X128323210Y-124989609D02*
X128418448Y-124989609D01*
X128418448Y-124989609D02*
X128466067Y-124965800D01*
X128466067Y-124965800D02*
X128489876Y-124918180D01*
X128489876Y-124918180D02*
X128489876Y-124894371D01*
X128489876Y-124894371D02*
X128466067Y-124846752D01*
X128466067Y-124846752D02*
X128418448Y-124822942D01*
X128418448Y-124822942D02*
X128347019Y-124822942D01*
X128347019Y-124822942D02*
X128299400Y-124799133D01*
X128299400Y-124799133D02*
X128275591Y-124751514D01*
X128275591Y-124751514D02*
X128275591Y-124727704D01*
X128275591Y-124727704D02*
X128299400Y-124680085D01*
X128299400Y-124680085D02*
X128347019Y-124656276D01*
X128347019Y-124656276D02*
X128418448Y-124656276D01*
X128418448Y-124656276D02*
X128466067Y-124680085D01*
X128632734Y-124656276D02*
X128823210Y-124656276D01*
X128704162Y-124489609D02*
X128704162Y-124918180D01*
X128704162Y-124918180D02*
X128727972Y-124965800D01*
X128727972Y-124965800D02*
X128775591Y-124989609D01*
X128775591Y-124989609D02*
X128823210Y-124989609D01*
X129061305Y-124989609D02*
X129013686Y-124965800D01*
X129013686Y-124965800D02*
X128989876Y-124941990D01*
X128989876Y-124941990D02*
X128966067Y-124894371D01*
X128966067Y-124894371D02*
X128966067Y-124751514D01*
X128966067Y-124751514D02*
X128989876Y-124703895D01*
X128989876Y-124703895D02*
X129013686Y-124680085D01*
X129013686Y-124680085D02*
X129061305Y-124656276D01*
X129061305Y-124656276D02*
X129132733Y-124656276D01*
X129132733Y-124656276D02*
X129180352Y-124680085D01*
X129180352Y-124680085D02*
X129204162Y-124703895D01*
X129204162Y-124703895D02*
X129227971Y-124751514D01*
X129227971Y-124751514D02*
X129227971Y-124894371D01*
X129227971Y-124894371D02*
X129204162Y-124941990D01*
X129204162Y-124941990D02*
X129180352Y-124965800D01*
X129180352Y-124965800D02*
X129132733Y-124989609D01*
X129132733Y-124989609D02*
X129061305Y-124989609D01*
X129442257Y-124989609D02*
X129442257Y-124656276D01*
X129442257Y-124751514D02*
X129466067Y-124703895D01*
X129466067Y-124703895D02*
X129489876Y-124680085D01*
X129489876Y-124680085D02*
X129537495Y-124656276D01*
X129537495Y-124656276D02*
X129585114Y-124656276D01*
X130394638Y-124989609D02*
X130108924Y-124989609D01*
X130251781Y-124989609D02*
X130251781Y-124489609D01*
X130251781Y-124489609D02*
X130204162Y-124561038D01*
X130204162Y-124561038D02*
X130156543Y-124608657D01*
X130156543Y-124608657D02*
X130108924Y-124632466D01*
X133846286Y-128494809D02*
X133679620Y-128256714D01*
X133560572Y-128494809D02*
X133560572Y-127994809D01*
X133560572Y-127994809D02*
X133751048Y-127994809D01*
X133751048Y-127994809D02*
X133798667Y-128018619D01*
X133798667Y-128018619D02*
X133822477Y-128042428D01*
X133822477Y-128042428D02*
X133846286Y-128090047D01*
X133846286Y-128090047D02*
X133846286Y-128161476D01*
X133846286Y-128161476D02*
X133822477Y-128209095D01*
X133822477Y-128209095D02*
X133798667Y-128232904D01*
X133798667Y-128232904D02*
X133751048Y-128256714D01*
X133751048Y-128256714D02*
X133560572Y-128256714D01*
X134251048Y-128471000D02*
X134203429Y-128494809D01*
X134203429Y-128494809D02*
X134108191Y-128494809D01*
X134108191Y-128494809D02*
X134060572Y-128471000D01*
X134060572Y-128471000D02*
X134036763Y-128423380D01*
X134036763Y-128423380D02*
X134036763Y-128232904D01*
X134036763Y-128232904D02*
X134060572Y-128185285D01*
X134060572Y-128185285D02*
X134108191Y-128161476D01*
X134108191Y-128161476D02*
X134203429Y-128161476D01*
X134203429Y-128161476D02*
X134251048Y-128185285D01*
X134251048Y-128185285D02*
X134274858Y-128232904D01*
X134274858Y-128232904D02*
X134274858Y-128280523D01*
X134274858Y-128280523D02*
X134036763Y-128328142D01*
X134465334Y-128471000D02*
X134512953Y-128494809D01*
X134512953Y-128494809D02*
X134608191Y-128494809D01*
X134608191Y-128494809D02*
X134655810Y-128471000D01*
X134655810Y-128471000D02*
X134679619Y-128423380D01*
X134679619Y-128423380D02*
X134679619Y-128399571D01*
X134679619Y-128399571D02*
X134655810Y-128351952D01*
X134655810Y-128351952D02*
X134608191Y-128328142D01*
X134608191Y-128328142D02*
X134536762Y-128328142D01*
X134536762Y-128328142D02*
X134489143Y-128304333D01*
X134489143Y-128304333D02*
X134465334Y-128256714D01*
X134465334Y-128256714D02*
X134465334Y-128232904D01*
X134465334Y-128232904D02*
X134489143Y-128185285D01*
X134489143Y-128185285D02*
X134536762Y-128161476D01*
X134536762Y-128161476D02*
X134608191Y-128161476D01*
X134608191Y-128161476D02*
X134655810Y-128185285D01*
X134893905Y-128494809D02*
X134893905Y-128161476D01*
X134893905Y-127994809D02*
X134870096Y-128018619D01*
X134870096Y-128018619D02*
X134893905Y-128042428D01*
X134893905Y-128042428D02*
X134917715Y-128018619D01*
X134917715Y-128018619D02*
X134893905Y-127994809D01*
X134893905Y-127994809D02*
X134893905Y-128042428D01*
X135108191Y-128471000D02*
X135155810Y-128494809D01*
X135155810Y-128494809D02*
X135251048Y-128494809D01*
X135251048Y-128494809D02*
X135298667Y-128471000D01*
X135298667Y-128471000D02*
X135322476Y-128423380D01*
X135322476Y-128423380D02*
X135322476Y-128399571D01*
X135322476Y-128399571D02*
X135298667Y-128351952D01*
X135298667Y-128351952D02*
X135251048Y-128328142D01*
X135251048Y-128328142D02*
X135179619Y-128328142D01*
X135179619Y-128328142D02*
X135132000Y-128304333D01*
X135132000Y-128304333D02*
X135108191Y-128256714D01*
X135108191Y-128256714D02*
X135108191Y-128232904D01*
X135108191Y-128232904D02*
X135132000Y-128185285D01*
X135132000Y-128185285D02*
X135179619Y-128161476D01*
X135179619Y-128161476D02*
X135251048Y-128161476D01*
X135251048Y-128161476D02*
X135298667Y-128185285D01*
X135465334Y-128161476D02*
X135655810Y-128161476D01*
X135536762Y-127994809D02*
X135536762Y-128423380D01*
X135536762Y-128423380D02*
X135560572Y-128471000D01*
X135560572Y-128471000D02*
X135608191Y-128494809D01*
X135608191Y-128494809D02*
X135655810Y-128494809D01*
X135893905Y-128494809D02*
X135846286Y-128471000D01*
X135846286Y-128471000D02*
X135822476Y-128447190D01*
X135822476Y-128447190D02*
X135798667Y-128399571D01*
X135798667Y-128399571D02*
X135798667Y-128256714D01*
X135798667Y-128256714D02*
X135822476Y-128209095D01*
X135822476Y-128209095D02*
X135846286Y-128185285D01*
X135846286Y-128185285D02*
X135893905Y-128161476D01*
X135893905Y-128161476D02*
X135965333Y-128161476D01*
X135965333Y-128161476D02*
X136012952Y-128185285D01*
X136012952Y-128185285D02*
X136036762Y-128209095D01*
X136036762Y-128209095D02*
X136060571Y-128256714D01*
X136060571Y-128256714D02*
X136060571Y-128399571D01*
X136060571Y-128399571D02*
X136036762Y-128447190D01*
X136036762Y-128447190D02*
X136012952Y-128471000D01*
X136012952Y-128471000D02*
X135965333Y-128494809D01*
X135965333Y-128494809D02*
X135893905Y-128494809D01*
X136274857Y-128494809D02*
X136274857Y-128161476D01*
X136274857Y-128256714D02*
X136298667Y-128209095D01*
X136298667Y-128209095D02*
X136322476Y-128185285D01*
X136322476Y-128185285D02*
X136370095Y-128161476D01*
X136370095Y-128161476D02*
X136417714Y-128161476D01*
X136941524Y-128042428D02*
X136965333Y-128018619D01*
X136965333Y-128018619D02*
X137012952Y-127994809D01*
X137012952Y-127994809D02*
X137132000Y-127994809D01*
X137132000Y-127994809D02*
X137179619Y-128018619D01*
X137179619Y-128018619D02*
X137203428Y-128042428D01*
X137203428Y-128042428D02*
X137227238Y-128090047D01*
X137227238Y-128090047D02*
X137227238Y-128137666D01*
X137227238Y-128137666D02*
X137203428Y-128209095D01*
X137203428Y-128209095D02*
X136917714Y-128494809D01*
X136917714Y-128494809D02*
X137227238Y-128494809D01*
D12*
%TO.C,LED1*%
X144421212Y-61521230D02*
X144421212Y-64731230D01*
X144419494Y-61514019D02*
G75*
G02*
X144421212Y-64731230I2611718J-1607211D01*
G01*
%TO.C,LED2*%
X194637012Y-108917630D02*
X194637012Y-112127630D01*
X194635294Y-108910419D02*
G75*
G02*
X194637012Y-112127630I2611718J-1607211D01*
G01*
D13*
%TO.C,Resistor 1*%
X125279400Y-123344000D02*
X131819400Y-123344000D01*
X125279400Y-123674000D02*
X125279400Y-123344000D01*
X125279400Y-125754000D02*
X125279400Y-126084000D01*
X125279400Y-126084000D02*
X131819400Y-126084000D01*
X131819400Y-123344000D02*
X131819400Y-123674000D01*
X131819400Y-126084000D02*
X131819400Y-125754000D01*
%TO.C,Resistor 2*%
X132137400Y-126849200D02*
X138677400Y-126849200D01*
X132137400Y-127179200D02*
X132137400Y-126849200D01*
X132137400Y-129259200D02*
X132137400Y-129589200D01*
X132137400Y-129589200D02*
X138677400Y-129589200D01*
X138677400Y-126849200D02*
X138677400Y-127179200D01*
X138677400Y-129589200D02*
X138677400Y-129259200D01*
D14*
%TO.C,G\u002A\u002A\u002A*%
X179673597Y-107445886D02*
X179735773Y-107553363D01*
X179834654Y-107725363D01*
X179967658Y-107957353D01*
X180132201Y-108244802D01*
X180325702Y-108583176D01*
X180545577Y-108967944D01*
X180789242Y-109394572D01*
X181054116Y-109858528D01*
X181337616Y-110355280D01*
X181637158Y-110880295D01*
X181950160Y-111429040D01*
X182274038Y-111996983D01*
X182606211Y-112579592D01*
X182944094Y-113172333D01*
X183285106Y-113770675D01*
X183626663Y-114370085D01*
X183966183Y-114966030D01*
X184301082Y-115553977D01*
X184628777Y-116129395D01*
X184946687Y-116687751D01*
X185252227Y-117224512D01*
X185542816Y-117735145D01*
X185815870Y-118215119D01*
X186068806Y-118659900D01*
X186299041Y-119064957D01*
X186503994Y-119425755D01*
X186681079Y-119737764D01*
X186827716Y-119996450D01*
X186941321Y-120197282D01*
X187019310Y-120335725D01*
X187059102Y-120407249D01*
X187063823Y-120416293D01*
X187039197Y-120456888D01*
X186962432Y-120519341D01*
X186857532Y-120588480D01*
X186748498Y-120649132D01*
X186659332Y-120686127D01*
X186629238Y-120690998D01*
X186604766Y-120654667D01*
X186540599Y-120548434D01*
X186438871Y-120376010D01*
X186301714Y-120141106D01*
X186131264Y-119847432D01*
X185929653Y-119498698D01*
X185699014Y-119098617D01*
X185441482Y-118650897D01*
X185159190Y-118159251D01*
X184854272Y-117627389D01*
X184528860Y-117059021D01*
X184185089Y-116457858D01*
X183825092Y-115827611D01*
X183451002Y-115171991D01*
X183064954Y-114494708D01*
X182894492Y-114195429D01*
X182504092Y-113509635D01*
X182125155Y-112843547D01*
X181759794Y-112200895D01*
X181410119Y-111585411D01*
X181078244Y-111000824D01*
X180766279Y-110450868D01*
X180476336Y-109939272D01*
X180210527Y-109469768D01*
X179970965Y-109046087D01*
X179759760Y-108671959D01*
X179579025Y-108351117D01*
X179430872Y-108087291D01*
X179317411Y-107884212D01*
X179240756Y-107745612D01*
X179203018Y-107675221D01*
X179199282Y-107666848D01*
X179234013Y-107629860D01*
X179318019Y-107571616D01*
X179426555Y-107506334D01*
X179534877Y-107448233D01*
X179618239Y-107411530D01*
X179650710Y-107407465D01*
X179673597Y-107445886D01*
G36*
X179673597Y-107445886D02*
G01*
X179735773Y-107553363D01*
X179834654Y-107725363D01*
X179967658Y-107957353D01*
X180132201Y-108244802D01*
X180325702Y-108583176D01*
X180545577Y-108967944D01*
X180789242Y-109394572D01*
X181054116Y-109858528D01*
X181337616Y-110355280D01*
X181637158Y-110880295D01*
X181950160Y-111429040D01*
X182274038Y-111996983D01*
X182606211Y-112579592D01*
X182944094Y-113172333D01*
X183285106Y-113770675D01*
X183626663Y-114370085D01*
X183966183Y-114966030D01*
X184301082Y-115553977D01*
X184628777Y-116129395D01*
X184946687Y-116687751D01*
X185252227Y-117224512D01*
X185542816Y-117735145D01*
X185815870Y-118215119D01*
X186068806Y-118659900D01*
X186299041Y-119064957D01*
X186503994Y-119425755D01*
X186681079Y-119737764D01*
X186827716Y-119996450D01*
X186941321Y-120197282D01*
X187019310Y-120335725D01*
X187059102Y-120407249D01*
X187063823Y-120416293D01*
X187039197Y-120456888D01*
X186962432Y-120519341D01*
X186857532Y-120588480D01*
X186748498Y-120649132D01*
X186659332Y-120686127D01*
X186629238Y-120690998D01*
X186604766Y-120654667D01*
X186540599Y-120548434D01*
X186438871Y-120376010D01*
X186301714Y-120141106D01*
X186131264Y-119847432D01*
X185929653Y-119498698D01*
X185699014Y-119098617D01*
X185441482Y-118650897D01*
X185159190Y-118159251D01*
X184854272Y-117627389D01*
X184528860Y-117059021D01*
X184185089Y-116457858D01*
X183825092Y-115827611D01*
X183451002Y-115171991D01*
X183064954Y-114494708D01*
X182894492Y-114195429D01*
X182504092Y-113509635D01*
X182125155Y-112843547D01*
X181759794Y-112200895D01*
X181410119Y-111585411D01*
X181078244Y-111000824D01*
X180766279Y-110450868D01*
X180476336Y-109939272D01*
X180210527Y-109469768D01*
X179970965Y-109046087D01*
X179759760Y-108671959D01*
X179579025Y-108351117D01*
X179430872Y-108087291D01*
X179317411Y-107884212D01*
X179240756Y-107745612D01*
X179203018Y-107675221D01*
X179199282Y-107666848D01*
X179234013Y-107629860D01*
X179318019Y-107571616D01*
X179426555Y-107506334D01*
X179534877Y-107448233D01*
X179618239Y-107411530D01*
X179650710Y-107407465D01*
X179673597Y-107445886D01*
G37*
X142807920Y-56745815D02*
X143080750Y-56762097D01*
X143834491Y-56841172D01*
X144646577Y-56959825D01*
X145502393Y-57114678D01*
X146387325Y-57302350D01*
X147286758Y-57519463D01*
X148186079Y-57762636D01*
X149070671Y-58028492D01*
X149925921Y-58313650D01*
X150174229Y-58402325D01*
X151104702Y-58758749D01*
X151954506Y-59123224D01*
X152723196Y-59495454D01*
X153410325Y-59875139D01*
X154015449Y-60261983D01*
X154538123Y-60655687D01*
X154977902Y-61055954D01*
X155334339Y-61462486D01*
X155606989Y-61874985D01*
X155725724Y-62114926D01*
X155774799Y-62230175D01*
X155809960Y-62326405D01*
X155833466Y-62421012D01*
X155847580Y-62531398D01*
X155854562Y-62674960D01*
X155856675Y-62869097D01*
X155856221Y-63119000D01*
X155849227Y-63526373D01*
X155829613Y-63909151D01*
X155794992Y-64293321D01*
X155742979Y-64704867D01*
X155671187Y-65169777D01*
X155663777Y-65214500D01*
X155553578Y-65797380D01*
X155418071Y-66364292D01*
X155252944Y-66926667D01*
X155053889Y-67495938D01*
X154816596Y-68083535D01*
X154536754Y-68700890D01*
X154210055Y-69359435D01*
X153834709Y-70065984D01*
X153641021Y-70486096D01*
X153519510Y-70910214D01*
X153469829Y-71347108D01*
X153491628Y-71805549D01*
X153584560Y-72294306D01*
X153727543Y-72763984D01*
X153780289Y-72900494D01*
X153863558Y-73099034D01*
X153971058Y-73345391D01*
X154096497Y-73625350D01*
X154233585Y-73924698D01*
X154376030Y-74229220D01*
X154377109Y-74231500D01*
X154608054Y-74726812D01*
X154800892Y-75158293D01*
X154958710Y-75536082D01*
X155084596Y-75870318D01*
X155181636Y-76171139D01*
X155252920Y-76448684D01*
X155301534Y-76713091D01*
X155330567Y-76974499D01*
X155343105Y-77243046D01*
X155344033Y-77406500D01*
X155342520Y-77562416D01*
X155338791Y-77699169D01*
X155330619Y-77826367D01*
X155315777Y-77953617D01*
X155292038Y-78090529D01*
X155257175Y-78246709D01*
X155208962Y-78431766D01*
X155145171Y-78655309D01*
X155063576Y-78926944D01*
X154961949Y-79256280D01*
X154838064Y-79652926D01*
X154781580Y-79833219D01*
X154077230Y-82008578D01*
X153353012Y-84102460D01*
X152608513Y-86115787D01*
X151843321Y-88049483D01*
X151057024Y-89904472D01*
X150249209Y-91681676D01*
X149419464Y-93382018D01*
X148567376Y-95006423D01*
X147692534Y-96555813D01*
X146794524Y-98031112D01*
X146335892Y-98742500D01*
X145417939Y-100086455D01*
X144484235Y-101349435D01*
X143535050Y-102531237D01*
X142570652Y-103631658D01*
X141591307Y-104650495D01*
X140597286Y-105587545D01*
X139588855Y-106442604D01*
X138566283Y-107215471D01*
X137529838Y-107905940D01*
X136479789Y-108513810D01*
X135416403Y-109038878D01*
X134339948Y-109480939D01*
X133250694Y-109839792D01*
X132148907Y-110115233D01*
X131072467Y-110301976D01*
X130901362Y-110319855D01*
X130665649Y-110336764D01*
X130381159Y-110352257D01*
X130063724Y-110365894D01*
X129729178Y-110377230D01*
X129393350Y-110385822D01*
X129072075Y-110391227D01*
X128781185Y-110393002D01*
X128536510Y-110390704D01*
X128353884Y-110383889D01*
X128299634Y-110379588D01*
X127593469Y-110298652D01*
X126950176Y-110203176D01*
X126348560Y-110088704D01*
X125767429Y-109950778D01*
X125185590Y-109784940D01*
X124662807Y-109614653D01*
X123637225Y-109221181D01*
X122624623Y-108747530D01*
X121623372Y-108192759D01*
X120631844Y-107555925D01*
X119648410Y-106836084D01*
X119092134Y-106389335D01*
X118851733Y-106181393D01*
X118568099Y-105921769D01*
X118253445Y-105622767D01*
X117919985Y-105296689D01*
X117579933Y-104955838D01*
X117245504Y-104612517D01*
X116928911Y-104279029D01*
X116642368Y-103967677D01*
X116398090Y-103690763D01*
X116312678Y-103589667D01*
X115373080Y-102395488D01*
X114498297Y-101151070D01*
X113687408Y-99854733D01*
X112939492Y-98504796D01*
X112253628Y-97099581D01*
X111628895Y-95637407D01*
X111064370Y-94116594D01*
X110978896Y-93865703D01*
X110880508Y-93569154D01*
X110799508Y-93311291D01*
X110733500Y-93078161D01*
X110680087Y-92855809D01*
X110636873Y-92630284D01*
X110601462Y-92387630D01*
X110571457Y-92113894D01*
X110544462Y-91795124D01*
X110518080Y-91417366D01*
X110494808Y-91047015D01*
X110459097Y-90029200D01*
X110480328Y-89073071D01*
X110558675Y-88177499D01*
X110694309Y-87341356D01*
X110887404Y-86563515D01*
X111138131Y-85842848D01*
X111368264Y-85330816D01*
X111521970Y-85036508D01*
X111689501Y-84745652D01*
X111876722Y-84450358D01*
X112089499Y-84142738D01*
X112333699Y-83814905D01*
X112615188Y-83458969D01*
X112939831Y-83067044D01*
X113313496Y-82631241D01*
X113719581Y-82169000D01*
X114332787Y-81467110D01*
X114890549Y-80805199D01*
X115400088Y-80172061D01*
X115868624Y-79556492D01*
X116303377Y-78947287D01*
X116711565Y-78333242D01*
X117100410Y-77703150D01*
X117477131Y-77045808D01*
X117848948Y-76350011D01*
X118223081Y-75604553D01*
X118606750Y-74798231D01*
X118943267Y-74062167D01*
X119644752Y-72556617D01*
X120357231Y-71133002D01*
X121082410Y-69789105D01*
X121821994Y-68522704D01*
X122577691Y-67331580D01*
X123351205Y-66213514D01*
X124144244Y-65166286D01*
X124958512Y-64187677D01*
X125795716Y-63275466D01*
X125952134Y-63121555D01*
X144753137Y-63121555D01*
X144787018Y-63405006D01*
X144809547Y-63521167D01*
X144937574Y-63938037D01*
X145134736Y-64316535D01*
X145392659Y-64649766D01*
X145702971Y-64930840D01*
X146057299Y-65152863D01*
X146447271Y-65308945D01*
X146864515Y-65392192D01*
X147097323Y-65404434D01*
X147305955Y-65397243D01*
X147516393Y-65377665D01*
X147690074Y-65349556D01*
X147722032Y-65341962D01*
X148110399Y-65202658D01*
X148465166Y-64993204D01*
X148793655Y-64711189D01*
X149080713Y-64368496D01*
X149293845Y-63994650D01*
X149433018Y-63598972D01*
X149498200Y-63190781D01*
X149489356Y-62779396D01*
X149406454Y-62374138D01*
X149249461Y-61984326D01*
X149018344Y-61619280D01*
X148805475Y-61376464D01*
X148481027Y-61106275D01*
X148111141Y-60893931D01*
X147713279Y-60746808D01*
X147304903Y-60672281D01*
X147119609Y-60664402D01*
X146702027Y-60706885D01*
X146301234Y-60825917D01*
X145926729Y-61013693D01*
X145588011Y-61262410D01*
X145294580Y-61564264D01*
X145055933Y-61911451D01*
X144881570Y-62296167D01*
X144806822Y-62564466D01*
X144759778Y-62855301D01*
X144753137Y-63121555D01*
X125952134Y-63121555D01*
X126657562Y-62427435D01*
X127545756Y-61641363D01*
X128462003Y-60915032D01*
X129408010Y-60246221D01*
X129717800Y-60043664D01*
X130792916Y-59404159D01*
X131915735Y-58834194D01*
X133086476Y-58333692D01*
X134305356Y-57902571D01*
X135572593Y-57540753D01*
X136888405Y-57248158D01*
X137803467Y-57089853D01*
X138357854Y-57011373D01*
X138943178Y-56941060D01*
X139546359Y-56879727D01*
X140154316Y-56828188D01*
X140753968Y-56787253D01*
X141332235Y-56757736D01*
X141876036Y-56740450D01*
X142372292Y-56736205D01*
X142807920Y-56745815D01*
G36*
X142807920Y-56745815D02*
G01*
X143080750Y-56762097D01*
X143834491Y-56841172D01*
X144646577Y-56959825D01*
X145502393Y-57114678D01*
X146387325Y-57302350D01*
X147286758Y-57519463D01*
X148186079Y-57762636D01*
X149070671Y-58028492D01*
X149925921Y-58313650D01*
X150174229Y-58402325D01*
X151104702Y-58758749D01*
X151954506Y-59123224D01*
X152723196Y-59495454D01*
X153410325Y-59875139D01*
X154015449Y-60261983D01*
X154538123Y-60655687D01*
X154977902Y-61055954D01*
X155334339Y-61462486D01*
X155606989Y-61874985D01*
X155725724Y-62114926D01*
X155774799Y-62230175D01*
X155809960Y-62326405D01*
X155833466Y-62421012D01*
X155847580Y-62531398D01*
X155854562Y-62674960D01*
X155856675Y-62869097D01*
X155856221Y-63119000D01*
X155849227Y-63526373D01*
X155829613Y-63909151D01*
X155794992Y-64293321D01*
X155742979Y-64704867D01*
X155671187Y-65169777D01*
X155663777Y-65214500D01*
X155553578Y-65797380D01*
X155418071Y-66364292D01*
X155252944Y-66926667D01*
X155053889Y-67495938D01*
X154816596Y-68083535D01*
X154536754Y-68700890D01*
X154210055Y-69359435D01*
X153834709Y-70065984D01*
X153641021Y-70486096D01*
X153519510Y-70910214D01*
X153469829Y-71347108D01*
X153491628Y-71805549D01*
X153584560Y-72294306D01*
X153727543Y-72763984D01*
X153780289Y-72900494D01*
X153863558Y-73099034D01*
X153971058Y-73345391D01*
X154096497Y-73625350D01*
X154233585Y-73924698D01*
X154376030Y-74229220D01*
X154377109Y-74231500D01*
X154608054Y-74726812D01*
X154800892Y-75158293D01*
X154958710Y-75536082D01*
X155084596Y-75870318D01*
X155181636Y-76171139D01*
X155252920Y-76448684D01*
X155301534Y-76713091D01*
X155330567Y-76974499D01*
X155343105Y-77243046D01*
X155344033Y-77406500D01*
X155342520Y-77562416D01*
X155338791Y-77699169D01*
X155330619Y-77826367D01*
X155315777Y-77953617D01*
X155292038Y-78090529D01*
X155257175Y-78246709D01*
X155208962Y-78431766D01*
X155145171Y-78655309D01*
X155063576Y-78926944D01*
X154961949Y-79256280D01*
X154838064Y-79652926D01*
X154781580Y-79833219D01*
X154077230Y-82008578D01*
X153353012Y-84102460D01*
X152608513Y-86115787D01*
X151843321Y-88049483D01*
X151057024Y-89904472D01*
X150249209Y-91681676D01*
X149419464Y-93382018D01*
X148567376Y-95006423D01*
X147692534Y-96555813D01*
X146794524Y-98031112D01*
X146335892Y-98742500D01*
X145417939Y-100086455D01*
X144484235Y-101349435D01*
X143535050Y-102531237D01*
X142570652Y-103631658D01*
X141591307Y-104650495D01*
X140597286Y-105587545D01*
X139588855Y-106442604D01*
X138566283Y-107215471D01*
X137529838Y-107905940D01*
X136479789Y-108513810D01*
X135416403Y-109038878D01*
X134339948Y-109480939D01*
X133250694Y-109839792D01*
X132148907Y-110115233D01*
X131072467Y-110301976D01*
X130901362Y-110319855D01*
X130665649Y-110336764D01*
X130381159Y-110352257D01*
X130063724Y-110365894D01*
X129729178Y-110377230D01*
X129393350Y-110385822D01*
X129072075Y-110391227D01*
X128781185Y-110393002D01*
X128536510Y-110390704D01*
X128353884Y-110383889D01*
X128299634Y-110379588D01*
X127593469Y-110298652D01*
X126950176Y-110203176D01*
X126348560Y-110088704D01*
X125767429Y-109950778D01*
X125185590Y-109784940D01*
X124662807Y-109614653D01*
X123637225Y-109221181D01*
X122624623Y-108747530D01*
X121623372Y-108192759D01*
X120631844Y-107555925D01*
X119648410Y-106836084D01*
X119092134Y-106389335D01*
X118851733Y-106181393D01*
X118568099Y-105921769D01*
X118253445Y-105622767D01*
X117919985Y-105296689D01*
X117579933Y-104955838D01*
X117245504Y-104612517D01*
X116928911Y-104279029D01*
X116642368Y-103967677D01*
X116398090Y-103690763D01*
X116312678Y-103589667D01*
X115373080Y-102395488D01*
X114498297Y-101151070D01*
X113687408Y-99854733D01*
X112939492Y-98504796D01*
X112253628Y-97099581D01*
X111628895Y-95637407D01*
X111064370Y-94116594D01*
X110978896Y-93865703D01*
X110880508Y-93569154D01*
X110799508Y-93311291D01*
X110733500Y-93078161D01*
X110680087Y-92855809D01*
X110636873Y-92630284D01*
X110601462Y-92387630D01*
X110571457Y-92113894D01*
X110544462Y-91795124D01*
X110518080Y-91417366D01*
X110494808Y-91047015D01*
X110459097Y-90029200D01*
X110480328Y-89073071D01*
X110558675Y-88177499D01*
X110694309Y-87341356D01*
X110887404Y-86563515D01*
X111138131Y-85842848D01*
X111368264Y-85330816D01*
X111521970Y-85036508D01*
X111689501Y-84745652D01*
X111876722Y-84450358D01*
X112089499Y-84142738D01*
X112333699Y-83814905D01*
X112615188Y-83458969D01*
X112939831Y-83067044D01*
X113313496Y-82631241D01*
X113719581Y-82169000D01*
X114332787Y-81467110D01*
X114890549Y-80805199D01*
X115400088Y-80172061D01*
X115868624Y-79556492D01*
X116303377Y-78947287D01*
X116711565Y-78333242D01*
X117100410Y-77703150D01*
X117477131Y-77045808D01*
X117848948Y-76350011D01*
X118223081Y-75604553D01*
X118606750Y-74798231D01*
X118943267Y-74062167D01*
X119644752Y-72556617D01*
X120357231Y-71133002D01*
X121082410Y-69789105D01*
X121821994Y-68522704D01*
X122577691Y-67331580D01*
X123351205Y-66213514D01*
X124144244Y-65166286D01*
X124958512Y-64187677D01*
X125795716Y-63275466D01*
X125952134Y-63121555D01*
X144753137Y-63121555D01*
X144787018Y-63405006D01*
X144809547Y-63521167D01*
X144937574Y-63938037D01*
X145134736Y-64316535D01*
X145392659Y-64649766D01*
X145702971Y-64930840D01*
X146057299Y-65152863D01*
X146447271Y-65308945D01*
X146864515Y-65392192D01*
X147097323Y-65404434D01*
X147305955Y-65397243D01*
X147516393Y-65377665D01*
X147690074Y-65349556D01*
X147722032Y-65341962D01*
X148110399Y-65202658D01*
X148465166Y-64993204D01*
X148793655Y-64711189D01*
X149080713Y-64368496D01*
X149293845Y-63994650D01*
X149433018Y-63598972D01*
X149498200Y-63190781D01*
X149489356Y-62779396D01*
X149406454Y-62374138D01*
X149249461Y-61984326D01*
X149018344Y-61619280D01*
X148805475Y-61376464D01*
X148481027Y-61106275D01*
X148111141Y-60893931D01*
X147713279Y-60746808D01*
X147304903Y-60672281D01*
X147119609Y-60664402D01*
X146702027Y-60706885D01*
X146301234Y-60825917D01*
X145926729Y-61013693D01*
X145588011Y-61262410D01*
X145294580Y-61564264D01*
X145055933Y-61911451D01*
X144881570Y-62296167D01*
X144806822Y-62564466D01*
X144759778Y-62855301D01*
X144753137Y-63121555D01*
X125952134Y-63121555D01*
X126657562Y-62427435D01*
X127545756Y-61641363D01*
X128462003Y-60915032D01*
X129408010Y-60246221D01*
X129717800Y-60043664D01*
X130792916Y-59404159D01*
X131915735Y-58834194D01*
X133086476Y-58333692D01*
X134305356Y-57902571D01*
X135572593Y-57540753D01*
X136888405Y-57248158D01*
X137803467Y-57089853D01*
X138357854Y-57011373D01*
X138943178Y-56941060D01*
X139546359Y-56879727D01*
X140154316Y-56828188D01*
X140753968Y-56787253D01*
X141332235Y-56757736D01*
X141876036Y-56740450D01*
X142372292Y-56736205D01*
X142807920Y-56745815D01*
G37*
X155522674Y-81525761D02*
X155546279Y-81592210D01*
X155569664Y-81711575D01*
X155594603Y-81893482D01*
X155622869Y-82147556D01*
X155631602Y-82232748D01*
X155759254Y-83302710D01*
X155923453Y-84359032D01*
X156121652Y-85391063D01*
X156351305Y-86388153D01*
X156609865Y-87339651D01*
X156894785Y-88234905D01*
X157203517Y-89063264D01*
X157346341Y-89404020D01*
X157722872Y-90207065D01*
X158166147Y-91041594D01*
X158669415Y-91897049D01*
X159225928Y-92762876D01*
X159828935Y-93628516D01*
X160471689Y-94483413D01*
X161060178Y-95212875D01*
X161324284Y-95526729D01*
X161587942Y-95833796D01*
X161855985Y-96139069D01*
X162133240Y-96447541D01*
X162424539Y-96764205D01*
X162734712Y-97094054D01*
X163068589Y-97442081D01*
X163431001Y-97813278D01*
X163826777Y-98212640D01*
X164260749Y-98645158D01*
X164737745Y-99115825D01*
X165262597Y-99629636D01*
X165840134Y-100191582D01*
X166420800Y-100754069D01*
X167132448Y-101443833D01*
X167786310Y-102081118D01*
X168386957Y-102670715D01*
X168938965Y-103217412D01*
X169446905Y-103726000D01*
X169915352Y-104201267D01*
X170348878Y-104648005D01*
X170752058Y-105071002D01*
X171129464Y-105475048D01*
X171485670Y-105864932D01*
X171825248Y-106245445D01*
X172152773Y-106621376D01*
X172472818Y-106997514D01*
X172789955Y-107378650D01*
X173049207Y-107696000D01*
X173331382Y-108049074D01*
X173623125Y-108423372D01*
X173918231Y-108810252D01*
X174210492Y-109201072D01*
X174493702Y-109587188D01*
X174761655Y-109959958D01*
X175008143Y-110310739D01*
X175226961Y-110630888D01*
X175411900Y-110911763D01*
X175556756Y-111144720D01*
X175655321Y-111321116D01*
X175661710Y-111333924D01*
X175764896Y-111615978D01*
X175816014Y-111921399D01*
X175812501Y-112221244D01*
X175761396Y-112459831D01*
X175616894Y-112754928D01*
X175389710Y-113036335D01*
X175080743Y-113303850D01*
X174690897Y-113557269D01*
X174221074Y-113796387D01*
X173672175Y-114021002D01*
X173045103Y-114230909D01*
X172340760Y-114425906D01*
X171560047Y-114605788D01*
X170703868Y-114770352D01*
X169773124Y-114919395D01*
X168768717Y-115052712D01*
X167691549Y-115170099D01*
X166542522Y-115271355D01*
X165322539Y-115356274D01*
X164032502Y-115424653D01*
X162673312Y-115476288D01*
X162356800Y-115485613D01*
X161989950Y-115496018D01*
X161646897Y-115506044D01*
X161337511Y-115515382D01*
X161071667Y-115523720D01*
X160859236Y-115530748D01*
X160710091Y-115536155D01*
X160634105Y-115539630D01*
X160629338Y-115539991D01*
X160636642Y-115555591D01*
X160713952Y-115593942D01*
X160851015Y-115650830D01*
X161037580Y-115722040D01*
X161263396Y-115803358D01*
X161306672Y-115818482D01*
X162712789Y-116323329D01*
X164171894Y-116877277D01*
X165671842Y-117475333D01*
X167200485Y-118112504D01*
X168745680Y-118783798D01*
X170295279Y-119484222D01*
X170844634Y-119739160D01*
X171217718Y-119915423D01*
X171637272Y-120117015D01*
X172093449Y-120338973D01*
X172576405Y-120576332D01*
X173076295Y-120824129D01*
X173583273Y-121077400D01*
X174087494Y-121331180D01*
X174579113Y-121580505D01*
X175048285Y-121820413D01*
X175485165Y-122045937D01*
X175879907Y-122252115D01*
X176222666Y-122433983D01*
X176503597Y-122586577D01*
X176612523Y-122647362D01*
X176834746Y-122772850D01*
X176721973Y-122970842D01*
X176653284Y-123088401D01*
X176599207Y-123175562D01*
X176579842Y-123203041D01*
X176533328Y-123197646D01*
X176429312Y-123157073D01*
X176283748Y-123088247D01*
X176131726Y-123008591D01*
X175310185Y-122567819D01*
X174422054Y-122105762D01*
X173480736Y-121628883D01*
X172499630Y-121143643D01*
X171492138Y-120656508D01*
X170471662Y-120173938D01*
X169451601Y-119702397D01*
X168445358Y-119248348D01*
X167466333Y-118818255D01*
X167244385Y-118722528D01*
X166540856Y-118424076D01*
X165811631Y-118121977D01*
X165066857Y-117820088D01*
X164316679Y-117522268D01*
X163571243Y-117232374D01*
X162840696Y-116954263D01*
X162135183Y-116691794D01*
X161464849Y-116448822D01*
X160839842Y-116229207D01*
X160270307Y-116036806D01*
X159766390Y-115875476D01*
X159713374Y-115859172D01*
X159511293Y-115794731D01*
X159378558Y-115744805D01*
X159302426Y-115703190D01*
X159270150Y-115663684D01*
X159266467Y-115641663D01*
X159245086Y-115583550D01*
X159213550Y-115581966D01*
X159156257Y-115604840D01*
X159036676Y-115652655D01*
X158871121Y-115718885D01*
X158675905Y-115797004D01*
X158631467Y-115814790D01*
X157123892Y-116386270D01*
X155598717Y-116901910D01*
X154065944Y-117359171D01*
X152535572Y-117755514D01*
X151017603Y-118088400D01*
X149522036Y-118355288D01*
X148058873Y-118553641D01*
X147688300Y-118593339D01*
X147117288Y-118642997D01*
X146497216Y-118682449D01*
X145844859Y-118711493D01*
X145176991Y-118729926D01*
X144510385Y-118737546D01*
X143861816Y-118734151D01*
X143248057Y-118719539D01*
X142685882Y-118693508D01*
X142227300Y-118659173D01*
X142001833Y-118639492D01*
X141782214Y-118622377D01*
X141596198Y-118609878D01*
X141487709Y-118604498D01*
X141256119Y-118596834D01*
X140595417Y-122205515D01*
X140496257Y-122746159D01*
X140401204Y-123262558D01*
X140311385Y-123748693D01*
X140227929Y-124198545D01*
X140151962Y-124606096D01*
X140084612Y-124965326D01*
X140027008Y-125270218D01*
X139980276Y-125514751D01*
X139945546Y-125692907D01*
X139923943Y-125798668D01*
X139916841Y-125827134D01*
X139868776Y-125827982D01*
X139762723Y-125816859D01*
X139655550Y-125801397D01*
X139519910Y-125771794D01*
X139432975Y-125736687D01*
X139412134Y-125712101D01*
X139419579Y-125663711D01*
X139441178Y-125538173D01*
X139475827Y-125341616D01*
X139522422Y-125080172D01*
X139579858Y-124759972D01*
X139647032Y-124387148D01*
X139722840Y-123967831D01*
X139806176Y-123508151D01*
X139895938Y-123014240D01*
X139991020Y-122492229D01*
X140064968Y-122087019D01*
X140163094Y-121549225D01*
X140256583Y-121035828D01*
X140344346Y-120552861D01*
X140425297Y-120106354D01*
X140498347Y-119702339D01*
X140562411Y-119346847D01*
X140616399Y-119045909D01*
X140659225Y-118805558D01*
X140689802Y-118631823D01*
X140707041Y-118530738D01*
X140710551Y-118506208D01*
X140668462Y-118498034D01*
X140557496Y-118479803D01*
X140392528Y-118453873D01*
X140188433Y-118422606D01*
X140089467Y-118407675D01*
X139329161Y-118279992D01*
X138522342Y-118119810D01*
X137697632Y-117933658D01*
X136883652Y-117728068D01*
X136109022Y-117509571D01*
X135971650Y-117468053D01*
X135740835Y-117398669D01*
X135539527Y-117340386D01*
X135381024Y-117296872D01*
X135278625Y-117271795D01*
X135245582Y-117267761D01*
X135229626Y-117309181D01*
X135187548Y-117425167D01*
X135121232Y-117610390D01*
X135032563Y-117859515D01*
X134923428Y-118167213D01*
X134795712Y-118528149D01*
X134651300Y-118936993D01*
X134492078Y-119388413D01*
X134319931Y-119877075D01*
X134136744Y-120397648D01*
X133944404Y-120944800D01*
X133802613Y-121348500D01*
X133605016Y-121911150D01*
X133415366Y-122450902D01*
X133235536Y-122962439D01*
X133067401Y-123440440D01*
X132912834Y-123879588D01*
X132773710Y-124274565D01*
X132651902Y-124620051D01*
X132549284Y-124910729D01*
X132467730Y-125141280D01*
X132409115Y-125306385D01*
X132375311Y-125400726D01*
X132367393Y-125421844D01*
X132321545Y-125419228D01*
X132226062Y-125391484D01*
X132108190Y-125348950D01*
X131995177Y-125301961D01*
X131914268Y-125260856D01*
X131891374Y-125241250D01*
X131902655Y-125195699D01*
X131940280Y-125075738D01*
X132002387Y-124886790D01*
X132087118Y-124634277D01*
X132192611Y-124323621D01*
X132317007Y-123960244D01*
X132458447Y-123549569D01*
X132615069Y-123097017D01*
X132785015Y-122608011D01*
X132966424Y-122087972D01*
X133157437Y-121542324D01*
X133278470Y-121197529D01*
X133474961Y-120638193D01*
X133663643Y-120100790D01*
X133842602Y-119590781D01*
X134009926Y-119113633D01*
X134163702Y-118674808D01*
X134302018Y-118279773D01*
X134422960Y-117933990D01*
X134524615Y-117642924D01*
X134605073Y-117412040D01*
X134662418Y-117246802D01*
X134694740Y-117152674D01*
X134701334Y-117132572D01*
X134688586Y-117085875D01*
X134617034Y-117036773D01*
X134475438Y-116977917D01*
X134451704Y-116969310D01*
X133189668Y-116483661D01*
X131904174Y-115924343D01*
X130603960Y-115295997D01*
X129297761Y-114603261D01*
X127994314Y-113850775D01*
X126702356Y-113043178D01*
X125430623Y-112185110D01*
X125394441Y-112159736D01*
X125092481Y-111945366D01*
X124770962Y-111712827D01*
X124436754Y-111467439D01*
X124096730Y-111214521D01*
X123757762Y-110959393D01*
X123426722Y-110707375D01*
X123110481Y-110463785D01*
X122815912Y-110233943D01*
X122549886Y-110023170D01*
X122319275Y-109836783D01*
X122130951Y-109680103D01*
X121991787Y-109558449D01*
X121908653Y-109477140D01*
X121887107Y-109444749D01*
X121896637Y-109398050D01*
X121934204Y-109384316D01*
X122009683Y-109406915D01*
X122132947Y-109469214D01*
X122313869Y-109574583D01*
X122373742Y-109610767D01*
X123377119Y-110175031D01*
X124397083Y-110659868D01*
X125430847Y-111064746D01*
X126475621Y-111389133D01*
X127528618Y-111632498D01*
X128587048Y-111794308D01*
X129648124Y-111874032D01*
X130709056Y-111871138D01*
X131767056Y-111785094D01*
X132819336Y-111615368D01*
X132850467Y-111609043D01*
X133937041Y-111343963D01*
X135012623Y-110995449D01*
X136076678Y-110564082D01*
X137128665Y-110050448D01*
X138168049Y-109455131D01*
X139194290Y-108778713D01*
X140206852Y-108021779D01*
X141205195Y-107184912D01*
X142188783Y-106268697D01*
X143157078Y-105273717D01*
X144109542Y-104200555D01*
X145045637Y-103049796D01*
X145964825Y-101822023D01*
X146866568Y-100517821D01*
X147750330Y-99137772D01*
X148615571Y-97682461D01*
X149461754Y-96152471D01*
X150288341Y-94548386D01*
X151094795Y-92870790D01*
X151880577Y-91120267D01*
X152016554Y-90805000D01*
X152521187Y-89603537D01*
X153004874Y-88400618D01*
X153473964Y-87179366D01*
X153934808Y-85922903D01*
X154393755Y-84614353D01*
X154807779Y-83386190D01*
X154963886Y-82917183D01*
X155096366Y-82524295D01*
X155206929Y-82202860D01*
X155297281Y-81948209D01*
X155369131Y-81755674D01*
X155424187Y-81620589D01*
X155464158Y-81538284D01*
X155490751Y-81504094D01*
X155497076Y-81502604D01*
X155522674Y-81525761D01*
G36*
X155522674Y-81525761D02*
G01*
X155546279Y-81592210D01*
X155569664Y-81711575D01*
X155594603Y-81893482D01*
X155622869Y-82147556D01*
X155631602Y-82232748D01*
X155759254Y-83302710D01*
X155923453Y-84359032D01*
X156121652Y-85391063D01*
X156351305Y-86388153D01*
X156609865Y-87339651D01*
X156894785Y-88234905D01*
X157203517Y-89063264D01*
X157346341Y-89404020D01*
X157722872Y-90207065D01*
X158166147Y-91041594D01*
X158669415Y-91897049D01*
X159225928Y-92762876D01*
X159828935Y-93628516D01*
X160471689Y-94483413D01*
X161060178Y-95212875D01*
X161324284Y-95526729D01*
X161587942Y-95833796D01*
X161855985Y-96139069D01*
X162133240Y-96447541D01*
X162424539Y-96764205D01*
X162734712Y-97094054D01*
X163068589Y-97442081D01*
X163431001Y-97813278D01*
X163826777Y-98212640D01*
X164260749Y-98645158D01*
X164737745Y-99115825D01*
X165262597Y-99629636D01*
X165840134Y-100191582D01*
X166420800Y-100754069D01*
X167132448Y-101443833D01*
X167786310Y-102081118D01*
X168386957Y-102670715D01*
X168938965Y-103217412D01*
X169446905Y-103726000D01*
X169915352Y-104201267D01*
X170348878Y-104648005D01*
X170752058Y-105071002D01*
X171129464Y-105475048D01*
X171485670Y-105864932D01*
X171825248Y-106245445D01*
X172152773Y-106621376D01*
X172472818Y-106997514D01*
X172789955Y-107378650D01*
X173049207Y-107696000D01*
X173331382Y-108049074D01*
X173623125Y-108423372D01*
X173918231Y-108810252D01*
X174210492Y-109201072D01*
X174493702Y-109587188D01*
X174761655Y-109959958D01*
X175008143Y-110310739D01*
X175226961Y-110630888D01*
X175411900Y-110911763D01*
X175556756Y-111144720D01*
X175655321Y-111321116D01*
X175661710Y-111333924D01*
X175764896Y-111615978D01*
X175816014Y-111921399D01*
X175812501Y-112221244D01*
X175761396Y-112459831D01*
X175616894Y-112754928D01*
X175389710Y-113036335D01*
X175080743Y-113303850D01*
X174690897Y-113557269D01*
X174221074Y-113796387D01*
X173672175Y-114021002D01*
X173045103Y-114230909D01*
X172340760Y-114425906D01*
X171560047Y-114605788D01*
X170703868Y-114770352D01*
X169773124Y-114919395D01*
X168768717Y-115052712D01*
X167691549Y-115170099D01*
X166542522Y-115271355D01*
X165322539Y-115356274D01*
X164032502Y-115424653D01*
X162673312Y-115476288D01*
X162356800Y-115485613D01*
X161989950Y-115496018D01*
X161646897Y-115506044D01*
X161337511Y-115515382D01*
X161071667Y-115523720D01*
X160859236Y-115530748D01*
X160710091Y-115536155D01*
X160634105Y-115539630D01*
X160629338Y-115539991D01*
X160636642Y-115555591D01*
X160713952Y-115593942D01*
X160851015Y-115650830D01*
X161037580Y-115722040D01*
X161263396Y-115803358D01*
X161306672Y-115818482D01*
X162712789Y-116323329D01*
X164171894Y-116877277D01*
X165671842Y-117475333D01*
X167200485Y-118112504D01*
X168745680Y-118783798D01*
X170295279Y-119484222D01*
X170844634Y-119739160D01*
X171217718Y-119915423D01*
X171637272Y-120117015D01*
X172093449Y-120338973D01*
X172576405Y-120576332D01*
X173076295Y-120824129D01*
X173583273Y-121077400D01*
X174087494Y-121331180D01*
X174579113Y-121580505D01*
X175048285Y-121820413D01*
X175485165Y-122045937D01*
X175879907Y-122252115D01*
X176222666Y-122433983D01*
X176503597Y-122586577D01*
X176612523Y-122647362D01*
X176834746Y-122772850D01*
X176721973Y-122970842D01*
X176653284Y-123088401D01*
X176599207Y-123175562D01*
X176579842Y-123203041D01*
X176533328Y-123197646D01*
X176429312Y-123157073D01*
X176283748Y-123088247D01*
X176131726Y-123008591D01*
X175310185Y-122567819D01*
X174422054Y-122105762D01*
X173480736Y-121628883D01*
X172499630Y-121143643D01*
X171492138Y-120656508D01*
X170471662Y-120173938D01*
X169451601Y-119702397D01*
X168445358Y-119248348D01*
X167466333Y-118818255D01*
X167244385Y-118722528D01*
X166540856Y-118424076D01*
X165811631Y-118121977D01*
X165066857Y-117820088D01*
X164316679Y-117522268D01*
X163571243Y-117232374D01*
X162840696Y-116954263D01*
X162135183Y-116691794D01*
X161464849Y-116448822D01*
X160839842Y-116229207D01*
X160270307Y-116036806D01*
X159766390Y-115875476D01*
X159713374Y-115859172D01*
X159511293Y-115794731D01*
X159378558Y-115744805D01*
X159302426Y-115703190D01*
X159270150Y-115663684D01*
X159266467Y-115641663D01*
X159245086Y-115583550D01*
X159213550Y-115581966D01*
X159156257Y-115604840D01*
X159036676Y-115652655D01*
X158871121Y-115718885D01*
X158675905Y-115797004D01*
X158631467Y-115814790D01*
X157123892Y-116386270D01*
X155598717Y-116901910D01*
X154065944Y-117359171D01*
X152535572Y-117755514D01*
X151017603Y-118088400D01*
X149522036Y-118355288D01*
X148058873Y-118553641D01*
X147688300Y-118593339D01*
X147117288Y-118642997D01*
X146497216Y-118682449D01*
X145844859Y-118711493D01*
X145176991Y-118729926D01*
X144510385Y-118737546D01*
X143861816Y-118734151D01*
X143248057Y-118719539D01*
X142685882Y-118693508D01*
X142227300Y-118659173D01*
X142001833Y-118639492D01*
X141782214Y-118622377D01*
X141596198Y-118609878D01*
X141487709Y-118604498D01*
X141256119Y-118596834D01*
X140595417Y-122205515D01*
X140496257Y-122746159D01*
X140401204Y-123262558D01*
X140311385Y-123748693D01*
X140227929Y-124198545D01*
X140151962Y-124606096D01*
X140084612Y-124965326D01*
X140027008Y-125270218D01*
X139980276Y-125514751D01*
X139945546Y-125692907D01*
X139923943Y-125798668D01*
X139916841Y-125827134D01*
X139868776Y-125827982D01*
X139762723Y-125816859D01*
X139655550Y-125801397D01*
X139519910Y-125771794D01*
X139432975Y-125736687D01*
X139412134Y-125712101D01*
X139419579Y-125663711D01*
X139441178Y-125538173D01*
X139475827Y-125341616D01*
X139522422Y-125080172D01*
X139579858Y-124759972D01*
X139647032Y-124387148D01*
X139722840Y-123967831D01*
X139806176Y-123508151D01*
X139895938Y-123014240D01*
X139991020Y-122492229D01*
X140064968Y-122087019D01*
X140163094Y-121549225D01*
X140256583Y-121035828D01*
X140344346Y-120552861D01*
X140425297Y-120106354D01*
X140498347Y-119702339D01*
X140562411Y-119346847D01*
X140616399Y-119045909D01*
X140659225Y-118805558D01*
X140689802Y-118631823D01*
X140707041Y-118530738D01*
X140710551Y-118506208D01*
X140668462Y-118498034D01*
X140557496Y-118479803D01*
X140392528Y-118453873D01*
X140188433Y-118422606D01*
X140089467Y-118407675D01*
X139329161Y-118279992D01*
X138522342Y-118119810D01*
X137697632Y-117933658D01*
X136883652Y-117728068D01*
X136109022Y-117509571D01*
X135971650Y-117468053D01*
X135740835Y-117398669D01*
X135539527Y-117340386D01*
X135381024Y-117296872D01*
X135278625Y-117271795D01*
X135245582Y-117267761D01*
X135229626Y-117309181D01*
X135187548Y-117425167D01*
X135121232Y-117610390D01*
X135032563Y-117859515D01*
X134923428Y-118167213D01*
X134795712Y-118528149D01*
X134651300Y-118936993D01*
X134492078Y-119388413D01*
X134319931Y-119877075D01*
X134136744Y-120397648D01*
X133944404Y-120944800D01*
X133802613Y-121348500D01*
X133605016Y-121911150D01*
X133415366Y-122450902D01*
X133235536Y-122962439D01*
X133067401Y-123440440D01*
X132912834Y-123879588D01*
X132773710Y-124274565D01*
X132651902Y-124620051D01*
X132549284Y-124910729D01*
X132467730Y-125141280D01*
X132409115Y-125306385D01*
X132375311Y-125400726D01*
X132367393Y-125421844D01*
X132321545Y-125419228D01*
X132226062Y-125391484D01*
X132108190Y-125348950D01*
X131995177Y-125301961D01*
X131914268Y-125260856D01*
X131891374Y-125241250D01*
X131902655Y-125195699D01*
X131940280Y-125075738D01*
X132002387Y-124886790D01*
X132087118Y-124634277D01*
X132192611Y-124323621D01*
X132317007Y-123960244D01*
X132458447Y-123549569D01*
X132615069Y-123097017D01*
X132785015Y-122608011D01*
X132966424Y-122087972D01*
X133157437Y-121542324D01*
X133278470Y-121197529D01*
X133474961Y-120638193D01*
X133663643Y-120100790D01*
X133842602Y-119590781D01*
X134009926Y-119113633D01*
X134163702Y-118674808D01*
X134302018Y-118279773D01*
X134422960Y-117933990D01*
X134524615Y-117642924D01*
X134605073Y-117412040D01*
X134662418Y-117246802D01*
X134694740Y-117152674D01*
X134701334Y-117132572D01*
X134688586Y-117085875D01*
X134617034Y-117036773D01*
X134475438Y-116977917D01*
X134451704Y-116969310D01*
X133189668Y-116483661D01*
X131904174Y-115924343D01*
X130603960Y-115295997D01*
X129297761Y-114603261D01*
X127994314Y-113850775D01*
X126702356Y-113043178D01*
X125430623Y-112185110D01*
X125394441Y-112159736D01*
X125092481Y-111945366D01*
X124770962Y-111712827D01*
X124436754Y-111467439D01*
X124096730Y-111214521D01*
X123757762Y-110959393D01*
X123426722Y-110707375D01*
X123110481Y-110463785D01*
X122815912Y-110233943D01*
X122549886Y-110023170D01*
X122319275Y-109836783D01*
X122130951Y-109680103D01*
X121991787Y-109558449D01*
X121908653Y-109477140D01*
X121887107Y-109444749D01*
X121896637Y-109398050D01*
X121934204Y-109384316D01*
X122009683Y-109406915D01*
X122132947Y-109469214D01*
X122313869Y-109574583D01*
X122373742Y-109610767D01*
X123377119Y-110175031D01*
X124397083Y-110659868D01*
X125430847Y-111064746D01*
X126475621Y-111389133D01*
X127528618Y-111632498D01*
X128587048Y-111794308D01*
X129648124Y-111874032D01*
X130709056Y-111871138D01*
X131767056Y-111785094D01*
X132819336Y-111615368D01*
X132850467Y-111609043D01*
X133937041Y-111343963D01*
X135012623Y-110995449D01*
X136076678Y-110564082D01*
X137128665Y-110050448D01*
X138168049Y-109455131D01*
X139194290Y-108778713D01*
X140206852Y-108021779D01*
X141205195Y-107184912D01*
X142188783Y-106268697D01*
X143157078Y-105273717D01*
X144109542Y-104200555D01*
X145045637Y-103049796D01*
X145964825Y-101822023D01*
X146866568Y-100517821D01*
X147750330Y-99137772D01*
X148615571Y-97682461D01*
X149461754Y-96152471D01*
X150288341Y-94548386D01*
X151094795Y-92870790D01*
X151880577Y-91120267D01*
X152016554Y-90805000D01*
X152521187Y-89603537D01*
X153004874Y-88400618D01*
X153473964Y-87179366D01*
X153934808Y-85922903D01*
X154393755Y-84614353D01*
X154807779Y-83386190D01*
X154963886Y-82917183D01*
X155096366Y-82524295D01*
X155206929Y-82202860D01*
X155297281Y-81948209D01*
X155369131Y-81755674D01*
X155424187Y-81620589D01*
X155464158Y-81538284D01*
X155490751Y-81504094D01*
X155497076Y-81502604D01*
X155522674Y-81525761D01*
G37*
%TD*%
M02*
