%TF.GenerationSoftware,KiCad,Pcbnew,8.0.5*%
%TF.CreationDate,2025-02-18T12:13:13+00:00*%
%TF.ProjectId,robin,726f6269-6e2e-46b6-9963-61645f706362,v2*%
%TF.SameCoordinates,Original*%
%TF.FileFunction,Copper,L2,Bot*%
%TF.FilePolarity,Positive*%
%FSLAX46Y46*%
G04 Gerber Fmt 4.6, Leading zero omitted, Abs format (unit mm)*
G04 Created by KiCad (PCBNEW 8.0.5) date 2025-02-18 12:13:13*
%MOMM*%
%LPD*%
G01*
G04 APERTURE LIST*
%ADD10C,0.150000*%
%TA.AperFunction,NonConductor*%
%ADD11C,0.150000*%
%TD*%
%ADD12C,0.125000*%
%TA.AperFunction,NonConductor*%
%ADD13C,0.125000*%
%TD*%
%TA.AperFunction,ComponentPad*%
%ADD14R,2.000000X2.000000*%
%TD*%
%TA.AperFunction,ComponentPad*%
%ADD15C,2.000000*%
%TD*%
%TA.AperFunction,ComponentPad*%
%ADD16C,1.600000*%
%TD*%
%TA.AperFunction,ComponentPad*%
%ADD17O,1.600000X1.600000*%
%TD*%
%TA.AperFunction,ComponentPad*%
%ADD18O,2.000000X3.500000*%
%TD*%
%TA.AperFunction,SMDPad,CuDef*%
%ADD19C,5.000000*%
%TD*%
%TA.AperFunction,ComponentPad*%
%ADD20C,1.524000*%
%TD*%
%TA.AperFunction,SMDPad,CuDef*%
%ADD21O,25.000000X5.000000*%
%TD*%
%TA.AperFunction,Conductor*%
%ADD22C,0.250000*%
%TD*%
G04 APERTURE END LIST*
D10*
D11*
X139961238Y-96501809D02*
X139818381Y-96549428D01*
X139818381Y-96549428D02*
X139770762Y-96597047D01*
X139770762Y-96597047D02*
X139723143Y-96692285D01*
X139723143Y-96692285D02*
X139723143Y-96835142D01*
X139723143Y-96835142D02*
X139770762Y-96930380D01*
X139770762Y-96930380D02*
X139818381Y-96978000D01*
X139818381Y-96978000D02*
X139913619Y-97025619D01*
X139913619Y-97025619D02*
X140294571Y-97025619D01*
X140294571Y-97025619D02*
X140294571Y-96025619D01*
X140294571Y-96025619D02*
X139961238Y-96025619D01*
X139961238Y-96025619D02*
X139866000Y-96073238D01*
X139866000Y-96073238D02*
X139818381Y-96120857D01*
X139818381Y-96120857D02*
X139770762Y-96216095D01*
X139770762Y-96216095D02*
X139770762Y-96311333D01*
X139770762Y-96311333D02*
X139818381Y-96406571D01*
X139818381Y-96406571D02*
X139866000Y-96454190D01*
X139866000Y-96454190D02*
X139961238Y-96501809D01*
X139961238Y-96501809D02*
X140294571Y-96501809D01*
X138866000Y-97025619D02*
X138866000Y-96501809D01*
X138866000Y-96501809D02*
X138913619Y-96406571D01*
X138913619Y-96406571D02*
X139008857Y-96358952D01*
X139008857Y-96358952D02*
X139199333Y-96358952D01*
X139199333Y-96358952D02*
X139294571Y-96406571D01*
X138866000Y-96978000D02*
X138961238Y-97025619D01*
X138961238Y-97025619D02*
X139199333Y-97025619D01*
X139199333Y-97025619D02*
X139294571Y-96978000D01*
X139294571Y-96978000D02*
X139342190Y-96882761D01*
X139342190Y-96882761D02*
X139342190Y-96787523D01*
X139342190Y-96787523D02*
X139294571Y-96692285D01*
X139294571Y-96692285D02*
X139199333Y-96644666D01*
X139199333Y-96644666D02*
X138961238Y-96644666D01*
X138961238Y-96644666D02*
X138866000Y-96597047D01*
X138532666Y-96358952D02*
X138151714Y-96358952D01*
X138389809Y-96025619D02*
X138389809Y-96882761D01*
X138389809Y-96882761D02*
X138342190Y-96978000D01*
X138342190Y-96978000D02*
X138246952Y-97025619D01*
X138246952Y-97025619D02*
X138151714Y-97025619D01*
X137961237Y-96358952D02*
X137580285Y-96358952D01*
X137818380Y-96025619D02*
X137818380Y-96882761D01*
X137818380Y-96882761D02*
X137770761Y-96978000D01*
X137770761Y-96978000D02*
X137675523Y-97025619D01*
X137675523Y-97025619D02*
X137580285Y-97025619D01*
X136865999Y-96978000D02*
X136961237Y-97025619D01*
X136961237Y-97025619D02*
X137151713Y-97025619D01*
X137151713Y-97025619D02*
X137246951Y-96978000D01*
X137246951Y-96978000D02*
X137294570Y-96882761D01*
X137294570Y-96882761D02*
X137294570Y-96501809D01*
X137294570Y-96501809D02*
X137246951Y-96406571D01*
X137246951Y-96406571D02*
X137151713Y-96358952D01*
X137151713Y-96358952D02*
X136961237Y-96358952D01*
X136961237Y-96358952D02*
X136865999Y-96406571D01*
X136865999Y-96406571D02*
X136818380Y-96501809D01*
X136818380Y-96501809D02*
X136818380Y-96597047D01*
X136818380Y-96597047D02*
X137294570Y-96692285D01*
X136389808Y-97025619D02*
X136389808Y-96358952D01*
X136389808Y-96549428D02*
X136342189Y-96454190D01*
X136342189Y-96454190D02*
X136294570Y-96406571D01*
X136294570Y-96406571D02*
X136199332Y-96358952D01*
X136199332Y-96358952D02*
X136104094Y-96358952D01*
X135865998Y-96358952D02*
X135627903Y-97025619D01*
X135389808Y-96358952D02*
X135627903Y-97025619D01*
X135627903Y-97025619D02*
X135723141Y-97263714D01*
X135723141Y-97263714D02*
X135770760Y-97311333D01*
X135770760Y-97311333D02*
X135865998Y-97358952D01*
X135008855Y-96930380D02*
X134961236Y-96978000D01*
X134961236Y-96978000D02*
X135008855Y-97025619D01*
X135008855Y-97025619D02*
X135056474Y-96978000D01*
X135056474Y-96978000D02*
X135008855Y-96930380D01*
X135008855Y-96930380D02*
X135008855Y-97025619D01*
X135008855Y-96406571D02*
X134961236Y-96454190D01*
X134961236Y-96454190D02*
X135008855Y-96501809D01*
X135008855Y-96501809D02*
X135056474Y-96454190D01*
X135056474Y-96454190D02*
X135008855Y-96406571D01*
X135008855Y-96406571D02*
X135008855Y-96501809D01*
X133199332Y-96930380D02*
X133246951Y-96978000D01*
X133246951Y-96978000D02*
X133389808Y-97025619D01*
X133389808Y-97025619D02*
X133485046Y-97025619D01*
X133485046Y-97025619D02*
X133627903Y-96978000D01*
X133627903Y-96978000D02*
X133723141Y-96882761D01*
X133723141Y-96882761D02*
X133770760Y-96787523D01*
X133770760Y-96787523D02*
X133818379Y-96597047D01*
X133818379Y-96597047D02*
X133818379Y-96454190D01*
X133818379Y-96454190D02*
X133770760Y-96263714D01*
X133770760Y-96263714D02*
X133723141Y-96168476D01*
X133723141Y-96168476D02*
X133627903Y-96073238D01*
X133627903Y-96073238D02*
X133485046Y-96025619D01*
X133485046Y-96025619D02*
X133389808Y-96025619D01*
X133389808Y-96025619D02*
X133246951Y-96073238D01*
X133246951Y-96073238D02*
X133199332Y-96120857D01*
X132199332Y-97025619D02*
X132532665Y-96549428D01*
X132770760Y-97025619D02*
X132770760Y-96025619D01*
X132770760Y-96025619D02*
X132389808Y-96025619D01*
X132389808Y-96025619D02*
X132294570Y-96073238D01*
X132294570Y-96073238D02*
X132246951Y-96120857D01*
X132246951Y-96120857D02*
X132199332Y-96216095D01*
X132199332Y-96216095D02*
X132199332Y-96358952D01*
X132199332Y-96358952D02*
X132246951Y-96454190D01*
X132246951Y-96454190D02*
X132294570Y-96501809D01*
X132294570Y-96501809D02*
X132389808Y-96549428D01*
X132389808Y-96549428D02*
X132770760Y-96549428D01*
X131818379Y-96120857D02*
X131770760Y-96073238D01*
X131770760Y-96073238D02*
X131675522Y-96025619D01*
X131675522Y-96025619D02*
X131437427Y-96025619D01*
X131437427Y-96025619D02*
X131342189Y-96073238D01*
X131342189Y-96073238D02*
X131294570Y-96120857D01*
X131294570Y-96120857D02*
X131246951Y-96216095D01*
X131246951Y-96216095D02*
X131246951Y-96311333D01*
X131246951Y-96311333D02*
X131294570Y-96454190D01*
X131294570Y-96454190D02*
X131865998Y-97025619D01*
X131865998Y-97025619D02*
X131246951Y-97025619D01*
X130627903Y-96025619D02*
X130532665Y-96025619D01*
X130532665Y-96025619D02*
X130437427Y-96073238D01*
X130437427Y-96073238D02*
X130389808Y-96120857D01*
X130389808Y-96120857D02*
X130342189Y-96216095D01*
X130342189Y-96216095D02*
X130294570Y-96406571D01*
X130294570Y-96406571D02*
X130294570Y-96644666D01*
X130294570Y-96644666D02*
X130342189Y-96835142D01*
X130342189Y-96835142D02*
X130389808Y-96930380D01*
X130389808Y-96930380D02*
X130437427Y-96978000D01*
X130437427Y-96978000D02*
X130532665Y-97025619D01*
X130532665Y-97025619D02*
X130627903Y-97025619D01*
X130627903Y-97025619D02*
X130723141Y-96978000D01*
X130723141Y-96978000D02*
X130770760Y-96930380D01*
X130770760Y-96930380D02*
X130818379Y-96835142D01*
X130818379Y-96835142D02*
X130865998Y-96644666D01*
X130865998Y-96644666D02*
X130865998Y-96406571D01*
X130865998Y-96406571D02*
X130818379Y-96216095D01*
X130818379Y-96216095D02*
X130770760Y-96120857D01*
X130770760Y-96120857D02*
X130723141Y-96073238D01*
X130723141Y-96073238D02*
X130627903Y-96025619D01*
X129961236Y-96025619D02*
X129342189Y-96025619D01*
X129342189Y-96025619D02*
X129675522Y-96406571D01*
X129675522Y-96406571D02*
X129532665Y-96406571D01*
X129532665Y-96406571D02*
X129437427Y-96454190D01*
X129437427Y-96454190D02*
X129389808Y-96501809D01*
X129389808Y-96501809D02*
X129342189Y-96597047D01*
X129342189Y-96597047D02*
X129342189Y-96835142D01*
X129342189Y-96835142D02*
X129389808Y-96930380D01*
X129389808Y-96930380D02*
X129437427Y-96978000D01*
X129437427Y-96978000D02*
X129532665Y-97025619D01*
X129532665Y-97025619D02*
X129818379Y-97025619D01*
X129818379Y-97025619D02*
X129913617Y-96978000D01*
X129913617Y-96978000D02*
X129961236Y-96930380D01*
X128961236Y-96120857D02*
X128913617Y-96073238D01*
X128913617Y-96073238D02*
X128818379Y-96025619D01*
X128818379Y-96025619D02*
X128580284Y-96025619D01*
X128580284Y-96025619D02*
X128485046Y-96073238D01*
X128485046Y-96073238D02*
X128437427Y-96120857D01*
X128437427Y-96120857D02*
X128389808Y-96216095D01*
X128389808Y-96216095D02*
X128389808Y-96311333D01*
X128389808Y-96311333D02*
X128437427Y-96454190D01*
X128437427Y-96454190D02*
X129008855Y-97025619D01*
X129008855Y-97025619D02*
X128389808Y-97025619D01*
D12*
D13*
X167788743Y-98353631D02*
X167788743Y-97353631D01*
X167788743Y-98306012D02*
X167883981Y-98353631D01*
X167883981Y-98353631D02*
X168074457Y-98353631D01*
X168074457Y-98353631D02*
X168169695Y-98306012D01*
X168169695Y-98306012D02*
X168217314Y-98258392D01*
X168217314Y-98258392D02*
X168264933Y-98163154D01*
X168264933Y-98163154D02*
X168264933Y-97877440D01*
X168264933Y-97877440D02*
X168217314Y-97782202D01*
X168217314Y-97782202D02*
X168169695Y-97734583D01*
X168169695Y-97734583D02*
X168074457Y-97686964D01*
X168074457Y-97686964D02*
X167883981Y-97686964D01*
X167883981Y-97686964D02*
X167788743Y-97734583D01*
X166931600Y-98306012D02*
X167026838Y-98353631D01*
X167026838Y-98353631D02*
X167217314Y-98353631D01*
X167217314Y-98353631D02*
X167312552Y-98306012D01*
X167312552Y-98306012D02*
X167360171Y-98210773D01*
X167360171Y-98210773D02*
X167360171Y-97829821D01*
X167360171Y-97829821D02*
X167312552Y-97734583D01*
X167312552Y-97734583D02*
X167217314Y-97686964D01*
X167217314Y-97686964D02*
X167026838Y-97686964D01*
X167026838Y-97686964D02*
X166931600Y-97734583D01*
X166931600Y-97734583D02*
X166883981Y-97829821D01*
X166883981Y-97829821D02*
X166883981Y-97925059D01*
X166883981Y-97925059D02*
X167360171Y-98020297D01*
X166503028Y-98306012D02*
X166407790Y-98353631D01*
X166407790Y-98353631D02*
X166217314Y-98353631D01*
X166217314Y-98353631D02*
X166122076Y-98306012D01*
X166122076Y-98306012D02*
X166074457Y-98210773D01*
X166074457Y-98210773D02*
X166074457Y-98163154D01*
X166074457Y-98163154D02*
X166122076Y-98067916D01*
X166122076Y-98067916D02*
X166217314Y-98020297D01*
X166217314Y-98020297D02*
X166360171Y-98020297D01*
X166360171Y-98020297D02*
X166455409Y-97972678D01*
X166455409Y-97972678D02*
X166503028Y-97877440D01*
X166503028Y-97877440D02*
X166503028Y-97829821D01*
X166503028Y-97829821D02*
X166455409Y-97734583D01*
X166455409Y-97734583D02*
X166360171Y-97686964D01*
X166360171Y-97686964D02*
X166217314Y-97686964D01*
X166217314Y-97686964D02*
X166122076Y-97734583D01*
X165645885Y-98353631D02*
X165645885Y-97686964D01*
X165645885Y-97353631D02*
X165693504Y-97401250D01*
X165693504Y-97401250D02*
X165645885Y-97448869D01*
X165645885Y-97448869D02*
X165598266Y-97401250D01*
X165598266Y-97401250D02*
X165645885Y-97353631D01*
X165645885Y-97353631D02*
X165645885Y-97448869D01*
X164741124Y-97686964D02*
X164741124Y-98496488D01*
X164741124Y-98496488D02*
X164788743Y-98591726D01*
X164788743Y-98591726D02*
X164836362Y-98639345D01*
X164836362Y-98639345D02*
X164931600Y-98686964D01*
X164931600Y-98686964D02*
X165074457Y-98686964D01*
X165074457Y-98686964D02*
X165169695Y-98639345D01*
X164741124Y-98306012D02*
X164836362Y-98353631D01*
X164836362Y-98353631D02*
X165026838Y-98353631D01*
X165026838Y-98353631D02*
X165122076Y-98306012D01*
X165122076Y-98306012D02*
X165169695Y-98258392D01*
X165169695Y-98258392D02*
X165217314Y-98163154D01*
X165217314Y-98163154D02*
X165217314Y-97877440D01*
X165217314Y-97877440D02*
X165169695Y-97782202D01*
X165169695Y-97782202D02*
X165122076Y-97734583D01*
X165122076Y-97734583D02*
X165026838Y-97686964D01*
X165026838Y-97686964D02*
X164836362Y-97686964D01*
X164836362Y-97686964D02*
X164741124Y-97734583D01*
X164264933Y-97686964D02*
X164264933Y-98353631D01*
X164264933Y-97782202D02*
X164217314Y-97734583D01*
X164217314Y-97734583D02*
X164122076Y-97686964D01*
X164122076Y-97686964D02*
X163979219Y-97686964D01*
X163979219Y-97686964D02*
X163883981Y-97734583D01*
X163883981Y-97734583D02*
X163836362Y-97829821D01*
X163836362Y-97829821D02*
X163836362Y-98353631D01*
X162979219Y-98306012D02*
X163074457Y-98353631D01*
X163074457Y-98353631D02*
X163264933Y-98353631D01*
X163264933Y-98353631D02*
X163360171Y-98306012D01*
X163360171Y-98306012D02*
X163407790Y-98210773D01*
X163407790Y-98210773D02*
X163407790Y-97829821D01*
X163407790Y-97829821D02*
X163360171Y-97734583D01*
X163360171Y-97734583D02*
X163264933Y-97686964D01*
X163264933Y-97686964D02*
X163074457Y-97686964D01*
X163074457Y-97686964D02*
X162979219Y-97734583D01*
X162979219Y-97734583D02*
X162931600Y-97829821D01*
X162931600Y-97829821D02*
X162931600Y-97925059D01*
X162931600Y-97925059D02*
X163407790Y-98020297D01*
X162074457Y-98353631D02*
X162074457Y-97353631D01*
X162074457Y-98306012D02*
X162169695Y-98353631D01*
X162169695Y-98353631D02*
X162360171Y-98353631D01*
X162360171Y-98353631D02*
X162455409Y-98306012D01*
X162455409Y-98306012D02*
X162503028Y-98258392D01*
X162503028Y-98258392D02*
X162550647Y-98163154D01*
X162550647Y-98163154D02*
X162550647Y-97877440D01*
X162550647Y-97877440D02*
X162503028Y-97782202D01*
X162503028Y-97782202D02*
X162455409Y-97734583D01*
X162455409Y-97734583D02*
X162360171Y-97686964D01*
X162360171Y-97686964D02*
X162169695Y-97686964D01*
X162169695Y-97686964D02*
X162074457Y-97734583D01*
X160836361Y-98353631D02*
X160836361Y-97353631D01*
X160836361Y-97734583D02*
X160741123Y-97686964D01*
X160741123Y-97686964D02*
X160550647Y-97686964D01*
X160550647Y-97686964D02*
X160455409Y-97734583D01*
X160455409Y-97734583D02*
X160407790Y-97782202D01*
X160407790Y-97782202D02*
X160360171Y-97877440D01*
X160360171Y-97877440D02*
X160360171Y-98163154D01*
X160360171Y-98163154D02*
X160407790Y-98258392D01*
X160407790Y-98258392D02*
X160455409Y-98306012D01*
X160455409Y-98306012D02*
X160550647Y-98353631D01*
X160550647Y-98353631D02*
X160741123Y-98353631D01*
X160741123Y-98353631D02*
X160836361Y-98306012D01*
X160026837Y-97686964D02*
X159788742Y-98353631D01*
X159550647Y-97686964D02*
X159788742Y-98353631D01*
X159788742Y-98353631D02*
X159883980Y-98591726D01*
X159883980Y-98591726D02*
X159931599Y-98639345D01*
X159931599Y-98639345D02*
X160026837Y-98686964D01*
X173050647Y-99915956D02*
X172907790Y-99963575D01*
X172907790Y-99963575D02*
X172669695Y-99963575D01*
X172669695Y-99963575D02*
X172574457Y-99915956D01*
X172574457Y-99915956D02*
X172526838Y-99868336D01*
X172526838Y-99868336D02*
X172479219Y-99773098D01*
X172479219Y-99773098D02*
X172479219Y-99677860D01*
X172479219Y-99677860D02*
X172526838Y-99582622D01*
X172526838Y-99582622D02*
X172574457Y-99535003D01*
X172574457Y-99535003D02*
X172669695Y-99487384D01*
X172669695Y-99487384D02*
X172860171Y-99439765D01*
X172860171Y-99439765D02*
X172955409Y-99392146D01*
X172955409Y-99392146D02*
X173003028Y-99344527D01*
X173003028Y-99344527D02*
X173050647Y-99249289D01*
X173050647Y-99249289D02*
X173050647Y-99154051D01*
X173050647Y-99154051D02*
X173003028Y-99058813D01*
X173003028Y-99058813D02*
X172955409Y-99011194D01*
X172955409Y-99011194D02*
X172860171Y-98963575D01*
X172860171Y-98963575D02*
X172622076Y-98963575D01*
X172622076Y-98963575D02*
X172479219Y-99011194D01*
X171622076Y-99963575D02*
X171622076Y-99439765D01*
X171622076Y-99439765D02*
X171669695Y-99344527D01*
X171669695Y-99344527D02*
X171764933Y-99296908D01*
X171764933Y-99296908D02*
X171955409Y-99296908D01*
X171955409Y-99296908D02*
X172050647Y-99344527D01*
X171622076Y-99915956D02*
X171717314Y-99963575D01*
X171717314Y-99963575D02*
X171955409Y-99963575D01*
X171955409Y-99963575D02*
X172050647Y-99915956D01*
X172050647Y-99915956D02*
X172098266Y-99820717D01*
X172098266Y-99820717D02*
X172098266Y-99725479D01*
X172098266Y-99725479D02*
X172050647Y-99630241D01*
X172050647Y-99630241D02*
X171955409Y-99582622D01*
X171955409Y-99582622D02*
X171717314Y-99582622D01*
X171717314Y-99582622D02*
X171622076Y-99535003D01*
X171145885Y-99963575D02*
X171145885Y-99296908D01*
X171145885Y-99487384D02*
X171098266Y-99392146D01*
X171098266Y-99392146D02*
X171050647Y-99344527D01*
X171050647Y-99344527D02*
X170955409Y-99296908D01*
X170955409Y-99296908D02*
X170860171Y-99296908D01*
X170098266Y-99963575D02*
X170098266Y-99439765D01*
X170098266Y-99439765D02*
X170145885Y-99344527D01*
X170145885Y-99344527D02*
X170241123Y-99296908D01*
X170241123Y-99296908D02*
X170431599Y-99296908D01*
X170431599Y-99296908D02*
X170526837Y-99344527D01*
X170098266Y-99915956D02*
X170193504Y-99963575D01*
X170193504Y-99963575D02*
X170431599Y-99963575D01*
X170431599Y-99963575D02*
X170526837Y-99915956D01*
X170526837Y-99915956D02*
X170574456Y-99820717D01*
X170574456Y-99820717D02*
X170574456Y-99725479D01*
X170574456Y-99725479D02*
X170526837Y-99630241D01*
X170526837Y-99630241D02*
X170431599Y-99582622D01*
X170431599Y-99582622D02*
X170193504Y-99582622D01*
X170193504Y-99582622D02*
X170098266Y-99535003D01*
X169622075Y-99963575D02*
X169622075Y-98963575D01*
X169193504Y-99963575D02*
X169193504Y-99439765D01*
X169193504Y-99439765D02*
X169241123Y-99344527D01*
X169241123Y-99344527D02*
X169336361Y-99296908D01*
X169336361Y-99296908D02*
X169479218Y-99296908D01*
X169479218Y-99296908D02*
X169574456Y-99344527D01*
X169574456Y-99344527D02*
X169622075Y-99392146D01*
X168098265Y-98963575D02*
X167526837Y-98963575D01*
X167812551Y-99963575D02*
X167812551Y-98963575D01*
X167050646Y-99963575D02*
X167145884Y-99915956D01*
X167145884Y-99915956D02*
X167193503Y-99868336D01*
X167193503Y-99868336D02*
X167241122Y-99773098D01*
X167241122Y-99773098D02*
X167241122Y-99487384D01*
X167241122Y-99487384D02*
X167193503Y-99392146D01*
X167193503Y-99392146D02*
X167145884Y-99344527D01*
X167145884Y-99344527D02*
X167050646Y-99296908D01*
X167050646Y-99296908D02*
X166907789Y-99296908D01*
X166907789Y-99296908D02*
X166812551Y-99344527D01*
X166812551Y-99344527D02*
X166764932Y-99392146D01*
X166764932Y-99392146D02*
X166717313Y-99487384D01*
X166717313Y-99487384D02*
X166717313Y-99773098D01*
X166717313Y-99773098D02*
X166764932Y-99868336D01*
X166764932Y-99868336D02*
X166812551Y-99915956D01*
X166812551Y-99915956D02*
X166907789Y-99963575D01*
X166907789Y-99963575D02*
X167050646Y-99963575D01*
X166383979Y-99296908D02*
X166193503Y-99963575D01*
X166193503Y-99963575D02*
X166003027Y-99487384D01*
X166003027Y-99487384D02*
X165812551Y-99963575D01*
X165812551Y-99963575D02*
X165622075Y-99296908D01*
X165241122Y-99296908D02*
X165241122Y-99963575D01*
X165241122Y-99392146D02*
X165193503Y-99344527D01*
X165193503Y-99344527D02*
X165098265Y-99296908D01*
X165098265Y-99296908D02*
X164955408Y-99296908D01*
X164955408Y-99296908D02*
X164860170Y-99344527D01*
X164860170Y-99344527D02*
X164812551Y-99439765D01*
X164812551Y-99439765D02*
X164812551Y-99963575D01*
X164383979Y-99915956D02*
X164288741Y-99963575D01*
X164288741Y-99963575D02*
X164098265Y-99963575D01*
X164098265Y-99963575D02*
X164003027Y-99915956D01*
X164003027Y-99915956D02*
X163955408Y-99820717D01*
X163955408Y-99820717D02*
X163955408Y-99773098D01*
X163955408Y-99773098D02*
X164003027Y-99677860D01*
X164003027Y-99677860D02*
X164098265Y-99630241D01*
X164098265Y-99630241D02*
X164241122Y-99630241D01*
X164241122Y-99630241D02*
X164336360Y-99582622D01*
X164336360Y-99582622D02*
X164383979Y-99487384D01*
X164383979Y-99487384D02*
X164383979Y-99439765D01*
X164383979Y-99439765D02*
X164336360Y-99344527D01*
X164336360Y-99344527D02*
X164241122Y-99296908D01*
X164241122Y-99296908D02*
X164098265Y-99296908D01*
X164098265Y-99296908D02*
X164003027Y-99344527D01*
X163383979Y-99963575D02*
X163479217Y-99915956D01*
X163479217Y-99915956D02*
X163526836Y-99868336D01*
X163526836Y-99868336D02*
X163574455Y-99773098D01*
X163574455Y-99773098D02*
X163574455Y-99487384D01*
X163574455Y-99487384D02*
X163526836Y-99392146D01*
X163526836Y-99392146D02*
X163479217Y-99344527D01*
X163479217Y-99344527D02*
X163383979Y-99296908D01*
X163383979Y-99296908D02*
X163241122Y-99296908D01*
X163241122Y-99296908D02*
X163145884Y-99344527D01*
X163145884Y-99344527D02*
X163098265Y-99392146D01*
X163098265Y-99392146D02*
X163050646Y-99487384D01*
X163050646Y-99487384D02*
X163050646Y-99773098D01*
X163050646Y-99773098D02*
X163098265Y-99868336D01*
X163098265Y-99868336D02*
X163145884Y-99915956D01*
X163145884Y-99915956D02*
X163241122Y-99963575D01*
X163241122Y-99963575D02*
X163383979Y-99963575D01*
X162622074Y-99296908D02*
X162622074Y-99963575D01*
X162622074Y-99392146D02*
X162574455Y-99344527D01*
X162574455Y-99344527D02*
X162479217Y-99296908D01*
X162479217Y-99296908D02*
X162336360Y-99296908D01*
X162336360Y-99296908D02*
X162241122Y-99344527D01*
X162241122Y-99344527D02*
X162193503Y-99439765D01*
X162193503Y-99439765D02*
X162193503Y-99963575D01*
X160336360Y-99487384D02*
X160383979Y-99439765D01*
X160383979Y-99439765D02*
X160479217Y-99392146D01*
X160479217Y-99392146D02*
X160574455Y-99392146D01*
X160574455Y-99392146D02*
X160669693Y-99439765D01*
X160669693Y-99439765D02*
X160717312Y-99487384D01*
X160717312Y-99487384D02*
X160764931Y-99582622D01*
X160764931Y-99582622D02*
X160764931Y-99677860D01*
X160764931Y-99677860D02*
X160717312Y-99773098D01*
X160717312Y-99773098D02*
X160669693Y-99820717D01*
X160669693Y-99820717D02*
X160574455Y-99868336D01*
X160574455Y-99868336D02*
X160479217Y-99868336D01*
X160479217Y-99868336D02*
X160383979Y-99820717D01*
X160383979Y-99820717D02*
X160336360Y-99773098D01*
X160336360Y-99392146D02*
X160336360Y-99773098D01*
X160336360Y-99773098D02*
X160288741Y-99820717D01*
X160288741Y-99820717D02*
X160241122Y-99820717D01*
X160241122Y-99820717D02*
X160145883Y-99773098D01*
X160145883Y-99773098D02*
X160098264Y-99677860D01*
X160098264Y-99677860D02*
X160098264Y-99439765D01*
X160098264Y-99439765D02*
X160193503Y-99296908D01*
X160193503Y-99296908D02*
X160336360Y-99201670D01*
X160336360Y-99201670D02*
X160526836Y-99154051D01*
X160526836Y-99154051D02*
X160717312Y-99201670D01*
X160717312Y-99201670D02*
X160860169Y-99296908D01*
X160860169Y-99296908D02*
X160955407Y-99439765D01*
X160955407Y-99439765D02*
X161003026Y-99630241D01*
X161003026Y-99630241D02*
X160955407Y-99820717D01*
X160955407Y-99820717D02*
X160860169Y-99963575D01*
X160860169Y-99963575D02*
X160717312Y-100058813D01*
X160717312Y-100058813D02*
X160526836Y-100106432D01*
X160526836Y-100106432D02*
X160336360Y-100058813D01*
X160336360Y-100058813D02*
X160193503Y-99963575D01*
X159669693Y-99963575D02*
X159669693Y-99296908D01*
X159669693Y-98963575D02*
X159717312Y-99011194D01*
X159717312Y-99011194D02*
X159669693Y-99058813D01*
X159669693Y-99058813D02*
X159622074Y-99011194D01*
X159622074Y-99011194D02*
X159669693Y-98963575D01*
X159669693Y-98963575D02*
X159669693Y-99058813D01*
X159241122Y-99915956D02*
X159145884Y-99963575D01*
X159145884Y-99963575D02*
X158955408Y-99963575D01*
X158955408Y-99963575D02*
X158860170Y-99915956D01*
X158860170Y-99915956D02*
X158812551Y-99820717D01*
X158812551Y-99820717D02*
X158812551Y-99773098D01*
X158812551Y-99773098D02*
X158860170Y-99677860D01*
X158860170Y-99677860D02*
X158955408Y-99630241D01*
X158955408Y-99630241D02*
X159098265Y-99630241D01*
X159098265Y-99630241D02*
X159193503Y-99582622D01*
X159193503Y-99582622D02*
X159241122Y-99487384D01*
X159241122Y-99487384D02*
X159241122Y-99439765D01*
X159241122Y-99439765D02*
X159193503Y-99344527D01*
X159193503Y-99344527D02*
X159098265Y-99296908D01*
X159098265Y-99296908D02*
X158955408Y-99296908D01*
X158955408Y-99296908D02*
X158860170Y-99344527D01*
X158383979Y-99963575D02*
X158383979Y-99296908D01*
X158383979Y-98963575D02*
X158431598Y-99011194D01*
X158431598Y-99011194D02*
X158383979Y-99058813D01*
X158383979Y-99058813D02*
X158336360Y-99011194D01*
X158336360Y-99011194D02*
X158383979Y-98963575D01*
X158383979Y-98963575D02*
X158383979Y-99058813D01*
X157764932Y-99963575D02*
X157860170Y-99915956D01*
X157860170Y-99915956D02*
X157907789Y-99868336D01*
X157907789Y-99868336D02*
X157955408Y-99773098D01*
X157955408Y-99773098D02*
X157955408Y-99487384D01*
X157955408Y-99487384D02*
X157907789Y-99392146D01*
X157907789Y-99392146D02*
X157860170Y-99344527D01*
X157860170Y-99344527D02*
X157764932Y-99296908D01*
X157764932Y-99296908D02*
X157622075Y-99296908D01*
X157622075Y-99296908D02*
X157526837Y-99344527D01*
X157526837Y-99344527D02*
X157479218Y-99392146D01*
X157479218Y-99392146D02*
X157431599Y-99487384D01*
X157431599Y-99487384D02*
X157431599Y-99773098D01*
X157431599Y-99773098D02*
X157479218Y-99868336D01*
X157479218Y-99868336D02*
X157526837Y-99915956D01*
X157526837Y-99915956D02*
X157622075Y-99963575D01*
X157622075Y-99963575D02*
X157764932Y-99963575D01*
X157098265Y-99296908D02*
X156860170Y-99963575D01*
X156860170Y-99963575D02*
X156622075Y-99296908D01*
X156241122Y-99963575D02*
X156241122Y-99296908D01*
X156241122Y-98963575D02*
X156288741Y-99011194D01*
X156288741Y-99011194D02*
X156241122Y-99058813D01*
X156241122Y-99058813D02*
X156193503Y-99011194D01*
X156193503Y-99011194D02*
X156241122Y-98963575D01*
X156241122Y-98963575D02*
X156241122Y-99058813D01*
X155383980Y-99915956D02*
X155479218Y-99963575D01*
X155479218Y-99963575D02*
X155669694Y-99963575D01*
X155669694Y-99963575D02*
X155764932Y-99915956D01*
X155764932Y-99915956D02*
X155812551Y-99820717D01*
X155812551Y-99820717D02*
X155812551Y-99439765D01*
X155812551Y-99439765D02*
X155764932Y-99344527D01*
X155764932Y-99344527D02*
X155669694Y-99296908D01*
X155669694Y-99296908D02*
X155479218Y-99296908D01*
X155479218Y-99296908D02*
X155383980Y-99344527D01*
X155383980Y-99344527D02*
X155336361Y-99439765D01*
X155336361Y-99439765D02*
X155336361Y-99535003D01*
X155336361Y-99535003D02*
X155812551Y-99630241D01*
X154764932Y-99963575D02*
X154860170Y-99915956D01*
X154860170Y-99915956D02*
X154907789Y-99820717D01*
X154907789Y-99820717D02*
X154907789Y-98963575D01*
X170955410Y-100906852D02*
X170574458Y-100906852D01*
X170812553Y-101573519D02*
X170812553Y-100716376D01*
X170812553Y-100716376D02*
X170764934Y-100621138D01*
X170764934Y-100621138D02*
X170669696Y-100573519D01*
X170669696Y-100573519D02*
X170574458Y-100573519D01*
X170098267Y-101573519D02*
X170193505Y-101525900D01*
X170193505Y-101525900D02*
X170241124Y-101478280D01*
X170241124Y-101478280D02*
X170288743Y-101383042D01*
X170288743Y-101383042D02*
X170288743Y-101097328D01*
X170288743Y-101097328D02*
X170241124Y-101002090D01*
X170241124Y-101002090D02*
X170193505Y-100954471D01*
X170193505Y-100954471D02*
X170098267Y-100906852D01*
X170098267Y-100906852D02*
X169955410Y-100906852D01*
X169955410Y-100906852D02*
X169860172Y-100954471D01*
X169860172Y-100954471D02*
X169812553Y-101002090D01*
X169812553Y-101002090D02*
X169764934Y-101097328D01*
X169764934Y-101097328D02*
X169764934Y-101383042D01*
X169764934Y-101383042D02*
X169812553Y-101478280D01*
X169812553Y-101478280D02*
X169860172Y-101525900D01*
X169860172Y-101525900D02*
X169955410Y-101573519D01*
X169955410Y-101573519D02*
X170098267Y-101573519D01*
X169336362Y-101573519D02*
X169336362Y-100906852D01*
X169336362Y-101097328D02*
X169288743Y-101002090D01*
X169288743Y-101002090D02*
X169241124Y-100954471D01*
X169241124Y-100954471D02*
X169145886Y-100906852D01*
X169145886Y-100906852D02*
X169050648Y-100906852D01*
X168003028Y-101525900D02*
X167860171Y-101573519D01*
X167860171Y-101573519D02*
X167622076Y-101573519D01*
X167622076Y-101573519D02*
X167526838Y-101525900D01*
X167526838Y-101525900D02*
X167479219Y-101478280D01*
X167479219Y-101478280D02*
X167431600Y-101383042D01*
X167431600Y-101383042D02*
X167431600Y-101287804D01*
X167431600Y-101287804D02*
X167479219Y-101192566D01*
X167479219Y-101192566D02*
X167526838Y-101144947D01*
X167526838Y-101144947D02*
X167622076Y-101097328D01*
X167622076Y-101097328D02*
X167812552Y-101049709D01*
X167812552Y-101049709D02*
X167907790Y-101002090D01*
X167907790Y-101002090D02*
X167955409Y-100954471D01*
X167955409Y-100954471D02*
X168003028Y-100859233D01*
X168003028Y-100859233D02*
X168003028Y-100763995D01*
X168003028Y-100763995D02*
X167955409Y-100668757D01*
X167955409Y-100668757D02*
X167907790Y-100621138D01*
X167907790Y-100621138D02*
X167812552Y-100573519D01*
X167812552Y-100573519D02*
X167574457Y-100573519D01*
X167574457Y-100573519D02*
X167431600Y-100621138D01*
X166574457Y-101525900D02*
X166669695Y-101573519D01*
X166669695Y-101573519D02*
X166860171Y-101573519D01*
X166860171Y-101573519D02*
X166955409Y-101525900D01*
X166955409Y-101525900D02*
X167003028Y-101478280D01*
X167003028Y-101478280D02*
X167050647Y-101383042D01*
X167050647Y-101383042D02*
X167050647Y-101097328D01*
X167050647Y-101097328D02*
X167003028Y-101002090D01*
X167003028Y-101002090D02*
X166955409Y-100954471D01*
X166955409Y-100954471D02*
X166860171Y-100906852D01*
X166860171Y-100906852D02*
X166669695Y-100906852D01*
X166669695Y-100906852D02*
X166574457Y-100954471D01*
X166145885Y-101573519D02*
X166145885Y-100906852D01*
X166145885Y-100573519D02*
X166193504Y-100621138D01*
X166193504Y-100621138D02*
X166145885Y-100668757D01*
X166145885Y-100668757D02*
X166098266Y-100621138D01*
X166098266Y-100621138D02*
X166145885Y-100573519D01*
X166145885Y-100573519D02*
X166145885Y-100668757D01*
X165288743Y-101525900D02*
X165383981Y-101573519D01*
X165383981Y-101573519D02*
X165574457Y-101573519D01*
X165574457Y-101573519D02*
X165669695Y-101525900D01*
X165669695Y-101525900D02*
X165717314Y-101430661D01*
X165717314Y-101430661D02*
X165717314Y-101049709D01*
X165717314Y-101049709D02*
X165669695Y-100954471D01*
X165669695Y-100954471D02*
X165574457Y-100906852D01*
X165574457Y-100906852D02*
X165383981Y-100906852D01*
X165383981Y-100906852D02*
X165288743Y-100954471D01*
X165288743Y-100954471D02*
X165241124Y-101049709D01*
X165241124Y-101049709D02*
X165241124Y-101144947D01*
X165241124Y-101144947D02*
X165717314Y-101240185D01*
X164812552Y-100906852D02*
X164812552Y-101573519D01*
X164812552Y-101002090D02*
X164764933Y-100954471D01*
X164764933Y-100954471D02*
X164669695Y-100906852D01*
X164669695Y-100906852D02*
X164526838Y-100906852D01*
X164526838Y-100906852D02*
X164431600Y-100954471D01*
X164431600Y-100954471D02*
X164383981Y-101049709D01*
X164383981Y-101049709D02*
X164383981Y-101573519D01*
X163479219Y-101525900D02*
X163574457Y-101573519D01*
X163574457Y-101573519D02*
X163764933Y-101573519D01*
X163764933Y-101573519D02*
X163860171Y-101525900D01*
X163860171Y-101525900D02*
X163907790Y-101478280D01*
X163907790Y-101478280D02*
X163955409Y-101383042D01*
X163955409Y-101383042D02*
X163955409Y-101097328D01*
X163955409Y-101097328D02*
X163907790Y-101002090D01*
X163907790Y-101002090D02*
X163860171Y-100954471D01*
X163860171Y-100954471D02*
X163764933Y-100906852D01*
X163764933Y-100906852D02*
X163574457Y-100906852D01*
X163574457Y-100906852D02*
X163479219Y-100954471D01*
X162669695Y-101525900D02*
X162764933Y-101573519D01*
X162764933Y-101573519D02*
X162955409Y-101573519D01*
X162955409Y-101573519D02*
X163050647Y-101525900D01*
X163050647Y-101525900D02*
X163098266Y-101430661D01*
X163098266Y-101430661D02*
X163098266Y-101049709D01*
X163098266Y-101049709D02*
X163050647Y-100954471D01*
X163050647Y-100954471D02*
X162955409Y-100906852D01*
X162955409Y-100906852D02*
X162764933Y-100906852D01*
X162764933Y-100906852D02*
X162669695Y-100954471D01*
X162669695Y-100954471D02*
X162622076Y-101049709D01*
X162622076Y-101049709D02*
X162622076Y-101144947D01*
X162622076Y-101144947D02*
X163098266Y-101240185D01*
X161241123Y-100573519D02*
X161050647Y-100573519D01*
X161050647Y-100573519D02*
X160955409Y-100621138D01*
X160955409Y-100621138D02*
X160860171Y-100716376D01*
X160860171Y-100716376D02*
X160812552Y-100906852D01*
X160812552Y-100906852D02*
X160812552Y-101240185D01*
X160812552Y-101240185D02*
X160860171Y-101430661D01*
X160860171Y-101430661D02*
X160955409Y-101525900D01*
X160955409Y-101525900D02*
X161050647Y-101573519D01*
X161050647Y-101573519D02*
X161241123Y-101573519D01*
X161241123Y-101573519D02*
X161336361Y-101525900D01*
X161336361Y-101525900D02*
X161431599Y-101430661D01*
X161431599Y-101430661D02*
X161479218Y-101240185D01*
X161479218Y-101240185D02*
X161479218Y-100906852D01*
X161479218Y-100906852D02*
X161431599Y-100716376D01*
X161431599Y-100716376D02*
X161336361Y-100621138D01*
X161336361Y-100621138D02*
X161241123Y-100573519D01*
X160479218Y-101573519D02*
X159955409Y-100906852D01*
X160479218Y-100906852D02*
X159955409Y-101573519D01*
X159717313Y-100906852D02*
X159336361Y-100906852D01*
X159574456Y-101573519D02*
X159574456Y-100716376D01*
X159574456Y-100716376D02*
X159526837Y-100621138D01*
X159526837Y-100621138D02*
X159431599Y-100573519D01*
X159431599Y-100573519D02*
X159336361Y-100573519D01*
X158860170Y-101573519D02*
X158955408Y-101525900D01*
X158955408Y-101525900D02*
X159003027Y-101478280D01*
X159003027Y-101478280D02*
X159050646Y-101383042D01*
X159050646Y-101383042D02*
X159050646Y-101097328D01*
X159050646Y-101097328D02*
X159003027Y-101002090D01*
X159003027Y-101002090D02*
X158955408Y-100954471D01*
X158955408Y-100954471D02*
X158860170Y-100906852D01*
X158860170Y-100906852D02*
X158717313Y-100906852D01*
X158717313Y-100906852D02*
X158622075Y-100954471D01*
X158622075Y-100954471D02*
X158574456Y-101002090D01*
X158574456Y-101002090D02*
X158526837Y-101097328D01*
X158526837Y-101097328D02*
X158526837Y-101383042D01*
X158526837Y-101383042D02*
X158574456Y-101478280D01*
X158574456Y-101478280D02*
X158622075Y-101525900D01*
X158622075Y-101525900D02*
X158717313Y-101573519D01*
X158717313Y-101573519D02*
X158860170Y-101573519D01*
X158098265Y-101573519D02*
X158098265Y-100906852D01*
X158098265Y-101097328D02*
X158050646Y-101002090D01*
X158050646Y-101002090D02*
X158003027Y-100954471D01*
X158003027Y-100954471D02*
X157907789Y-100906852D01*
X157907789Y-100906852D02*
X157812551Y-100906852D01*
X157050646Y-101573519D02*
X157050646Y-100573519D01*
X157050646Y-101525900D02*
X157145884Y-101573519D01*
X157145884Y-101573519D02*
X157336360Y-101573519D01*
X157336360Y-101573519D02*
X157431598Y-101525900D01*
X157431598Y-101525900D02*
X157479217Y-101478280D01*
X157479217Y-101478280D02*
X157526836Y-101383042D01*
X157526836Y-101383042D02*
X157526836Y-101097328D01*
X157526836Y-101097328D02*
X157479217Y-101002090D01*
X157479217Y-101002090D02*
X157431598Y-100954471D01*
X157431598Y-100954471D02*
X157336360Y-100906852D01*
X157336360Y-100906852D02*
X157145884Y-100906852D01*
X157145884Y-100906852D02*
X157050646Y-100954471D01*
X168669695Y-104793407D02*
X168669695Y-104269597D01*
X168669695Y-104269597D02*
X168717314Y-104174359D01*
X168717314Y-104174359D02*
X168812552Y-104126740D01*
X168812552Y-104126740D02*
X169003028Y-104126740D01*
X169003028Y-104126740D02*
X169098266Y-104174359D01*
X168669695Y-104745788D02*
X168764933Y-104793407D01*
X168764933Y-104793407D02*
X169003028Y-104793407D01*
X169003028Y-104793407D02*
X169098266Y-104745788D01*
X169098266Y-104745788D02*
X169145885Y-104650549D01*
X169145885Y-104650549D02*
X169145885Y-104555311D01*
X169145885Y-104555311D02*
X169098266Y-104460073D01*
X169098266Y-104460073D02*
X169003028Y-104412454D01*
X169003028Y-104412454D02*
X168764933Y-104412454D01*
X168764933Y-104412454D02*
X168669695Y-104364835D01*
X168241123Y-104745788D02*
X168145885Y-104793407D01*
X168145885Y-104793407D02*
X167955409Y-104793407D01*
X167955409Y-104793407D02*
X167860171Y-104745788D01*
X167860171Y-104745788D02*
X167812552Y-104650549D01*
X167812552Y-104650549D02*
X167812552Y-104602930D01*
X167812552Y-104602930D02*
X167860171Y-104507692D01*
X167860171Y-104507692D02*
X167955409Y-104460073D01*
X167955409Y-104460073D02*
X168098266Y-104460073D01*
X168098266Y-104460073D02*
X168193504Y-104412454D01*
X168193504Y-104412454D02*
X168241123Y-104317216D01*
X168241123Y-104317216D02*
X168241123Y-104269597D01*
X168241123Y-104269597D02*
X168193504Y-104174359D01*
X168193504Y-104174359D02*
X168098266Y-104126740D01*
X168098266Y-104126740D02*
X167955409Y-104126740D01*
X167955409Y-104126740D02*
X167860171Y-104174359D01*
X167431599Y-104745788D02*
X167336361Y-104793407D01*
X167336361Y-104793407D02*
X167145885Y-104793407D01*
X167145885Y-104793407D02*
X167050647Y-104745788D01*
X167050647Y-104745788D02*
X167003028Y-104650549D01*
X167003028Y-104650549D02*
X167003028Y-104602930D01*
X167003028Y-104602930D02*
X167050647Y-104507692D01*
X167050647Y-104507692D02*
X167145885Y-104460073D01*
X167145885Y-104460073D02*
X167288742Y-104460073D01*
X167288742Y-104460073D02*
X167383980Y-104412454D01*
X167383980Y-104412454D02*
X167431599Y-104317216D01*
X167431599Y-104317216D02*
X167431599Y-104269597D01*
X167431599Y-104269597D02*
X167383980Y-104174359D01*
X167383980Y-104174359D02*
X167288742Y-104126740D01*
X167288742Y-104126740D02*
X167145885Y-104126740D01*
X167145885Y-104126740D02*
X167050647Y-104174359D01*
X166193504Y-104745788D02*
X166288742Y-104793407D01*
X166288742Y-104793407D02*
X166479218Y-104793407D01*
X166479218Y-104793407D02*
X166574456Y-104745788D01*
X166574456Y-104745788D02*
X166622075Y-104650549D01*
X166622075Y-104650549D02*
X166622075Y-104269597D01*
X166622075Y-104269597D02*
X166574456Y-104174359D01*
X166574456Y-104174359D02*
X166479218Y-104126740D01*
X166479218Y-104126740D02*
X166288742Y-104126740D01*
X166288742Y-104126740D02*
X166193504Y-104174359D01*
X166193504Y-104174359D02*
X166145885Y-104269597D01*
X166145885Y-104269597D02*
X166145885Y-104364835D01*
X166145885Y-104364835D02*
X166622075Y-104460073D01*
X165717313Y-104793407D02*
X165717313Y-104126740D01*
X165717313Y-104221978D02*
X165669694Y-104174359D01*
X165669694Y-104174359D02*
X165574456Y-104126740D01*
X165574456Y-104126740D02*
X165431599Y-104126740D01*
X165431599Y-104126740D02*
X165336361Y-104174359D01*
X165336361Y-104174359D02*
X165288742Y-104269597D01*
X165288742Y-104269597D02*
X165288742Y-104793407D01*
X165288742Y-104269597D02*
X165241123Y-104174359D01*
X165241123Y-104174359D02*
X165145885Y-104126740D01*
X165145885Y-104126740D02*
X165003028Y-104126740D01*
X165003028Y-104126740D02*
X164907789Y-104174359D01*
X164907789Y-104174359D02*
X164860170Y-104269597D01*
X164860170Y-104269597D02*
X164860170Y-104793407D01*
X164383980Y-104793407D02*
X164383980Y-103793407D01*
X164383980Y-104174359D02*
X164288742Y-104126740D01*
X164288742Y-104126740D02*
X164098266Y-104126740D01*
X164098266Y-104126740D02*
X164003028Y-104174359D01*
X164003028Y-104174359D02*
X163955409Y-104221978D01*
X163955409Y-104221978D02*
X163907790Y-104317216D01*
X163907790Y-104317216D02*
X163907790Y-104602930D01*
X163907790Y-104602930D02*
X163955409Y-104698168D01*
X163955409Y-104698168D02*
X164003028Y-104745788D01*
X164003028Y-104745788D02*
X164098266Y-104793407D01*
X164098266Y-104793407D02*
X164288742Y-104793407D01*
X164288742Y-104793407D02*
X164383980Y-104745788D01*
X163336361Y-104793407D02*
X163431599Y-104745788D01*
X163431599Y-104745788D02*
X163479218Y-104650549D01*
X163479218Y-104650549D02*
X163479218Y-103793407D01*
X162574456Y-104745788D02*
X162669694Y-104793407D01*
X162669694Y-104793407D02*
X162860170Y-104793407D01*
X162860170Y-104793407D02*
X162955408Y-104745788D01*
X162955408Y-104745788D02*
X163003027Y-104650549D01*
X163003027Y-104650549D02*
X163003027Y-104269597D01*
X163003027Y-104269597D02*
X162955408Y-104174359D01*
X162955408Y-104174359D02*
X162860170Y-104126740D01*
X162860170Y-104126740D02*
X162669694Y-104126740D01*
X162669694Y-104126740D02*
X162574456Y-104174359D01*
X162574456Y-104174359D02*
X162526837Y-104269597D01*
X162526837Y-104269597D02*
X162526837Y-104364835D01*
X162526837Y-104364835D02*
X163003027Y-104460073D01*
X161669694Y-104793407D02*
X161669694Y-103793407D01*
X161669694Y-104745788D02*
X161764932Y-104793407D01*
X161764932Y-104793407D02*
X161955408Y-104793407D01*
X161955408Y-104793407D02*
X162050646Y-104745788D01*
X162050646Y-104745788D02*
X162098265Y-104698168D01*
X162098265Y-104698168D02*
X162145884Y-104602930D01*
X162145884Y-104602930D02*
X162145884Y-104317216D01*
X162145884Y-104317216D02*
X162098265Y-104221978D01*
X162098265Y-104221978D02*
X162050646Y-104174359D01*
X162050646Y-104174359D02*
X161955408Y-104126740D01*
X161955408Y-104126740D02*
X161764932Y-104126740D01*
X161764932Y-104126740D02*
X161669694Y-104174359D01*
X160431598Y-104793407D02*
X160431598Y-103793407D01*
X160431598Y-104174359D02*
X160336360Y-104126740D01*
X160336360Y-104126740D02*
X160145884Y-104126740D01*
X160145884Y-104126740D02*
X160050646Y-104174359D01*
X160050646Y-104174359D02*
X160003027Y-104221978D01*
X160003027Y-104221978D02*
X159955408Y-104317216D01*
X159955408Y-104317216D02*
X159955408Y-104602930D01*
X159955408Y-104602930D02*
X160003027Y-104698168D01*
X160003027Y-104698168D02*
X160050646Y-104745788D01*
X160050646Y-104745788D02*
X160145884Y-104793407D01*
X160145884Y-104793407D02*
X160336360Y-104793407D01*
X160336360Y-104793407D02*
X160431598Y-104745788D01*
X159622074Y-104126740D02*
X159383979Y-104793407D01*
X159145884Y-104126740D02*
X159383979Y-104793407D01*
X159383979Y-104793407D02*
X159479217Y-105031502D01*
X159479217Y-105031502D02*
X159526836Y-105079121D01*
X159526836Y-105079121D02*
X159622074Y-105126740D01*
X158764931Y-104698168D02*
X158717312Y-104745788D01*
X158717312Y-104745788D02*
X158764931Y-104793407D01*
X158764931Y-104793407D02*
X158812550Y-104745788D01*
X158812550Y-104745788D02*
X158764931Y-104698168D01*
X158764931Y-104698168D02*
X158764931Y-104793407D01*
X158764931Y-104174359D02*
X158717312Y-104221978D01*
X158717312Y-104221978D02*
X158764931Y-104269597D01*
X158764931Y-104269597D02*
X158812550Y-104221978D01*
X158812550Y-104221978D02*
X158764931Y-104174359D01*
X158764931Y-104174359D02*
X158764931Y-104269597D01*
D14*
%TO.P,LED1,1*%
%TO.N,GND*%
X145770600Y-63144400D03*
D15*
%TO.P,LED1,2*%
%TO.N,Net-(D1-Pad2)*%
X148310600Y-63144400D03*
%TD*%
D14*
%TO.P,LED2,1*%
%TO.N,GND*%
X195986400Y-110540800D03*
D15*
%TO.P,LED2,2*%
%TO.N,Net-(D2-Pad2)*%
X198526400Y-110540800D03*
%TD*%
D16*
%TO.P,Resistor 1,1*%
%TO.N,Net-(R1-Pad1)*%
X124739400Y-124714000D03*
D17*
%TO.P,Resistor 1,2*%
%TO.N,Net-(D1-Pad2)*%
X132359400Y-124714000D03*
%TD*%
D16*
%TO.P,Resistor 2,1*%
%TO.N,Net-(R1-Pad1)*%
X131597400Y-128219200D03*
D17*
%TO.P,Resistor 2,2*%
%TO.N,Net-(D2-Pad2)*%
X139217400Y-128219200D03*
%TD*%
D18*
%TO.P,BAT1,1*%
%TO.N,Net-(BAT1-Pad1)*%
X145110200Y-83769200D03*
%TO.P,BAT1,2*%
X123510200Y-83769200D03*
D19*
%TO.P,BAT1,3*%
%TO.N,GND*%
X134310200Y-82499200D03*
%TD*%
D20*
%TO.P,Switch,1*%
%TO.N,Net-(BAT1-Pad1)*%
X111836200Y-127584200D03*
%TO.P,Switch,2*%
%TO.N,Net-(R1-Pad1)*%
X111836200Y-130124200D03*
%TO.P,Switch,3*%
%TO.N,N/C*%
X111836200Y-132664200D03*
%TD*%
D21*
%TO.P,wire hanging pad,1*%
%TO.N,N/C*%
X139082780Y-56504840D03*
%TD*%
D22*
%TO.N,Net-(BAT1-Pad1)*%
X121818400Y-122605800D02*
X121920000Y-122605800D01*
X123510200Y-85769200D02*
X124358400Y-86617400D01*
X139217400Y-111937800D02*
X134264400Y-106984800D01*
X139217400Y-117830600D02*
X139217400Y-111937800D01*
X145110200Y-96139000D02*
X134264400Y-106984800D01*
X121920000Y-122605800D02*
X123342400Y-121183400D01*
X123510200Y-83769200D02*
X123510200Y-85769200D01*
X135864600Y-121183400D02*
X139217400Y-117830600D01*
X111836200Y-127584200D02*
X116840000Y-127584200D01*
X124358400Y-97078800D02*
X134264400Y-106984800D01*
X124358400Y-86617400D02*
X124358400Y-97078800D01*
X116840000Y-127584200D02*
X121818400Y-122605800D01*
X145110200Y-83769200D02*
X145110200Y-96139000D01*
X123342400Y-121183400D02*
X135864600Y-121183400D01*
%TO.N,Net-(D1-Pad2)*%
X133490770Y-124714000D02*
X134303570Y-123901200D01*
X153085800Y-75666600D02*
X148310600Y-70891400D01*
X134303570Y-123901200D02*
X142748000Y-123901200D01*
X153085800Y-94640400D02*
X153085800Y-75666600D01*
X149174200Y-117475000D02*
X149174200Y-98552000D01*
X142748000Y-123901200D02*
X149174200Y-117475000D01*
X132359400Y-124714000D02*
X133490770Y-124714000D01*
X148310600Y-70891400D02*
X148310600Y-63144400D01*
X149174200Y-98552000D02*
X153085800Y-94640400D01*
%TO.N,Net-(D2-Pad2)*%
X139217400Y-128219200D02*
X146481800Y-128219200D01*
X176377600Y-115519200D02*
X188468000Y-115519200D01*
X154889200Y-119811800D02*
X172085000Y-119811800D01*
X172085000Y-119811800D02*
X176377600Y-115519200D01*
X188468000Y-115519200D02*
X189534800Y-114452400D01*
X146481800Y-128219200D02*
X154889200Y-119811800D01*
X194614800Y-114452400D02*
X198526400Y-110540800D01*
X189534800Y-114452400D02*
X194614800Y-114452400D01*
%TO.N,Net-(R1-Pad1)*%
X124739400Y-125845370D02*
X127113230Y-128219200D01*
X130466030Y-128219200D02*
X131597400Y-128219200D01*
X124739400Y-124714000D02*
X124739400Y-125845370D01*
X112913830Y-130124200D02*
X111836200Y-130124200D01*
X124739400Y-125845370D02*
X120460570Y-130124200D01*
X127113230Y-128219200D02*
X130466030Y-128219200D01*
X120460570Y-130124200D02*
X112913830Y-130124200D01*
%TD*%
%TA.AperFunction,Conductor*%
%TO.N,GND*%
G36*
X143049391Y-49488052D02*
G01*
X143055723Y-49488373D01*
X143729718Y-49539635D01*
X143736042Y-49540276D01*
X144400338Y-49624698D01*
X144406557Y-49625647D01*
X145060081Y-49742387D01*
X145066237Y-49743647D01*
X145708373Y-49891860D01*
X145714405Y-49893412D01*
X146344217Y-50072280D01*
X146350170Y-50074132D01*
X146966698Y-50282802D01*
X146972506Y-50284928D01*
X147575249Y-50522581D01*
X147580929Y-50524983D01*
X148168792Y-50790800D01*
X148174289Y-50793449D01*
X148493350Y-50956880D01*
X148746555Y-51086579D01*
X148751924Y-51089495D01*
X148846269Y-51143748D01*
X149307757Y-51409128D01*
X149312930Y-51412272D01*
X149851373Y-51757543D01*
X149856371Y-51760920D01*
X150376790Y-52131027D01*
X150381630Y-52134647D01*
X150882978Y-52528718D01*
X150887616Y-52532546D01*
X151369256Y-52949797D01*
X151373694Y-52953830D01*
X151834711Y-53393390D01*
X151838942Y-53397621D01*
X152278442Y-53858657D01*
X152282478Y-53863098D01*
X152645942Y-54282746D01*
X152699670Y-54344779D01*
X152703505Y-54349427D01*
X152819428Y-54496974D01*
X153097488Y-54850887D01*
X153101095Y-54855711D01*
X153237306Y-55047279D01*
X153471188Y-55376210D01*
X153474572Y-55381221D01*
X153637871Y-55635972D01*
X153819793Y-55919777D01*
X153822941Y-55924958D01*
X154142576Y-56480743D01*
X154145502Y-56486130D01*
X154438583Y-57058475D01*
X154441248Y-57064007D01*
X154706998Y-57651953D01*
X154709402Y-57657638D01*
X154947028Y-58260388D01*
X154949162Y-58266222D01*
X155136228Y-58819189D01*
X155157760Y-58882836D01*
X155159611Y-58888786D01*
X155338512Y-59518643D01*
X155340082Y-59524749D01*
X155488204Y-60166869D01*
X155489465Y-60173038D01*
X155606202Y-60826695D01*
X155607161Y-60832969D01*
X155691544Y-61497264D01*
X155692184Y-61503577D01*
X155743503Y-62177643D01*
X155743827Y-62184023D01*
X155761117Y-62867862D01*
X155761134Y-62873459D01*
X155751771Y-63362448D01*
X155751594Y-63367135D01*
X155724064Y-63854992D01*
X155723715Y-63859643D01*
X155678212Y-64345458D01*
X155677707Y-64349968D01*
X155616782Y-64818136D01*
X155610793Y-64843413D01*
X155609926Y-64845893D01*
X155610246Y-64851519D01*
X155610244Y-64851551D01*
X155610256Y-64851582D01*
X155611724Y-64857028D01*
X155613321Y-64859103D01*
X155626961Y-64881218D01*
X155628098Y-64883577D01*
X155632293Y-64887321D01*
X155632322Y-64887353D01*
X155632362Y-64887371D01*
X155637239Y-64890177D01*
X155637240Y-64890178D01*
X155639832Y-64890515D01*
X155665119Y-64896507D01*
X156115643Y-65053877D01*
X156405473Y-65155116D01*
X156408537Y-65156231D01*
X156633158Y-65241273D01*
X157187836Y-65451277D01*
X157190646Y-65452380D01*
X157955053Y-65763574D01*
X157958173Y-65764894D01*
X158482376Y-65995131D01*
X158668760Y-66076993D01*
X158672755Y-66078831D01*
X159290105Y-66376135D01*
X159296142Y-66379247D01*
X159644355Y-66570839D01*
X159781436Y-66646263D01*
X159789026Y-66650793D01*
X159950741Y-66755173D01*
X159964631Y-66764138D01*
X159973188Y-66770179D01*
X160096842Y-66865454D01*
X160111297Y-66878491D01*
X160156329Y-66925909D01*
X160188734Y-66989077D01*
X160181843Y-67059738D01*
X160169071Y-67083649D01*
X160168287Y-67084799D01*
X160149462Y-67106576D01*
X159991663Y-67251668D01*
X159978779Y-67262039D01*
X159707766Y-67452309D01*
X159700778Y-67456877D01*
X159335499Y-67678744D01*
X159330995Y-67681354D01*
X158890945Y-67924345D01*
X158887715Y-67926068D01*
X158391141Y-68181733D01*
X158387335Y-68183612D01*
X157285808Y-68704581D01*
X157281351Y-68706584D01*
X156147610Y-69189929D01*
X156143864Y-69191456D01*
X155606925Y-69400265D01*
X155603730Y-69401458D01*
X155107137Y-69579259D01*
X155102747Y-69580739D01*
X154874760Y-69652986D01*
X154664654Y-69719566D01*
X154657888Y-69721504D01*
X154297261Y-69813974D01*
X154284833Y-69816501D01*
X154021129Y-69856441D01*
X154001900Y-69857861D01*
X153928528Y-69857651D01*
X153902981Y-69854959D01*
X153881324Y-69850408D01*
X153856245Y-69842324D01*
X153855321Y-69841915D01*
X153855320Y-69841914D01*
X153855318Y-69841914D01*
X153850604Y-69841801D01*
X153827723Y-69839146D01*
X153823113Y-69838177D01*
X153822111Y-69838366D01*
X153818060Y-69838694D01*
X153814442Y-69840548D01*
X153813497Y-69840912D01*
X153810077Y-69844173D01*
X153792030Y-69858466D01*
X153788078Y-69861045D01*
X153787500Y-69861892D01*
X153784874Y-69864980D01*
X153783631Y-69868838D01*
X153783214Y-69869778D01*
X153783102Y-69874489D01*
X153780447Y-69897374D01*
X153779478Y-69901986D01*
X153779664Y-69902976D01*
X153779993Y-69907037D01*
X153781850Y-69910661D01*
X153782214Y-69911604D01*
X153785461Y-69915010D01*
X153799770Y-69933075D01*
X153802345Y-69937020D01*
X153803171Y-69937585D01*
X153823254Y-69954657D01*
X154611320Y-70781396D01*
X154611964Y-70782076D01*
X156842420Y-73157079D01*
X156843000Y-73157702D01*
X158388879Y-74826215D01*
X158389347Y-74826723D01*
X160169178Y-76768993D01*
X160169695Y-76769560D01*
X162143403Y-78949896D01*
X162143985Y-78950544D01*
X163582958Y-80562424D01*
X164211598Y-81266602D01*
X164271090Y-81333242D01*
X164271727Y-81333961D01*
X165650507Y-82902724D01*
X166512557Y-83883557D01*
X166513295Y-83884404D01*
X168818581Y-86555003D01*
X168827491Y-86565324D01*
X168828290Y-86566260D01*
X171083812Y-89234015D01*
X171175947Y-89342989D01*
X171176913Y-89344146D01*
X173517873Y-92181103D01*
X173518995Y-92182482D01*
X175813345Y-95044272D01*
X175814291Y-95045468D01*
X176313045Y-95683523D01*
X176930861Y-96473894D01*
X176931577Y-96474819D01*
X177442576Y-97141196D01*
X177975321Y-97835932D01*
X178021797Y-97896539D01*
X178022578Y-97897569D01*
X179080853Y-99307339D01*
X179081707Y-99308489D01*
X179609724Y-100028789D01*
X180103463Y-100702328D01*
X180104333Y-100703530D01*
X181084117Y-102076786D01*
X181085016Y-102078065D01*
X182015727Y-103422835D01*
X182019889Y-103429258D01*
X182126427Y-103605134D01*
X182134447Y-103620731D01*
X182193512Y-103758410D01*
X182201142Y-103782737D01*
X182221342Y-103881090D01*
X182223434Y-103917473D01*
X182218137Y-103977727D01*
X182205990Y-104021679D01*
X182187424Y-104059958D01*
X182160446Y-104096692D01*
X182121564Y-104133315D01*
X182092363Y-104153868D01*
X182018462Y-104191512D01*
X181995168Y-104200594D01*
X181883064Y-104231906D01*
X181866190Y-104235396D01*
X181720125Y-104255311D01*
X181708014Y-104256370D01*
X181535505Y-104263099D01*
X181523131Y-104262974D01*
X181101003Y-104237928D01*
X181090458Y-104236855D01*
X180603958Y-104166602D01*
X180597229Y-104165444D01*
X180067787Y-104059437D01*
X180063109Y-104058407D01*
X179513974Y-103926567D01*
X179510605Y-103925709D01*
X178964760Y-103778618D01*
X178961188Y-103777599D01*
X177963559Y-103476957D01*
X177959715Y-103475731D01*
X176993913Y-103150605D01*
X176983960Y-103145265D01*
X176955729Y-103137532D01*
X176948828Y-103135428D01*
X176933787Y-103130365D01*
X176933786Y-103130365D01*
X176933435Y-103130247D01*
X176930987Y-103130484D01*
X176916894Y-103138516D01*
X176910528Y-103141907D01*
X176895982Y-103149126D01*
X176894417Y-103151028D01*
X176890128Y-103166683D01*
X176888024Y-103173581D01*
X176882847Y-103188961D01*
X176883084Y-103191410D01*
X176891111Y-103205493D01*
X176894507Y-103211870D01*
X176907528Y-103238107D01*
X176914681Y-103246849D01*
X179360817Y-107538603D01*
X179370344Y-107564241D01*
X179378413Y-107576391D01*
X179385483Y-107581878D01*
X179385484Y-107581880D01*
X179385485Y-107581880D01*
X179389947Y-107585343D01*
X179402647Y-107591162D01*
X179408180Y-107592279D01*
X179408182Y-107592280D01*
X179408183Y-107592279D01*
X179416953Y-107594050D01*
X179425831Y-107592931D01*
X179425833Y-107592932D01*
X179425834Y-107592931D01*
X179431433Y-107592226D01*
X179457062Y-107582702D01*
X198868012Y-103779385D01*
X198938706Y-103785916D01*
X198967510Y-103801989D01*
X199430551Y-104146923D01*
X199433310Y-104149038D01*
X199670308Y-104336129D01*
X199992532Y-104590498D01*
X199995476Y-104592895D01*
X200668149Y-105157626D01*
X200671925Y-105160927D01*
X201394017Y-105817879D01*
X201397482Y-105821155D01*
X201755378Y-106172728D01*
X201758210Y-106175602D01*
X202104594Y-106538580D01*
X202107924Y-106542209D01*
X202433941Y-106911747D01*
X202437808Y-106916346D01*
X202735375Y-107287939D01*
X202739926Y-107293987D01*
X203000757Y-107663123D01*
X203006012Y-107671199D01*
X203221896Y-108032451D01*
X203228068Y-108044126D01*
X203405371Y-108426890D01*
X203409629Y-108437272D01*
X203572699Y-108891457D01*
X203575132Y-108898964D01*
X203723763Y-109411848D01*
X203725253Y-109417474D01*
X203859264Y-109975048D01*
X203860226Y-109979383D01*
X203979926Y-110567974D01*
X203980572Y-110571391D01*
X204086378Y-111176774D01*
X204086998Y-111180685D01*
X204259921Y-112393744D01*
X204260412Y-112397620D01*
X204385183Y-113521254D01*
X204385469Y-113524122D01*
X204467348Y-114455169D01*
X204467535Y-114457561D01*
X204517705Y-115186968D01*
X204502425Y-115256301D01*
X204452086Y-115306366D01*
X204427756Y-115316435D01*
X186872121Y-120511596D01*
X186852128Y-120515785D01*
X186841165Y-120517167D01*
X186840718Y-120517422D01*
X186814096Y-120528768D01*
X186813612Y-120528911D01*
X186808694Y-120532890D01*
X186804819Y-120537884D01*
X186804686Y-120538372D01*
X186793883Y-120565225D01*
X186793639Y-120565672D01*
X186792976Y-120571964D01*
X186793767Y-120578232D01*
X186794013Y-120578664D01*
X186805367Y-120605302D01*
X186805510Y-120605786D01*
X186812453Y-120614364D01*
X186823981Y-120631241D01*
X189913157Y-126051029D01*
X189915723Y-126055764D01*
X190038947Y-126295193D01*
X190045151Y-126309309D01*
X190109501Y-126484046D01*
X190115970Y-126509579D01*
X190130915Y-126613060D01*
X190128809Y-126660141D01*
X190122172Y-126688131D01*
X190086993Y-126749799D01*
X190031570Y-126780929D01*
X189987591Y-126792476D01*
X189950124Y-126796488D01*
X189839664Y-126791689D01*
X189818805Y-126789027D01*
X189654872Y-126753999D01*
X189642445Y-126750671D01*
X189523467Y-126712207D01*
X189437656Y-126684465D01*
X189429719Y-126681602D01*
X189192982Y-126587137D01*
X189185426Y-126583831D01*
X188627962Y-126317880D01*
X188621882Y-126314775D01*
X188022012Y-125987591D01*
X187988158Y-125969126D01*
X187984393Y-125966988D01*
X187301425Y-125563408D01*
X187298844Y-125561841D01*
X186594690Y-125122639D01*
X186592849Y-125121468D01*
X186007298Y-124742003D01*
X185895405Y-124669490D01*
X185893501Y-124668232D01*
X185699776Y-124537579D01*
X184624713Y-123812528D01*
X184622638Y-123811098D01*
X183372444Y-122931069D01*
X183352954Y-122911944D01*
X183340415Y-122904328D01*
X183331663Y-122902364D01*
X183331662Y-122902364D01*
X183326100Y-122901116D01*
X183312269Y-122901246D01*
X183298025Y-122904724D01*
X183285629Y-122912579D01*
X183275943Y-122922448D01*
X183268325Y-122934989D01*
X183265116Y-122949298D01*
X183265246Y-122963130D01*
X183268726Y-122977380D01*
X183276584Y-122989780D01*
X183296074Y-123008905D01*
X184164054Y-124193843D01*
X184165204Y-124195438D01*
X185014011Y-125392967D01*
X185015533Y-125395164D01*
X185232582Y-125715580D01*
X185907714Y-126712240D01*
X185909466Y-126714898D01*
X186161859Y-127109089D01*
X186317076Y-127351510D01*
X186318899Y-127354446D01*
X186672534Y-127941624D01*
X186675279Y-127946416D01*
X186952353Y-128455709D01*
X186956824Y-128464775D01*
X187135850Y-128867825D01*
X187141139Y-128881959D01*
X187154600Y-128925760D01*
X187183472Y-129019711D01*
X187184349Y-129022563D01*
X187188655Y-129041853D01*
X187195461Y-129089756D01*
X187185240Y-129160013D01*
X187138658Y-129213591D01*
X187070504Y-129233480D01*
X187033983Y-129228007D01*
X186984455Y-129212913D01*
X186963998Y-129204660D01*
X186803645Y-129122983D01*
X186793055Y-129116927D01*
X186572283Y-128976052D01*
X186569538Y-128974249D01*
X185332141Y-128138495D01*
X185329879Y-128136241D01*
X185311667Y-128124314D01*
X185295194Y-128113526D01*
X185293782Y-128112586D01*
X185259492Y-128089426D01*
X185256531Y-128088205D01*
X184063911Y-127307171D01*
X184061689Y-127305019D01*
X184026659Y-127282759D01*
X184025211Y-127281825D01*
X183990465Y-127259073D01*
X183987586Y-127257932D01*
X182806394Y-126507392D01*
X182804189Y-126505313D01*
X182768731Y-126483447D01*
X182767295Y-126482548D01*
X182732194Y-126460245D01*
X182729354Y-126459165D01*
X181561535Y-125739012D01*
X181559377Y-125737032D01*
X181523559Y-125715580D01*
X181522170Y-125714736D01*
X181486618Y-125692815D01*
X181483861Y-125691808D01*
X180331289Y-125001576D01*
X180329149Y-124999662D01*
X180292936Y-124978595D01*
X180291564Y-124977785D01*
X180255690Y-124956303D01*
X180252978Y-124955353D01*
X179885301Y-124741473D01*
X179117543Y-124294863D01*
X179115451Y-124293039D01*
X179096163Y-124282134D01*
X179078877Y-124272360D01*
X179077592Y-124271624D01*
X179041314Y-124250521D01*
X179038680Y-124249634D01*
X177922545Y-123618608D01*
X177920483Y-123616853D01*
X177883498Y-123596523D01*
X177882265Y-123595835D01*
X177864945Y-123586044D01*
X177845665Y-123575144D01*
X177843081Y-123574308D01*
X176711972Y-122952604D01*
X176706725Y-122949553D01*
X176692284Y-122940684D01*
X176690142Y-122940395D01*
X176673878Y-122945121D01*
X176668015Y-122946673D01*
X104959751Y-140086830D01*
X104888847Y-140083212D01*
X104831154Y-140041835D01*
X104804990Y-139975836D01*
X104807505Y-139936747D01*
X105057107Y-138822439D01*
X105057826Y-138820805D01*
X105062747Y-138798001D01*
X105062748Y-138798001D01*
X105067034Y-138778136D01*
X105067217Y-138777309D01*
X105076728Y-138734851D01*
X105076762Y-138733062D01*
X105391256Y-137275918D01*
X105392034Y-137274105D01*
X105396706Y-137251513D01*
X105396708Y-137251512D01*
X105400853Y-137231468D01*
X105400964Y-137230939D01*
X105405267Y-137211007D01*
X105405266Y-137211005D01*
X105410118Y-137188525D01*
X105410141Y-137186553D01*
X105780306Y-135396694D01*
X105781340Y-135394217D01*
X105785606Y-135372274D01*
X105785608Y-135372274D01*
X105789424Y-135352648D01*
X105789690Y-135351324D01*
X105793720Y-135331843D01*
X105793719Y-135331842D01*
X105798229Y-135310039D01*
X105798234Y-135307353D01*
X106179040Y-133349359D01*
X106180458Y-133345813D01*
X106184138Y-133324987D01*
X106184139Y-133324987D01*
X106187522Y-133305837D01*
X106187900Y-133303805D01*
X106191615Y-133284708D01*
X106191614Y-133284707D01*
X106195639Y-133264015D01*
X106195590Y-133260185D01*
X106223828Y-133100399D01*
X106542118Y-131299326D01*
X106543585Y-131295457D01*
X106546818Y-131274920D01*
X106546820Y-131274920D01*
X106549823Y-131255847D01*
X106550193Y-131253638D01*
X106557170Y-131214167D01*
X106557042Y-131210016D01*
X106696529Y-130324411D01*
X106697841Y-130320753D01*
X106700751Y-130299900D01*
X106700753Y-130299899D01*
X106703448Y-130280583D01*
X106703733Y-130278667D01*
X106706770Y-130259393D01*
X106706769Y-130259392D01*
X106710043Y-130238612D01*
X106709851Y-130234718D01*
X106824944Y-129410235D01*
X106826603Y-129405285D01*
X106831004Y-129367090D01*
X106831377Y-129364157D01*
X106833987Y-129345464D01*
X106833986Y-129345463D01*
X106836701Y-129326019D01*
X106836337Y-129320809D01*
X106922030Y-128577216D01*
X106924145Y-128570232D01*
X106925543Y-128552790D01*
X106925545Y-128552790D01*
X106926975Y-128534954D01*
X106927390Y-128530709D01*
X106929443Y-128512901D01*
X106929442Y-128512900D01*
X106931444Y-128495537D01*
X106930721Y-128488264D01*
X106982317Y-127845171D01*
X106985255Y-127833440D01*
X106985754Y-127805388D01*
X106986138Y-127797547D01*
X106986220Y-127796529D01*
X106987371Y-127782188D01*
X106987370Y-127782187D01*
X106988379Y-127769617D01*
X106986604Y-127757655D01*
X106989692Y-127584200D01*
X110560847Y-127584200D01*
X110580222Y-127805663D01*
X110608718Y-127912011D01*
X110637759Y-128020393D01*
X110637761Y-128020399D01*
X110731711Y-128221875D01*
X110731712Y-128221877D01*
X110859216Y-128403972D01*
X110859220Y-128403977D01*
X110859223Y-128403981D01*
X111016419Y-128561177D01*
X111016423Y-128561180D01*
X111016427Y-128561183D01*
X111120324Y-128633932D01*
X111198523Y-128688688D01*
X111308573Y-128740005D01*
X111361858Y-128786922D01*
X111381319Y-128855199D01*
X111360777Y-128923159D01*
X111308573Y-128968395D01*
X111198523Y-129019712D01*
X111016422Y-129147220D01*
X111016416Y-129147225D01*
X110859225Y-129304416D01*
X110859220Y-129304422D01*
X110731712Y-129486523D01*
X110637761Y-129688001D01*
X110637760Y-129688004D01*
X110580222Y-129902737D01*
X110560847Y-130124200D01*
X110580222Y-130345663D01*
X110626473Y-130518274D01*
X110637759Y-130560393D01*
X110637761Y-130560399D01*
X110731711Y-130761875D01*
X110731712Y-130761877D01*
X110859216Y-130943972D01*
X110859220Y-130943977D01*
X110859223Y-130943981D01*
X111016419Y-131101177D01*
X111016423Y-131101180D01*
X111016427Y-131101183D01*
X111120324Y-131173932D01*
X111198523Y-131228688D01*
X111297668Y-131274920D01*
X111308573Y-131280005D01*
X111361858Y-131326922D01*
X111381319Y-131395199D01*
X111360777Y-131463159D01*
X111308573Y-131508395D01*
X111198523Y-131559712D01*
X111016422Y-131687220D01*
X111016416Y-131687225D01*
X110859225Y-131844416D01*
X110859220Y-131844422D01*
X110731712Y-132026523D01*
X110731712Y-132026524D01*
X110637760Y-132228004D01*
X110580222Y-132442737D01*
X110560847Y-132664200D01*
X110580222Y-132885663D01*
X110626473Y-133058274D01*
X110637759Y-133100393D01*
X110637761Y-133100399D01*
X110731711Y-133301875D01*
X110731712Y-133301877D01*
X110859216Y-133483972D01*
X110859220Y-133483977D01*
X110859223Y-133483981D01*
X111016419Y-133641177D01*
X111016423Y-133641180D01*
X111016427Y-133641183D01*
X111120324Y-133713932D01*
X111198523Y-133768688D01*
X111400004Y-133862640D01*
X111614737Y-133920178D01*
X111836200Y-133939553D01*
X112057663Y-133920178D01*
X112272396Y-133862640D01*
X112473877Y-133768688D01*
X112655981Y-133641177D01*
X112813177Y-133483981D01*
X112940688Y-133301877D01*
X113034640Y-133100396D01*
X113092178Y-132885663D01*
X113111553Y-132664200D01*
X113092178Y-132442737D01*
X113034640Y-132228004D01*
X112940688Y-132026524D01*
X112813177Y-131844419D01*
X112655981Y-131687223D01*
X112655977Y-131687220D01*
X112655972Y-131687216D01*
X112473877Y-131559712D01*
X112473875Y-131559711D01*
X112363827Y-131508395D01*
X112310542Y-131461478D01*
X112291081Y-131393201D01*
X112311623Y-131325241D01*
X112363827Y-131280005D01*
X112374732Y-131274920D01*
X112473877Y-131228688D01*
X112655981Y-131101177D01*
X112813177Y-130943981D01*
X112859768Y-130877441D01*
X112905992Y-130811429D01*
X112961450Y-130767101D01*
X113009205Y-130757700D01*
X120522963Y-130757700D01*
X120522964Y-130757700D01*
X120645355Y-130733355D01*
X120760645Y-130685600D01*
X120864403Y-130616271D01*
X124650304Y-126830368D01*
X124712616Y-126796344D01*
X124783431Y-126801408D01*
X124828494Y-126830369D01*
X126709397Y-128711272D01*
X126813155Y-128780601D01*
X126894677Y-128814368D01*
X126928445Y-128828355D01*
X127050836Y-128852700D01*
X127050837Y-128852700D01*
X127175624Y-128852700D01*
X130378006Y-128852700D01*
X130446127Y-128872702D01*
X130481219Y-128906429D01*
X130580327Y-129047969D01*
X130591202Y-129063500D01*
X130753100Y-129225398D01*
X130940651Y-129356723D01*
X131148157Y-129453484D01*
X131369313Y-129512743D01*
X131597400Y-129532698D01*
X131825487Y-129512743D01*
X132046643Y-129453484D01*
X132254149Y-129356723D01*
X132441700Y-129225398D01*
X132603598Y-129063500D01*
X132734923Y-128875949D01*
X132831684Y-128668443D01*
X132890943Y-128447287D01*
X132910898Y-128219200D01*
X137903902Y-128219200D01*
X137920067Y-128403972D01*
X137923857Y-128447286D01*
X137983115Y-128668440D01*
X137983117Y-128668446D01*
X138079877Y-128875949D01*
X138196044Y-129041853D01*
X138211202Y-129063500D01*
X138373100Y-129225398D01*
X138560651Y-129356723D01*
X138768157Y-129453484D01*
X138989313Y-129512743D01*
X139217400Y-129532698D01*
X139445487Y-129512743D01*
X139666643Y-129453484D01*
X139874149Y-129356723D01*
X140061700Y-129225398D01*
X140223598Y-129063500D01*
X140333581Y-128906429D01*
X140389038Y-128862101D01*
X140436794Y-128852700D01*
X146544193Y-128852700D01*
X146544194Y-128852700D01*
X146666585Y-128828355D01*
X146781875Y-128780600D01*
X146885633Y-128711271D01*
X155114699Y-120482205D01*
X155177011Y-120448179D01*
X155203794Y-120445300D01*
X172147393Y-120445300D01*
X172147394Y-120445300D01*
X172269785Y-120420955D01*
X172385075Y-120373200D01*
X172488833Y-120303871D01*
X176603099Y-116189605D01*
X176665411Y-116155579D01*
X176692194Y-116152700D01*
X188530393Y-116152700D01*
X188530394Y-116152700D01*
X188652785Y-116128355D01*
X188768075Y-116080600D01*
X188871833Y-116011271D01*
X189760299Y-115122805D01*
X189822611Y-115088779D01*
X189849394Y-115085900D01*
X194677193Y-115085900D01*
X194677194Y-115085900D01*
X194799585Y-115061555D01*
X194914875Y-115013800D01*
X195018633Y-114944471D01*
X197947942Y-112015161D01*
X198010252Y-111981137D01*
X198066444Y-111981738D01*
X198289689Y-112035335D01*
X198526400Y-112053965D01*
X198763111Y-112035335D01*
X198993994Y-111979905D01*
X199213363Y-111889040D01*
X199415816Y-111764976D01*
X199596369Y-111610769D01*
X199750576Y-111430216D01*
X199874640Y-111227763D01*
X199965505Y-111008394D01*
X200020935Y-110777511D01*
X200039565Y-110540800D01*
X200020935Y-110304089D01*
X199965505Y-110073206D01*
X199874640Y-109853837D01*
X199750576Y-109651384D01*
X199614622Y-109492202D01*
X199596369Y-109470830D01*
X199415819Y-109316626D01*
X199415817Y-109316625D01*
X199415816Y-109316624D01*
X199213363Y-109192560D01*
X199177959Y-109177895D01*
X198993992Y-109101694D01*
X198836051Y-109063776D01*
X198763111Y-109046265D01*
X198526400Y-109027635D01*
X198289689Y-109046265D01*
X198058807Y-109101694D01*
X197839438Y-109192559D01*
X197636982Y-109316625D01*
X197626635Y-109325462D01*
X197561843Y-109354490D01*
X197491644Y-109343881D01*
X197443229Y-109301316D01*
X197442247Y-109302052D01*
X197438745Y-109297374D01*
X197438324Y-109297004D01*
X197437795Y-109296105D01*
X197349304Y-109177895D01*
X197232365Y-109090355D01*
X197095493Y-109039305D01*
X197034997Y-109032800D01*
X196240400Y-109032800D01*
X196240400Y-110110097D01*
X196179393Y-110074875D01*
X196052226Y-110040800D01*
X195920574Y-110040800D01*
X195793407Y-110074875D01*
X195732400Y-110110097D01*
X195732400Y-109032800D01*
X194937802Y-109032800D01*
X194877306Y-109039305D01*
X194740435Y-109090355D01*
X194740434Y-109090355D01*
X194623495Y-109177895D01*
X194535955Y-109294834D01*
X194535955Y-109294835D01*
X194484905Y-109431706D01*
X194478400Y-109492202D01*
X194478400Y-110286800D01*
X195555697Y-110286800D01*
X195520475Y-110347807D01*
X195486400Y-110474974D01*
X195486400Y-110606626D01*
X195520475Y-110733793D01*
X195555697Y-110794800D01*
X194478400Y-110794800D01*
X194478400Y-111589397D01*
X194484905Y-111649893D01*
X194535955Y-111786764D01*
X194535955Y-111786765D01*
X194623495Y-111903704D01*
X194740434Y-111991244D01*
X194877306Y-112042294D01*
X194937802Y-112048799D01*
X194937815Y-112048800D01*
X195818305Y-112048800D01*
X195886426Y-112068802D01*
X195932919Y-112122458D01*
X195943023Y-112192732D01*
X195913529Y-112257312D01*
X195907401Y-112263893D01*
X195040167Y-113131129D01*
X194389301Y-113781995D01*
X194326989Y-113816020D01*
X194300206Y-113818900D01*
X189472403Y-113818900D01*
X189399368Y-113833428D01*
X189350015Y-113843245D01*
X189350013Y-113843245D01*
X189350012Y-113843246D01*
X189234723Y-113891001D01*
X189130971Y-113960326D01*
X189130964Y-113960331D01*
X188242501Y-114848795D01*
X188180189Y-114882821D01*
X188153406Y-114885700D01*
X176315203Y-114885700D01*
X176242168Y-114900228D01*
X176192815Y-114910045D01*
X176192813Y-114910045D01*
X176192812Y-114910046D01*
X176077523Y-114957801D01*
X175973771Y-115027126D01*
X175973764Y-115027131D01*
X171859501Y-119141395D01*
X171797189Y-119175421D01*
X171770406Y-119178300D01*
X154826803Y-119178300D01*
X154753768Y-119192828D01*
X154704415Y-119202645D01*
X154704413Y-119202645D01*
X154704412Y-119202646D01*
X154589123Y-119250401D01*
X154485371Y-119319726D01*
X154485364Y-119319731D01*
X146256301Y-127548795D01*
X146193989Y-127582821D01*
X146167206Y-127585700D01*
X140436794Y-127585700D01*
X140368673Y-127565698D01*
X140333581Y-127531971D01*
X140223600Y-127374903D01*
X140223595Y-127374897D01*
X140061702Y-127213004D01*
X140061696Y-127212999D01*
X139874149Y-127081677D01*
X139666646Y-126984917D01*
X139666640Y-126984915D01*
X139538948Y-126950700D01*
X139445487Y-126925657D01*
X139217400Y-126905702D01*
X138989313Y-126925657D01*
X138768159Y-126984915D01*
X138768153Y-126984917D01*
X138560650Y-127081677D01*
X138373103Y-127212999D01*
X138373097Y-127213004D01*
X138211204Y-127374897D01*
X138211199Y-127374903D01*
X138079877Y-127562450D01*
X137983117Y-127769953D01*
X137983115Y-127769959D01*
X137935834Y-127946416D01*
X137923857Y-127991113D01*
X137903902Y-128219200D01*
X132910898Y-128219200D01*
X132890943Y-127991113D01*
X132831684Y-127769957D01*
X132734923Y-127562451D01*
X132603598Y-127374900D01*
X132441700Y-127213002D01*
X132348876Y-127148006D01*
X132254149Y-127081677D01*
X132046646Y-126984917D01*
X132046640Y-126984915D01*
X131918948Y-126950700D01*
X131825487Y-126925657D01*
X131597400Y-126905702D01*
X131369313Y-126925657D01*
X131148159Y-126984915D01*
X131148153Y-126984917D01*
X130940650Y-127081677D01*
X130753103Y-127212999D01*
X130753097Y-127213004D01*
X130591204Y-127374897D01*
X130591199Y-127374903D01*
X130481219Y-127531971D01*
X130425762Y-127576299D01*
X130378006Y-127585700D01*
X127427825Y-127585700D01*
X127359704Y-127565698D01*
X127338730Y-127548795D01*
X125636011Y-125846076D01*
X125601985Y-125783764D01*
X125607050Y-125712949D01*
X125636007Y-125667890D01*
X125745598Y-125558300D01*
X125876923Y-125370749D01*
X125973684Y-125163243D01*
X126032943Y-124942087D01*
X126052898Y-124714000D01*
X131045902Y-124714000D01*
X131065857Y-124942087D01*
X131081284Y-124999662D01*
X131125115Y-125163240D01*
X131125117Y-125163246D01*
X131221877Y-125370749D01*
X131353195Y-125558291D01*
X131353202Y-125558300D01*
X131515100Y-125720198D01*
X131702651Y-125851523D01*
X131910157Y-125948284D01*
X132131313Y-126007543D01*
X132359400Y-126027498D01*
X132587487Y-126007543D01*
X132808643Y-125948284D01*
X133016149Y-125851523D01*
X133203700Y-125720198D01*
X133365598Y-125558300D01*
X133477719Y-125398174D01*
X133533176Y-125353846D01*
X133556347Y-125346866D01*
X133675555Y-125323155D01*
X133790845Y-125275400D01*
X133894603Y-125206071D01*
X134529071Y-124571604D01*
X134591383Y-124537579D01*
X134618166Y-124534700D01*
X142810393Y-124534700D01*
X142810394Y-124534700D01*
X142932785Y-124510355D01*
X143048075Y-124462600D01*
X143151833Y-124393271D01*
X149666271Y-117878833D01*
X149735600Y-117775075D01*
X149783355Y-117659785D01*
X149807700Y-117537394D01*
X149807700Y-117412606D01*
X149807700Y-105707462D01*
X154184209Y-105707462D01*
X173631369Y-105707462D01*
X173631369Y-96777631D01*
X154184209Y-96777631D01*
X154184209Y-105707462D01*
X149807700Y-105707462D01*
X149807700Y-98866594D01*
X149827702Y-98798473D01*
X149844605Y-98777499D01*
X153577867Y-95044238D01*
X153577867Y-95044237D01*
X153577872Y-95044233D01*
X153647201Y-94940475D01*
X153694955Y-94825185D01*
X153719300Y-94702794D01*
X153719300Y-94578006D01*
X153719300Y-75604206D01*
X153694955Y-75481815D01*
X153680968Y-75448047D01*
X153647201Y-75366525D01*
X153577872Y-75262767D01*
X148981005Y-70665900D01*
X148946979Y-70603588D01*
X148944100Y-70576805D01*
X148944100Y-64595965D01*
X148964102Y-64527844D01*
X149004262Y-64488534D01*
X149200016Y-64368576D01*
X149380569Y-64214369D01*
X149534776Y-64033816D01*
X149658840Y-63831363D01*
X149749705Y-63611994D01*
X149805135Y-63381111D01*
X149823765Y-63144400D01*
X149805135Y-62907689D01*
X149749705Y-62676806D01*
X149658840Y-62457437D01*
X149534776Y-62254984D01*
X149534773Y-62254980D01*
X149380569Y-62074430D01*
X149200019Y-61920226D01*
X149200017Y-61920225D01*
X149200016Y-61920224D01*
X148997563Y-61796160D01*
X148962159Y-61781495D01*
X148778192Y-61705294D01*
X148620251Y-61667376D01*
X148547311Y-61649865D01*
X148310600Y-61631235D01*
X148073889Y-61649865D01*
X147843007Y-61705294D01*
X147623638Y-61796159D01*
X147421182Y-61920225D01*
X147410835Y-61929062D01*
X147346043Y-61958090D01*
X147275844Y-61947481D01*
X147227429Y-61904916D01*
X147226447Y-61905652D01*
X147222945Y-61900974D01*
X147222524Y-61900604D01*
X147221995Y-61899705D01*
X147133504Y-61781495D01*
X147016565Y-61693955D01*
X146879693Y-61642905D01*
X146819197Y-61636400D01*
X146024600Y-61636400D01*
X146024600Y-62713697D01*
X145963593Y-62678475D01*
X145836426Y-62644400D01*
X145704774Y-62644400D01*
X145577607Y-62678475D01*
X145516600Y-62713697D01*
X145516600Y-61636400D01*
X144722002Y-61636400D01*
X144661506Y-61642905D01*
X144524635Y-61693955D01*
X144524634Y-61693955D01*
X144407695Y-61781495D01*
X144320155Y-61898434D01*
X144320155Y-61898435D01*
X144269105Y-62035306D01*
X144262600Y-62095802D01*
X144262600Y-62890400D01*
X145339897Y-62890400D01*
X145304675Y-62951407D01*
X145270600Y-63078574D01*
X145270600Y-63210226D01*
X145304675Y-63337393D01*
X145339897Y-63398400D01*
X144262600Y-63398400D01*
X144262600Y-64192997D01*
X144269105Y-64253493D01*
X144320155Y-64390364D01*
X144320155Y-64390365D01*
X144407695Y-64507304D01*
X144524634Y-64594844D01*
X144661506Y-64645894D01*
X144722002Y-64652399D01*
X144722015Y-64652400D01*
X145516600Y-64652400D01*
X145516600Y-63575102D01*
X145577607Y-63610325D01*
X145704774Y-63644400D01*
X145836426Y-63644400D01*
X145963593Y-63610325D01*
X146024600Y-63575102D01*
X146024600Y-64652400D01*
X146819185Y-64652400D01*
X146819197Y-64652399D01*
X146879693Y-64645894D01*
X147016564Y-64594844D01*
X147016565Y-64594844D01*
X147133504Y-64507304D01*
X147226447Y-64383148D01*
X147228737Y-64384862D01*
X147268584Y-64344986D01*
X147337952Y-64329870D01*
X147404481Y-64354656D01*
X147410829Y-64359732D01*
X147421184Y-64368576D01*
X147616937Y-64488534D01*
X147664566Y-64541180D01*
X147677100Y-64595965D01*
X147677100Y-70829006D01*
X147677100Y-70953794D01*
X147701445Y-71076185D01*
X147749200Y-71191475D01*
X147818529Y-71295233D01*
X147818531Y-71295235D01*
X152415395Y-75892099D01*
X152449421Y-75954411D01*
X152452300Y-75981194D01*
X152452300Y-94325805D01*
X152432298Y-94393926D01*
X152415395Y-94414900D01*
X148770367Y-98059929D01*
X148682131Y-98148164D01*
X148682126Y-98148171D01*
X148612801Y-98251923D01*
X148565046Y-98367212D01*
X148540700Y-98489603D01*
X148540700Y-117160406D01*
X148520698Y-117228527D01*
X148503795Y-117249501D01*
X142522501Y-123230795D01*
X142460189Y-123264821D01*
X142433406Y-123267700D01*
X134241173Y-123267700D01*
X134118784Y-123292045D01*
X134118779Y-123292047D01*
X134003494Y-123339799D01*
X133899741Y-123409125D01*
X133899739Y-123409126D01*
X133491476Y-123817388D01*
X133429164Y-123851413D01*
X133358348Y-123846348D01*
X133313286Y-123817388D01*
X133306996Y-123811098D01*
X133203700Y-123707802D01*
X133058483Y-123606120D01*
X133016149Y-123576477D01*
X132808646Y-123479717D01*
X132808640Y-123479715D01*
X132715171Y-123454670D01*
X132587487Y-123420457D01*
X132359400Y-123400502D01*
X132131313Y-123420457D01*
X131910159Y-123479715D01*
X131910153Y-123479717D01*
X131702650Y-123576477D01*
X131515103Y-123707799D01*
X131515097Y-123707804D01*
X131353204Y-123869697D01*
X131353199Y-123869703D01*
X131221877Y-124057250D01*
X131125117Y-124264753D01*
X131125115Y-124264759D01*
X131090680Y-124393273D01*
X131065857Y-124485913D01*
X131045902Y-124714000D01*
X126052898Y-124714000D01*
X126032943Y-124485913D01*
X125973684Y-124264757D01*
X125876923Y-124057251D01*
X125745598Y-123869700D01*
X125583700Y-123707802D01*
X125438483Y-123606120D01*
X125396149Y-123576477D01*
X125188646Y-123479717D01*
X125188640Y-123479715D01*
X125095171Y-123454670D01*
X124967487Y-123420457D01*
X124739400Y-123400502D01*
X124511313Y-123420457D01*
X124290159Y-123479715D01*
X124290153Y-123479717D01*
X124082650Y-123576477D01*
X123895103Y-123707799D01*
X123895097Y-123707804D01*
X123733204Y-123869697D01*
X123733199Y-123869703D01*
X123601877Y-124057250D01*
X123505117Y-124264753D01*
X123505115Y-124264759D01*
X123470680Y-124393273D01*
X123445857Y-124485913D01*
X123425902Y-124714000D01*
X123445857Y-124942087D01*
X123461284Y-124999662D01*
X123505115Y-125163240D01*
X123505117Y-125163246D01*
X123601877Y-125370749D01*
X123733199Y-125558296D01*
X123733204Y-125558302D01*
X123842788Y-125667886D01*
X123876814Y-125730198D01*
X123871749Y-125801013D01*
X123842788Y-125846076D01*
X120235071Y-129453795D01*
X120172759Y-129487820D01*
X120145976Y-129490700D01*
X113009204Y-129490700D01*
X112941083Y-129470698D01*
X112905991Y-129436971D01*
X112813179Y-129304422D01*
X112813174Y-129304416D01*
X112655983Y-129147225D01*
X112655972Y-129147216D01*
X112473877Y-129019712D01*
X112473875Y-129019711D01*
X112363827Y-128968395D01*
X112310542Y-128921478D01*
X112291081Y-128853201D01*
X112311623Y-128785241D01*
X112363827Y-128740005D01*
X112473877Y-128688688D01*
X112655981Y-128561177D01*
X112813177Y-128403981D01*
X112859768Y-128337441D01*
X112905992Y-128271429D01*
X112961450Y-128227101D01*
X113009205Y-128217700D01*
X116902393Y-128217700D01*
X116902394Y-128217700D01*
X117024785Y-128193355D01*
X117140075Y-128145600D01*
X117243833Y-128076271D01*
X122087687Y-123232416D01*
X122128560Y-123205106D01*
X122220075Y-123167200D01*
X122323833Y-123097871D01*
X123567899Y-121853805D01*
X123630211Y-121819779D01*
X123656994Y-121816900D01*
X135926993Y-121816900D01*
X135926994Y-121816900D01*
X136049385Y-121792555D01*
X136164675Y-121744800D01*
X136268433Y-121675471D01*
X139709471Y-118234433D01*
X139778800Y-118130675D01*
X139826555Y-118015385D01*
X139850900Y-117892994D01*
X139850900Y-117768206D01*
X139850900Y-111875406D01*
X139826555Y-111753015D01*
X139778801Y-111637725D01*
X139709472Y-111533967D01*
X135249399Y-107073894D01*
X135215373Y-107011582D01*
X135220438Y-106940767D01*
X135249399Y-106895704D01*
X140142718Y-102002385D01*
X145602271Y-96542833D01*
X145671600Y-96439075D01*
X145671602Y-96439069D01*
X145671604Y-96439067D01*
X145681094Y-96416156D01*
X145692892Y-96387671D01*
X145719355Y-96323785D01*
X145743700Y-96201394D01*
X145743700Y-85966658D01*
X145763702Y-85898537D01*
X145812496Y-85854391D01*
X145900827Y-85809385D01*
X146092922Y-85669820D01*
X146260820Y-85501922D01*
X146400385Y-85309827D01*
X146508182Y-85098263D01*
X146581556Y-84872441D01*
X146618700Y-84637922D01*
X146618700Y-82900478D01*
X146581556Y-82665959D01*
X146508182Y-82440137D01*
X146400385Y-82228573D01*
X146260820Y-82036478D01*
X146260817Y-82036475D01*
X146260815Y-82036472D01*
X146092927Y-81868584D01*
X146092924Y-81868582D01*
X146092922Y-81868580D01*
X145900827Y-81729015D01*
X145689263Y-81621218D01*
X145689260Y-81621217D01*
X145689258Y-81621216D01*
X145463446Y-81547845D01*
X145463442Y-81547844D01*
X145463441Y-81547844D01*
X145228922Y-81510700D01*
X144991478Y-81510700D01*
X144756959Y-81547844D01*
X144756953Y-81547845D01*
X144531141Y-81621216D01*
X144531135Y-81621219D01*
X144319569Y-81729017D01*
X144127475Y-81868582D01*
X144127472Y-81868584D01*
X143959584Y-82036472D01*
X143959582Y-82036475D01*
X143820017Y-82228569D01*
X143712219Y-82440135D01*
X143712216Y-82440141D01*
X143638845Y-82665953D01*
X143638844Y-82665958D01*
X143638844Y-82665959D01*
X143601700Y-82900478D01*
X143601700Y-84637922D01*
X143638844Y-84872441D01*
X143638845Y-84872446D01*
X143653020Y-84916071D01*
X143712218Y-85098263D01*
X143820015Y-85309827D01*
X143959580Y-85501922D01*
X143959582Y-85501924D01*
X143959584Y-85501927D01*
X144127472Y-85669815D01*
X144127475Y-85669817D01*
X144127478Y-85669820D01*
X144319573Y-85809385D01*
X144407903Y-85854391D01*
X144459518Y-85903139D01*
X144476700Y-85966658D01*
X144476700Y-95824405D01*
X144456698Y-95892526D01*
X144439795Y-95913500D01*
X134353495Y-105999800D01*
X134291183Y-106033826D01*
X134220368Y-106028761D01*
X134175305Y-105999800D01*
X126123813Y-97948308D01*
X127800452Y-97948308D01*
X140883071Y-97948308D01*
X140883071Y-95436263D01*
X127800452Y-95436263D01*
X127800452Y-97948308D01*
X126123813Y-97948308D01*
X125028805Y-96853300D01*
X124994779Y-96790988D01*
X124991900Y-96764205D01*
X124991900Y-86555007D01*
X124991899Y-86555003D01*
X124967555Y-86432615D01*
X124919800Y-86317325D01*
X124850471Y-86213567D01*
X124762233Y-86125329D01*
X124488878Y-85851974D01*
X124454852Y-85789662D01*
X124459917Y-85718847D01*
X124490835Y-85674734D01*
X124489422Y-85673321D01*
X124660815Y-85501927D01*
X124660820Y-85501922D01*
X124800385Y-85309827D01*
X124908182Y-85098263D01*
X124981556Y-84872441D01*
X124993316Y-84798192D01*
X132370415Y-84798192D01*
X132370416Y-84798193D01*
X132510896Y-84916071D01*
X132803649Y-85108617D01*
X133116777Y-85265876D01*
X133116782Y-85265878D01*
X133446025Y-85385713D01*
X133446030Y-85385714D01*
X133786979Y-85466521D01*
X133786985Y-85466522D01*
X134135001Y-85507200D01*
X134485399Y-85507200D01*
X134833414Y-85466522D01*
X134833420Y-85466521D01*
X135174369Y-85385714D01*
X135174374Y-85385713D01*
X135503617Y-85265878D01*
X135503622Y-85265876D01*
X135816750Y-85108617D01*
X136109499Y-84916074D01*
X136249983Y-84798192D01*
X134310201Y-82858410D01*
X134310199Y-82858410D01*
X132370415Y-84798192D01*
X124993316Y-84798192D01*
X125018700Y-84637922D01*
X125018700Y-82900478D01*
X124981556Y-82665959D01*
X124927373Y-82499200D01*
X131297102Y-82499200D01*
X131317474Y-82848988D01*
X131317474Y-82848994D01*
X131378320Y-83194068D01*
X131478815Y-83529741D01*
X131478817Y-83529747D01*
X131617595Y-83851473D01*
X131617598Y-83851478D01*
X131792786Y-84154912D01*
X131792796Y-84154928D01*
X132002036Y-84435985D01*
X132002040Y-84435990D01*
X132007941Y-84442245D01*
X132007944Y-84442245D01*
X133950990Y-82499200D01*
X133950990Y-82499199D01*
X133950989Y-82499198D01*
X134669410Y-82499198D01*
X134669410Y-82499201D01*
X136612455Y-84442246D01*
X136612456Y-84442245D01*
X136618364Y-84435985D01*
X136618366Y-84435982D01*
X136827595Y-84154939D01*
X136827613Y-84154912D01*
X137002801Y-83851478D01*
X137002804Y-83851473D01*
X137141582Y-83529747D01*
X137141584Y-83529741D01*
X137242079Y-83194068D01*
X137302925Y-82848994D01*
X137302925Y-82848988D01*
X137323297Y-82499200D01*
X137302925Y-82149411D01*
X137302925Y-82149405D01*
X137242079Y-81804331D01*
X137141584Y-81468658D01*
X137141582Y-81468652D01*
X137002804Y-81146926D01*
X137002801Y-81146921D01*
X136827613Y-80843487D01*
X136827603Y-80843471D01*
X136618365Y-80562416D01*
X136612455Y-80556152D01*
X134669410Y-82499198D01*
X133950989Y-82499198D01*
X132007944Y-80556153D01*
X132007943Y-80556153D01*
X132002031Y-80562420D01*
X132002027Y-80562424D01*
X131792804Y-80843460D01*
X131792786Y-80843487D01*
X131617598Y-81146921D01*
X131617595Y-81146926D01*
X131478817Y-81468652D01*
X131478815Y-81468658D01*
X131378320Y-81804331D01*
X131317474Y-82149405D01*
X131317474Y-82149411D01*
X131297102Y-82499200D01*
X124927373Y-82499200D01*
X124908182Y-82440137D01*
X124800385Y-82228573D01*
X124660820Y-82036478D01*
X124660817Y-82036475D01*
X124660815Y-82036472D01*
X124492927Y-81868584D01*
X124492924Y-81868582D01*
X124492922Y-81868580D01*
X124300827Y-81729015D01*
X124089263Y-81621218D01*
X124089260Y-81621217D01*
X124089258Y-81621216D01*
X123863446Y-81547845D01*
X123863442Y-81547844D01*
X123863441Y-81547844D01*
X123628922Y-81510700D01*
X123391478Y-81510700D01*
X123156959Y-81547844D01*
X123156953Y-81547845D01*
X122931141Y-81621216D01*
X122931135Y-81621219D01*
X122719569Y-81729017D01*
X122527475Y-81868582D01*
X122527472Y-81868584D01*
X122359584Y-82036472D01*
X122359582Y-82036475D01*
X122220017Y-82228569D01*
X122112219Y-82440135D01*
X122112216Y-82440141D01*
X122038845Y-82665953D01*
X122038844Y-82665958D01*
X122038844Y-82665959D01*
X122001700Y-82900478D01*
X122001700Y-84637922D01*
X122038844Y-84872441D01*
X122038845Y-84872446D01*
X122053020Y-84916071D01*
X122112218Y-85098263D01*
X122220015Y-85309827D01*
X122359580Y-85501922D01*
X122359582Y-85501924D01*
X122359584Y-85501927D01*
X122527472Y-85669815D01*
X122527475Y-85669817D01*
X122527478Y-85669820D01*
X122719573Y-85809385D01*
X122835052Y-85868224D01*
X122886667Y-85916971D01*
X122898537Y-85948284D01*
X122899251Y-85948068D01*
X122901043Y-85953978D01*
X122901045Y-85953985D01*
X122948800Y-86069275D01*
X123018129Y-86173033D01*
X123018131Y-86173035D01*
X123687995Y-86842899D01*
X123722021Y-86905211D01*
X123724900Y-86931994D01*
X123724900Y-97016406D01*
X123724900Y-97141194D01*
X123749245Y-97263585D01*
X123797000Y-97378875D01*
X123866329Y-97482633D01*
X123866331Y-97482635D01*
X133867742Y-107484048D01*
X133867756Y-107484060D01*
X138546995Y-112163299D01*
X138581021Y-112225611D01*
X138583900Y-112252394D01*
X138583900Y-117516006D01*
X138563898Y-117584127D01*
X138546995Y-117605101D01*
X135639101Y-120512995D01*
X135576789Y-120547021D01*
X135550006Y-120549900D01*
X123280003Y-120549900D01*
X123206968Y-120564428D01*
X123157615Y-120574245D01*
X123157613Y-120574245D01*
X123157612Y-120574246D01*
X123042323Y-120622001D01*
X122938571Y-120691326D01*
X122938569Y-120691327D01*
X121650716Y-121979179D01*
X121609840Y-122006491D01*
X121518329Y-122044396D01*
X121518325Y-122044398D01*
X121414567Y-122113727D01*
X121414561Y-122113732D01*
X116614501Y-126913795D01*
X116552189Y-126947820D01*
X116525406Y-126950700D01*
X113009204Y-126950700D01*
X112941083Y-126930698D01*
X112905991Y-126896971D01*
X112813179Y-126764422D01*
X112813174Y-126764416D01*
X112655983Y-126607225D01*
X112655972Y-126607216D01*
X112473877Y-126479712D01*
X112473875Y-126479711D01*
X112272399Y-126385761D01*
X112272393Y-126385759D01*
X112230274Y-126374473D01*
X112057663Y-126328222D01*
X111836200Y-126308847D01*
X111614737Y-126328222D01*
X111527270Y-126351659D01*
X111400006Y-126385759D01*
X111400001Y-126385761D01*
X111198523Y-126479712D01*
X111016422Y-126607220D01*
X111016416Y-126607225D01*
X110859225Y-126764416D01*
X110859220Y-126764422D01*
X110731712Y-126946523D01*
X110637761Y-127148001D01*
X110637759Y-127148006D01*
X110620344Y-127213002D01*
X110580222Y-127362737D01*
X110560847Y-127584200D01*
X106989692Y-127584200D01*
X106993573Y-127366170D01*
X106995898Y-127353429D01*
X106994565Y-127326742D01*
X106994428Y-127318209D01*
X106994903Y-127291531D01*
X106992173Y-127278874D01*
X106971981Y-126874621D01*
X106973295Y-126863588D01*
X106970161Y-126834180D01*
X106969608Y-126827104D01*
X106968136Y-126797611D01*
X106965125Y-126786911D01*
X106921370Y-126376197D01*
X106922009Y-126366647D01*
X106919692Y-126351660D01*
X106919693Y-126351659D01*
X106917128Y-126335068D01*
X106916365Y-126329224D01*
X106914590Y-126312550D01*
X106914589Y-126312549D01*
X106912985Y-126297486D01*
X106909917Y-126288411D01*
X106846343Y-125877085D01*
X106846535Y-125868804D01*
X106843152Y-125851522D01*
X106840018Y-125835516D01*
X106839159Y-125830607D01*
X106836502Y-125813414D01*
X106836501Y-125813413D01*
X106833985Y-125797128D01*
X106830989Y-125789399D01*
X106817442Y-125720200D01*
X106751472Y-125383227D01*
X106751372Y-125376019D01*
X106747406Y-125358889D01*
X106747407Y-125358889D01*
X106743359Y-125341405D01*
X106742466Y-125337221D01*
X106735653Y-125302417D01*
X106732799Y-125295792D01*
X106641144Y-124899884D01*
X106640694Y-124891229D01*
X106636406Y-124875712D01*
X106636407Y-124875711D01*
X106631818Y-124859106D01*
X106630523Y-124854002D01*
X106626641Y-124837231D01*
X106626640Y-124837230D01*
X106623017Y-124821580D01*
X106619283Y-124813746D01*
X106605663Y-124764460D01*
X106392421Y-123992787D01*
X106391539Y-123983606D01*
X106386734Y-123968852D01*
X106386735Y-123968852D01*
X106381483Y-123952726D01*
X106379856Y-123947316D01*
X106375344Y-123930987D01*
X106375343Y-123930986D01*
X106371212Y-123916035D01*
X106366879Y-123907886D01*
X106137288Y-123202905D01*
X106136279Y-123195523D01*
X106124214Y-123162501D01*
X106122754Y-123158273D01*
X106111886Y-123124898D01*
X106108125Y-123118465D01*
X105910770Y-122578283D01*
X105909556Y-122571238D01*
X105896221Y-122538251D01*
X105894686Y-122534260D01*
X105882491Y-122500878D01*
X105878671Y-122494830D01*
X105750455Y-122177628D01*
X105743471Y-122106976D01*
X105775793Y-122043763D01*
X105837160Y-122008060D01*
X105843020Y-122006765D01*
X133484566Y-116593127D01*
X133508294Y-116590780D01*
X133513207Y-116590760D01*
X133513209Y-116590761D01*
X133515911Y-116589629D01*
X133540366Y-116582199D01*
X133543234Y-116581638D01*
X133543236Y-116581634D01*
X133547303Y-116578935D01*
X133547918Y-116578605D01*
X133548358Y-116578070D01*
X133551796Y-116574604D01*
X133551798Y-116574604D01*
X133552906Y-116571900D01*
X133564942Y-116549354D01*
X133566579Y-116546922D01*
X133566578Y-116546918D01*
X133567547Y-116542125D01*
X133567746Y-116541466D01*
X133567679Y-116540784D01*
X133567660Y-116535894D01*
X133567661Y-116535892D01*
X133566527Y-116533185D01*
X133559101Y-116508742D01*
X133558538Y-116505866D01*
X133558536Y-116505864D01*
X133555824Y-116501778D01*
X133555505Y-116501182D01*
X133554982Y-116500753D01*
X133551506Y-116497303D01*
X133551504Y-116497302D01*
X133548783Y-116496187D01*
X133526257Y-116484158D01*
X133523821Y-116482520D01*
X133519005Y-116481547D01*
X133496191Y-116474636D01*
X132792171Y-116186159D01*
X132789411Y-116184989D01*
X132053439Y-115862764D01*
X132050754Y-115861551D01*
X131316660Y-115519478D01*
X131314077Y-115518239D01*
X130581485Y-115156371D01*
X130579006Y-115155112D01*
X129847955Y-114773710D01*
X129845550Y-114772422D01*
X129115747Y-114371336D01*
X129113434Y-114370033D01*
X128552596Y-114046237D01*
X128384816Y-113949370D01*
X128382607Y-113948064D01*
X127654828Y-113507892D01*
X127652706Y-113506580D01*
X126925642Y-113046935D01*
X126923613Y-113045625D01*
X126197151Y-112566631D01*
X126195203Y-112565320D01*
X125469160Y-112066944D01*
X125467314Y-112065652D01*
X124741486Y-111548086D01*
X124739713Y-111546799D01*
X124582091Y-111430217D01*
X124013909Y-111009971D01*
X124012224Y-111008702D01*
X123923692Y-110940899D01*
X123286916Y-110453218D01*
X123284555Y-110451366D01*
X123155850Y-110347807D01*
X121836373Y-109286121D01*
X121826275Y-109277057D01*
X121818218Y-109269000D01*
X121818217Y-109269000D01*
X121810550Y-109261333D01*
X121798731Y-109254051D01*
X120764390Y-108362121D01*
X120760863Y-108358962D01*
X119743357Y-107412614D01*
X119739918Y-107409291D01*
X118768662Y-106434653D01*
X118765333Y-106431183D01*
X118528029Y-106174140D01*
X117840569Y-105429496D01*
X117837424Y-105425957D01*
X116959390Y-104398665D01*
X116956320Y-104394929D01*
X116438743Y-103739807D01*
X116125530Y-103343358D01*
X116122581Y-103339472D01*
X116027223Y-103208638D01*
X115584692Y-102601471D01*
X115339331Y-102264827D01*
X115336518Y-102260805D01*
X114601068Y-101164444D01*
X114598397Y-101160287D01*
X113911089Y-100043391D01*
X113908571Y-100039114D01*
X113497727Y-99308489D01*
X113269702Y-98902979D01*
X113267350Y-98898595D01*
X112677263Y-97744619D01*
X112675076Y-97740123D01*
X112556082Y-97482635D01*
X112134108Y-96569532D01*
X112132087Y-96564919D01*
X111981414Y-96201392D01*
X111640521Y-95378920D01*
X111638695Y-95374254D01*
X111196894Y-94174277D01*
X111195236Y-94169476D01*
X110818517Y-93003196D01*
X110803515Y-92956750D01*
X110802060Y-92951913D01*
X110460746Y-91727690D01*
X110459473Y-91722736D01*
X110168897Y-90488320D01*
X110167824Y-90483298D01*
X109948268Y-89343545D01*
X109928319Y-89239984D01*
X109927447Y-89234900D01*
X109927314Y-89234015D01*
X109739315Y-87983965D01*
X109738658Y-87978884D01*
X109602245Y-86721562D01*
X109601793Y-86716389D01*
X109601172Y-86707105D01*
X109517421Y-85454183D01*
X109517181Y-85448979D01*
X109516840Y-85435480D01*
X109485184Y-84182853D01*
X109485162Y-84177703D01*
X109505873Y-82909090D01*
X109506068Y-82903846D01*
X109506133Y-82902724D01*
X109579814Y-81634041D01*
X109580222Y-81628888D01*
X109707328Y-80359118D01*
X109707961Y-80353902D01*
X109729871Y-80200205D01*
X132370415Y-80200205D01*
X134310199Y-82139990D01*
X134310201Y-82139990D01*
X136249983Y-80200206D01*
X136249983Y-80200205D01*
X136109498Y-80082325D01*
X135816750Y-79889782D01*
X135503622Y-79732523D01*
X135503617Y-79732521D01*
X135174374Y-79612686D01*
X135174369Y-79612685D01*
X134833420Y-79531878D01*
X134833414Y-79531877D01*
X134485399Y-79491200D01*
X134135001Y-79491200D01*
X133786985Y-79531877D01*
X133786979Y-79531878D01*
X133446030Y-79612685D01*
X133446025Y-79612686D01*
X133116782Y-79732521D01*
X133116777Y-79732523D01*
X132803649Y-79889782D01*
X132510901Y-80082325D01*
X132370415Y-80200205D01*
X109729871Y-80200205D01*
X109888767Y-79085552D01*
X109889607Y-79080423D01*
X110124469Y-77814585D01*
X110125527Y-77809486D01*
X110414742Y-76547662D01*
X110416026Y-76542555D01*
X110416531Y-76540711D01*
X110759945Y-75285984D01*
X110761436Y-75280951D01*
X110767240Y-75262764D01*
X111160420Y-74030726D01*
X111162102Y-74025814D01*
X111616464Y-72783370D01*
X111618330Y-72778575D01*
X112128852Y-71544101D01*
X112130323Y-71540693D01*
X112677858Y-70322619D01*
X112678846Y-70320480D01*
X113243790Y-69128321D01*
X113244934Y-69125970D01*
X113827754Y-67961428D01*
X113829011Y-67958988D01*
X114430479Y-66822943D01*
X114431858Y-66820413D01*
X115052827Y-65713492D01*
X115054442Y-65710700D01*
X115695664Y-64633693D01*
X115697417Y-64630837D01*
X116359872Y-63584359D01*
X116361765Y-63581462D01*
X117046070Y-62566554D01*
X117048246Y-62563431D01*
X117755385Y-61580526D01*
X117757751Y-61577347D01*
X118488531Y-60627424D01*
X118491137Y-60624153D01*
X119246321Y-59707884D01*
X119249190Y-59704525D01*
X119319522Y-59625041D01*
X120029589Y-58822571D01*
X120032651Y-58819235D01*
X120839285Y-57972324D01*
X120842589Y-57968984D01*
X121676092Y-57157851D01*
X121679582Y-57154586D01*
X122540944Y-56379907D01*
X122544760Y-56376614D01*
X122593916Y-56335884D01*
X126074280Y-56335884D01*
X126074280Y-56673795D01*
X126112114Y-57009579D01*
X126131780Y-57095740D01*
X126187305Y-57339012D01*
X126187307Y-57339018D01*
X126187306Y-57339018D01*
X126298902Y-57657939D01*
X126298913Y-57657966D01*
X126445519Y-57962396D01*
X126445524Y-57962405D01*
X126625299Y-58248515D01*
X126835983Y-58512705D01*
X127074914Y-58751636D01*
X127095552Y-58768094D01*
X127339105Y-58962321D01*
X127625219Y-59142098D01*
X127929663Y-59288711D01*
X127929679Y-59288716D01*
X127929680Y-59288717D01*
X128248601Y-59400313D01*
X128248604Y-59400313D01*
X128248608Y-59400315D01*
X128578044Y-59475506D01*
X128816143Y-59502333D01*
X128913824Y-59513340D01*
X128913826Y-59513340D01*
X149251736Y-59513340D01*
X149337012Y-59503731D01*
X149587516Y-59475506D01*
X149916952Y-59400315D01*
X150235897Y-59288711D01*
X150540341Y-59142098D01*
X150826455Y-58962321D01*
X151090642Y-58751639D01*
X151329579Y-58512702D01*
X151540261Y-58248515D01*
X151720038Y-57962401D01*
X151866651Y-57657957D01*
X151978255Y-57339012D01*
X152053446Y-57009576D01*
X152091280Y-56673794D01*
X152091280Y-56335886D01*
X152053446Y-56000104D01*
X151978255Y-55670668D01*
X151966114Y-55635972D01*
X151866657Y-55351740D01*
X151866656Y-55351739D01*
X151866651Y-55351723D01*
X151720038Y-55047279D01*
X151540261Y-54761165D01*
X151329579Y-54496978D01*
X151329576Y-54496974D01*
X151090645Y-54258043D01*
X150826455Y-54047359D01*
X150540345Y-53867584D01*
X150540336Y-53867579D01*
X150235906Y-53720973D01*
X150235901Y-53720971D01*
X150235897Y-53720969D01*
X150235891Y-53720966D01*
X150235879Y-53720962D01*
X149916958Y-53609366D01*
X149587519Y-53534174D01*
X149251736Y-53496340D01*
X149251734Y-53496340D01*
X128913826Y-53496340D01*
X128913824Y-53496340D01*
X128578040Y-53534174D01*
X128248601Y-53609366D01*
X127929680Y-53720962D01*
X127929653Y-53720973D01*
X127625223Y-53867579D01*
X127625214Y-53867584D01*
X127339104Y-54047359D01*
X127074914Y-54258043D01*
X126835983Y-54496974D01*
X126625299Y-54761164D01*
X126445524Y-55047274D01*
X126445519Y-55047283D01*
X126298913Y-55351713D01*
X126298902Y-55351740D01*
X126187306Y-55670661D01*
X126112114Y-56000100D01*
X126074280Y-56335884D01*
X122593916Y-56335884D01*
X123434714Y-55639209D01*
X123438765Y-55635993D01*
X124358193Y-54936558D01*
X124362453Y-54933458D01*
X125312323Y-54272711D01*
X125316829Y-54269719D01*
X126297888Y-53648328D01*
X126302567Y-53645507D01*
X127315674Y-53064228D01*
X127320507Y-53061595D01*
X128366729Y-52521127D01*
X128371696Y-52518699D01*
X129451778Y-52019789D01*
X129456781Y-52017610D01*
X130571707Y-51560977D01*
X130576797Y-51559022D01*
X131727325Y-51145459D01*
X131732386Y-51143762D01*
X132919549Y-50773975D01*
X132924666Y-50772499D01*
X134149261Y-50447277D01*
X134154261Y-50446060D01*
X135417147Y-50166153D01*
X135422136Y-50165153D01*
X136724315Y-49931357D01*
X136729168Y-49930583D01*
X138071478Y-49743644D01*
X138076167Y-49743083D01*
X139459462Y-49603797D01*
X139464005Y-49603423D01*
X140889236Y-49512572D01*
X140893625Y-49512371D01*
X142359700Y-49470793D01*
X142366446Y-49470783D01*
X143049391Y-49488052D01*
G37*
%TD.AperFunction*%
%TD*%
M02*
