<?xml version="1.0" encoding="UTF-8" standalone="no"?>
<!-- Created with Inkscape (http://www.inkscape.org/) -->

<svg
   width="130.0mm"
   height="50.0mm"
   viewBox="0 0 130.0 50.0"
   version="1.1"
   id="svg5"
   inkscape:version="1.3.2 (091e20e, 2023-11-25, custom)"
   sodipodi:docname="bat-design.svg"
   xmlns:inkscape="http://www.inkscape.org/namespaces/inkscape"
   xmlns:sodipodi="http://sodipodi.sourceforge.net/DTD/sodipodi-0.dtd"
   xmlns="http://www.w3.org/2000/svg"
   xmlns:svg="http://www.w3.org/2000/svg">
  <sodipodi:namedview
     id="namedview7"
     pagecolor="#ffffff"
     bordercolor="#666666"
     borderopacity="1.0"
     inkscape:pageshadow="2"
     inkscape:pageopacity="0.0"
     inkscape:pagecheckerboard="0"
     inkscape:document-units="mm"
     showgrid="false"
     inkscape:object-paths="true"
     inkscape:snap-smooth-nodes="true"
     inkscape:zoom="1.8973437"
     inkscape:cx="245.87006"
     inkscape:cy="137.29721"
     inkscape:window-width="1920"
     inkscape:window-height="991"
     inkscape:window-x="-9"
     inkscape:window-y="-9"
     inkscape:window-maximized="1"
     inkscape:current-layer="g5967"
     inkscape:showpageshadow="2"
     inkscape:deskcolor="#d1d1d1" />
  <defs
     id="defs2" />
  <g
     inkscape:label="[fixed] BG"
     inkscape:groupmode="layer"
     id="g5963"
     style="display:none"
     sodipodi:insensitive="true">
    <rect
       x="0"
       y="0"
       width="130"
       height="50"
       style="fill:#ffffff;fill-opacity:1;stroke:none"
       id="rect5961" />
  </g>
  <g
     inkscape:label="F.Fab-disabled"
     inkscape:groupmode="layer"
     id="g5965"
     style="display:none"
     sodipodi:insensitive="true">
    <path
       style="color:#000000;display:inline;fill:#000000;-inkscape-stroke:none"
       d="M 65.008713,4.9870568 V 45.399166 h 0.265625 V 4.9870568 Z"
       id="path4632" />
    <path
       style="color:#000000;display:inline;fill:#000000;-inkscape-stroke:none"
       d="m 19.723557,8.8464318 v 0.263672 h 45.417969 v -0.263672 z"
       id="path4747" />
    <path
       style="color:#000000;display:inline;fill:#000000;-inkscape-stroke:none"
       d="m 65.141526,8.8464318 v 0.263672 H 110.5595 v -0.263672 z"
       id="path4829" />
    <path
       style="color:#000000;display:inline;fill:#000000;-inkscape-stroke:none"
       d="M 61.334885,6.4518998 V 46.86401 H 61.60051 V 6.4518998 Z"
       id="path4840" />
    <path
       style="color:#000000;display:inline;fill:#000000;-inkscape-stroke:none"
       d="M 68.66301,6.4518998 V 46.86401 h 0.263672 V 6.4518998 Z"
       id="path4842" />
    <path
       style="color:#000000;display:inline;fill:#000000;-inkscape-stroke:none"
       d="m 65.141526,21.735104 c -5.522249,0 -10,4.477751 -10,10 0,5.522249 4.47775,9.999999 10,10 5.522249,0 10,-4.477751 10,-10 -10e-7,-5.52225 -4.477751,-10 -10,-10 z m 0,0.09961 c 5.468205,0 9.90039,4.432185 9.90039,9.900391 0,5.468205 -4.432185,9.90039 -9.90039,9.90039 -5.468206,0 -9.900391,-4.432185 -9.900391,-9.90039 0,-5.468205 4.432186,-9.900391 9.900391,-9.900391 z"
       id="circle5057" />
    <path
       style="color:#000000;display:inline;fill:#000000;-inkscape-stroke:none"
       d="m 62.16301,7.9323688 c -1.380118,0 -2.5,1.119882 -2.5,2.5000002 0,1.380119 1.119882,2.5 2.5,2.5 1.380118,0 2.5,-1.119881 2.5,-2.5 0,-1.3801182 -1.119882,-2.5000002 -2.5,-2.5000002 z m 0,0.09961 c 1.326074,0 2.398437,1.074316 2.398437,2.4003902 0,1.326075 -1.072363,2.400391 -2.398437,2.400391 -1.326074,0 -2.400391,-1.074316 -2.400391,-2.400391 0,-1.3260742 1.074317,-2.4003902 2.400391,-2.4003902 z"
       id="circle5059" />
    <path
       style="color:#000000;display:inline;fill:#000000;-inkscape-stroke:none"
       d="m 68.120041,7.9323688 c -1.380118,0 -2.5,1.119882 -2.5,2.5000002 0,1.380119 1.119882,2.5 2.5,2.5 1.380119,1e-6 2.5,-1.119881 2.5,-2.5 0,-1.3801182 -1.119881,-2.5000002 -2.5,-2.5000002 z m 0,0.09961 c 1.326075,-10e-7 2.400391,1.074316 2.400391,2.4003902 0,1.326075 -1.074316,2.400391 -2.400391,2.400391 -1.326074,0 -2.40039,-1.074316 -2.40039,-2.400391 0,-1.3260742 1.074316,-2.4003902 2.40039,-2.4003902 z"
       id="circle5061" />
    <path
       style="color:#000000;display:inline;fill:#000000;-inkscape-stroke:none"
       d="m 62.940354,15.914791 c -0.563727,0 -1.072064,0.164371 -1.44336,0.433594 -0.371296,0.269223 -0.605468,0.646252 -0.605468,1.066406 0,0.420154 0.234172,0.797184 0.605468,1.066406 0.371296,0.269223 0.879633,0.433594 1.44336,0.433594 h 4.40039 c 0.563728,0 1.074016,-0.164371 1.445313,-0.433594 0.371296,-0.269222 0.605469,-0.646252 0.605469,-1.066406 0,-0.420154 -0.234173,-0.797183 -0.605469,-1.066406 -0.371297,-0.269223 -0.881585,-0.433594 -1.445313,-0.433594 z m 0,0.09961 h 4.40039 c 0.544271,0 1.035077,0.159091 1.386719,0.414063 0.351642,0.254972 0.564453,0.603183 0.564453,0.986328 0,0.383145 -0.212811,0.731357 -0.564453,0.986328 -0.351642,0.254972 -0.842448,0.414063 -1.386719,0.414063 h -4.40039 c -0.54427,0 -1.033124,-0.159091 -1.384766,-0.414063 -0.351642,-0.254971 -0.564453,-0.603183 -0.564453,-0.986328 0,-0.383145 0.212811,-0.731356 0.564453,-0.986328 0.351642,-0.254972 0.840496,-0.414063 1.384766,-0.414063 z"
       id="path5193" />
    <path
       style="color:#000000;display:inline;fill:#000000;-inkscape-stroke:none"
       d="m 113.00872,12.436275 c -1.10782,0 -2,0.916626 -2,2.050782 v 6.898437 c 0,1.134154 0.89216,2.050781 2,2.050781 1.10783,1e-6 2,-0.916611 2,-2.050781 v -6.898437 c 0,-1.134171 -0.89218,-2.050781 -2,-2.050782 z m 0,0.09961 c 1.05278,0 1.90039,0.869345 1.90039,1.951172 v 6.898437 c 0,1.081825 -0.84763,1.951172 -1.90039,1.951172 -1.05277,0 -1.90039,-0.869332 -1.90039,-1.951172 v -6.898437 c 0,-1.081842 0.84761,-1.951172 1.90039,-1.951172 z"
       id="path5189" />
    <path
       style="color:#000000;display:inline;fill:#000000;-inkscape-stroke:none"
       d="m 17.274338,12.436275 c -1.107818,0 -2,0.916626 -2,2.050782 v 6.898437 c 0,1.134154 0.892166,2.050781 2,2.050781 1.107834,1e-6 2,-0.916611 2,-2.050781 v -6.898437 c 0,-1.134171 -0.892182,-2.050781 -2,-2.050782 z m 0,0.09961 c 1.05278,0 1.900391,0.869345 1.900391,1.951172 v 6.898437 c 0,1.081825 -0.847627,1.951172 -1.900391,1.951172 -1.052763,0 -1.900391,-0.869332 -1.900391,-1.951172 v -6.898437 c 0,-1.081842 0.847612,-1.951172 1.900391,-1.951172 z"
       id="path5437" />
    <g
       id="g5538"
       transform="translate(-18.123346,-39.915287)"
       style="display:inline;fill:none;stroke:#000000;stroke-width:0.1">
      <path
         style="color:#000000;fill:#000000;stroke:none;-inkscape-stroke:none"
         d="m 94.113281,68.701172 c -0.973365,0 -1.75,0.91803 -1.75,2.048828 v 0.900391 c 0,1.130798 0.776635,2.050781 1.75,2.050781 0.973366,0 1.75,-0.919967 1.75,-2.050781 V 70.75 c 0,-1.130813 -0.776634,-2.048828 -1.75,-2.048828 z m 0,0.09961 c 0.910233,0 1.648438,0.864035 1.648438,1.949219 v 0.900391 c 0,1.085185 -0.738205,1.951171 -1.648438,1.951171 -0.910232,0 -1.65039,-0.86597 -1.65039,-1.951171 V 70.75 c 0,-1.0852 0.740158,-1.949219 1.65039,-1.949218 z"
         id="path5534" />
      <path
         style="color:#000000;fill:#000000;stroke:none;-inkscape-stroke:none"
         d="m 72.416016,68.701172 c -0.973366,0 -1.75,0.91803 -1.75,2.048828 v 0.900391 c 0,1.130798 0.776634,2.050781 1.75,2.050781 0.973365,0 1.75,-0.919967 1.75,-2.050781 V 70.75 c 0,-1.130813 -0.776635,-2.048828 -1.75,-2.048828 z m 0,0.09961 c 0.910232,0 1.65039,0.864035 1.65039,1.949219 v 0.900391 c 0,1.085185 -0.740158,1.951171 -1.65039,1.951171 -0.910233,0 -1.648438,-0.86597 -1.648438,-1.951171 V 70.75 c 0,-1.0852 0.738205,-1.949219 1.648438,-1.949218 z"
         id="path5536" />
    </g>
  </g>
  <g
     inkscape:label="Edge.Cuts"
     inkscape:groupmode="layer"
     id="g5967"
     style="display:inline"
     sodipodi:insensitive="true">
    <path
       style="color:#000000;display:inline;fill:none;stroke:#000000;stroke-width:0.1;stroke-miterlimit:4;stroke-dasharray:none;stroke-opacity:1"
       d="m 17.4434,6.44473 -0.2555,0.01291 -0.2481,0.0379 -0.2396,0.06163 -0.2296,0.0841 -0.2186,0.10531 -0.2061,0.12526 -0.1925,0.14396 -0.1775,0.16138 -0.1614,0.17756 -0.1439,0.19247 -0.1253,0.20613 -0.1053,0.21852 -0.0841,0.22966 -0.0617,0.23954 -0.0379,0.24815 -0.0129,0.25552 0.0129,0.25551 0.0379,0.24815 0.0617,0.23954 0.0841,0.22966 0.1053,0.21851 0.1253,0.2061 0.1439,0.1925 0.1614,0.1776 0.1775,0.1614 0.1925,0.1439 0.2061,0.1253 0.2186,0.1053 0.2296,0.0841 0.2396,0.0616 0.2481,0.0379 0.2555,0.0129 0.2555,-0.0129 0.2482,-0.0379 0.2395,-0.0616 0.2297,-0.0841 0.2185,-0.1053 0.2061,-0.1253 0.1925,-0.1439 0.1776,-0.1614 0.1614,-0.1776 0.1439,-0.1925 0.1253,-0.2061 L 19.7469,9.91759 19.831,9.68793 19.8926,9.44839 19.9305,9.20024 19.9434,8.94473 19.9305,8.68921 19.8926,8.44106 19.831,8.20152 19.7469,7.97186 19.6416,7.75334 19.5163,7.54721 19.3724,7.35474 19.211,7.17718 19.0334,7.0158 18.8409,6.87184 18.6348,6.74658 18.4163,6.64127 18.1866,6.55717 17.9471,6.49554 17.6989,6.45764 17.4434,6.44473 v 0 m 0,0.10156 0.2455,0.01237 0.2384,0.0363 0.2301,0.05903 0.2205,0.08058 0.2099,0.10091 0.1979,0.12004 0.1848,0.13799 0.1704,0.15472 0.1549,0.17026 0.1382,0.18461 0.1202,0.19774 0.101,0.20969 0.0807,0.22043 0.0592,0.22998 0.0363,0.23832 0.0124,0.24547 -0.0124,0.24548 -0.0363,0.23839 -0.0592,0.23007 -0.0807,0.22055 -0.101,0.20988 -0.1202,0.1979 -0.1382,0.1848 -0.1549,0.1704 -0.1704,0.1549 -0.1848,0.1382 -0.1979,0.1202 -0.2099,0.101 -0.2205,0.0807 -0.2301,0.0592 -0.2384,0.0363 -0.2455,0.0124 -0.2455,-0.0124 -0.2383,-0.0363 -0.2301,-0.0592 -0.2206,-0.0807 -0.2098,-0.101 L 16.1012,10.9353 15.9164,10.7971 15.746,10.6422 15.5911,10.4718 15.4529,10.287 15.3327,10.0891 15.2316,9.87922 15.1509,9.65867 15.0918,9.4286 15.0554,9.19021 15.043,8.94473 15.0554,8.69926 15.0918,8.46094 15.1509,8.23096 15.2316,8.01053 15.3327,7.80084 15.4529,7.6031 15.5911,7.41849 15.746,7.24823 15.9164,7.09351 16.1012,6.95552 16.2991,6.83548 16.5089,6.73457 16.7295,6.65399 16.9596,6.59496 17.1979,6.55866 17.4434,6.54629 v 0"
       id="path4517" />
    <path
       style="color:#000000;display:inline;fill:none;stroke:#000000;stroke-width:0.1;stroke-miterlimit:4;stroke-dasharray:none;stroke-opacity:1"
       d="m 113.178,6.44473 -0.256,0.01291 -0.248,0.0379 -0.239,0.06163 -0.23,0.0841 -0.219,0.10531 -0.206,0.12526 -0.192,0.14396 -0.178,0.16138 -0.161,0.17756 -0.144,0.19247 -0.125,0.20613 -0.106,0.21852 -0.084,0.22966 -0.061,0.23954 -0.038,0.24815 -0.013,0.25552 0.013,0.25551 0.038,0.24815 0.061,0.23954 0.084,0.22966 0.106,0.21851 0.125,0.2061 0.144,0.1925 0.161,0.1776 0.178,0.1614 0.192,0.1439 0.206,0.1253 0.219,0.1053 0.23,0.0841 0.239,0.0616 0.248,0.0379 0.256,0.0129 0.255,-0.0129 0.248,-0.0379 0.24,-0.0616 0.23,-0.0841 0.218,-0.1053 0.206,-0.1253 0.193,-0.1439 0.177,-0.1614 0.162,-0.1776 0.144,-0.1925 0.125,-0.2061 0.105,-0.21851 0.084,-0.22966 0.062,-0.23954 0.038,-0.24815 0.013,-0.25551 -0.013,-0.25552 -0.038,-0.24815 -0.062,-0.23954 -0.084,-0.22966 -0.105,-0.21852 -0.125,-0.20613 -0.144,-0.19247 -0.162,-0.17756 -0.177,-0.16138 -0.193,-0.14396 -0.206,-0.12526 -0.218,-0.10531 -0.23,-0.0841 -0.24,-0.06163 -0.248,-0.0379 -0.255,-0.01291 v 0 m 0,0.10156 0.245,0.01237 0.239,0.0363 0.23,0.05903 0.22,0.08058 0.21,0.10091 0.198,0.12004 0.185,0.13799 0.17,0.15472 0.155,0.17026 0.138,0.18461 0.121,0.19774 0.101,0.20969 0.08,0.22043 0.059,0.22998 0.037,0.23832 0.012,0.24547 -0.012,0.24548 -0.037,0.23839 -0.059,0.23007 -0.08,0.22055 -0.101,0.20988 -0.121,0.1979 -0.138,0.1848 -0.155,0.1704 -0.17,0.1549 -0.185,0.1382 -0.198,0.1202 -0.21,0.101 -0.22,0.0807 -0.23,0.0592 -0.239,0.0363 -0.245,0.0124 -0.246,-0.0124 -0.238,-0.0363 -0.23,-0.0592 -0.221,-0.0807 -0.21,-0.101 -0.197,-0.1202 -0.185,-0.1382 -0.171,-0.1549 -0.155,-0.1704 -0.138,-0.1848 -0.12,-0.1979 -0.101,-0.20988 -0.081,-0.22055 -0.059,-0.23007 -0.036,-0.23839 -0.013,-0.24548 0.013,-0.24547 0.036,-0.23832 0.059,-0.22998 0.081,-0.22043 0.101,-0.20969 0.12,-0.19774 0.138,-0.18461 0.155,-0.17026 0.171,-0.15472 0.185,-0.13799 0.197,-0.12004 0.21,-0.10091 0.221,-0.08058 0.23,-0.05903 0.238,-0.0363 0.246,-0.01237 v 0"
       id="circle4831" />
    <path
       style="color:#000000;display:inline;fill:none;stroke:#000000;stroke-width:0.1;stroke-miterlimit:4;stroke-dasharray:none;stroke-opacity:1"
       d="m 57.4861,3.24538 -0.142,0.015 -0.1231,0.05373 -0.0973,0.09542 -0.0665,0.13505 -0.0458,0.17449 -0.0308,0.19519 -0.0207,0.44627 0.0275,0.51036 0.0682,0.56195 0.1018,0.6005 0.1293,0.62525 0.1502,0.63637 0.1644,0.63385 0.3425,1.19635 0.3204,1.02104 0.3716,1.0951 -0.4183,0.9794 -0.3878,1.038 L 55.8976,12.2459 53.9724,11.2721 52.0692,10.3497 50.2027,9.49094 48.3881,8.70827 47.5049,8.34932 46.6402,8.01403 45.796,7.70392 44.9741,7.42056 44.1764,7.16549 43.4047,6.94024 42.052,6.58237 40.6745,6.24995 39.2752,5.94261 37.8567,5.65996 36.4221,5.40162 34.9741,5.1672 33.5157,4.95634 32.0496,4.76863 30.5787,4.60371 29.106,4.4612 27.6341,4.3407 26.1661,4.24184 24.7047,4.16424 23.2529,4.10751 21.8134,4.07127 20.3891,4.05515 19.1473,4.05731 17.9216,4.07458 16.7138,4.10668 15.5261,4.15336 14.3602,4.21436 13.2183,4.28942 12.1022,4.37829 11.0138,4.48071 9.95523,4.59642 8.92833,4.72517 7.93509,4.86668 6.97744,5.02071 6.05736,5.18701 5.1768,5.3653 4.3377,5.55533 3.54204,5.75685 3.22842,5.85792 2.9953,5.97183 2.90693,6.03456 2.83698,6.10186 2.78599,6.17391 2.75449,6.25088 2.74326,6.33139 l 0.00837,0.08203 0.02634,0.0828 0.04266,0.0828 0.12924,0.16693 0.18392,0.17207 0.23456,0.17935 0.28091,0.18724 0.68333,0.39786 0.81619,0.42867 0.91403,0.45898 0.97636,0.48806 1.00244,0.51509 0.99243,0.54033 0.94636,0.5639 0.4446,0.2902 0.4193,0.2955 0.3897,0.3003 0.3556,0.3046 0.317,0.3087 0.2739,0.3123 0.2264,0.3154 0.1744,0.3183 0.1162,0.2784 0.1052,0.3028 0.0946,0.3253 0.0849,0.3458 0.1432,0.7451 0.1121,0.8033 0.0865,0.8456 0.0662,0.872 0.0933,1.7599 0.078,1.6763 0.0474,0.7681 0.0607,0.7006 0.0798,0.618 0.1047,0.5204 0.0633,0.2192 0.0724,0.1896 0.083,0.1583 0.0955,0.1254 0.1297,0.1081 0.1635,0.0888 0.1953,0.0721 0.2251,0.0581 0.5327,0.0826 0.6316,0.0487 1.5012,0.0472 0.8391,0.0234 0.8776,0.04 0.9004,0.0688 0.9076,0.1101 0.4516,0.0743 0.4477,0.0893 0.4416,0.1056 0.4339,0.1235 0.424,0.143 0.4122,0.1639 0.3986,0.1865 0.383,0.2104 0.3655,0.2361 0.346,0.263 0.3247,0.2917 0.3013,0.3217 0.2171,0.2726 0.2041,0.2937 0.1915,0.3133 0.1797,0.3309 0.1685,0.3468 0.1578,0.3609 0.2862,0.7571 0.2511,0.7923 0.2209,0.8131 0.1956,0.8198 0.1754,0.8123 0.3104,1.5452 0.1456,0.7047 0.146,0.6409 0.1509,0.5633 0.162,0.4723 0.088,0.198 0.094,0.1702 0.1012,0.141 0.1093,0.1099 0.133,0.0819 0.1603,0.0517 0.1855,0.0248 0.209,0.0013 0.2315,-0.0195 0.2533,-0.0382 0.5679,-0.1242 0.6415,-0.1748 0.705,-0.2096 1.5577,-0.461 0.8313,-0.2201 0.8515,-0.192 0.8608,-0.1487 0.4305,-0.0532 0.4287,-0.0366 0.4257,-0.0181 0.4211,0.0025 0.4153,0.0249 0.408,0.0493 0.3995,0.0756 0.3896,0.1037 0.3782,0.134 0.3656,0.166 0.3191,0.1822 0.3083,0.2143 0.2978,0.244 0.2875,0.2715 0.2774,0.2964 0.2678,0.3192 0.2584,0.3395 0.2492,0.3574 0.4723,0.7593 0.4391,0.8028 0.4084,0.8274 0.3798,0.8332 0.6845,1.6073 0.6023,1.4029 0.2769,0.5781 0.2652,0.4714 0.1292,0.1903 0.1284,0.1572 0.1292,0.1215 0.1315,0.0829 0.1904,0.0606 0.2392,0.0283 0.2856,-8e-4 0.3297,-0.0266 0.3707,-0.0501 0.4084,-0.0723 0.9159,-0.2042 1.0245,-0.2723 1.1039,-0.3266 1.1543,-0.3674 1.1754,-0.3943 2.2827,-0.8096 2.0156,-0.7522 1.5224,-0.5885 0.8032,-0.3183 0.2623,0.3138 0.2665,0.2948 0.2704,0.2756 0.2741,0.2562 0.2775,0.2366 0.2808,0.217 0.2838,0.197 0.2865,0.1771 0.2892,0.1568 0.2915,0.1365 0.2936,0.116 0.2955,0.0953 0.2972,0.0744 0.2986,0.0534 0.2998,0.0323 0.3009,0.011 0.3008,-0.011 0.2998,-0.0323 0.2987,-0.0534 0.2971,-0.0745 0.2955,-0.0953 0.2936,-0.1159 0.2915,-0.1365 0.2892,-0.1569 0.2866,-0.177 0.2837,-0.197 0.2808,-0.217 0.2776,-0.2366 0.274,-0.2562 0.2704,-0.2756 0.2665,-0.2948 0.2624,-0.3138 0.8032,0.3183 1.5223,0.5885 2.0156,0.7522 2.2827,0.8096 1.1754,0.3943 1.1543,0.3674 1.104,0.3266 1.0245,0.2723 0.9158,0.2042 0.4084,0.0723 0.3708,0.0501 0.3296,0.0266 0.2856,8e-4 0.2392,-0.0283 0.1905,-0.0606 0.1315,-0.0829 0.1291,-0.1215 0.1284,-0.1572 0.1293,-0.1903 0.2651,-0.4714 0.277,-0.5781 0.6022,-1.4029 0.6845,-1.6073 0.3798,-0.8332 0.4084,-0.8274 0.4391,-0.8028 0.4723,-0.7593 0.2492,-0.3574 0.2584,-0.3395 0.2678,-0.3192 0.2775,-0.2964 0.2874,-0.2715 0.2978,-0.244 0.3083,-0.2143 0.3191,-0.1822 0.3656,-0.166 0.3783,-0.134 0.3895,-0.1037 0.3995,-0.0756 0.4081,-0.0493 0.4152,-0.0249 0.4212,-0.0025 0.4256,0.0181 0.4287,0.0366 0.4305,0.0532 0.8608,0.1487 0.8515,0.192 0.8313,0.2201 1.5577,0.461 0.705,0.2096 0.6415,0.1748 0.5683,0.1243 0.253,0.0381 0.231,0.0195 0.209,-0.0013 0.186,-0.0248 0.16,-0.0517 0.133,-0.0819 0.11,-0.1099 0.101,-0.141 0.094,-0.1702 0.088,-0.198 0.162,-0.4723 0.151,-0.5633 0.146,-0.6409 0.145,-0.7047 0.311,-1.5452 0.175,-0.8123 0.196,-0.8198 0.221,-0.8131 0.251,-0.7923 0.286,-0.7571 0.158,-0.3609 0.168,-0.3468 0.18,-0.3309 0.191,-0.3133 0.204,-0.2937 0.218,-0.2726 0.301,-0.3217 0.324,-0.2917 0.347,-0.263 0.365,-0.2361 0.383,-0.2104 0.399,-0.1865 0.412,-0.1639 0.424,-0.143 0.434,-0.1235 0.441,-0.1056 0.448,-0.0893 0.452,-0.0743 0.907,-0.1101 0.901,-0.0688 0.877,-0.04 0.839,-0.0234 1.502,-0.0472 0.631,-0.0487 0.533,-0.0826 0.225,-0.0581 0.195,-0.0721 0.164,-0.0888 0.129,-0.1081 0.096,-0.1254 0.083,-0.1583 0.072,-0.1896 0.064,-0.2192 0.104,-0.5204 0.08,-0.618 0.061,-0.7006 0.047,-0.7681 0.078,-1.6763 0.094,-1.7599 0.066,-0.872 0.086,-0.8456 0.112,-0.8033 0.143,-0.7451 0.085,-0.3458 0.095,-0.3253 0.105,-0.3028 0.116,-0.2784 0.175,-0.3183 0.226,-0.3154 0.274,-0.3123 0.317,-0.3087 0.356,-0.3046 0.389,-0.3003 0.42,-0.2955 0.444,-0.2902 0.947,-0.5639 0.992,-0.54033 1.003,-0.51509 0.976,-0.48806 0.914,-0.45898 0.816,-0.42867 0.683,-0.39786 0.281,-0.18724 0.235,-0.17935 0.184,-0.17207 0.129,-0.16693 0.043,-0.0828 0.026,-0.0828 0.008,-0.08203 -0.011,-0.08051 -0.031,-0.07697 -0.051,-0.07205 -0.07,-0.0673 -0.089,-0.06273 -0.233,-0.11391 -0.313,-0.10107 -0.851,-0.21456 -0.899,-0.20149 -0.947,-0.18811 -0.991,-0.17442 -1.033,-0.16039 -1.073,-0.14607 -1.11,-0.13142 -1.146,-0.11646 -1.178,-0.10117 -1.208,-0.08558 -1.237,-0.06967 -1.261,-0.05344 -1.285,-0.03689 -1.306,-0.02004 -1.324,-0.00286 -1.34,0.01464 -1.354,0.03245 -1.364,0.05057 -1.374,0.06901 -1.38,0.08777 -1.385,0.10685 -1.386,0.12624 -1.3852,0.14594 -1.3823,0.16597 -1.3769,0.18631 -1.3692,0.20696 -1.3589,0.22793 -1.3464,0.24923 -1.3315,0.27082 -1.3142,0.29275 -1.2945,0.31498 -1.2724,0.33754 -0.7714,0.22518 -0.7975,0.255 -0.8216,0.28328 -0.8439,0.31001 -0.8643,0.3352 -0.8829,0.35884 -1.8139,0.78243 -1.8657,0.85842 -1.9026,0.9222 -1.9245,0.9734 -1.9315,1.0125 -0.3937,-1.0547 -0.4253,-0.9943 0.3932,-1.164 0.3186,-1.02244 0.3357,-1.18288 0.1597,-0.6231 L 73.3292,6.59123 73.4537,5.97916 73.5513,5.39202 73.6159,4.84286 73.6409,4.344 73.6192,3.9073 73.5886,3.71595 73.5435,3.54458 73.4852,3.42329 73.4026,3.33322 73.2995,3.27454 73.1796,3.24744 73.0467,3.24945 72.9023,3.27631 72.7471,3.32556 72.5817,3.39472 72.2245,3.58497 71.8403,3.83313 71.4397,4.12512 71.0335,4.44686 70.2663,5.10671 69.6123,5.71247 68.9634,6.35113 68.7322,6.10624 68.5066,5.89051 68.2855,5.70222 68.0678,5.53964 67.8526,5.40105 67.6389,5.28472 67.4255,5.18892 67.2115,5.11193 66.9915,5.05035 66.7687,5.00335 66.3107,4.94428 65.828,4.9171 65.3114,4.90419 H 65.3103 65.3092 L 64.7849,4.91542 64.2983,4.93729 63.8389,4.98951 63.6161,5.03315 63.3961,5.09178 63.1823,5.16655 62.969,5.26106 62.7552,5.37723 62.5396,5.51701 62.3211,5.6823 62.0986,5.87505 61.871,6.09718 61.6371,6.35061 61.1453,5.86319 60.6369,5.38279 60.0171,4.82719 59.3256,4.25339 58.9775,3.98845 58.6373,3.75026 58.3125,3.54737 58.009,3.38897 57.7318,3.28499 57.6047,3.25652 57.486,3.24538 h 1e-4 m -0.0021,0.10025 0.2194,0.03725 0.2623,0.09926 0.2961,0.15309 0.3203,0.19874 0.3363,0.23547 0.3453,0.26267 0.6878,0.57053 0.6353,0.57003 0.5251,0.49687 0.4891,0.48443 0.0378,0.03875 0.0356,-0.04134 0.2364,-0.25994 0.2286,-0.22579 0.2221,-0.19414 0.2172,-0.16499 0.2136,-0.13836 0.2113,-0.11422 0.2105,-0.09258 0.2111,-0.07346 0.2131,-0.05672 0.2168,-0.04236 0.4501,-0.05109 0.4812,-0.02186 0.5229,-0.01143 0.515,0.01301 0.4772,0.02694 0.449,0.05774 0.217,0.04569 0.2136,0.05971 0.2115,0.07583 0.2111,0.09413 0.2116,0.11465 0.2136,0.13744 0.2167,0.16245 0.221,0.18971 0.2266,0.21921 0.2335,0.25095 0.0356,0.04031 0.0373,-0.03824 0.6456,-0.63477 0.6706,-0.62205 0.7813,-0.67278 0.4038,-0.31963 0.397,-0.28924 0.3783,-0.24448 0.3474,-0.18535 0.3036,-0.1116 0.1304,-0.02459 0.1133,-0.0023 0.0948,0.01932 0.0771,0.042 0.0606,0.06845 0.045,0.09864 0.0418,0.16037 0.0288,0.18251 0.0207,0.42425 -0.0239,0.4913 -0.0633,0.54405 -0.0969,0.58295 -0.124,0.60883 -0.1448,0.62155 -0.1594,0.62114 -0.3373,1.18845 -0.3207,1.02941 -0.3925,1.1628 -0.0067,0.0191 0.0083,0.0181 0.4389,1.0236 0.4055,1.0885 0.0191,0.0552 0.0517,-0.0279 1.9365,-1.0157 1.9297,-0.9767 1.9077,-0.9251 1.8704,-0.86106 1.8179,-0.78459 0.8846,-0.35972 0.8656,-0.33592 0.845,-0.31058 0.8223,-0.28367 0.7977,-0.2552 0.7713,-0.22519 1.2704,-0.33696 1.2925,-0.31444 1.3124,-0.29223 1.3298,-0.27033 1.3448,-0.24876 1.3575,-0.22751 1.3677,-0.20656 1.3755,-0.18593 1.381,-0.16563 1.384,-0.14565 1.385,-0.12597 1.383,-0.10662 1.379,-0.08758 1.373,-0.06886 1.363,-0.05046 1.353,-0.03238 1.339,-0.0146 1.322,0.00284 1.305,0.01997 1.283,0.03679 1.261,0.05328 1.234,0.06947 1.207,0.08533 1.176,0.10087 1.144,0.1161 1.109,0.13101 1.071,0.14561 1.031,0.15988 0.988,0.17384 0.944,0.18748 0.897,0.20081 0.848,0.21381 0.303,0.09783 0.217,0.10577 0.134,0.10985 0.063,0.11081 0.001,0.11677 -0.056,0.13282 -0.117,0.15054 -0.175,0.16366 -0.228,0.17402 -0.276,0.18358 -0.678,0.39442 -0.814,0.42833 -0.914,0.45934 -0.977,0.48817 -1.004,0.51573 -0.995,0.54177 -0.95,0.5663 -0.448,0.2919 -0.423,0.2974 -0.393,0.3029 -0.36,0.3084 -0.323,0.3139 -0.279,0.3193 -0.232,0.3248 -0.18,0.3302 -0.12,0.2847 -0.107,0.3083 -0.096,0.3301 -0.087,0.35 -0.145,0.7515 -0.112,0.8078 -0.086,0.8483 -0.066,0.8736 -0.093,1.7611 -0.078,1.6754 -0.047,0.7661 -0.061,0.6973 -0.078,0.6126 -0.103,0.5113 -0.062,0.2124 -0.069,0.1804 -0.076,0.1463 -0.083,0.11 -0.113,0.0932 -0.149,0.0803 -0.184,0.068 -0.216,0.0562 -0.522,0.0808 -0.627,0.0484 -1.498,0.047 -0.84,0.0235 -0.881,0.04 -0.904,0.069 -0.913,0.1105 -0.456,0.0748 -0.451,0.0899 -0.446,0.1066 -0.438,0.1248 -0.429,0.1447 -0.417,0.1662 -0.404,0.1892 -0.389,0.2139 -0.371,0.24 -0.351,0.2678 -0.331,0.2971 -0.307,0.3281 -0.221,0.2779 -0.208,0.2988 -0.195,0.3178 -0.182,0.3351 -0.171,0.3506 -0.16,0.3644 -0.288,0.7631 -0.252,0.797 -0.222,0.8167 -0.196,0.8225 -0.175,0.8139 -0.311,1.5458 -0.145,0.7034 -0.146,0.638 -0.151,0.558 -0.162,0.4629 -0.085,0.1911 -0.088,0.1616 -0.091,0.1303 -0.095,0.097 -0.111,0.0678 -0.141,0.0451 -0.17,0.0231 -0.197,0.0015 -0.224,-0.019 -0.248,-0.0375 -0.5604,-0.1229 -0.6381,-0.1738 -0.7039,-0.2093 -1.5602,-0.4618 -0.8344,-0.221 -0.8562,-0.1936 -0.8672,-0.1502 -0.4343,-0.0538 -0.433,-0.0369 -0.4303,-0.0181 -0.4263,0.0027 -0.4208,0.0256 -0.4141,0.0504 -0.406,0.0773 -0.3965,0.1061 -0.3856,0.1369 -0.3734,0.1697 -0.3273,0.1866 -0.3154,0.2186 -0.3038,0.2482 -0.2926,0.2754 -0.2818,0.3004 -0.2714,0.3229 -0.2613,0.343 -0.2515,0.3607 -0.2422,0.3762 -0.2332,0.3891 -0.4409,0.8078 -0.4092,0.8312 -0.3806,0.8357 -0.6853,1.6092 -0.6009,1.3999 -0.2751,0.5738 -0.2608,0.4634 -0.1255,0.1838 -0.1218,0.1484 -0.1171,0.111 -0.1115,0.0715 -0.1672,0.0517 -0.2242,0.0259 -0.2763,2e-4 -0.3235,-0.0251 -0.3661,-0.0494 -0.4051,-0.0716 -0.9113,-0.203 -1.0212,-0.2714 -1.1016,-0.326 -1.1525,-0.3668 -1.1741,-0.3939 -2.2953,-0.8142 -2.0299,-0.7577 -1.53,-0.5916 -0.7961,-0.3154 -0.0346,-0.0139 -0.0232,0.0294 -0.2611,0.3145 -0.2649,0.2951 -0.2685,0.2754 -0.272,0.2557 -0.2751,0.236 -0.2781,0.2159 -0.2809,0.196 -0.2834,0.1758 -0.2857,0.1556 -0.2878,0.1352 -0.2896,0.1148 -0.2913,0.0942 -0.2927,0.0735 -0.2939,0.0527 -0.2949,0.0318 -0.2956,0.0107 -0.2956,-0.0107 -0.2949,-0.0318 -0.2939,-0.0527 -0.2927,-0.0735 -0.2913,-0.0942 -0.2897,-0.1148 -0.2877,-0.1352 -0.2857,-0.1556 -0.2834,-0.1758 -0.2809,-0.196 -0.2781,-0.2159 -0.2752,-0.236 -0.2719,-0.2557 -0.2686,-0.2754 -0.2649,-0.2951 -0.261,-0.3145 -0.0233,-0.0294 -0.0346,0.0139 -0.796,0.3154 -1.5301,0.5916 -2.0298,0.7577 -2.2954,0.8142 -1.174,0.3939 -1.1526,0.3668 -1.1015,0.326 -1.0212,0.2714 -0.9114,0.203 -0.405,0.0716 -0.3662,0.0494 -0.3234,0.0251 -0.2763,-2e-4 L 47.1299,46.8314 46.9627,46.7797 46.8512,46.7082 46.734,46.5972 46.6122,46.4488 46.4867,46.265 46.226,45.8016 45.9508,45.2278 45.35,43.8279 44.6646,42.2187 44.2841,41.383 43.8748,40.5518 43.434,39.744 43.2008,39.3549 42.9586,38.9787 42.707,38.618 42.4458,38.275 42.1744,37.9521 41.8926,37.6517 41.5999,37.3763 41.2961,37.1281 40.9808,36.9095 40.6535,36.7229 40.2801,36.5532 39.8944,36.4163 39.4979,36.3102 39.092,36.2329 l -0.4141,-0.0504 -0.4208,-0.0256 -0.4263,-0.0027 -0.4303,0.0181 -0.433,0.0369 -0.4343,0.0538 -0.8673,0.1502 -0.8562,0.1936 -0.8344,0.221 -1.5602,0.4618 -0.7038,0.2093 -0.6381,0.1738 -0.5608,0.1229 -0.2476,0.0375 -0.2236,0.019 -0.1975,-0.0015 -0.1697,-0.0231 -0.141,-0.0451 -0.1114,-0.0678 -0.0949,-0.097 -0.0913,-0.1303 -0.0881,-0.1616 -0.085,-0.1911 -0.1614,-0.4629 -0.1516,-0.558 -0.1454,-0.638 -0.1454,-0.7034 -0.3107,-1.5458 -0.1755,-0.8139 -0.1957,-0.8225 -0.2214,-0.8167 -0.2522,-0.797 -0.2886,-0.7631 -0.1596,-0.3644 -0.1706,-0.3506 -0.1824,-0.3351 -0.1947,-0.3178 -0.2079,-0.2988 -0.2216,-0.2779 -0.3071,-0.3281 -0.3303,-0.2971 -0.3517,-0.2678 -0.371,-0.24 -0.3885,-0.2139 -0.4038,-0.1892 -0.4173,-0.1662 -0.4288,-0.1447 -0.4383,-0.1248 -0.4459,-0.1066 -0.4515,-0.0899 -0.4551,-0.0748 -0.9135,-0.1105 -0.9045,-0.069 -0.8802,-0.04 -0.8404,-0.0235 -1.4983,-0.047 -0.6262,-0.0484 -0.5221,-0.0808 -0.2165,-0.0562 -0.1838,-0.068 -0.1492,-0.0803 -0.113,-0.0932 -0.0828,-0.11 -0.0762,-0.1463 -0.0691,-0.1804 -0.0618,-0.2123 -0.1025,-0.5114 -0.0789,-0.6126 -0.0604,-0.6973 -0.0475,-0.7661 -0.0781,-1.6754 -0.0925,-1.7611 -0.0656,-0.8736 -0.0862,-0.8483 -0.1127,-0.8077 -0.1448,-0.7516 -0.0863,-0.35 -0.0965,-0.3301 -0.1074,-0.3083 -0.1191,-0.2847 -0.1804,-0.3302 -0.2322,-0.3248 -0.2794,-0.3193 -0.322,-0.3139 L 11.298,11.4849 10.9043,11.182 10.4815,10.8846 10.0341,10.5928 9.08361,10.0264 8.08841,9.48463 7.08447,8.96891 6.10775,8.48074 5.19397,8.02139 4.37965,7.59306 3.7019,7.19865 3.42584,7.01506 3.19785,6.84104 3.02301,6.67738 2.90587,6.52685 2.84922,6.39403 2.8511,6.27725 2.91325,6.16644 3.04798,6.05659 3.26496,5.95082 3.56785,5.85299 4.3609,5.65216 5.19759,5.46273 6.07594,5.28497 6.994,5.11915 7.94977,4.96551 8.9413,4.82433 9.9666,4.69587 l 1.0571,-0.11548 1.087,-0.10223 1.1148,-0.08873 1.1407,-0.07496 1.1646,-0.06093 1.1866,-0.04663 1.2065,-0.03207 1.2246,-0.01725 1.2405,-0.00217 1.4229,0.01611 1.4381,0.03619 1.4505,0.05667 1.4599,0.07752 1.4666,0.09875 1.4703,0.12035 1.4713,0.14235 1.4692,0.1647 1.4645,0.18745 1.4567,0.21058 1.4462,0.23408 1.4328,0.25796 1.4166,0.28222 1.3973,0.30686 1.3754,0.33189 1.3505,0.35728 0.7716,0.22525 0.798,0.2553 0.8226,0.28378 0.8452,0.31069 0.866,0.33607 0.8849,0.35986 1.8186,0.78492 1.8711,0.86145 1.9084,0.9255 1.9304,0.977 1.9371,1.0162 0.0517,0.0279 0.0191,-0.0553 0.3995,-1.072 0.432,-1.009 0.0083,-0.0181 L 58.7356,11.2263 58.3651,10.1335 58.0423,9.10534 57.6979,7.90299 57.5341,7.271 57.3846,6.63696 57.256,6.01478 57.1548,5.41838 57.0879,4.86153 57.0615,4.35874 57.081,3.92508 57.1098,3.73888 57.1522,3.5756 57.2048,3.46766 57.2768,3.39732 57.3688,3.35736 57.484,3.34564 v -1e-5"
       id="path857" />
  </g>
  <g
     inkscape:label="F.SilkS"
     inkscape:groupmode="layer"
     id="g5969"
     style="display:inline">
    <path
       id="path6232"
       style="display:inline;fill:#000000;stroke:none;stroke-width:0.377953;stroke-linecap:butt;stroke-linejoin:miter;stroke-miterlimit:4;stroke-dasharray:none;stroke-opacity:1"
       d="m 415.82031,15.439453 c -28.35594,0.170542 -59.53116,3.482759 -86.30859,10.894531 -15.2942,4.233322 -35.13646,13.554989 -54.64063,23.949219 4.27692,12.991317 6.57919,28.606314 6.58008,44.628906 -0.004,4.653604 -0.20195,9.296671 -0.59179,13.871091 h 0.0117 c 7.32614,0 13.22461,3.37088 13.22461,7.5586 v 3.40234 c 0,4.18772 -5.89847,7.55859 -13.22461,7.55859 -0.92481,0 -1.82703,-0.054 -2.69726,-0.15625 -3.12682,14.70078 -8.22523,26.49878 -14.41602,34.16797 l 0.39258,0.16211 c 0.16407,0.068 0.35135,0.14477 0.52734,0.21485 6.83206,2.71897 45.62338,17.9392 51.41797,15.20703 4.86834,-2.29543 10.58768,-31.25942 23.85157,-38.01367 14.62763,-7.44875 38.15151,7.30246 42.48632,3.72656 4.24381,-3.50085 4.29292,-28.85597 13.41602,-39.50391 11.76869,-13.73564 39.8178,-6.77759 43.97656,-11.181639 3.79631,-4.020261 0.98038,-31.646375 5.96289,-42.484375 6.04596,-13.15133 48.45475,-23.784428 34.28711,-27.580078 -14.52298,-3.890858 -35.43847,-6.211596 -58.625,-6.414062 -1.8632,-0.01627 -3.74046,-0.01918 -5.63086,-0.0078 z m 11.76563,9.03125 a 9.2598425,9.2598425 0 0 1 9.25976,9.259766 9.2598425,9.2598425 0 0 1 -9.25976,9.259765 9.2598425,9.2598425 0 0 1 -9.25977,-9.259765 9.2598425,9.2598425 0 0 1 9.25977,-9.259766 z m 0,22.519531 c 4.08302,0 7.37109,3.370874 7.37109,7.558594 v 26.078125 c 0,4.187709 -3.28807,7.560547 -7.37109,7.560547 -4.08303,0 -7.36914,-3.372838 -7.36914,-7.560547 V 54.548828 c 0,-4.18772 3.28611,-7.558594 7.36914,-7.558594 z"
       transform="scale(0.26458333)" />
    <path
       id="path10916"
       style="display:inline;fill:#000000;stroke:none;stroke-width:0.1;stroke-linecap:butt;stroke-linejoin:miter;stroke-miterlimit:4;stroke-dasharray:none;stroke-opacity:1"
       d="m 20.510789,4.0850221 c 7.502509,0.045123 15.750954,0.92148 22.835814,2.8825113 4.04659,1.1200664 9.29652,3.5864236 14.457,6.3365636 -1.1316,3.437286 -1.74074,7.568754 -1.74098,11.808065 10e-4,1.231266 0.0534,2.459744 0.15658,3.670059 h -0.003 c -1.93837,0 -3.49901,0.891879 -3.49901,1.99988 v 0.900202 c 0,1.108001 1.56064,1.999877 3.49901,1.999877 0.24469,0 0.4834,-0.01429 0.71365,-0.04134 0.8273,3.889581 2.17626,7.011136 3.81424,9.040275 l -0.10387,0.04289 c -0.0434,0.01798 -0.093,0.0383 -0.13953,0.05685 -1.80765,0.719394 -12.07118,4.746413 -13.60433,4.023526 -1.28809,-0.607332 -2.80133,-8.270721 -6.31073,-10.057783 C 36.715303,34.77578 30.491277,38.678704 29.344358,37.732581 28.221517,36.806314 28.208523,30.097772 25.794703,27.280505 22.680904,23.646283 15.259577,25.487267 14.159238,24.322029 13.154798,23.258335 13.899846,15.948926 12.581557,13.081372 10.981897,9.6017494 -0.23876231,6.7884089 3.5097587,5.7841432 7.3522977,4.754687 12.886188,4.1406584 19.020957,4.0870893 c 0.492972,-0.0043 0.989663,-0.00508 1.489832,-0.00207 z m -3.11299,2.3895182 A 2.45,2.45 0 0 0 14.947821,8.92452 2.45,2.45 0 0 0 17.397799,11.374499 2.45,2.45 0 0 0 19.84778,8.92452 2.45,2.45 0 0 0 17.397799,6.4745403 Z m 0,5.9582927 c -1.080299,0 -1.950267,0.891877 -1.950267,1.999878 v 6.899837 c 0,1.107998 0.869968,2.000394 1.950267,2.000394 1.080302,0 1.949752,-0.892396 1.949752,-2.000394 v -6.899837 c 0,-1.108001 -0.86945,-1.999878 -1.949752,-1.999878 z" />
  </g>
</svg>
